<svg xmlns="http://www.w3.org/2000/svg" viewBox="0 0 1878.93 2308.85" fill="currentColor"><g id="Layer_2" data-name="Layer 2"><g id="Layer_2-2" data-name="Layer 2"><path d="M929.88,1338.45a154.7,154.7,0,0,0,69-15.34l3.84,117a179,179,0,0,1-143.8-1.92l1.92-117A154.6,154.6,0,0,0,929.88,1338.45Zm-70.94,778.42c7.83,6.05,34.78,25.34,74.14,24.92a120.27,120.27,0,0,0,71.57-24.92q-1.9-292.39-3.83-584.77a224.28,224.28,0,0,1-145.71-3.84Q857,1822.56,858.94,2116.87ZM497.85,891.72c-19.77-12.09-42.07-10.2-53,1.92-7.17,7.92-7.75,18.27-7.67,23v69L191.73,901.31c-4.18-1.6-29.42-10.82-53.69,2.56A59.82,59.82,0,0,0,117,923.68v60.07l678.72,222.41c14.69,11.53,66.48,49.29,141.88,47.93,65.67-1.19,111.4-31.37,127.5-43.14l695.49-229.59-.48-59a42.64,42.64,0,0,0-12.78-15.34c-20.11-14.75-46.11-4.82-48.57-3.83l-270.34,88.19q-1-39.78-1.91-79.56c-.73-4.42-3.21-15.53-12.47-22.05-13.39-9.45-36.22-5.94-52.72,11.5l-316.35,237.74L979.73,786.27c57.66-21.54,95.8-74.16,95.86-130.37.09-73.34-64.65-137.13-140.6-136.77-80.24.39-144.09,72.27-139.32,146.35,3.36,52.11,40.27,99.32,94,120.79q-34.51,177.36-69,354.7ZM545.79,685.3C593.6,502,761.85,375.9,947.14,381.73c176.08,5.53,330.32,129.06,375.78,302.93,6.54,43.9,47.66,70.82,83.09,62.63,28.13-6.5,50.34-34.61,51.12-68.38-54.08-244-270.31-419.44-517.66-421.81C686.26,254.68,463,434.19,410.3,684.66c4,30.06,23.54,54.65,48.57,61.35C493.17,755.2,535.6,730.2,545.79,685.3Zm-298.46,8.94c65-333.95,361.19-575.18,697.89-571.35,329.53,3.76,615.83,241.32,681.11,567.74,12,43.57,53.49,64.6,82.7,54.18,20-7.11,34.18-28.89,37.07-54.18C1678.24,298.84,1341,8.63,949.05.19,545.71-8.49,189,283.54,117,686.57c3.11,26.95,18.78,50.09,40.87,58.24C189.47,756.49,232.27,736.63,247.33,694.24Zm826.35,1507a281.83,281.83,0,0,1-283.76-3.84L788,1286.68,3.83,1029.77Q1.93,1468.82,0,1907.88a174.5,174.5,0,0,0,107.37,132.29l738.15,249.25a190.14,190.14,0,0,0,159.13,3.84l768.83-255c12.54-3.64,49.9-16.25,76.7-53.69a141.38,141.38,0,0,0,24.92-63.27q1.92-442.89,3.83-885.78l-807.17,260.75Zm-913.5-904.54c7.34-22.59,35.38-35.82,60.39-24.92L628,1402.14c22.91,8.63,35,33.16,28.76,54.65-6.91,23.87-34.77,38.33-60.39,28.75L185.1,1349.42C164,1339.68,153.82,1316.23,160.18,1296.69Zm0,220.54c7.34-22.58,35.38-35.82,60.39-24.92L628,1622.68c22.91,8.63,35,33.16,28.76,54.65-6.91,23.87-34.77,38.33-60.39,28.76L185.1,1570C164,1560.23,153.82,1536.77,160.18,1517.23Zm0,225.92c7.34-22.59,35.38-35.82,60.39-24.92L628,1848.6c22.91,8.63,35,33.16,28.76,54.65-6.91,23.87-34.77,38.33-60.39,28.75L185.1,1795.88C164,1786.14,153.82,1762.69,160.18,1743.15Zm1525.69-393.73-411.26,136.12c-25.63,9.58-53.48-4.88-60.4-28.75-6.22-21.49,5.86-46,28.76-54.65l407.43-130.37c25-10.9,53,2.33,60.39,24.92C1717.14,1316.23,1707,1339.68,1685.87,1349.42Zm0,220.54-411.26,136.13c-25.63,9.57-53.48-4.89-60.4-28.76-6.22-21.49,5.86-46,28.76-54.65l407.43-130.37c25-10.9,53,2.34,60.39,24.92C1717.14,1536.77,1707,1560.23,1685.87,1570Zm0,225.92L1274.61,1932c-25.63,9.58-53.48-4.88-60.4-28.75-6.22-21.49,5.86-46,28.76-54.65l407.43-130.37c25-10.9,53,2.33,60.39,24.92C1717.14,1762.69,1707,1786.14,1685.87,1795.88Z"/></g></g></svg>