<?xml version="1.0" encoding="UTF-8" standalone="no"?>
<!-- Created with Inkscape (http://www.inkscape.org/) -->

<svg
   version="1.1"
   id="svg2"
   xml:space="preserve"
   width="214.66667"
   height="213.33333"
   viewBox="0 0 214.66667 213.33333"
   xmlns="http://www.w3.org/2000/svg"
   xmlns:svg="http://www.w3.org/2000/svg"><defs
     id="defs6" /><g
     id="g8"
     transform="matrix(1.3333333,0,0,-1.3333333,0,213.33333)"><g
       id="g10"
       transform="scale(0.1)"><path
         d="M 94.6992,91 H 1513.1 V 1510.2 H 94.6992 Z"
         style="fill:none;stroke:#231f20;stroke-width:11.5;stroke-linecap:butt;stroke-linejoin:miter;stroke-miterlimit:11.4737;stroke-dasharray:none;stroke-opacity:1"
         id="path12" /><path
         d="M 378.398,543.199 V 996.801 H 492.199 V 543.199 Z"
         style="fill:none;stroke:#231f20;stroke-width:14.4;stroke-linecap:butt;stroke-linejoin:miter;stroke-miterlimit:11.4737;stroke-dasharray:none;stroke-opacity:1"
         id="path14" /><path
         d="M 1115.7,232.898 H 661.398 V 346.602 H 1115.7 Z"
         style="fill:none;stroke:#231f20;stroke-width:14.4;stroke-linecap:butt;stroke-linejoin:miter;stroke-miterlimit:11.4737;stroke-dasharray:none;stroke-opacity:1"
         id="path16" /><path
         d="m 860.102,1083.9 v 283.7"
         style="fill:none;stroke:#231f20;stroke-width:14.4;stroke-linecap:butt;stroke-linejoin:miter;stroke-miterlimit:11.4737;stroke-dasharray:none;stroke-opacity:1"
         id="path18" /><path
         d="m 917,1168.9 v 113"
         style="fill:none;stroke:#231f20;stroke-width:20.2;stroke-linecap:butt;stroke-linejoin:miter;stroke-miterlimit:11.4737;stroke-dasharray:none;stroke-opacity:1"
         id="path20" /><path
         d="m 795.449,1273.76 h 15.836 l 0.004,15.12 h 3.598 v -15.12 h 15.117 v -5.04 h -15.121 v -15.12 h -3.602 l 0.004,15.12 h -15.836 v 5.04"
         style="fill:#231f20;fill-opacity:1;fill-rule:evenodd;stroke:none"
         id="path22" /><path
         d="m 795.449,1273.76 h 15.836 l 0.004,15.12 h 3.598 v -15.12 h 15.117 v -5.04 h -15.121 v -15.12 h -3.602 l 0.004,15.12 h -15.836 z"
         style="fill:none;stroke:#231f20;stroke-width:2.9;stroke-linecap:butt;stroke-linejoin:miter;stroke-miterlimit:11.4737;stroke-dasharray:none;stroke-opacity:1"
         id="path24" /><path
         d="m 949.125,1252.88 v 20.16 h 5.762 l -0.004,-20.16 h -5.758"
         style="fill:#231f20;fill-opacity:1;fill-rule:evenodd;stroke:none"
         id="path26" /><path
         d="m 949.125,1252.88 v 20.16 h 5.762 l -0.004,-20.16 z"
         style="fill:none;stroke:#231f20;stroke-width:2.9;stroke-linecap:butt;stroke-linejoin:miter;stroke-miterlimit:11.4737;stroke-dasharray:none;stroke-opacity:1"
         id="path28" /><path
         d="M 434.602,998.199 V 1225 l 426.199,0.8"
         style="fill:none;stroke:#231f20;stroke-width:8.6;stroke-linecap:butt;stroke-linejoin:miter;stroke-miterlimit:11.4737;stroke-dasharray:none;stroke-opacity:1"
         id="path30" /><path
         d="M 435.301,545.398 V 290.5 h 226.801"
         style="fill:none;stroke:#231f20;stroke-width:8.6;stroke-linecap:butt;stroke-linejoin:miter;stroke-miterlimit:11.4737;stroke-dasharray:none;stroke-opacity:1"
         id="path32" /><path
         d="m 1075.59,1349.83 c 0,4.32 -1.44,7.2 -4.32,8.64 -2.16,0.72 -5.76,2.16 -8.64,2.16 v 2.88 h 26.64 v -2.88 c -3.6,0 -6.48,-1.44 -7.2,-2.16 -2.16,-2.16 -3.6,-5.04 -3.6,-8.64 v -45.35 c 0,-10.08 -2.88,-18 -7.92,-21.6 -5.04,-3.6 -12.24,-5.76 -20.88,-6.48 -12.24,0 -20.87,2.88 -25.19,6.48 -4.32,4.32 -7.2,10.08 -7.92,15.84 0,1.44 -0.72,2.16 -0.72,3.6 0,1.44 0,2.88 0,3.6 v 43.91 0.72 c 0,0.72 0,1.44 0,1.44 0,0.72 0,0.72 0,0.72 0,0.72 0,1.44 0,1.44 0,1.44 -0.72,2.88 -1.44,4.32 -0.72,0.72 -3.6,1.44 -7.2,2.16 v 2.88 h 30.96 v -2.88 h -0.73 -0.72 c -4.32,0 -7.19,-1.44 -7.91,-4.32 0,-2.16 -0.73,-6.48 -0.73,-11.52 v -38.87 c 0,-9.36 1.45,-16.56 5.05,-20.16 4.31,-3.6 9.35,-5.76 16.55,-5.76 1.44,0 2.88,0 5.04,0 2.16,0 5.04,0 6.48,0.72 3.6,1.44 7.2,4.32 10.08,7.92 2.88,2.88 4.32,8.64 4.32,16.56 v 44.63"
         style="fill:#231f20;fill-opacity:1;fill-rule:evenodd;stroke:none"
         id="path34" /><path
         d="m 1108.7,1301.6 h 53.28 v -7.2 h -53.28 z m 0,15.83 h 53.28 v -6.47 h -53.28 v 6.47"
         style="fill:#231f20;fill-opacity:1;fill-rule:evenodd;stroke:none"
         id="path36" /><path
         d="m 1186.45,1284.32 c 0,1.44 0.73,3.6 2.16,4.32 1.44,1.44 3.6,2.16 5.77,2.16 2.15,0 3.59,-0.72 4.31,-1.44 1.44,-0.72 2.16,-2.16 2.16,-3.6 v -0.72 -0.72 c 0,-0.72 0,-1.44 0,-1.44 0,0 0,-0.72 0,-1.44 -0.72,-1.44 -1.44,-1.44 -2.88,-2.16 -0.72,-1.44 -2.88,-2.16 -4.32,-2.16 h -0.72 c -0.72,0 -0.72,0.72 -0.72,0.72 -1.44,0 -2.88,0.72 -3.6,2.16 -1.43,0 -2.16,2.16 -2.16,4.32 z m 5.04,44.63 c 4.32,0 7.2,0 7.2,0 0,0 1.44,0 4.32,0.72 2.88,0.72 5.76,1.44 7.2,2.88 1.44,0.72 2.16,2.16 2.88,3.6 0.72,1.44 1.44,2.88 1.44,5.04 v 0 0 c 0,2.16 -1.44,3.6 -2.16,5.04 0,1.44 -2.16,2.88 -3.6,3.6 -0.72,0.72 -2.16,1.44 -3.6,1.44 -1.44,0 -2.16,0.72 -3.6,0.72 -1.44,0 -2.88,0.72 -3.6,0.72 -1.44,0 -2.88,0 -3.59,0 v 0 0 h -0.73 c -1.44,0 -2.16,0.72 -2.88,1.44 -0.72,1.44 -1.44,2.16 -1.44,3.6 v 0 0.72 c 0,0.72 0.72,2.16 1.44,3.6 0.72,0.72 2.88,1.44 5.04,1.44 0,0 0.72,0 1.44,0 0.72,0 1.44,0 2.16,0 5.04,-1.44 10.08,-5.04 12.96,-8.64 3.6,-5.04 5.76,-10.08 5.76,-15.84 0,-5.04 -1.44,-9.36 -5.04,-12.96 -2.88,-3.6 -8.64,-5.75 -16.56,-5.75 l -1.44,-20.16 h -2.88 l -0.72,28.79"
         style="fill:#231f20;fill-opacity:1;fill-rule:evenodd;stroke:none"
         id="path38" /><g
         id="g40"
         transform="scale(10)"><text
           transform="matrix(1,0,0,-1,52,71)"
           style="font-variant:normal;font-weight:normal;font-size:12.0223px;font-family:Symbol;-inkscape-font-specification:Symbol;writing-mode:lr-tb;fill:#231f20;fill-opacity:1;fill-rule:nonzero;stroke:none"
           id="text46"><tspan
             x="0 6.7671723"
             y="0"
             id="tspan42">4Ω</tspan><tspan
             x="31 37.767174"
             y="34"
             id="tspan44">6Ω</tspan></text></g><path
         d="m 1075.2,849.031 c 0,2.879 0,5.039 -0.72,5.039 -0.72,0.723 -1.44,1.442 -2.88,1.442 -0.72,0 -1.44,0 -1.44,0 l -0.72,0.718 -6.48,0.719 v 2.883 c 1.44,0 2.88,0 4.32,0.719 2.16,0.719 4.32,2.16 6.48,2.879 1.44,0.718 3.6,2.16 5.04,3.601 0.72,1.438 2.88,2.879 3.59,4.317 h 2.88 v -61.91 0 -5.04 c 0,-5.757 0.73,-9.359 1.44,-10.078 0.72,-1.441 3.61,-1.441 7.2,-1.441 0.72,0 1.45,0 1.45,0 h 0.71 V 790 h -32.39 v 2.879 c 0.72,0 1.44,0 2.16,0 0.72,0 1.44,0 2.16,0 3.6,0 5.76,0.719 6.48,1.441 0.72,1.438 0.72,5.039 0.72,10.078 v 44.633"
         style="fill:#231f20;fill-opacity:1;fill-rule:evenodd;stroke:none"
         id="path48" /><path
         d="m 1152.23,862.711 -2.88,2.879 v 0 l 0.72,0.719 c 1.44,1.441 2.88,2.879 5.04,4.32 1.44,1.441 2.87,3.598 3.59,5.758 l 25.2,-61.91 v 0 l 5.04,-13.68 0.72,-0.719 0.72,-0.719 c 0.72,-1.441 1.44,-2.879 2.16,-3.601 1.44,-1.438 3.6,-2.879 6.48,-2.879 V 790 h -32.39 v 2.879 c 3.59,0 6.47,0 7.91,0 1.44,0.719 2.16,2.16 2.16,3.601 0,0.719 0,1.438 0,2.161 0,0.718 -0.72,2.156 -0.72,2.879 l -7.92,20.156 h -28.07 l -7.92,-20.879 c 0,-0.719 0,-1.438 0,-1.438 0,-0.718 0,-0.718 0,-1.441 0,-1.438 0,-2.879 1.44,-3.598 1.44,-0.722 4.32,-1.441 7.92,-1.441 V 790 h -22.32 v 2.879 c 2.16,0 5.04,1.441 5.76,2.16 0.72,1.441 2.16,2.879 2.16,4.32 0,0.719 0.72,1.438 0.72,2.161 0.72,0.718 1.44,1.437 1.44,2.16 z m 0.72,-5.039 -11.52,-32.399 h 25.2 z"
         style="fill:#231f20;fill-opacity:1;fill-rule:evenodd;stroke:none"
         id="path50" /><path
         d="m 1115.7,290.5 141.1,0.699 V 1225 H 917.699"
         style="fill:none;stroke:#231f20;stroke-width:8.6;stroke-linecap:butt;stroke-linejoin:miter;stroke-miterlimit:11.4737;stroke-dasharray:none;stroke-opacity:1"
         id="path52" /><path
         d="M 1256.8,743.398 V 855.699"
         style="fill:none;stroke:#231f20;stroke-width:8.6;stroke-linecap:butt;stroke-linejoin:miter;stroke-miterlimit:11.4737;stroke-dasharray:none;stroke-opacity:1"
         id="path54" /><path
         d="m 1257.5,891 -23.7,-85.699 c 15.1,12.199 30.9,12.199 46,0 L 1257.5,891"
         style="fill:#231f20;fill-opacity:1;fill-rule:evenodd;stroke:none"
         id="path56" /></g></g></svg>
