<?xml version="1.0" encoding="UTF-8" standalone="no"?>
<!-- Created with Inkscape (http://www.inkscape.org/) -->

<svg
   version="1.1"
   id="svg2"
   xml:space="preserve"
   width="266.66666"
   height="152"
   viewBox="0 0 266.66666 152"
   xmlns="http://www.w3.org/2000/svg"
   xmlns:svg="http://www.w3.org/2000/svg"><defs
     id="defs6" /><g
     id="g8"
     transform="matrix(1.3333333,0,0,-1.3333333,0,152)"><g
       id="g10"
       transform="scale(0.1)"><path
         d="M 6.60156,1134.6 H 1995.3 V 0.601563 H 6.60156 Z"
         style="fill:none;stroke:#231f20;stroke-width:11.5;stroke-linecap:butt;stroke-linejoin:miter;stroke-miterlimit:11.4737;stroke-dasharray:none;stroke-opacity:1"
         id="path12" /><path
         d="m 1163.7,170.5 c 0,90 -74.2,164.102 -164.2,164.102 -89.301,0 -163.398,-74.102 -163.398,-164.102"
         style="fill:none;stroke:#231f20;stroke-width:2.2;stroke-linecap:butt;stroke-linejoin:miter;stroke-miterlimit:11.4737;stroke-dasharray:none;stroke-opacity:1"
         id="path14" /><path
         d="m 1328.6,171.199 c 0,180 -148.4,328.301 -328.4,328.301 -180.001,0 -327.598,-148.301 -327.598,-328.301"
         style="fill:none;stroke:#231f20;stroke-width:2.2;stroke-linecap:butt;stroke-linejoin:miter;stroke-miterlimit:11.4737;stroke-dasharray:none;stroke-opacity:1"
         id="path16" /><path
         d="m 1492.7,171.199 c 0,270.699 -221.7,492.5 -492.5,492.5 -271.399,0 -492.399,-221.801 -492.399,-492.5"
         style="fill:none;stroke:#231f20;stroke-width:2.2;stroke-linecap:butt;stroke-linejoin:miter;stroke-miterlimit:11.4737;stroke-dasharray:none;stroke-opacity:1"
         id="path18" /><path
         d="m 1000.2,171.199 h 656.7 c 0,361.403 -295.2,656.602 -656.7,656.602 -361.399,0 -656.598,-295.199 -656.598,-656.602 z"
         style="fill:none;stroke:#231f20;stroke-width:2.2;stroke-linecap:butt;stroke-linejoin:miter;stroke-miterlimit:11.4737;stroke-dasharray:none;stroke-opacity:1"
         id="path20" /><path
         d="M 1820.3,171.199 C 1820.3,623.398 1451.7,992 999.5,992 548.102,992 179.398,623.398 179.398,171.199"
         style="fill:none;stroke:#231f20;stroke-width:2.2;stroke-linecap:butt;stroke-linejoin:miter;stroke-miterlimit:11.4737;stroke-dasharray:none;stroke-opacity:1"
         id="path22" /><path
         d="M 1000.2,992 V 335.398"
         style="fill:none;stroke:#231f20;stroke-width:2.2;stroke-linecap:butt;stroke-linejoin:miter;stroke-miterlimit:11.4737;stroke-dasharray:none;stroke-opacity:1"
         id="path24" /><path
         d="M 1164.4,171.898 H 1821"
         style="fill:none;stroke:#231f20;stroke-width:2.2;stroke-linecap:butt;stroke-linejoin:miter;stroke-miterlimit:11.4737;stroke-dasharray:none;stroke-opacity:1"
         id="path26" /><path
         d="M 179.398,171.898 H 836.102"
         style="fill:none;stroke:#231f20;stroke-width:2.2;stroke-linecap:butt;stroke-linejoin:miter;stroke-miterlimit:11.4737;stroke-dasharray:none;stroke-opacity:1"
         id="path28" /><path
         d="M 919.602,312.301 591.301,884"
         style="fill:none;stroke:#231f20;stroke-width:2.2;stroke-linecap:butt;stroke-linejoin:miter;stroke-miterlimit:11.4737;stroke-dasharray:none;stroke-opacity:1"
         id="path30" /><path
         d="M 1709.4,583.801 1139.9,255.398"
         style="fill:none;stroke:#231f20;stroke-width:2.2;stroke-linecap:butt;stroke-linejoin:miter;stroke-miterlimit:11.4737;stroke-dasharray:none;stroke-opacity:1"
         id="path32" /><path
         d="m 857.699,252.602 -568.801,329"
         style="fill:none;stroke:#231f20;stroke-width:2.2;stroke-linecap:butt;stroke-linejoin:miter;stroke-miterlimit:11.4737;stroke-dasharray:none;stroke-opacity:1"
         id="path34" /><path
         d="M 1409.9,883.301 1083.8,311.602"
         style="fill:none;stroke:#231f20;stroke-width:2.2;stroke-linecap:butt;stroke-linejoin:miter;stroke-miterlimit:11.4737;stroke-dasharray:none;stroke-opacity:1"
         id="path36" /><path
         d="m 998.102,174.102 c -113.102,0 -225.403,0 -337.704,0 -144,0 -325.398,36 -407.5,174.898 -27.398,55.5 -20.898,123.199 7.204,166.398 23,39.602 54,61.903 83.5,83.504 126.699,67.7 274.296,43.2 398.199,-13.004 78.398,-41 154.801,-88.5 207.301,-171.296 C 967.801,391.5 975.801,367 981.5,337.5 c 1.5,-3.598 1.5,-10.801 3.602,-15.102 z"
         style="fill:none;stroke:#231f20;stroke-width:17.3;stroke-linecap:square;stroke-linejoin:miter;stroke-miterlimit:11.4737;stroke-dasharray:none;stroke-opacity:1"
         id="path38" /><path
         d="m 999.5,172.602 c 112.3,0 225.4,0 337,0 144.7,0 325.4,36 407.5,175 27.4,55.398 20.9,123.097 -6.5,166.3 -23,39.598 -54,61.899 -84.2,83.496 -126.7,67.704 -274.3,43.204 -397.5,-12.898 -78.4,-41.102 -155.5,-88.602 -208,-171.398 -18,-23 -26,-47.5 -32.4,-77 -0.8,-3.602 -0.8,-10.801 -3.6,-15.102 z"
         style="fill:none;stroke:#231f20;stroke-width:17.3;stroke-linecap:square;stroke-linejoin:miter;stroke-miterlimit:11.4737;stroke-dasharray:none;stroke-opacity:1"
         id="path40" /></g></g></svg>
