<?xml version="1.0" encoding="UTF-8" standalone="no"?>
<!-- Created with Inkscape (http://www.inkscape.org/) -->

<svg
   version="1.1"
   id="svg2"
   xml:space="preserve"
   width="214.66667"
   height="213.33333"
   viewBox="0 0 214.66667 213.33333"
   xmlns="http://www.w3.org/2000/svg"
   xmlns:svg="http://www.w3.org/2000/svg"><defs
     id="defs6" /><g
     id="g8"
     transform="matrix(1.3333333,0,0,-1.3333333,0,213.33333)"><g
       id="g10"
       transform="scale(0.1)"><path
         d="M 96.1992,1507.3 H 1513.1 V 89.6016 H 96.1992 Z"
         style="fill:none;stroke:#231f20;stroke-width:11.5;stroke-linecap:butt;stroke-linejoin:miter;stroke-miterlimit:11.4737;stroke-dasharray:none;stroke-opacity:1"
         id="path12" /><g
         id="g14"
         transform="scale(10)"><text
           transform="matrix(1,0,0,-1,40,96)"
           style="font-variant:normal;font-weight:normal;font-size:13.9661px;font-family:Symbol;-inkscape-font-specification:Symbol;writing-mode:lr-tb;fill:#231f20;fill-opacity:1;fill-rule:nonzero;stroke:none"
           id="text22"><tspan
             x="0 7.5590062"
             y="0"
             id="tspan16">5Ω</tspan><tspan
             x="57 64.487129 72.477776"
             y="22"
             id="tspan18">30Ω</tspan><tspan
             x="0 8.0629148 15.621918"
             y="48"
             id="tspan20">25Ω</tspan></text></g><path
         d="m 1314.4,1307.8 -1020.201,0.8"
         style="fill:none;stroke:#231f20;stroke-width:8.6;stroke-linecap:butt;stroke-linejoin:miter;stroke-miterlimit:11.4737;stroke-dasharray:none;stroke-opacity:1"
         id="path24" /><path
         d="M 1314.4,287.602 294.199,288.301"
         style="fill:none;stroke:#231f20;stroke-width:8.6;stroke-linecap:butt;stroke-linejoin:miter;stroke-miterlimit:11.4737;stroke-dasharray:none;stroke-opacity:1"
         id="path26" /><path
         d="m 294.199,1251.7 v 56.9"
         style="fill:none;stroke:#231f20;stroke-width:8.6;stroke-linecap:butt;stroke-linejoin:miter;stroke-miterlimit:11.4737;stroke-dasharray:none;stroke-opacity:1"
         id="path28" /><path
         d="m 351,855 v 396.7 H 237.301 V 855 Z"
         style="fill:none;stroke:#231f20;stroke-width:14.4;stroke-linecap:butt;stroke-linejoin:miter;stroke-miterlimit:11.4737;stroke-dasharray:none;stroke-opacity:1"
         id="path30" /><path
         d="M 351,345.199 V 742.602 H 237.301 V 345.199 Z"
         style="fill:none;stroke:#231f20;stroke-width:14.4;stroke-linecap:butt;stroke-linejoin:miter;stroke-miterlimit:11.4737;stroke-dasharray:none;stroke-opacity:1"
         id="path32" /><path
         d="m 945.801,598.602 v 397.5 H 832 v -397.5 z"
         style="fill:none;stroke:#231f20;stroke-width:14.4;stroke-linecap:butt;stroke-linejoin:miter;stroke-miterlimit:11.4737;stroke-dasharray:none;stroke-opacity:1"
         id="path34" /><path
         d="M 294.199,855 V 741.898"
         style="fill:none;stroke:#231f20;stroke-width:8.6;stroke-linecap:butt;stroke-linejoin:miter;stroke-miterlimit:11.4737;stroke-dasharray:none;stroke-opacity:1"
         id="path36" /><path
         d="M 294.199,344.5 V 287.602"
         style="fill:none;stroke:#231f20;stroke-width:8.6;stroke-linecap:butt;stroke-linejoin:miter;stroke-miterlimit:11.4737;stroke-dasharray:none;stroke-opacity:1"
         id="path38" /><path
         d="m 1343.2,315.699 c -15.1,0 -28.1,-12.297 -28.1,-28.097 0,-15.801 13,-28.102 28.1,-28.102 15.1,0 28.1,12.301 28.1,28.102 0,15.8 -13,28.097 -28.1,28.097 z"
         style="fill:none;stroke:#231f20;stroke-width:5.8;stroke-linecap:butt;stroke-linejoin:miter;stroke-miterlimit:11.4737;stroke-dasharray:none;stroke-opacity:1"
         id="path40" /><path
         d="m 1343.2,1336.6 c -15.1,0 -28.1,-12.2 -28.1,-28 0,-15.9 13,-28.1 28.1,-28.1 15.1,0 28.1,12.2 28.1,28.1 0,15.8 -13,28 -28.1,28 z"
         style="fill:none;stroke:#231f20;stroke-width:5.8;stroke-linecap:butt;stroke-linejoin:miter;stroke-miterlimit:11.4737;stroke-dasharray:none;stroke-opacity:1"
         id="path42" /><path
         d="M 888.898,599.398 V 287.602"
         style="fill:none;stroke:#231f20;stroke-width:8.6;stroke-linecap:butt;stroke-linejoin:miter;stroke-miterlimit:11.4737;stroke-dasharray:none;stroke-opacity:1"
         id="path44" /><path
         d="M 888.898,996.102 V 1307.8"
         style="fill:none;stroke:#231f20;stroke-width:8.6;stroke-linecap:butt;stroke-linejoin:miter;stroke-miterlimit:11.4737;stroke-dasharray:none;stroke-opacity:1"
         id="path46" /><path
         d="m 892.5,1323 c -7.898,0 -14.398,-6.5 -14.398,-14.4 0,-8 6.5,-14.4 14.398,-14.4 7.898,0 14.398,6.4 14.398,14.4 0,7.9 -6.5,14.4 -14.398,14.4"
         style="fill:#231f20;fill-opacity:1;fill-rule:evenodd;stroke:none"
         id="path48" /><path
         d="m 892.5,1323 c -7.898,0 -14.398,-6.5 -14.398,-14.4 0,-8 6.5,-14.4 14.398,-14.4 7.898,0 14.398,6.4 14.398,14.4 0,7.9 -6.5,14.4 -14.398,14.4 z"
         style="fill:none;stroke:#231f20;stroke-width:2.2;stroke-linecap:butt;stroke-linejoin:miter;stroke-miterlimit:11.4737;stroke-dasharray:none;stroke-opacity:1"
         id="path50" /><path
         d="m 893.898,302.699 c -7.898,0 -14.398,-6.5 -14.398,-14.398 0,-7.903 6.5,-14.399 14.398,-14.399 7.903,0 14.403,6.496 14.403,14.399 0,7.898 -6.5,14.398 -14.403,14.398"
         style="fill:#231f20;fill-opacity:1;fill-rule:evenodd;stroke:none"
         id="path52" /><path
         d="m 893.898,302.699 c -7.898,0 -14.398,-6.5 -14.398,-14.398 0,-7.903 6.5,-14.399 14.398,-14.399 7.903,0 14.403,6.496 14.403,14.399 0,7.898 -6.5,14.398 -14.403,14.398 z"
         style="fill:none;stroke:#231f20;stroke-width:2.2;stroke-linecap:butt;stroke-linejoin:miter;stroke-miterlimit:11.4737;stroke-dasharray:none;stroke-opacity:1"
         id="path54" /></g></g></svg>
