<?xml version="1.0" encoding="UTF-8" standalone="no"?>
<!-- Created with Inkscape (http://www.inkscape.org/) -->

<svg
   version="1.1"
   id="svg2"
   xml:space="preserve"
   width="214.66667"
   height="214.66667"
   viewBox="0 0 214.66667 214.66667"
   xmlns="http://www.w3.org/2000/svg"
   xmlns:svg="http://www.w3.org/2000/svg"><defs
     id="defs6" /><g
     id="g8"
     transform="matrix(1.3333333,0,0,-1.3333333,0,214.66667)"><g
       id="g10"
       transform="scale(0.1)"><path
         d="M 96.1992,1512.2 H 1513.8 V 93.1016 H 96.1992 Z"
         style="fill:none;stroke:#231f20;stroke-width:11.5;stroke-linecap:butt;stroke-linejoin:miter;stroke-miterlimit:11.4737;stroke-dasharray:none;stroke-opacity:1"
         id="path12" /><path
         d="m 584.555,1230.32 v 25.91 h -15.117 c -2.161,0 -4.321,-0.72 -5.04,-0.72 -1.441,0 -2.16,-0.72 -3.601,-2.16 -0.719,0 -0.719,-0.72 -1.438,-1.44 -0.718,-0.72 -1.441,-2.16 -2.16,-2.88 l -4.32,-7.92 -1.438,0.72 2.879,18.72 c 0.719,0 1.438,0 1.438,0 0.722,0 1.441,-0.72 2.16,-0.72 0.723,0 2.16,0 3.602,0 0.718,0 2.878,-0.72 4.316,-0.72 h 45.355 c 1.442,0 2.161,0 3.602,0 1.437,0 2.879,0.72 4.316,0.72 l 1.442,0.72 c 1.437,0 2.16,0.72 2.16,1.44 l 4.32,-20.16 -1.441,-0.72 -7.199,10.8 v 0.72 h -0.719 c -0.723,1.44 -2.16,2.16 -2.879,2.88 -1.441,0 -3.602,0.72 -5.043,0.72 h -15.117 v -28.8 -28.79 c 0,-2.88 0.722,-5.04 2.16,-5.76 1.441,-0.72 4.32,-0.72 7.918,-0.72 V 1190 h -30.234 v 2.16 c 5.039,0 7.918,0.72 8.64,1.44 0.719,1.44 1.438,2.88 1.438,5.04 v 0.72 0.72 30.24"
         style="fill:#231f20;fill-opacity:1;fill-rule:evenodd;stroke:none"
         id="path14" /><path
         d="m 642.867,1197.92 v 25.92 c 0,0 0,0 0,0.71 0,0 -0.719,0.72 -0.719,1.45 0,0.71 -0.722,0.71 -1.441,1.43 -0.719,0.73 -1.437,0.73 -2.16,0.73 v 1.43 c 1.441,0 2.879,0.73 4.32,1.45 1.442,0.71 2.879,1.43 4.321,2.16 0.718,0 1.437,0 2.16,0.71 l 1.437,0.72 v -7.2 l 0.723,0.73 0.719,0.72 c 1.437,2.16 2.878,4.32 5.039,5.03 1.437,0.72 2.879,1.45 4.32,1.45 1.437,0 2.879,-0.73 3.598,-1.45 0.718,-0.71 1.441,-2.16 1.441,-2.87 v 0 -0.72 c 0,-1.44 0,-2.16 -0.723,-2.89 -0.718,-0.72 -1.437,-0.72 -1.437,-0.72 h -0.719 -0.723 c -0.718,0 -0.718,0 -1.437,0 -0.723,0 -1.441,0.72 -1.441,0.72 -0.719,0 -1.442,0.73 -2.161,0.73 0,0 -0.718,0 -1.437,0 0,0 -0.723,0 -1.442,0 l -0.718,-0.73 c -0.723,-0.72 -1.442,-1.43 -2.16,-2.16 -0.719,-0.72 -1.442,-2.15 -1.442,-3.59 v -23.04 c 0,-2.16 0.723,-4.32 1.442,-5.04 0.718,-0.72 2.878,-1.44 5.757,-1.44 V 1190 h -20.156 v 2.16 c 1.442,0 2.879,0 4.32,0.72 0.719,0.72 0.719,2.16 0.719,5.04"
         style="fill:#231f20;fill-opacity:1;fill-rule:evenodd;stroke:none"
         id="path16" /><path
         d="M 703.102,1253.8 V 348"
         style="fill:none;stroke:#231f20;stroke-width:8.6;stroke-linecap:butt;stroke-linejoin:miter;stroke-miterlimit:11.4737;stroke-dasharray:none;stroke-opacity:1"
         id="path18" /><path
         d="M 760.699,1253.8 V 348"
         style="fill:none;stroke:#231f20;stroke-width:8.6;stroke-linecap:butt;stroke-linejoin:miter;stroke-miterlimit:11.4737;stroke-dasharray:none;stroke-opacity:1"
         id="path20" /><path
         d="m 605.898,957.801 c 23.102,0 41.801,-19.399 41.801,-42.403 0,-23.097 -18,-41.796 -41.801,-42.5"
         style="fill:none;stroke:#231f20;stroke-width:14.4;stroke-linecap:butt;stroke-linejoin:miter;stroke-miterlimit:11.4737;stroke-dasharray:none;stroke-opacity:1"
         id="path22" /><path
         d="m 606.602,872.898 c 23.097,-0.699 41.796,-19.496 41.796,-42.5 0,-23.796 -18,-42.5 -41.796,-43.199"
         style="fill:none;stroke:#231f20;stroke-width:14.4;stroke-linecap:butt;stroke-linejoin:miter;stroke-miterlimit:11.4737;stroke-dasharray:none;stroke-opacity:1"
         id="path24" /><path
         d="m 606.602,787.898 c 23.097,-0.699 41.796,-19.398 41.796,-42.5 0,-23 -18,-42.398 -41.796,-42.398"
         style="fill:none;stroke:#231f20;stroke-width:14.4;stroke-linecap:butt;stroke-linejoin:miter;stroke-miterlimit:11.4737;stroke-dasharray:none;stroke-opacity:1"
         id="path26" /><path
         d="m 606.602,703 c 23.097,-0.801 41.796,-19.5 41.796,-43.199 0,-23.102 -18,-41.801 -41.796,-42.5"
         style="fill:none;stroke:#231f20;stroke-width:14.4;stroke-linecap:butt;stroke-linejoin:miter;stroke-miterlimit:11.4737;stroke-dasharray:none;stroke-opacity:1"
         id="path28" /><path
         d="m 605.898,957.102 v 42.5 H 464.801"
         style="fill:none;stroke:#231f20;stroke-width:11.5;stroke-linecap:round;stroke-linejoin:miter;stroke-miterlimit:11.4737;stroke-dasharray:none;stroke-opacity:1"
         id="path30" /><path
         d="m 605.898,617.301 v -42.5 H 464.801"
         style="fill:none;stroke:#231f20;stroke-width:11.5;stroke-linecap:round;stroke-linejoin:miter;stroke-miterlimit:11.4737;stroke-dasharray:none;stroke-opacity:1"
         id="path32" /><path
         d="m 847.102,900.199 c -23,0.801 -42.5,19.5 -42.5,43.203 0,23.098 18.796,41.797 42.5,42.5"
         style="fill:none;stroke:#231f20;stroke-width:14.4;stroke-linecap:butt;stroke-linejoin:miter;stroke-miterlimit:11.4737;stroke-dasharray:none;stroke-opacity:1"
         id="path34" /><path
         d="m 846.398,985.902 c -23,0.7 -41.796,19.498 -41.796,42.498 0,23 18,42.5 41.796,42.5"
         style="fill:none;stroke:#231f20;stroke-width:14.4;stroke-linecap:butt;stroke-linejoin:miter;stroke-miterlimit:11.4737;stroke-dasharray:none;stroke-opacity:1"
         id="path36" /><path
         d="m 846.398,1070.9 c -23,0 -41.796,19.4 -41.796,42.5 0,23 18,41.7 41.796,42.4"
         style="fill:none;stroke:#231f20;stroke-width:14.4;stroke-linecap:butt;stroke-linejoin:miter;stroke-miterlimit:11.4737;stroke-dasharray:none;stroke-opacity:1"
         id="path38" /><path
         d="m 846.398,1155.8 c -23,0.8 -41.796,19.5 -41.796,42.5 0,23.8 18,42.5 41.796,43.2"
         style="fill:none;stroke:#231f20;stroke-width:14.4;stroke-linecap:butt;stroke-linejoin:miter;stroke-miterlimit:11.4737;stroke-dasharray:none;stroke-opacity:1"
         id="path40" /><path
         d="m 847.102,1240.1 v 42.5 H 1145.2"
         style="fill:none;stroke:#231f20;stroke-width:11.5;stroke-linecap:round;stroke-linejoin:miter;stroke-miterlimit:11.4737;stroke-dasharray:none;stroke-opacity:1"
         id="path42" /><path
         d="M 847.102,900.199 V 857.801 H 975.301"
         style="fill:none;stroke:#231f20;stroke-width:11.5;stroke-linecap:round;stroke-linejoin:miter;stroke-miterlimit:11.4737;stroke-dasharray:none;stroke-opacity:1"
         id="path44" /><path
         d="m 847.801,362.398 c -23,0.704 -42.403,19.403 -42.403,43.204 0,23 18.704,41.796 42.403,42.5"
         style="fill:none;stroke:#231f20;stroke-width:14.4;stroke-linecap:butt;stroke-linejoin:miter;stroke-miterlimit:11.4737;stroke-dasharray:none;stroke-opacity:1"
         id="path46" /><path
         d="m 847.102,448.102 c -23,0.699 -41.704,19.398 -41.704,42.5 0,23 18,42.398 41.704,42.398"
         style="fill:none;stroke:#231f20;stroke-width:14.4;stroke-linecap:butt;stroke-linejoin:miter;stroke-miterlimit:11.4737;stroke-dasharray:none;stroke-opacity:1"
         id="path48" /><path
         d="m 847.102,533 c -23,0 -41.704,19.5 -41.704,42.5 0,23.102 18,41.801 41.704,42.5"
         style="fill:none;stroke:#231f20;stroke-width:14.4;stroke-linecap:butt;stroke-linejoin:miter;stroke-miterlimit:11.4737;stroke-dasharray:none;stroke-opacity:1"
         id="path50" /><path
         d="m 847.102,618 c -23,0.699 -41.704,19.398 -41.704,42.5 0,23.699 18,42.5 41.704,43.199"
         style="fill:none;stroke:#231f20;stroke-width:14.4;stroke-linecap:butt;stroke-linejoin:miter;stroke-miterlimit:11.4737;stroke-dasharray:none;stroke-opacity:1"
         id="path52" /><path
         d="m 847.801,702.199 v 42.5 H 976"
         style="fill:none;stroke:#231f20;stroke-width:11.5;stroke-linecap:round;stroke-linejoin:miter;stroke-miterlimit:11.4737;stroke-dasharray:none;stroke-opacity:1"
         id="path54" /><path
         d="m 847.801,362.398 v -42.5 H 1145.9"
         style="fill:none;stroke:#231f20;stroke-width:11.5;stroke-linecap:round;stroke-linejoin:miter;stroke-miterlimit:11.4737;stroke-dasharray:none;stroke-opacity:1"
         id="path56" /><path
         d="M 976,857 V 743.301"
         style="fill:none;stroke:#231f20;stroke-width:14.4;stroke-linecap:butt;stroke-linejoin:miter;stroke-miterlimit:11.4737;stroke-dasharray:none;stroke-opacity:1"
         id="path58" /><path
         d="m 436.699,604.301 c 15.102,0 28.102,-12.899 28.102,-28.801 0,-15.801 -13,-28.801 -28.102,-28.801 -15.097,0 -28.097,13 -28.097,28.801 0,15.902 13,28.801 28.097,28.801 z"
         style="fill:none;stroke:#231f20;stroke-width:8.6;stroke-linecap:butt;stroke-linejoin:miter;stroke-miterlimit:11.4737;stroke-dasharray:none;stroke-opacity:1"
         id="path60" /><path
         d="m 1173.3,350.199 c 15.1,0 28.1,-13 28.1,-28.797 0,-15.902 -13,-28.8 -28.1,-28.8 -15.1,0 -28.1,12.898 -28.1,28.8 0,15.797 13,28.797 28.1,28.797 z"
         style="fill:none;stroke:#231f20;stroke-width:8.6;stroke-linecap:butt;stroke-linejoin:miter;stroke-miterlimit:11.4737;stroke-dasharray:none;stroke-opacity:1"
         id="path62" /><path
         d="m 1173.3,1313.5 c 15.1,0 28.1,-12.9 28.1,-28.8 0,-15.8 -13,-28.8 -28.1,-28.8 -15.1,0 -28.1,13 -28.1,28.8 0,15.9 13,28.8 28.1,28.8 z"
         style="fill:none;stroke:#231f20;stroke-width:8.6;stroke-linecap:butt;stroke-linejoin:miter;stroke-miterlimit:11.4737;stroke-dasharray:none;stroke-opacity:1"
         id="path64" /><path
         d="m 436.699,1029.8 c 15.102,0 28.102,-12.9 28.102,-28.8 0,-15.801 -13,-28.801 -28.102,-28.801 -15.097,0 -28.097,13 -28.097,28.801 0,15.9 13,28.8 28.097,28.8 z"
         style="fill:none;stroke:#231f20;stroke-width:8.6;stroke-linecap:butt;stroke-linejoin:miter;stroke-miterlimit:11.4737;stroke-dasharray:none;stroke-opacity:1"
         id="path66" /></g></g></svg>
