<?xml version="1.0" encoding="UTF-8" standalone="no"?>
<!-- Created with Inkscape (http://www.inkscape.org/) -->

<svg
   version="1.1"
   id="svg2"
   xml:space="preserve"
   width="214.66667"
   height="213.33333"
   viewBox="0 0 214.66667 213.33333"
   xmlns="http://www.w3.org/2000/svg"
   xmlns:svg="http://www.w3.org/2000/svg"><defs
     id="defs6" /><g
     id="g8"
     transform="matrix(1.3333333,0,0,-1.3333333,0,213.33333)"><g
       id="g10"
       transform="scale(0.1)"><path
         d="M 97.3984,1507.3 H 1514.3 V 89.6016 H 97.3984 Z"
         style="fill:none;stroke:#231f20;stroke-width:11.5;stroke-linecap:butt;stroke-linejoin:miter;stroke-miterlimit:11.4737;stroke-dasharray:none;stroke-opacity:1"
         id="path12" /><path
         d="m 294.602,1307.8 1020.298,0.8"
         style="fill:none;stroke:#231f20;stroke-width:8.6;stroke-linecap:butt;stroke-linejoin:miter;stroke-miterlimit:11.4737;stroke-dasharray:none;stroke-opacity:1"
         id="path14" /><path
         d="M 294.602,287.602 1314.9,288.301"
         style="fill:none;stroke:#231f20;stroke-width:8.6;stroke-linecap:butt;stroke-linejoin:miter;stroke-miterlimit:11.4737;stroke-dasharray:none;stroke-opacity:1"
         id="path16" /><path
         d="m 1314.9,1251.7 v 56.9"
         style="fill:none;stroke:#231f20;stroke-width:8.6;stroke-linecap:butt;stroke-linejoin:miter;stroke-miterlimit:11.4737;stroke-dasharray:none;stroke-opacity:1"
         id="path18" /><path
         d="m 1258,855 v 396.7 h 113.8 V 855 Z"
         style="fill:none;stroke:#231f20;stroke-width:14.4;stroke-linecap:butt;stroke-linejoin:miter;stroke-miterlimit:11.4737;stroke-dasharray:none;stroke-opacity:1"
         id="path20" /><path
         d="m 1258,345.199 v 397.403 h 113.8 V 345.199 Z"
         style="fill:none;stroke:#231f20;stroke-width:14.4;stroke-linecap:butt;stroke-linejoin:miter;stroke-miterlimit:11.4737;stroke-dasharray:none;stroke-opacity:1"
         id="path22" /><path
         d="m 663.301,598.602 v 397.5 H 777 v -397.5 z"
         style="fill:none;stroke:#231f20;stroke-width:14.4;stroke-linecap:butt;stroke-linejoin:miter;stroke-miterlimit:11.4737;stroke-dasharray:none;stroke-opacity:1"
         id="path24" /><path
         d="M 1314.9,855 V 741.898"
         style="fill:none;stroke:#231f20;stroke-width:8.6;stroke-linecap:butt;stroke-linejoin:miter;stroke-miterlimit:11.4737;stroke-dasharray:none;stroke-opacity:1"
         id="path26" /><path
         d="M 1314.9,344.5 V 287.602"
         style="fill:none;stroke:#231f20;stroke-width:8.6;stroke-linecap:butt;stroke-linejoin:miter;stroke-miterlimit:11.4737;stroke-dasharray:none;stroke-opacity:1"
         id="path28" /><g
         id="g30"
         transform="scale(10)"><text
           transform="matrix(1,0,0,-1,29,62)"
           style="font-variant:normal;font-weight:normal;font-size:13.9661px;font-family:Symbol;-inkscape-font-specification:Symbol;writing-mode:lr-tb;fill:#231f20;fill-opacity:1;fill-rule:nonzero;stroke:none"
           id="text38"><tspan
             x="0 7.5590062 15.550046 23.540691"
             y="0"
             id="tspan32">500Ω</tspan><tspan
             x="60 67.487129 75.477776 83.468811"
             y="-51"
             id="tspan34">300Ω</tspan><tspan
             x="60 68.062912 76.053947 84.044594"
             y="22"
             id="tspan36">200Ω</tspan></text></g><path
         d="m 265.801,315.699 c 15.199,0 28.097,-12.297 28.097,-28.097 0,-15.801 -12.898,-28.102 -28.097,-28.102 -15.102,0 -28,12.301 -28,28.102 0,15.8 12.898,28.097 28,28.097 z"
         style="fill:none;stroke:#231f20;stroke-width:5.8;stroke-linecap:butt;stroke-linejoin:miter;stroke-miterlimit:11.4737;stroke-dasharray:none;stroke-opacity:1"
         id="path40" /><path
         d="m 265.801,1336.6 c 15.199,0 28.097,-12.2 28.097,-28 0,-15.9 -12.898,-28.1 -28.097,-28.1 -15.102,0 -28,12.2 -28,28.1 0,15.8 12.898,28 28,28 z"
         style="fill:none;stroke:#231f20;stroke-width:5.8;stroke-linecap:butt;stroke-linejoin:miter;stroke-miterlimit:11.4737;stroke-dasharray:none;stroke-opacity:1"
         id="path42" /><path
         d="M 720.199,599.398 V 287.602"
         style="fill:none;stroke:#231f20;stroke-width:8.6;stroke-linecap:butt;stroke-linejoin:miter;stroke-miterlimit:11.4737;stroke-dasharray:none;stroke-opacity:1"
         id="path44" /><path
         d="M 720.199,996.102 V 1307.8"
         style="fill:none;stroke:#231f20;stroke-width:8.6;stroke-linecap:butt;stroke-linejoin:miter;stroke-miterlimit:11.4737;stroke-dasharray:none;stroke-opacity:1"
         id="path46" /><path
         d="m 716.602,1323 c 7.898,0 14.398,-6.5 14.398,-14.4 0,-8 -6.5,-14.4 -14.398,-14.4 -8,0 -14.403,6.4 -14.403,14.4 0,7.9 6.403,14.4 14.403,14.4"
         style="fill:#231f20;fill-opacity:1;fill-rule:evenodd;stroke:none"
         id="path48" /><path
         d="m 716.602,1323 c 7.898,0 14.398,-6.5 14.398,-14.4 0,-8 -6.5,-14.4 -14.398,-14.4 -8,0 -14.403,6.4 -14.403,14.4 0,7.9 6.403,14.4 14.403,14.4 z"
         style="fill:none;stroke:#231f20;stroke-width:2.2;stroke-linecap:butt;stroke-linejoin:miter;stroke-miterlimit:11.4737;stroke-dasharray:none;stroke-opacity:1"
         id="path50" /><path
         d="m 715.102,302.699 c 7.898,0 14.398,-6.5 14.398,-14.398 0,-7.903 -6.5,-14.399 -14.398,-14.399 -7.903,0 -14.403,6.496 -14.403,14.399 0,7.898 6.5,14.398 14.403,14.398"
         style="fill:#231f20;fill-opacity:1;fill-rule:evenodd;stroke:none"
         id="path52" /><path
         d="m 715.102,302.699 c 7.898,0 14.398,-6.5 14.398,-14.398 0,-7.903 -6.5,-14.399 -14.398,-14.399 -7.903,0 -14.403,6.496 -14.403,14.399 0,7.898 6.5,14.398 14.403,14.398 z"
         style="fill:none;stroke:#231f20;stroke-width:2.2;stroke-linecap:butt;stroke-linejoin:miter;stroke-miterlimit:11.4737;stroke-dasharray:none;stroke-opacity:1"
         id="path54" /></g></g></svg>
