<?xml version="1.0" encoding="UTF-8" standalone="no"?>
<!-- Created with Inkscape (http://www.inkscape.org/) -->

<svg
   version="1.1"
   id="svg2"
   xml:space="preserve"
   width="441.33334"
   height="402.66666"
   viewBox="0 0 441.33334 402.66666"
   xmlns="http://www.w3.org/2000/svg"
   xmlns:svg="http://www.w3.org/2000/svg"><defs
     id="defs6" /><g
     id="g8"
     transform="matrix(1.3333333,0,0,-1.3333333,0,402.66667)"><g
       id="g10"
       transform="scale(0.1)"><path
         d="M 3215,2928 V 92.6016 H 96.6016 V 2928 Z"
         style="fill:none;stroke:#231f20;stroke-width:11.5;stroke-linecap:butt;stroke-linejoin:miter;stroke-miterlimit:11.4737;stroke-dasharray:none;stroke-opacity:1"
         id="path12" /><path
         d="M 296.801,2387.3 H 1515.8"
         style="fill:none;stroke:#231f20;stroke-width:8.6;stroke-linecap:butt;stroke-linejoin:miter;stroke-miterlimit:11.4737;stroke-dasharray:none;stroke-opacity:1"
         id="path14" /><path
         d="M 1480.5,2330.4 H 1232.1"
         style="fill:none;stroke:#231f20;stroke-width:5.8;stroke-linecap:butt;stroke-linejoin:miter;stroke-miterlimit:11.4737;stroke-dasharray:none;stroke-opacity:1"
         id="path16" /><path
         d="m 1515.8,2330.4 -80,-20.9 c 11.6,13.7 11.6,28.1 0,41.8 l 80,-20.9"
         style="fill:#231f20;fill-opacity:1;fill-rule:evenodd;stroke:none"
         id="path18" /><path
         d="m 1343.76,2269.52 h -2.82 l 7.05,11.52 v -7.2 h 7.99 l -1.41,-4.32 h -6.58 v -20.16 -0.72 0 0 -0.72 c 0,-1.44 0.47,-2.88 0.94,-4.32 0.94,-0.72 1.88,-1.44 2.35,-1.44 h 0.47 v 0 c 0.47,0 1.41,0.72 1.88,0.72 0.47,0.72 0.94,1.44 1.41,1.44 0,0.72 0.47,0.72 0.47,0.72 h 0.47 v 0 h 0.47 v -0.72 l -0.47,-0.72 c 0,-0.72 -0.94,-2.16 -2.35,-2.88 -0.94,-0.72 -2.35,-1.44 -3.29,-1.44 h -0.47 -0.47 c -1.41,0 -2.82,0.72 -3.76,1.44 -0.94,0.72 -1.88,3.6 -1.88,6.48 v 22.32"
         style="fill:#231f20;fill-opacity:1;fill-rule:evenodd;stroke:none"
         id="path20" /><path
         d="M 296.801,2812.8 V 1962.5"
         style="fill:none;stroke:#231f20;stroke-width:8.6;stroke-linecap:butt;stroke-linejoin:miter;stroke-miterlimit:11.4737;stroke-dasharray:none;stroke-opacity:1"
         id="path22" /><path
         d="M 298.199,1479.4 H 1517.2"
         style="fill:none;stroke:#231f20;stroke-width:8.6;stroke-linecap:butt;stroke-linejoin:miter;stroke-miterlimit:11.4737;stroke-dasharray:none;stroke-opacity:1"
         id="path24" /><path
         d="M 1481.9,1422.5 H 1233.5"
         style="fill:none;stroke:#231f20;stroke-width:5.8;stroke-linecap:butt;stroke-linejoin:miter;stroke-miterlimit:11.4737;stroke-dasharray:none;stroke-opacity:1"
         id="path26" /><path
         d="m 1517.2,1422.5 -79.9,-20.9 c 11.5,13.7 11.5,28.1 0,41.8 l 79.9,-20.9"
         style="fill:#231f20;fill-opacity:1;fill-rule:evenodd;stroke:none"
         id="path28" /><path
         d="m 1343.76,1359.52 h -2.82 l 7.05,11.52 v -7.2 h 7.99 l -1.41,-4.32 h -6.58 v -20.16 -0.72 0 0 -0.72 c 0,-1.44 0.47,-2.88 0.94,-4.32 0.94,-0.72 1.88,-1.44 2.35,-1.44 h 0.47 v 0 c 0.47,0 1.41,0.72 1.88,0.72 0.47,0.72 0.94,1.44 1.41,1.44 0,0.72 0.47,0.72 0.47,0.72 h 0.47 v 0 h 0.47 v -0.72 l -0.47,-0.72 c 0,-0.72 -0.94,-2.16 -2.35,-2.88 -0.94,-0.72 -2.35,-1.44 -3.29,-1.44 h -0.47 -0.47 c -1.41,0 -2.82,0.72 -3.76,1.44 -0.94,0.72 -1.88,3.6 -1.88,6.48 v 22.32"
         style="fill:#231f20;fill-opacity:1;fill-rule:evenodd;stroke:none"
         id="path30" /><path
         d="M 298.199,1904.9 V 1054.6"
         style="fill:none;stroke:#231f20;stroke-width:8.6;stroke-linecap:butt;stroke-linejoin:miter;stroke-miterlimit:11.4737;stroke-dasharray:none;stroke-opacity:1"
         id="path32" /><path
         d="M 298.199,572.199 H 1517.2"
         style="fill:none;stroke:#231f20;stroke-width:8.6;stroke-linecap:butt;stroke-linejoin:miter;stroke-miterlimit:11.4737;stroke-dasharray:none;stroke-opacity:1"
         id="path34" /><path
         d="M 1481.9,515.301 H 1233.5"
         style="fill:none;stroke:#231f20;stroke-width:5.8;stroke-linecap:butt;stroke-linejoin:miter;stroke-miterlimit:11.4737;stroke-dasharray:none;stroke-opacity:1"
         id="path36" /><path
         d="m 1517.2,515.301 -79.9,-20.903 c 11.5,13.704 11.5,28.102 0,41.801 l 79.9,-20.898"
         style="fill:#231f20;fill-opacity:1;fill-rule:evenodd;stroke:none"
         id="path38" /><path
         d="m 1343.76,459.516 h -2.82 l 7.05,11.519 v -7.199 h 7.99 l -1.41,-4.32 h -6.58 v -20.157 -0.718 0 0 -0.723 c 0,-1.438 0.47,-2.879 0.94,-4.32 0.94,-0.719 1.88,-1.438 2.35,-1.438 h 0.47 v 0 c 0.47,0 1.41,0.719 1.88,0.719 0.47,0.719 0.94,1.441 1.41,1.441 0,0.719 0.47,0.719 0.47,0.719 h 0.47 v 0 h 0.47 v -0.719 l -0.47,-0.722 c 0,-0.719 -0.94,-2.157 -2.35,-2.879 -0.94,-0.719 -2.35,-1.438 -3.29,-1.438 h -0.47 -0.47 c -1.41,0 -2.82,0.719 -3.76,1.438 -0.94,0.722 -1.88,3.601 -1.88,6.48 v 22.317"
         style="fill:#231f20;fill-opacity:1;fill-rule:evenodd;stroke:none"
         id="path40" /><path
         d="M 298.199,997.699 V 147.398"
         style="fill:none;stroke:#231f20;stroke-width:8.6;stroke-linecap:butt;stroke-linejoin:miter;stroke-miterlimit:11.4737;stroke-dasharray:none;stroke-opacity:1"
         id="path42" /><path
         d="m 1798.7,2386.6 h 1219"
         style="fill:none;stroke:#231f20;stroke-width:8.6;stroke-linecap:butt;stroke-linejoin:miter;stroke-miterlimit:11.4737;stroke-dasharray:none;stroke-opacity:1"
         id="path44" /><path
         d="M 2982.4,2329.7 H 2734"
         style="fill:none;stroke:#231f20;stroke-width:5.8;stroke-linecap:butt;stroke-linejoin:miter;stroke-miterlimit:11.4737;stroke-dasharray:none;stroke-opacity:1"
         id="path46" /><path
         d="m 3017.7,2329.7 -79.9,-20.9 c 11.5,13.7 11.5,28.1 0,41.8 l 79.9,-20.9"
         style="fill:#231f20;fill-opacity:1;fill-rule:evenodd;stroke:none"
         id="path48" /><path
         d="m 2843.76,2269.52 h -2.82 l 7.05,11.52 v -7.2 h 7.99 l -1.41,-4.32 h -6.58 v -20.16 -0.72 0 0 -0.72 c 0,-1.44 0.47,-2.88 0.94,-4.32 0.94,-0.72 1.88,-1.44 2.35,-1.44 h 0.47 v 0 c 0.47,0 1.41,0.72 1.88,0.72 0.47,0.72 0.94,1.44 1.41,1.44 0,0.72 0.47,0.72 0.47,0.72 h 0.47 v 0 h 0.47 v -0.72 l -0.47,-0.72 c 0,-0.72 -0.94,-2.16 -2.35,-2.88 -0.94,-0.72 -2.35,-1.44 -3.29,-1.44 h -0.47 -0.47 c -1.41,0 -2.82,0.72 -3.76,1.44 -0.94,0.72 -1.88,3.6 -1.88,6.48 v 22.32"
         style="fill:#231f20;fill-opacity:1;fill-rule:evenodd;stroke:none"
         id="path50" /><path
         d="M 1798.7,2812.1 V 1961.8"
         style="fill:none;stroke:#231f20;stroke-width:8.6;stroke-linecap:butt;stroke-linejoin:miter;stroke-miterlimit:11.4737;stroke-dasharray:none;stroke-opacity:1"
         id="path52" /><path
         d="M 1800.2,1478.6 H 3019.1"
         style="fill:none;stroke:#231f20;stroke-width:8.6;stroke-linecap:butt;stroke-linejoin:miter;stroke-miterlimit:11.4737;stroke-dasharray:none;stroke-opacity:1"
         id="path54" /><path
         d="M 2983.8,1421.8 H 2735.4"
         style="fill:none;stroke:#231f20;stroke-width:5.8;stroke-linecap:butt;stroke-linejoin:miter;stroke-miterlimit:11.4737;stroke-dasharray:none;stroke-opacity:1"
         id="path56" /><path
         d="m 3019.1,1421.8 -79.9,-20.9 c 11.5,13.7 11.5,28.1 0,41.7 l 79.9,-20.8"
         style="fill:#231f20;fill-opacity:1;fill-rule:evenodd;stroke:none"
         id="path58" /><path
         d="m 2843.76,1359.52 h -2.82 l 7.05,11.52 v -7.2 h 7.99 l -1.41,-4.32 h -6.58 v -20.16 -0.72 0 0 -0.72 c 0,-1.44 0.47,-2.88 0.94,-4.32 0.94,-0.72 1.88,-1.44 2.35,-1.44 h 0.47 v 0 c 0.47,0 1.41,0.72 1.88,0.72 0.47,0.72 0.94,1.44 1.41,1.44 0,0.72 0.47,0.72 0.47,0.72 h 0.47 v 0 h 0.47 v -0.72 l -0.47,-0.72 c 0,-0.72 -0.94,-2.16 -2.35,-2.88 -0.94,-0.72 -2.35,-1.44 -3.29,-1.44 h -0.47 -0.47 c -1.41,0 -2.82,0.72 -3.76,1.44 -0.94,0.72 -1.88,3.6 -1.88,6.48 v 22.32"
         style="fill:#231f20;fill-opacity:1;fill-rule:evenodd;stroke:none"
         id="path60" /><path
         d="M 1800.2,1904.2 V 1053.8"
         style="fill:none;stroke:#231f20;stroke-width:8.6;stroke-linecap:butt;stroke-linejoin:miter;stroke-miterlimit:11.4737;stroke-dasharray:none;stroke-opacity:1"
         id="path62" /><path
         d="M 1800.2,571.402 H 3019.1"
         style="fill:none;stroke:#231f20;stroke-width:8.6;stroke-linecap:butt;stroke-linejoin:miter;stroke-miterlimit:11.4737;stroke-dasharray:none;stroke-opacity:1"
         id="path64" /><path
         d="M 2983.8,514.602 H 2735.4"
         style="fill:none;stroke:#231f20;stroke-width:5.8;stroke-linecap:butt;stroke-linejoin:miter;stroke-miterlimit:11.4737;stroke-dasharray:none;stroke-opacity:1"
         id="path66" /><path
         d="m 3019.1,514.602 -79.9,-20.903 c 11.5,13.699 11.5,28.102 0,41.699 l 79.9,-20.796"
         style="fill:#231f20;fill-opacity:1;fill-rule:evenodd;stroke:none"
         id="path68" /><path
         d="m 2843.76,449.516 h -2.82 l 7.05,11.519 v -7.199 h 7.99 l -1.41,-4.32 h -6.58 v -20.157 -0.718 0 0 -0.723 c 0,-1.438 0.47,-2.879 0.94,-4.32 0.94,-0.719 1.88,-1.438 2.35,-1.438 h 0.47 v 0 c 0.47,0 1.41,0.719 1.88,0.719 0.47,0.719 0.94,1.441 1.41,1.441 0,0.719 0.47,0.719 0.47,0.719 h 0.47 v 0 h 0.47 v -0.719 l -0.47,-0.722 c 0,-0.719 -0.94,-2.157 -2.35,-2.879 -0.94,-0.719 -2.35,-1.438 -3.29,-1.438 h -0.47 -0.47 c -1.41,0 -2.82,0.719 -3.76,1.438 -0.94,0.722 -1.88,3.601 -1.88,6.48 v 22.317"
         style="fill:#231f20;fill-opacity:1;fill-rule:evenodd;stroke:none"
         id="path70" /><path
         d="M 1800.2,997 V 146.602"
         style="fill:none;stroke:#231f20;stroke-width:8.6;stroke-linecap:butt;stroke-linejoin:miter;stroke-miterlimit:11.4737;stroke-dasharray:none;stroke-opacity:1"
         id="path72" /><path
         d="m 1363.52,2640 v 6.48 c 5.04,0.72 8.64,3.6 12.24,5.76 4.32,2.88 7.2,7.2 9.36,12.24 l 47.51,123.1 v 0.72 l 5.76,12.96 h 22.32 l 46.07,-123.1 v 0 l 5.04,-13.68 c 1.44,-5.76 5.04,-10.08 7.2,-12.24 3.6,-2.16 8.64,-4.32 14.4,-5.76 V 2640 h -65.51 v 6.48 h 0.72 1.44 c 5.04,0 9.36,1.44 12.23,2.88 2.16,1.44 4.33,4.32 4.33,7.92 0,1.44 0,2.88 0,4.32 0,0.72 -1.45,2.88 -2.17,4.32 l -11.51,33.11 h -58.32 l -10.79,-28.07 c 0,-1.44 -0.72,-3.6 -0.72,-5.04 0,-1.44 -0.73,-3.6 -0.73,-4.32 0,-5.04 1.45,-8.64 5.04,-10.8 3.61,-1.44 8.64,-3.6 15.12,-5.04 V 2640 Z m 105.83,69.83 -25.2,71.27 -25.92,-71.27 z"
         style="fill:#231f20;fill-opacity:1;fill-rule:evenodd;stroke:none"
         id="path74" /><path
         d="m 1363.52,2640 v 6.48 c 5.04,0.72 8.64,3.6 12.24,5.76 4.32,2.88 7.2,7.2 9.36,12.24 l 47.51,123.1 v 0.72 l 5.76,12.96 h 22.32 l 46.07,-123.1 v 0 l 5.04,-13.68 c 1.44,-5.76 5.04,-10.08 7.2,-12.24 3.6,-2.16 8.64,-4.32 14.4,-5.76 V 2640 h -65.51 v 6.48 h 0.72 1.44 c 5.04,0 9.36,1.44 12.23,2.88 2.16,1.44 4.33,4.32 4.33,7.92 0,1.44 0,2.88 0,4.32 0,0.72 -1.45,2.88 -2.17,4.32 l -11.51,33.11 h -58.32 l -10.79,-28.07 c 0,-1.44 -0.72,-3.6 -0.72,-5.04 0,-1.44 -0.73,-3.6 -0.73,-4.32 0,-5.04 1.45,-8.64 5.04,-10.8 3.61,-1.44 8.64,-3.6 15.12,-5.04 V 2640 Z m 105.83,69.83 -25.2,71.27 -25.92,-71.27 z"
         style="fill:none;stroke:#231f20;stroke-width:8.6;stroke-linecap:butt;stroke-linejoin:miter;stroke-miterlimit:11.4737;stroke-dasharray:none;stroke-opacity:1"
         id="path76" /><path
         d="m 2875.76,2640 v 6.48 c 9.36,1.44 15.12,4.32 17.28,7.2 2.88,2.88 4.32,10.08 4.32,19.44 v 95.02 c 0,8.64 -1.44,15.12 -4.32,18.72 -2.16,2.88 -7.92,5.76 -17.28,7.2 v 7.2 h 87.11 c 2.88,0 6.48,0 9.36,0 2.16,0 5.75,-1.44 8.63,-1.44 8.64,-0.72 17.28,-2.88 25.2,-5.76 7.2,-4.32 12.96,-10.8 16.56,-18.72 0.72,-2.16 1.44,-4.32 1.44,-5.76 0,-2.16 0,-4.32 0,-6.48 0,-0.72 0,-2.16 0,-2.16 0,-0.72 0,-1.44 0,-2.15 0,-2.16 -0.72,-5.04 -0.72,-6.49 -0.72,-2.87 -2.16,-5.03 -3.6,-7.19 -2.16,-5.04 -7.2,-8.65 -11.52,-11.52 -4.32,-2.88 -10.08,-5.04 -15.12,-6.48 10.08,-2.16 19.44,-7.92 27.36,-12.96 8.64,-5.76 12.96,-14.4 12.96,-25.92 0,-1.44 0,-2.87 0,-3.6 0,-1.43 -1.44,-3.59 -1.44,-5.04 -2.16,-13.67 -8.64,-24.47 -19.44,-29.51 -11.52,-5.04 -23.04,-9.36 -35.99,-10.08 -2.16,0 -4.32,0 -6.48,0 -2.16,0 -4.32,0 -6.48,0 z m 46.07,81.35 v -47.51 c 0,-6.48 0.72,-12.24 2.16,-16.56 1.44,-3.6 6.48,-6.48 14.4,-6.48 1.44,0 4.32,0 6.48,0 2.88,0 6.48,-0.72 9.36,-0.72 0.72,0 2.88,0 4.32,0 1.44,0 3.6,0.72 5.04,0.72 6.48,0 12.96,1.44 18.71,2.88 6.49,1.44 11.52,5.04 15.12,8.64 2.88,3.6 5.04,7.2 6.48,11.52 1.44,3.59 2.88,8.63 2.88,12.95 v 1.44 1.44 c 0,2.88 -1.44,7.2 -2.16,9.36 -0.72,2.88 -2.88,5.76 -3.6,8.64 -2.88,5.04 -7.92,8.64 -12.96,10.08 -5.04,1.44 -11.51,3.6 -17.27,3.6 -2.88,0 -5.04,0 -7.2,0 -2.88,0 -5.04,0 -7.2,0 h -1.44 c 0,0 -1.44,0 -2.16,0 z m 0,9.36 h 27.36 c 2.16,0 5.76,0 7.92,0 3.6,0 7.2,0.72 10.08,0.72 6.47,0.72 12.95,2.88 18.71,5.03 5.76,2.89 10.08,7.93 12.24,14.4 0.72,1.44 1.44,3.6 1.44,5.04 0,1.44 0.72,3.6 0.72,5.76 0,3.6 -1.44,9.36 -3.6,12.96 -1.44,3.6 -5.76,7.92 -9.36,10.08 -3.59,2.16 -8.64,3.6 -12.95,4.32 -5.04,1.44 -10.08,2.16 -15.12,2.16 -0.72,0 -2.16,0.72 -2.88,0.72 -1.44,0 -2.16,0 -2.88,0 -2.88,0 -5.04,0 -7.92,0 -2.16,0 -5.76,-1.44 -7.2,-1.44 -7.92,-0.72 -12.24,-2.88 -13.68,-6.48 -1.44,-2.88 -2.88,-8.64 -2.88,-15.84 v -37.43"
         style="fill:#231f20;fill-opacity:1;fill-rule:evenodd;stroke:none"
         id="path78" /><path
         d="m 2875.76,2640 v 6.48 c 9.36,1.44 15.12,4.32 17.28,7.2 2.88,2.88 4.32,10.08 4.32,19.44 v 95.02 c 0,8.64 -1.44,15.12 -4.32,18.72 -2.16,2.88 -7.92,5.76 -17.28,7.2 v 7.2 h 87.11 c 2.88,0 6.48,0 9.36,0 2.16,0 5.75,-1.44 8.63,-1.44 8.64,-0.72 17.28,-2.88 25.2,-5.76 7.2,-4.32 12.96,-10.8 16.56,-18.72 0.72,-2.16 1.44,-4.32 1.44,-5.76 0,-2.16 0,-4.32 0,-6.48 0,-0.72 0,-2.16 0,-2.16 0,-0.72 0,-1.44 0,-2.15 0,-2.16 -0.72,-5.04 -0.72,-6.49 -0.72,-2.87 -2.16,-5.03 -3.6,-7.19 -2.16,-5.04 -7.2,-8.65 -11.52,-11.52 -4.32,-2.88 -10.08,-5.04 -15.12,-6.48 10.08,-2.16 19.44,-7.92 27.36,-12.96 8.64,-5.76 12.96,-14.4 12.96,-25.92 0,-1.44 0,-2.87 0,-3.6 0,-1.43 -1.44,-3.59 -1.44,-5.04 -2.16,-13.67 -8.64,-24.47 -19.44,-29.51 -11.52,-5.04 -23.04,-9.36 -35.99,-10.08 -2.16,0 -4.32,0 -6.48,0 -2.16,0 -4.32,0 -6.48,0 z m 46.07,81.35 v -47.51 c 0,-6.48 0.72,-12.24 2.16,-16.56 1.44,-3.6 6.48,-6.48 14.4,-6.48 1.44,0 4.32,0 6.48,0 2.88,0 6.48,-0.72 9.36,-0.72 0.72,0 2.88,0 4.32,0 1.44,0 3.6,0.72 5.04,0.72 6.48,0 12.96,1.44 18.71,2.88 6.49,1.44 11.52,5.04 15.12,8.64 2.88,3.6 5.04,7.2 6.48,11.52 1.44,3.59 2.88,8.63 2.88,12.95 v 1.44 1.44 c 0,2.88 -1.44,7.2 -2.16,9.36 -0.72,2.88 -2.88,5.76 -3.6,8.64 -2.88,5.04 -7.92,8.64 -12.96,10.08 -5.04,1.44 -11.51,3.6 -17.27,3.6 -2.88,0 -5.04,0 -7.2,0 -2.88,0 -5.04,0 -7.2,0 h -1.44 c 0,0 -1.44,0 -2.16,0 z m 0,9.36 h 27.36 c 2.16,0 5.76,0 7.92,0 3.6,0 7.2,0.72 10.08,0.72 6.47,0.72 12.95,2.88 18.71,5.03 5.76,2.89 10.08,7.93 12.24,14.4 0.72,1.44 1.44,3.6 1.44,5.04 0,1.44 0.72,3.6 0.72,5.76 0,3.6 -1.44,9.36 -3.6,12.96 -1.44,3.6 -5.76,7.92 -9.36,10.08 -3.59,2.16 -8.64,3.6 -12.95,4.32 -5.04,1.44 -10.08,2.16 -15.12,2.16 -0.72,0 -2.16,0.72 -2.88,0.72 -1.44,0 -2.16,0 -2.88,0 -2.88,0 -5.04,0 -7.92,0 -2.16,0 -5.76,-1.44 -7.2,-1.44 -7.92,-0.72 -12.24,-2.88 -13.68,-6.48 -1.44,-2.88 -2.88,-8.64 -2.88,-15.84 z"
         style="fill:none;stroke:#231f20;stroke-width:8.6;stroke-linecap:butt;stroke-linejoin:miter;stroke-miterlimit:11.4737;stroke-dasharray:none;stroke-opacity:1"
         id="path80" /><path
         d="m 1466.71,1730 v 7.92 h 0.72 0.73 c 1.43,0 2.16,0.72 2.88,0.72 1.43,0 2.87,0.72 4.32,0.72 3.59,0 7.91,1.44 11.51,2.88 4.32,2.16 6.48,5.76 6.48,10.8 v 102.94 c 0,7.92 -2.16,12.96 -6.48,15.84 -4.32,2.16 -10.08,3.6 -16.55,3.6 h -0.73 -1.43 l -1.45,-0.72 c -0.71,0 -2.16,0 -2.16,0 v 7.2 c 5.04,0.72 10.81,2.16 15.12,2.16 5.04,0.72 10.08,2.16 14.4,2.88 0.72,0 2.16,0.72 2.16,0.72 0.72,0 2.16,0.72 2.16,0.72 0.72,0 2.16,0.72 3.6,0.72 1.44,0 2.16,0.72 3.6,0.72 2.16,0 4.32,0.72 5.76,0.72 2.16,0 4.32,0.72 6.48,0.72 v -123.1 0 -15.12 c 0,-4.32 2.16,-7.92 5.04,-10.08 3.59,-2.16 7.92,-3.6 11.52,-3.6 1.43,0 3.59,-0.72 5.04,-0.72 1.43,0 4.32,-0.72 5.03,-0.72 V 1730 h -77.75"
         style="fill:#231f20;fill-opacity:1;fill-rule:evenodd;stroke:none"
         id="path82" /><path
         d="m 1466.71,1730 v 7.92 h 0.72 0.73 c 1.43,0 2.16,0.72 2.88,0.72 1.43,0 2.87,0.72 4.32,0.72 3.59,0 7.91,1.44 11.51,2.88 4.32,2.16 6.48,5.76 6.48,10.8 v 102.94 c 0,7.92 -2.16,12.96 -6.48,15.84 -4.32,2.16 -10.08,3.6 -16.55,3.6 h -0.73 -1.43 l -1.45,-0.72 c -0.71,0 -2.16,0 -2.16,0 v 7.2 c 5.04,0.72 10.81,2.16 15.12,2.16 5.04,0.72 10.08,2.16 14.4,2.88 0.72,0 2.16,0.72 2.16,0.72 0.72,0 2.16,0.72 2.16,0.72 0.72,0 2.16,0.72 3.6,0.72 1.44,0 2.16,0.72 3.6,0.72 2.16,0 4.32,0.72 5.76,0.72 2.16,0 4.32,0.72 6.48,0.72 v -123.1 0 -15.12 c 0,-4.32 2.16,-7.92 5.04,-10.08 3.59,-2.16 7.92,-3.6 11.52,-3.6 1.43,0 3.59,-0.72 5.04,-0.72 1.43,0 4.32,-0.72 5.03,-0.72 V 1730 Z"
         style="fill:none;stroke:#231f20;stroke-width:8.6;stroke-linecap:butt;stroke-linejoin:miter;stroke-miterlimit:11.4737;stroke-dasharray:none;stroke-opacity:1"
         id="path84" /><path
         d="m 2882.24,1730 -1.44,15.84 c 5.04,2.88 10.8,6.48 15.84,10.8 5.04,3.59 11.52,8.63 16.56,12.95 13.67,10.8 25.91,23.04 37.43,36 11.52,13.68 17.28,28.8 17.28,45.35 0,10.08 -2.88,18 -8.64,23.04 -6.48,5.04 -15.12,8.64 -23.76,8.64 -1.44,0 -3.6,0 -5.04,0 -1.44,0 -3.6,-1.44 -5.76,-1.44 -5.04,-1.44 -10.08,-3.6 -14.39,-7.2 -3.61,-2.88 -6.48,-7.2 -6.48,-12.96 v 0 -0.72 c 0,-1.44 0,-2.88 0.71,-4.32 0.72,-0.72 2.16,-2.88 3.61,-4.32 0,-1.44 1.43,-2.16 1.43,-3.6 0.73,-1.43 1.45,-3.6 1.45,-4.31 v -0.73 l 0.71,-1.43 c 0,-1.45 -0.71,-3.61 -1.43,-4.32 -0.73,-1.45 -2.16,-3.61 -4.32,-5.04 -1.45,0 -2.88,-1.44 -4.32,-1.44 -1.45,0 -3.6,-0.72 -4.32,-0.72 -4.32,0 -7.92,2.16 -10.8,5.04 -2.16,3.59 -4.32,8.64 -4.32,14.39 0,0.72 0,2.16 0,2.88 0,0.72 0.72,2.16 0.72,2.88 2.16,11.52 8.64,20.88 18,26.64 9.36,6.48 20.15,10.08 31.67,11.52 0.72,0 2.88,0 4.32,0 1.44,0 2.88,0.72 4.32,0.72 2.16,0 4.32,0 5.76,0 2.16,0 4.32,-1.44 6.48,-1.44 12.95,-2.16 23.76,-7.92 30.24,-15.84 7.19,-8.64 11.51,-18.72 11.51,-28.8 0,-4.31 0,-9.36 -1.44,-12.95 -1.44,-4.32 -3.6,-9.36 -5.76,-14.4 -4.31,-7.92 -10.79,-16.56 -20.15,-24.48 -8.64,-8.64 -18.72,-16.56 -28.8,-23.76 -5.76,-4.31 -12.24,-8.63 -17.28,-12.95 -5.04,-3.6 -10.79,-7.92 -15.83,-11.52 h 51.83 c 10.08,0 19.44,2.88 24.47,6.48 5.04,4.32 10.08,12.23 12.96,20.88 l 9.36,-1.45 -10.8,-43.91 h -111.58"
         style="fill:#231f20;fill-opacity:1;fill-rule:evenodd;stroke:none"
         id="path86" /><path
         d="m 2882.24,1730 -1.44,15.84 c 5.04,2.88 10.8,6.48 15.84,10.8 5.04,3.59 11.52,8.63 16.56,12.95 13.67,10.8 25.91,23.04 37.43,36 11.52,13.68 17.28,28.8 17.28,45.35 0,10.08 -2.88,18 -8.64,23.04 -6.48,5.04 -15.12,8.64 -23.76,8.64 -1.44,0 -3.6,0 -5.04,0 -1.44,0 -3.6,-1.44 -5.76,-1.44 -5.04,-1.44 -10.08,-3.6 -14.39,-7.2 -3.61,-2.88 -6.48,-7.2 -6.48,-12.96 v 0 -0.72 c 0,-1.44 0,-2.88 0.71,-4.32 0.72,-0.72 2.16,-2.88 3.61,-4.32 0,-1.44 1.43,-2.16 1.43,-3.6 0.73,-1.43 1.45,-3.6 1.45,-4.31 v -0.73 l 0.71,-1.43 c 0,-1.45 -0.71,-3.61 -1.43,-4.32 -0.73,-1.45 -2.16,-3.61 -4.32,-5.04 -1.45,0 -2.88,-1.44 -4.32,-1.44 -1.45,0 -3.6,-0.72 -4.32,-0.72 -4.32,0 -7.92,2.16 -10.8,5.04 -2.16,3.59 -4.32,8.64 -4.32,14.39 0,0.72 0,2.16 0,2.88 0,0.72 0.72,2.16 0.72,2.88 2.16,11.52 8.64,20.88 18,26.64 9.36,6.48 20.15,10.08 31.67,11.52 0.72,0 2.88,0 4.32,0 1.44,0 2.88,0.72 4.32,0.72 2.16,0 4.32,0 5.76,0 2.16,0 4.32,-1.44 6.48,-1.44 12.95,-2.16 23.76,-7.92 30.24,-15.84 7.19,-8.64 11.51,-18.72 11.51,-28.8 0,-4.31 0,-9.36 -1.44,-12.95 -1.44,-4.32 -3.6,-9.36 -5.76,-14.4 -4.31,-7.92 -10.79,-16.56 -20.15,-24.48 -8.64,-8.64 -18.72,-16.56 -28.8,-23.76 -5.76,-4.31 -12.24,-8.63 -17.28,-12.95 -5.04,-3.6 -10.79,-7.92 -15.83,-11.52 h 51.83 c 10.08,0 19.44,2.88 24.47,6.48 5.04,4.32 10.08,12.23 12.96,20.88 l 9.36,-1.45 -10.8,-43.91 z"
         style="fill:none;stroke:#231f20;stroke-width:8.6;stroke-linecap:butt;stroke-linejoin:miter;stroke-miterlimit:11.4737;stroke-dasharray:none;stroke-opacity:1"
         id="path88" /><path
         d="m 1487.83,908.547 c 0.72,0 1.44,0 1.44,0 v 0 c 0,0 0.72,0 1.44,0 0.72,0 2.16,-1.438 3.6,-1.438 6.48,-1.441 13.67,-4.32 19.44,-7.199 6.47,-2.879 11.51,-8.64 14.39,-15.84 1.44,-2.16 2.88,-5.757 2.88,-7.918 0.72,-2.879 1.44,-6.48 1.44,-9.359 0,-2.879 -0.72,-7.199 -1.44,-9.359 0,-3.598 -1.44,-7.2 -2.88,-9.36 -5.04,-10.078 -12.96,-17.277 -21.59,-21.594 -9.36,-4.32 -19.44,-6.48 -29.52,-7.921 -2.16,0 -4.32,-0.719 -5.76,-0.719 -1.44,0 -3.6,0 -5.76,0 -2.16,0 -4.32,0 -5.76,0 -2.16,0 -4.32,0.719 -6.48,0.719 h -1.44 c -0.72,0 -1.44,0.722 -1.44,0.722 -6.48,0.719 -13.68,2.16 -19.43,5.039 -5.76,2.16 -11.52,7.2 -15.12,12.239 -1.44,1.437 -3.6,4.32 -5.04,6.476 -0.72,2.883 -1.44,5.762 -1.44,8.641 v 1.441 0.719 c 0,1.437 0,2.879 0,4.32 0,1.438 1.44,2.879 1.44,4.317 1.44,2.16 3.6,3.601 5.76,5.039 1.44,1.441 4.32,2.16 5.76,2.16 3.6,0 6.48,-1.438 9.36,-3.598 2.16,-1.441 4.32,-5.761 4.32,-9.359 v 0 -1.442 c 0,-0.718 0,-1.437 0,-1.437 0,-0.719 -0.73,-2.16 -0.73,-2.879 0,-1.441 0,-2.883 0,-2.883 0,-1.437 -0.72,-2.879 -0.72,-3.597 0,-1.442 0,-3.598 1.45,-5.039 1.43,-1.442 3.59,-3.602 7.2,-5.758 2.16,-2.16 6.47,-3.602 10.07,-4.321 3.6,-1.441 8.64,-2.16 12.24,-2.16 h 0.72 1.44 c 5.04,0 10.08,2.16 14.4,3.598 5.04,0.723 9.36,3.601 12.24,5.762 3.6,3.597 7.2,7.918 7.92,12.957 1.43,5.039 2.88,10.078 2.88,15.839 v 0.719 1.438 c 0,3.601 -0.72,7.922 -2.16,11.519 -0.72,3.602 -3.6,8.641 -5.76,10.801 -2.88,5.039 -7.92,9.356 -12.96,10.078 -5.76,2.16 -12.24,3.598 -18,3.598 h -1.44 -1.44 c -2.16,0 -5.04,0 -6.48,0 -2.16,0 -5.04,-0.719 -6.48,-0.719 v 10.078 h 0.72 c 0.72,0 2.16,0 2.16,0 l 1.44,-0.719 c 0,0 1.44,0 2.16,0 0,0 1.44,0 2.16,0 0.72,0 2.16,0.719 3.6,0.719 7.2,0 15.12,2.879 21.6,5.039 6.48,3.602 12.23,10.078 12.96,18.719 0,1.438 0.72,2.879 0.72,3.598 0,1.441 0,3.601 0,5.039 0,6.48 -2.16,13.679 -6.48,18.718 -4.32,5.04 -11.52,9.36 -18.72,10.079 h -1.44 c -0.72,0 -2.16,0 -2.16,0 -0.72,0 -2.88,0 -4.32,0 -1.44,0 -2.88,-0.719 -4.32,-0.719 -4.32,-0.723 -9.36,-2.879 -12.96,-5.039 -3.6,-2.883 -7.19,-6.481 -7.92,-10.801 v -0.719 0 -0.718 c 0,-0.723 0,-2.161 0,-2.883 0,-1.438 0.73,-2.157 1.45,-3.598 0,-1.441 1.43,-2.879 1.43,-4.32 0,-0.719 0.73,-2.16 0.73,-3.598 v -0.723 -0.718 -0.719 h -0.73 c 0,-2.879 -2.15,-5.758 -3.59,-7.199 -2.17,-1.442 -5.04,-2.879 -7.2,-2.879 h -0.72 -1.44 c -2.16,0 -5.76,2.16 -7.92,4.32 -2.88,2.156 -5.04,5.758 -5.04,10.078 v 0.719 0.719 0 c 0,8.64 3.6,16.558 10.08,22.316 6.48,5.762 12.95,10.078 20.87,12.238 2.16,0.723 4.32,2.161 5.76,2.161 2.16,0 4.32,1.441 5.76,1.441 1.44,0 3.6,0.719 5.04,0.719 1.44,0 4.32,0 5.04,0 1.44,0 2.88,0 4.32,0 0.72,0 2.88,-0.719 4.32,-0.719 9.36,-0.719 18.71,-4.32 27.36,-8.641 8.64,-4.316 15.11,-12.238 17.99,-22.316 0,-1.438 0.72,-2.16 0.72,-3.598 0,-1.441 0,-2.879 0,-3.601 0,-2.879 -0.72,-6.477 -1.44,-9.36 -0.72,-2.879 -2.88,-6.476 -3.59,-8.636 -3.61,-5.039 -8.65,-9.36 -13.68,-11.52 -5.04,-2.879 -11.52,-5.039 -17.28,-7.199"
         style="fill:#231f20;fill-opacity:1;fill-rule:evenodd;stroke:none"
         id="path90" /><path
         d="m 1487.83,908.547 c 0.72,0 1.44,0 1.44,0 v 0 c 0,0 0.72,0 1.44,0 0.72,0 2.16,-1.438 3.6,-1.438 6.48,-1.441 13.67,-4.32 19.44,-7.199 6.47,-2.879 11.51,-8.64 14.39,-15.84 1.44,-2.16 2.88,-5.757 2.88,-7.918 0.72,-2.879 1.44,-6.48 1.44,-9.359 0,-2.879 -0.72,-7.199 -1.44,-9.359 0,-3.598 -1.44,-7.2 -2.88,-9.36 -5.04,-10.078 -12.96,-17.277 -21.59,-21.594 -9.36,-4.32 -19.44,-6.48 -29.52,-7.921 -2.16,0 -4.32,-0.719 -5.76,-0.719 -1.44,0 -3.6,0 -5.76,0 -2.16,0 -4.32,0 -5.76,0 -2.16,0 -4.32,0.719 -6.48,0.719 h -1.44 c -0.72,0 -1.44,0.722 -1.44,0.722 -6.48,0.719 -13.68,2.16 -19.43,5.039 -5.76,2.16 -11.52,7.2 -15.12,12.239 -1.44,1.437 -3.6,4.32 -5.04,6.476 -0.72,2.883 -1.44,5.762 -1.44,8.641 v 1.441 0.719 c 0,1.437 0,2.879 0,4.32 0,1.438 1.44,2.879 1.44,4.317 1.44,2.16 3.6,3.601 5.76,5.039 1.44,1.441 4.32,2.16 5.76,2.16 3.6,0 6.48,-1.438 9.36,-3.598 2.16,-1.441 4.32,-5.761 4.32,-9.359 v 0 -1.442 c 0,-0.718 0,-1.437 0,-1.437 0,-0.719 -0.73,-2.16 -0.73,-2.879 0,-1.441 0,-2.883 0,-2.883 0,-1.437 -0.72,-2.879 -0.72,-3.597 0,-1.442 0,-3.598 1.45,-5.039 1.43,-1.442 3.59,-3.602 7.2,-5.758 2.16,-2.16 6.47,-3.602 10.07,-4.321 3.6,-1.441 8.64,-2.16 12.24,-2.16 h 0.72 1.44 c 5.04,0 10.08,2.16 14.4,3.598 5.04,0.723 9.36,3.601 12.24,5.762 3.6,3.597 7.2,7.918 7.92,12.957 1.43,5.039 2.88,10.078 2.88,15.839 v 0.719 1.438 c 0,3.601 -0.72,7.922 -2.16,11.519 -0.72,3.602 -3.6,8.641 -5.76,10.801 -2.88,5.039 -7.92,9.356 -12.96,10.078 -5.76,2.16 -12.24,3.598 -18,3.598 h -1.44 -1.44 c -2.16,0 -5.04,0 -6.48,0 -2.16,0 -5.04,-0.719 -6.48,-0.719 v 10.078 h 0.72 c 0.72,0 2.16,0 2.16,0 l 1.44,-0.719 c 0,0 1.44,0 2.16,0 0,0 1.44,0 2.16,0 0.72,0 2.16,0.719 3.6,0.719 7.2,0 15.12,2.879 21.6,5.039 6.48,3.602 12.23,10.078 12.96,18.719 0,1.438 0.72,2.879 0.72,3.598 0,1.441 0,3.601 0,5.039 0,6.48 -2.16,13.679 -6.48,18.718 -4.32,5.04 -11.52,9.36 -18.72,10.079 h -1.44 c -0.72,0 -2.16,0 -2.16,0 -0.72,0 -2.88,0 -4.32,0 -1.44,0 -2.88,-0.719 -4.32,-0.719 -4.32,-0.723 -9.36,-2.879 -12.96,-5.039 -3.6,-2.883 -7.19,-6.481 -7.92,-10.801 v -0.719 0 -0.718 c 0,-0.723 0,-2.161 0,-2.883 0,-1.438 0.73,-2.157 1.45,-3.598 0,-1.441 1.43,-2.879 1.43,-4.32 0,-0.719 0.73,-2.16 0.73,-3.598 v -0.723 -0.718 -0.719 h -0.73 c 0,-2.879 -2.15,-5.758 -3.59,-7.199 -2.17,-1.442 -5.04,-2.879 -7.2,-2.879 h -0.72 -1.44 c -2.16,0 -5.76,2.16 -7.92,4.32 -2.88,2.156 -5.04,5.758 -5.04,10.078 v 0.719 0.719 0 c 0,8.64 3.6,16.558 10.08,22.316 6.48,5.762 12.95,10.078 20.87,12.238 2.16,0.723 4.32,2.161 5.76,2.161 2.16,0 4.32,1.441 5.76,1.441 1.44,0 3.6,0.719 5.04,0.719 1.44,0 4.32,0 5.04,0 1.44,0 2.88,0 4.32,0 0.72,0 2.88,-0.719 4.32,-0.719 9.36,-0.719 18.71,-4.32 27.36,-8.641 8.64,-4.316 15.11,-12.238 17.99,-22.316 0,-1.438 0.72,-2.16 0.72,-3.598 0,-1.441 0,-2.879 0,-3.601 0,-2.879 -0.72,-6.477 -1.44,-9.36 -0.72,-2.879 -2.88,-6.476 -3.59,-8.636 -3.61,-5.039 -8.65,-9.36 -13.68,-11.52 -5.04,-2.879 -11.52,-5.039 -17.28,-7.199 z"
         style="fill:none;stroke:#231f20;stroke-width:8.6;stroke-linecap:butt;stroke-linejoin:miter;stroke-miterlimit:11.4737;stroke-dasharray:none;stroke-opacity:1"
         id="path92" /><path
         d="m 2929.75,820 v 7.918 c 10.08,1.441 16.56,2.879 19.44,5.039 2.16,2.879 3.6,7.199 3.6,12.961 0,1.437 0,2.156 0,3.598 0,1.441 0,2.879 0,4.32 0,0.719 0,2.879 0,4.32 0,1.438 0,3.598 0,5.758 h -71.27 l -5.04,10.078 c 13.68,16.559 27.36,34.555 39.59,52.555 12.96,17.996 25.92,36.715 37.44,54.711 h 22.31 V 877.594 h 34.56 l -5.04,-13.68 h -29.52 c 0,-1.441 0,-4.32 0,-5.039 0,-1.441 0,-4.32 0,-5.039 0,-1.441 0,-2.879 0,-4.32 0,-1.442 -0.71,-2.161 -0.71,-3.598 0,-5.762 1.44,-10.082 3.59,-12.961 2.89,-2.16 10.09,-4.316 19.44,-5.039 V 820 Z m 23.04,57.594 v 81.347 c -9.36,-13.679 -20.16,-27.355 -29.52,-41.035 -9.36,-12.957 -19.43,-27.355 -29.51,-40.312 h 59.03"
         style="fill:#231f20;fill-opacity:1;fill-rule:evenodd;stroke:none"
         id="path94" /><path
         d="m 2929.75,820 v 7.918 c 10.08,1.441 16.56,2.879 19.44,5.039 2.16,2.879 3.6,7.199 3.6,12.961 0,1.437 0,2.156 0,3.598 0,1.441 0,2.879 0,4.32 0,0.719 0,2.879 0,4.32 0,1.438 0,3.598 0,5.758 h -71.27 l -5.04,10.078 c 13.68,16.559 27.36,34.555 39.59,52.555 12.96,17.996 25.92,36.715 37.44,54.711 h 22.31 V 877.594 h 34.56 l -5.04,-13.68 h -29.52 c 0,-1.441 0,-4.32 0,-5.039 0,-1.441 0,-4.32 0,-5.039 0,-1.441 0,-2.879 0,-4.32 0,-1.442 -0.71,-2.161 -0.71,-3.598 0,-5.762 1.44,-10.082 3.59,-12.961 2.89,-2.16 10.09,-4.316 19.44,-5.039 V 820 Z m 23.04,57.594 v 81.347 c -9.36,-13.679 -20.16,-27.355 -29.52,-41.035 -9.36,-12.957 -19.43,-27.355 -29.51,-40.312 z"
         style="fill:none;stroke:#231f20;stroke-width:8.6;stroke-linecap:butt;stroke-linejoin:miter;stroke-miterlimit:11.4737;stroke-dasharray:none;stroke-opacity:1"
         id="path96" /><path
         d="m 269.398,2557.2 h 56.204"
         style="fill:none;stroke:#231f20;stroke-width:8.6;stroke-linecap:butt;stroke-linejoin:miter;stroke-miterlimit:11.4737;stroke-dasharray:none;stroke-opacity:1"
         id="path98" /><path
         d="m 269.398,2727.1 h 56.204"
         style="fill:none;stroke:#231f20;stroke-width:8.6;stroke-linecap:butt;stroke-linejoin:miter;stroke-miterlimit:11.4737;stroke-dasharray:none;stroke-opacity:1"
         id="path100" /><path
         d="m 269.398,2216.6 h 56.204"
         style="fill:none;stroke:#231f20;stroke-width:8.6;stroke-linecap:butt;stroke-linejoin:miter;stroke-miterlimit:11.4737;stroke-dasharray:none;stroke-opacity:1"
         id="path102" /><path
         d="m 269.398,2046.7 h 56.204"
         style="fill:none;stroke:#231f20;stroke-width:8.6;stroke-linecap:butt;stroke-linejoin:miter;stroke-miterlimit:11.4737;stroke-dasharray:none;stroke-opacity:1"
         id="path104" /><path
         d="m 524.301,2415.4 v -56.9"
         style="fill:none;stroke:#231f20;stroke-width:8.6;stroke-linecap:butt;stroke-linejoin:miter;stroke-miterlimit:11.4737;stroke-dasharray:none;stroke-opacity:1"
         id="path106" /><path
         d="m 751.102,2415.4 v -56.9"
         style="fill:none;stroke:#231f20;stroke-width:8.6;stroke-linecap:butt;stroke-linejoin:miter;stroke-miterlimit:11.4737;stroke-dasharray:none;stroke-opacity:1"
         id="path108" /><path
         d="m 977.898,2415.4 v -56.9"
         style="fill:none;stroke:#231f20;stroke-width:8.6;stroke-linecap:butt;stroke-linejoin:miter;stroke-miterlimit:11.4737;stroke-dasharray:none;stroke-opacity:1"
         id="path110" /><path
         d="m 1204.7,2415.4 v -56.9"
         style="fill:none;stroke:#231f20;stroke-width:8.6;stroke-linecap:butt;stroke-linejoin:miter;stroke-miterlimit:11.4737;stroke-dasharray:none;stroke-opacity:1"
         id="path112" /><path
         d="m 269.398,1648.6 h 56.204"
         style="fill:none;stroke:#231f20;stroke-width:8.6;stroke-linecap:butt;stroke-linejoin:miter;stroke-miterlimit:11.4737;stroke-dasharray:none;stroke-opacity:1"
         id="path114" /><path
         d="m 269.398,1818.5 h 56.204"
         style="fill:none;stroke:#231f20;stroke-width:8.6;stroke-linecap:butt;stroke-linejoin:miter;stroke-miterlimit:11.4737;stroke-dasharray:none;stroke-opacity:1"
         id="path116" /><path
         d="m 269.398,1308 h 56.204"
         style="fill:none;stroke:#231f20;stroke-width:8.6;stroke-linecap:butt;stroke-linejoin:miter;stroke-miterlimit:11.4737;stroke-dasharray:none;stroke-opacity:1"
         id="path118" /><path
         d="m 269.398,1138.1 h 56.204"
         style="fill:none;stroke:#231f20;stroke-width:8.6;stroke-linecap:butt;stroke-linejoin:miter;stroke-miterlimit:11.4737;stroke-dasharray:none;stroke-opacity:1"
         id="path120" /><path
         d="m 524.301,1506.7 v -56.9"
         style="fill:none;stroke:#231f20;stroke-width:8.6;stroke-linecap:butt;stroke-linejoin:miter;stroke-miterlimit:11.4737;stroke-dasharray:none;stroke-opacity:1"
         id="path122" /><path
         d="m 751.102,1506.7 v -56.9"
         style="fill:none;stroke:#231f20;stroke-width:8.6;stroke-linecap:butt;stroke-linejoin:miter;stroke-miterlimit:11.4737;stroke-dasharray:none;stroke-opacity:1"
         id="path124" /><path
         d="m 977.898,1506.7 v -56.9"
         style="fill:none;stroke:#231f20;stroke-width:8.6;stroke-linecap:butt;stroke-linejoin:miter;stroke-miterlimit:11.4737;stroke-dasharray:none;stroke-opacity:1"
         id="path126" /><path
         d="m 1204.7,1506.7 v -56.9"
         style="fill:none;stroke:#231f20;stroke-width:8.6;stroke-linecap:butt;stroke-linejoin:miter;stroke-miterlimit:11.4737;stroke-dasharray:none;stroke-opacity:1"
         id="path128" /><path
         d="m 1769.9,741.402 h 56.2"
         style="fill:none;stroke:#231f20;stroke-width:8.6;stroke-linecap:butt;stroke-linejoin:miter;stroke-miterlimit:11.4737;stroke-dasharray:none;stroke-opacity:1"
         id="path130" /><path
         d="m 1769.9,911.301 h 56.2"
         style="fill:none;stroke:#231f20;stroke-width:8.6;stroke-linecap:butt;stroke-linejoin:miter;stroke-miterlimit:11.4737;stroke-dasharray:none;stroke-opacity:1"
         id="path132" /><path
         d="m 1769.9,400.801 h 56.2"
         style="fill:none;stroke:#231f20;stroke-width:8.6;stroke-linecap:butt;stroke-linejoin:miter;stroke-miterlimit:11.4737;stroke-dasharray:none;stroke-opacity:1"
         id="path134" /><path
         d="m 1769.9,230.902 h 56.2"
         style="fill:none;stroke:#231f20;stroke-width:8.6;stroke-linecap:butt;stroke-linejoin:miter;stroke-miterlimit:11.4737;stroke-dasharray:none;stroke-opacity:1"
         id="path136" /><path
         d="M 2024.8,599.5 V 542.602"
         style="fill:none;stroke:#231f20;stroke-width:8.6;stroke-linecap:butt;stroke-linejoin:miter;stroke-miterlimit:11.4737;stroke-dasharray:none;stroke-opacity:1"
         id="path138" /><path
         d="M 2251.6,599.5 V 542.602"
         style="fill:none;stroke:#231f20;stroke-width:8.6;stroke-linecap:butt;stroke-linejoin:miter;stroke-miterlimit:11.4737;stroke-dasharray:none;stroke-opacity:1"
         id="path140" /><path
         d="M 2478.4,599.5 V 542.602"
         style="fill:none;stroke:#231f20;stroke-width:8.6;stroke-linecap:butt;stroke-linejoin:miter;stroke-miterlimit:11.4737;stroke-dasharray:none;stroke-opacity:1"
         id="path142" /><path
         d="M 2705.2,599.5 V 542.602"
         style="fill:none;stroke:#231f20;stroke-width:8.6;stroke-linecap:butt;stroke-linejoin:miter;stroke-miterlimit:11.4737;stroke-dasharray:none;stroke-opacity:1"
         id="path144" /><path
         d="m 1771.4,2558.6 h 56.1"
         style="fill:none;stroke:#231f20;stroke-width:8.6;stroke-linecap:butt;stroke-linejoin:miter;stroke-miterlimit:11.4737;stroke-dasharray:none;stroke-opacity:1"
         id="path146" /><path
         d="m 1771.4,2728.6 h 56.1"
         style="fill:none;stroke:#231f20;stroke-width:8.6;stroke-linecap:butt;stroke-linejoin:miter;stroke-miterlimit:11.4737;stroke-dasharray:none;stroke-opacity:1"
         id="path148" /><path
         d="m 1771.4,2218.1 h 56.1"
         style="fill:none;stroke:#231f20;stroke-width:8.6;stroke-linecap:butt;stroke-linejoin:miter;stroke-miterlimit:11.4737;stroke-dasharray:none;stroke-opacity:1"
         id="path150" /><path
         d="m 1771.4,2048.2 h 56.1"
         style="fill:none;stroke:#231f20;stroke-width:8.6;stroke-linecap:butt;stroke-linejoin:miter;stroke-miterlimit:11.4737;stroke-dasharray:none;stroke-opacity:1"
         id="path152" /><path
         d="m 2026.2,2416.8 v -56.9"
         style="fill:none;stroke:#231f20;stroke-width:8.6;stroke-linecap:butt;stroke-linejoin:miter;stroke-miterlimit:11.4737;stroke-dasharray:none;stroke-opacity:1"
         id="path154" /><path
         d="m 2253,2416.8 v -56.9"
         style="fill:none;stroke:#231f20;stroke-width:8.6;stroke-linecap:butt;stroke-linejoin:miter;stroke-miterlimit:11.4737;stroke-dasharray:none;stroke-opacity:1"
         id="path156" /><path
         d="m 2479.8,2416.8 v -56.9"
         style="fill:none;stroke:#231f20;stroke-width:8.6;stroke-linecap:butt;stroke-linejoin:miter;stroke-miterlimit:11.4737;stroke-dasharray:none;stroke-opacity:1"
         id="path158" /><path
         d="m 2706.6,2416.8 v -56.9"
         style="fill:none;stroke:#231f20;stroke-width:8.6;stroke-linecap:butt;stroke-linejoin:miter;stroke-miterlimit:11.4737;stroke-dasharray:none;stroke-opacity:1"
         id="path160" /><path
         d="m 1771.4,1651.4 h 56.1"
         style="fill:none;stroke:#231f20;stroke-width:8.6;stroke-linecap:butt;stroke-linejoin:miter;stroke-miterlimit:11.4737;stroke-dasharray:none;stroke-opacity:1"
         id="path162" /><path
         d="m 1771.4,1821.4 h 56.1"
         style="fill:none;stroke:#231f20;stroke-width:8.6;stroke-linecap:butt;stroke-linejoin:miter;stroke-miterlimit:11.4737;stroke-dasharray:none;stroke-opacity:1"
         id="path164" /><path
         d="m 1771.4,1310.9 h 56.1"
         style="fill:none;stroke:#231f20;stroke-width:8.6;stroke-linecap:butt;stroke-linejoin:miter;stroke-miterlimit:11.4737;stroke-dasharray:none;stroke-opacity:1"
         id="path166" /><path
         d="m 1771.4,1141 h 56.1"
         style="fill:none;stroke:#231f20;stroke-width:8.6;stroke-linecap:butt;stroke-linejoin:miter;stroke-miterlimit:11.4737;stroke-dasharray:none;stroke-opacity:1"
         id="path168" /><path
         d="m 2026.2,1509.6 v -56.9"
         style="fill:none;stroke:#231f20;stroke-width:8.6;stroke-linecap:butt;stroke-linejoin:miter;stroke-miterlimit:11.4737;stroke-dasharray:none;stroke-opacity:1"
         id="path170" /><path
         d="m 2253,1509.6 v -56.9"
         style="fill:none;stroke:#231f20;stroke-width:8.6;stroke-linecap:butt;stroke-linejoin:miter;stroke-miterlimit:11.4737;stroke-dasharray:none;stroke-opacity:1"
         id="path172" /><path
         d="m 2479.8,1509.6 v -56.9"
         style="fill:none;stroke:#231f20;stroke-width:8.6;stroke-linecap:butt;stroke-linejoin:miter;stroke-miterlimit:11.4737;stroke-dasharray:none;stroke-opacity:1"
         id="path174" /><path
         d="m 2706.6,1509.6 v -56.9"
         style="fill:none;stroke:#231f20;stroke-width:8.6;stroke-linecap:butt;stroke-linejoin:miter;stroke-miterlimit:11.4737;stroke-dasharray:none;stroke-opacity:1"
         id="path176" /><path
         d="m 268,741.402 h 56.199"
         style="fill:none;stroke:#231f20;stroke-width:8.6;stroke-linecap:butt;stroke-linejoin:miter;stroke-miterlimit:11.4737;stroke-dasharray:none;stroke-opacity:1"
         id="path178" /><path
         d="m 268,911.301 h 56.199"
         style="fill:none;stroke:#231f20;stroke-width:8.6;stroke-linecap:butt;stroke-linejoin:miter;stroke-miterlimit:11.4737;stroke-dasharray:none;stroke-opacity:1"
         id="path180" /><path
         d="m 268,400.801 h 56.199"
         style="fill:none;stroke:#231f20;stroke-width:8.6;stroke-linecap:butt;stroke-linejoin:miter;stroke-miterlimit:11.4737;stroke-dasharray:none;stroke-opacity:1"
         id="path182" /><path
         d="m 268,230.902 h 56.199"
         style="fill:none;stroke:#231f20;stroke-width:8.6;stroke-linecap:butt;stroke-linejoin:miter;stroke-miterlimit:11.4737;stroke-dasharray:none;stroke-opacity:1"
         id="path184" /><path
         d="M 522.898,599.5 V 542.602"
         style="fill:none;stroke:#231f20;stroke-width:8.6;stroke-linecap:butt;stroke-linejoin:miter;stroke-miterlimit:11.4737;stroke-dasharray:none;stroke-opacity:1"
         id="path186" /><path
         d="M 749.699,599.5 V 542.602"
         style="fill:none;stroke:#231f20;stroke-width:8.6;stroke-linecap:butt;stroke-linejoin:miter;stroke-miterlimit:11.4737;stroke-dasharray:none;stroke-opacity:1"
         id="path188" /><path
         d="M 976.5,599.5 V 542.602"
         style="fill:none;stroke:#231f20;stroke-width:8.6;stroke-linecap:butt;stroke-linejoin:miter;stroke-miterlimit:11.4737;stroke-dasharray:none;stroke-opacity:1"
         id="path190" /><path
         d="M 1203.3,599.5 V 542.602"
         style="fill:none;stroke:#231f20;stroke-width:8.6;stroke-linecap:butt;stroke-linejoin:miter;stroke-miterlimit:11.4737;stroke-dasharray:none;stroke-opacity:1"
         id="path192" /><path
         d="M 295.398,2558.6 H 749 v -340.5 h 453.6 v 170.6"
         style="fill:none;stroke:#231f20;stroke-width:17.3;stroke-linecap:butt;stroke-linejoin:miter;stroke-miterlimit:11.4737;stroke-dasharray:none;stroke-opacity:1"
         id="path194" /><path
         d="m 1798,2388.7 h 226.8 v 169.9 h 452.9 v -169.9 h 226.8"
         style="fill:none;stroke:#231f20;stroke-width:17.3;stroke-linecap:butt;stroke-linejoin:miter;stroke-miterlimit:11.4737;stroke-dasharray:none;stroke-opacity:1"
         id="path196" /><path
         d="m 295.398,744.199 h 226.801 v 170 H 749 V 574.301 H 975.801 V 404.398 H 1202.6 v 169.903"
         style="fill:none;stroke:#231f20;stroke-width:17.3;stroke-linecap:butt;stroke-linejoin:miter;stroke-miterlimit:11.4737;stroke-dasharray:none;stroke-opacity:1"
         id="path198" /><path
         d="m 295.398,1481.5 h 226.801 v 169.9 H 749 V 1311.6 H 975.801 V 1141.7 H 1202.6 v 339.8"
         style="fill:none;stroke:#231f20;stroke-width:17.3;stroke-linecap:butt;stroke-linejoin:miter;stroke-miterlimit:11.4737;stroke-dasharray:none;stroke-opacity:1"
         id="path200" /><path
         d="m 1797.3,1310.9 h 226.8 V 1141 h 226.8 v 339.8 h 226.8 v 169.9 h 226.8 v -169.9"
         style="fill:none;stroke:#231f20;stroke-width:17.3;stroke-linecap:butt;stroke-linejoin:miter;stroke-miterlimit:11.4737;stroke-dasharray:none;stroke-opacity:1"
         id="path202" /><path
         d="m 1798,574.301 h 226.8 V 404.398 h 226.8 v 339.801 h 226.8 v 170 h 226.8 l -0.7,-339.898"
         style="fill:none;stroke:#231f20;stroke-width:17.3;stroke-linecap:butt;stroke-linejoin:miter;stroke-miterlimit:11.4737;stroke-dasharray:none;stroke-opacity:1"
         id="path204" /></g></g></svg>
