<?xml version="1.0" encoding="UTF-8" standalone="no"?>
<!-- Created with Inkscape (http://www.inkscape.org/) -->

<svg
   version="1.1"
   id="svg2"
   xml:space="preserve"
   width="190.66667"
   height="96"
   viewBox="0 0 190.66667 96"
   xmlns="http://www.w3.org/2000/svg"
   xmlns:svg="http://www.w3.org/2000/svg"><defs
     id="defs6" /><g
     id="g8"
     transform="matrix(1.3333333,0,0,-1.3333333,0,96)"><g
       id="g10"
       transform="scale(0.1)"><path
         d="M 6.89844,714.199 H 1425.3 V 5.69922 H 6.89844 Z"
         style="fill:none;stroke:#231f20;stroke-width:11.5;stroke-linecap:butt;stroke-linejoin:miter;stroke-miterlimit:11.4737;stroke-dasharray:none;stroke-opacity:1"
         id="path12" /><path
         d="m 638.875,364.227 -2.879,3.601 v 0.719 h 0.719 c 1.441,1.441 3.598,3.601 5.758,5.039 2.16,2.16 3.601,4.32 4.32,6.48 l 29.516,-71.992 v 0 l 5.761,-15.117 0.719,-0.719 c 0,-0.718 0.719,-1.441 0.719,-1.441 0.719,-1.438 1.441,-3.598 2.879,-4.317 1.441,-1.441 3.601,-2.882 7.199,-3.601 V 280 h -37.434 v 2.879 c 3.598,0 7.2,0.719 9.36,0.719 1.437,0.722 2.879,2.16 2.879,3.601 0,0.719 -0.719,2.16 -0.719,2.879 0,0.719 -0.723,2.16 -0.723,3.602 l -9.355,23.035 h -32.399 l -9.359,-23.758 c 0,-0.719 0,-1.437 0,-2.16 v -1.438 c 0,-1.441 0,-3.601 1.441,-4.32 1.442,-0.719 5.758,-2.16 10.078,-2.16 V 280 h -26.636 v 2.879 c 2.879,0.719 5.761,2.16 6.48,2.879 1.442,1.441 2.16,3.601 3.598,5.762 0,0.718 0.723,1.437 0.723,2.16 0,0.718 0.718,1.437 1.437,2.156 z m 1.438,-5.039 -12.958,-38.153 h 28.797 z"
         style="fill:#231f20;fill-opacity:1;fill-rule:evenodd;stroke:none"
         id="path14" /><path
         d="M 487.102,118.699 V 572.301 L 940.699,345.5 Z"
         style="fill:none;stroke:#231f20;stroke-width:14.4;stroke-linecap:butt;stroke-linejoin:miter;stroke-miterlimit:11.4737;stroke-dasharray:none;stroke-opacity:1"
         id="path16" /><path
         d="M 203.398,458.602 H 487.102"
         style="fill:none;stroke:#231f20;stroke-width:8.6;stroke-linecap:butt;stroke-linejoin:miter;stroke-miterlimit:11.4737;stroke-dasharray:none;stroke-opacity:1"
         id="path18" /><path
         d="M 204.898,230.301 H 488.602"
         style="fill:none;stroke:#231f20;stroke-width:8.6;stroke-linecap:butt;stroke-linejoin:miter;stroke-miterlimit:11.4737;stroke-dasharray:none;stroke-opacity:1"
         id="path20" /><path
         d="M 941.398,344.102 H 1225.1"
         style="fill:none;stroke:#231f20;stroke-width:8.6;stroke-linecap:butt;stroke-linejoin:miter;stroke-miterlimit:11.4737;stroke-dasharray:none;stroke-opacity:1"
         id="path22" /><path
         d="m 515.039,466.715 h 35.274 v -9.36 h -35.274 v 9.36"
         style="fill:#231f20;fill-opacity:1;fill-rule:evenodd;stroke:none"
         id="path24" /><path
         d="m 515.039,466.715 h 35.274 v -9.36 h -35.274 z"
         style="fill:none;stroke:#231f20;stroke-width:2.2;stroke-linecap:butt;stroke-linejoin:miter;stroke-miterlimit:11.4737;stroke-dasharray:none;stroke-opacity:1"
         id="path26" /><path
         d="m 551.035,261.191 v -27.355 h 26.637 v -7.918 h -26.637 v -26.637 h -7.199 v 26.637 h -26.637 v 7.918 h 26.637 v 27.355 h 7.199"
         style="fill:#231f20;fill-opacity:1;fill-rule:evenodd;stroke:none"
         id="path28" /><path
         d="m 551.035,261.191 v -27.355 h 26.637 v -7.918 h -26.637 v -26.637 h -7.199 v 26.637 h -26.637 v 7.918 h 26.637 v 27.355 z"
         style="fill:none;stroke:#231f20;stroke-width:2.2;stroke-linecap:butt;stroke-linejoin:miter;stroke-miterlimit:11.4737;stroke-dasharray:none;stroke-opacity:1"
         id="path30" /></g></g></svg>
