<?xml version="1.0" encoding="UTF-8" standalone="no"?>
<!-- Created with Inkscape (http://www.inkscape.org/) -->

<svg
   version="1.1"
   id="svg2"
   xml:space="preserve"
   width="441.33334"
   height="214.66667"
   viewBox="0 0 441.33334 214.66667"
   xmlns="http://www.w3.org/2000/svg"
   xmlns:svg="http://www.w3.org/2000/svg"><defs
     id="defs6" /><g
     id="g8"
     transform="matrix(1.3333333,0,0,-1.3333333,0,214.66667)"><g
       id="g10"
       transform="scale(0.1)"><path
         d="M 96.6016,1512.7 H 3212.8 V 95.8008 H 96.6016 Z"
         style="fill:none;stroke:#231f20;stroke-width:11.5;stroke-linecap:butt;stroke-linejoin:miter;stroke-miterlimit:11.4737;stroke-dasharray:none;stroke-opacity:1"
         id="path12" /><path
         d="m 1497,1109.5 c 41.8,-0.7 75.6,-34.5 75.6,-76.3 0,-41.798 -33.1,-75.598 -75.6,-77.001"
         style="fill:none;stroke:#231f20;stroke-width:14.4;stroke-linecap:butt;stroke-linejoin:miter;stroke-miterlimit:11.4737;stroke-dasharray:none;stroke-opacity:1"
         id="path14" /><path
         d="m 1498.5,956.199 c 41,-0.801 75.6,-35.301 75.6,-76.398 0,-42.403 -33.1,-76.301 -75.6,-77"
         style="fill:none;stroke:#231f20;stroke-width:14.4;stroke-linecap:butt;stroke-linejoin:miter;stroke-miterlimit:11.4737;stroke-dasharray:none;stroke-opacity:1"
         id="path16" /><path
         d="m 1498.5,803.5 c 41,-0.699 75.6,-34.5 75.6,-77 0,-41.102 -33.1,-75.602 -75.6,-76.301"
         style="fill:none;stroke:#231f20;stroke-width:14.4;stroke-linecap:butt;stroke-linejoin:miter;stroke-miterlimit:11.4737;stroke-dasharray:none;stroke-opacity:1"
         id="path18" /><path
         d="m 1498.5,650.199 c 41,-1.5 75.6,-34.597 75.6,-77.097 0,-41.704 -33.1,-75.602 -75.6,-76.301"
         style="fill:none;stroke:#231f20;stroke-width:14.4;stroke-linecap:butt;stroke-linejoin:miter;stroke-miterlimit:11.4737;stroke-dasharray:none;stroke-opacity:1"
         id="path20" /><path
         d="m 1801.6,496.102 c -41.8,1.398 -76.3,35.296 -76.3,77 0,41.796 33.1,75.597 76.3,76.296"
         style="fill:none;stroke:#231f20;stroke-width:14.4;stroke-linecap:butt;stroke-linejoin:miter;stroke-miterlimit:11.4737;stroke-dasharray:none;stroke-opacity:1"
         id="path22" /><path
         d="m 1800.9,649.398 c -42.5,1.5 -75.6,35.301 -75.6,77.102 0,41.699 32.4,76.301 75.6,77"
         style="fill:none;stroke:#231f20;stroke-width:14.4;stroke-linecap:butt;stroke-linejoin:miter;stroke-miterlimit:11.4737;stroke-dasharray:none;stroke-opacity:1"
         id="path24" /><path
         d="m 1800.9,802.801 c -42.5,0.699 -75.6,34.597 -75.6,76.301 0,41.796 32.4,75.597 75.6,77.097"
         style="fill:none;stroke:#231f20;stroke-width:14.4;stroke-linecap:butt;stroke-linejoin:miter;stroke-miterlimit:11.4737;stroke-dasharray:none;stroke-opacity:1"
         id="path26" /><path
         d="m 1800.9,956.199 c -42.5,0.699 -75.6,35.203 -75.6,76.301 0,42.5 32.4,75.6 75.6,77"
         style="fill:none;stroke:#231f20;stroke-width:14.4;stroke-linecap:butt;stroke-linejoin:miter;stroke-miterlimit:11.4737;stroke-dasharray:none;stroke-opacity:1"
         id="path28" /><path
         d="M 1624.5,1108.1 V 496.102"
         style="fill:none;stroke:#231f20;stroke-width:8.6;stroke-linecap:butt;stroke-linejoin:miter;stroke-miterlimit:11.4737;stroke-dasharray:none;stroke-opacity:1"
         id="path30" /><path
         d="M 1674.9,1108.1 V 496.102"
         style="fill:none;stroke:#231f20;stroke-width:8.6;stroke-linecap:butt;stroke-linejoin:miter;stroke-miterlimit:11.4737;stroke-dasharray:none;stroke-opacity:1"
         id="path32" /><path
         d="m 1497,1108.1 v 77 h -254.8"
         style="fill:none;stroke:#231f20;stroke-width:11.5;stroke-linecap:round;stroke-linejoin:miter;stroke-miterlimit:11.4737;stroke-dasharray:none;stroke-opacity:1"
         id="path34" /><path
         d="M 1497,496.102 V 419.801 H 1242.2"
         style="fill:none;stroke:#231f20;stroke-width:11.5;stroke-linecap:round;stroke-linejoin:miter;stroke-miterlimit:11.4737;stroke-dasharray:none;stroke-opacity:1"
         id="path36" /><path
         d="m 1803,1108.1 v 77 h 254.9"
         style="fill:none;stroke:#231f20;stroke-width:11.5;stroke-linecap:round;stroke-linejoin:miter;stroke-miterlimit:11.4737;stroke-dasharray:none;stroke-opacity:1"
         id="path38" /><path
         d="m 1803,496.102 v -76.301 h 254.9"
         style="fill:none;stroke:#231f20;stroke-width:11.5;stroke-linecap:round;stroke-linejoin:miter;stroke-miterlimit:11.4737;stroke-dasharray:none;stroke-opacity:1"
         id="path40" /><path
         d="m 682,805 c 41.801,-1.5 75.602,-35.301 75.602,-77.102 0,-41.699 -32.403,-75.597 -75.602,-77"
         style="fill:none;stroke:#231f20;stroke-width:14.4;stroke-linecap:butt;stroke-linejoin:miter;stroke-miterlimit:11.4737;stroke-dasharray:none;stroke-opacity:1"
         id="path42" /><path
         d="m 682,651.602 c 41.801,-1.403 75.602,-35.301 75.602,-77 C 757.602,532.801 725.199,499 682,497.5"
         style="fill:none;stroke:#231f20;stroke-width:14.4;stroke-linecap:butt;stroke-linejoin:miter;stroke-miterlimit:11.4737;stroke-dasharray:none;stroke-opacity:1"
         id="path44" /><path
         d="m 985.801,496.801 c -41.699,0.699 -75.602,34.597 -75.602,76.301 0,41.796 33.199,76.296 75.602,77.097"
         style="fill:none;stroke:#231f20;stroke-width:14.4;stroke-linecap:butt;stroke-linejoin:miter;stroke-miterlimit:11.4737;stroke-dasharray:none;stroke-opacity:1"
         id="path46" /><path
         d="m 985.102,650.199 c -41.704,0.699 -75.602,35.199 -75.602,77 0,41.801 33.102,75.602 75.602,76.301"
         style="fill:none;stroke:#231f20;stroke-width:14.4;stroke-linecap:butt;stroke-linejoin:miter;stroke-miterlimit:11.4737;stroke-dasharray:none;stroke-opacity:1"
         id="path48" /><path
         d="m 985.102,802.801 c -41.704,0.699 -75.602,35.301 -75.602,77 0,41.801 33.102,75.597 75.602,76.398"
         style="fill:none;stroke:#231f20;stroke-width:14.4;stroke-linecap:butt;stroke-linejoin:miter;stroke-miterlimit:11.4737;stroke-dasharray:none;stroke-opacity:1"
         id="path50" /><path
         d="m 985.102,956.199 c -41.704,1.403 -75.602,35.203 -75.602,77.001 0,41.8 33.102,75.6 75.602,77"
         style="fill:none;stroke:#231f20;stroke-width:14.4;stroke-linecap:butt;stroke-linejoin:miter;stroke-miterlimit:11.4737;stroke-dasharray:none;stroke-opacity:1"
         id="path52" /><path
         d="M 808,1108.8 V 496.801"
         style="fill:none;stroke:#231f20;stroke-width:8.6;stroke-linecap:butt;stroke-linejoin:miter;stroke-miterlimit:11.4737;stroke-dasharray:none;stroke-opacity:1"
         id="path54" /><path
         d="M 859.102,1108.8 V 496.801"
         style="fill:none;stroke:#231f20;stroke-width:8.6;stroke-linecap:butt;stroke-linejoin:miter;stroke-miterlimit:11.4737;stroke-dasharray:none;stroke-opacity:1"
         id="path56" /><path
         d="m 686.301,802.801 v 70.597 H 436.5"
         style="fill:none;stroke:#231f20;stroke-width:11.5;stroke-linecap:round;stroke-linejoin:miter;stroke-miterlimit:11.4737;stroke-dasharray:none;stroke-opacity:1"
         id="path58" /><path
         d="M 680.602,496.801 V 420.5 H 436.5"
         style="fill:none;stroke:#231f20;stroke-width:11.5;stroke-linecap:round;stroke-linejoin:miter;stroke-miterlimit:11.4737;stroke-dasharray:none;stroke-opacity:1"
         id="path60" /><path
         d="m 987.301,1108.8 v 76.3 H 1242.2"
         style="fill:none;stroke:#231f20;stroke-width:11.5;stroke-linecap:round;stroke-linejoin:miter;stroke-miterlimit:11.4737;stroke-dasharray:none;stroke-opacity:1"
         id="path62" /><path
         d="M 987.301,496.801 V 420.5 H 1242.2"
         style="fill:none;stroke:#231f20;stroke-width:11.5;stroke-linecap:round;stroke-linejoin:miter;stroke-miterlimit:11.4737;stroke-dasharray:none;stroke-opacity:1"
         id="path64" /><path
         d="m 2314.2,1111 c 41.8,-0.8 75.6,-34.6 75.6,-76.4 0,-41.702 -33.1,-76.299 -75.6,-76.998"
         style="fill:none;stroke:#231f20;stroke-width:14.4;stroke-linecap:butt;stroke-linejoin:miter;stroke-miterlimit:11.4737;stroke-dasharray:none;stroke-opacity:1"
         id="path66" /><path
         d="m 2315,957.602 c 41.7,-0.704 75.6,-35.301 75.6,-77 0,-41.801 -33.2,-75.602 -75.6,-76.403"
         style="fill:none;stroke:#231f20;stroke-width:14.4;stroke-linecap:butt;stroke-linejoin:miter;stroke-miterlimit:11.4737;stroke-dasharray:none;stroke-opacity:1"
         id="path68" /><path
         d="m 2315,805 c 41.7,-0.801 75.6,-35.301 75.6,-77.102 0,-41.699 -33.2,-75.597 -75.6,-76.296"
         style="fill:none;stroke:#231f20;stroke-width:14.4;stroke-linecap:butt;stroke-linejoin:miter;stroke-miterlimit:11.4737;stroke-dasharray:none;stroke-opacity:1"
         id="path70" /><path
         d="m 2315,651.602 c 41.7,-1.403 75.6,-35.301 75.6,-77 0,-41.801 -33.2,-75.602 -75.6,-77.102"
         style="fill:none;stroke:#231f20;stroke-width:14.4;stroke-linecap:butt;stroke-linejoin:miter;stroke-miterlimit:11.4737;stroke-dasharray:none;stroke-opacity:1"
         id="path72" /><path
         d="m 2618.1,496.801 c -41.8,0.699 -76.3,34.597 -76.3,76.301 0,41.796 33.1,75.597 76.3,77.097"
         style="fill:none;stroke:#231f20;stroke-width:14.4;stroke-linecap:butt;stroke-linejoin:miter;stroke-miterlimit:11.4737;stroke-dasharray:none;stroke-opacity:1"
         id="path74" /><path
         d="m 2617.4,650.199 c -41.8,0.699 -76.4,34.5 -76.4,76.301 0,41.699 33.2,75.602 76.4,77"
         style="fill:none;stroke:#231f20;stroke-width:14.4;stroke-linecap:butt;stroke-linejoin:miter;stroke-miterlimit:11.4737;stroke-dasharray:none;stroke-opacity:1"
         id="path76" /><path
         d="M 2441,1108.8 V 496.801"
         style="fill:none;stroke:#231f20;stroke-width:8.6;stroke-linecap:butt;stroke-linejoin:miter;stroke-miterlimit:11.4737;stroke-dasharray:none;stroke-opacity:1"
         id="path78" /><path
         d="M 2492.1,1108.8 V 496.801"
         style="fill:none;stroke:#231f20;stroke-width:8.6;stroke-linecap:butt;stroke-linejoin:miter;stroke-miterlimit:11.4737;stroke-dasharray:none;stroke-opacity:1"
         id="path80" /><path
         d="m 2313.5,1108.8 v 76.3 h -254.1"
         style="fill:none;stroke:#231f20;stroke-width:11.5;stroke-linecap:round;stroke-linejoin:miter;stroke-miterlimit:11.4737;stroke-dasharray:none;stroke-opacity:1"
         id="path82" /><path
         d="M 2313.5,496.801 V 420.5 h -254.1"
         style="fill:none;stroke:#231f20;stroke-width:11.5;stroke-linecap:round;stroke-linejoin:miter;stroke-miterlimit:11.4737;stroke-dasharray:none;stroke-opacity:1"
         id="path84" /><path
         d="m 2619.5,803.5 v 69.898 h 254.9"
         style="fill:none;stroke:#231f20;stroke-width:11.5;stroke-linecap:round;stroke-linejoin:miter;stroke-miterlimit:11.4737;stroke-dasharray:none;stroke-opacity:1"
         id="path86" /><path
         d="M 2619.5,496.801 V 420.5 h 254.9"
         style="fill:none;stroke:#231f20;stroke-width:11.5;stroke-linecap:round;stroke-linejoin:miter;stroke-miterlimit:11.4737;stroke-dasharray:none;stroke-opacity:1"
         id="path88" /><path
         d="m 630.898,851 c 14.403,0 27.301,-11.5 27.301,-27.301 0,-15.898 -12.898,-28.801 -27.301,-28.801 -14.398,0 -26.699,12.903 -26.699,28.801 0,15.801 12.301,27.301 26.699,27.301"
         style="fill:#231f20;fill-opacity:1;fill-rule:evenodd;stroke:none"
         id="path90" /><path
         d="m 630.898,851 c 14.403,0 27.301,-11.5 27.301,-27.301 0,-15.898 -12.898,-28.801 -27.301,-28.801 -14.398,0 -26.699,12.903 -26.699,28.801 0,15.801 12.301,27.301 26.699,27.301 z"
         style="fill:none;stroke:#231f20;stroke-width:8.6;stroke-linecap:butt;stroke-linejoin:miter;stroke-miterlimit:11.4737;stroke-dasharray:none;stroke-opacity:1"
         id="path92" /><path
         d="m 1427.2,532.801 c 14.4,0 27.4,-11.5 27.4,-27.403 0,-15.796 -13,-28.796 -27.4,-28.796 -14.4,0 -26.6,13 -26.6,28.796 0,15.903 12.2,27.403 26.6,27.403"
         style="fill:#231f20;fill-opacity:1;fill-rule:evenodd;stroke:none"
         id="path94" /><path
         d="m 1427.2,532.801 c 14.4,0 27.4,-11.5 27.4,-27.403 0,-15.796 -13,-28.796 -27.4,-28.796 -14.4,0 -26.6,13 -26.6,28.796 0,15.903 12.2,27.403 26.6,27.403 z"
         style="fill:none;stroke:#231f20;stroke-width:8.6;stroke-linecap:butt;stroke-linejoin:miter;stroke-miterlimit:11.4737;stroke-dasharray:none;stroke-opacity:1"
         id="path96" /><path
         d="m 1060.7,1156.3 c 14.4,0 27.4,-11.5 27.4,-27.3 0,-15.9 -13,-28.8 -27.4,-28.8 -14.4,0 -26.6,12.9 -26.6,28.8 0,15.8 12.2,27.3 26.6,27.3"
         style="fill:#231f20;fill-opacity:1;fill-rule:evenodd;stroke:none"
         id="path98" /><path
         d="m 1060.7,1156.3 c 14.4,0 27.4,-11.5 27.4,-27.3 0,-15.9 -13,-28.8 -27.4,-28.8 -14.4,0 -26.6,12.9 -26.6,28.8 0,15.8 12.2,27.3 26.6,27.3 z"
         style="fill:none;stroke:#231f20;stroke-width:8.6;stroke-linecap:butt;stroke-linejoin:miter;stroke-miterlimit:11.4737;stroke-dasharray:none;stroke-opacity:1"
         id="path100" /><path
         d="m 1883,532.801 c 14.4,0 27.3,-11.5 27.3,-27.403 0,-15.796 -12.9,-28.796 -27.3,-28.796 -14.4,0 -26.7,13 -26.7,28.796 0,15.903 12.3,27.403 26.7,27.403"
         style="fill:#231f20;fill-opacity:1;fill-rule:evenodd;stroke:none"
         id="path102" /><path
         d="m 1883,532.801 c 14.4,0 27.3,-11.5 27.3,-27.403 0,-15.796 -12.9,-28.796 -27.3,-28.796 -14.4,0 -26.7,13 -26.7,28.796 0,15.903 12.3,27.403 26.7,27.403 z"
         style="fill:none;stroke:#231f20;stroke-width:8.6;stroke-linecap:butt;stroke-linejoin:miter;stroke-miterlimit:11.4737;stroke-dasharray:none;stroke-opacity:1"
         id="path104" /><path
         d="m 2675.7,845.301 c 14.4,0 27.3,-11.5 27.3,-27.403 0,-15.796 -12.9,-28.796 -27.3,-28.796 -14.4,0 -26.7,13 -26.7,28.796 0,15.903 12.3,27.403 26.7,27.403"
         style="fill:#231f20;fill-opacity:1;fill-rule:evenodd;stroke:none"
         id="path106" /><path
         d="m 2675.7,845.301 c 14.4,0 27.3,-11.5 27.3,-27.403 0,-15.796 -12.9,-28.796 -27.3,-28.796 -14.4,0 -26.7,13 -26.7,28.796 0,15.903 12.3,27.403 26.7,27.403 z"
         style="fill:none;stroke:#231f20;stroke-width:8.6;stroke-linecap:butt;stroke-linejoin:miter;stroke-miterlimit:11.4737;stroke-dasharray:none;stroke-opacity:1"
         id="path108" /><path
         d="m 2248.7,532.801 c 14.4,0 27.4,-11.5 27.4,-27.403 0,-15.796 -13,-28.796 -27.4,-28.796 -14.4,0 -26.6,13 -26.6,28.796 0,15.903 12.2,27.403 26.6,27.403"
         style="fill:#231f20;fill-opacity:1;fill-rule:evenodd;stroke:none"
         id="path110" /><path
         d="m 2248.7,532.801 c 14.4,0 27.4,-11.5 27.4,-27.403 0,-15.796 -13,-28.796 -27.4,-28.796 -14.4,0 -26.6,13 -26.6,28.796 0,15.903 12.2,27.403 26.6,27.403 z"
         style="fill:none;stroke:#231f20;stroke-width:8.6;stroke-linecap:butt;stroke-linejoin:miter;stroke-miterlimit:11.4737;stroke-dasharray:none;stroke-opacity:1"
         id="path112" /><path
         d="m 408.398,447.801 c 15.102,0 28.102,-12.199 28.102,-28 0,-15.903 -13,-28.102 -28.102,-28.102 -15.097,0 -28.097,12.199 -28.097,28.102 0,15.801 13,28 28.097,28 z"
         style="fill:none;stroke:#231f20;stroke-width:8.6;stroke-linecap:butt;stroke-linejoin:miter;stroke-miterlimit:11.4737;stroke-dasharray:none;stroke-opacity:1"
         id="path114" /><path
         d="m 407.699,901.402 c 15.102,0 28.102,-12.203 28.102,-28.004 0,-15.898 -13,-28.097 -28.102,-28.097 -15.097,0 -28.097,12.199 -28.097,28.097 0,15.801 13,28.004 28.097,28.004 z"
         style="fill:none;stroke:#231f20;stroke-width:8.6;stroke-linecap:butt;stroke-linejoin:miter;stroke-miterlimit:11.4737;stroke-dasharray:none;stroke-opacity:1"
         id="path116" /><path
         d="m 2903.2,901.402 c 15.1,0 28.1,-12.203 28.1,-28.004 0,-15.898 -13,-28.097 -28.1,-28.097 -15.1,0 -28.1,12.199 -28.1,28.097 0,15.801 13,28.004 28.1,28.004 z"
         style="fill:none;stroke:#231f20;stroke-width:8.6;stroke-linecap:butt;stroke-linejoin:miter;stroke-miterlimit:11.4737;stroke-dasharray:none;stroke-opacity:1"
         id="path118" /><path
         d="m 2903.2,447.801 c 15.1,0 28.1,-12.199 28.1,-28 0,-15.903 -13,-28.102 -28.1,-28.102 -15.1,0 -28.1,12.199 -28.1,28.102 0,15.801 13,28 28.1,28 z"
         style="fill:none;stroke:#231f20;stroke-width:8.6;stroke-linecap:butt;stroke-linejoin:miter;stroke-miterlimit:11.4737;stroke-dasharray:none;stroke-opacity:1"
         id="path120" /><path
         d="m 604.555,1050.32 v 25.91 h -15.117 c -2.161,0 -4.321,-0.72 -5.04,-0.72 -1.441,0 -2.16,-0.72 -3.601,-2.16 -0.719,0 -0.719,-0.72 -1.438,-1.44 -0.718,-0.72 -1.441,-2.16 -2.16,-2.88 l -4.32,-7.92 -1.438,0.72 2.879,18.72 c 0.719,0 1.438,0 1.438,0 0.722,0 1.441,-0.72 2.16,-0.72 0.723,0 2.16,0 3.602,0 0.718,0 2.878,-0.72 4.316,-0.72 h 45.355 c 1.442,0 2.161,0 3.602,0 1.437,0 2.879,0.72 4.316,0.72 l 1.442,0.72 c 1.437,0 2.16,0.72 2.16,1.44 l 4.32,-20.16 -1.441,-0.72 -7.199,10.8 v 0.72 h -0.719 c -0.723,1.44 -2.16,2.16 -2.879,2.88 -1.441,0 -3.602,0.72 -5.043,0.72 h -15.117 v -28.8 -28.79 c 0,-2.88 0.722,-5.04 2.16,-5.76 1.441,-0.72 4.32,-0.72 7.918,-0.72 V 1010 h -30.234 v 2.16 c 5.039,0 7.918,0.72 8.64,1.44 0.719,1.44 1.438,2.88 1.438,5.04 v 0.72 0.72 30.24"
         style="fill:#231f20;fill-opacity:1;fill-rule:evenodd;stroke:none"
         id="path122" /><path
         d="m 662.867,1017.92 v 25.92 c 0,0 0,0 0,0.71 0,0 -0.719,0.72 -0.719,1.45 0,0.71 -0.722,0.71 -1.441,1.43 -0.719,0.73 -1.437,0.73 -2.16,0.73 v 1.43 c 1.441,0 2.879,0.73 4.32,1.45 1.442,0.71 2.879,1.43 4.321,2.16 0.718,0 1.437,0 2.16,0.71 l 1.437,0.72 v -7.2 l 0.723,0.73 0.719,0.72 c 1.437,2.16 2.878,4.32 5.039,5.03 1.437,0.72 2.879,1.45 4.32,1.45 1.437,0 2.879,-0.73 3.598,-1.45 0.718,-0.71 1.441,-2.16 1.441,-2.87 v 0 -0.72 c 0,-1.44 0,-2.16 -0.723,-2.89 -0.718,-0.72 -1.437,-0.72 -1.437,-0.72 h -0.719 -0.723 c -0.718,0 -0.718,0 -1.437,0 -0.723,0 -1.441,0.72 -1.441,0.72 -0.719,0 -1.442,0.73 -2.161,0.73 0,0 -0.718,0 -1.437,0 0,0 -0.723,0 -1.442,0 l -0.718,-0.73 c -0.723,-0.72 -1.442,-1.43 -2.16,-2.16 -0.719,-0.72 -1.442,-2.15 -1.442,-3.59 v -23.04 c 0,-2.16 0.723,-4.32 1.442,-5.04 0.718,-0.72 2.878,-1.44 5.757,-1.44 V 1010 h -20.156 v 2.16 c 1.442,0 2.879,0 4.32,0.72 0.719,0.72 0.719,2.16 0.719,5.04"
         style="fill:#231f20;fill-opacity:1;fill-rule:evenodd;stroke:none"
         id="path124" /><path
         d="m 716.141,1058.95 c 0,2.16 0,4.32 -0.723,4.32 -0.719,0.72 -1.438,1.44 -2.156,1.44 -0.723,0 -0.723,0 -0.723,0 -0.719,0 -1.437,0 -1.437,0 l -5.039,0.72 v 2.88 c 0.718,0 2.16,0 3.597,0.72 1.442,0.72 3.602,1.44 5.039,2.16 1.442,0.72 2.879,1.44 4.321,2.88 0.718,0.72 2.16,2.16 3.597,3.6 h 2.16 v -51.83 0 -3.6 c 0,-5.04 0.723,-8.64 0.723,-8.64 1.438,-0.72 3.598,-1.44 6.477,-1.44 h 0.722 0.719 V 1010 h -26.637 v 2.16 c 0.719,0 1.442,0 1.442,0 0.718,0 1.437,0 2.156,0 2.883,0 4.32,0.72 5.039,1.44 0.723,1.44 0.723,4.32 0.723,8.64 v 36.71"
         style="fill:#231f20;fill-opacity:1;fill-rule:evenodd;stroke:none"
         id="path126" /><path
         d="m 1604.55,1190.32 v 25.91 h -15.11 c -2.16,0 -4.32,-0.72 -5.04,-0.72 -1.44,0 -2.16,-0.72 -3.6,-2.16 -0.72,0 -0.72,-0.72 -1.44,-1.44 -0.72,-0.72 -1.44,-2.16 -2.16,-2.88 l -4.32,-7.92 -1.44,0.72 2.88,18.72 c 0.72,0 1.44,0 1.44,0 0.72,0 1.44,-0.72 2.16,-0.72 0.72,0 2.16,0 3.6,0 0.72,0 2.88,-0.72 4.32,-0.72 h 45.35 c 1.44,0 2.16,0 3.6,0 1.44,0 2.88,0.72 4.32,0.72 l 1.44,0.72 c 1.44,0 2.16,0.72 2.16,1.44 l 4.32,-20.16 -1.44,-0.72 -7.2,10.8 v 0.72 h -0.72 c -0.72,1.44 -2.16,2.16 -2.88,2.88 -1.44,0 -3.6,0.72 -5.04,0.72 h -15.12 v -28.8 -28.79 c 0,-2.88 0.73,-5.04 2.16,-5.76 1.44,-0.72 4.32,-0.72 7.92,-0.72 V 1150 h -30.23 v 2.16 c 5.04,0 7.91,0.72 8.64,1.44 0.72,1.44 1.43,2.88 1.43,5.04 v 0.72 0.72 30.24"
         style="fill:#231f20;fill-opacity:1;fill-rule:evenodd;stroke:none"
         id="path128" /><path
         d="m 1662.87,1157.92 v 25.92 c 0,0 0,0 0,0.71 0,0 -0.72,0.72 -0.72,1.45 0,0.71 -0.72,0.71 -1.44,1.43 -0.72,0.73 -1.44,0.73 -2.16,0.73 v 1.43 c 1.44,0 2.88,0.73 4.32,1.45 1.44,0.71 2.88,1.43 4.32,2.16 0.72,0 1.44,0 2.16,0.71 l 1.44,0.72 v -7.2 l 0.72,0.73 0.72,0.72 c 1.43,2.16 2.88,4.32 5.04,5.03 1.43,0.72 2.87,1.45 4.32,1.45 1.43,0 2.87,-0.73 3.59,-1.45 0.72,-0.71 1.45,-2.16 1.45,-2.87 v 0 -0.72 c 0,-1.44 0,-2.16 -0.73,-2.89 -0.72,-0.72 -1.44,-0.72 -1.44,-0.72 h -0.71 -0.73 c -0.72,0 -0.72,0 -1.43,0 -0.73,0 -1.45,0.72 -1.45,0.72 -0.71,0 -1.44,0.73 -2.16,0.73 0,0 -0.71,0 -1.43,0 0,0 -0.73,0 -1.44,0 l -0.72,-0.73 c -0.73,-0.72 -1.44,-1.43 -2.16,-2.16 -0.72,-0.72 -1.44,-2.15 -1.44,-3.59 v -23.04 c 0,-2.16 0.72,-4.32 1.44,-5.04 0.72,-0.72 2.88,-1.44 5.75,-1.44 V 1150 h -20.15 v 2.16 c 1.44,0 2.88,0 4.32,0.72 0.72,0.72 0.72,2.16 0.72,5.04"
         style="fill:#231f20;fill-opacity:1;fill-rule:evenodd;stroke:none"
         id="path130" /><path
         d="m 1700.3,1196.79 c 0.72,1.44 1.44,2.16 2.16,4.32 0.72,1.44 2.16,3.6 3.6,5.04 2.16,2.88 5.04,5.04 7.2,7.2 2.88,2.16 6.48,4.32 10.08,4.32 4.32,0 7.92,-1.44 11.52,-3.6 2.88,-2.16 5.03,-5.76 5.03,-10.08 0,-2.88 -0.71,-5.76 -2.15,-8.63 -1.44,-2.16 -3.6,-5.04 -5.76,-7.2 -2.16,-2.16 -5.04,-4.32 -6.48,-6.48 -2.16,-2.16 -3.6,-3.61 -5.76,-5.04 0,-1.44 -1.44,-2.16 -2.16,-2.88 -0.72,-0.72 -1.44,-2.16 -2.16,-2.88 l -0.72,-0.72 h -0.72 c -2.16,-2.16 -3.6,-5.04 -5.76,-6.48 -1.44,-2.16 -2.88,-4.32 -2.88,-6.48 h 21.6 c 2.88,0 5.04,0.72 7.2,1.44 1.44,1.44 2.88,3.6 4.32,5.76 h 2.16 l -7.2,-18.72 h -1.44 c 0,1.44 -0.72,2.88 -0.72,3.6 -0.72,0.72 -2.88,0.72 -5.04,0.72 h -25.92 c 0,2.88 0.72,6.48 2.16,9.36 1.44,2.88 3.6,5.76 5.04,7.92 0.72,0.72 2.16,2.16 2.88,3.6 0.72,0.72 2.16,2.16 2.88,2.88 0,1.44 1.44,2.88 2.88,4.31 1.44,1.45 2.88,3.61 4.32,5.77 0.72,0 1.44,0.71 1.44,0.71 0,0.72 0.72,1.45 0.72,1.45 1.44,2.16 2.16,3.59 3.6,5.04 0.72,1.43 2.16,2.87 2.88,4.32 0,0.71 0,0.71 0,1.43 0,0.72 0.72,1.44 0.72,1.44 0,0.72 0,1.44 0,2.16 l 0.72,0.72 c 0,2.16 -0.72,5.04 -2.16,6.48 -1.44,2.16 -3.6,2.88 -6.48,3.6 h -0.72 -0.72 v 0 h -0.72 c -2.88,0 -5.76,-0.72 -7.92,-2.88 -2.16,-2.16 -4.32,-4.32 -5.76,-7.2 -0.72,-0.72 -1.44,-1.44 -2.16,-2.16 0,-0.72 -0.72,-1.44 -1.44,-2.16 h -2.16"
         style="fill:#231f20;fill-opacity:1;fill-rule:evenodd;stroke:none"
         id="path132" /><path
         d="m 2564.55,1050.32 v 25.91 h -15.11 c -2.16,0 -4.32,-0.72 -5.04,-0.72 -1.44,0 -2.16,-0.72 -3.6,-2.16 -0.72,0 -0.72,-0.72 -1.44,-1.44 -0.72,-0.72 -1.44,-2.16 -2.16,-2.88 l -4.32,-7.92 -1.44,0.72 2.88,18.72 c 0.72,0 1.44,0 1.44,0 0.72,0 1.44,-0.72 2.16,-0.72 0.72,0 2.16,0 3.6,0 0.72,0 2.88,-0.72 4.32,-0.72 h 45.35 c 1.44,0 2.16,0 3.6,0 1.44,0 2.88,0.72 4.32,0.72 l 1.44,0.72 c 1.44,0 2.16,0.72 2.16,1.44 l 4.32,-20.16 -1.44,-0.72 -7.2,10.8 v 0.72 h -0.72 c -0.72,1.44 -2.16,2.16 -2.88,2.88 -1.44,0 -3.6,0.72 -5.04,0.72 h -15.12 v -28.8 -28.79 c 0,-2.88 0.73,-5.04 2.16,-5.76 1.44,-0.72 4.32,-0.72 7.92,-0.72 V 1010 h -30.23 v 2.16 c 5.04,0 7.91,0.72 8.64,1.44 0.72,1.44 1.43,2.88 1.43,5.04 v 0.72 0.72 30.24"
         style="fill:#231f20;fill-opacity:1;fill-rule:evenodd;stroke:none"
         id="path134" /><path
         d="m 2622.87,1017.92 v 25.92 c 0,0 0,0 0,0.71 0,0 -0.72,0.72 -0.72,1.45 0,0.71 -0.72,0.71 -1.44,1.43 -0.72,0.73 -1.44,0.73 -2.16,0.73 v 1.43 c 1.44,0 2.88,0.73 4.32,1.45 1.44,0.71 2.88,1.43 4.32,2.16 0.72,0 1.44,0 2.16,0.71 l 1.44,0.72 v -7.2 l 0.72,0.73 0.72,0.72 c 1.43,2.16 2.88,4.32 5.04,5.03 1.43,0.72 2.87,1.45 4.32,1.45 1.43,0 2.87,-0.73 3.59,-1.45 0.72,-0.71 1.45,-2.16 1.45,-2.87 v 0 -0.72 c 0,-1.44 0,-2.16 -0.73,-2.89 -0.72,-0.72 -1.44,-0.72 -1.44,-0.72 h -0.71 -0.73 c -0.72,0 -0.72,0 -1.43,0 -0.73,0 -1.45,0.72 -1.45,0.72 -0.71,0 -1.44,0.73 -2.16,0.73 0,0 -0.71,0 -1.43,0 0,0 -0.73,0 -1.44,0 l -0.72,-0.73 c -0.73,-0.72 -1.44,-1.43 -2.16,-2.16 -0.72,-0.72 -1.44,-2.15 -1.44,-3.59 v -23.04 c 0,-2.16 0.72,-4.32 1.44,-5.04 0.72,-0.72 2.88,-1.44 5.75,-1.44 V 1010 h -20.15 v 2.16 c 1.44,0 2.88,0 4.32,0.72 0.72,0.72 0.72,2.16 0.72,5.04"
         style="fill:#231f20;fill-opacity:1;fill-rule:evenodd;stroke:none"
         id="path136" /><path
         d="m 2673.26,1041.68 c 0,0.71 1.44,2.16 1.44,2.16 0.72,0.71 2.16,2.16 2.16,2.87 2.16,2.17 5.04,4.33 6.48,7.2 2.16,2.16 2.88,5.04 2.88,7.92 0,2.88 -0.72,5.76 -2.16,6.48 -2.16,1.44 -4.32,2.16 -7.2,2.16 -2.16,0 -4.32,-0.72 -6.48,-2.16 -2.16,-1.44 -5.04,-3.6 -7.2,-5.76 l -1.44,1.44 c 2.16,2.88 4.32,5.04 7.2,7.2 2.16,2.16 5.76,4.32 8.64,5.04 0,0 1.44,0.72 2.16,0.72 0,0 1.44,0 2.16,0 2.88,0 5.76,-0.72 7.92,-2.16 2.16,-2.16 3.6,-5.04 3.6,-8.64 0,-3.6 -1.44,-7.2 -3.6,-9.36 -2.16,-2.88 -5.04,-5.75 -7.2,-7.91 4.32,0 8.64,-1.45 11.52,-5.04 3.6,-3.61 5.76,-7.2 5.76,-11.52 v -0.72 -0.72 -0.72 c 0,0 0,0 0,-0.72 v 0 -0.72 c -0.72,-4.32 -2.16,-7.92 -4.32,-10.8 -2.16,-2.88 -5.76,-5.04 -7.92,-6.48 -2.16,-0.72 -3.6,-1.44 -5.04,-1.44 -1.44,0 -2.88,-0.72 -4.32,-0.72 -0.72,0 -2.16,0 -3.6,0 -2.16,0 -3.6,0.72 -5.04,0.72 -1.44,0 -2.88,0 -4.32,0.72 -1.44,0 -2.16,0.72 -3.6,2.16 v 0 l -0.72,0.72 c -0.72,0 -1.44,1.44 -2.16,1.44 0,0.72 -0.72,2.16 -0.72,2.88 v 0.72 c 0,0 0,0 0,0.72 v 0.72 c 0,0.72 0.72,0.72 0.72,1.44 l 0.72,0.72 c 0.72,0 1.44,0 1.44,0 0,0 0.72,0 1.44,0 h 0.72 c 0.72,-0.72 1.44,-1.44 2.16,-2.16 0.72,0 1.44,-1.44 2.16,-2.88 0.72,-1.44 2.16,-3.6 3.6,-4.32 1.44,-1.44 3.6,-2.16 5.04,-2.16 0.72,0 0.72,0 1.44,0 l 0.72,0.72 c 3.6,0 7.2,2.16 9.36,5.04 2.16,3.6 3.6,7.2 3.6,11.52 v 0.72 0.72 0 0.72 c 0,2.88 -1.44,5.76 -3.6,7.2 -2.16,2.16 -5.04,2.87 -7.2,3.6 -0.72,0.72 -2.88,0.72 -3.6,0.72 -1.44,0 -2.88,0 -3.6,0"
         style="fill:#231f20;fill-opacity:1;fill-rule:evenodd;stroke:none"
         id="path138" /></g></g></svg>
