<?xml version="1.0" encoding="UTF-8" standalone="no"?>
<!-- Created with Inkscape (http://www.inkscape.org/) -->

<svg
   version="1.1"
   id="svg2"
   xml:space="preserve"
   width="266.66666"
   height="152"
   viewBox="0 0 266.66666 152"
   xmlns="http://www.w3.org/2000/svg"
   xmlns:svg="http://www.w3.org/2000/svg"><defs
     id="defs6" /><g
     id="g8"
     transform="matrix(1.3333333,0,0,-1.3333333,0,152)"><g
       id="g10"
       transform="scale(0.1)"><path
         d="M 2.80078,1138.7 H 1991.4 V 4.69922 H 2.80078 Z"
         style="fill:none;stroke:#231f20;stroke-width:11.5;stroke-linecap:butt;stroke-linejoin:miter;stroke-miterlimit:11.4737;stroke-dasharray:none;stroke-opacity:1"
         id="path12" /><path
         d="m 1159.8,174.602 c 0,90 -74.1,164.199 -164.101,164.199 -89.301,0 -163.5,-74.199 -163.5,-164.199"
         style="fill:none;stroke:#231f20;stroke-width:2.2;stroke-linecap:butt;stroke-linejoin:miter;stroke-miterlimit:11.4737;stroke-dasharray:none;stroke-opacity:1"
         id="path14" /><path
         d="m 1324.7,175.398 c 0,180 -148.3,328.301 -328.302,328.301 -180,0 -327.597,-148.301 -327.597,-328.301"
         style="fill:none;stroke:#231f20;stroke-width:2.2;stroke-linecap:butt;stroke-linejoin:miter;stroke-miterlimit:11.4737;stroke-dasharray:none;stroke-opacity:1"
         id="path16" /><path
         d="m 1488.9,175.398 c 0,270.704 -221.8,492.403 -492.502,492.403 -271.398,0 -492.5,-221.699 -492.5,-492.403"
         style="fill:none;stroke:#231f20;stroke-width:2.2;stroke-linecap:butt;stroke-linejoin:miter;stroke-miterlimit:11.4737;stroke-dasharray:none;stroke-opacity:1"
         id="path18" /><path
         d="M 996.398,175.398 H 1653 C 1653,536.801 1357.8,832 996.398,832 635,832 339.801,536.801 339.801,175.398 Z"
         style="fill:none;stroke:#231f20;stroke-width:2.2;stroke-linecap:butt;stroke-linejoin:miter;stroke-miterlimit:11.4737;stroke-dasharray:none;stroke-opacity:1"
         id="path20" /><path
         d="m 1816.5,175.398 c 0,452.102 -368.7,820.801 -820.801,820.801 -451.5,0 -820.097,-368.699 -820.097,-820.801"
         style="fill:none;stroke:#231f20;stroke-width:2.2;stroke-linecap:butt;stroke-linejoin:miter;stroke-miterlimit:11.4737;stroke-dasharray:none;stroke-opacity:1"
         id="path22" /><path
         d="M 996.398,996.199 V 339.5"
         style="fill:none;stroke:#231f20;stroke-width:2.2;stroke-linecap:butt;stroke-linejoin:miter;stroke-miterlimit:11.4737;stroke-dasharray:none;stroke-opacity:1"
         id="path24" /><path
         d="m 1160.6,176.102 h 656.6"
         style="fill:none;stroke:#231f20;stroke-width:2.2;stroke-linecap:butt;stroke-linejoin:miter;stroke-miterlimit:11.4737;stroke-dasharray:none;stroke-opacity:1"
         id="path26" /><path
         d="M 175.602,176.102 H 832.199"
         style="fill:none;stroke:#231f20;stroke-width:2.2;stroke-linecap:butt;stroke-linejoin:miter;stroke-miterlimit:11.4737;stroke-dasharray:none;stroke-opacity:1"
         id="path28" /><path
         d="M 915.801,316.5 587.398,888.199"
         style="fill:none;stroke:#231f20;stroke-width:2.2;stroke-linecap:butt;stroke-linejoin:miter;stroke-miterlimit:11.4737;stroke-dasharray:none;stroke-opacity:1"
         id="path30" /><path
         d="M 1705.6,587.898 1136.1,259.602"
         style="fill:none;stroke:#231f20;stroke-width:2.2;stroke-linecap:butt;stroke-linejoin:miter;stroke-miterlimit:11.4737;stroke-dasharray:none;stroke-opacity:1"
         id="path32" /><path
         d="M 853.801,256.699 285,585.801"
         style="fill:none;stroke:#231f20;stroke-width:2.2;stroke-linecap:butt;stroke-linejoin:miter;stroke-miterlimit:11.4737;stroke-dasharray:none;stroke-opacity:1"
         id="path34" /><path
         d="M 1406.1,887.398 1079.9,315.801"
         style="fill:none;stroke:#231f20;stroke-width:2.2;stroke-linecap:butt;stroke-linejoin:miter;stroke-miterlimit:11.4737;stroke-dasharray:none;stroke-opacity:1"
         id="path36" /><path
         d="M 796.199,175.398 H 1173.5 c 173.5,7.204 372.3,51.102 486,177.102 49,54 74.9,133.898 56.9,208.801 -11.5,58.301 -61.2,97.898 -102.2,123.801 -120.3,61.199 -263.6,41.097 -379.5,-7.903 -88.5,-46.097 -166.3,-99.398 -231.8,-176.398 -12.298,-13 -26.701,-33.102 -33.9,-43.903 -7.199,-12.296 -7.898,-13 -18.699,-30.296 -10.801,-18 -33.102,-64 -32.403,-102.903 -0.699,-0.699 -0.699,-7.898 -0.699,-7.898 L 918.602,269 c -7.903,10.801 -14.403,21.602 -25.204,36 -39.597,44.602 -84.898,85.602 -139.597,109.398 -44,24.5 -95.102,31.704 -146.199,29.5 -39.602,-7.898 -74.204,-27.296 -90,-60.5 0,-9.296 -0.704,-15.796 -7.204,-23.699 2.204,-47.5 30.204,-82.801 61.204,-114.5 51.796,-36.699 154.097,-59 224.597,-69.801 z"
         style="fill:none;stroke:#231f20;stroke-width:17.3;stroke-linecap:square;stroke-linejoin:miter;stroke-miterlimit:11.4737;stroke-dasharray:none;stroke-opacity:1"
         id="path38" /></g></g></svg>
