<?xml version="1.0" encoding="UTF-8" standalone="no"?>
<!-- Created with Inkscape (http://www.inkscape.org/) -->

<svg
   version="1.1"
   id="svg2"
   xml:space="preserve"
   width="212"
   height="174.66667"
   viewBox="0 0 212 174.66667"
   xmlns="http://www.w3.org/2000/svg"
   xmlns:svg="http://www.w3.org/2000/svg"><defs
     id="defs6" /><g
     id="g8"
     transform="matrix(1.3333333,0,0,-1.3333333,0,174.66667)"><g
       id="g10"
       transform="scale(0.1)"><path
         d="m 686.602,849 c -0.801,22.301 -18,39.602 -39.602,39.602 -21.602,0 -39.602,-18 -39.602,-39.602 -0.796,22.301 -18.796,39.602 -40.398,39.602 -21.602,0 -38.801,-18 -39.602,-39.602 0,22.301 -18,39.602 -39.597,39.602 -21.602,0 -38.801,-18 -39.602,-39.602 -0.699,21.602 -18,38.801 -39.597,38.801 C 387,887.801 369,870.602 368.301,849"
         style="fill:none;stroke:#231f20;stroke-width:14.4;stroke-linecap:butt;stroke-linejoin:miter;stroke-miterlimit:11.4737;stroke-dasharray:none;stroke-opacity:1"
         id="path12" /><path
         d="m 1202.1,849 c -0.7,22.301 -18,39.602 -39.6,39.602 -21.6,0 -39.6,-18 -39.6,-39.602 -0.7,22.301 -18.7,39.602 -40.3,39.602 -21.6,0 -38.9,-18 -39.6,-39.602 0,22.301 -18,39.602 -39.6,39.602 -21.599,0 -38.9,-18 -39.599,-39.602 -0.801,21.602 -18,38.801 -39.602,38.801 -21.597,0 -39.597,-17.199 -40.398,-38.801"
         style="fill:none;stroke:#231f20;stroke-width:14.4;stroke-linecap:butt;stroke-linejoin:miter;stroke-miterlimit:11.4737;stroke-dasharray:none;stroke-opacity:1"
         id="path14" /><path
         d="M 884.602,571.801 H 685.801"
         style="fill:none;stroke:#231f20;stroke-width:14.4;stroke-linecap:butt;stroke-linejoin:miter;stroke-miterlimit:11.4737;stroke-dasharray:none;stroke-opacity:1"
         id="path16" /><path
         d="M 884.602,612.102 H 685.801"
         style="fill:none;stroke:#231f20;stroke-width:14.4;stroke-linecap:butt;stroke-linejoin:miter;stroke-miterlimit:11.4737;stroke-dasharray:none;stroke-opacity:1"
         id="path18" /><path
         d="m 248.102,352.898 c 10.097,0 19.398,-7.898 19.398,-19.5 0,-10.796 -9.301,-20.097 -19.398,-20.097 -10.801,0 -19.5,9.301 -19.5,20.097 0,11.602 8.699,19.5 19.5,19.5"
         style="fill:#ffffff;fill-opacity:1;fill-rule:evenodd;stroke:none"
         id="path20" /><path
         d="m 248.102,352.898 c 10.097,0 19.398,-7.898 19.398,-19.5 0,-10.796 -9.301,-20.097 -19.398,-20.097 -10.801,0 -19.5,9.301 -19.5,20.097 0,11.602 8.699,19.5 19.5,19.5 z"
         style="fill:none;stroke:#231f20;stroke-width:11.5;stroke-linecap:butt;stroke-linejoin:miter;stroke-miterlimit:11.4737;stroke-dasharray:none;stroke-opacity:1"
         id="path22" /><path
         d="m 248.102,868.398 c 10.097,0 19.398,-7.898 19.398,-19.398 0,-10.801 -9.301,-20.199 -19.398,-20.199 -10.801,0 -19.5,9.398 -19.5,20.199 0,11.5 8.699,19.398 19.5,19.398"
         style="fill:#ffffff;fill-opacity:1;fill-rule:evenodd;stroke:none"
         id="path24" /><path
         d="m 248.102,868.398 c 10.097,0 19.398,-7.898 19.398,-19.398 0,-10.801 -9.301,-20.199 -19.398,-20.199 -10.801,0 -19.5,9.398 -19.5,20.199 0,11.5 8.699,19.398 19.5,19.398 z"
         style="fill:none;stroke:#231f20;stroke-width:11.5;stroke-linecap:butt;stroke-linejoin:miter;stroke-miterlimit:11.4737;stroke-dasharray:none;stroke-opacity:1"
         id="path26" /><path
         d="m 512.09,957.785 v 19.649 c 0,2.519 -0.504,4.535 -1.512,6.046 -1.008,1.008 -3.019,2.012 -6.547,2.012 v 2.52 h 28.211 v -2.52 c -3.527,0 -6.043,-1.004 -7.554,-2.515 -1.512,-1.512 -3.024,-4.536 -3.024,-7.559 V 929.57 c 0,-3.523 1.512,-6.043 3.024,-6.547 1.511,-0.503 3.523,-1.007 5.539,-1.007 h 0.503 0.504 v 0 0 h 13.102 c 4.027,0 7.051,1.511 10.074,4.535 2.52,3.019 5.039,6.547 7.559,10.074 0.504,0.504 1.008,1.512 1.008,2.016 0.503,1.007 1.007,2.015 1.511,2.519 h 2.516 L 560.961,920 h -50.383 v 0 h -6.547 v 2.016 c 0.504,0 1.008,0 1.008,0 0.504,0 1.008,0 1.008,0 0.504,0 1.008,0 1.008,0 0.504,0 1.008,0 1.008,0 1.507,0 2.515,0.504 3.019,1.007 0.504,0.504 1.008,2.52 1.008,5.04 v 29.722"
         style="fill:#231f20;fill-opacity:1;fill-rule:evenodd;stroke:none"
         id="path28" /><path
         d="m 1012.09,957.785 v 19.649 c 0,2.519 -0.5,4.535 -1.51,6.046 -1.01,1.008 -3.02,2.012 -6.55,2.012 v 2.52 h 28.21 v -2.52 c -3.53,0 -6.04,-1.004 -7.55,-2.515 -1.51,-1.512 -3.03,-4.536 -3.03,-7.559 V 929.57 c 0,-3.523 1.52,-6.043 3.03,-6.547 1.51,-0.503 3.52,-1.007 5.54,-1.007 h 0.5 0.5 v 0 0 h 13.11 c 4.02,0 7.05,1.511 10.07,4.535 2.52,3.019 5.04,6.547 7.56,10.074 0.5,0.504 1.01,1.512 1.01,2.016 0.5,1.007 1,2.015 1.51,2.519 H 1067 L 1060.96,920 h -50.38 v 0 h -6.55 v 2.016 c 0.51,0 1.01,0 1.01,0 0.5,0 1.01,0 1.01,0 0.5,0 1,0 1,0 0.51,0 1.01,0 1.01,0 1.51,0 2.52,0.504 3.02,1.007 0.51,0.504 1.01,2.52 1.01,5.04 v 29.722"
         style="fill:#231f20;fill-opacity:1;fill-rule:evenodd;stroke:none"
         id="path30" /><path
         d="m 881.465,691.816 c 0,6.547 -2.016,12.09 -4.535,15.114 -2.52,3.527 -6.047,6.047 -9.071,7.054 -1.507,0.504 -4.027,1.508 -5.539,1.508 -2.015,0.504 -3.527,0.504 -4.535,0.504 -7.558,-0.504 -13.601,-4.027 -17.633,-10.578 -3.527,-6.551 -6.047,-14.105 -6.047,-21.664 v -0.504 c 0,-0.504 0,-1.008 0,-1.008 0,-8.058 2.52,-15.617 6.047,-21.664 4.536,-6.547 10.578,-10.074 19.145,-10.074 6.047,0 11.082,2.016 15.617,6.047 4.031,4.531 7.055,10.074 7.559,17.129 h 2.015 v -23.176 h -2.015 l -2.52,5.039 c -1.512,-1.008 -3.023,-2.016 -5.039,-3.023 -1.512,-0.504 -4.031,-1.512 -6.047,-2.016 -1.512,-0.504 -3.523,-1.008 -5.539,-1.512 -2.015,0 -3.527,-0.504 -5.039,-0.504 -10.078,0 -18.641,3.024 -25.191,9.071 -7.051,6.043 -10.578,15.113 -10.578,25.187 0,1.008 0.503,2.52 0.503,3.527 0,1.512 0.504,3.024 0.504,4.032 1.512,7.05 5.039,13.097 10.075,18.64 5.039,5.543 12.597,9.067 21.664,9.571 3.527,0 7.054,0 10.078,-0.504 3.019,-1.008 6.547,-2.016 9.57,-4.028 0.504,-0.504 1.512,-1.007 2.016,-1.511 0.504,-0.504 1.511,-1.008 2.015,-1.512 l 2.52,4.531 h 2.519 v -23.676 h -2.519"
         style="fill:#231f20;fill-opacity:1;fill-rule:evenodd;stroke:none"
         id="path32" /><path
         d="m 785.199,857.602 c 5,0 9.403,-3.602 9.403,-9.403 0,-5 -4.403,-10 -9.403,-10 -5,0 -9.398,5 -9.398,10 0,5.801 4.398,9.403 9.398,9.403"
         style="fill:#231f20;fill-opacity:1;fill-rule:evenodd;stroke:none"
         id="path34" /><path
         d="m 785.199,857.602 c 5,0 9.403,-3.602 9.403,-9.403 0,-5 -4.403,-10 -9.403,-10 -5,0 -9.398,5 -9.398,10 0,5.801 4.398,9.403 9.398,9.403 z"
         style="fill:none;stroke:#231f20;stroke-width:5.8;stroke-linecap:butt;stroke-linejoin:miter;stroke-miterlimit:11.4737;stroke-dasharray:none;stroke-opacity:1"
         id="path36" /><path
         d="m 783,341.398 c 5.102,0 9.398,-3.597 9.398,-9.398 0,-5 -4.296,-10.102 -9.398,-10.102 -5,0 -9.301,5.102 -9.301,10.102 0,5.801 4.301,9.398 9.301,9.398"
         style="fill:#231f20;fill-opacity:1;fill-rule:evenodd;stroke:none"
         id="path38" /><path
         d="m 783,341.398 c 5.102,0 9.398,-3.597 9.398,-9.398 0,-5 -4.296,-10.102 -9.398,-10.102 -5,0 -9.301,5.102 -9.301,10.102 0,5.801 4.301,9.398 9.301,9.398 z"
         style="fill:none;stroke:#231f20;stroke-width:5.8;stroke-linecap:butt;stroke-linejoin:miter;stroke-miterlimit:11.4737;stroke-dasharray:none;stroke-opacity:1"
         id="path40" /><path
         d="m 269,849 h 98.602"
         style="fill:none;stroke:#231f20;stroke-width:8.6;stroke-linecap:butt;stroke-linejoin:miter;stroke-miterlimit:11.4737;stroke-dasharray:none;stroke-opacity:1"
         id="path42" /><path
         d="m 685.801,849 h 198"
         style="fill:none;stroke:#231f20;stroke-width:8.6;stroke-linecap:butt;stroke-linejoin:miter;stroke-miterlimit:11.4737;stroke-dasharray:none;stroke-opacity:1"
         id="path44" /><path
         d="M 784.5,849 V 611.398"
         style="fill:none;stroke:#231f20;stroke-width:8.6;stroke-linecap:butt;stroke-linejoin:miter;stroke-miterlimit:11.4737;stroke-dasharray:none;stroke-opacity:1"
         id="path46" /><path
         d="M 1201.4,849 H 1300"
         style="fill:none;stroke:#231f20;stroke-width:8.6;stroke-linecap:butt;stroke-linejoin:miter;stroke-miterlimit:11.4737;stroke-dasharray:none;stroke-opacity:1"
         id="path48" /><path
         d="M 269,332.699 H 1300"
         style="fill:none;stroke:#231f20;stroke-width:8.6;stroke-linecap:butt;stroke-linejoin:miter;stroke-miterlimit:11.4737;stroke-dasharray:none;stroke-opacity:1"
         id="path50" /><path
         d="M 784.5,571 V 332.699"
         style="fill:none;stroke:#231f20;stroke-width:8.6;stroke-linecap:butt;stroke-linejoin:miter;stroke-miterlimit:11.4737;stroke-dasharray:none;stroke-opacity:1"
         id="path52" /><path
         d="m 1320.2,352.898 c 10,0 19.4,-7.898 19.4,-19.5 0,-10.796 -9.4,-20.097 -19.4,-20.097 -10.8,0 -19.5,9.301 -19.5,20.097 0,11.602 8.7,19.5 19.5,19.5"
         style="fill:#ffffff;fill-opacity:1;fill-rule:evenodd;stroke:none"
         id="path54" /><path
         d="m 1320.2,352.898 c 10,0 19.4,-7.898 19.4,-19.5 0,-10.796 -9.4,-20.097 -19.4,-20.097 -10.8,0 -19.5,9.301 -19.5,20.097 0,11.602 8.7,19.5 19.5,19.5 z"
         style="fill:none;stroke:#231f20;stroke-width:11.5;stroke-linecap:butt;stroke-linejoin:miter;stroke-miterlimit:11.4737;stroke-dasharray:none;stroke-opacity:1"
         id="path56" /><path
         d="m 1320.2,868.398 c 10,0 19.4,-7.898 19.4,-19.398 0,-10.801 -9.4,-20.199 -19.4,-20.199 -10.8,0 -19.5,9.398 -19.5,20.199 0,11.5 8.7,19.398 19.5,19.398"
         style="fill:#ffffff;fill-opacity:1;fill-rule:evenodd;stroke:none"
         id="path58" /><path
         d="m 1320.2,868.398 c 10,0 19.4,-7.898 19.4,-19.398 0,-10.801 -9.4,-20.199 -19.4,-20.199 -10.8,0 -19.5,9.398 -19.5,20.199 0,11.5 8.7,19.398 19.5,19.398 z"
         style="fill:none;stroke:#231f20;stroke-width:11.5;stroke-linecap:butt;stroke-linejoin:miter;stroke-miterlimit:11.4737;stroke-dasharray:none;stroke-opacity:1"
         id="path60" /><path
         d="M 86.8008,1219.8 H 1504.5 V 85.8008 H 86.8008 Z"
         style="fill:none;stroke:#231f20;stroke-width:8.6;stroke-linecap:butt;stroke-linejoin:miter;stroke-miterlimit:11.4737;stroke-dasharray:none;stroke-opacity:1"
         id="path62" /></g></g></svg>
