<?xml version="1.0" encoding="UTF-8" standalone="no"?>
<!-- Created with Inkscape (http://www.inkscape.org/) -->

<svg
   version="1.1"
   id="svg2"
   xml:space="preserve"
   width="214.66667"
   height="214.66667"
   viewBox="0 0 214.66667 214.66667"
   xmlns="http://www.w3.org/2000/svg"
   xmlns:svg="http://www.w3.org/2000/svg"><defs
     id="defs6" /><g
     id="g8"
     transform="matrix(1.3333333,0,0,-1.3333333,0,214.66667)"><g
       id="g10"
       transform="scale(0.1)"><path
         d="M 96.6016,1511.5 H 1513.6 V 94.6016 H 96.6016 Z"
         style="fill:none;stroke:#231f20;stroke-width:11.5;stroke-linecap:butt;stroke-linejoin:miter;stroke-miterlimit:11.4737;stroke-dasharray:none;stroke-opacity:1"
         id="path12" /><path
         d="m 635.199,1144.3 c 46.801,-0.7 84.199,-38.9 84.199,-84.9 0,-46.8 -36.699,-84.298 -84.199,-85.701"
         style="fill:none;stroke:#231f20;stroke-width:14.4;stroke-linecap:butt;stroke-linejoin:miter;stroke-miterlimit:11.4737;stroke-dasharray:none;stroke-opacity:1"
         id="path14" /><path
         d="m 636.602,973.699 c 46.097,-0.699 84.296,-38.898 84.296,-85 0,-46.801 -36.699,-84.199 -84.296,-85.699"
         style="fill:none;stroke:#231f20;stroke-width:14.4;stroke-linecap:butt;stroke-linejoin:miter;stroke-miterlimit:11.4737;stroke-dasharray:none;stroke-opacity:1"
         id="path16" /><path
         d="m 636.602,804.5 c 46.097,-1.5 84.296,-38.898 84.296,-85.699 0,-46.102 -36.699,-84.199 -84.296,-85"
         style="fill:none;stroke:#231f20;stroke-width:14.4;stroke-linecap:butt;stroke-linejoin:miter;stroke-miterlimit:11.4737;stroke-dasharray:none;stroke-opacity:1"
         id="path18" /><path
         d="m 636.602,633.801 c 46.097,-1.403 84.296,-38.801 84.296,-85.602 0,-46.097 -36.699,-84.297 -84.296,-85"
         style="fill:none;stroke:#231f20;stroke-width:14.4;stroke-linecap:butt;stroke-linejoin:miter;stroke-miterlimit:11.4737;stroke-dasharray:none;stroke-opacity:1"
         id="path20" /><path
         d="m 974.301,462.5 c -46.102,1.402 -84.199,38.902 -84.199,85.699 0,46 36.699,84.199 84.199,84.903"
         style="fill:none;stroke:#231f20;stroke-width:14.4;stroke-linecap:butt;stroke-linejoin:miter;stroke-miterlimit:11.4737;stroke-dasharray:none;stroke-opacity:1"
         id="path22" /><path
         d="m 973.602,633.102 c -46.801,1.5 -84.204,38.898 -84.204,85.699 0,46.097 36.704,84.199 84.204,85"
         style="fill:none;stroke:#231f20;stroke-width:14.4;stroke-linecap:butt;stroke-linejoin:miter;stroke-miterlimit:11.4737;stroke-dasharray:none;stroke-opacity:1"
         id="path24" /><path
         d="m 973.602,803 c -46.801,0.801 -84.204,38.898 -84.204,85 0,46.801 36.704,84.199 84.204,85.699"
         style="fill:none;stroke:#231f20;stroke-width:14.4;stroke-linecap:butt;stroke-linejoin:miter;stroke-miterlimit:11.4737;stroke-dasharray:none;stroke-opacity:1"
         id="path26" /><path
         d="m 973.602,973.699 c -46.801,0.699 -84.204,38.901 -84.204,84.901 0,46.8 36.704,84.3 84.204,85.7"
         style="fill:none;stroke:#231f20;stroke-width:14.4;stroke-linecap:butt;stroke-linejoin:miter;stroke-miterlimit:11.4737;stroke-dasharray:none;stroke-opacity:1"
         id="path28" /><path
         d="M 777,1142.9 V 462.5"
         style="fill:none;stroke:#231f20;stroke-width:8.6;stroke-linecap:butt;stroke-linejoin:miter;stroke-miterlimit:11.4737;stroke-dasharray:none;stroke-opacity:1"
         id="path30" /><path
         d="M 833.898,1142.9 V 462.5"
         style="fill:none;stroke:#231f20;stroke-width:8.6;stroke-linecap:butt;stroke-linejoin:miter;stroke-miterlimit:11.4737;stroke-dasharray:none;stroke-opacity:1"
         id="path32" /><path
         d="m 635.199,1142.9 v 84.9 h -283"
         style="fill:none;stroke:#231f20;stroke-width:11.5;stroke-linecap:round;stroke-linejoin:miter;stroke-miterlimit:11.4737;stroke-dasharray:none;stroke-opacity:1"
         id="path34" /><path
         d="m 635.199,462.5 v -85 h -283"
         style="fill:none;stroke:#231f20;stroke-width:11.5;stroke-linecap:round;stroke-linejoin:miter;stroke-miterlimit:11.4737;stroke-dasharray:none;stroke-opacity:1"
         id="path36" /><path
         d="m 975.801,1142.9 v 84.9 H 1259.4"
         style="fill:none;stroke:#231f20;stroke-width:11.5;stroke-linecap:round;stroke-linejoin:miter;stroke-miterlimit:11.4737;stroke-dasharray:none;stroke-opacity:1"
         id="path38" /><path
         d="m 975.801,462.5 v -85 H 1259.4"
         style="fill:none;stroke:#231f20;stroke-width:11.5;stroke-linecap:round;stroke-linejoin:miter;stroke-miterlimit:11.4737;stroke-dasharray:none;stroke-opacity:1"
         id="path40" /></g></g></svg>
