<?xml version="1.0" encoding="UTF-8" standalone="no"?>
<!-- Created with Inkscape (http://www.inkscape.org/) -->

<svg
   version="1.1"
   id="svg2"
   xml:space="preserve"
   width="189.33333"
   height="174.66667"
   viewBox="0 0 189.33333 174.66667"
   xmlns="http://www.w3.org/2000/svg"
   xmlns:svg="http://www.w3.org/2000/svg"><defs
     id="defs6" /><g
     id="g8"
     transform="matrix(1.3333333,0,0,-1.3333333,0,174.66667)"><g
       id="g10"
       transform="scale(0.1)"><path
         d="m 964.398,158.602 v -54 l -222.5,0.796 m 0.704,0 -505.403,-0.796 v 458"
         style="fill:none;stroke:#231f20;stroke-width:8.6;stroke-linecap:butt;stroke-linejoin:miter;stroke-miterlimit:11.4737;stroke-dasharray:none;stroke-opacity:1"
         id="path12" /><path
         d="M 237.898,616.602 V 1073.8 h 726.5 v -53.3"
         style="fill:none;stroke:#231f20;stroke-width:8.6;stroke-linecap:butt;stroke-linejoin:miter;stroke-miterlimit:11.4737;stroke-dasharray:none;stroke-opacity:1"
         id="path14" /><path
         d="M 101.102,611.5 H 370.398"
         style="fill:none;stroke:#231f20;stroke-width:14.4;stroke-linecap:butt;stroke-linejoin:miter;stroke-miterlimit:11.4737;stroke-dasharray:none;stroke-opacity:1"
         id="path16" /><path
         d="M 181.801,557.5 H 289"
         style="fill:none;stroke:#231f20;stroke-width:20.2;stroke-linecap:butt;stroke-linejoin:miter;stroke-miterlimit:11.4737;stroke-dasharray:none;stroke-opacity:1"
         id="path18" /><path
         d="m 282.57,662.828 v -15.047 h 14.36 v -3.418 H 282.57 V 630 h -4.789 v 14.363 h -14.363 v 3.418 h 14.363 v 15.047 h 4.789"
         style="fill:#231f20;fill-opacity:1;fill-rule:evenodd;stroke:none"
         id="path20" /><path
         d="m 282.57,662.828 v -15.047 h 14.36 v -3.418 H 282.57 V 630 h -4.789 v 14.363 h -14.363 v 3.418 h 14.363 v 15.047 z"
         style="fill:none;stroke:#231f20;stroke-width:2.9;stroke-linecap:butt;stroke-linejoin:miter;stroke-miterlimit:11.4737;stroke-dasharray:none;stroke-opacity:1"
         id="path22" /><path
         d="m 262.734,519.832 h 19.153 v -5.469 h -19.153 v 5.469"
         style="fill:#231f20;fill-opacity:1;fill-rule:evenodd;stroke:none"
         id="path24" /><path
         d="m 262.734,519.832 h 19.153 v -5.469 h -19.153 z"
         style="fill:none;stroke:#231f20;stroke-width:2.9;stroke-linecap:butt;stroke-linejoin:miter;stroke-miterlimit:11.4737;stroke-dasharray:none;stroke-opacity:1"
         id="path26" /><path
         d="M 453.199,1073.8 H 633.898"
         style="fill:none;stroke:#231f20;stroke-width:5.8;stroke-linecap:butt;stroke-linejoin:miter;stroke-miterlimit:11.4737;stroke-dasharray:none;stroke-opacity:1"
         id="path28" /><path
         d="m 669.199,1073.8 -79.898,20.1 c 11.5,-13.7 11.5,-26.6 0,-40.3 l 79.898,20.2"
         style="fill:#231f20;fill-opacity:1;fill-rule:evenodd;stroke:none"
         id="path30" /><path
         d="m 277.098,1149.24 v 19.83 c 0,4.79 -0.684,7.53 -2.051,9.58 -1.367,1.37 -4.789,2.05 -9.574,2.05 v 3.42 h 34.879 v -3.42 c -4.106,0 -6.84,-0.68 -8.891,-1.37 -1.371,-1.37 -2.738,-4.78 -2.738,-10.26 v -58.81 c 0,-4.1 1.367,-6.16 2.738,-6.84 2.051,-0.69 4.785,-0.69 8.891,-0.69 V 1100 h -34.879 v 2.73 0 0 h 0.683 0.684 c 2.734,0 4.785,0 6.84,0.69 2.05,0.68 3.418,3.42 3.418,7.52 v 38.3"
         style="fill:#231f20;fill-opacity:1;fill-rule:evenodd;stroke:none"
         id="path32" /><path
         d="m 357.113,1121.89 h 54.028 v -6.84 h -54.028 z m 0,15.72 h 54.028 v -6.83 h -54.028 v 6.83"
         style="fill:#231f20;fill-opacity:1;fill-rule:evenodd;stroke:none"
         id="path34" /><path
         d="m 487.055,1159.5 c 0,2.73 0,4.79 -0.684,5.47 -0.683,0.69 -2.051,1.37 -2.734,1.37 -0.684,0 -1.371,0 -1.371,0 h -0.684 l -6.836,1.37 v 2.73 c 1.367,0 2.734,0 4.785,0.69 2.051,0.68 4.106,2.05 6.157,2.73 1.367,0.69 3.417,2.05 4.785,3.42 1.371,1.37 2.738,2.74 4.105,4.79 h 2.735 v -62.24 0 -4.78 c 0,-6.16 0.683,-10.26 1.367,-10.95 1.371,-0.68 3.422,-1.37 7.523,-1.37 0.684,0 1.367,0 1.367,0 0,0 0,0 0.684,0 V 1100 H 475.43 v 2.73 c 0.683,0 2.05,0 2.734,0 0.684,0 1.367,0 2.051,0 3.422,0 5.473,0.69 6.156,2.06 0.684,0.68 0.684,4.78 0.684,10.26 v 44.45"
         style="fill:#231f20;fill-opacity:1;fill-rule:evenodd;stroke:none"
         id="path36" /><path
         d="m 564.336,1173.18 -3.418,2.73 0.684,0.69 v 0 c 2.05,1.36 3.418,3.42 5.468,4.78 1.368,1.37 2.739,3.42 3.422,5.48 l 25.305,-62.24 v 0 l 5.469,-13.68 0.683,-0.68 0.684,-0.69 c 0.683,-1.36 1.367,-3.41 2.055,-4.1 1.367,-1.37 3.417,-2.05 6.152,-2.74 V 1100 h -32.141 v 2.73 c 3.418,0 6.153,0 8.203,0.69 1.371,0 2.055,1.37 2.055,2.74 0,0.68 0,2.05 0,2.73 0,0.68 -0.684,2.05 -1.367,2.74 l -7.524,20.51 h -28.043 l -8.203,-21.2 c 0,-0.68 0,-1.37 0,-1.37 0,-0.68 0,-1.36 0,-1.36 0,-1.37 0,-2.74 1.368,-3.42 1.367,-1.37 4.785,-2.06 8.207,-2.06 V 1100 h -22.571 v 2.73 c 2.735,0.69 4.789,1.37 5.473,2.74 1.367,0.69 2.051,2.74 2.734,4.1 0,0.69 0.684,1.37 0.684,2.06 0.683,0.68 1.367,1.37 1.367,2.05 z m 0.684,-4.79 -11.625,-32.83 h 25.304 z"
         style="fill:#231f20;fill-opacity:1;fill-rule:evenodd;stroke:none"
         id="path38" /><path
         d="M 909.699,158.602 V 535.199 H 1017.7 V 158.602 Z"
         style="fill:none;stroke:#231f20;stroke-width:14.4;stroke-linecap:butt;stroke-linejoin:miter;stroke-miterlimit:11.4737;stroke-dasharray:none;stroke-opacity:1"
         id="path40" /><path
         d="m 1172.2,805.559 c 0,2.711 -1.36,5.421 -2.72,5.421 0,0 -2.7,1.356 -4.06,1.356 v 2.707 h 27.1 1.36 c 0,0 0,-1.352 1.35,-1.352 4.07,0 9.49,-1.355 13.56,-4.066 4.06,-2.711 6.77,-6.777 6.77,-13.551 0,-5.422 -1.36,-9.488 -4.07,-10.84 -2.7,-2.711 -6.77,-5.421 -10.84,-6.777 1.36,-1.355 2.71,-2.711 4.07,-4.066 1.35,-1.356 2.71,-4.063 4.07,-5.418 1.35,-1.356 1.35,-1.356 1.35,-2.711 1.35,0 1.35,-1.356 2.71,-1.356 0,-1.355 0,-1.355 0,-1.355 0,-1.356 1.35,-1.356 1.35,-1.356 0,-1.355 1.36,-2.711 1.36,-4.066 1.35,0 1.35,-1.352 2.71,-2.707 0,-1.356 1.36,-2.711 2.71,-2.711 0,-1.356 1.36,-1.356 4.06,-1.356 v 0 c 1.36,0 1.36,0 1.36,0 V 750 h -16.26 c -1.35,1.355 -1.35,2.711 -2.71,4.066 0,1.356 -1.36,2.711 -2.71,4.063 0,0 0,1.355 -1.36,1.355 0,0 0,1.356 0,2.711 -1.35,0 -2.71,1.356 -2.71,2.711 -1.35,1.356 -2.71,2.711 -2.71,4.067 -1.35,0 -1.35,1.355 -2.71,2.707 l -1.35,1.355 c -1.36,1.356 -4.07,2.711 -5.42,4.067 -1.36,0 -4.07,0 -6.78,1.355 v -20.328 c 0,-2.707 0,-5.418 1.36,-5.418 1.35,-1.356 4.06,-1.356 6.77,-1.356 V 750 h -24.39 v 1.355 0 c 1.36,0 1.36,0 1.36,0 2.7,0 4.06,0 4.06,1.356 1.36,1.355 1.36,2.711 1.36,5.418 v 0 0 z m 9.48,-25.746 c 0,0 0,0 1.36,0 h 1.35 v 0 c 1.36,0 1.36,0 1.36,0 h 1.35 c 0,0 0,0 1.36,0 4.06,0 8.13,1.355 10.84,4.066 4.06,1.355 5.42,5.418 5.42,10.84 0,1.355 0,1.355 0,1.355 0,1.356 0,1.356 0,1.356 0,4.062 -1.36,6.773 -4.07,9.484 -1.35,2.711 -6.77,5.422 -12.19,5.422 -2.71,0 -4.07,-1.356 -5.42,-1.356 -1.36,0 -1.36,-2.71 -1.36,-5.421 v -25.746"
         style="fill:#231f20;fill-opacity:1;fill-rule:evenodd;stroke:none"
         id="path42" /><path
         d="M 910.398,643.199 V 1020.5 H 1018.4 V 643.199 Z"
         style="fill:none;stroke:#231f20;stroke-width:14.4;stroke-linecap:butt;stroke-linejoin:miter;stroke-miterlimit:11.4737;stroke-dasharray:none;stroke-opacity:1"
         id="path44" /><path
         d="m 805.73,882.492 c 0,4.106 -0.683,6.84 -2.05,7.524 -1.371,0.683 -4.106,1.367 -6.84,1.367 v 2.738 h 36.246 c 0,0 0.684,0 1.367,0 0,0 0.684,0 1.367,0 6.157,-0.683 12.996,-2.738 18.465,-6.156 5.473,-4.106 8.207,-9.574 8.207,-16.414 0,-7.524 -2.051,-12.992 -5.469,-15.731 -3.421,-3.418 -8.207,-6.152 -13.679,-7.523 1.367,-1.367 3.422,-3.418 5.472,-6.152 2.051,-2.055 4.102,-4.79 6.153,-7.524 0.687,-0.683 1.371,-2.051 1.371,-2.734 0.683,-0.688 1.367,-2.055 2.051,-2.739 0.683,0 1.367,-0.683 1.367,-1.367 0.683,-0.683 0.683,-1.367 0.683,-2.051 1.368,-1.367 2.051,-2.738 2.735,-4.105 0.683,-1.367 2.054,-2.734 2.738,-3.418 0.684,-2.051 2.051,-3.418 3.418,-4.105 1.367,-1.368 3.418,-2.051 5.473,-2.051 0.683,0 1.367,0 1.367,0 0,0 0.683,0.683 1.367,0.683 V 810 h -21.883 c -0.687,1.367 -2.054,4.102 -2.738,5.473 -1.367,2.05 -2.734,4.101 -3.418,5.468 -0.684,0.684 -1.367,1.368 -2.051,2.051 0,0.688 -0.683,2.055 -1.371,2.738 -0.683,1.368 -2.051,2.735 -3.418,4.102 -0.683,1.367 -2.051,3.422 -3.418,4.789 -0.683,1.367 -2.054,2.734 -2.738,3.418 -0.684,1.367 -2.051,2.738 -2.734,3.422 -1.368,1.367 -4.102,2.734 -5.473,3.418 -2.734,0.684 -6.152,2.051 -10.258,2.051 v -25.989 c 0,-4.101 1.367,-6.839 2.738,-7.523 1.368,-0.684 4.786,-0.684 8.891,-0.684 V 810 H 796.84 v 2.734 c 0.683,0 1.367,-0.683 1.367,-0.683 0.684,0 1.367,0 1.367,0 2.735,0 4.789,0.683 5.473,2.051 0.683,1.371 0.683,3.421 0.683,6.156 v 0.683 c 0,0.684 0,1.368 0,1.368 z m 12.309,-32.824 c 0.684,0 1.367,0 2.051,0 0.687,0 1.371,0 2.055,0 h 0.683 c 0.684,0 1.367,0 1.367,0 0.684,0 1.368,0 1.368,0 0.683,0 1.367,0 1.367,0 5.472,0 10.258,2.051 14.363,4.785 4.785,2.051 7.523,7.524 7.523,14.363 0,0.684 0,1.368 0,2.051 0,0.684 0,1.367 0,2.051 -0.683,4.105 -2.05,8.207 -4.789,12.312 -2.734,3.418 -8.89,6.153 -17.097,6.153 -2.051,0 -4.785,-0.684 -6.153,-1.367 -1.371,-0.684 -2.738,-3.418 -2.738,-7.524 v -32.824"
         style="fill:#231f20;fill-opacity:1;fill-rule:evenodd;stroke:none"
         id="path46" /><path
         d="m 336.598,770.441 c 0,4.789 -1.368,7.524 -4.106,8.891 -2.734,1.367 -6.152,2.051 -8.89,2.051 v 2.738 h 26.671 v -2.738 c -3.418,0 -6.152,-0.684 -7.523,-2.051 -1.367,-2.051 -2.734,-4.785 -3.418,-8.891 v -45.82 c 0,-10.258 -2.734,-18.465 -7.523,-21.887 -5.469,-3.418 -12.993,-6.152 -21.2,-6.152 -12.312,0 -21.203,2.734 -25.304,6.152 -4.789,4.789 -7.524,10.258 -8.207,16.414 -0.684,0.684 -0.684,2.051 -0.684,3.422 0,1.368 -0.684,2.735 -0.684,3.418 v 44.453 c 0,0.684 0,1.368 0,1.368 0,0 0,0.683 0,1.367 v 0.683 c 0,0.688 0,1.371 0,1.371 0,1.368 -0.683,2.735 -1.367,4.102 -0.683,0.684 -3.422,2.051 -7.523,2.051 v 2.738 h 32.14 v -2.738 c -0.683,0 -0.683,0 -0.683,0 -0.684,0 -1.367,0 -1.367,0 -4.102,0 -6.84,-1.367 -7.524,-4.102 -0.683,-2.051 -1.367,-6.84 -1.367,-11.625 v -39.668 c 0,-8.89 2.051,-16.414 5.473,-19.832 4.101,-4.105 9.574,-6.156 17.097,-6.156 0.684,0 2.735,0 4.786,0 2.054,0 4.789,0 6.839,0.684 3.422,1.367 7.524,4.105 9.575,7.523 3.421,4.102 4.789,9.574 4.789,17.098 v 45.136"
         style="fill:#231f20;fill-opacity:1;fill-rule:evenodd;stroke:none"
         id="path48" /><path
         d="m 369.426,721.887 h 54.711 v -6.84 h -54.711 z m 0,16.41 h 54.711 v -6.836 h -54.711 v 6.836"
         style="fill:#231f20;fill-opacity:1;fill-rule:evenodd;stroke:none"
         id="path50" /><path
         d="m 464.484,760.184 c 0,2.734 0,4.101 -0.683,4.785 -0.684,0.687 -1.367,1.371 -2.735,1.371 -0.683,0 -1.367,0 -1.367,0 l -0.683,0.683 -6.84,0.684 v 2.734 c 1.367,0 2.734,0.684 4.789,1.368 2.051,0.683 4.101,1.367 6.152,2.738 1.367,0.683 3.422,2.051 4.789,3.418 1.367,1.367 2.735,2.734 4.102,4.785 h 3.422 v -62.918 0 -4.785 c 0,-6.156 0.683,-10.258 1.367,-10.945 0.683,-0.684 3.418,-1.368 6.84,-1.368 0.683,0 1.367,0 1.367,0 h 0.684 V 700 h -32.829 v 2.734 c 0.684,0 2.051,0 2.735,0 0.687,0 1.371,0 2.054,0 3.418,0 5.469,0.684 6.153,2.055 0.683,1.367 0.683,4.785 0.683,10.258 v 45.137"
         style="fill:#231f20;fill-opacity:1;fill-rule:evenodd;stroke:none"
         id="path52" /><path
         d="m 548.605,781.383 c 1.368,0 2.051,0 2.051,0 0,0 0.684,0.683 1.367,0.683 0,0 1.372,0.684 2.055,1.372 v 0.683 c 0.684,0 1.367,0.684 1.367,1.367 h 2.735 l -6.157,-13.679 h -26.671 l -2.051,-16.414 c 12.312,0 22.57,-2.735 28.039,-8.207 6.156,-4.786 9.578,-12.309 9.578,-21.883 0,-6.157 -2.055,-12.313 -5.473,-15.731 -3.422,-4.101 -8.207,-7.523 -12.312,-8.89 C 541.766,700 539.715,700 538.348,700 c -1.368,0 -3.418,-0.684 -4.789,-0.684 h -0.684 c 0,0 -0.684,0 -1.367,0 -0.684,0 -2.051,0 -2.735,0 -0.683,0 -2.05,0.684 -2.05,0.684 -4.106,0 -7.524,0.684 -10.946,2.051 -3.418,2.051 -4.785,4.105 -4.785,6.156 v 0.684 0 0 c 0,1.367 0.684,2.734 1.367,3.418 0.684,0.683 2.051,0.683 2.735,0.683 0.683,0 1.367,0 2.051,0 0.687,0 2.054,-0.683 2.738,-0.683 0,-0.684 1.367,-1.368 2.051,-2.051 0.683,-1.367 2.05,-2.735 2.734,-4.102 0.684,-1.367 2.055,-2.054 3.422,-2.738 1.367,-0.684 3.418,-1.367 5.469,-1.367 0.683,0 1.371,0 2.054,0 0.684,0 1.367,0 2.051,0 3.418,0.683 6.156,3.422 8.891,5.472 2.734,3.418 4.785,7.524 4.785,12.993 v 0.683 0.688 c 0,8.203 -2.735,13.676 -7.52,17.093 -4.789,3.422 -10.945,5.473 -16.414,5.473 -0.683,0 -1.367,0 -2.054,0 -0.684,0 -2.051,0 -2.735,0 -0.683,0 -1.367,0 -2.051,0 -0.683,0 -1.367,0 -2.05,0 l 4.101,36.93 h 25.988"
         style="fill:#231f20;fill-opacity:1;fill-rule:evenodd;stroke:none"
         id="path54" /><path
         d="m 620.414,715.73 21.203,56.079 c 0.684,0.683 0.684,2.05 0.684,2.738 0,0.683 0.683,1.367 0.683,2.051 0,2.05 -1.367,3.418 -3.418,4.101 -1.371,0.684 -4.789,0.684 -8.207,0.684 v 2.738 h 23.934 v -2.738 c -2.051,0 -4.102,-0.684 -5.469,-2.735 -1.367,-2.05 -3.422,-4.789 -4.105,-7.523 v -0.684 l -0.684,-0.683 -23.937,-62.235 v 0 l -3.418,-9.574 h -2.735 l -25.304,62.235 -4.789,10.257 c 0,1.368 -0.684,2.735 -0.684,3.418 -0.684,0.688 -1.367,2.055 -1.367,2.739 -0.684,1.367 -2.051,2.734 -2.735,3.418 -0.683,0.683 -2.738,1.367 -4.105,1.367 v 2.738 h 32.144 v -2.738 c -0.683,0 -1.367,0 -2.05,0 -0.684,0 -1.367,0 -1.367,0 -2.739,0 -4.106,-0.684 -5.473,-1.367 -1.367,0 -2.735,-1.368 -2.735,-3.418 0,0 0,-0.684 0,-1.368 0,-0.683 0.684,-2.054 1.368,-2.738 l 22.566,-56.762"
         style="fill:#231f20;fill-opacity:1;fill-rule:evenodd;stroke:none"
         id="path56" /><path
         d="m 961.5,1089.6 c 6.5,0 13,-5 13,-13 0,-7.2 -6.5,-13.6 -13,-13.6 -7.199,0 -12.898,6.4 -12.898,13.6 0,8 5.699,13 12.898,13"
         style="fill:#231f20;fill-opacity:1;fill-rule:evenodd;stroke:none"
         id="path58" /><path
         d="m 961.5,1089.6 c 6.5,0 13,-5 13,-13 0,-7.2 -6.5,-13.6 -13,-13.6 -7.199,0 -12.898,6.4 -12.898,13.6 0,8 5.699,13 12.898,13 z"
         style="fill:none;stroke:#231f20;stroke-width:5.8;stroke-linecap:butt;stroke-linejoin:miter;stroke-miterlimit:11.4737;stroke-dasharray:none;stroke-opacity:1"
         id="path60" /><path
         d="m 964.398,115.398 c 6.5,0 13,-5 13,-12.898 0,-7.1992 -6.5,-13.6992 -13,-13.6992 -7.199,0 -13,6.5 -13,13.6992 0,7.898 5.801,12.898 13,12.898"
         style="fill:#231f20;fill-opacity:1;fill-rule:evenodd;stroke:none"
         id="path62" /><path
         d="m 964.398,115.398 c 6.5,0 13,-5 13,-12.898 0,-7.1992 -6.5,-13.6992 -13,-13.6992 -7.199,0 -13,6.5 -13,13.6992 0,7.898 5.801,12.898 13,12.898 z"
         style="fill:none;stroke:#231f20;stroke-width:5.8;stroke-linecap:butt;stroke-linejoin:miter;stroke-miterlimit:11.4737;stroke-dasharray:none;stroke-opacity:1"
         id="path64" /><path
         d="m 964.398,643.902 v -108"
         style="fill:none;stroke:#231f20;stroke-width:8.6;stroke-linecap:butt;stroke-linejoin:miter;stroke-miterlimit:11.4737;stroke-dasharray:none;stroke-opacity:1"
         id="path66" /><g
         id="g68"
         transform="scale(10)"><text
           transform="matrix(1,0,0,-1,65,30)"
           style="font-variant:normal;font-weight:normal;font-size:12.105px;font-family:Symbol;-inkscape-font-specification:Symbol;writing-mode:lr-tb;fill:#231f20;fill-opacity:1;fill-rule:nonzero;stroke:none"
           id="text72"><tspan
             x="0 5.8816257 12.78903"
             y="0"
             id="tspan70">10Ω</tspan></text></g><path
         d="m 1144.86,896.727 c 0,5.421 -2.71,9.484 -5.42,10.839 -4.07,1.356 -8.14,2.711 -10.84,2.711 v 4.067 h 32.52 v -4.067 c -4.07,0 -8.13,-1.355 -9.49,-2.711 -1.35,-1.355 -2.71,-5.418 -4.06,-10.839 v -56.914 c 0,-12.196 -2.71,-21.684 -9.49,-27.102 -6.78,-2.711 -14.9,-6.777 -25.74,-6.777 -16.27,0 -27.11,2.711 -31.17,6.777 -6.78,6.773 -9.49,13.551 -10.84,20.324 0,1.356 0,2.711 0,5.422 0,1.356 -1.36,2.711 -1.36,4.066 v 54.204 c 0,1.355 0,1.355 0,1.355 0,1.356 0,1.356 0,1.356 0,1.355 0,1.355 0,1.355 0,1.355 0,1.355 0,1.355 0,2.707 0,4.063 -1.35,5.418 -1.36,1.356 -4.07,2.711 -9.49,2.711 v 4.067 h 39.3 v -4.067 h -1.36 v 0 c -5.42,0 -9.48,-1.355 -9.48,-4.066 -1.36,-4.063 -1.36,-9.484 -1.36,-14.906 v -48.782 c 0,-12.195 1.36,-20.328 6.78,-25.746 4.06,-4.066 10.84,-6.777 20.33,-6.777 1.35,0 4.06,0 5.41,0 2.71,0 6.78,0 9.49,1.355 4.06,1.356 8.13,4.067 12.2,8.129 2.71,5.422 5.42,12.196 5.42,21.684 v 55.559"
         style="fill:#231f20;fill-opacity:1;fill-rule:evenodd;stroke:none"
         id="path74" /><path
         d="m 1198.13,837.102 h 67.76 v -9.485 h -67.76 z m 0,18.972 h 67.76 v -8.133 h -67.76 v 8.133"
         style="fill:#231f20;fill-opacity:1;fill-rule:evenodd;stroke:none"
         id="path76" /><path
         d="m 1295.7,815.422 c 0,1.355 1.35,4.062 2.71,5.418 1.35,1.355 4.06,2.711 6.77,2.711 2.71,0 4.07,-1.356 5.43,-2.711 1.35,-1.356 2.7,-2.711 2.7,-4.063 v 0 c 0,-1.355 0,-1.355 0,-1.355 0,-1.356 0,-1.356 0,-2.711 0,0 0,0 0,-1.356 0,-1.355 -1.35,-1.355 -2.7,-2.71 -1.36,-1.356 -4.07,-1.356 -6.78,-1.356 v 0 c -1.36,0 -1.36,0 -1.36,0 -1.35,0 -4.06,1.356 -4.06,2.711 -1.36,0 -2.71,2.711 -2.71,5.422 z m 6.77,55.558 c 5.42,0 8.14,0 8.14,0 0,0 2.7,0 5.41,1.356 4.07,0 6.78,1.355 9.49,2.707 1.35,1.355 2.71,2.711 4.06,5.422 0,1.355 1.36,4.066 1.36,5.422 v 0 1.355 c 0,1.356 -1.36,4.063 -2.71,5.418 -1.36,1.356 -2.71,4.067 -5.42,4.067 0,1.355 -2.71,2.711 -4.07,2.711 -1.35,0 -2.71,0 -4.06,0 -1.36,0 -4.06,1.355 -5.42,1.355 -1.36,0 -2.71,0 -4.07,0 v 0 0 0 c -2.71,0 -4.06,1.355 -4.06,1.355 -1.36,1.352 -2.71,4.063 -2.71,5.418 v 0 0 c 0,1.356 1.35,2.711 2.71,4.067 1.35,1.355 2.71,2.711 5.42,2.711 1.35,0 1.35,0 2.71,0 0,0 1.36,0 2.71,0 6.77,-1.356 12.2,-5.422 16.26,-10.844 4.07,-5.418 6.78,-12.195 6.78,-18.969 0,-6.777 -1.36,-12.195 -5.43,-17.617 -4.06,-4.066 -12.19,-6.773 -21.68,-6.773 l -1.35,-24.395 h -4.07 v 35.234"
         style="fill:#231f20;fill-opacity:1;fill-rule:evenodd;stroke:none"
         id="path78" /></g></g></svg>
