<?xml version="1.0" encoding="UTF-8" standalone="no"?>
<!-- Created with Inkscape (http://www.inkscape.org/) -->

<svg
   version="1.1"
   id="svg2"
   xml:space="preserve"
   width="285.33334"
   height="114.66667"
   viewBox="0 0 285.33334 114.66667"
   xmlns="http://www.w3.org/2000/svg"
   xmlns:svg="http://www.w3.org/2000/svg"><defs
     id="defs6" /><g
     id="g8"
     transform="matrix(1.3333333,0,0,-1.3333333,0,114.66667)"><g
       id="g10"
       transform="scale(0.1)"><path
         d="M 7.39844,858.5 H 2132.8 V 8.19922 H 7.39844 Z"
         style="fill:none;stroke:#231f20;stroke-width:11.5;stroke-linecap:butt;stroke-linejoin:miter;stroke-miterlimit:11.4737;stroke-dasharray:none;stroke-opacity:1"
         id="path12" /><path
         d="m 489,461.801 c 62.699,0 113.801,-50.399 113.801,-113.102 0,-62.597 -51.102,-113 -113.801,-113 -61.898,0 -113,50.403 -113,113 0,62.703 51.102,113.102 113,113.102 z"
         style="fill:none;stroke:#231f20;stroke-width:8.6;stroke-linecap:butt;stroke-linejoin:miter;stroke-miterlimit:11.4737;stroke-dasharray:none;stroke-opacity:1"
         id="path14" /><path
         d="m 556.699,348.699 c 0,-25.199 -15.097,-45.297 -33.801,-45.297 -18,0 -33.898,20.098 -33.898,45.297"
         style="fill:none;stroke:#231f20;stroke-width:8.6;stroke-linecap:butt;stroke-linejoin:miter;stroke-miterlimit:11.4737;stroke-dasharray:none;stroke-opacity:1"
         id="path16" /><path
         d="m 421.398,348.699 c 0,25.203 15.102,45.403 33.801,45.403 18.699,0 33.801,-20.2 33.801,-45.403"
         style="fill:none;stroke:#231f20;stroke-width:8.6;stroke-linecap:butt;stroke-linejoin:miter;stroke-miterlimit:11.4737;stroke-dasharray:none;stroke-opacity:1"
         id="path18" /><path
         d="m 214.645,407.918 10.8,27.355 v 0.723 c 0,0.719 0,0.719 0,1.438 0,0.722 0,1.441 -1.441,2.16 -0.719,0 -2.16,0 -4.316,0 v 1.441 h 12.238 v -1.441 c -0.723,0 -2.16,0 -2.883,-1.438 -0.719,-0.722 -1.438,-2.16 -2.16,-3.601 v 0 -0.719 l -11.516,-30.238 v 0 l -2.16,-4.317 h -1.441 l -12.239,30.235 -2.16,5.039 c 0,0.718 -0.719,1.441 -0.719,1.441 0,0.719 0,0.719 -0.718,1.438 0,0.722 -0.719,1.441 -0.719,1.441 -0.723,0.719 -1.441,0.719 -2.16,0.719 v 1.441 h 15.836 v -1.441 c -0.719,0 -0.719,0 -1.438,0 h -0.722 c -0.719,0 -2.161,0 -2.879,-0.719 0,0 -0.719,-0.719 -0.719,-1.441 v -0.719 c 0,-0.719 0,-0.719 0.719,-1.442 l 10.797,-27.355"
         style="fill:#231f20;fill-opacity:1;fill-rule:evenodd;stroke:none"
         id="path20" /><path
         d="m 244.883,425.195 v 11.52 c 0,0.719 -0.719,2.16 -1.442,2.16 0,0.719 -1.437,0.719 -3.597,0.719 v 1.441 h 30.953 v 0 0 l 2.883,-9.359 h -1.442 c 0,0 0,0.719 -0.718,1.441 0,0 0,0.719 -0.723,0.719 -0.719,1.437 -2.156,2.879 -3.598,4.32 -1.441,0.719 -4.32,1.438 -6.48,1.438 h -10.078 v -17.996 h 5.761 c 1.438,0 2.879,0.718 4.317,1.437 1.441,0.723 2.16,2.883 2.879,5.039 h 1.441 v -15.117 h -1.441 v 0 0.723 c -0.719,1.437 -0.719,2.879 -1.438,4.316 -0.719,1.442 -2.879,2.16 -5.758,2.16 h -5.761 V 406.48 c 0,-2.16 0,-3.601 0.718,-4.32 0.723,-0.719 2.161,-1.441 5.043,-1.441 V 400 h -16.558 v 0.719 c 2.16,0 3.597,0.722 4.32,1.441 0,0 0.719,1.438 0.719,3.598 v 0.722 0.719 17.996"
         style="fill:#231f20;fill-opacity:1;fill-rule:evenodd;stroke:none"
         id="path22" /><path
         d="m 283.758,423.035 v 0 c 0,0.723 0,0.723 0,0.723 0.719,4.316 2.16,8.637 5.758,12.238 2.879,3.598 7.918,5.758 14.398,6.477 v 0 h 0.719 0.722 c 0,0 0,-0.719 0.719,-0.719 4.321,0 8.637,-2.16 12.239,-5.758 4.32,-2.879 6.48,-7.922 6.48,-14.398 v 0 c 0,-0.719 0,-0.719 0,-0.719 0,-5.762 -1.441,-10.801 -5.043,-15.121 C 316.152,401.441 311.113,400 304.633,400 h -0.719 v 0 c -5.758,0 -10.797,1.441 -13.68,4.32 -2.879,3.598 -5.039,7.2 -5.757,10.797 -0.719,1.442 -0.719,2.16 -0.719,2.879 0,0.723 0,2.16 0,2.16 0,0.723 0,1.442 0,1.442 0,0 0,0.718 0,1.437 z m 34.555,-0.719 c 0,5.039 -1.442,8.641 -2.879,10.801 -1.442,2.879 -3.602,5.039 -5.762,5.758 -0.719,0.719 -2.16,1.438 -2.879,1.438 -1.438,0 -2.879,0.722 -2.879,0.722 -4.32,-0.722 -7.918,-2.879 -10.078,-6.48 -2.16,-4.321 -3.602,-9.36 -3.602,-14.399 v 0 0 c 0,-4.32 0.723,-9.359 2.883,-12.957 2.879,-4.32 6.477,-6.48 11.516,-6.48 3.601,0 6.48,1.441 8.64,4.32 2.161,2.879 3.598,6.481 5.04,9.359 0,1.438 0,2.161 0,2.879 0,0.719 0,2.161 0,2.879 v 0.723 c 0,0.719 0,0.719 0,1.437"
         style="fill:#231f20;fill-opacity:1;fill-rule:evenodd;stroke:none"
         id="path24" /><path
         d="m 241.281,354.645 v 7.199 c 0,0.722 0,1.441 -0.718,1.441 -0.719,0.719 -1.442,0.719 -2.161,0.719 h -0.718 -0.719 c -0.723,0 -1.442,0 -1.442,0 -0.718,-0.719 -1.441,-0.719 -2.16,-1.438 v 0 c -0.718,0 -0.718,-0.722 -0.718,-0.722 v -0.719 -0.719 c 0,-1.441 0,-2.16 -0.719,-2.879 0,-0.722 -0.723,-0.722 -1.442,-0.722 h -0.718 v -0.719 c -0.723,0 -1.442,0.719 -1.442,0.719 0,0 -0.719,0.722 -0.719,1.441 v 0 0.719 c 0,0.723 0.719,2.16 2.161,3.601 2.16,1.438 3.597,2.161 5.757,2.879 0,0 1.442,0.719 2.161,0.719 0.718,0 1.437,0 2.16,0 2.16,0 3.597,-0.719 4.32,-1.437 1.438,-0.723 2.156,-2.161 2.156,-4.321 v -15.84 c 0,-0.718 0,-2.16 0,-2.16 l 0.723,-0.718 v 0 h 0.719 l 0.718,0.718 c 0,0.723 0.723,1.442 0.723,1.442 h 0.719 c 0,-1.442 0,-2.16 -0.719,-2.879 -0.723,-0.719 -1.441,-0.719 -2.16,-1.442 h -0.723 v 0 c -1.437,0 -2.156,0.723 -2.879,0.723 -0.718,0 -1.437,1.438 -2.16,2.879 v 0 0 c -0.718,-0.723 -1.437,-1.441 -2.16,-1.441 -0.719,-0.719 -1.437,-1.438 -2.156,-1.438 -0.723,0 -1.442,0 -1.442,0 -0.718,0 -1.441,0 -1.441,0 h -0.719 v 0 h -0.718 c -0.719,0 -1.442,0 -1.442,0 -0.719,0 -1.437,0.719 -2.16,0.719 -0.719,0.719 -0.719,2.16 -0.719,3.597 v 0 0 0.723 c 0,1.438 0.719,2.879 2.16,4.316 1.442,1.442 3.598,2.883 5.758,3.602 0.723,0 2.16,0.719 2.879,0.719 0.723,0.719 1.442,0.719 2.16,0.719 z m 0,-1.438 c -2.879,-0.719 -5.039,-2.16 -7.199,-2.879 -1.437,-1.441 -2.156,-2.879 -2.156,-3.601 0,-0.719 0,-0.719 0,-0.719 v -0.719 0 l 0.719,-0.723 c 0,-0.718 0.718,-1.437 1.437,-1.437 0.723,-0.723 1.441,-0.723 2.16,-0.723 v 0 h 0.723 c 0.719,0 1.437,0 2.156,0.723 0.723,0 1.442,0.719 2.16,1.437 v 8.641"
         style="fill:#231f20;fill-opacity:1;fill-rule:evenodd;stroke:none"
         id="path26" /><path
         d="m 262.879,362.566 v 10.797 c 0,2.16 0,2.879 -0.719,3.602 0,0.719 -1.441,0.719 -2.879,1.437 v 0.719 l 8.637,2.16 v -30.234 0 -5.758 c 0,-1.441 0,-2.16 0,-2.883 0,-0.718 1.441,-1.437 2.16,-1.437 h 0.719 c 0,0 0,0 0.723,0 v -0.719 h -12.239 v 0.719 c 1.438,0 2.879,0.719 2.879,0.719 0,0.718 0.719,1.441 0.719,3.601 v 17.277"
         style="fill:#231f20;fill-opacity:1;fill-rule:evenodd;stroke:none"
         id="path28" /><path
         d="m 283.758,352.488 v 6.477 c 0,1.441 -0.723,2.16 -0.723,2.879 -0.719,0 -1.437,0.722 -2.879,0.722 v 0.719 c 0.723,0 1.442,0.719 2.16,0.719 0.719,0 1.442,0.723 2.161,0.723 0.718,0 1.441,0.718 1.441,0.718 0.719,0.719 2.156,0.719 2.879,1.438 v -21.594 c 0,-1.441 0,-2.16 0,-2.883 0,-0.718 1.437,-1.437 2.879,-1.437 v -0.719 h -11.52 v 0.719 c 1.442,0 2.879,0.719 2.879,0.719 0.723,0.718 0.723,1.441 0.723,2.16 z m 2.16,30.235 c 0.719,0 1.437,-0.719 2.156,-1.442 0.723,-0.718 0.723,-1.437 0.723,-2.16 0,-0.719 0,-1.437 -0.723,-2.156 -0.719,-0.723 -1.437,-1.442 -2.156,-1.442 -1.441,0 -2.16,0.719 -2.883,1.442 0,0.719 -0.719,1.437 -0.719,2.156 0,0.723 0.719,1.442 0.719,2.16 0.723,0.723 1.442,1.442 2.883,1.442"
         style="fill:#231f20;fill-opacity:1;fill-rule:evenodd;stroke:none"
         id="path30" /><path
         d="m 231.926,299.934 -10.801,15.117 c -0.719,0 -0.719,0.722 -1.437,1.441 l -0.723,0.719 c -0.719,0.719 -1.438,1.441 -2.16,2.16 -0.719,0 -2.16,0.719 -3.598,0.719 v 1.441 h 17.996 v -1.441 c -1.437,0 -2.879,0 -3.598,0 -0.722,-0.719 -1.441,-0.719 -1.441,-1.438 0,-0.722 0,-0.722 0,-1.441 0,-0.719 0.719,-0.719 1.441,-1.438 l 8.637,-11.519 8.641,10.078 c 0,0.719 0.719,1.441 0.719,2.16 0,0 0,0.719 0,1.438 0,0.722 -0.719,1.441 -0.719,1.441 -1.442,0.719 -2.879,0.719 -4.32,0.719 v 1.441 h 15.117 v -1.441 c -2.16,0 -4.321,0 -5.039,-1.438 -1.438,-0.722 -2.161,-2.16 -3.598,-2.879 v -0.722 0 l -0.723,-0.719 c 0,0 0,-0.719 -0.718,-0.719 l -8.637,-11.519 8.637,-12.239 c 1.441,-1.441 2.16,-2.16 2.878,-2.878 0.723,-1.442 0.723,-2.161 1.442,-2.879 0.719,-0.723 2.16,-1.442 2.16,-2.16 0.719,0 2.16,-0.723 3.598,-0.723 v -0.719 h -17.996 v 0.719 c 1.437,0 2.879,0.723 3.597,0.723 0.723,0 1.442,0.718 1.442,0.718 0,0.719 0,1.442 0,1.442 -0.719,0.718 -0.719,1.437 -1.442,1.437 l -8.636,12.957 -8.641,-12.238 c -0.719,-0.719 -1.438,-1.438 -1.438,-1.438 0,-0.718 0,-1.441 0,-1.441 0,-0.719 0,-1.437 0.719,-1.437 0.719,0 2.879,-0.723 4.32,-0.723 v -0.719 h -14.398 v 0.719 c 1.438,0 2.16,0.723 2.879,0.723 0.719,0.718 1.441,0.718 2.16,1.437 l 0.719,0.723 c 0.723,0.718 0.723,1.437 1.441,1.437 l 11.52,14.399"
         style="fill:#231f20;fill-opacity:1;fill-rule:evenodd;stroke:none"
         id="path32" /><path
         d="m 263.598,303.535 v 0 c 0,0.719 0,0.719 0,0.719 0.722,4.32 2.16,8.637 5.761,12.238 2.879,3.598 7.918,5.758 14.399,6.481 v 0 h 0.719 0.718 c 0,0 0,-0.723 0.723,-0.723 4.316,0 8.637,-2.16 12.238,-5.758 4.317,-2.879 6.477,-7.918 6.477,-14.398 v 0 c 0,-0.719 0,-0.719 0,-0.719 0,-5.762 -1.438,-10.801 -5.039,-15.121 -3.598,-4.316 -8.637,-5.758 -15.117,-5.758 h -0.719 v 0 c -5.762,0 -10.801,1.442 -13.68,4.32 -2.879,3.598 -5.039,7.2 -5.758,10.797 -0.722,1.442 -0.722,2.16 -0.722,2.879 0,0.723 0,2.16 0,2.16 0,0.723 0,1.442 0,1.442 0,0 0,0.719 0,1.441 z m 34.558,-0.722 c 0,5.039 -1.441,8.64 -2.883,10.8 -1.437,2.879 -3.597,5.039 -5.757,5.758 -0.719,0.719 -2.161,1.442 -2.879,1.442 -1.442,0 -2.879,0.718 -2.879,0.718 -4.32,-0.718 -7.922,-2.879 -10.078,-6.48 -2.16,-4.321 -3.602,-9.36 -3.602,-14.399 v 0 0 c 0,-4.316 0.719,-9.355 2.879,-12.957 2.879,-4.32 6.481,-6.48 11.52,-6.48 3.597,0 6.48,1.441 8.64,4.32 2.156,2.879 3.598,6.481 5.039,9.36 0,1.441 0,2.16 0,2.878 0,0.719 0,2.161 0,2.879 v 0.723 c 0,0.719 0,0.719 0,1.438"
         style="fill:#231f20;fill-opacity:1;fill-rule:evenodd;stroke:none"
         id="path34" /><path
         d="m 844.883,608.074 v 18 h -10.078 c -1.442,0 -2.879,0 -3.602,0 -0.719,-0.719 -2.16,-0.719 -2.879,-1.441 0,-0.719 -0.719,-1.438 -0.719,-1.438 -0.722,-0.722 -0.722,-1.441 -1.441,-2.16 l -3.598,-5.762 -0.722,0.723 2.16,13.676 c 0,0 0.723,-0.719 1.441,-0.719 0,0 0.719,0 1.438,0 0.722,0 1.441,-0.719 2.16,-0.719 0.723,0 2.16,0 3.602,0 h 30.953 c 0.722,0 2.16,0 2.882,0 0.719,0 1.438,0.719 2.161,0.719 0.718,0 1.437,0 2.156,0 0,0.719 0.723,0.719 1.441,0.719 l 2.879,-13.676 -1.437,-0.723 -5.039,7.922 v 0 0.719 c -0.723,0.719 -2.161,1.441 -2.883,1.441 -0.719,0.719 -1.438,0.719 -2.879,0.719 H 852.082 V 605.918 586.48 c 0,-2.882 0.719,-4.32 1.438,-4.32 1.441,-0.719 2.882,-0.719 5.761,-0.719 V 580 h -20.879 v 1.441 c 2.879,0 5.039,0 5.762,0.719 0.719,0.719 0.719,2.16 0.719,3.598 v 0.722 0 21.594"
         style="fill:#231f20;fill-opacity:1;fill-rule:evenodd;stroke:none"
         id="path36" /><path
         d="m 886.637,593.68 v 8.636 c 0,0.719 0,2.161 -0.719,2.879 -0.723,0.723 -1.441,0.723 -2.883,0.723 v 1.437 c 0.723,0 1.442,0 2.16,0.719 0.723,0 1.442,0 2.16,0.723 0.719,0 1.442,0.719 2.161,0.719 1.441,0.718 2.16,0.718 2.879,1.441 v -25.199 c 0,-1.438 0,-2.879 0.722,-3.598 0,-0.719 1.438,-0.719 2.879,-0.719 V 580 h -13.68 v 1.441 c 2.161,0 3.602,0 4.321,0.719 0,0 0,1.438 0,2.16 z m 2.16,35.992 c 1.437,0 2.879,-0.719 2.879,-1.438 0.719,-0.722 1.441,-2.16 1.441,-2.879 0,-0.722 -0.722,-1.441 -1.441,-2.16 0,-1.441 -1.442,-1.441 -2.879,-1.441 -0.723,0 -2.16,0 -2.16,0.719 -0.719,0.722 -1.442,2.16 -1.442,2.882 0,0.719 0.723,2.157 1.442,2.879 0,0.719 1.437,1.438 2.16,1.438"
         style="fill:#231f20;fill-opacity:1;fill-rule:evenodd;stroke:none"
         id="path38" /><path
         d="m 1340.1,491.301 h 454.3 V 206.898 h -454.3 z"
         style="fill:none;stroke:#231f20;stroke-width:8.6;stroke-linecap:butt;stroke-linejoin:miter;stroke-miterlimit:11.4737;stroke-dasharray:none;stroke-opacity:1"
         id="path40" /><path
         d="m 1427.54,359.438 14.4,15.117 c 0.72,0 0.72,0.718 0.72,1.441 0.72,0 0.72,0.719 0.72,0.719 v 0 0.719 c 0,0 -0.72,0.722 -1.44,1.441 -0.73,0 -2.16,0.719 -3.6,0.719 v 1.441 h 15.11 v -1.441 c -1.43,0 -2.88,-0.719 -4.31,-0.719 -0.73,-0.719 -2.16,-1.441 -2.88,-2.16 0,-0.719 -0.72,-0.719 -0.72,-1.442 -0.72,0 -0.72,-0.718 -1.44,-1.437 l -10.08,-10.801 15.12,-17.996 c 0,-0.719 0.72,-1.441 0.72,-2.16 0.71,0 0.71,-0.719 1.44,-0.719 0.72,-0.719 1.43,-0.719 1.43,-0.719 0.72,0 2.16,-0.722 2.88,-0.722 V 340 h -10.07 l -15.84,18.719 -2.16,-1.442 v -13.679 0 -0.719 c 0,0 0.72,-0.719 1.44,-1.438 0.72,0 1.44,-0.722 2.88,-0.722 v 0 c 0.72,0 0.72,0 0.72,0 V 340 h -15.12 v 0.719 c 0.72,0 2.16,0.722 2.88,0.722 0.72,0.719 1.44,1.438 1.44,3.598 v 28.797 c 0,2.16 -0.72,3.598 -1.44,5.039 -0.72,0.719 -1.44,0.719 -3.6,0.719 v 1.441 h 15.84 v -1.441 c -1.44,0 -2.88,0 -3.6,-0.719 -0.72,-0.719 -1.44,-2.16 -1.44,-3.602 v -15.835"
         style="fill:#231f20;fill-opacity:1;fill-rule:evenodd;stroke:none"
         id="path42" /><path
         d="m 1464.25,363.035 v 0 c 0,0.723 0,0.723 0,0.723 0.72,4.316 2.16,8.637 5.76,12.238 2.88,3.598 7.92,5.758 14.4,6.477 v 0 h 0.72 0.72 c 0,0 0,-0.719 0.72,-0.719 4.32,0 8.64,-2.16 12.24,-5.758 4.32,-2.879 6.48,-7.922 6.48,-14.398 v 0 c 0,-0.719 0,-0.719 0,-0.719 0,-5.762 -1.44,-10.801 -5.04,-15.121 -3.6,-4.317 -8.64,-5.758 -15.12,-5.758 h -0.72 v 0 c -5.76,0 -10.8,1.441 -13.68,4.32 -2.88,3.598 -5.04,7.2 -5.76,10.797 -0.72,1.442 -0.72,2.16 -0.72,2.879 0,0.723 0,2.16 0,2.16 0,0.723 0,1.442 0,1.442 0,0 0,0.718 0,1.437 z m 34.56,-0.719 c 0,5.039 -1.44,8.641 -2.88,10.801 -1.44,2.879 -3.6,5.039 -5.76,5.758 -0.72,0.719 -2.16,1.438 -2.88,1.438 -1.44,0 -2.88,0.722 -2.88,0.722 -4.32,-0.722 -7.92,-2.879 -10.08,-6.48 -2.16,-4.321 -3.6,-9.36 -3.6,-14.399 v 0 0 c 0,-4.32 0.72,-9.359 2.88,-12.957 2.88,-4.32 6.48,-6.48 11.52,-6.48 3.6,0 6.48,1.441 8.64,4.32 2.16,2.879 3.6,6.481 5.04,9.359 0,1.438 0,2.161 0,2.879 0,0.719 0,2.161 0,2.879 v 0.723 c 0,0.719 0,0.719 0,1.437"
         style="fill:#231f20;fill-opacity:1;fill-rule:evenodd;stroke:none"
         id="path44" /><path
         d="m 1551.36,348.641 v 25.914 c 0,1.441 0,2.879 -0.72,3.601 0,0.719 -2.16,1.438 -4.32,1.438 v 1.441 h 12.96 v -1.441 c -2.16,0 -3.6,0 -4.32,-0.719 -0.72,-1.441 -1.44,-2.16 -1.44,-2.879 0,-0.723 0,-0.723 0,-0.723 0,-0.718 0,-0.718 0,-1.437 v -30.238 0 V 340 h -1.44 l -28.79,29.516 v 0 l -3.6,4.32 V 344.32 c 0,-1.441 0.72,-2.16 1.44,-2.879 1.44,0 2.87,-0.722 4.32,-0.722 V 340 h -12.96 v 0.719 c 0.72,0 0.72,0 0.72,0 0.72,0 0.72,0 0.72,0 1.44,0 2.16,0.722 2.87,0.722 0.73,0.719 1.45,1.438 1.45,2.879 v 30.953 0 0 c 0,0.723 -0.72,0.723 -0.72,0.723 0,0 0,0 -0.73,0.719 l -0.71,0.719 c -0.72,0.722 -1.45,1.441 -2.16,1.441 0,0 0,0.719 -0.72,0.719 h -0.72 v 1.441 h 9.35 l 28.08,-30.238 v 0 l 1.44,-2.156"
         style="fill:#231f20;fill-opacity:1;fill-rule:evenodd;stroke:none"
         id="path46" /><path
         d="m 1603.2,365.195 c 0,4.321 -1.45,7.2 -2.88,9.36 -1.44,2.16 -3.61,3.601 -5.77,4.32 -0.71,0.719 -2.16,0.719 -2.87,0.719 -1.45,0.719 -2.88,0.719 -2.88,0.719 -5.04,-0.719 -8.64,-2.879 -10.8,-6.477 -2.16,-4.32 -3.6,-8.641 -3.6,-13.68 v 0 -0.718 c 0,-5.04 1.44,-9.36 3.6,-12.958 2.88,-4.32 6.48,-6.48 11.52,-6.48 3.6,0 7.19,1.441 9.36,3.598 2.87,2.882 4.32,6.48 5.03,10.8 h 1.45 V 340 h -1.45 l -1.44,3.598 c -0.72,-0.719 -2.15,-1.438 -3.59,-2.157 -0.72,-0.722 -2.17,-1.441 -3.61,-1.441 -0.72,0 -2.15,0 -3.59,0 -0.72,-0.719 -2.16,-0.719 -2.88,-0.719 -5.76,0 -10.8,1.438 -15.12,5.039 -4.32,3.598 -6.48,9.36 -6.48,15.836 0,0 0,1.442 0,2.16 0,0.719 0.72,1.442 0.72,2.161 0.72,4.32 2.88,7.918 5.76,11.519 3.6,3.598 7.92,5.039 13.68,5.758 2.16,0 4.32,0 5.76,-0.719 2.15,0 4.31,-0.722 5.76,-2.16 0.71,0 1.44,-0.719 1.44,-0.719 0.72,-0.722 1.43,-0.722 1.43,-1.441 l 1.45,2.879 h 1.43 v -14.399 z m -13.68,19.438 h -3.6 l -7.2,10.078 h 2.16 l 7.19,-6.477 7.2,6.477 h 2.16 l -7.91,-10.078"
         style="fill:#231f20;fill-opacity:1;fill-rule:evenodd;stroke:none"
         id="path48" /><path
         d="m 1652.87,348.641 v 25.914 c 0,1.441 0,2.879 -0.72,3.601 0,0.719 -2.16,1.438 -4.32,1.438 v 1.441 h 12.96 v -1.441 c -2.16,0 -3.6,0 -4.33,-0.719 -0.71,-1.441 -1.43,-2.16 -1.43,-2.879 0,-0.723 0,-0.723 0,-0.723 0,-0.718 0,-0.718 0,-1.437 v -30.238 0 V 340 h -1.44 l -28.8,29.516 v 0 l -3.6,4.32 V 344.32 c 0,-1.441 0.72,-2.16 1.44,-2.879 1.44,0 2.88,-0.722 4.32,-0.722 V 340 h -12.96 v 0.719 c 0.72,0 0.72,0 0.72,0 0.72,0 0.72,0 0.72,0 1.44,0 2.16,0.722 2.88,0.722 0.72,0.719 1.44,1.438 1.44,2.879 v 30.953 0 0 c 0,0.723 -0.72,0.723 -0.72,0.723 0,0 0,0 -0.72,0.719 l -0.72,0.719 c -0.72,0.722 -1.44,1.441 -2.16,1.441 0,0 0,0.719 -0.72,0.719 h -0.72 v 1.441 h 9.36 l 28.08,-30.238 v 0 l 1.44,-2.156"
         style="fill:#231f20;fill-opacity:1;fill-rule:evenodd;stroke:none"
         id="path50" /><path
         d="m 1683.82,375.996 -1.44,1.438 v 0 0 c 1.44,0.722 2.16,1.441 2.88,2.16 0.72,1.441 1.44,2.16 2.16,2.879 l 12.24,-30.235 v 0 l 2.88,-7.199 v 0 -0.719 c 0.72,-0.722 0.72,-1.441 1.44,-2.16 0.72,0 1.44,-0.719 2.88,-1.441 V 340 h -15.84 v 0.719 c 1.44,0 2.88,0.722 3.6,0.722 1.44,0 1.44,0.719 1.44,1.438 0,0.719 0,0.719 0,1.441 0,0 0,0.719 -0.72,1.438 l -3.6,10.078 h -13.68 l -4.31,-10.797 v -0.719 -0.722 c 0,-0.719 0,-1.438 0.71,-1.438 0.72,-0.719 2.17,-1.441 4.33,-1.441 V 340 h -11.52 v 0.719 c 1.43,0.722 2.16,1.441 2.87,1.441 0.72,0.719 0.72,1.438 1.45,2.16 0,0.719 0,0.719 0,1.438 0.71,0 0.71,0.722 0.71,0.722 z m 0.72,-2.16 -5.75,-16.559 h 12.23 z"
         style="fill:#231f20;fill-opacity:1;fill-rule:evenodd;stroke:none"
         id="path52" /><path
         d="m 1412.42,293.207 h 1.44 v 0 0 -0.719 0 c 0,-2.883 1.44,-5.761 2.88,-7.199 1.44,-2.16 3.6,-3.601 5.76,-4.32 0,0 0.72,0 1.44,0 0,0 0.72,0 1.44,0 v 0 0 0 h 0.72 c 0,0 0.72,0 1.44,0 0.72,0 0.72,0 1.44,0 1.44,0.719 2.88,1.437 3.6,2.16 1.44,1.437 2.16,3.598 2.16,6.476 0,2.161 -0.72,3.602 -1.44,4.321 -1.44,1.441 -2.88,2.16 -4.32,2.879 -0.72,0 -2.16,0.722 -2.88,0.722 -1.44,0 -2.16,0.719 -2.16,0.719 h -0.72 -0.72 c 0,0.719 -0.72,0.719 -0.72,0.719 -2.88,0.723 -5.04,2.16 -5.76,3.601 -1.44,1.438 -2.16,4.317 -2.16,7.918 0,2.879 0.72,5.758 2.16,7.2 2.16,1.437 3.6,2.879 5.76,3.597 0.72,0.723 1.44,0.723 2.16,0.723 0.72,0 1.44,0.719 2.16,0.719 0.72,0 0.72,0 0.72,0 0,0 0,0 0.72,0 0.72,-0.719 2.16,-0.719 2.88,-0.719 1.44,-0.723 2.16,-0.723 2.88,-1.441 0.72,0 1.44,-0.719 1.44,-0.719 0.72,0 1.44,-0.723 2.16,-1.442 l 1.44,2.161 h 0.72 v -12.958 h -0.72 c -0.72,4.321 -2.16,7.918 -4.32,10.079 -1.44,2.16 -4.32,3.597 -7.2,3.597 v 0 0 c -2.16,0 -4.32,-1.437 -5.76,-2.879 -1.44,-1.437 -2.16,-3.597 -2.88,-5.757 v -0.719 0 c 0,-1.442 0.72,-2.883 1.44,-4.321 0.72,-1.441 2.16,-2.16 4.32,-2.878 v 0 c 0.72,0 0.72,0 0.72,0 0.72,-0.723 2.16,-0.723 2.88,-0.723 0.72,-0.719 2.16,-0.719 2.88,-1.438 2.88,-0.722 5.04,-2.16 7.2,-3.601 2.16,-1.438 2.88,-4.32 2.88,-7.918 0,-3.598 -1.44,-7.199 -3.6,-8.641 -2.16,-1.437 -5.04,-2.156 -7.92,-2.156 -0.72,0 -0.72,0 -1.44,0 0,0 -0.72,0 -1.44,0 -2.16,0 -4.32,0 -6.48,0 -1.44,0.719 -2.88,1.438 -4.32,2.156 l -2.16,-2.156 h -0.72 v 12.957"
         style="fill:#231f20;fill-opacity:1;fill-rule:evenodd;stroke:none"
         id="path54" /><path
         d="m 1467.85,304.004 v 15.84 h -8.64 c -1.44,0 -2.16,-0.723 -2.87,-0.723 -0.73,0 -1.45,0 -2.16,-0.719 -0.73,-0.718 -0.73,-0.718 -1.45,-1.437 0,-0.723 -0.71,-0.723 -0.71,-1.442 l -2.88,-5.039 -0.73,0.719 1.45,11.52 c 0.71,0 0.71,-0.719 1.44,-0.719 h 0.72 c 0.71,0 1.43,-0.723 2.16,-0.723 0.71,0 2.16,0 2.87,0 h 27.36 c 0.72,0 1.44,0 2.16,0 0.72,0 1.44,0.723 2.16,0.723 0,0 0.72,0 1.44,0 0,0.719 0.72,0.719 0.72,0.719 l 2.88,-11.52 -0.72,-0.719 -4.32,6.481 -0.72,0.719 v 0 c -0.72,0.718 -1.44,1.437 -2.16,1.437 -0.72,0 -1.44,0.723 -2.88,0.723 h -8.64 v -17.278 -17.277 c 0,-2.16 0,-2.883 0.72,-3.601 1.44,0 2.88,-0.719 5.04,-0.719 v -0.719 h -18 v 0.719 c 2.88,0 5.04,0.719 5.04,1.437 0.72,0.723 0.72,1.442 0.72,2.883 v 0 0.719 17.996"
         style="fill:#231f20;fill-opacity:1;fill-rule:evenodd;stroke:none"
         id="path56" /><path
         d="m 1500.97,303.285 v 0 c 0,0.719 0,0.719 0,0.719 0.72,4.32 2.16,8.641 5.76,12.238 2.88,3.602 7.91,5.762 14.4,6.481 v 0 h 0.71 0.73 c 0,0 0,-0.719 0.72,-0.719 4.32,0 8.64,-2.16 12.23,-5.762 4.32,-2.879 6.48,-7.918 6.48,-14.398 v 0 c 0,-0.719 0,-0.719 0,-0.719 0,-5.758 -1.44,-10.797 -5.04,-15.117 -3.6,-4.32 -8.64,-5.758 -15.12,-5.758 h -0.71 v 0 c -5.76,0 -10.8,1.438 -13.68,4.316 -2.88,3.602 -5.04,7.2 -5.76,10.801 -0.72,1.438 -0.72,2.16 -0.72,2.879 0,0.719 0,2.16 0,2.16 0,0.719 0,1.438 0,1.438 0,0 0,0.722 0,1.441 z m 34.55,-0.719 c 0,5.039 -1.44,8.637 -2.88,10.797 -1.44,2.879 -3.6,5.039 -5.76,5.758 -0.72,0.723 -2.15,1.442 -2.88,1.442 -1.43,0 -2.87,0.718 -2.87,0.718 -4.33,-0.718 -7.92,-2.879 -10.08,-6.476 -2.16,-4.321 -3.6,-9.36 -3.6,-14.399 v 0 0 c 0,-4.32 0.72,-9.359 2.88,-12.957 2.88,-4.32 6.47,-6.48 11.51,-6.48 3.61,0 6.48,1.437 8.64,4.32 2.16,2.879 3.6,6.477 5.04,9.356 0,1.441 0,2.16 0,2.882 0,0.719 0,2.161 0,2.879 v 0.719 c 0,0.719 0,0.719 0,1.441"
         style="fill:#231f20;fill-opacity:1;fill-rule:evenodd;stroke:none"
         id="path58" /><path
         d="m 1553.52,308.324 v 7.199 c 0,2.161 0,3.598 -0.72,3.598 0,0 -1.44,0.723 -2.88,0.723 h -0.72 v 0 1.437 h 17.28 c 4.32,0 7.92,-0.718 10.08,-2.879 2.88,-1.437 4.32,-3.597 5.04,-6.476 0,0 0,-0.723 0,-1.442 v -0.718 c 0,-4.321 -1.44,-7.2 -3.6,-8.641 -2.16,-1.437 -5.04,-2.879 -7.92,-2.879 -0.72,0 -2.16,0 -2.88,0 -0.72,0 -2.16,-0.719 -2.88,-0.719 -0.72,0 -0.72,0 -1.44,0 h -0.72 c -0.72,0 -1.44,0 -1.44,0 H 1560 v -10.8 c 0,-2.879 0.72,-4.321 0.72,-4.321 1.44,-0.718 2.88,-1.437 5.04,-1.437 v -0.719 h -15.84 v 0.719 c 2.16,0 2.88,0.719 3.6,1.437 0,0 0,1.442 0,2.883 0,0.719 0,0.719 0,0.719 0,0.719 0,0.719 0,0.719 z m 21.6,1.442 c 0,2.879 -0.72,5.757 -2.16,7.199 -1.44,1.437 -2.88,2.156 -4.32,2.879 -0.72,0 -1.44,0 -1.44,0 -0.72,0 -1.44,0 -1.44,0 -2.88,0 -4.32,0 -5.04,-0.723 -0.72,-0.719 -0.72,-2.156 -0.72,-4.316 v -15.84 c 0.72,0 0.72,0 1.44,0 0.72,0 1.44,0 1.44,0 4.32,0 7.2,0.723 8.64,2.16 2.16,1.441 2.88,4.32 3.6,8.641"
         style="fill:#231f20;fill-opacity:1;fill-rule:evenodd;stroke:none"
         id="path60" /><path
         d="m 1628.39,288.887 v 25.918 c 0,1.437 0,2.879 -0.72,3.597 0,0.719 -2.16,1.442 -4.32,1.442 v 1.437 h 12.96 v -1.437 c -2.16,0 -3.6,0 -4.32,-0.723 -0.72,-1.437 -1.44,-2.156 -1.44,-2.879 0,-0.719 0,-0.719 0,-0.719 0,-0.718 0,-0.718 0,-1.441 v -30.234 0 -3.598 h -1.44 l -28.79,29.516 v 0 l -3.61,4.316 v -29.516 c 0,-1.437 0.72,-2.16 1.45,-2.878 1.43,0 2.88,-0.719 4.31,-0.719 v -0.719 h -12.95 v 0.719 c 0.71,0 0.71,0 0.71,0 0.73,0 0.73,0 0.73,0 1.43,0 2.16,0.719 2.88,0.719 0.71,0.718 1.43,1.441 1.43,2.878 v 30.957 0 0 c 0,0.719 -0.72,0.719 -0.72,0.719 0,0 0,0 -0.71,0.723 l -0.72,0.719 c -0.73,0.718 -1.44,1.437 -2.16,1.437 0,0 0,0.723 -0.73,0.723 h -0.71 v 1.437 h 9.36 l 28.07,-30.234 v 0 l 1.44,-2.16"
         style="fill:#231f20;fill-opacity:1;fill-rule:evenodd;stroke:none"
         id="path62" /><path
         d="m 1652.15,306.883 v 7.199 c 0,2.16 -0.72,3.602 -1.44,4.32 -1.44,0.719 -2.16,1.442 -2.88,1.442 h -0.72 -0.72 v 1.437 h 16.56 v -1.437 c -2.16,0 -3.6,0 -4.32,-0.723 -0.72,-1.437 -0.72,-2.879 -0.72,-5.039 v -26.633 c 0,-5.043 -0.72,-7.922 -2.16,-10.801 -0.72,-2.878 -2.88,-5.039 -5.04,-5.757 -0.72,0 -1.44,0 -2.16,0 -0.72,0 -1.44,0 -1.44,0 -0.72,0 -1.44,0 -2.16,0 -0.72,0 -1.44,0.718 -1.44,1.437 -0.72,0 -0.72,0.723 -0.72,0.723 0,0.719 0,0.719 0,1.437 v 0 0 c 0,0.723 0,1.442 0,2.16 0.72,0.719 1.44,1.442 2.16,1.442 0.72,0 1.44,-0.723 2.16,-0.723 0,-0.719 0.72,-1.437 0.72,-2.156 v 0 0 c 0,-0.723 0.72,-0.723 0.72,-1.441 l 0.72,-0.719 c 1.44,-0.723 1.44,-0.723 2.16,0 0,0.719 0.72,2.16 0.72,3.597 v 30.235 0"
         style="fill:#231f20;fill-opacity:1;fill-rule:evenodd;stroke:none"
         id="path64" /><path
         d="m 1686.7,316.242 -1.44,1.442 v 0 0 c 1.44,0.718 2.16,1.437 2.88,2.16 0.72,1.437 1.44,2.16 2.16,2.879 l 12.24,-30.235 v 0 l 2.88,-7.199 v 0 -0.723 c 0.72,-0.718 0.72,-1.437 1.44,-2.16 0.72,0 1.44,-0.718 2.88,-1.437 v -0.719 h -15.84 v 0.719 c 1.44,0 2.88,0.719 3.6,0.719 1.44,0 1.44,0.718 1.44,1.441 0,0.719 0,0.719 0,1.437 0,0 0,0.723 -0.72,1.442 l -3.6,10.078 h -13.68 l -4.31,-10.797 v -0.723 -0.718 c 0,-0.719 0,-1.442 0.71,-1.442 0.72,-0.718 2.16,-1.437 4.32,-1.437 v -0.719 h -11.52 v 0.719 c 1.45,0.719 2.16,1.437 2.88,1.437 0.73,0.723 0.73,1.442 1.44,2.16 0,0.723 0,0.723 0,1.442 0.72,0 0.72,0.719 0.72,0.719 z m 0.72,-2.16 -5.76,-16.555 h 12.24 z"
         style="fill:#231f20;fill-opacity:1;fill-rule:evenodd;stroke:none"
         id="path66" /><path
         d="M 743.898,491.301 H 1198.2 V 206.898 H 743.898 Z"
         style="fill:none;stroke:#231f20;stroke-width:8.6;stroke-linecap:butt;stroke-linejoin:miter;stroke-miterlimit:11.4737;stroke-dasharray:none;stroke-opacity:1"
         id="path68" /><path
         d="m 820.262,363.035 v 12.238 c 0,1.442 -0.723,2.161 -0.723,3.602 -0.719,0.719 -2.156,0.719 -4.316,0.719 v 1.441 H 832.5 v -1.441 c -2.16,0 -3.602,0 -4.32,-1.438 -1.442,-0.722 -2.16,-2.16 -2.16,-4.32 v -28.078 c 0,-2.16 0.718,-3.598 2.16,-4.317 0.718,0 2.16,-0.722 2.879,-0.722 h 0.718 v 0 0 0 h 7.922 c 2.879,0 5.039,1.441 6.477,2.879 1.441,2.16 2.883,4.32 4.32,6.48 0.719,0 0.719,0.719 0.719,1.442 0.723,0 0.723,0.718 1.441,1.437 h 1.442 L 849.777,340 h -30.238 v 0 h -4.316 v 0.719 h 0.718 0.719 0.723 c 0,0 0,0 0.719,0 0.718,0 1.437,0.722 1.437,0.722 0,0.719 0.723,1.438 0.723,3.598 v 17.996"
         style="fill:#231f20;fill-opacity:1;fill-rule:evenodd;stroke:none"
         id="path70" /><path
         d="m 863.453,363.035 v 0 c 0,0.723 0,0.723 0,0.723 0.723,4.316 2.16,8.637 5.762,12.238 2.879,3.598 7.918,5.758 14.398,6.477 v 0 h 0.719 0.719 c 0,0 0,-0.719 0.722,-0.719 4.317,0 8.637,-2.16 12.239,-5.758 4.316,-2.879 6.476,-7.922 6.476,-14.398 v 0 c 0,-0.719 0,-0.719 0,-0.719 0,-5.762 -1.437,-10.801 -5.039,-15.121 C 895.852,341.441 890.813,340 884.332,340 h -0.719 v 0 c -5.761,0 -10.8,1.441 -13.679,4.32 -2.879,3.598 -5.039,7.2 -5.758,10.797 -0.723,1.442 -0.723,2.16 -0.723,2.879 0,0.723 0,2.16 0,2.16 0,0.723 0,1.442 0,1.442 0,0 0,0.718 0,1.437 z m 34.559,-0.719 c 0,5.039 -1.442,8.641 -2.883,10.801 -1.438,2.879 -3.598,5.039 -5.758,5.758 -0.719,0.719 -2.16,1.438 -2.879,1.438 -1.441,0 -2.879,0.722 -2.879,0.722 -4.32,-0.722 -7.922,-2.879 -10.078,-6.48 -2.16,-4.321 -3.601,-9.36 -3.601,-14.399 v 0 0 c 0,-4.32 0.718,-9.359 2.879,-12.957 2.878,-4.32 6.48,-6.48 11.519,-6.48 3.598,0 6.481,1.441 8.641,4.32 2.156,2.879 3.597,6.481 5.039,9.359 0,1.438 0,2.161 0,2.879 0,0.719 0,2.161 0,2.879 v 0.723 c 0,0.719 0,0.719 0,1.437"
         style="fill:#231f20;fill-opacity:1;fill-rule:evenodd;stroke:none"
         id="path72" /><path
         d="m 948.402,365.195 c 0,4.321 -1.437,7.2 -2.879,9.36 -1.441,2.16 -3.597,3.601 -5.757,4.32 -0.723,0.719 -2.161,0.719 -2.883,0.719 -1.438,0.719 -2.879,0.719 -2.879,0.719 -5.039,-0.719 -8.637,-2.879 -10.797,-6.477 -2.16,-4.32 -3.602,-8.641 -3.602,-13.68 v 0 -0.718 c 0,-5.04 1.442,-9.36 3.602,-12.958 2.879,-4.32 6.481,-6.48 11.52,-6.48 3.597,0 7.199,1.441 9.355,3.598 2.883,2.882 4.32,6.48 5.039,10.8 h 1.442 V 340 h -1.442 l -1.437,3.598 c -0.719,-0.719 -2.161,-1.438 -3.602,-2.157 -0.719,-0.722 -2.156,-1.441 -3.598,-1.441 -0.718,0 -2.16,0 -3.601,0 -0.719,-0.719 -2.156,-0.719 -2.879,-0.719 -5.758,0 -10.797,1.438 -15.117,5.039 -4.321,3.598 -6.481,9.36 -6.481,15.836 0,0 0,1.442 0,2.16 0,0.719 0.723,1.442 0.723,2.161 0.719,4.32 2.879,7.918 5.758,11.519 3.601,3.598 7.918,5.039 13.679,5.758 2.161,0 4.317,0 5.758,-0.719 2.16,0 4.321,-0.722 5.758,-2.16 0.723,0 1.441,-0.719 1.441,-0.719 0.719,-0.722 1.442,-0.722 1.442,-1.441 l 1.437,2.879 h 1.442 v -14.399 z m -13.675,19.438 h -3.602 l -7.199,10.078 h 2.16 l 7.199,-6.477 7.199,6.477 h 2.161 l -7.918,-10.078"
         style="fill:#231f20;fill-opacity:1;fill-rule:evenodd;stroke:none"
         id="path74" /><path
         d="m 966.402,363.758 v 10.078 c 0,2.16 0,3.598 -0.722,5.039 -0.719,0.719 -2.16,0.719 -5.039,0.719 v 1.441 h 18 v -1.441 c -2.161,0 -3.602,0 -5.043,-0.719 -0.719,-0.719 -0.719,-2.16 -0.719,-5.039 v -28.797 c 0,-2.16 0,-2.879 0.719,-3.598 1.441,0 2.882,-0.722 5.043,-0.722 V 340 h -18 v 0.719 0 0 h 0.718 v 0 c 1.442,0 2.883,0 3.602,0.722 0.719,0 1.441,1.438 1.441,3.598 v 18.719"
         style="fill:#231f20;fill-opacity:1;fill-rule:evenodd;stroke:none"
         id="path76" /><path
         d="m 993.035,363.035 v 12.238 c 0,1.442 -0.719,2.161 -0.719,3.602 -0.718,0.719 -2.16,0.719 -4.32,0.719 v 1.441 h 17.274 v -1.441 c -2.15,0 -3.59,0 -4.31,-1.438 -1.444,-0.722 -2.163,-2.16 -2.163,-4.32 v -28.078 c 0,-2.16 0.719,-3.598 2.163,-4.317 0.72,0 2.16,-0.722 2.88,-0.722 h 0.71 v 0 0 0 h 7.92 c 2.89,0 5.04,1.441 6.48,2.879 1.44,2.16 2.88,4.32 4.32,6.48 0.72,0 0.72,0.719 0.72,1.442 0.72,0 0.72,0.718 1.44,1.437 h 1.44 L 1022.55,340 h -30.234 v 0 h -4.32 v 0.719 h 0.723 0.719 0.718 c 0,0 0,0 0.723,0 0.719,0 1.437,0.722 1.437,0.722 0,0.719 0.719,1.438 0.719,3.598 v 17.996"
         style="fill:#231f20;fill-opacity:1;fill-rule:evenodd;stroke:none"
         id="path78" /><path
         d="m 1072.95,348.641 v 25.914 c 0,1.441 0,2.879 -0.72,3.601 0,0.719 -2.16,1.438 -4.32,1.438 v 1.441 h 12.95 v -1.441 c -2.16,0 -3.59,0 -4.31,-0.719 -0.73,-1.441 -1.44,-2.16 -1.44,-2.879 0,-0.723 0,-0.723 0,-0.723 0,-0.718 0,-0.718 0,-1.437 v -30.238 0 V 340 h -1.45 l -28.79,29.516 v 0 l -3.6,4.32 V 344.32 c 0,-1.441 0.72,-2.16 1.44,-2.879 1.44,0 2.88,-0.722 4.32,-0.722 V 340 h -12.96 v 0.719 c 0.72,0 0.72,0 0.72,0 0.72,0 0.72,0 0.72,0 1.44,0 2.16,0.722 2.88,0.722 0.72,0.719 1.44,1.438 1.44,2.879 v 30.953 0 0 c 0,0.723 -0.72,0.723 -0.72,0.723 0,0 0,0 -0.72,0.719 l -0.72,0.719 c -0.72,0.722 -1.44,1.441 -2.16,1.441 0,0 0,0.719 -0.72,0.719 h -0.72 v 1.441 h 9.36 l 28.08,-30.238 v 0 l 1.44,-2.156"
         style="fill:#231f20;fill-opacity:1;fill-rule:evenodd;stroke:none"
         id="path80" /><path
         d="m 1103.9,375.996 -1.44,1.438 v 0 0 c 1.44,0.722 2.16,1.441 2.88,2.16 0.72,1.441 1.44,2.16 2.16,2.879 l 12.24,-30.235 v 0 l 2.88,-7.199 v 0 -0.719 c 0.72,-0.722 0.72,-1.441 1.44,-2.16 0.72,0 1.44,-0.719 2.88,-1.441 V 340 h -15.84 v 0.719 c 1.44,0 2.88,0.722 3.6,0.722 1.44,0 1.44,0.719 1.44,1.438 0,0.719 0,0.719 0,1.441 0,0 0,0.719 -0.72,1.438 l -3.6,10.078 h -13.68 l -4.32,-10.797 v -0.719 -0.722 c 0,-0.719 0,-1.438 0.72,-1.438 0.72,-0.719 2.16,-1.441 4.32,-1.441 V 340 h -11.52 v 0.719 c 1.45,0.722 2.16,1.441 2.88,1.441 0.72,0.719 0.72,1.438 1.44,2.16 0,0.719 0,0.719 0,1.438 0.72,0 0.72,0.722 0.72,0.722 z m 0.72,-2.16 -5.76,-16.559 h 12.24 z"
         style="fill:#231f20;fill-opacity:1;fill-rule:evenodd;stroke:none"
         id="path82" /><path
         d="m 822.422,293.207 h 1.437 v 0 0 -0.719 0 c 0,-2.883 1.442,-5.761 2.879,-7.199 1.442,-2.16 3.602,-3.601 5.762,-4.32 0,0 0.719,0 1.438,0 0,0 0.722,0 1.441,0 v 0 0 0 h 0.719 c 0,0 0.722,0 1.441,0 0.719,0 0.719,0 1.438,0 1.441,0.719 2.882,1.437 3.601,2.16 1.438,1.437 2.16,3.598 2.16,6.476 0,2.161 -0.722,3.602 -1.441,4.321 -1.438,1.441 -2.879,2.16 -4.32,2.879 -0.719,0 -2.157,0.722 -2.879,0.722 -1.438,0 -2.16,0.719 -2.16,0.719 h -0.719 -0.719 c 0,0.719 -0.723,0.719 -0.723,0.719 -2.879,0.723 -5.039,2.16 -5.757,3.601 -1.438,1.438 -2.161,4.317 -2.161,7.918 0,2.879 0.723,5.758 2.161,7.2 2.16,1.437 3.601,2.879 5.757,3.597 0.723,0.723 1.442,0.723 2.161,0.723 0.722,0 1.441,0.719 2.16,0.719 0.722,0 0.722,0 0.722,0 0,0 0,0 0.719,0 0.719,-0.719 2.16,-0.719 2.879,-0.719 1.441,-0.723 2.16,-0.723 2.879,-1.441 0.719,0 1.441,-0.719 1.441,-0.719 0.719,0 1.438,-0.723 2.16,-1.442 l 1.438,2.161 h 0.723 v -12.958 h -0.723 c -0.719,4.321 -2.16,7.918 -4.32,10.079 -1.438,2.16 -4.317,3.597 -7.196,3.597 v 0 0 c -2.16,0 -4.32,-1.437 -5.761,-2.879 -1.438,-1.437 -2.161,-3.597 -2.879,-5.757 v -0.719 0 c 0,-1.442 0.718,-2.883 1.441,-4.321 0.719,-1.441 2.156,-2.16 4.317,-2.878 v 0 c 0.722,0 0.722,0 0.722,0 0.719,-0.723 2.16,-0.723 2.879,-0.723 0.719,-0.719 2.16,-0.719 2.879,-1.438 2.879,-0.722 5.039,-2.16 7.199,-3.601 2.16,-1.438 2.879,-4.32 2.879,-7.918 0,-3.598 -1.437,-7.199 -3.598,-8.641 -2.16,-1.437 -5.039,-2.156 -7.921,-2.156 -0.719,0 -0.719,0 -1.438,0 0,0 -0.719,0 -1.441,0 -2.16,0 -4.321,0 -6.477,0 -1.441,0.719 -2.883,1.438 -4.32,2.156 l -2.16,-2.156 h -0.719 v 12.957"
         style="fill:#231f20;fill-opacity:1;fill-rule:evenodd;stroke:none"
         id="path84" /><path
         d="m 877.852,304.004 v 15.84 h -8.637 c -1.442,0 -2.16,-0.723 -2.879,-0.723 -0.723,0 -1.441,0 -2.16,-0.719 -0.723,-0.718 -0.723,-0.718 -1.442,-1.437 0,-0.723 -0.718,-0.723 -0.718,-1.442 l -2.879,-5.039 -0.723,0.719 1.441,11.52 c 0.719,0 0.719,-0.719 1.442,-0.719 h 0.719 c 0.718,0 1.437,-0.723 2.16,-0.723 0.719,0 2.16,0 2.879,0 h 27.355 c 0.719,0 1.442,0 2.16,0 0.719,0 1.442,0.723 2.16,0.723 0,0 0.719,0 1.438,0 0,0.719 0.723,0.719 0.723,0.719 l 2.879,-11.52 -0.719,-0.719 -4.321,6.481 -0.718,0.719 v 0 c -0.723,0.718 -1.442,1.437 -2.16,1.437 -0.723,0 -1.442,0.723 -2.879,0.723 h -8.641 v -17.278 -17.277 c 0,-2.16 0,-2.883 0.719,-3.601 1.441,0 2.879,-0.719 5.039,-0.719 v -0.719 h -17.996 v 0.719 c 2.879,0 5.039,0.719 5.039,1.437 0.719,0.723 0.719,1.442 0.719,2.883 v 0 0.719 17.996"
         style="fill:#231f20;fill-opacity:1;fill-rule:evenodd;stroke:none"
         id="path86" /><path
         d="m 910.969,303.285 v 0 c 0,0.719 0,0.719 0,0.719 0.719,4.32 2.16,8.641 5.758,12.238 2.878,3.602 7.918,5.762 14.398,6.481 v 0 h 0.719 0.722 c 0,0 0,-0.719 0.719,-0.719 4.32,0 8.641,-2.16 12.238,-5.762 4.321,-2.879 6.481,-7.918 6.481,-14.398 v 0 c 0,-0.719 0,-0.719 0,-0.719 0,-5.758 -1.441,-10.797 -5.039,-15.117 -3.602,-4.32 -8.641,-5.758 -15.121,-5.758 h -0.719 v 0 c -5.758,0 -10.797,1.438 -13.676,4.316 -2.883,3.602 -5.043,7.2 -5.761,10.801 -0.719,1.438 -0.719,2.16 -0.719,2.879 0,0.719 0,2.16 0,2.16 0,0.719 0,1.438 0,1.438 0,0 0,0.722 0,1.441 z m 34.554,-0.719 c 0,5.039 -1.441,8.637 -2.878,10.797 -1.442,2.879 -3.602,5.039 -5.762,5.758 -0.719,0.723 -2.156,1.442 -2.879,1.442 -1.438,0 -2.879,0.718 -2.879,0.718 -4.32,-0.718 -7.918,-2.879 -10.078,-6.476 -2.16,-4.321 -3.598,-9.36 -3.598,-14.399 v 0 0 c 0,-4.32 0.719,-9.359 2.879,-12.957 2.879,-4.32 6.477,-6.48 11.516,-6.48 3.601,0 6.48,1.437 8.64,4.32 2.161,2.879 3.598,6.477 5.039,9.356 0,1.441 0,2.16 0,2.882 0,0.719 0,2.161 0,2.879 v 0.719 c 0,0.719 0,0.719 0,1.441"
         style="fill:#231f20;fill-opacity:1;fill-rule:evenodd;stroke:none"
         id="path88" /><path
         d="m 963.52,308.324 v 7.199 c 0,2.161 0,3.598 -0.719,3.598 0,0 -1.442,0.723 -2.879,0.723 h -0.719 v 0 1.437 h 17.277 c 4.317,0 7.918,-0.718 10.079,-2.879 2.879,-1.437 4.32,-3.597 5.039,-6.476 0,0 0,-0.723 0,-1.442 v -0.718 c 0,-4.321 -1.442,-7.2 -3.602,-8.641 -2.16,-1.437 -5.039,-2.879 -7.918,-2.879 -0.719,0 -2.16,0 -2.879,0 -0.719,0 -2.16,-0.719 -2.879,-0.719 -0.722,0 -0.722,0 -1.441,0 h -0.719 c -0.719,0 -1.441,0 -1.441,0 H 970 v -10.8 c 0,-2.879 0.719,-4.321 0.719,-4.321 1.441,-0.718 2.879,-1.437 5.039,-1.437 v -0.719 h -15.836 v 0.719 c 2.16,0 2.879,0.719 3.598,1.437 0,0 0,1.442 0,2.883 0,0.719 0,0.719 0,0.719 0,0.719 0,0.719 0,0.719 z m 21.597,1.442 c 0,2.879 -0.719,5.757 -2.16,7.199 -1.437,1.437 -2.879,2.156 -4.316,2.879 -0.723,0 -1.442,0 -1.442,0 -0.719,0 -1.441,0 -1.441,0 -2.879,0 -4.317,0 -5.039,-0.723 C 970,318.402 970,316.965 970,314.805 v -15.84 c 0.719,0 0.719,0 1.441,0 0.719,0 1.438,0 1.438,0 4.32,0 7.199,0.723 8.641,2.16 2.16,1.441 2.878,4.32 3.597,8.641"
         style="fill:#231f20;fill-opacity:1;fill-rule:evenodd;stroke:none"
         id="path90" /><path
         d="m 1038.39,288.887 v 25.918 c 0,1.437 0,2.879 -0.72,3.597 0,0.719 -2.16,1.442 -4.32,1.442 v 1.437 h 12.96 v -1.437 c -2.16,0 -3.6,0 -4.32,-0.723 -0.72,-1.437 -1.44,-2.156 -1.44,-2.879 0,-0.719 0,-0.719 0,-0.719 0,-0.718 0,-0.718 0,-1.441 v -30.234 0 -3.598 h -1.44 l -28.8,29.516 v 0 l -3.6,4.316 v -29.516 c 0,-1.437 0.72,-2.16 1.45,-2.878 1.43,0 2.88,-0.719 4.31,-0.719 v -0.719 h -12.954 v 0.719 c 0.714,0 0.714,0 0.714,0 0.73,0 0.73,0 0.73,0 1.43,0 2.16,0.719 2.88,0.719 0.71,0.718 1.43,1.441 1.43,2.878 v 30.957 0 0 c 0,0.719 -0.72,0.719 -0.72,0.719 0,0 0,0 -0.71,0.723 l -0.72,0.719 c -0.73,0.718 -1.44,1.437 -2.16,1.437 0,0 0,0.723 -0.73,0.723 h -0.714 v 1.437 h 9.364 l 28.07,-30.234 v 0 l 1.44,-2.16"
         style="fill:#231f20;fill-opacity:1;fill-rule:evenodd;stroke:none"
         id="path92" /><path
         d="m 1062.15,306.883 v 7.199 c 0,2.16 -0.72,3.602 -1.44,4.32 -1.44,0.719 -2.16,1.442 -2.88,1.442 h -0.72 -0.72 v 1.437 h 16.56 v -1.437 c -2.16,0 -3.6,0 -4.32,-0.723 -0.72,-1.437 -0.72,-2.879 -0.72,-5.039 v -26.633 c 0,-5.043 -0.72,-7.922 -2.16,-10.801 -0.72,-2.878 -2.88,-5.039 -5.04,-5.757 -0.72,0 -1.44,0 -2.16,0 -0.72,0 -1.44,0 -1.44,0 -0.72,0 -1.44,0 -2.16,0 -0.72,0 -1.44,0.718 -1.44,1.437 -0.72,0 -0.72,0.723 -0.72,0.723 0,0.719 0,0.719 0,1.437 v 0 0 c 0,0.723 0,1.442 0,2.16 0.72,0.719 1.44,1.442 2.16,1.442 0.72,0 1.44,-0.723 2.16,-0.723 0,-0.719 0.72,-1.437 0.72,-2.156 v 0 0 c 0,-0.723 0.72,-0.723 0.72,-1.441 l 0.72,-0.719 c 1.44,-0.723 1.44,-0.723 2.16,0 0,0.719 0.72,2.16 0.72,3.597 v 30.235 0"
         style="fill:#231f20;fill-opacity:1;fill-rule:evenodd;stroke:none"
         id="path94" /><path
         d="m 1096.7,316.242 -1.44,1.442 v 0 0 c 1.44,0.718 2.16,1.437 2.88,2.16 0.72,1.437 1.44,2.16 2.16,2.879 l 12.24,-30.235 v 0 l 2.88,-7.199 v 0 -0.723 c 0.72,-0.718 0.72,-1.437 1.44,-2.16 0.72,0 1.44,-0.718 2.88,-1.437 v -0.719 h -15.84 v 0.719 c 1.44,0 2.88,0.719 3.6,0.719 1.44,0 1.44,0.718 1.44,1.441 0,0.719 0,0.719 0,1.437 0,0 0,0.723 -0.72,1.442 l -3.6,10.078 h -13.68 l -4.31,-10.797 v -0.723 -0.718 c 0,-0.719 0,-1.442 0.71,-1.442 0.72,-0.718 2.16,-1.437 4.32,-1.437 v -0.719 h -11.52 v 0.719 c 1.45,0.719 2.16,1.437 2.88,1.437 0.73,0.723 0.73,1.442 1.44,2.16 0,0.723 0,0.723 0,1.442 0.72,0 0.72,0.719 0.72,0.719 z m 0.72,-2.16 -5.76,-16.555 h 12.24 z"
         style="fill:#231f20;fill-opacity:1;fill-rule:evenodd;stroke:none"
         id="path96" /><path
         d="m 1793.7,348.699 h 141.8 v 247.703"
         style="fill:none;stroke:#231f20;stroke-width:5.8;stroke-linecap:butt;stroke-linejoin:miter;stroke-miterlimit:11.4737;stroke-dasharray:none;stroke-opacity:1"
         id="path98" /><path
         d="M 1935.5,632.398 1915.4,552.5 c 12.9,10.801 27.3,10.801 40.3,0 l -20.2,79.898"
         style="fill:#231f20;fill-opacity:1;fill-rule:evenodd;stroke:none"
         id="path100" /><path
         d="M 1304.1,348.699 H 1198.2"
         style="fill:none;stroke:#231f20;stroke-width:5.8;stroke-linecap:butt;stroke-linejoin:miter;stroke-miterlimit:11.4737;stroke-dasharray:none;stroke-opacity:1"
         id="path102" /><path
         d="m 1340.1,348.699 -79.9,-20.097 c 10.8,12.898 10.8,27.3 0,40.3 l 79.9,-20.203"
         style="fill:#231f20;fill-opacity:1;fill-rule:evenodd;stroke:none"
         id="path104" /><path
         d="M 708.602,348.699 H 602.801"
         style="fill:none;stroke:#231f20;stroke-width:5.8;stroke-linecap:butt;stroke-linejoin:miter;stroke-miterlimit:11.4737;stroke-dasharray:none;stroke-opacity:1"
         id="path106" /><path
         d="m 744.602,348.699 -79.903,-20.097 c 10.801,12.898 10.801,27.3 0,40.3 l 79.903,-20.203"
         style="fill:#231f20;fill-opacity:1;fill-rule:evenodd;stroke:none"
         id="path108" /><path
         d="m 890.102,572.602 c 7.199,0 13.699,-6.403 13.699,-14.403 0,-7.898 -6.5,-14.398 -13.699,-14.398 -7.204,0 -13.704,6.5 -13.704,14.398 0,8 6.5,14.403 13.704,14.403 z"
         style="fill:none;stroke:#231f20;stroke-width:5.8;stroke-linecap:butt;stroke-linejoin:miter;stroke-miterlimit:11.4737;stroke-dasharray:none;stroke-opacity:1"
         id="path110" /><path
         d="M 876.398,557.5 H 819.5 V 487"
         style="fill:none;stroke:#231f20;stroke-width:5.8;stroke-linecap:butt;stroke-linejoin:miter;stroke-miterlimit:11.4737;stroke-dasharray:none;stroke-opacity:1"
         id="path112" /><path
         d="M 1046.3,571.898 V 557.5 h 56.9 V 487"
         style="fill:none;stroke:#231f20;stroke-width:5.8;stroke-linecap:butt;stroke-linejoin:miter;stroke-miterlimit:11.4737;stroke-dasharray:none;stroke-opacity:1"
         id="path114" /><path
         d="M 904.5,557.5 1046.3,600"
         style="fill:none;stroke:#231f20;stroke-width:14.4;stroke-linecap:round;stroke-linejoin:miter;stroke-miterlimit:11.4737;stroke-dasharray:none;stroke-opacity:1"
         id="path116" /><path
         d="m 1029,599.301 2.9,30.199 -25.9,-8.598 z"
         style="fill:none;stroke:#231f20;stroke-width:5.8;stroke-linecap:butt;stroke-linejoin:miter;stroke-miterlimit:11.4737;stroke-dasharray:none;stroke-opacity:1"
         id="path118" /></g></g></svg>
