<?xml version="1.0" encoding="UTF-8" standalone="no"?>
<!-- Created with Inkscape (http://www.inkscape.org/) -->

<svg
   version="1.1"
   id="svg2"
   xml:space="preserve"
   width="214.66667"
   height="214.66667"
   viewBox="0 0 214.66667 214.66667"
   xmlns="http://www.w3.org/2000/svg"
   xmlns:svg="http://www.w3.org/2000/svg"><defs
     id="defs6" /><g
     id="g8"
     transform="matrix(1.3333333,0,0,-1.3333333,0,214.66667)"><g
       id="g10"
       transform="scale(0.1)"><path
         d="M 95.8984,91.8008 H 1514.3 V 1510.9 H 95.8984 Z"
         style="fill:none;stroke:#231f20;stroke-width:11.5;stroke-linecap:butt;stroke-linejoin:miter;stroke-miterlimit:11.4737;stroke-dasharray:none;stroke-opacity:1"
         id="path12" /><path
         d="M 379.602,543.898 V 997.5 H 493.398 V 543.898 Z"
         style="fill:none;stroke:#231f20;stroke-width:14.4;stroke-linecap:butt;stroke-linejoin:miter;stroke-miterlimit:11.4737;stroke-dasharray:none;stroke-opacity:1"
         id="path14" /><path
         d="M 1116.9,233.602 H 662.602 V 347.398 H 1116.9 Z"
         style="fill:none;stroke:#231f20;stroke-width:14.4;stroke-linecap:butt;stroke-linejoin:miter;stroke-miterlimit:11.4737;stroke-dasharray:none;stroke-opacity:1"
         id="path16" /><path
         d="m 861.301,1084.6 v 283.7"
         style="fill:none;stroke:#231f20;stroke-width:14.4;stroke-linecap:butt;stroke-linejoin:miter;stroke-miterlimit:11.4737;stroke-dasharray:none;stroke-opacity:1"
         id="path18" /><path
         d="m 918.199,1169.6 v 113"
         style="fill:none;stroke:#231f20;stroke-width:20.2;stroke-linecap:butt;stroke-linejoin:miter;stroke-miterlimit:11.4737;stroke-dasharray:none;stroke-opacity:1"
         id="path20" /><path
         d="m 795.449,1273.76 h 15.836 l 0.004,15.12 h 3.598 v -15.12 h 15.117 v -5.04 h -15.121 v -15.12 h -3.602 l 0.004,15.12 h -15.836 v 5.04"
         style="fill:#231f20;fill-opacity:1;fill-rule:evenodd;stroke:none"
         id="path22" /><path
         d="m 795.449,1273.76 h 15.836 l 0.004,15.12 h 3.598 v -15.12 h 15.117 v -5.04 h -15.121 v -15.12 h -3.602 l 0.004,15.12 h -15.836 z"
         style="fill:none;stroke:#231f20;stroke-width:2.9;stroke-linecap:butt;stroke-linejoin:miter;stroke-miterlimit:11.4737;stroke-dasharray:none;stroke-opacity:1"
         id="path24" /><path
         d="m 949.125,1252.88 v 20.16 h 5.762 l -0.004,-20.16 h -5.758"
         style="fill:#231f20;fill-opacity:1;fill-rule:evenodd;stroke:none"
         id="path26" /><path
         d="m 949.125,1252.88 v 20.16 h 5.762 l -0.004,-20.16 z"
         style="fill:none;stroke:#231f20;stroke-width:2.9;stroke-linecap:butt;stroke-linejoin:miter;stroke-miterlimit:11.4737;stroke-dasharray:none;stroke-opacity:1"
         id="path28" /><path
         d="m 435.801,999 v 226.8 L 862,1226.5"
         style="fill:none;stroke:#231f20;stroke-width:8.6;stroke-linecap:butt;stroke-linejoin:miter;stroke-miterlimit:11.4737;stroke-dasharray:none;stroke-opacity:1"
         id="path30" /><path
         d="M 436.5,546.102 V 291.199 h 226.801"
         style="fill:none;stroke:#231f20;stroke-width:8.6;stroke-linecap:butt;stroke-linejoin:miter;stroke-miterlimit:11.4737;stroke-dasharray:none;stroke-opacity:1"
         id="path32" /><path
         d="m 1025.2,1339.03 c 0,2.88 0,5.04 -0.72,5.04 -0.72,0.72 -1.44,1.44 -2.88,1.44 -0.72,0 -1.44,0 -1.44,0 l -0.72,0.72 -6.48,0.72 v 2.88 c 1.44,0 2.88,0 4.32,0.72 2.16,0.72 4.32,2.16 6.48,2.88 1.44,0.72 3.6,2.16 5.04,3.6 0.72,1.44 2.88,2.88 3.59,4.32 h 2.88 v -61.91 0 -5.04 c 0,-5.76 0.73,-9.36 1.44,-10.08 0.72,-1.44 3.61,-1.44 7.2,-1.44 0.72,0 1.45,0 1.45,0 h 0.71 V 1280 h -32.39 v 2.88 c 0.72,0 1.44,0 2.16,0 0.72,0 1.44,0 2.16,0 3.6,0 5.76,0.72 6.48,1.44 0.72,1.44 0.72,5.04 0.72,10.08 v 44.63"
         style="fill:#231f20;fill-opacity:1;fill-rule:evenodd;stroke:none"
         id="path34" /><path
         d="m 1074.15,1336.15 c 0.72,1.44 2.16,2.88 2.88,5.04 1.44,2.16 2.88,4.32 4.32,6.48 2.88,3.6 5.76,6.48 9.36,8.64 2.88,2.88 7.2,5.04 11.52,5.04 5.04,0 10.07,-1.44 13.67,-4.32 3.6,-2.16 5.76,-7.2 5.76,-12.24 0,-3.6 -0.72,-7.2 -2.16,-10.08 -1.44,-2.88 -4.32,-5.76 -7.2,-8.64 -2.87,-2.87 -5.75,-5.75 -7.91,-7.91 -2.16,-2.16 -4.32,-4.32 -6.48,-6.48 -0.72,-0.72 -1.45,-2.16 -2.16,-2.88 -1.44,-1.44 -2.16,-2.88 -3.6,-3.6 l -0.72,-0.72 v -0.72 c -2.88,-2.16 -5.04,-5.04 -7.2,-7.2 -1.44,-2.88 -3.6,-5.04 -4.32,-7.92 h 26.64 c 3.59,0 6.47,0.72 8.63,2.16 1.45,0.72 3.61,3.6 5.04,6.48 h 2.88 l -8.64,-23.04 h -2.16 c 0,2.88 0,4.32 -0.71,5.04 -0.73,0.72 -2.89,0.72 -5.77,0.72 h -31.67 c 0,3.6 1.44,7.92 2.88,11.52 2.16,2.88 4.32,6.48 5.76,9.36 1.44,1.44 2.88,2.88 3.6,4.32 1.44,0.72 2.88,2.87 3.6,3.6 0.72,1.43 2.16,2.88 3.6,5.04 1.44,1.43 3.6,4.32 5.76,7.2 l 0.72,0.71 c 0.72,0.72 1.44,1.45 1.44,2.16 1.44,1.45 2.88,3.6 4.31,5.76 0.73,1.44 2.16,3.6 2.88,5.04 0,0.72 0.73,0.72 0.73,1.44 0,0.72 0.71,1.44 0.71,2.16 0,0.72 0,1.44 0,2.16 0,0.72 0.72,0.72 0.72,1.44 0,2.16 -1.43,5.04 -2.88,7.2 -1.43,2.16 -4.32,3.6 -7.91,4.32 v 0 l -0.72,0.72 h -0.72 -0.72 c -3.6,0 -6.48,-1.44 -9.36,-4.32 -2.88,-2.16 -5.76,-5.04 -7.2,-7.92 -0.72,-0.72 -1.44,-2.16 -2.16,-2.88 -0.72,-0.72 -1.44,-2.16 -2.16,-2.88 h -2.88"
         style="fill:#231f20;fill-opacity:1;fill-rule:evenodd;stroke:none"
         id="path36" /><path
         d="m 1180.7,1295.84 20.87,54.71 c 0.72,1.44 0.72,2.16 0.72,2.88 0,0.72 0.72,1.44 0.72,2.16 0,2.16 -1.44,3.6 -2.88,3.6 -2.16,0.72 -5.04,1.44 -8.64,1.44 v 2.88 h 23.76 v -2.88 c -2.16,0 -4.32,-1.44 -5.76,-2.88 -1.44,-2.16 -2.88,-5.04 -4.32,-7.92 v 0 l -0.72,-0.72 -23.04,-61.91 v 0 l -3.59,-9.36 h -2.88 l -24.48,61.19 -5.04,10.8 c 0,1.44 -0.72,2.88 -0.72,2.88 0,0.72 -0.72,2.16 -1.44,2.88 -0.72,1.44 -1.44,2.88 -2.16,3.6 -1.44,0.72 -2.88,1.44 -4.32,1.44 v 2.88 h 31.68 v -2.88 c -0.72,0 -1.44,-0.72 -2.16,-0.72 -0.72,0 -0.72,0 -1.44,0 -2.16,0 -4.32,-0.72 -5.04,-0.72 -1.44,-0.72 -2.88,-1.44 -2.88,-3.6 0,0 0,-0.72 0,-1.44 0,-0.72 0.72,-1.44 1.44,-2.16 l 22.32,-56.15"
         style="fill:#231f20;fill-opacity:1;fill-rule:evenodd;stroke:none"
         id="path38" /><g
         id="g40"
         transform="scale(10)"><text
           transform="matrix(1,0,0,-1,52,71)"
           style="font-variant:normal;font-weight:normal;font-size:12.0223px;font-family:Symbol;-inkscape-font-specification:Symbol;writing-mode:lr-tb;fill:#231f20;fill-opacity:1;fill-rule:nonzero;stroke:none"
           id="text44"><tspan
             x="0 6.8390465"
             y="0"
             id="tspan42">2Ω</tspan></text></g><path
         d="m 865.836,461.988 c 0,3.602 -1.438,6.481 -2.156,6.481 -1.442,1.441 -4.321,2.16 -6.481,2.16 v 2.879 h 35.274 c 0,0 0.722,0 1.441,0 0,0 0.719,-0.719 1.441,-0.719 6.477,0 12.958,-2.16 17.997,-5.758 5.757,-4.32 8.636,-9.359 8.636,-16.558 0,-7.2 -2.156,-12.239 -5.758,-15.118 -3.597,-3.601 -7.917,-5.761 -13.679,-7.921 1.441,-1.438 3.601,-2.879 5.762,-5.758 1.437,-2.16 3.597,-5.039 5.757,-7.199 0.723,-0.719 1.442,-2.161 1.442,-2.879 0.718,-0.719 1.437,-1.442 2.16,-2.879 0,0 0.719,-0.723 1.437,-1.442 0,0 0.723,-0.718 0.723,-1.441 0.719,-1.438 2.156,-2.879 2.879,-4.316 0,-1.442 1.437,-2.879 2.16,-3.602 0.719,-1.438 2.16,-2.879 3.598,-4.32 0.719,-0.719 2.879,-1.438 5.758,-1.438 h 0.722 c 0,0 0.719,0.719 1.438,0.719 V 390 h -21.594 c -0.723,1.441 -2.16,3.598 -2.883,5.758 -0.719,1.441 -2.16,3.601 -3.597,5.039 0,0.723 -0.719,1.441 -1.442,2.16 -0.719,0.723 -1.437,1.441 -1.437,2.16 -0.723,1.442 -2.161,2.879 -2.883,4.321 -1.438,1.441 -2.879,3.597 -3.598,5.039 -1.441,1.441 -2.16,2.16 -2.879,3.597 -0.719,0.723 -2.16,2.16 -2.879,2.883 -1.441,1.438 -3.601,2.879 -5.761,3.598 -2.161,0.718 -5.758,1.441 -9.36,2.16 v -25.918 c 0,-4.317 0.723,-6.477 2.16,-7.199 1.442,-0.719 5.039,-0.719 9.36,-0.719 V 390 h -32.395 v 2.879 c 0,0 0.719,-0.719 1.442,-0.719 h 0.718 c 2.879,0 5.039,0.719 5.039,2.16 0.719,1.438 1.438,3.598 1.438,5.758 v 0.719 c 0,0.723 0,0.723 0,0.723 z m 12.238,-32.394 c 0.723,0 0.723,0 1.442,0 0.718,0 1.441,-0.719 2.16,-0.719 h 0.719 c 0.722,0 1.441,0 1.441,0 0.719,0 0.719,0 1.437,0 0,0 0.723,0.719 1.442,0.719 5.039,0 10.078,1.441 14.398,4.32 4.321,2.16 7.2,7.199 7.2,14.399 0,0.718 0,1.437 0,2.16 0,0.718 0,0.718 0,1.437 -0.719,4.32 -2.879,8.641 -5.04,12.238 -2.878,3.602 -8.64,5.762 -16.558,6.481 -2.16,0 -5.039,-0.719 -6.481,-1.441 -1.437,-0.719 -2.16,-3.598 -2.16,-7.2 v -32.394"
         style="fill:#231f20;fill-opacity:1;fill-rule:evenodd;stroke:none"
         id="path46" /><path
         d="m 1055.76,856.152 c 0.72,1.442 2.16,2.879 2.88,5.039 1.44,2.161 2.88,4.321 4.32,6.481 2.88,3.598 5.76,6.476 9.36,8.637 2.88,2.879 7.2,5.039 11.52,5.039 5.04,0 10.07,-1.438 13.67,-4.317 3.6,-2.16 5.76,-7.199 5.76,-12.238 0,-3.602 -0.72,-7.199 -2.16,-10.082 -1.44,-2.879 -4.32,-5.758 -7.2,-8.637 -2.87,-2.879 -5.75,-5.761 -7.91,-7.918 -2.16,-2.16 -4.32,-4.32 -6.48,-6.48 -0.72,-0.719 -1.45,-2.16 -2.16,-2.879 -1.44,-1.442 -2.16,-2.879 -3.6,-3.602 l -0.72,-0.718 v -0.719 c -2.88,-2.16 -5.04,-5.039 -7.2,-7.199 -1.44,-2.879 -3.6,-5.039 -4.32,-7.918 h 26.64 c 3.59,0 6.47,0.718 8.63,2.156 1.44,0.723 3.6,3.601 5.04,6.48 h 2.88 l -8.64,-23.035 h -2.16 c 0,2.879 0,4.317 -0.71,5.039 -0.73,0.719 -2.88,0.719 -5.77,0.719 h -31.67 c 0,3.598 1.44,7.918 2.88,11.52 2.16,2.878 4.32,6.476 5.76,9.359 1.44,1.437 2.88,2.879 3.6,4.316 1.44,0.723 2.88,2.879 3.6,3.602 0.72,1.437 2.16,2.879 3.6,5.039 1.44,1.437 3.6,4.32 5.76,7.199 l 0.72,0.719 c 0.71,0.719 1.44,1.441 1.44,2.16 1.43,1.441 2.88,3.598 4.31,5.758 0.73,1.441 2.16,3.601 2.89,5.039 0,0.723 0.72,0.723 0.72,1.441 0,0.719 0.71,1.442 0.71,2.161 0,0.718 0,1.437 0,2.16 0,0.718 0.72,0.718 0.72,1.437 0,2.16 -1.43,5.039 -2.88,7.199 -1.43,2.161 -4.32,3.602 -7.91,4.321 v 0 l -0.72,0.718 h -0.73 -0.71 c -3.6,0 -6.48,-1.437 -9.36,-4.316 -2.88,-2.16 -5.76,-5.039 -7.2,-7.922 -0.72,-0.719 -1.44,-2.16 -2.16,-2.879 -0.72,-0.718 -1.44,-2.16 -2.16,-2.879 h -2.88"
         style="fill:#231f20;fill-opacity:1;fill-rule:evenodd;stroke:none"
         id="path48" /><path
         d="m 1152.23,872.711 -2.88,2.879 v 0 l 0.72,0.719 c 1.44,1.441 2.88,2.879 5.04,4.32 1.44,1.441 2.87,3.598 3.59,5.758 l 25.2,-61.91 v 0 l 5.04,-13.68 0.72,-0.719 0.72,-0.719 c 0.72,-1.441 1.44,-2.879 2.16,-3.601 1.44,-1.438 3.6,-2.879 6.48,-2.879 V 800 h -32.39 v 2.879 c 3.59,0 6.47,0 7.91,0 1.44,0.719 2.16,2.16 2.16,3.601 0,0.719 0,1.438 0,2.161 0,0.718 -0.72,2.156 -0.72,2.879 l -7.92,20.156 h -28.07 l -7.92,-20.879 c 0,-0.719 0,-1.438 0,-1.438 0,-0.718 0,-0.718 0,-1.441 0,-1.438 0,-2.879 1.44,-3.598 1.44,-0.722 4.32,-1.441 7.92,-1.441 V 800 h -22.32 v 2.879 c 2.16,0 5.04,1.441 5.76,2.16 0.72,1.441 2.16,2.879 2.16,4.32 0,0.719 0.72,1.438 0.72,2.161 0.72,0.718 1.44,1.437 1.44,2.16 z m 0.72,-5.039 -11.52,-32.399 h 25.2 z"
         style="fill:#231f20;fill-opacity:1;fill-rule:evenodd;stroke:none"
         id="path50" /><path
         d="m 1116.9,291.199 141.1,0.699 V 1225.8 H 918.898"
         style="fill:none;stroke:#231f20;stroke-width:8.6;stroke-linecap:butt;stroke-linejoin:miter;stroke-miterlimit:11.4737;stroke-dasharray:none;stroke-opacity:1"
         id="path52" /><path
         d="M 1258,744.102 V 856.398"
         style="fill:none;stroke:#231f20;stroke-width:8.6;stroke-linecap:butt;stroke-linejoin:miter;stroke-miterlimit:11.4737;stroke-dasharray:none;stroke-opacity:1"
         id="path54" /><path
         d="M 1258.7,891.699 1235,806 c 15.1,12.199 30.9,12.199 46,0 l -22.3,85.699"
         style="fill:#231f20;fill-opacity:1;fill-rule:evenodd;stroke:none"
         id="path56" /></g></g></svg>
