<?xml version="1.0" encoding="UTF-8" standalone="no"?>
<!-- Created with Inkscape (http://www.inkscape.org/) -->

<svg
   version="1.1"
   id="svg2"
   xml:space="preserve"
   width="461.33334"
   height="100"
   viewBox="0 0 461.33334 100"
   xmlns="http://www.w3.org/2000/svg"
   xmlns:svg="http://www.w3.org/2000/svg"><defs
     id="defs6" /><g
     id="g8"
     transform="matrix(1.3333333,0,0,-1.3333333,0,100)"><g
       id="g10"
       transform="scale(0.1)"><path
         d="M 168.801,657.801 H 3285.7 V 92.6016 H 168.801 Z"
         style="fill:none;stroke:#231f20;stroke-width:11.5;stroke-linecap:butt;stroke-linejoin:miter;stroke-miterlimit:11.4737;stroke-dasharray:none;stroke-opacity:1"
         id="path12" /><path
         d="M 537.398,515.199 H 1104.1 v -283 H 537.398 Z"
         style="fill:none;stroke:#231f20;stroke-width:14.4;stroke-linecap:butt;stroke-linejoin:miter;stroke-miterlimit:11.4737;stroke-dasharray:none;stroke-opacity:1"
         id="path14" /><path
         d="m 1444.6,515.199 h 566.7 v -283 h -566.7 z"
         style="fill:none;stroke:#231f20;stroke-width:14.4;stroke-linecap:butt;stroke-linejoin:miter;stroke-miterlimit:11.4737;stroke-dasharray:none;stroke-opacity:1"
         id="path16" /><path
         d="m 2351.8,515.199 h 566.7 v -283 h -566.7 z"
         style="fill:none;stroke:#231f20;stroke-width:14.4;stroke-linecap:butt;stroke-linejoin:miter;stroke-miterlimit:11.4737;stroke-dasharray:none;stroke-opacity:1"
         id="path18" /><path
         d="m 1104.1,374.102 h 305.3"
         style="fill:none;stroke:#231f20;stroke-width:8.6;stroke-linecap:butt;stroke-linejoin:miter;stroke-miterlimit:11.4737;stroke-dasharray:none;stroke-opacity:1"
         id="path20" /><path
         d="m 1444.6,374.102 -79.9,20.097 c 11.5,-13.597 11.5,-26.597 0,-40.297 l 79.9,20.2"
         style="fill:#231f20;fill-opacity:1;fill-rule:evenodd;stroke:none"
         id="path22" /><path
         d="m 310.602,374.102 h 181.5"
         style="fill:none;stroke:#231f20;stroke-width:8.6;stroke-linecap:butt;stroke-linejoin:miter;stroke-miterlimit:11.4737;stroke-dasharray:none;stroke-opacity:1"
         id="path24" /><path
         d="m 527.398,374.102 -80,20.097 c 11.602,-13.597 11.602,-26.597 0,-40.297 l 80,20.2"
         style="fill:#231f20;fill-opacity:1;fill-rule:evenodd;stroke:none"
         id="path26" /><path
         d="M 2928.6,374.102 H 3110"
         style="fill:none;stroke:#231f20;stroke-width:8.6;stroke-linecap:butt;stroke-linejoin:miter;stroke-miterlimit:11.4737;stroke-dasharray:none;stroke-opacity:1"
         id="path28" /><path
         d="m 3145.3,374.102 -79.9,20.097 c 11.5,-13.597 11.5,-26.597 0,-40.297 l 79.9,20.2"
         style="fill:#231f20;fill-opacity:1;fill-rule:evenodd;stroke:none"
         id="path30" /><path
         d="m 2011.3,374.102 h 305.3"
         style="fill:none;stroke:#231f20;stroke-width:8.6;stroke-linecap:butt;stroke-linejoin:miter;stroke-miterlimit:11.4737;stroke-dasharray:none;stroke-opacity:1"
         id="path32" /><path
         d="m 2351.8,374.102 -79.9,20.097 c 11.5,-13.597 11.5,-26.597 0,-40.297 l 79.9,20.2"
         style="fill:#231f20;fill-opacity:1;fill-rule:evenodd;stroke:none"
         id="path34" /><path
         d="m 1585.27,392.551 v -23.754 h 23.04 v -6.481 h -23.04 v -23.035 h -6.47 v 23.035 h -23.04 v 6.481 h 23.04 v 23.754 h 6.47"
         style="fill:#231f20;fill-opacity:1;fill-rule:evenodd;stroke:none"
         id="path36" /><path
         d="m 1648.63,399.031 c 0,2.879 0,5.039 -0.72,5.039 -0.72,0.723 -1.45,1.442 -2.88,1.442 -0.72,0 -1.44,0 -1.44,0 l -0.72,0.718 -6.48,0.719 v 2.883 c 1.44,0 2.88,0 4.32,0.719 2.16,0.719 4.32,2.16 6.48,2.879 1.44,0.718 3.6,2.16 5.04,3.601 0.72,1.438 2.88,2.879 3.59,4.317 h 2.88 v -61.91 0 -5.04 c 0,-5.757 0.73,-9.359 1.44,-10.078 0.72,-1.441 3.61,-1.441 7.2,-1.441 0.72,0 1.45,0 1.45,0 h 0.71 V 340 h -32.39 v 2.879 c 0.72,0 1.44,0 2.16,0 0.72,0 1.44,0 2.16,0 3.6,0 5.76,0.719 6.48,1.441 0.72,1.438 0.72,5.039 0.72,10.078 v 44.633"
         style="fill:#231f20;fill-opacity:1;fill-rule:evenodd;stroke:none"
         id="path38" /><path
         d="m 1691.82,378.156 c 0,11.516 2.88,21.594 7.2,28.793 4.32,7.199 10.08,11.52 15.12,13.68 0.72,0 1.44,0.719 2.16,0.719 0.72,0 1.44,0 2.16,0 6.48,0 11.52,-2.879 15.11,-7.918 4.32,-5.039 7.2,-10.797 9.36,-17.278 0.72,-2.16 1.45,-5.757 1.45,-7.918 0.71,-2.879 0.71,-5.761 0.71,-7.921 0,-10.797 -1.44,-19.434 -4.32,-25.196 -2.88,-6.476 -6.48,-10.797 -10.07,-12.957 -1.45,-1.441 -4.32,-2.16 -5.76,-2.879 -2.16,-0.722 -4.32,-0.722 -5.05,-0.722 -7.91,0 -13.67,2.882 -19.43,9.359 -5.04,7.199 -7.92,17.277 -8.64,30.238 z m 42.47,2.157 c 0,2.16 0,3.601 0,3.601 0,0 -0.72,0.719 -0.72,3.598 0,2.16 -0.71,5.761 -0.71,7.922 -0.72,5.757 -2.88,11.515 -5.04,15.836 -1.44,4.32 -5.04,7.199 -8.64,7.199 v 0 0 h -0.72 c -3.6,0 -6.48,-2.879 -8.64,-6.481 -2.16,-5.039 -3.6,-10.078 -5.04,-15.117 0,-2.879 -0.72,-6.476 -0.72,-10.078 0,-2.879 -0.72,-5.758 -0.72,-7.199 0,-15.117 2.16,-25.196 5.04,-30.953 3.6,-5.043 7.2,-7.922 11.51,-7.922 4.32,0 7.93,3.601 10.09,10.801 2.16,7.199 3.59,15.117 3.59,24.476 0,0.719 0.72,1.438 0.72,2.16 0,0.719 0,1.438 0,2.157"
         style="fill:#231f20;fill-opacity:1;fill-rule:evenodd;stroke:none"
         id="path40" /><path
         d="m 1800.52,406.949 v 0.723 c 0,0.719 0,1.437 0,1.437 0,2.161 0,4.321 -0.72,5.039 -0.71,0.723 -2.87,1.442 -7.19,1.442 v 2.16 l 17.27,6.477 v -61.911 0 -17.277 l 7.2,-0.719 v -1.441 l -16.56,-5.039 v 7.918 0 0 c -2.15,-2.16 -4.31,-3.598 -6.47,-5.039 -2.16,-0.719 -5.04,-2.16 -8.64,-2.16 l -0.72,-0.719 c -0.72,0 -1.44,0 -1.44,0 -0.72,0 -2.88,0.719 -3.6,0.719 -2.16,0.722 -3.6,1.441 -5.04,1.441 -3.6,0.719 -7.2,3.598 -9.36,7.199 -2.88,3.598 -5.04,8.637 -5.76,15.117 v 0.719 0.723 0.719 0.718 c 0,7.2 2.16,12.961 5.76,18 3.6,4.317 7.92,7.918 12.24,9.356 1.44,0 2.88,0.722 3.6,0.722 1.44,0 2.88,0 3.6,0 h 0.72 0.72 c 0.72,0 2.16,0 2.88,0 0,0 1.44,-0.722 2.16,-0.722 1.44,0 3.6,0 5.04,-0.719 1.43,-0.719 2.88,-2.16 4.31,-2.879 z m 0,-58.308 v 26.632 c 0,0.723 0,2.161 0,2.883 0,0.719 -0.72,2.157 -1.43,2.879 -0.72,2.879 -2.88,5.039 -4.32,6.477 -2.16,2.16 -5.76,2.883 -8.64,2.883 -5.76,0 -10.08,-2.883 -12.24,-7.2 -2.88,-5.039 -4.32,-10.078 -4.32,-15.84 v 0 -0.718 c 0,-5.758 2.16,-11.52 4.32,-15.84 2.88,-5.039 7.2,-7.918 12.96,-7.918 2.16,0 4.32,0 6.48,0.719 2.15,1.441 5.04,2.882 7.19,5.043"
         style="fill:#231f20;fill-opacity:1;fill-rule:evenodd;stroke:none"
         id="path42" /><path
         d="m 1842.28,395.434 v 15.117 c 0,3.597 -0.72,6.48 -1.44,7.918 -0.72,0.719 -3.6,2.16 -8.64,2.16 v 2.879 h 33.84 c 7.19,0 14.39,-1.438 19.43,-5.039 5.04,-2.879 7.92,-7.918 7.92,-14.399 0,-5.757 -1.44,-10.078 -4.32,-12.957 -2.87,-2.879 -6.48,-5.039 -10.07,-5.758 v 0 h -0.73 c 0.73,0 2.16,-0.722 2.88,-0.722 0.73,-0.719 2.16,-0.719 2.89,-1.438 3.59,-1.441 7.19,-4.32 10.07,-7.199 3.6,-3.601 5.04,-8.641 5.04,-14.398 0,-5.762 -2.16,-10.078 -5.04,-12.957 -3.6,-2.883 -7.2,-5.762 -10.8,-6.481 -2.88,-0.719 -5.76,-2.16 -7.92,-2.16 -2.16,0 -4.32,0 -5.75,0 h -37.44 v 2.879 c 5.04,0 7.92,0 8.64,1.441 0.72,1.438 1.44,4.321 1.44,10.078 v 0.719 c 0,0.719 0,1.442 0,1.442 z m 43.19,-33.118 c 0,7.2 -2.16,12.239 -5.76,14.399 -3.6,2.16 -7.19,4.32 -11.51,4.32 -0.72,0 -2.16,0 -2.88,0 -1.44,0 -2.16,0 -2.88,0 -0.73,0 -1.44,0 -1.44,0 h -0.72 c -1.44,0 -2.16,0 -2.88,0 -1.44,0 -2.16,0 -2.88,0 v -30.957 c 0,-2.879 0.72,-5.039 2.88,-5.758 1.44,-0.722 3.6,-1.441 6.48,-1.441 v 0 h 0.72 c 1.44,0 2.88,0 2.88,0 1.43,0 2.88,0 2.88,0 4.32,0.719 8.64,2.879 10.79,5.762 2.89,2.879 4.32,7.918 4.32,13.675 z m -30.95,58.313 v -36.715 h 0.72 v 0 h 0.72 0.72 c 8.64,0 15.12,2.16 18.71,5.758 3.61,3.601 5.76,8.641 5.76,13.68 0,6.48 -2.15,11.519 -5.76,12.957 -3.59,2.16 -7.91,3.601 -12.23,3.601 -1.45,0 -2.16,0.719 -3.6,0.719 -1.44,0 -2.88,0 -3.6,0 h -0.72 -0.72"
         style="fill:#231f20;fill-opacity:1;fill-rule:evenodd;stroke:none"
         id="path44" /><path
         d="m 2524.32,361.676 h 30.23 v -8.641 h -30.23 v 8.641"
         style="fill:#231f20;fill-opacity:1;fill-rule:evenodd;stroke:none"
         id="path46" /><path
         d="m 2605.67,410.629 c 1.44,0 2.16,0 2.16,0 0,0 0.72,0 1.44,0 0,0 1.44,1.441 2.16,1.441 v 0.719 c 0.72,0.719 0.72,1.438 0.72,1.438 h 2.88 l -5.76,-13.676 h -26.64 l -1.44,-15.84 c 12.24,0 21.6,-2.879 27.36,-7.918 6.48,-5.039 9.36,-12.238 9.36,-21.598 0,-6.476 -2.16,-12.238 -5.76,-15.836 -2.88,-3.601 -7.2,-7.199 -12.24,-8.64 -0.72,-0.719 -2.88,-0.719 -4.32,-0.719 -1.44,0 -2.88,-0.719 -4.32,-0.719 h -0.72 c -0.72,0 -1.44,0 -1.44,0 -0.72,0 -2.16,0 -2.88,0 -0.72,0 -1.44,0.719 -2.16,0.719 -4.32,0 -7.2,0.719 -10.8,2.16 -2.88,1.438 -5.04,3.598 -5.04,6.481 v 0 0 0 c 0,1.437 1.44,2.879 2.16,3.597 0.72,0.719 1.44,0.719 2.88,0.719 0.72,0 0.72,0 1.44,0 0.72,0 2.16,-0.719 2.16,-1.437 0.72,0 2.16,-0.723 2.88,-1.442 0.72,-1.437 1.44,-2.879 2.16,-4.32 0.72,-0.719 2.16,-2.16 3.6,-2.879 1.44,0 3.6,-0.719 5.76,-0.719 0,0 0.72,0 1.44,0 0.72,0 1.44,0 2.16,0 3.6,0.719 6.48,2.879 8.64,5.758 2.88,2.879 5.04,7.199 5.04,12.238 v 0.723 0.719 c 0,7.918 -2.16,13.675 -7.2,16.558 -5.04,3.598 -10.8,5.758 -16.56,5.758 -0.72,0 -1.44,0 -2.16,0 -0.72,0 -1.44,0 -2.16,0 -0.72,0 -1.44,0 -2.16,0 -0.72,0 -1.44,0 -2.16,0 l 3.6,36.715 h 25.92"
         style="fill:#231f20;fill-opacity:1;fill-rule:evenodd;stroke:none"
         id="path48" /><path
         d="m 2676.94,396.949 v 0.723 c 0,0.719 0,1.437 0,1.437 0,2.161 0,4.321 -0.72,5.039 -0.72,0.723 -2.88,1.442 -7.2,1.442 v 2.16 l 17.28,6.477 v -61.911 0 -17.277 l 7.2,-0.719 v -1.441 l -16.56,-5.039 v 7.918 0 0 c -2.16,-2.16 -4.32,-3.598 -6.48,-5.039 -2.16,-0.719 -5.04,-2.16 -8.64,-2.16 l -0.72,-0.719 c -0.72,0 -1.44,0 -1.44,0 -0.72,0 -2.88,0.719 -3.6,0.719 -2.16,0.722 -3.6,1.441 -5.04,1.441 -3.6,0.719 -7.2,3.598 -9.36,7.199 -2.87,3.598 -5.03,8.637 -5.76,15.117 v 0.719 0.723 0.719 0.718 c 0,7.2 2.16,12.961 5.76,18 3.6,4.317 7.92,7.918 12.24,9.356 1.44,0 2.88,0.722 3.6,0.722 1.44,0 2.88,0 3.6,0 h 0.72 0.72 c 0.72,0 2.16,0 2.88,0 0,0 1.44,-0.722 2.16,-0.722 1.44,0 3.6,0 5.04,-0.719 1.44,-0.719 2.88,-2.16 4.32,-2.879 z m 0,-58.308 v 26.632 c 0,0.723 0,2.161 0,2.883 0,0.719 -0.72,2.157 -1.44,2.879 -0.72,2.879 -2.88,5.039 -4.32,6.477 -2.16,2.16 -5.76,2.883 -8.64,2.883 -5.76,0 -10.08,-2.883 -12.24,-7.2 -2.88,-5.039 -4.32,-10.078 -4.32,-15.84 v 0 -0.718 c 0,-5.758 2.16,-11.52 4.32,-15.84 2.88,-5.039 7.2,-7.918 12.96,-7.918 2.16,0 4.32,0 6.48,0.719 2.16,1.441 5.04,2.882 7.2,5.043"
         style="fill:#231f20;fill-opacity:1;fill-rule:evenodd;stroke:none"
         id="path50" /><path
         d="m 2718.69,385.434 v 15.117 c 0,3.597 -0.72,6.48 -1.44,7.918 -0.72,0.719 -3.6,2.16 -8.64,2.16 v 2.879 h 33.84 c 7.2,0 14.4,-1.438 19.44,-5.039 5.04,-2.879 7.91,-7.918 7.91,-14.399 0,-5.757 -1.43,-10.078 -4.32,-12.957 -2.87,-2.879 -6.47,-5.039 -10.07,-5.758 v 0 h -0.72 c 0.72,0 2.16,-0.722 2.88,-0.722 0.72,-0.719 2.16,-0.719 2.88,-1.438 3.6,-1.441 7.19,-4.32 10.07,-7.199 3.61,-3.601 5.05,-8.641 5.05,-14.398 0,-5.762 -2.16,-10.078 -5.05,-12.957 -3.59,-2.883 -7.19,-5.762 -10.79,-6.481 -2.88,-0.719 -5.76,-2.16 -7.92,-2.16 -2.16,0 -4.32,0 -5.76,0 h -37.44 v 2.879 c 5.04,0 7.92,0 8.64,1.441 0.72,1.438 1.44,4.321 1.44,10.078 v 0.719 c 0,0.719 0,1.442 0,1.442 z m 43.2,-33.118 c 0,7.2 -2.16,12.239 -5.76,14.399 -3.6,2.16 -7.2,4.32 -11.52,4.32 -0.72,0 -2.16,0 -2.88,0 -1.44,0 -2.16,0 -2.88,0 -0.72,0 -1.44,0 -1.44,0 h -0.72 c -1.44,0 -2.16,0 -2.88,0 -1.44,0 -2.16,0 -2.88,0 v -30.957 c 0,-2.879 0.72,-5.039 2.88,-5.758 1.44,-0.722 3.6,-1.441 6.48,-1.441 v 0 h 0.72 c 1.44,0 2.88,0 2.88,0 1.44,0 2.88,0 2.88,0 4.32,0.719 8.64,2.879 10.8,5.762 2.88,2.879 4.32,7.918 4.32,13.675 z m -30.96,58.313 v -36.715 h 0.72 v 0 h 0.72 0.72 c 8.64,0 15.12,2.16 18.72,5.758 3.6,3.601 5.76,8.641 5.76,13.68 0,6.48 -2.16,11.519 -5.76,12.957 -3.6,2.16 -7.92,3.601 -12.24,3.601 -1.44,0 -2.16,0.719 -3.6,0.719 -1.44,0 -2.88,0 -3.6,0 h -0.72 -0.72"
         style="fill:#231f20;fill-opacity:1;fill-rule:evenodd;stroke:none"
         id="path52" /><path
         d="m 704.32,371.676 h 30.235 v -8.641 H 704.32 v 8.641"
         style="fill:#231f20;fill-opacity:1;fill-rule:evenodd;stroke:none"
         id="path54" /><path
         d="m 785.668,420.629 c 1.441,0 2.16,0 2.16,0 0,0 0.719,0 1.442,0 0,0 1.437,1.441 2.156,1.441 v 0.719 c 0.722,0.719 0.722,1.438 0.722,1.438 h 2.879 l -5.757,-13.676 h -26.637 l -1.442,-15.84 c 12.239,0 21.598,-2.879 27.356,-7.918 6.48,-5.039 9.359,-12.238 9.359,-21.598 0,-6.476 -2.16,-12.238 -5.758,-15.836 -2.878,-3.601 -7.199,-7.199 -12.238,-8.64 C 779.188,340 777.031,340 775.59,340 c -1.442,0 -2.879,-0.719 -4.32,-0.719 h -0.719 c -0.719,0 -1.442,0 -1.442,0 -0.718,0 -2.16,0 -2.879,0 -0.718,0 -1.437,0.719 -2.16,0.719 -4.32,0 -7.199,0.719 -10.797,2.16 -2.878,1.438 -5.039,3.598 -5.039,6.481 v 0 0 0 c 0,1.437 1.438,2.879 2.161,3.597 0.718,0.719 1.437,0.719 2.878,0.719 0.719,0 0.719,0 1.438,0 0.723,0 2.16,-0.719 2.16,-1.437 0.723,0 2.16,-0.723 2.879,-1.442 0.723,-1.437 1.441,-2.879 2.16,-4.32 0.723,-0.719 2.16,-2.16 3.602,-2.879 1.437,0 3.597,-0.719 5.758,-0.719 0,0 0.718,0 1.441,0 0.719,0 1.437,0 2.16,0 3.598,0.719 6.477,2.879 8.637,5.758 2.879,2.879 5.039,7.199 5.039,12.238 v 0.723 0.719 c 0,7.918 -2.16,13.675 -7.199,16.558 -5.039,3.598 -10.797,5.758 -16.555,5.758 -0.723,0 -1.441,0 -2.16,0 -0.723,0 -1.442,0 -2.16,0 -0.723,0 -1.442,0 -2.16,0 -0.719,0 -1.442,0 -2.161,0 l 3.598,36.715 h 25.918"
         style="fill:#231f20;fill-opacity:1;fill-rule:evenodd;stroke:none"
         id="path56" /><path
         d="m 856.938,406.949 v 0.723 c 0,0.719 0,1.437 0,1.437 0,2.161 0,4.321 -0.719,5.039 -0.719,0.723 -2.879,1.442 -7.199,1.442 v 2.16 l 17.277,6.477 v -61.911 0 -17.277 l 7.199,-0.719 v -1.441 l -16.558,-5.039 v 7.918 0 0 c -2.161,-2.16 -4.321,-3.598 -6.477,-5.039 -2.16,-0.719 -5.043,-2.16 -8.641,-2.16 l -0.718,-0.719 c -0.723,0 -1.442,0 -1.442,0 -0.719,0 -2.879,0.719 -3.597,0.719 -2.161,0.722 -3.602,1.441 -5.04,1.441 -3.601,0.719 -7.199,3.598 -9.359,7.199 -2.879,3.598 -5.039,8.637 -5.762,15.117 v 0.719 0.723 0.719 0.718 c 0,7.2 2.161,12.961 5.762,18 3.598,4.317 7.918,7.918 12.238,9.356 1.438,0 2.879,0.722 3.598,0.722 1.441,0 2.879,0 3.602,0 h 0.718 0.719 c 0.723,0 2.16,0 2.879,0 0,0 1.441,-0.722 2.16,-0.722 1.442,0 3.602,0 5.039,-0.719 1.442,-0.719 2.883,-2.16 4.321,-2.879 z m 0,-58.308 v 26.632 c 0,0.723 0,2.161 0,2.883 0,0.719 -0.719,2.157 -1.438,2.879 -0.723,2.879 -2.883,5.039 -4.32,6.477 -2.16,2.16 -5.762,2.883 -8.641,2.883 -5.758,0 -10.078,-2.883 -12.238,-7.2 -2.879,-5.039 -4.317,-10.078 -4.317,-15.84 v 0 -0.718 c 0,-5.758 2.157,-11.52 4.317,-15.84 2.879,-5.039 7.199,-7.918 12.961,-7.918 2.156,0 4.316,0 6.476,0.719 2.16,1.441 5.039,2.882 7.2,5.043"
         style="fill:#231f20;fill-opacity:1;fill-rule:evenodd;stroke:none"
         id="path58" /><path
         d="m 898.691,395.434 v 15.117 c 0,3.597 -0.718,6.48 -1.437,7.918 -0.723,0.719 -3.602,2.16 -8.641,2.16 v 2.879 h 33.836 c 7.199,0 14.399,-1.438 19.438,-5.039 5.039,-2.879 7.918,-7.918 7.918,-14.399 0,-5.757 -1.438,-10.078 -4.321,-12.957 -2.879,-2.879 -6.476,-5.039 -10.078,-5.758 v 0 h -0.718 c 0.718,0 2.16,-0.722 2.878,-0.722 0.719,-0.719 2.161,-0.719 2.879,-1.438 3.602,-1.441 7.2,-4.32 10.078,-7.199 3.602,-3.601 5.043,-8.641 5.043,-14.398 0,-5.762 -2.16,-10.078 -5.043,-12.957 -3.597,-2.883 -7.195,-5.762 -10.796,-6.481 -2.879,-0.719 -5.758,-2.16 -7.918,-2.16 -2.161,0 -4.321,0 -5.762,0 h -37.434 v 2.879 c 5.039,0 7.918,0 8.641,1.441 0.719,1.438 1.437,4.321 1.437,10.078 v 0.719 c 0,0.719 0,1.442 0,1.442 z m 43.196,-33.118 c 0,7.2 -2.16,12.239 -5.758,14.399 -3.602,2.16 -7.199,4.32 -11.52,4.32 -0.718,0 -2.16,0 -2.879,0 -1.441,0 -2.16,0 -2.878,0 -0.723,0 -1.442,0 -1.442,0 h -0.719 c -1.441,0 -2.16,0 -2.882,0 -1.438,0 -2.157,0 -2.879,0 v -30.957 c 0,-2.879 0.722,-5.039 2.879,-5.758 1.441,-0.722 3.601,-1.441 6.48,-1.441 v 0 h 0.719 c 1.441,0 2.883,0 2.883,0 1.437,0 2.879,0 2.879,0 4.32,0.719 8.636,2.879 10.796,5.762 2.879,2.879 4.321,7.918 4.321,13.675 z m -30.957,58.313 v -36.715 h 0.722 v 0 h 0.719 0.719 c 8.64,0 15.117,2.16 18.719,5.758 3.597,3.601 5.757,8.641 5.757,13.68 0,6.48 -2.16,11.519 -5.757,12.957 -3.602,2.16 -7.918,3.601 -12.239,3.601 -1.441,0 -2.16,0.719 -3.601,0.719 -1.438,0 -2.879,0 -3.598,0 h -0.719 -0.722"
         style="fill:#231f20;fill-opacity:1;fill-rule:evenodd;stroke:none"
         id="path60" /></g></g></svg>
