<?xml version="1.0" encoding="UTF-8" standalone="no"?>
<!-- Created with Inkscape (http://www.inkscape.org/) -->

<svg
   version="1.1"
   id="svg2"
   xml:space="preserve"
   width="342.66666"
   height="325.33334"
   viewBox="0 0 342.66666 325.33334"
   xmlns="http://www.w3.org/2000/svg"
   xmlns:svg="http://www.w3.org/2000/svg"><defs
     id="defs6" /><g
     id="g8"
     transform="matrix(1.3333333,0,0,-1.3333333,0,325.33333)"><g
       id="g10"
       transform="scale(0.1)"><path
         d="m 6.5,2430.9 h 2556 V 4.5 H 6.5 Z"
         style="fill:none;stroke:#231f20;stroke-width:11.5;stroke-linecap:butt;stroke-linejoin:miter;stroke-miterlimit:11.4737;stroke-dasharray:none;stroke-opacity:1"
         id="path12" /><path
         d="m 1339.9,1036.2 c 106.6,0 195.1,88.6 195.1,195.2 0,106.5 -88.5,195.1 -195.1,195.1 -106.5,0 -195.1,-88.6 -195.1,-195.1 0,-106.6 88.6,-195.2 195.1,-195.2 z"
         style="fill:none;stroke:#231f20;stroke-width:2.2;stroke-linecap:butt;stroke-linejoin:miter;stroke-miterlimit:11.4737;stroke-dasharray:none;stroke-opacity:1"
         id="path14" /><path
         d="m 1339.9,841.801 c 213.9,0 389.5,175.699 389.5,389.599 0,213.8 -175.6,389.5 -389.5,389.5 -213.8,0 -389.502,-175.7 -389.502,-389.5 0,-213.9 175.702,-389.599 389.502,-389.599 z"
         style="fill:none;stroke:#231f20;stroke-width:2.2;stroke-linecap:butt;stroke-linejoin:miter;stroke-miterlimit:11.4737;stroke-dasharray:none;stroke-opacity:1"
         id="path16" /><path
         d="m 1339.9,646 c 321.9,0 585.4,263.5 585.4,585.4 0,321.8 -263.5,585.3 -585.4,585.3 -321.8,0 -585.298,-263.5 -585.298,-585.3 C 754.602,909.5 1018.1,646 1339.9,646 Z"
         style="fill:none;stroke:#231f20;stroke-width:2.2;stroke-linecap:butt;stroke-linejoin:miter;stroke-miterlimit:11.4737;stroke-dasharray:none;stroke-opacity:1"
         id="path18" /><path
         d="m 1339.9,450.898 c 429.9,0 780.5,351.301 780.5,780.502 0,429.1 -350.6,780.4 -780.5,780.4 -429.099,0 -780.502,-351.3 -780.502,-780.4 0,-429.201 351.403,-780.502 780.502,-780.502 z"
         style="fill:none;stroke:#231f20;stroke-width:2.2;stroke-linecap:butt;stroke-linejoin:miter;stroke-miterlimit:11.4737;stroke-dasharray:none;stroke-opacity:1"
         id="path20" /><path
         d="m 1339.9,256.5 c 537.1,0 975.6,438.5 975.6,974.9 0,537.1 -438.5,974.8 -975.6,974.8 C 803.5,2206.2 365,1768.5 365,1231.4 365,695 803.5,256.5 1339.9,256.5 Z"
         style="fill:none;stroke:#231f20;stroke-width:2.2;stroke-linecap:butt;stroke-linejoin:miter;stroke-miterlimit:11.4737;stroke-dasharray:none;stroke-opacity:1"
         id="path22" /><path
         d="M 1339.9,2206.2 V 1426.5"
         style="fill:none;stroke:#231f20;stroke-width:2.2;stroke-linecap:butt;stroke-linejoin:miter;stroke-miterlimit:11.4737;stroke-dasharray:none;stroke-opacity:1"
         id="path24" /><path
         d="m 1535,1231.4 h 780.5"
         style="fill:none;stroke:#231f20;stroke-width:2.2;stroke-linecap:butt;stroke-linejoin:miter;stroke-miterlimit:11.4737;stroke-dasharray:none;stroke-opacity:1"
         id="path26" /><path
         d="m 365,1231.4 h 779.8"
         style="fill:none;stroke:#231f20;stroke-width:2.2;stroke-linecap:butt;stroke-linejoin:miter;stroke-miterlimit:11.4737;stroke-dasharray:none;stroke-opacity:1"
         id="path28" /><path
         d="m 1339.9,1035.5 v -779"
         style="fill:none;stroke:#231f20;stroke-width:2.2;stroke-linecap:butt;stroke-linejoin:miter;stroke-miterlimit:11.4737;stroke-dasharray:none;stroke-opacity:1"
         id="path30" /><path
         d="M 1435.7,1063.6 1828.1,386.102"
         style="fill:none;stroke:#231f20;stroke-width:2.2;stroke-linecap:butt;stroke-linejoin:miter;stroke-miterlimit:11.4737;stroke-dasharray:none;stroke-opacity:1"
         id="path32" /><path
         d="m 1244.9,1399.1 -391.002,679"
         style="fill:none;stroke:#231f20;stroke-width:2.2;stroke-linecap:butt;stroke-linejoin:miter;stroke-miterlimit:11.4737;stroke-dasharray:none;stroke-opacity:1"
         id="path34" /><path
         d="M 2182.3,1720.2 1505.5,1330.7"
         style="fill:none;stroke:#231f20;stroke-width:2.2;stroke-linecap:butt;stroke-linejoin:miter;stroke-miterlimit:11.4737;stroke-dasharray:none;stroke-opacity:1"
         id="path36" /><path
         d="M 1242.7,1064.3 851.801,389"
         style="fill:none;stroke:#231f20;stroke-width:2.2;stroke-linecap:butt;stroke-linejoin:miter;stroke-miterlimit:11.4737;stroke-dasharray:none;stroke-opacity:1"
         id="path38" /><path
         d="M 1509.8,1134.9 2188.1,743.898"
         style="fill:none;stroke:#231f20;stroke-width:2.2;stroke-linecap:butt;stroke-linejoin:miter;stroke-miterlimit:11.4737;stroke-dasharray:none;stroke-opacity:1"
         id="path40" /><path
         d="m 1170,1327.8 -675.398,391"
         style="fill:none;stroke:#231f20;stroke-width:2.2;stroke-linecap:butt;stroke-linejoin:miter;stroke-miterlimit:11.4737;stroke-dasharray:none;stroke-opacity:1"
         id="path42" /><path
         d="M 1826.6,2075.9 1439.3,1396.2"
         style="fill:none;stroke:#231f20;stroke-width:2.2;stroke-linecap:butt;stroke-linejoin:miter;stroke-miterlimit:11.4737;stroke-dasharray:none;stroke-opacity:1"
         id="path44" /><path
         d="M 1175.8,1131.3 499.699,742.5"
         style="fill:none;stroke:#231f20;stroke-width:2.2;stroke-linecap:butt;stroke-linejoin:miter;stroke-miterlimit:11.4737;stroke-dasharray:none;stroke-opacity:1"
         id="path46" /><path
         d="m 1311.84,2255.59 c 0,7.43 1.65,14.04 4.95,18.99 2.48,4.95 6.6,7.43 9.91,9.08 0.82,0 0.82,0 1.65,0 0.83,0 0.83,0 1.65,0 4.13,0 7.43,-1.65 9.91,-4.96 2.47,-3.3 4.95,-7.43 5.77,-11.55 0.83,-1.65 1.66,-3.31 1.66,-4.95 0,-2.48 0,-4.13 0,-5.78 0,-6.61 -0.83,-12.38 -2.48,-16.51 -2.48,-4.13 -4.95,-7.43 -6.61,-9.09 -1.64,-0.82 -3.3,-0.82 -4.12,-0.82 -1.65,-0.82 -2.48,-0.82 -3.31,-0.82 -4.95,0 -9.9,1.64 -13.2,5.77 -3.3,4.96 -4.96,11.56 -5.78,20.64 z m 28.07,0.83 c 0,1.65 0,2.47 0,2.47 0,0 0,0.83 0,2.48 0,1.65 -0.83,4.13 -0.83,5.78 -0.83,3.3 -1.65,7.43 -3.3,9.9 -0.83,3.31 -3.3,4.96 -5.78,4.96 v 0 0 0 c -2.48,0 -4.95,-1.65 -5.78,-4.13 -1.65,-3.3 -3.3,-6.61 -3.3,-9.91 -0.83,-2.47 -0.83,-4.95 -0.83,-6.6 0,-2.48 0,-4.13 0,-4.95 0,-9.91 0.83,-17.34 3.3,-20.64 1.66,-3.3 4.13,-5.78 7.43,-5.78 2.48,0 4.96,2.48 6.61,7.43 1.65,4.95 2.48,9.91 2.48,16.51 0,0 0,0.83 0,1.65 v 0.83"
         style="fill:#231f20;fill-opacity:1;fill-rule:evenodd;stroke:none"
         id="path48" /><path
         d="m 1373.8,2291.9 c 5,0 10,-4.3 10,-10.1 0,-5.7 -5,-10 -10,-10 -5.1,0 -10.1,4.3 -10.1,10 0,5.8 5,10.1 10.1,10.1 z"
         style="fill:none;stroke:#231f20;stroke-width:5.8;stroke-linecap:butt;stroke-linejoin:miter;stroke-miterlimit:11.4737;stroke-dasharray:none;stroke-opacity:1"
         id="path50" /><path
         d="m 684.785,2125.59 c 0.824,0 0.824,0.83 1.653,1.65 0,0 0.824,0.83 1.648,1.65 1.652,1.65 3.305,4.13 4.953,5.78 1.652,2.48 2.477,4.96 2.477,6.6 0,2.48 -0.825,4.13 -2.477,4.96 -0.824,1.65 -3.301,1.65 -4.953,1.65 -1.648,0 -3.301,0 -4.953,-1.65 -2.477,-0.83 -4.125,-2.48 -5.778,-4.13 l -1.652,0.83 c 1.652,2.47 3.305,4.12 5.781,5.77 2.477,1.66 4.954,3.31 6.602,4.13 0.828,0 1.652,0 1.652,0 0.825,0 1.653,0.83 1.653,0.83 3.3,0 5.777,-0.83 7.429,-2.48 1.649,-0.82 2.477,-3.3 2.477,-5.78 0,-3.3 -0.828,-5.77 -2.477,-8.25 -1.652,-2.48 -4.129,-4.13 -6.605,-5.78 4.129,0 7.43,-1.65 9.906,-4.13 2.477,-3.3 4.129,-6.6 4.129,-9.9 v 0 -0.83 0 -0.83 -0.82 0 c 0,-3.3 -1.652,-6.61 -3.305,-8.25 -2.476,-2.48 -4.125,-4.13 -6.601,-5.79 -0.828,-0.82 -2.477,-0.82 -4.129,-0.82 -0.824,0 -2.477,0 -3.301,0 -0.828,0 -1.652,0 -3.305,0 -0.824,0 -2.476,0 -4.125,0 -0.828,0 -1.652,0 -2.476,0 -0.828,0.82 -2.477,1.65 -3.305,1.65 v 0.83 h -0.824 c 0,0.82 -0.824,0.82 -0.824,1.65 -0.825,0.82 -0.825,1.65 -0.825,1.65 0,0.83 0,0.83 0,0.83 l -0.828,0.82 0.828,0.82 v 0.83 l 0.825,0.83 c 0.824,0 0.824,0 1.648,0 v 0 c 0.828,0 0.828,-0.83 1.652,-0.83 0,0 0.825,-0.83 1.653,-0.83 0,-0.82 0.824,-1.64 1.648,-2.47 0.828,-1.65 1.653,-2.48 2.477,-3.3 1.652,-0.83 2.476,-1.66 4.129,-1.66 h 0.824 0.828 c 3.301,0 5.777,1.66 7.43,4.13 1.648,2.48 3.301,5.78 3.301,9.09 v 0.82 0 0.82 0 c -0.825,3.31 -1.653,4.96 -3.301,6.61 -1.653,0.82 -3.305,2.48 -4.953,2.48 -1.653,0 -2.477,0.82 -4.129,0.82 -0.824,0 -1.653,0 -2.477,0"
         style="fill:#231f20;fill-opacity:1;fill-rule:evenodd;stroke:none"
         id="path52" /><path
         d="m 744.223,2125.59 c 0.824,0 0.824,0.83 1.648,1.65 0,0 0.828,0.83 1.652,1.65 1.653,1.65 3.301,4.13 4.954,5.78 1.652,2.48 2.476,4.96 2.476,6.6 0,2.48 -0.824,4.13 -2.476,4.96 -0.825,1.65 -3.301,1.65 -4.954,1.65 -1.652,0 -3.3,0 -4.953,-1.65 -2.476,-0.83 -4.129,-2.48 -5.777,-4.13 l -1.652,0.83 c 1.652,2.47 3.3,4.12 5.777,5.77 2.477,1.66 4.953,3.31 6.605,4.13 0.825,0 1.653,0 1.653,0 0.824,0 1.648,0.83 1.648,0.83 3.305,0 5.781,-0.83 7.43,-2.48 1.652,-0.82 2.476,-3.3 2.476,-5.78 0,-3.3 -0.824,-5.77 -2.476,-8.25 -1.649,-2.48 -4.125,-4.13 -6.602,-5.78 4.125,0 7.43,-1.65 9.907,-4.13 2.476,-3.3 4.125,-6.6 4.125,-9.9 v 0 -0.83 0 -0.83 -0.82 0 c 0,-3.3 -1.649,-6.61 -3.301,-8.25 -2.477,-2.48 -4.129,-4.13 -6.606,-5.79 -0.824,-0.82 -2.476,-0.82 -4.125,-0.82 -0.828,0 -2.476,0 -3.304,0 -0.825,0 -1.649,0 -3.301,0 -0.824,0 -2.477,0 -4.129,0 -0.824,0 -1.648,0 -2.477,0 -0.824,0.82 -2.476,1.65 -3.3,1.65 v 0.83 h -0.825 c 0,0.82 -0.828,0.82 -0.828,1.65 -0.824,0.82 -0.824,1.65 -0.824,1.65 0,0.83 0,0.83 0,0.83 l -0.824,0.82 0.824,0.82 v 0.83 l 0.824,0.83 c 0.828,0 0.828,0 1.653,0 v 0 c 0.824,0 0.824,-0.83 1.652,-0.83 0,0 0.824,-0.83 1.648,-0.83 0,-0.82 0.829,-1.64 1.653,-2.47 0.824,-1.65 1.652,-2.48 2.476,-3.3 1.653,-0.83 2.477,-1.66 4.129,-1.66 h 0.824 0.825 c 3.304,0 5.781,1.66 7.429,4.13 1.653,2.48 3.305,5.78 3.305,9.09 v 0.82 0 0.82 0 c -0.828,3.31 -1.652,4.96 -3.305,6.61 -1.648,0.82 -3.3,2.48 -4.953,2.48 -1.648,0 -2.476,0.82 -4.125,0.82 -0.828,0 -1.652,0 -2.476,0"
         style="fill:#231f20;fill-opacity:1;fill-rule:evenodd;stroke:none"
         id="path54" /><path
         d="m 791.273,2125.59 c 0,7.43 1.653,14.04 4.954,18.99 2.476,4.95 6.605,7.43 9.906,9.08 0.828,0 0.828,0 1.652,0 0.824,0 0.824,0 1.653,0 4.125,0 7.429,-1.65 9.906,-4.96 2.476,-3.3 4.953,-7.43 5.777,-11.55 0.824,-1.65 1.652,-3.31 1.652,-4.95 0,-2.48 0,-4.13 0,-5.78 0,-6.61 -0.828,-12.38 -2.476,-16.51 -2.477,-4.13 -4.953,-7.43 -6.606,-9.09 -1.652,-0.82 -3.3,-0.82 -4.128,-0.82 -1.649,-0.82 -2.477,-0.82 -3.301,-0.82 -4.953,0 -9.907,1.64 -13.207,5.77 -3.305,4.96 -4.953,11.56 -5.782,20.64 z m 28.071,0.83 c 0,1.65 0,2.47 0,2.47 0,0 0,0.83 0,2.48 0,1.65 -0.828,4.13 -0.828,5.78 -0.825,3.3 -1.649,7.43 -3.301,9.9 -0.824,3.31 -3.301,4.96 -5.777,4.96 v 0 0 0 c -2.477,0 -4.954,-1.65 -5.782,-4.13 -1.648,-3.3 -3.301,-6.61 -3.301,-9.91 -0.824,-2.47 -0.824,-4.95 -0.824,-6.6 0,-2.48 0,-4.13 0,-4.95 0,-9.91 0.824,-17.34 3.301,-20.64 1.652,-3.3 4.129,-5.78 7.43,-5.78 2.476,0 4.953,2.48 6.605,7.43 1.649,4.95 2.477,9.91 2.477,16.51 0,0 0,0.83 0,1.65 v 0.83"
         style="fill:#231f20;fill-opacity:1;fill-rule:evenodd;stroke:none"
         id="path56" /><path
         d="m 848.898,2160.9 c 5,0 9.301,-3.6 9.301,-9.4 0,-5.7 -4.301,-10.1 -9.301,-10.1 -5.097,0 -10.097,4.4 -10.097,10.1 0,5.8 5,9.4 10.097,9.4 z"
         style="fill:none;stroke:#231f20;stroke-width:5.8;stroke-linecap:butt;stroke-linejoin:miter;stroke-miterlimit:11.4737;stroke-dasharray:none;stroke-opacity:1"
         id="path58" /><path
         d="m 154.879,1237.15 c 0,0.82 0.824,2.48 1.652,3.3 0.824,1.65 1.649,3.3 2.477,4.95 1.648,1.65 4.125,4.13 6.601,5.78 1.653,1.65 4.954,2.48 7.43,2.48 3.305,0 6.606,-0.83 9.082,-2.48 2.477,-1.65 4.129,-4.95 4.129,-8.25 0,-2.48 -0.828,-4.96 -1.652,-6.61 -0.825,-1.65 -2.477,-4.12 -4.953,-5.78 -1.653,-1.65 -3.301,-4.12 -4.954,-4.95 -1.652,-1.65 -3.3,-3.3 -4.128,-4.95 -0.825,0 -1.649,-0.83 -1.649,-1.65 -0.828,-0.83 -1.652,-1.65 -2.476,-2.48 v 0 l -0.829,-0.83 c -1.648,-1.64 -3.3,-3.3 -4.125,-4.95 -1.652,-1.65 -2.476,-3.3 -3.304,-4.95 h 18.164 c 1.648,0 4.125,0.83 4.953,0.83 1.648,0.82 2.476,2.47 3.301,4.95 h 2.476 l -5.777,-14.86 h -1.652 c 0,1.65 0,2.48 -0.825,2.48 0,0.82 -1.652,0.82 -3.304,0.82 h -20.637 c 0,2.48 0,4.95 1.652,7.43 0.824,2.48 2.477,4.95 4.125,6.61 0.828,0.82 1.653,1.64 2.477,2.47 0.828,0.83 1.652,1.65 1.652,2.48 0.824,0.82 1.653,1.65 2.477,3.3 0.824,0.82 2.476,3.3 4.129,4.95 0,0 0,0 0.824,0.83 v 0.82 c 0.824,0.83 2.476,2.48 3.301,4.13 0.828,0.82 1.652,2.48 1.652,3.3 l 0.824,0.83 c 0,0.82 0,0.82 0,1.65 l 0.828,0.83 c 0,0.82 0,0.82 0,1.64 0,1.66 -0.828,3.31 -1.652,4.96 -0.824,0.82 -3.301,2.47 -5.777,2.47 v 0 0.83 h -0.828 v 0 c -2.477,0 -4.954,-1.65 -6.602,-3.3 -1.652,-1.65 -3.305,-3.3 -4.953,-4.96 0,-0.82 -0.828,-1.64 -0.828,-2.47 -0.825,0 -0.825,-0.83 -1.649,-1.65 h -1.652"
         style="fill:#231f20;fill-opacity:1;fill-rule:evenodd;stroke:none"
         id="path60" /><path
         d="m 242.383,1247.88 h -18.988 c -2.477,0 -4.125,-0.83 -4.125,-1.65 -0.829,-0.83 -1.653,-1.65 -1.653,-3.3 l -0.824,-0.83 v -0.83 h -2.477 l 4.954,14.86 h 1.648 v -0.82 0 c 0,-0.83 0.828,-1.65 1.652,-1.65 0.825,0 2.477,0 4.129,0 h 18.985 v -2.48 l -14.86,-41.27 v 0 l -1.648,-5.78 c 0,0 -0.828,-0.83 -0.828,-1.65 0,-0.83 0,-0.83 0,-1.66 -0.825,-0.82 -1.649,-0.82 -1.649,-1.64 -0.828,0 -2.476,0 -4.129,0 -0.824,0 -1.652,0 -1.652,0 l -0.824,0.82 c 0,0 0.824,0.82 0.824,1.65 0,0.83 0.828,1.65 1.652,2.48 l 18.16,41.27 h 0.829 l 0.824,2.48"
         style="fill:#231f20;fill-opacity:1;fill-rule:evenodd;stroke:none"
         id="path62" /><path
         d="m 271.273,1225.59 c 0,7.43 1.653,14.04 4.954,18.99 2.476,4.95 6.605,7.43 9.906,9.08 0.828,0 0.828,0 1.652,0 0.824,0 0.824,0 1.653,0 4.125,0 7.429,-1.65 9.906,-4.96 2.476,-3.3 4.953,-7.43 5.777,-11.55 0.824,-1.65 1.652,-3.31 1.652,-4.95 0,-2.48 0,-4.13 0,-5.78 0,-6.61 -0.828,-12.38 -2.476,-16.51 -2.477,-4.13 -4.953,-7.43 -6.606,-9.09 -1.652,-0.82 -3.3,-0.82 -4.128,-0.82 -1.649,-0.82 -2.477,-0.82 -3.301,-0.82 -4.953,0 -9.907,1.64 -13.207,5.77 -3.305,4.96 -4.953,11.56 -5.782,20.64 z m 28.071,0.83 c 0,1.65 0,2.47 0,2.47 0,0 0,0.83 0,2.48 0,1.65 -0.828,4.13 -0.828,5.78 -0.825,3.3 -1.649,7.43 -3.301,9.9 -0.824,3.31 -3.301,4.96 -5.777,4.96 v 0 0 0 c -2.477,0 -4.954,-1.65 -5.782,-4.13 -1.648,-3.3 -3.301,-6.61 -3.301,-9.91 -0.824,-2.47 -0.824,-4.95 -0.824,-6.6 0,-2.48 0,-4.13 0,-4.95 0,-9.91 0.824,-17.34 3.301,-20.64 1.652,-3.3 4.129,-5.78 7.43,-5.78 2.476,0 4.953,2.48 6.605,7.43 1.649,4.95 2.477,9.91 2.477,16.51 0,0 0,0.83 0,1.65 v 0.83"
         style="fill:#231f20;fill-opacity:1;fill-rule:evenodd;stroke:none"
         id="path64" /><path
         d="m 328.301,1261.6 c 5.097,0 10.097,-3.6 10.097,-9.4 0,-5.7 -5,-10 -10.097,-10 -5,0 -10.102,4.3 -10.102,10 0,5.8 5.102,9.4 10.102,9.4 z"
         style="fill:none;stroke:#231f20;stroke-width:5.8;stroke-linecap:butt;stroke-linejoin:miter;stroke-miterlimit:11.4737;stroke-dasharray:none;stroke-opacity:1"
         id="path66" /><path
         d="m 654.879,357.148 c 0,0.825 0.824,2.477 1.652,3.301 0.824,1.653 1.649,3.301 2.477,4.953 1.648,1.653 4.125,4.129 6.601,5.778 1.653,1.652 4.954,2.476 7.43,2.476 3.305,0 6.606,-0.824 9.082,-2.476 2.477,-1.649 4.129,-4.953 4.129,-8.254 0,-2.477 -0.828,-4.953 -1.652,-6.606 -0.825,-1.648 -2.477,-4.125 -4.953,-5.777 -1.653,-1.652 -3.301,-4.129 -4.954,-4.953 -1.652,-1.649 -3.3,-3.301 -4.128,-4.953 -0.825,0 -1.649,-0.824 -1.649,-1.649 -0.828,-0.828 -1.652,-1.652 -2.476,-2.476 v 0 l -0.829,-0.828 c -1.648,-1.649 -3.3,-3.301 -4.125,-4.954 -1.652,-1.648 -2.476,-3.3 -3.304,-4.953 h 18.164 c 1.648,0 4.125,0.828 4.953,0.828 1.648,0.825 2.476,2.477 3.301,4.954 h 2.476 l -5.777,-14.86 h -1.652 c 0,1.649 0,2.477 -0.825,2.477 0,0.824 -1.652,0.824 -3.304,0.824 h -20.637 c 0,2.477 0,4.953 1.652,7.43 0.824,2.476 2.477,4.953 4.125,6.605 0.828,0.824 1.653,1.649 2.477,2.477 0.828,0.824 1.652,1.648 1.652,2.476 0.824,0.825 1.653,1.649 2.477,3.301 0.824,0.824 2.476,3.301 4.129,4.953 0,0 0,0 0.824,0.824 v 0.825 c 0.824,0.828 2.476,2.476 3.301,4.129 0.828,0.824 1.652,2.476 1.652,3.3 l 0.824,0.828 c 0,0.825 0,0.825 0,1.649 l 0.828,0.828 c 0,0.824 0,0.824 0,1.648 0,1.653 -0.828,3.305 -1.652,4.954 -0.824,0.828 -3.301,2.476 -5.777,2.476 v 0 0.828 h -0.828 v 0 c -2.477,0 -4.954,-1.652 -6.602,-3.304 -1.652,-1.649 -3.305,-3.301 -4.953,-4.954 0,-0.824 -0.828,-1.648 -0.828,-2.476 -0.825,0 -0.825,-0.824 -1.649,-1.649 h -1.652"
         style="fill:#231f20;fill-opacity:1;fill-rule:evenodd;stroke:none"
         id="path68" /><path
         d="m 726.699,359.625 c 0,1.648 0,2.477 -0.828,3.301 0,0 -0.824,0.824 -1.648,0.824 h -0.828 v 0 l -4.954,0.828 v 1.649 c 0.829,0 1.653,0 3.305,0.828 1.649,0 2.477,0.824 4.125,1.648 0.828,0.828 2.477,1.652 3.305,2.477 0.824,0.828 1.648,1.652 2.476,2.476 h 1.649 v -40.449 0 -3.301 c 0,-4.129 0.828,-6.605 1.652,-7.429 0,-0.825 1.652,-0.825 4.129,-0.825 0.824,0 0.824,0 0.824,0 h 0.824 V 320 h -21.46 v 1.652 c 0,0 0.824,0 1.648,0 0,0 0.828,0 1.652,0 1.653,0 3.301,0.825 3.301,0.825 0.828,0.824 0.828,3.3 0.828,7.429 v 29.719"
         style="fill:#231f20;fill-opacity:1;fill-rule:evenodd;stroke:none"
         id="path70" /><path
         d="m 771.273,345.59 c 0,7.43 1.653,14.035 4.954,18.988 2.476,4.953 6.605,7.43 9.906,9.078 0.828,0 0.828,0 1.652,0 0.824,0 0.824,0 1.653,0 4.125,0 7.429,-1.648 9.906,-4.953 2.476,-3.301 4.953,-7.43 5.777,-11.555 0.824,-1.652 1.652,-3.304 1.652,-4.953 0,-2.476 0,-4.129 0,-5.781 0,-6.601 -0.828,-12.379 -2.476,-16.508 -2.477,-4.129 -4.953,-7.429 -6.606,-9.082 -1.652,-0.824 -3.3,-0.824 -4.128,-0.824 -1.649,-0.824 -2.477,-0.824 -3.301,-0.824 -4.953,0 -9.907,1.648 -13.207,5.777 -3.305,4.953 -4.953,11.559 -5.782,20.637 z m 28.071,0.824 c 0,1.652 0,2.477 0,2.477 0,0 0,0.828 0,2.476 0,1.653 -0.828,4.129 -0.828,5.781 -0.825,3.301 -1.649,7.43 -3.301,9.907 -0.824,3.3 -3.301,4.953 -5.777,4.953 v 0 0 0 c -2.477,0 -4.954,-1.653 -5.782,-4.129 -1.648,-3.301 -3.301,-6.606 -3.301,-9.906 -0.824,-2.477 -0.824,-4.953 -0.824,-6.606 0,-2.476 0,-4.125 0,-4.953 0,-9.902 0.824,-17.332 3.301,-20.637 1.652,-3.3 4.129,-5.777 7.43,-5.777 2.476,0 4.953,2.477 6.605,7.43 1.649,4.953 2.477,9.906 2.477,16.511 0,0 0,0.825 0,1.649 v 0.824"
         style="fill:#231f20;fill-opacity:1;fill-rule:evenodd;stroke:none"
         id="path72" /><path
         d="m 832.301,376.699 c 5.097,0 10.097,-4.301 10.097,-10.097 0,-5.704 -5,-10 -10.097,-10 -5,0 -10.102,4.296 -10.102,10 0,5.796 5.102,10.097 10.102,10.097 z"
         style="fill:none;stroke:#231f20;stroke-width:5.8;stroke-linecap:butt;stroke-linejoin:miter;stroke-miterlimit:11.4737;stroke-dasharray:none;stroke-opacity:1"
         id="path74" /><path
         d="m 1267.26,199.625 c 0,1.648 0,2.477 -0.82,3.301 0,0 -0.83,0.824 -1.65,0.824 h -0.83 v 0 l -4.95,0.828 v 1.649 c 0.82,0 1.65,0 3.3,0.828 1.65,0 2.48,0.824 4.13,1.648 0.82,0.828 2.47,1.652 3.3,2.477 0.82,0.828 1.65,1.652 2.47,2.476 h 1.66 v -40.449 0 -3.301 c 0,-4.129 0.82,-6.605 1.65,-7.429 0,-0.825 1.65,-0.825 4.12,-0.825 0.83,0 0.83,0 0.83,0 h 0.83 V 160 h -21.47 v 1.652 c 0,0 0.83,0 1.65,0 0,0 0.83,0 1.65,0 1.66,0 3.31,0.825 3.31,0.825 0.82,0.824 0.82,3.3 0.82,7.429 v 29.719"
         style="fill:#231f20;fill-opacity:1;fill-rule:evenodd;stroke:none"
         id="path76" /><path
         d="m 1325.05,186.414 c -0.83,0.828 -0.83,0.828 -1.66,0.828 0,0.824 -0.82,0.824 -1.64,0.824 -1.66,1.653 -3.31,3.301 -4.96,4.954 -0.83,1.652 -1.65,4.953 -2.47,7.429 v 0 0 0 0.824 c 0,0 0,0.829 0,1.653 0,0 0.82,0.824 0.82,1.652 0.82,2.477 2.48,4.953 4.95,6.602 2.48,1.652 5.78,2.476 9.91,2.476 3.3,0 7.43,-0.824 9.08,-1.648 3.3,-1.653 4.96,-4.129 5.78,-5.781 0,0 0.82,-0.825 0.82,-1.649 0,-0.828 0,-1.652 0,-2.476 0,-2.477 -0.82,-4.954 -3.3,-7.43 -1.65,-1.652 -4.95,-3.305 -8.25,-4.953 4.95,-1.653 8.25,-3.305 9.91,-6.606 1.64,-2.476 3.3,-5.777 3.3,-8.254 0,-0.824 0,-1.652 0,-1.652 0,-0.824 -0.83,-1.648 -0.83,-2.477 -0.83,-2.476 -2.47,-5.777 -4.95,-8.253 C 1338.25,160 1334.95,160 1330.82,160 h -0.82 -0.82 c -4.13,0 -7.43,0 -9.91,1.652 -2.48,1.649 -4.13,3.301 -4.95,5.778 -0.83,0.824 -0.83,1.652 -0.83,2.476 -0.83,0.824 -0.83,2.477 -0.83,3.301 0,2.477 0.83,4.953 2.48,7.43 1.65,1.652 4.13,3.304 5.78,4.129 0.83,0.824 1.65,0.824 2.47,0.824 0,0.824 0.83,0.824 1.66,0.824 z m 1.65,0 c 0,-0.824 -0.83,-0.824 -1.65,-1.648 0,0 -0.83,-0.825 -1.66,-0.825 -0.82,-1.652 -2.47,-2.476 -3.3,-4.128 -0.82,-2.477 -1.65,-4.129 -1.65,-6.606 v 0 -0.824 0 0 c 0,-3.301 1.65,-5.778 3.31,-8.254 1.64,-1.652 4.95,-3.305 9.07,-3.305 v 0 0 c 2.48,0 4.96,0.828 7.43,3.305 1.66,2.476 3.31,4.953 3.31,9.078 v 0 0 0.828 0 c 0,1.649 -1.65,3.301 -2.48,4.953 -1.65,1.649 -3.3,2.477 -5.78,3.301 -0.82,0.824 -2.48,1.652 -3.3,2.477 -1.65,0 -2.48,0.824 -3.3,1.648 z m 5.78,4.953 c 0.82,0 2.47,0.828 3.3,1.653 0.83,0.824 1.65,2.476 2.47,3.3 0.83,1.653 1.66,2.477 1.66,3.305 0,1.648 0,2.477 0,2.477 0,3.3 -0.83,5.777 -2.48,7.429 -2.48,1.649 -4.95,2.477 -6.61,2.477 H 1330 v 0 c -2.48,0 -4.95,-0.828 -6.61,-2.477 -1.64,-1.652 -3.3,-4.129 -3.3,-7.429 v 0 0 c 0,-1.653 0.83,-3.305 2.48,-4.954 1.65,-1.652 4.95,-4.128 9.91,-5.781"
         style="fill:#231f20;fill-opacity:1;fill-rule:evenodd;stroke:none"
         id="path78" /><path
         d="m 1371.27,185.59 c 0,7.43 1.66,14.035 4.96,18.988 2.47,4.953 6.6,7.43 9.9,9.078 0.83,0 0.83,0 1.66,0 0.82,0 0.82,0 1.65,0 4.12,0 7.43,-1.648 9.9,-4.953 2.48,-3.301 4.96,-7.43 5.78,-11.555 0.83,-1.652 1.65,-3.304 1.65,-4.953 0,-2.476 0,-4.129 0,-5.781 0,-6.601 -0.82,-12.379 -2.47,-16.508 -2.48,-4.129 -4.96,-7.429 -6.61,-9.082 -1.65,-0.824 -3.3,-0.824 -4.13,-0.824 -1.65,-0.824 -2.47,-0.824 -3.3,-0.824 -4.95,0 -9.9,1.648 -13.21,5.777 -3.3,4.953 -4.95,11.559 -5.78,20.637 z m 28.07,0.824 c 0,1.652 0,2.477 0,2.477 0,0 0,0.828 0,2.476 0,1.653 -0.82,4.129 -0.82,5.781 -0.83,3.301 -1.65,7.43 -3.31,9.907 -0.82,3.3 -3.3,4.953 -5.77,4.953 v 0 0 0 c -2.48,0 -4.96,-1.653 -5.78,-4.129 -1.65,-3.301 -3.3,-6.606 -3.3,-9.906 -0.83,-2.477 -0.83,-4.953 -0.83,-6.606 0,-2.476 0,-4.125 0,-4.953 0,-9.902 0.83,-17.332 3.3,-20.637 1.65,-3.3 4.13,-5.777 7.43,-5.777 2.48,0 4.95,2.477 6.61,7.43 1.65,4.953 2.47,9.906 2.47,16.511 0,0 0,0.825 0,1.649 v 0.824"
         style="fill:#231f20;fill-opacity:1;fill-rule:evenodd;stroke:none"
         id="path80" /><path
         d="m 1439.3,222.602 c 5,0 10.1,-4.301 10.1,-10 0,-5.801 -5.1,-10.102 -10.1,-10.102 -5.1,0 -10.1,4.301 -10.1,10.102 0,5.699 5,10 10.1,10 z"
         style="fill:none;stroke:#231f20;stroke-width:5.8;stroke-linecap:butt;stroke-linejoin:miter;stroke-miterlimit:11.4737;stroke-dasharray:none;stroke-opacity:1"
         id="path82" /><path
         d="m 1837.26,349.625 c 0,1.648 0,2.477 -0.82,3.301 0,0 -0.83,0.824 -1.65,0.824 h -0.83 v 0 l -4.95,0.828 v 1.649 c 0.82,0 1.65,0 3.3,0.828 1.65,0 2.48,0.824 4.13,1.648 0.82,0.828 2.47,1.652 3.3,2.477 0.82,0.828 1.65,1.652 2.47,2.476 h 1.66 v -40.449 0 -3.301 c 0,-4.129 0.82,-6.605 1.65,-7.429 0,-0.825 1.65,-0.825 4.12,-0.825 0.83,0 0.83,0 0.83,0 h 0.83 V 310 h -21.47 v 1.652 c 0,0 0.83,0 1.65,0 0,0 0.83,0 1.65,0 1.66,0 3.31,0.825 3.31,0.825 0.82,0.824 0.82,3.3 0.82,7.429 v 29.719"
         style="fill:#231f20;fill-opacity:1;fill-rule:evenodd;stroke:none"
         id="path84" /><path
         d="m 1906.61,363.656 c 0.82,0 1.64,0 1.64,0 0,0 0,0 0.83,0 0,0 0.83,0.828 1.65,0.828 v 0.825 l 0.83,0.824 h 1.65 l -4.13,-9.078 h -17.33 l -1.66,-10.735 c 8.26,0 14.86,-1.648 18.99,-4.953 4.13,-4.125 5.78,-9.078 5.78,-14.855 0,-4.129 -0.82,-8.258 -3.3,-10.735 -2.48,-2.476 -4.95,-4.125 -8.26,-5.777 -0.82,0 -2.48,0 -3.3,0 -0.82,0 -1.65,0 -2.48,0 h -0.82 -0.83 c -0.82,0 -1.65,0 -1.65,0 -0.83,0 -1.65,0 -1.65,0 -2.48,0 -4.95,0 -7.43,1.652 -1.65,0.825 -3.3,2.477 -3.3,3.301 v 0.824 0 0 c 0,0.828 0.82,1.653 1.65,2.477 0,0 0.83,0 1.65,0 0,0 0.82,0 1.65,0 0,0 0.83,0 0.83,-0.824 0.82,0 1.65,-0.825 1.65,-0.825 0.82,-0.828 1.65,-1.652 1.65,-2.476 0.83,-0.828 1.65,-1.652 2.47,-2.477 0.83,0 2.48,-0.828 3.31,-0.828 0.82,0 0.82,0 1.65,0 0.83,0 0.83,0.828 1.65,0.828 1.65,0 4.13,1.649 5.78,3.301 1.65,1.652 2.47,4.953 3.3,8.254 v 0.828 0 c 0,5.778 -1.65,9.078 -4.95,11.555 -3.31,1.652 -7.43,3.301 -10.74,3.301 -0.82,0 -1.64,0 -1.64,0 -0.83,0 -1.66,0 -1.66,0 -0.82,0 -0.82,0 -1.65,0 h -0.82 l 2.47,24.765 h 16.52"
         style="fill:#231f20;fill-opacity:1;fill-rule:evenodd;stroke:none"
         id="path86" /><path
         d="m 1941.27,335.59 c 0,7.43 1.66,14.035 4.96,18.988 2.47,4.953 6.6,7.43 9.9,9.078 0.83,0 0.83,0 1.66,0 0.82,0 0.82,0 1.65,0 4.12,0 7.43,-1.648 9.9,-4.953 2.48,-3.301 4.96,-7.43 5.78,-11.555 0.83,-1.652 1.65,-3.304 1.65,-4.953 0,-2.476 0,-4.129 0,-5.781 0,-6.601 -0.82,-12.379 -2.47,-16.508 -2.48,-4.129 -4.96,-7.429 -6.61,-9.082 -1.65,-0.824 -3.3,-0.824 -4.13,-0.824 -1.65,-0.824 -2.47,-0.824 -3.3,-0.824 -4.95,0 -9.9,1.648 -13.21,5.777 -3.3,4.953 -4.95,11.559 -5.78,20.637 z m 28.07,0.824 c 0,1.652 0,2.477 0,2.477 0,0 0,0.828 0,2.476 0,1.653 -0.82,4.129 -0.82,5.781 -0.83,3.301 -1.65,7.43 -3.31,9.907 -0.82,3.3 -3.3,4.953 -5.77,4.953 v 0 0 0 c -2.48,0 -4.96,-1.653 -5.78,-4.129 -1.65,-3.301 -3.3,-6.606 -3.3,-9.906 -0.83,-2.477 -0.83,-4.953 -0.83,-6.606 0,-2.476 0,-4.125 0,-4.953 0,-9.902 0.83,-17.332 3.3,-20.637 1.65,-3.3 4.13,-5.777 7.43,-5.777 2.48,0 4.95,2.477 6.61,7.43 1.65,4.953 2.47,9.906 2.47,16.511 0,0 0,0.825 0,1.649 v 0.824"
         style="fill:#231f20;fill-opacity:1;fill-rule:evenodd;stroke:none"
         id="path88" /><path
         d="m 2004.5,364.5 c 5,0 10.1,-4.301 10.1,-10.102 0,-5.796 -5.1,-10.097 -10.1,-10.097 -5.1,0 -9.4,4.301 -9.4,10.097 0,5.801 4.3,10.102 9.4,10.102 z"
         style="fill:none;stroke:#231f20;stroke-width:5.8;stroke-linecap:butt;stroke-linejoin:miter;stroke-miterlimit:11.4737;stroke-dasharray:none;stroke-opacity:1"
         id="path90" /><path
         d="m 2217.26,709.625 c 0,1.648 0,2.477 -0.82,3.301 0,0 -0.83,0.824 -1.65,0.824 h -0.83 v 0 l -4.95,0.828 v 1.649 c 0.82,0 1.65,0 3.3,0.828 1.65,0 2.48,0.824 4.13,1.648 0.82,0.828 2.47,1.652 3.3,2.477 0.82,0.828 1.65,1.652 2.47,2.476 h 1.66 v -40.449 0 -3.301 c 0,-4.129 0.82,-6.605 1.65,-7.429 0,-0.825 1.65,-0.825 4.12,-0.825 0.83,0 0.83,0 0.83,0 h 0.83 V 670 h -21.47 v 1.652 c 0,0 0.83,0 1.65,0 0,0 0.83,0 1.65,0 1.66,0 3.31,0.825 3.31,0.825 0.82,0.824 0.82,3.3 0.82,7.429 v 29.719"
         style="fill:#231f20;fill-opacity:1;fill-rule:evenodd;stroke:none"
         id="path92" /><path
         d="m 2264.32,707.148 c 0,0.825 0.82,2.477 1.64,3.301 0.83,1.653 1.66,3.301 2.48,4.953 1.65,1.653 4.13,4.129 6.61,5.778 1.65,1.652 4.95,2.476 7.43,2.476 3.3,0 6.6,-0.824 9.08,-2.476 2.48,-1.649 4.12,-4.953 4.12,-8.254 0,-2.477 -0.82,-4.953 -1.64,-6.606 -0.83,-1.648 -2.48,-4.125 -4.96,-5.777 -1.65,-1.652 -3.3,-4.125 -4.95,-4.953 -1.65,-1.649 -3.31,-3.301 -4.13,-4.953 -0.82,0 -1.65,-0.824 -1.65,-1.649 -0.83,-0.828 -1.65,-1.652 -2.48,-2.476 v 0 l -0.82,-0.828 c -1.66,-1.649 -3.3,-3.301 -4.13,-4.954 -1.65,-1.648 -2.48,-3.3 -3.3,-4.953 h 18.16 c 1.65,0 4.13,0.828 4.95,0.828 1.65,0.825 2.48,2.477 3.31,4.954 h 2.47 l -5.78,-14.86 h -1.65 c 0,1.649 0,2.477 -0.83,2.477 0,0.824 -1.64,0.824 -3.3,0.824 h -20.63 c 0,2.477 0,4.953 1.64,7.43 0.83,2.476 2.48,4.953 4.13,6.605 0.83,0.824 1.66,1.649 2.48,2.477 0.82,0.824 1.65,1.648 1.65,2.476 0.83,0.825 1.65,1.649 2.48,3.301 0.82,0.824 2.48,3.301 4.12,4.953 0,0 0,0 0.83,0.824 v 0.825 c 0.83,0.828 2.48,2.476 3.3,4.129 0.83,0.824 1.66,2.476 1.66,3.3 l 0.82,0.828 c 0,0.825 0,0.825 0,1.649 l 0.82,0.828 c 0,0.824 0,0.824 0,1.648 0,1.653 -0.82,3.305 -1.64,4.954 -0.83,0.828 -3.31,2.476 -5.79,2.476 v 0 0.828 H 2280 v 0 c -2.48,0 -4.95,-1.652 -6.61,-3.304 -1.64,-1.649 -3.3,-3.301 -4.95,-4.954 0,-0.824 -0.82,-1.648 -0.82,-2.476 -0.83,0 -0.83,-0.824 -1.66,-1.649 h -1.64"
         style="fill:#231f20;fill-opacity:1;fill-rule:evenodd;stroke:none"
         id="path94" /><path
         d="m 2321.27,695.59 c 0,7.43 1.66,14.035 4.96,18.988 2.47,4.953 6.6,7.43 9.9,9.078 0.83,0 0.83,0 1.66,0 0.82,0 0.82,0 1.65,0 4.12,0 7.43,-1.648 9.9,-4.953 2.48,-3.301 4.96,-7.43 5.78,-11.555 0.83,-1.652 1.65,-3.304 1.65,-4.953 0,-2.476 0,-4.129 0,-5.777 0,-6.605 -0.82,-12.383 -2.47,-16.512 -2.48,-4.129 -4.96,-7.429 -6.61,-9.082 -1.65,-0.824 -3.3,-0.824 -4.13,-0.824 -1.65,-0.824 -2.47,-0.824 -3.3,-0.824 -4.95,0 -9.9,1.648 -13.21,5.777 -3.3,4.953 -4.95,11.559 -5.78,20.637 z m 28.07,0.828 c 0,1.648 0,2.473 0,2.473 0,0 0,0.828 0,2.476 0,1.653 -0.82,4.129 -0.82,5.781 -0.83,3.301 -1.65,7.43 -3.31,9.907 -0.82,3.3 -3.3,4.953 -5.77,4.953 v 0 0 0 c -2.48,0 -4.96,-1.653 -5.78,-4.129 -1.65,-3.301 -3.3,-6.606 -3.3,-9.906 -0.83,-2.477 -0.83,-4.953 -0.83,-6.606 0,-2.476 0,-4.125 0,-4.949 0,-9.906 0.83,-17.336 3.3,-20.641 1.65,-3.3 4.13,-5.777 7.43,-5.777 2.48,0 4.95,2.477 6.61,7.43 1.65,4.953 2.47,9.906 2.47,16.511 0,0 0,0.825 0,1.649 v 0.828"
         style="fill:#231f20;fill-opacity:1;fill-rule:evenodd;stroke:none"
         id="path96" /><path
         d="m 2383.2,732.398 c 5,0 9.4,-3.597 9.4,-9.398 0,-5.699 -4.4,-10 -9.4,-10 -5,0 -10.1,4.301 -10.1,10 0,5.801 5.1,9.398 10.1,9.398 z"
         style="fill:none;stroke:#231f20;stroke-width:5.8;stroke-linecap:butt;stroke-linejoin:miter;stroke-miterlimit:11.4737;stroke-dasharray:none;stroke-opacity:1"
         id="path98" /><path
         d="m 2369.36,1225.59 c -0.82,-0.82 -1.65,-2.48 -2.47,-2.48 -1.66,-0.82 -2.48,-1.65 -4.13,-1.65 -0.83,-0.82 -1.65,-0.82 -1.65,-0.82 -0.83,0 -1.65,0 -2.48,0 v 0 0 h -0.83 v 0 0 0 c -4.12,0 -7.42,0.82 -10.73,4.13 -3.3,2.47 -4.95,6.6 -4.95,11.55 v 0 0.83 0 0 c 0.83,4.95 1.65,8.25 4.13,10.73 2.48,2.48 5.78,4.13 8.25,4.95 0.83,0.83 1.66,0.83 2.48,0.83 0.82,0 1.65,0 2.48,0 6.6,0 11.55,-1.65 14.03,-6.61 2.47,-4.95 4.13,-9.9 4.13,-16.51 0,-1.65 0,-4.12 0,-5.77 -0.83,-2.48 -1.66,-4.96 -2.48,-6.61 -1.65,-4.12 -4.95,-8.25 -9.08,-12.38 -4.13,-4.13 -9.08,-5.78 -15.68,-7.43 l -0.83,1.65 h 0.83 c 0.82,0 1.65,0 1.65,0 4.13,2.48 8.25,5.78 11.56,9.91 3.3,4.95 5.77,9.9 5.77,14.86 v 0 z m 0.83,11.56 c 0,5.78 -0.83,9.08 -2.48,11.55 -1.65,1.66 -4.12,3.31 -6.6,3.31 v 0 0 0 0 c -3.31,0 -4.95,-0.83 -6.61,-2.48 -1.65,-1.65 -2.47,-4.13 -3.3,-5.78 -0.82,-1.65 -0.82,-2.48 -0.82,-3.3 0,-0.82 0,-2.48 0,-3.3 v 0 0 -0.83 0 c 0,-4.12 0.82,-7.43 2.47,-9.08 1.65,-2.47 4.13,-4.13 6.61,-4.13 v 0 0 c 3.3,0 6.6,0.83 8.25,3.31 1.65,2.47 2.48,5.78 2.48,10.73"
         style="fill:#231f20;fill-opacity:1;fill-rule:evenodd;stroke:none"
         id="path100" /><path
         d="m 2401.56,1225.59 c 0,7.43 1.65,14.04 4.95,18.99 2.48,4.95 6.6,7.43 9.91,9.08 0.82,0 0.82,0 1.65,0 0.82,0 0.82,0 1.65,0 4.12,0 7.43,-1.65 9.91,-4.96 2.47,-3.3 4.95,-7.43 5.77,-11.55 0.83,-1.65 1.65,-3.31 1.65,-4.95 0,-2.48 0,-4.13 0,-5.78 0,-6.61 -0.82,-12.38 -2.47,-16.51 -2.48,-4.13 -4.95,-7.43 -6.61,-9.09 -1.65,-0.82 -3.3,-0.82 -4.13,-0.82 -1.64,-0.82 -2.47,-0.82 -3.3,-0.82 -4.95,0 -9.9,1.64 -13.2,5.77 -3.3,4.96 -4.96,11.56 -5.78,20.64 z m 28.07,0.83 c 0,1.65 0,2.47 0,2.47 0,0 0,0.83 0,2.48 0,1.65 -0.83,4.13 -0.83,5.78 -0.83,3.3 -1.65,7.43 -3.3,9.9 -0.83,3.31 -3.3,4.96 -5.78,4.96 v 0 0 0 c -2.48,0 -4.95,-1.65 -5.78,-4.13 -1.65,-3.3 -3.3,-6.61 -3.3,-9.91 -0.83,-2.47 -0.83,-4.95 -0.83,-6.6 0,-2.48 0,-4.13 0,-4.95 0,-9.91 0.83,-17.34 3.3,-20.64 1.66,-3.3 4.13,-5.78 7.43,-5.78 2.48,0 4.96,2.48 6.61,7.43 1.65,4.95 2.48,9.91 2.48,16.51 0,0 0,0.83 0,1.65 v 0.83"
         style="fill:#231f20;fill-opacity:1;fill-rule:evenodd;stroke:none"
         id="path102" /><path
         d="m 2460.2,1255.1 c 5.1,0 10.1,-3.6 10.1,-9.3 0,-6.5 -5,-10.1 -10.1,-10.1 -4.3,0 -9.3,3.6 -9.3,10.1 0,5.7 5,9.3 9.3,9.3 z"
         style="fill:none;stroke:#231f20;stroke-width:5.8;stroke-linecap:butt;stroke-linejoin:miter;stroke-miterlimit:11.4737;stroke-dasharray:none;stroke-opacity:1"
         id="path104" /><path
         d="m 284.879,707.148 c 0,0.825 0.824,2.477 1.652,3.301 0.824,1.653 1.649,3.301 2.477,4.953 1.648,1.653 4.125,4.129 6.601,5.778 1.653,1.652 4.954,2.476 7.43,2.476 3.305,0 6.606,-0.824 9.082,-2.476 2.477,-1.649 4.129,-4.953 4.129,-8.254 0,-2.477 -0.828,-4.953 -1.652,-6.606 -0.825,-1.648 -2.477,-4.125 -4.953,-5.777 -1.653,-1.652 -3.301,-4.125 -4.954,-4.953 -1.652,-1.649 -3.3,-3.301 -4.128,-4.953 -0.825,0 -1.649,-0.824 -1.649,-1.649 -0.828,-0.828 -1.652,-1.652 -2.476,-2.476 v 0 l -0.829,-0.828 c -1.648,-1.649 -3.3,-3.301 -4.125,-4.954 -1.652,-1.648 -2.476,-3.3 -3.304,-4.953 h 18.164 c 1.648,0 4.125,0.828 4.953,0.828 1.648,0.825 2.476,2.477 3.301,4.954 h 2.476 l -5.777,-14.86 h -1.652 c 0,1.649 0,2.477 -0.825,2.477 0,0.824 -1.652,0.824 -3.304,0.824 h -20.637 c 0,2.477 0,4.953 1.652,7.43 0.824,2.476 2.477,4.953 4.125,6.605 0.828,0.824 1.653,1.649 2.477,2.477 0.828,0.824 1.652,1.648 1.652,2.476 0.824,0.825 1.653,1.649 2.477,3.301 0.824,0.824 2.476,3.301 4.129,4.953 0,0 0,0 0.824,0.824 v 0.825 c 0.824,0.828 2.476,2.476 3.301,4.129 0.828,0.824 1.652,2.476 1.652,3.3 l 0.824,0.828 c 0,0.825 0,0.825 0,1.649 l 0.828,0.828 c 0,0.824 0,0.824 0,1.648 0,1.653 -0.828,3.305 -1.652,4.954 -0.824,0.828 -3.301,2.476 -5.777,2.476 v 0 0.828 h -0.828 v 0 c -2.477,0 -4.954,-1.652 -6.602,-3.304 -1.652,-1.649 -3.305,-3.301 -4.953,-4.954 0,-0.824 -0.828,-1.648 -0.828,-2.476 -0.825,0 -0.825,-0.824 -1.649,-1.649 h -1.652"
         style="fill:#231f20;fill-opacity:1;fill-rule:evenodd;stroke:none"
         id="path106" /><path
         d="m 363.301,670 v 15.684 h -22.289 v 3.304 l 25.593,35.496 h 3.301 v -33.847 h 8.254 v -4.953 h -8.254 V 670 Z m 0,47.055 -18.985,-26.418 h 18.985 z"
         style="fill:#231f20;fill-opacity:1;fill-rule:evenodd;stroke:none"
         id="path108" /><path
         d="m 401.273,695.59 c 0,7.43 1.653,14.035 4.954,18.988 2.476,4.953 6.605,7.43 9.906,9.078 0.828,0 0.828,0 1.652,0 0.824,0 0.824,0 1.653,0 4.125,0 7.429,-1.648 9.906,-4.953 2.476,-3.301 4.953,-7.43 5.777,-11.555 0.824,-1.652 1.652,-3.304 1.652,-4.953 0,-2.476 0,-4.129 0,-5.777 0,-6.605 -0.828,-12.383 -2.476,-16.512 -2.477,-4.129 -4.953,-7.429 -6.606,-9.082 -1.652,-0.824 -3.3,-0.824 -4.128,-0.824 -1.649,-0.824 -2.477,-0.824 -3.301,-0.824 -4.953,0 -9.907,1.648 -13.207,5.777 -3.305,4.953 -4.953,11.559 -5.782,20.637 z m 28.071,0.828 c 0,1.648 0,2.473 0,2.473 0,0 0,0.828 0,2.476 0,1.653 -0.828,4.129 -0.828,5.781 -0.825,3.301 -1.649,7.43 -3.301,9.907 -0.824,3.3 -3.301,4.953 -5.777,4.953 v 0 0 0 c -2.477,0 -4.954,-1.653 -5.782,-4.129 -1.648,-3.301 -3.301,-6.606 -3.301,-9.906 -0.824,-2.477 -0.824,-4.953 -0.824,-6.606 0,-2.476 0,-4.125 0,-4.949 0,-9.906 0.824,-17.336 3.301,-20.641 1.652,-3.3 4.129,-5.777 7.43,-5.777 2.476,0 4.953,2.477 6.605,7.43 1.649,4.953 2.477,9.906 2.477,16.511 0,0 0,0.825 0,1.649 v 0.828"
         style="fill:#231f20;fill-opacity:1;fill-rule:evenodd;stroke:none"
         id="path110" /><path
         d="m 458.602,731 c 5.097,0 10.097,-4.398 10.097,-10.102 0,-5.796 -5,-10.097 -10.097,-10.097 -4.301,0 -9.301,4.301 -9.301,10.097 0,5.704 5,10.102 9.301,10.102 z"
         style="fill:none;stroke:#231f20;stroke-width:5.8;stroke-linecap:butt;stroke-linejoin:miter;stroke-miterlimit:11.4737;stroke-dasharray:none;stroke-opacity:1"
         id="path112" /><path
         d="m 294.785,1735.59 c 0.824,0 0.824,0.83 1.653,1.65 0,0 0.824,0.83 1.648,1.65 1.652,1.65 3.305,4.13 4.953,5.78 1.652,2.48 2.477,4.96 2.477,6.6 0,2.48 -0.825,4.13 -2.477,4.96 -0.824,1.65 -3.301,1.65 -4.953,1.65 -1.648,0 -3.301,0 -4.953,-1.65 -2.477,-0.83 -4.125,-2.48 -5.778,-4.13 l -1.652,0.83 c 1.652,2.47 3.305,4.12 5.781,5.77 2.477,1.66 4.954,3.31 6.602,4.13 0.828,0 1.652,0 1.652,0 0.825,0 1.653,0.83 1.653,0.83 3.3,0 5.777,-0.83 7.429,-2.48 1.649,-0.82 2.477,-3.3 2.477,-5.78 0,-3.3 -0.828,-5.77 -2.477,-8.25 -1.652,-2.48 -4.129,-4.13 -6.605,-5.78 4.129,0 7.43,-1.65 9.906,-4.13 2.477,-3.3 4.129,-6.6 4.129,-9.9 v 0 -0.83 0 -0.83 -0.82 0 c 0,-3.3 -1.652,-6.61 -3.305,-8.25 -2.476,-2.48 -4.125,-4.13 -6.601,-5.79 -0.828,-0.82 -2.477,-0.82 -4.129,-0.82 -0.824,0 -2.477,0 -3.301,0 -0.828,0 -1.652,0 -3.305,0 -0.824,0 -2.476,0 -4.125,0 -0.828,0 -1.652,0 -2.476,0 -0.828,0.82 -2.477,1.65 -3.305,1.65 v 0.83 h -0.824 c 0,0.82 -0.824,0.82 -0.824,1.65 -0.825,0.82 -0.825,1.65 -0.825,1.65 0,0.83 0,0.83 0,0.83 l -0.828,0.82 0.828,0.82 v 0.83 l 0.825,0.83 c 0.824,0 0.824,0 1.648,0 v 0 c 0.828,0 0.828,-0.83 1.652,-0.83 0,0 0.825,-0.83 1.653,-0.83 0,-0.82 0.824,-1.64 1.648,-2.47 0.828,-1.65 1.653,-2.48 2.477,-3.3 1.652,-0.83 2.476,-1.66 4.129,-1.66 h 0.824 0.828 c 3.301,0 5.777,1.66 7.43,4.13 1.648,2.48 3.301,5.78 3.301,9.09 v 0.82 0 0.82 0 c -0.825,3.31 -1.653,4.96 -3.301,6.61 -1.653,0.82 -3.305,2.48 -4.953,2.48 -1.653,0 -2.477,0.82 -4.129,0.82 -0.824,0 -1.653,0 -2.477,0"
         style="fill:#231f20;fill-opacity:1;fill-rule:evenodd;stroke:none"
         id="path114" /><path
         d="m 341.84,1735.59 c 0,7.43 1.648,14.04 4.953,18.99 2.477,4.95 6.602,7.43 9.906,9.08 0.824,0 0.824,0 1.649,0 0.828,0 0.828,0 1.652,0 4.129,0 7.43,-1.65 9.906,-4.96 2.477,-3.3 4.953,-7.43 5.778,-11.55 0.828,-1.65 1.652,-3.31 1.652,-4.95 0,-2.48 0,-4.13 0,-5.78 0,-6.61 -0.824,-12.38 -2.477,-16.51 -2.476,-4.13 -4.953,-7.43 -6.605,-9.09 -1.649,-0.82 -3.301,-0.82 -4.125,-0.82 -1.652,-0.82 -2.477,-0.82 -3.305,-0.82 -4.953,0 -9.906,1.64 -13.207,5.77 -3.301,4.96 -4.953,11.56 -5.777,20.64 z m 28.066,0.83 c 0,1.65 0,2.47 0,2.47 0,0 0,0.83 0,2.48 0,1.65 -0.824,4.13 -0.824,5.78 -0.828,3.3 -1.652,7.43 -3.305,9.9 -0.824,3.31 -3.3,4.96 -5.777,4.96 v 0 0 0 c -2.477,0 -4.953,-1.65 -5.777,-4.13 -1.653,-3.3 -3.305,-6.61 -3.305,-9.91 -0.824,-2.47 -0.824,-4.95 -0.824,-6.6 0,-2.48 0,-4.13 0,-4.95 0,-9.91 0.824,-17.34 3.301,-20.64 1.652,-3.3 4.128,-5.78 7.429,-5.78 2.477,0 4.953,2.48 6.606,7.43 1.652,4.95 2.476,9.91 2.476,16.51 0,0 0,0.83 0,1.65 v 0.83"
         style="fill:#231f20;fill-opacity:1;fill-rule:evenodd;stroke:none"
         id="path116" /><path
         d="m 401.273,1735.59 c 0,7.43 1.653,14.04 4.954,18.99 2.476,4.95 6.605,7.43 9.906,9.08 0.828,0 0.828,0 1.652,0 0.824,0 0.824,0 1.653,0 4.125,0 7.429,-1.65 9.906,-4.96 2.476,-3.3 4.953,-7.43 5.777,-11.55 0.824,-1.65 1.652,-3.31 1.652,-4.95 0,-2.48 0,-4.13 0,-5.78 0,-6.61 -0.828,-12.38 -2.476,-16.51 -2.477,-4.13 -4.953,-7.43 -6.606,-9.09 -1.652,-0.82 -3.3,-0.82 -4.128,-0.82 -1.649,-0.82 -2.477,-0.82 -3.301,-0.82 -4.953,0 -9.907,1.64 -13.207,5.77 -3.305,4.96 -4.953,11.56 -5.782,20.64 z m 28.071,0.83 c 0,1.65 0,2.47 0,2.47 0,0 0,0.83 0,2.48 0,1.65 -0.828,4.13 -0.828,5.78 -0.825,3.3 -1.649,7.43 -3.301,9.9 -0.824,3.31 -3.301,4.96 -5.777,4.96 v 0 0 0 c -2.477,0 -4.954,-1.65 -5.782,-4.13 -1.648,-3.3 -3.301,-6.61 -3.301,-9.91 -0.824,-2.47 -0.824,-4.95 -0.824,-6.6 0,-2.48 0,-4.13 0,-4.95 0,-9.91 0.824,-17.34 3.301,-20.64 1.652,-3.3 4.129,-5.78 7.43,-5.78 2.476,0 4.953,2.48 6.605,7.43 1.649,4.95 2.477,9.91 2.477,16.51 0,0 0,0.83 0,1.65 v 0.83"
         style="fill:#231f20;fill-opacity:1;fill-rule:evenodd;stroke:none"
         id="path118" /><path
         d="m 463,1772.8 c 5,0 10,-3.6 10,-9.4 0,-5.7 -5,-10 -10,-10 -5.102,0 -10.102,4.3 -10.102,10 0,5.8 5,9.4 10.102,9.4 z"
         style="fill:none;stroke:#231f20;stroke-width:5.8;stroke-linecap:butt;stroke-linejoin:miter;stroke-miterlimit:11.4737;stroke-dasharray:none;stroke-opacity:1"
         id="path120" /><path
         d="m 2220.38,1746.42 c 1.65,1.65 3.3,2.47 4.95,3.3 1.65,0.82 3.3,1.65 4.95,1.65 0.83,0 0.83,0.83 1.65,0.83 h 0.83 c 4.13,0 8.25,-1.66 10.73,-4.96 3.3,-2.47 4.95,-6.6 4.95,-10.73 0,-4.95 -0.82,-9.08 -4.12,-11.56 -2.48,-3.3 -5.78,-4.95 -8.26,-4.95 -0.83,0 -2.47,-0.82 -3.3,-0.82 -0.83,0 -1.65,0 -2.48,0 -4.95,0 -9.08,0.82 -10.73,3.3 -2.48,3.3 -4.95,6.6 -5.78,9.9 0,1.66 -0.82,3.3 -0.82,4.13 0,1.65 0,3.3 0,4.13 0,9.08 2.47,16.51 8.25,21.46 4.96,5.78 11.56,9.91 19.81,12.38 v -1.65 c -0.82,0 -1.65,-0.82 -1.65,-0.82 -0.82,0 -1.65,-0.83 -2.47,-0.83 -3.3,-1.65 -6.61,-4.95 -9.91,-9.08 -3.3,-4.13 -5.78,-9.9 -6.6,-15.68 z m 20.63,-9.91 c 0,0.83 0,1.65 0,2.48 0,0.82 -0.82,1.65 -0.82,2.47 -0.83,1.65 -1.65,4.13 -2.48,4.96 -1.65,1.65 -4.12,2.47 -6.6,2.47 -0.83,0 -0.83,0 -1.65,0 0,0 -0.83,0 -1.66,0 -1.64,-0.82 -3.3,-1.65 -4.95,-3.3 -1.65,-2.48 -2.47,-4.95 -2.47,-9.91 0,-0.82 0,-1.64 0,-2.47 0,-1.65 0,-2.48 0.82,-4.13 0,-1.65 1.65,-4.13 2.48,-5.78 1.65,-1.65 4.12,-3.3 6.6,-3.3 v 0 0 c 2.48,0 4.95,1.65 7.43,4.13 1.65,2.48 3.3,5.78 3.3,10.73 v 0.82 0 0 0.83"
         style="fill:#231f20;fill-opacity:1;fill-rule:evenodd;stroke:none"
         id="path122" /><path
         d="m 2271.56,1745.59 c 0,7.43 1.65,14.04 4.95,18.99 2.48,4.95 6.6,7.43 9.91,9.08 0.82,0 0.82,0 1.65,0 0.82,0 0.82,0 1.65,0 4.12,0 7.43,-1.65 9.91,-4.96 2.47,-3.3 4.95,-7.43 5.77,-11.55 0.83,-1.65 1.65,-3.31 1.65,-4.95 0,-2.48 0,-4.13 0,-5.78 0,-6.61 -0.82,-12.38 -2.47,-16.51 -2.48,-4.13 -4.95,-7.43 -6.61,-9.09 -1.65,-0.82 -3.3,-0.82 -4.13,-0.82 -1.64,-0.82 -2.47,-0.82 -3.3,-0.82 -4.95,0 -9.9,1.64 -13.2,5.77 -3.3,4.96 -4.96,11.56 -5.78,20.64 z m 28.07,0.83 c 0,1.65 0,2.47 0,2.47 0,0 0,0.83 0,2.48 0,1.65 -0.83,4.13 -0.83,5.78 -0.83,3.3 -1.65,7.43 -3.3,9.9 -0.83,3.31 -3.3,4.96 -5.78,4.96 v 0 0 0 c -2.48,0 -4.95,-1.65 -5.78,-4.13 -1.65,-3.3 -3.3,-6.61 -3.3,-9.91 -0.83,-2.47 -0.83,-4.95 -0.83,-6.6 0,-2.48 0,-4.13 0,-4.95 0,-9.91 0.83,-17.34 3.3,-20.64 1.66,-3.3 4.13,-5.78 7.43,-5.78 2.48,0 4.96,2.48 6.61,7.43 1.65,4.95 2.48,9.91 2.48,16.51 0,0 0,0.83 0,1.65 v 0.83"
         style="fill:#231f20;fill-opacity:1;fill-rule:evenodd;stroke:none"
         id="path124" /><path
         d="m 2329.9,1782.2 c 5.1,0 10.1,-4.4 10.1,-10.1 0,-5.8 -5,-10.1 -10.1,-10.1 -5,0 -10.1,4.3 -10.1,10.1 0,5.7 5.1,10.1 10.1,10.1 z"
         style="fill:none;stroke:#231f20;stroke-width:5.8;stroke-linecap:butt;stroke-linejoin:miter;stroke-miterlimit:11.4737;stroke-dasharray:none;stroke-opacity:1"
         id="path126" /><path
         d="m 1844.5,2135.59 c 0.83,0 0.83,0.83 1.66,1.65 0,0 0.82,0.83 1.64,1.65 1.66,1.65 3.31,4.13 4.96,5.78 1.65,2.48 2.47,4.96 2.47,6.6 0,2.48 -0.82,4.13 -2.47,4.96 -0.83,1.65 -3.3,1.65 -4.96,1.65 -1.64,0 -3.3,0 -4.95,-1.65 -2.47,-0.83 -4.12,-2.48 -5.78,-4.13 l -1.65,0.83 c 1.65,2.47 3.31,4.12 5.78,5.77 2.48,1.66 4.96,3.31 6.6,4.13 0.83,0 1.66,0 1.66,0 0.82,0 1.65,0.83 1.65,0.83 3.3,0 5.78,-0.83 7.43,-2.48 1.65,-0.82 2.47,-3.3 2.47,-5.78 0,-3.3 -0.82,-5.77 -2.47,-8.25 -1.65,-2.48 -4.13,-4.13 -6.61,-5.78 4.13,0 7.43,-1.65 9.91,-4.13 2.48,-3.3 4.12,-6.6 4.12,-9.9 v 0 -0.83 0 -0.83 -0.82 0 c 0,-3.3 -1.64,-6.61 -3.3,-8.25 -2.47,-2.48 -4.12,-4.13 -6.6,-5.79 -0.83,-0.82 -2.47,-0.82 -4.13,-0.82 -0.82,0 -2.47,0 -3.3,0 -0.83,0 -1.65,0 -3.3,0 -0.83,0 -2.48,0 -4.13,0 -0.82,0 -1.65,0 -2.47,0 -0.83,0.82 -2.48,1.65 -3.31,1.65 v 0.83 h -0.82 c 0,0.82 -0.83,0.82 -0.83,1.65 -0.82,0.82 -0.82,1.65 -0.82,1.65 0,0.83 0,0.83 0,0.83 l -0.83,0.82 0.83,0.82 v 0.83 l 0.82,0.83 c 0.83,0 0.83,0 1.65,0 v 0 c 0.83,0 0.83,-0.83 1.65,-0.83 0,0 0.83,-0.83 1.66,-0.83 0,-0.82 0.82,-1.64 1.65,-2.47 0.82,-1.65 1.65,-2.48 2.47,-3.3 1.65,-0.83 2.48,-1.66 4.13,-1.66 h 0.82 0.83 c 3.3,0 5.78,1.66 7.43,4.13 1.65,2.48 3.3,5.78 3.3,9.09 v 0.82 0 0.82 0 c -0.82,3.31 -1.65,4.96 -3.3,6.61 -1.65,0.82 -3.3,2.48 -4.95,2.48 -1.65,0 -2.48,0.82 -4.13,0.82 -0.82,0 -1.65,0 -2.48,0"
         style="fill:#231f20;fill-opacity:1;fill-rule:evenodd;stroke:none"
         id="path128" /><path
         d="m 1891.56,2135.59 c 0,7.43 1.65,14.04 4.95,18.99 2.48,4.95 6.6,7.43 9.91,9.08 0.82,0 0.82,0 1.65,0 0.82,0 0.82,0 1.65,0 4.12,0 7.43,-1.65 9.91,-4.96 2.47,-3.3 4.95,-7.43 5.77,-11.55 0.83,-1.65 1.65,-3.31 1.65,-4.95 0,-2.48 0,-4.13 0,-5.78 0,-6.61 -0.82,-12.38 -2.47,-16.51 -2.48,-4.13 -4.95,-7.43 -6.61,-9.09 -1.65,-0.82 -3.3,-0.82 -4.13,-0.82 -1.64,-0.82 -2.47,-0.82 -3.3,-0.82 -4.95,0 -9.9,1.64 -13.2,5.77 -3.3,4.96 -4.96,11.56 -5.78,20.64 z m 28.07,0.83 c 0,1.65 0,2.47 0,2.47 0,0 0,0.83 0,2.48 0,1.65 -0.83,4.13 -0.83,5.78 -0.83,3.3 -1.65,7.43 -3.3,9.9 -0.83,3.31 -3.3,4.96 -5.78,4.96 v 0 0 0 c -2.48,0 -4.95,-1.65 -5.78,-4.13 -1.65,-3.3 -3.3,-6.61 -3.3,-9.91 -0.83,-2.47 -0.83,-4.95 -0.83,-6.6 0,-2.48 0,-4.13 0,-4.95 0,-9.91 0.83,-17.34 3.3,-20.64 1.66,-3.3 4.13,-5.78 7.43,-5.78 2.48,0 4.96,2.48 6.61,7.43 1.65,4.95 2.48,9.91 2.48,16.51 0,0 0,0.83 0,1.65 v 0.83"
         style="fill:#231f20;fill-opacity:1;fill-rule:evenodd;stroke:none"
         id="path130" /><path
         d="m 1947.6,2173.8 c 5,0 10.1,-4.3 10.1,-10 0,-5.8 -5.1,-10.1 -10.1,-10.1 -5,0 -10.1,4.3 -10.1,10.1 0,5.7 5.1,10 10.1,10 z"
         style="fill:none;stroke:#231f20;stroke-width:5.8;stroke-linecap:butt;stroke-linejoin:miter;stroke-miterlimit:11.4737;stroke-dasharray:none;stroke-opacity:1"
         id="path132" /><path
         d="m 1241.65,1446.51 h 16.51 v -4.95 h -16.51 v 4.95"
         style="fill:#231f20;fill-opacity:1;fill-rule:evenodd;stroke:none"
         id="path134" /><path
         d="m 1271.37,1458.89 c 0,0.83 0.83,1.65 0.83,2.48 0.82,1.65 1.64,2.47 2.47,4.13 1.65,1.65 3.3,3.3 4.96,4.13 1.64,1.64 3.3,2.47 5.77,2.47 2.48,0 4.96,-0.83 7.43,-1.65 1.65,-1.65 3.3,-4.13 3.3,-6.61 0,-2.47 -0.82,-4.12 -1.65,-5.77 -0.82,-0.83 -2.47,-2.48 -3.3,-4.13 -1.65,-1.65 -3.3,-3.3 -4.13,-4.13 -1.65,-1.65 -2.47,-2.47 -3.3,-3.3 -0.82,-0.83 -1.65,-1.65 -1.65,-1.65 -0.83,-0.82 -0.83,-1.65 -1.65,-1.65 l -0.82,-0.83 v 0 c -1.66,-1.65 -2.48,-3.3 -3.31,-4.13 -0.82,-1.64 -1.65,-2.47 -2.48,-4.12 h 14.04 c 1.65,0 3.3,0.82 4.13,0.82 0.82,0.83 2.47,2.48 2.47,4.13 h 1.65 l -4.12,-11.56 h -0.83 c 0,0.83 -0.82,1.66 -0.82,2.48 -0.83,0 -1.66,0 -3.31,0 h -15.68 c 0,1.65 0,4.13 0.83,5.78 0.82,1.65 2.47,3.3 3.3,4.95 0.82,0.83 1.65,1.65 1.65,2.48 0.82,0 1.65,0.83 1.65,1.65 0.83,0.82 1.65,1.65 2.47,2.48 0.83,0.82 1.66,2.47 2.48,3.3 0,0.82 0.83,0.82 0.83,0.82 0,0.83 0.82,0.83 0.82,0.83 0,0.82 0.83,2.48 1.65,3.3 0.83,0.83 1.65,1.65 1.65,2.48 0,0.82 0.83,0.82 0.83,0.82 0,0.83 0,0.83 0,1.65 0,0 0,0 0,0.83 v 0.83 c 0,0.82 0,2.47 -0.83,3.3 -0.82,1.65 -2.47,2.47 -4.12,2.47 v 0 l -0.83,0.83 v 0 h -0.82 c -1.66,0 -3.3,-0.83 -4.96,-2.48 -0.82,-1.65 -2.47,-2.48 -3.3,-4.12 -0.83,-0.83 -0.83,-1.66 -0.83,-1.66 -0.82,0 -0.82,-0.82 -1.64,-1.65 h -0.83"
         style="fill:#231f20;fill-opacity:1;fill-rule:evenodd;stroke:none"
         id="path136" /><path
         d="m 1308.52,1449.81 c 0,5.78 0.82,11.56 3.3,14.86 2.48,4.13 4.95,6.6 8.25,7.43 h 0.83 c 0.82,0 0.82,0 1.65,0 2.48,0 5.78,-0.83 7.43,-4.13 2.48,-2.47 4.13,-5.77 4.95,-9.08 0,-0.82 0.83,-2.47 0.83,-4.12 0,-1.66 0,-2.48 0,-4.13 0,-5.78 -0.83,-9.91 -1.65,-13.21 -1.65,-3.3 -4.13,-4.95 -5.78,-6.61 -0.83,-0.82 -1.65,-0.82 -3.3,-0.82 -0.83,-0.82 -1.65,-0.82 -2.48,-0.82 -4.13,0 -7.43,1.64 -9.91,4.95 -2.47,3.3 -4.12,9.08 -4.12,15.68 z m 21.46,0.83 c 0,0.82 0,1.65 0,1.65 0,0 0,0.82 0,2.48 0,0.82 0,2.47 -0.83,4.12 0,2.48 -0.82,5.78 -2.47,8.26 -0.83,2.48 -2.48,3.3 -4.13,3.3 v 0 0 0 c -2.48,0 -4.13,-0.82 -4.95,-3.3 -0.83,-2.48 -2.48,-4.95 -2.48,-7.43 0,-1.65 -0.82,-3.3 -0.82,-5.78 0,-1.65 0,-2.48 0,-3.3 0,-8.26 0.82,-13.21 2.47,-16.51 1.65,-2.48 4.13,-4.13 5.78,-4.13 2.48,0 4.13,2.48 5.78,5.78 0.82,3.3 1.65,8.26 1.65,12.38 0,0.83 0,0.83 0,1.65 v 0.83"
         style="fill:#231f20;fill-opacity:1;fill-rule:evenodd;stroke:none"
         id="path138" /><path
         d="m 1369.61,1464.67 v 0.83 0 c 0,1.65 0,2.47 -0.83,3.3 0,0 -1.65,0.83 -3.3,0.83 v 0.82 l 9.07,3.3 v -32.19 0 -9.08 l 3.31,-0.83 v -0.83 l -8.25,-1.64 v 4.12 0 -0.82 c -1.66,-0.83 -2.48,-1.66 -3.31,-2.48 -0.82,0 -2.48,-0.82 -4.95,-0.82 v 0 h -0.83 c -0.82,0 -1.65,0 -1.65,0 -1.65,0.82 -2.48,0.82 -3.3,0.82 -1.65,0 -3.3,1.65 -4.95,3.3 -0.83,1.65 -2.48,4.95 -2.48,8.26 v 0 0.82 0 0.83 c 0,3.3 0.82,6.6 3.3,9.08 1.65,2.48 4.13,4.13 5.78,4.95 0.83,0 1.65,0 2.48,0 0.82,0 0.82,0.83 1.65,0.83 v 0 h 0.83 0.82 c 0.82,0 1.65,-0.83 1.65,-0.83 0.83,0 1.65,0 2.48,-0.82 0.82,0 1.65,-0.83 2.48,-0.83 z m 0,-30.54 v 14.03 c 0,0.83 0,0.83 0,1.65 0,0 -0.83,0.83 -0.83,1.65 -0.83,0.83 -1.65,2.48 -2.48,3.31 -0.82,0.82 -2.48,1.65 -4.12,1.65 -3.31,0 -5.79,-1.65 -6.61,-4.13 -1.65,-2.48 -2.48,-4.95 -2.48,-8.25 v 0 0 c 0,-3.31 0.83,-6.61 2.48,-9.09 1.65,-2.47 4.13,-4.13 6.61,-4.13 1.64,0 2.47,0.83 3.3,0.83 1.65,0.83 2.47,1.65 4.13,2.48"
         style="fill:#231f20;fill-opacity:1;fill-rule:evenodd;stroke:none"
         id="path140" /><path
         d="m 1396.02,1458.89 v 7.43 c 0,2.48 -0.82,3.31 -0.82,4.13 -0.83,0.82 -2.48,1.65 -4.13,1.65 v 0.83 h 17.33 c 3.3,0 7.43,-0.83 9.91,-1.66 2.48,-1.64 4.13,-4.95 4.13,-8.25 0,-2.48 -0.83,-4.95 -2.48,-6.6 -1.65,-1.65 -3.3,-2.48 -4.95,-3.31 v 0 h -0.83 c 0.83,0 1.65,0 1.65,0 0.83,0 1.65,-0.82 1.65,-0.82 2.48,-0.83 4.13,-2.48 5.78,-4.13 1.65,-1.65 2.48,-4.12 2.48,-7.43 0,-2.48 -1.65,-4.95 -3.3,-6.6 -1.65,-1.65 -3.31,-2.48 -4.96,-3.31 -1.65,0 -3.3,-0.82 -4.12,-0.82 -1.66,0 -2.48,0 -3.31,0 h -18.98 v 0.82 c 2.47,0 3.3,0.83 4.13,1.66 0,0 0.82,1.65 0.82,4.95 v 0 c 0,0.82 0,0.82 0,0.82 z m 22.29,-17.33 c 0,3.3 -0.83,5.78 -2.48,7.43 -2.47,0.82 -4.13,1.65 -6.6,1.65 -0.83,0 -0.83,0.82 -1.65,0.82 0,0 -0.83,0 -1.65,0 v 0 c -0.83,0 -0.83,0 -0.83,0 -0.83,0 -0.83,0 -1.65,0 0,0 -0.82,0 -1.65,0 v -16.51 c 0,-1.65 0.83,-2.47 1.65,-2.47 0.82,-0.83 2.48,-0.83 3.3,-0.83 v 0 h 0.83 c 0.82,0 0.82,0 1.65,0 0,0 0.82,0 1.65,0 1.65,0 4.13,0.83 4.95,2.48 1.65,1.65 2.48,4.12 2.48,7.43 z m -16.51,30.54 v -18.99 h 0.83 v 0 l 0.82,-0.82 v 0 c 4.13,0 7.43,1.65 9.91,3.3 1.65,2.48 2.47,4.95 2.47,7.43 0,3.3 -0.82,5.78 -2.47,6.61 -2.48,0.82 -4.13,1.64 -6.61,1.64 -0.82,0 -1.65,0.83 -1.65,0.83 -0.83,0 -1.65,0 -2.47,0 v 0 h -0.83"
         style="fill:#231f20;fill-opacity:1;fill-rule:evenodd;stroke:none"
         id="path142" /><path
         d="m 1271.65,1966.51 h 16.51 v -4.95 h -16.51 v 4.95"
         style="fill:#231f20;fill-opacity:1;fill-rule:evenodd;stroke:none"
         id="path144" /><path
         d="m 1308.8,1969.81 c 0.83,0 0.83,0.83 1.65,1.65 l 0.82,0.83 c 1.66,1.65 3.31,3.3 4.13,4.95 1.65,1.65 1.65,3.3 1.65,4.96 0,1.64 0,3.3 -1.65,4.12 -0.82,0.83 -2.47,1.65 -4.13,1.65 -0.82,0 -2.47,-0.82 -4.12,-1.65 -0.83,-0.82 -2.48,-2.48 -4.13,-3.3 l -0.82,0.82 c 0.82,1.66 2.47,3.31 4.12,4.13 1.65,1.66 3.31,2.48 5.78,3.3 h 0.83 c 0.82,0 0.82,0.83 1.65,0.83 1.65,0 4.12,-0.83 4.95,-1.65 1.65,-0.82 2.48,-3.3 2.48,-4.95 0,-2.48 -0.83,-4.96 -2.48,-6.61 -0.83,-1.65 -3.3,-3.3 -4.95,-4.95 3.3,0 5.78,-0.83 7.43,-3.3 2.47,-1.65 4.12,-4.13 4.12,-6.6 v -0.83 0 -0.83 0 -0.82 0 c -0.82,-2.48 -1.65,-4.95 -3.3,-6.61 -1.65,-1.65 -3.3,-3.3 -4.95,-4.13 -0.83,-0.82 -1.65,-0.82 -2.48,-0.82 -1.65,0 -2.47,0 -3.3,0 0,0 -0.83,0 -2.47,0 -0.83,0 -1.66,0 -3.31,0 h -1.65 c -0.83,0.82 -1.65,0.82 -2.47,1.65 v 0 h -0.83 c 0,0.83 -0.83,0.83 -0.83,1.65 -0.82,0 -0.82,0.83 -0.82,1.65 v 0 0.83 c 0,0 0,0 0,0.83 v 0 c 0.82,0.82 0.82,0.82 0.82,0.82 0.83,0 0.83,0 0.83,0 h 0.83 0.82 l 0.82,-0.82 c 0.83,-0.83 1.66,-1.66 1.66,-2.48 0.82,-0.83 1.65,-1.65 2.47,-2.48 0.83,-0.83 1.66,-0.83 3.3,-0.83 0,0 0,0 0.83,0 v 0 c 2.48,0 4.95,0.83 5.78,3.31 1.65,1.65 2.48,4.12 2.48,6.6 v 0.83 0 0.82 0 c 0,2.48 -0.83,4.13 -2.48,4.96 -0.83,0.82 -2.48,1.65 -4.13,1.65 -0.82,0.82 -1.65,0.82 -2.48,0.82 -0.82,0 -1.64,0 -2.47,0"
         style="fill:#231f20;fill-opacity:1;fill-rule:evenodd;stroke:none"
         id="path146" /><path
         d="m 1360.8,1984.67 v 0.83 0 c 0,1.65 0,2.47 -0.82,3.3 0,0 -1.65,0.83 -3.3,0.83 v 0.82 l 9.08,3.3 v -32.19 0 -9.08 l 3.3,-0.83 v -0.83 l -8.26,-1.64 v 4.12 0 -0.82 c -1.65,-0.83 -2.47,-1.66 -3.3,-2.48 -0.82,0 -2.47,-0.82 -4.95,-0.82 v 0 h -0.83 c -0.82,0 -1.65,0 -1.65,0 -1.65,0.82 -2.47,0.82 -3.3,0.82 -1.65,0 -3.3,1.65 -4.95,3.3 -0.83,1.65 -2.48,4.95 -2.48,8.26 v 0 0.82 0 0.83 c 0,3.3 0.83,6.6 3.3,9.08 1.66,2.48 4.13,4.13 5.78,4.95 0.83,0 1.65,0 2.48,0 0.82,0 0.82,0.83 1.65,0.83 v 0 h 0.83 0.82 c 0.83,0 1.65,-0.83 1.65,-0.83 0.83,0 1.65,0 2.48,-0.82 0.82,0 1.65,-0.83 2.47,-0.83 z m 0,-30.54 v 14.03 c 0,0.83 0,0.83 0,1.65 0,0 -0.82,0.83 -0.82,1.65 -0.83,0.83 -1.65,2.48 -2.48,3.31 -0.82,0.82 -2.47,1.65 -4.12,1.65 -3.31,0 -5.78,-1.65 -6.61,-4.13 -1.65,-2.48 -2.47,-4.95 -2.47,-8.25 v 0 0 c 0,-3.31 0.82,-6.61 2.47,-9.09 1.65,-2.47 4.13,-4.13 6.61,-4.13 1.65,0 2.47,0.83 3.3,0.83 1.65,0.83 2.47,1.65 4.12,2.48"
         style="fill:#231f20;fill-opacity:1;fill-rule:evenodd;stroke:none"
         id="path148" /><path
         d="m 1387.22,1978.89 v 7.43 c 0,2.48 -0.83,3.31 -0.83,4.13 -0.82,0.82 -2.47,1.65 -4.12,1.65 v 0.83 h 17.34 c 3.3,0 7.42,-0.83 9.9,-1.66 2.47,-1.64 4.13,-4.95 4.13,-8.25 0,-2.48 -0.83,-4.95 -2.48,-6.6 -1.65,-1.65 -3.3,-2.48 -4.95,-3.31 v 0 h -0.83 c 0.83,0 1.65,0 1.65,0 0.83,0 1.65,-0.82 1.65,-0.82 2.48,-0.83 4.13,-2.48 5.78,-4.13 1.65,-1.65 2.48,-4.12 2.48,-7.43 0,-2.48 -1.65,-4.95 -3.3,-6.6 -1.66,-1.65 -3.3,-2.48 -4.96,-3.31 -1.65,0 -3.3,-0.82 -4.13,-0.82 -1.64,0 -2.47,0 -3.3,0 h -18.98 v 0.82 c 2.48,0 3.3,0.83 4.12,1.66 0,0 0.83,1.65 0.83,4.95 v 0 c 0,0.82 0,0.82 0,0.82 z m 22.29,-17.33 c 0,3.3 -0.83,5.78 -2.48,7.43 -2.48,0.82 -4.12,1.65 -6.6,1.65 -0.82,0 -0.82,0.82 -1.65,0.82 0,0 -0.83,0 -1.65,0 v 0 c -0.83,0 -0.83,0 -0.83,0 -0.82,0 -0.82,0 -1.65,0 0,0 -0.83,0 -1.65,0 v -16.51 c 0,-1.65 0.82,-2.47 1.65,-2.47 0.83,-0.83 2.48,-0.83 3.3,-0.83 v 0 h 0.83 c 0.83,0 0.83,0 1.65,0 0,0 0.82,0 1.65,0 1.65,0 4.13,0.83 4.95,2.48 1.65,1.65 2.48,4.12 2.48,7.43 z M 1393,1992.1 v -18.99 h 0.82 v 0 l 0.83,-0.82 v 0 c 4.13,0 7.43,1.65 9.9,3.3 1.66,2.48 2.48,4.95 2.48,7.43 0,3.3 -0.82,5.78 -2.48,6.61 -2.47,0.82 -4.12,1.64 -6.6,1.64 -0.82,0 -1.65,0.83 -1.65,0.83 -0.82,0 -1.65,0 -2.48,0 v 0 H 1393"
         style="fill:#231f20;fill-opacity:1;fill-rule:evenodd;stroke:none"
         id="path150" /><path
         d="m 1231.65,1766.51 h 16.51 v -4.95 h -16.51 v 4.95"
         style="fill:#231f20;fill-opacity:1;fill-rule:evenodd;stroke:none"
         id="path152" /><path
         d="m 1271.27,1780.54 c 0,1.66 0,2.48 -0.82,2.48 0,0.82 -0.82,0.82 -1.65,0.82 v 0 c -0.83,0 -0.83,0 -0.83,0 l -3.3,0.83 v 1.65 c 0.83,0 1.65,0 2.48,0 0.82,0.83 1.65,1.65 3.3,1.65 0.82,0.83 1.65,1.66 2.48,1.66 0.82,0.82 1.65,1.64 1.65,2.47 h 1.65 v -32.19 0 -2.48 c 0,-3.3 0.82,-4.95 0.82,-5.78 0.83,0 1.65,-0.83 4.13,-0.83 v 0 h 0.83 V 1750 h -17.34 v 0.82 c 0.83,0 0.83,0 1.65,0 h 0.83 c 1.65,0 3.3,0.83 3.3,1.66 0.82,0 0.82,2.47 0.82,4.95 v 23.11"
         style="fill:#231f20;fill-opacity:1;fill-rule:evenodd;stroke:none"
         id="path154" /><path
         d="m 1298.52,1769.81 c 0,5.78 0.82,11.56 3.3,14.86 2.48,4.13 4.95,6.6 8.25,7.43 h 0.83 c 0.82,0 0.82,0 1.65,0 2.48,0 5.78,-0.83 7.43,-4.13 2.48,-2.47 4.13,-5.77 4.95,-9.08 0,-0.82 0.83,-2.47 0.83,-4.12 0,-1.66 0,-2.48 0,-4.13 0,-5.78 -0.83,-9.91 -1.65,-13.21 -1.65,-3.3 -4.13,-4.95 -5.78,-6.61 -0.83,-0.82 -1.65,-0.82 -3.3,-0.82 -0.83,-0.82 -1.65,-0.82 -2.48,-0.82 -4.13,0 -7.43,1.64 -9.91,4.95 -2.47,3.3 -4.12,9.08 -4.12,15.68 z m 21.46,0.83 c 0,0.82 0,1.65 0,1.65 0,0 0,0.82 0,2.48 0,0.82 0,2.47 -0.83,4.12 0,2.48 -0.82,5.78 -2.47,8.26 -0.83,2.48 -2.48,3.3 -4.13,3.3 v 0 0 0 c -2.48,0 -4.13,-0.82 -4.95,-3.3 -0.83,-2.48 -2.48,-4.95 -2.48,-7.43 0,-1.65 -0.82,-3.3 -0.82,-5.78 0,-1.65 0,-2.48 0,-3.3 0,-8.26 0.82,-13.21 2.47,-16.51 1.65,-2.48 4.13,-4.13 5.78,-4.13 2.48,0 4.13,2.48 5.78,5.78 0.82,3.3 1.65,8.26 1.65,12.38 0,0.83 0,0.83 0,1.65 v 0.83"
         style="fill:#231f20;fill-opacity:1;fill-rule:evenodd;stroke:none"
         id="path156" /><path
         d="m 1359.61,1784.67 v 0.83 0 c 0,1.65 0,2.47 -0.83,3.3 0,0 -1.65,0.83 -3.3,0.83 v 0.82 l 9.07,3.3 v -32.19 0 -9.08 l 3.31,-0.83 v -0.83 l -8.25,-1.64 v 4.12 0 -0.82 c -1.66,-0.83 -2.48,-1.66 -3.31,-2.48 -0.82,0 -2.48,-0.82 -4.95,-0.82 v 0 h -0.83 c -0.82,0 -1.65,0 -1.65,0 -1.65,0.82 -2.48,0.82 -3.3,0.82 -1.65,0 -3.3,1.65 -4.95,3.3 -0.83,1.65 -2.48,4.95 -2.48,8.26 v 0 0.82 0 0.83 c 0,3.3 0.82,6.6 3.3,9.08 1.65,2.48 4.13,4.13 5.78,4.95 0.83,0 1.65,0 2.48,0 0.82,0 0.82,0.83 1.65,0.83 v 0 h 0.83 0.82 c 0.82,0 1.65,-0.83 1.65,-0.83 0.83,0 1.65,0 2.48,-0.82 0.82,0 1.65,-0.83 2.48,-0.83 z m 0,-30.54 v 14.03 c 0,0.83 0,0.83 0,1.65 0,0 -0.83,0.83 -0.83,1.65 -0.83,0.83 -1.65,2.48 -2.48,3.31 -0.82,0.82 -2.48,1.65 -4.12,1.65 -3.31,0 -5.79,-1.65 -6.61,-4.13 -1.65,-2.48 -2.48,-4.95 -2.48,-8.25 v 0 0 c 0,-3.31 0.83,-6.61 2.48,-9.09 1.65,-2.47 4.13,-4.13 6.61,-4.13 1.64,0 2.47,0.83 3.3,0.83 1.65,0.83 2.47,1.65 4.13,2.48"
         style="fill:#231f20;fill-opacity:1;fill-rule:evenodd;stroke:none"
         id="path158" /><path
         d="m 1386.02,1778.89 v 7.43 c 0,2.48 -0.82,3.31 -0.82,4.13 -0.83,0.82 -2.48,1.65 -4.13,1.65 v 0.83 h 17.33 c 3.3,0 7.43,-0.83 9.91,-1.66 2.48,-1.64 4.13,-4.95 4.13,-8.25 0,-2.48 -0.83,-4.95 -2.48,-6.6 -1.65,-1.65 -3.3,-2.48 -4.95,-3.31 v 0 h -0.83 c 0.83,0 1.65,0 1.65,0 0.83,0 1.65,-0.82 1.65,-0.82 2.48,-0.83 4.13,-2.48 5.78,-4.13 1.65,-1.65 2.48,-4.12 2.48,-7.43 0,-2.48 -1.65,-4.95 -3.3,-6.6 -1.65,-1.65 -3.31,-2.48 -4.96,-3.31 -1.65,0 -3.3,-0.82 -4.12,-0.82 -1.66,0 -2.48,0 -3.31,0 h -18.98 v 0.82 c 2.47,0 3.3,0.83 4.13,1.66 0,0 0.82,1.65 0.82,4.95 v 0 c 0,0.82 0,0.82 0,0.82 z m 22.29,-17.33 c 0,3.3 -0.83,5.78 -2.48,7.43 -2.47,0.82 -4.13,1.65 -6.6,1.65 -0.83,0 -0.83,0.82 -1.65,0.82 0,0 -0.83,0 -1.65,0 v 0 c -0.83,0 -0.83,0 -0.83,0 -0.83,0 -0.83,0 -1.65,0 0,0 -0.82,0 -1.65,0 v -16.51 c 0,-1.65 0.83,-2.47 1.65,-2.47 0.82,-0.83 2.48,-0.83 3.3,-0.83 v 0 h 0.83 c 0.82,0 0.82,0 1.65,0 0,0 0.82,0 1.65,0 1.65,0 4.13,0.83 4.95,2.48 1.65,1.65 2.48,4.12 2.48,7.43 z m -16.51,30.54 v -18.99 h 0.83 v 0 l 0.82,-0.82 v 0 c 4.13,0 7.43,1.65 9.91,3.3 1.65,2.48 2.47,4.95 2.47,7.43 0,3.3 -0.82,5.78 -2.47,6.61 -2.48,0.82 -4.13,1.64 -6.61,1.64 -0.82,0 -1.65,0.83 -1.65,0.83 -0.83,0 -1.65,0 -2.47,0 v 0 h -0.83"
         style="fill:#231f20;fill-opacity:1;fill-rule:evenodd;stroke:none"
         id="path160" /><path
         d="m 1301.65,2159.81 c 0,5.78 0.83,11.56 3.3,14.86 2.48,4.13 4.96,6.6 8.26,7.43 h 0.83 c 0.82,0 0.82,0 1.64,0 2.48,0 5.78,-0.83 7.43,-4.13 2.48,-2.47 4.13,-5.77 4.96,-9.08 0,-0.82 0.82,-2.47 0.82,-4.12 0,-1.66 0,-2.48 0,-4.13 0,-5.78 -0.82,-9.91 -1.65,-13.21 -1.65,-3.3 -4.13,-4.95 -5.78,-6.61 -0.82,-0.82 -1.65,-0.82 -3.3,-0.82 -0.82,-0.82 -1.65,-0.82 -2.48,-0.82 -4.12,0 -7.43,1.64 -9.9,4.95 -2.48,3.3 -4.13,9.08 -4.13,15.68 z m 21.46,0.83 c 0,0.82 0,1.65 0,1.65 0,0 0,0.82 0,2.48 0,0.82 0,2.47 -0.82,4.12 0,2.48 -0.83,5.78 -2.48,8.26 -0.82,2.48 -2.47,3.3 -4.13,3.3 v 0 0 0 c -2.47,0 -4.12,-0.82 -4.95,-3.3 -0.82,-2.48 -2.48,-4.95 -2.48,-7.43 0,-1.65 -0.82,-3.3 -0.82,-5.78 0,-1.65 0,-2.48 0,-3.3 0,-8.26 0.82,-13.21 2.48,-16.51 1.65,-2.48 4.13,-4.13 5.77,-4.13 2.48,0 4.13,2.48 5.78,5.78 0.83,3.3 1.65,8.26 1.65,12.38 0,0.83 0,0.83 0,1.65 v 0.83"
         style="fill:#231f20;fill-opacity:1;fill-rule:evenodd;stroke:none"
         id="path162" /><path
         d="m 1362.74,2174.67 v 0.83 0 c 0,1.65 0,2.47 -0.83,3.3 0,0 -1.65,0.83 -3.3,0.83 v 0.82 l 9.08,3.3 v -32.19 0 -9.08 l 3.3,-0.83 v -0.83 l -8.25,-1.64 v 4.12 0 -0.82 c -1.65,-0.83 -2.48,-1.66 -3.3,-2.48 -0.83,0 -2.48,-0.82 -4.96,-0.82 v 0 h -0.82 c -0.83,0 -1.65,0 -1.65,0 -1.65,0.82 -2.48,0.82 -3.31,0.82 -1.65,0 -3.3,1.65 -4.95,3.3 -0.82,1.65 -2.48,4.95 -2.48,8.26 v 0 0.82 0 0.83 c 0,3.3 0.83,6.6 3.31,9.08 1.65,2.48 4.12,4.13 5.78,4.95 0.82,0 1.65,0 2.47,0 0.83,0 0.83,0.83 1.65,0.83 v 0 h 0.83 0.82 c 0.83,0 1.66,-0.83 1.66,-0.83 0.82,0 1.65,0 2.47,-0.82 0.83,0 1.65,-0.83 2.48,-0.83 z m 0,-30.54 v 14.03 c 0,0.83 0,0.83 0,1.65 0,0 -0.83,0.83 -0.83,1.65 -0.82,0.83 -1.65,2.48 -2.47,3.31 -0.83,0.82 -2.48,1.65 -4.13,1.65 -3.3,0 -5.78,-1.65 -6.61,-4.13 -1.65,-2.48 -2.47,-4.95 -2.47,-8.25 v 0 0 c 0,-3.31 0.82,-6.61 2.47,-9.09 1.66,-2.47 4.13,-4.13 6.61,-4.13 1.65,0 2.48,0.83 3.3,0.83 1.65,0.83 2.48,1.65 4.13,2.48"
         style="fill:#231f20;fill-opacity:1;fill-rule:evenodd;stroke:none"
         id="path164" /><path
         d="m 1389.15,2168.89 v 7.43 c 0,2.48 -0.82,3.31 -0.82,4.13 -0.83,0.82 -2.48,1.65 -4.13,1.65 v 0.83 h 17.34 c 3.3,0 7.42,-0.83 9.9,-1.66 2.48,-1.64 4.13,-4.95 4.13,-8.25 0,-2.48 -0.82,-4.95 -2.48,-6.6 -1.65,-1.65 -3.3,-2.48 -4.95,-3.31 v 0 h -0.82 c 0.82,0 1.64,0 1.64,0 0.83,0 1.66,-0.82 1.66,-0.82 2.47,-0.83 4.13,-2.48 5.77,-4.13 1.66,-1.65 2.48,-4.12 2.48,-7.43 0,-2.48 -1.65,-4.95 -3.3,-6.6 -1.65,-1.65 -3.3,-2.48 -4.95,-3.31 -1.66,0 -3.3,-0.82 -4.13,-0.82 -1.65,0 -2.48,0 -3.3,0 h -18.99 v 0.82 c 2.48,0 3.3,0.83 4.13,1.66 0,0 0.82,1.65 0.82,4.95 v 0 c 0,0.82 0,0.82 0,0.82 z m 22.29,-17.33 c 0,3.3 -0.82,5.78 -2.48,7.43 -2.47,0.82 -4.12,1.65 -6.6,1.65 -0.82,0 -0.82,0.82 -1.65,0.82 0,0 -0.82,0 -1.65,0 v 0 c -0.83,0 -0.83,0 -0.83,0 -0.82,0 -0.82,0 -1.65,0 0,0 -0.82,0 -1.65,0 v -16.51 c 0,-1.65 0.83,-2.47 1.65,-2.47 0.83,-0.83 2.48,-0.83 3.31,-0.83 v 0 h 0.82 c 0.83,0 0.83,0 1.65,0 0,0 0.83,0 1.65,0 1.65,0 4.13,0.83 4.95,2.48 1.66,1.65 2.48,4.12 2.48,7.43 z m -16.51,30.54 v -18.99 h 0.83 v 0 l 0.82,-0.82 v 0 c 4.13,0 7.43,1.65 9.91,3.3 1.65,2.48 2.47,4.95 2.47,7.43 0,3.3 -0.82,5.78 -2.47,6.61 -2.48,0.82 -4.13,1.64 -6.6,1.64 -0.83,0 -1.66,0.83 -1.66,0.83 -0.82,0 -1.65,0 -2.47,0 v 0 h -0.83"
         style="fill:#231f20;fill-opacity:1;fill-rule:evenodd;stroke:none"
         id="path166" /><path
         d="m 1852.6,1647.5 c 2.8,93.6 -18,198.7 -54.8,277.2 -64,112.3 -162.7,206.7 -285.8,247 -177.1,56.1 -375.8,2.9 -497.5,-105.9 -119.5,-117.3 -188.699,-290.1 -157,-467.2 8.699,-44.7 19.5,-85 38.199,-118.1 59.699,-117.4 157.701,-197.3 282.201,-236.2 8.7,-0.7 15.9,-0.7 19.5,-5.7 2.1,-0.8 2.1,-5.1 0,-8 l -23.1,-7.9 c -12.9,-7.9 -32.4,-23.7 -35.3,-41.7 0,-5.1 1.5,-9.4 1.5,-12.3 10.8,-21.6 44.6,-11.5 64.1,-20.1 -12.3,-51.9 -67.7,-103 -74.2,-163.498 -23.8,-72.704 -16.6,-146.903 16.6,-211.704 33.8,-61.199 89.2,-101.5 156.9,-119.5 69.1,-14.398 141.1,13 190.8,55.5 64.8,62.602 92.9,164.102 72,254.801 -12.2,54.801 -29.5,98.701 -59.7,140.401 -3.6,16.6 -16.6,21.6 -18.8,36.8 l 57.6,15.8 c 6.5,2.9 13.7,15.1 10.1,25.2 -12.2,26.6 -36.7,34.6 -54,49.7 127.5,43.9 240.5,116.6 303.9,241.2 23.7,50.4 44.6,113.7 46.8,174.2 z"
         style="fill:none;stroke:#231f20;stroke-width:17.3;stroke-linecap:square;stroke-linejoin:miter;stroke-miterlimit:11.4737;stroke-dasharray:none;stroke-opacity:1"
         id="path168" /></g></g></svg>
