<?xml version="1.0" encoding="UTF-8" standalone="no"?>
<!-- Created with Inkscape (http://www.inkscape.org/) -->

<svg
   version="1.1"
   id="svg2"
   xml:space="preserve"
   width="190.66667"
   height="190.66667"
   viewBox="0 0 190.66667 190.66667"
   xmlns="http://www.w3.org/2000/svg"
   xmlns:svg="http://www.w3.org/2000/svg"><defs
     id="defs6" /><g
     id="g8"
     transform="matrix(1.3333333,0,0,-1.3333333,0,190.66667)"><g
       id="g10"
       transform="scale(0.1)"><path
         d="M 6.60156,1423.6 H 1425 V 6.60156 H 6.60156 Z"
         style="fill:none;stroke:#231f20;stroke-width:11.5;stroke-linecap:butt;stroke-linejoin:miter;stroke-miterlimit:11.4737;stroke-dasharray:none;stroke-opacity:1"
         id="path12" /><path
         d="M 196.699,147.801 H 1260.9 v 56.801"
         style="fill:none;stroke:#231f20;stroke-width:8.6;stroke-linecap:butt;stroke-linejoin:miter;stroke-miterlimit:11.4737;stroke-dasharray:none;stroke-opacity:1"
         id="path14" /><path
         d="m 1260.9,431.402 v 56.2 H 196.699"
         style="fill:none;stroke:#231f20;stroke-width:8.6;stroke-linecap:butt;stroke-linejoin:miter;stroke-miterlimit:11.4737;stroke-dasharray:none;stroke-opacity:1"
         id="path16" /><path
         d="m 1234.2,431.402 h 54 v -226.8 h -54 z"
         style="fill:none;stroke:#231f20;stroke-width:14.4;stroke-linecap:butt;stroke-linejoin:miter;stroke-miterlimit:11.4737;stroke-dasharray:none;stroke-opacity:1"
         id="path18" /><path
         d="m 201.785,326.793 -6.933,-7.918 h -1.387 l 5.547,16.559 h 38.125 l -27.035,-41.036 v 0 l -8.317,-12.957 h 17.328 c 2.774,0 4.856,0 6.239,0.719 0.695,0 2.773,0.719 3.468,1.438 0.692,0.722 1.387,1.441 1.387,2.16 0.691,0.722 1.387,1.441 2.77,2.883 l 5.546,7.918 h 1.387 L 234.363,280 h -39.511 v 0 h -4.161 l 27.731,40.313 v 0 l 9.012,12.96 h -16.637 c -1.387,0 -2.774,-0.722 -4.16,-1.441 -1.387,-0.719 -2.774,-2.16 -3.465,-2.879 -0.695,-0.719 -0.695,-0.719 -0.695,-1.441 0,0 -0.692,0 -0.692,-0.719"
         style="fill:#231f20;fill-opacity:1;fill-rule:evenodd;stroke:none"
         id="path20" /><path
         d="m 925.25,351.988 c 0,3.602 -1.387,6.481 -2.078,6.481 -1.387,1.441 -4.16,2.16 -6.238,2.16 v 2.879 h 33.964 c 0,0 0.696,0 1.387,0 0,0 0.692,-0.719 1.387,-0.719 6.238,0 12.476,-2.16 17.328,-5.758 5.547,-4.32 8.32,-9.359 8.32,-16.558 0,-7.2 -2.078,-12.239 -5.547,-15.118 -3.464,-3.601 -7.625,-5.761 -13.168,-7.921 1.383,-1.438 3.465,-2.879 5.543,-5.758 1.387,-2.16 3.465,-5.039 5.547,-7.199 0.692,-0.719 1.387,-2.161 1.387,-2.879 0.691,-0.719 1.387,-1.442 2.078,-2.879 0,0 0.695,-0.723 1.387,-1.442 0,0 0.695,-0.718 0.695,-1.441 0.692,-1.438 2.078,-2.879 2.77,-4.316 0,-1.442 1.386,-2.879 2.082,-3.602 0.691,-1.438 2.078,-2.879 3.465,-4.32 0.695,-0.719 2.773,-1.438 5.546,-1.438 h 0.692 c 0,0 0.695,0.719 1.387,0.719 V 280 h -20.797 c -0.692,1.441 -2.078,3.598 -2.774,5.758 -0.691,1.441 -2.078,3.601 -3.465,5.039 0,0.723 -0.691,1.441 -1.386,2.16 -0.692,0.723 -1.387,1.441 -1.387,2.16 -0.691,1.442 -2.078,2.879 -2.77,4.321 -1.386,1.441 -2.773,3.597 -3.468,5.039 -1.387,1.441 -2.078,2.16 -2.774,3.597 -0.691,0.723 -2.078,2.16 -2.769,2.883 -1.387,1.438 -3.469,2.879 -5.547,3.598 -2.078,0.718 -5.547,1.441 -9.012,2.16 v -25.918 c 0,-4.317 0.692,-6.477 2.078,-7.199 1.387,-0.719 4.856,-0.719 9.012,-0.719 V 280 h -31.191 v 2.879 c 0,0 0.691,-0.719 1.386,-0.719 h 0.692 c 2.773,0 4.851,0.719 4.851,2.16 0.696,1.438 1.387,3.598 1.387,5.758 v 0.719 c 0,0.723 0,0.723 0,0.723 z m 11.785,-32.394 c 0.692,0 0.692,0 1.387,0 0.691,0 1.387,-0.719 2.078,-0.719 h 0.695 c 0.692,0 1.387,0 1.387,0 0.691,0 0.691,0 1.387,0 0,0 0.691,0.719 1.383,0.719 4.855,0 9.707,1.441 13.867,4.32 4.156,2.16 6.929,7.199 6.929,14.399 0,0.718 0,1.437 0,2.16 0,0.718 0,0.718 0,1.437 -0.691,4.32 -2.773,8.641 -4.851,12.238 -2.774,3.602 -8.32,5.762 -15.945,6.481 -2.079,0 -4.852,-0.719 -6.239,-1.441 -1.386,-0.719 -2.078,-3.598 -2.078,-7.2 v -32.394"
         style="fill:#231f20;fill-opacity:1;fill-rule:evenodd;stroke:none"
         id="path22" /><path
         d="m 1042.4,301.598 h 51.3 v -7.2 h -51.3 z m 0,15.836 h 51.3 v -6.477 h -51.3 v 6.477"
         style="fill:#231f20;fill-opacity:1;fill-rule:evenodd;stroke:none"
         id="path24" /><path
         d="m 1151.23,284.32 c 0,1.438 0.7,3.598 2.08,4.321 1.39,1.437 3.47,2.156 5.55,2.156 2.08,0 3.46,-0.719 4.16,-1.438 1.39,-0.718 2.08,-2.16 2.08,-3.601 v -0.719 -0.719 c 0,-0.722 0,-1.441 0,-1.441 0,0 0,-0.719 0,-1.438 -0.69,-1.441 -1.39,-1.441 -2.78,-2.16 -0.69,-1.441 -2.77,-2.16 -4.16,-2.16 h -0.69 c -0.69,0 -0.69,0.719 -0.69,0.719 -1.39,0 -2.77,0.719 -3.47,2.16 -1.38,0 -2.08,2.16 -2.08,4.32 z m 4.86,44.633 c 4.16,0 6.93,0 6.93,0 0,0 1.39,0 4.16,0.719 2.77,0.723 5.54,1.441 6.93,2.879 1.39,0.722 2.08,2.16 2.77,3.601 0.69,1.442 1.39,2.879 1.39,5.039 v 0 0 c 0,2.161 -1.39,3.602 -2.08,5.039 0,1.442 -2.08,2.879 -3.47,3.602 -0.69,0.719 -2.08,1.438 -3.46,1.438 -1.39,0 -2.08,0.718 -3.47,0.718 -1.38,0 -2.77,0.723 -3.47,0.723 -1.38,0 -2.77,0 -3.46,0 v 0 0 h -0.7 c -1.38,0 -2.07,0.719 -2.77,1.437 -0.69,1.442 -1.38,2.161 -1.38,3.602 v 0 0.719 c 0,0.719 0.69,2.16 1.38,3.601 0.7,0.719 2.77,1.438 4.86,1.438 0,0 0.69,0 1.38,0 0.69,0 1.39,0 2.08,0 4.85,-1.438 9.71,-5.039 12.48,-8.637 3.47,-5.039 5.54,-10.078 5.54,-15.84 0,-5.039 -1.38,-9.359 -4.85,-12.957 -2.77,-3.601 -8.32,-5.761 -15.94,-5.761 l -1.39,-20.157 h -2.77 l -0.69,28.797"
         style="fill:#231f20;fill-opacity:1;fill-rule:evenodd;stroke:none"
         id="path26" /><path
         d="M 141.301,1246.5 V 1055"
         style="fill:none;stroke:#231f20;stroke-width:5.8;stroke-linecap:butt;stroke-linejoin:miter;stroke-miterlimit:11.4737;stroke-dasharray:none;stroke-opacity:1"
         id="path28" /><path
         d="m 141.301,1281.8 20.097,-80 c -13.597,11.6 -26.597,11.6 -40.296,0 l 20.199,80"
         style="fill:#231f20;fill-opacity:1;fill-rule:evenodd;stroke:none"
         id="path30" /><path
         d="M 1252.2,658.199 H 1069.4"
         style="fill:none;stroke:#231f20;stroke-width:5.8;stroke-linecap:butt;stroke-linejoin:miter;stroke-miterlimit:11.4737;stroke-dasharray:none;stroke-opacity:1"
         id="path32" /><path
         d="m 1287.5,658.199 -79.9,-20.801 c 11.5,13.602 11.5,28 0,41.704 l 79.9,-20.903"
         style="fill:#231f20;fill-opacity:1;fill-rule:evenodd;stroke:none"
         id="path34" /><path
         d="M 196,1281.8 V 714.398 H 1287.5 V 1281.8"
         style="fill:none;stroke:#231f20;stroke-width:8.6;stroke-linecap:butt;stroke-linejoin:miter;stroke-miterlimit:11.4737;stroke-dasharray:none;stroke-opacity:1"
         id="path36" /><path
         d="M 196,1111.1 H 1287.5"
         style="fill:none;stroke:#231f20;stroke-width:14.4;stroke-linecap:butt;stroke-linejoin:miter;stroke-miterlimit:11.4737;stroke-dasharray:none;stroke-opacity:1"
         id="path38" /><path
         d="m 108.523,1156.07 c 0,2.88 -1.386,5.04 -2.773,5.76 -2.078,0.72 -4.156,1.44 -5.543,1.44 v 2.16 h 16.637 v -2.16 c -2.082,0 -4.16,-0.72 -4.856,-1.44 -0.691,-0.72 -1.383,-2.88 -2.078,-5.76 v -30.23 c 0,-6.48 -1.387,-11.52 -4.851,-14.4 -3.465,-1.44 -7.6254,-3.6 -13.1723,-3.6 -8.3164,0 -13.8633,1.44 -15.9414,3.6 -3.4687,3.6 -4.8555,7.2 -5.5469,10.8 0,0.72 0,1.44 0,2.88 0,0.72 -0.6953,1.44 -0.6953,2.16 v 28.79 c 0,0.72 0,0.72 0,0.72 0,0.72 0,0.72 0,0.72 0,0.72 0,0.72 0,0.72 0,0.72 0,0.72 0,0.72 0,1.44 0,2.16 -0.6914,2.88 -0.6914,0.72 -2.0781,1.44 -4.8515,1.44 v 2.16 h 20.1015 v -2.16 h -0.6914 v 0 c -2.7734,0 -4.8555,-0.72 -4.8555,-2.16 -0.6914,-2.16 -0.6914,-5.04 -0.6914,-7.91 v -25.92 c 0,-6.48 0.6914,-10.8 3.4649,-13.68 2.082,-2.16 5.5469,-3.6 10.3984,-3.6 0.6953,0 2.0821,0 2.7735,0 1.3867,0 3.4648,0 4.8515,0.72 2.0823,0.72 4.1603,2.16 6.2383,4.32 1.387,2.88 2.773,6.48 2.773,11.52 v 29.51"
         style="fill:#231f20;fill-opacity:1;fill-rule:evenodd;stroke:none"
         id="path40" /><path
         d="m 1157.63,600.234 v 14.399 c 0,2.16 -0.7,4.32 -0.7,4.32 -0.69,0.719 -2.08,1.442 -4.16,2.16 v 0.719 l 11.09,3.602 v -41.036 0 -7.918 c 0,-1.441 0,-2.882 0,-3.601 0.7,-0.719 1.39,-1.438 2.78,-1.438 0.69,0 0.69,0 0.69,0 0.69,0 0.69,0 0.69,0 V 570 h -15.25 v 1.441 c 2.08,0 3.47,0 4.16,0.719 0,0.719 0.7,2.16 0.7,4.32 v 23.754"
         style="fill:#231f20;fill-opacity:1;fill-rule:evenodd;stroke:none"
         id="path42" /><path
         d="m 162.078,645.195 c 0,7.922 1.387,14.399 4.16,19.438 2.774,4.32 6.239,7.918 9.707,8.64 0.692,0 1.383,0.719 1.383,0.719 0.695,0 1.387,0 1.387,0 4.16,0 7.625,-1.441 9.707,-5.039 2.773,-3.598 4.851,-7.199 6.238,-11.519 0,-1.438 0.692,-3.598 0.692,-5.758 0.695,-1.442 0.695,-3.602 0.695,-5.039 0,-7.199 -1.387,-12.957 -2.774,-16.559 -2.078,-4.32 -4.16,-7.199 -6.238,-8.637 C 185.648,620 184.262,620 182.875,620 c -1.387,-0.719 -2.773,-0.719 -3.465,-0.719 -4.851,0 -9.012,1.438 -11.785,5.758 -3.465,5.039 -5.547,11.52 -5.547,20.156 z m 27.035,1.442 c 0,1.437 0,2.16 0,2.16 0,0 -0.691,0.719 -0.691,2.879 0,1.441 0,3.597 -0.695,5.039 -0.692,3.598 -1.387,7.199 -2.77,10.797 -1.387,2.883 -3.469,4.32 -5.547,4.32 v 0 0 h -0.695 c -2.078,0 -4.156,-1.437 -5.543,-4.32 -1.387,-2.879 -2.774,-6.477 -2.774,-10.078 -0.695,-1.438 -0.695,-4.317 -0.695,-6.477 0,-2.16 -0.691,-3.602 -0.691,-5.039 0,-9.359 1.386,-16.559 3.465,-20.16 2.082,-3.598 4.16,-5.758 6.933,-5.758 2.774,0 5.547,2.879 6.93,7.199 1.387,5.039 2.082,10.797 2.082,16.559 0,0.719 0.691,0.719 0.691,1.437 0,0.723 0,0.723 0,1.442"
         style="fill:#231f20;fill-opacity:1;fill-rule:evenodd;stroke:none"
         id="path44" /></g></g></svg>
