<?xml version="1.0" encoding="UTF-8" standalone="no"?>
<!-- Created with Inkscape (http://www.inkscape.org/) -->

<svg
   version="1.1"
   id="svg2"
   xml:space="preserve"
   width="441.33334"
   height="177.33333"
   viewBox="0 0 441.33334 177.33333"
   xmlns="http://www.w3.org/2000/svg"
   xmlns:svg="http://www.w3.org/2000/svg"><defs
     id="defs6" /><g
     id="g8"
     transform="matrix(1.3333333,0,0,-1.3333333,0,177.33333)"><g
       id="g10"
       transform="scale(0.1)"><path
         d="M 96.6016,1233.4 H 3212.8 V 97.8984 H 96.6016 Z"
         style="fill:none;stroke:#231f20;stroke-width:11.5;stroke-linecap:butt;stroke-linejoin:miter;stroke-miterlimit:11.4737;stroke-dasharray:none;stroke-opacity:1"
         id="path12" /><path
         d="m 1712.3,535 c 88.6,0 161.3,-71.301 161.3,-161.301 0,-89.301 -72.7,-162 -161.3,-162 -89.3,0 -162,72.699 -162,162 0,90 72.7,161.301 162,161.301 z"
         style="fill:none;stroke:#231f20;stroke-width:14.4;stroke-linecap:butt;stroke-linejoin:miter;stroke-miterlimit:11.4737;stroke-dasharray:none;stroke-opacity:1"
         id="path14" /><path
         d="m 2600.8,829.398 h -431.3 v 108 h 431.3 z"
         style="fill:none;stroke:#231f20;stroke-width:14.4;stroke-linecap:butt;stroke-linejoin:miter;stroke-miterlimit:11.4737;stroke-dasharray:none;stroke-opacity:1"
         id="path16" /><path
         d="m 1254.4,884.199 c -0.7,30.199 -24.5,53.199 -54,53.199 -29.5,0 -53.3,-23.699 -54,-53.199 -0.7,30.199 -24.5,53.199 -54,53.199 -29.5,0 -53.3,-23.699 -54,-53.199 0,30.199 -23.8,53.199 -53.298,53.199 -29.5,0 -53.301,-23.699 -54,-54 -0.704,30.301 -24.5,53.301 -54,53.301 -29.5,0 -53.301,-23.699 -54,-53.301"
         style="fill:none;stroke:#231f20;stroke-width:14.4;stroke-linecap:butt;stroke-linejoin:miter;stroke-miterlimit:11.4737;stroke-dasharray:none;stroke-opacity:1"
         id="path18" /><path
         d="m 1687.1,749.5 v 269.3"
         style="fill:none;stroke:#231f20;stroke-width:14.4;stroke-linecap:butt;stroke-linejoin:miter;stroke-miterlimit:11.4737;stroke-dasharray:none;stroke-opacity:1"
         id="path20" /><path
         d="m 1741.1,749.5 v 269.3"
         style="fill:none;stroke:#231f20;stroke-width:14.4;stroke-linecap:butt;stroke-linejoin:miter;stroke-miterlimit:11.4737;stroke-dasharray:none;stroke-opacity:1"
         id="path22" /><path
         d="m 1631.7,373 c 0,29.5 18,54 40.3,54 21.6,0 40.3,-24.5 41,-54 0,-28.801 18,-53.301 40.4,-53.301 21.6,0 40.3,24.5 40.3,53.301"
         style="fill:none;stroke:#231f20;stroke-width:8.6;stroke-linecap:butt;stroke-linejoin:miter;stroke-miterlimit:11.4737;stroke-dasharray:none;stroke-opacity:1"
         id="path24" /><path
         d="m 1254.4,884.199 h 431.3"
         style="fill:none;stroke:#231f20;stroke-width:8.6;stroke-linecap:butt;stroke-linejoin:miter;stroke-miterlimit:11.4737;stroke-dasharray:none;stroke-opacity:1"
         id="path26" /><path
         d="m 1739.7,884.199 h 430.5"
         style="fill:none;stroke:#231f20;stroke-width:8.6;stroke-linecap:butt;stroke-linejoin:miter;stroke-miterlimit:11.4737;stroke-dasharray:none;stroke-opacity:1"
         id="path28" /><path
         d="m 1874.3,373 h 861.1 v 511.199 h -134.6"
         style="fill:none;stroke:#231f20;stroke-width:8.6;stroke-linecap:butt;stroke-linejoin:miter;stroke-miterlimit:11.4737;stroke-dasharray:none;stroke-opacity:1"
         id="path30" /><path
         d="M 823.801,884.199 H 688.5 V 373 h 861.8"
         style="fill:none;stroke:#231f20;stroke-width:8.6;stroke-linecap:butt;stroke-linejoin:miter;stroke-miterlimit:11.4737;stroke-dasharray:none;stroke-opacity:1"
         id="path32" /><path
         d="m 688.5,643.699 c 13.699,0 26.602,-13 26.602,-27.398 0,-15.102 -12.903,-27.301 -26.602,-27.301 -14.398,0 -27.398,12.199 -27.398,27.301 0,14.398 13,27.398 27.398,27.398"
         style="fill:#ffffff;fill-opacity:1;fill-rule:evenodd;stroke:none"
         id="path34" /><path
         d="m 688.5,643.699 c 13.699,0 26.602,-13 26.602,-27.398 0,-15.102 -12.903,-27.301 -26.602,-27.301 -14.398,0 -27.398,12.199 -27.398,27.301 0,14.398 13,27.398 27.398,27.398 z"
         style="fill:none;stroke:#231f20;stroke-width:11.5;stroke-linecap:butt;stroke-linejoin:miter;stroke-miterlimit:11.4737;stroke-dasharray:none;stroke-opacity:1"
         id="path36" /><path
         d="m 2734.7,642.199 c 14.4,0 26.7,-12.199 26.7,-27.301 0,-15.097 -12.3,-27.398 -26.7,-27.398 -14.4,0 -26.6,12.301 -26.6,27.398 0,15.102 12.2,27.301 26.6,27.301"
         style="fill:#ffffff;fill-opacity:1;fill-rule:evenodd;stroke:none"
         id="path38" /><path
         d="m 2734.7,642.199 c 14.4,0 26.7,-12.199 26.7,-27.301 0,-15.097 -12.3,-27.398 -26.7,-27.398 -14.4,0 -26.6,12.301 -26.6,27.398 0,15.102 12.2,27.301 26.6,27.301 z"
         style="fill:none;stroke:#231f20;stroke-width:11.5;stroke-linecap:butt;stroke-linejoin:miter;stroke-miterlimit:11.4737;stroke-dasharray:none;stroke-opacity:1"
         id="path40" /><path
         d="m 688.5,696.199 v 72"
         style="fill:none;stroke:#231f20;stroke-width:5.8;stroke-linecap:butt;stroke-linejoin:miter;stroke-miterlimit:11.4737;stroke-dasharray:none;stroke-opacity:1"
         id="path42" /><path
         d="m 687.801,803.5 -19.5,-77 c 13,10.801 26.699,10.801 39.597,0 l -20.097,77"
         style="fill:#231f20;fill-opacity:1;fill-rule:evenodd;stroke:none"
         id="path44" /><path
         d="m 568.465,774.027 v 21.887 c 0,4.785 -0.684,8.207 -2.051,10.258 -1.367,1.367 -4.789,2.734 -10.941,2.734 v 3.422 h 38.98 v -3.422 c -4.785,0 -8.207,-0.683 -9.574,-2.051 -2.051,-1.367 -2.734,-4.789 -2.734,-10.941 v -64.973 c 0,-4.101 0.683,-6.152 2.734,-6.839 1.367,-0.684 4.789,-1.368 9.574,-1.368 V 720 h -38.98 v 2.734 h 0.683 v 0 h 0.684 0.683 c 2.735,0 5.469,0 7.524,0.684 2.051,0.684 3.418,4.105 3.418,8.891 v 41.718"
         style="fill:#231f20;fill-opacity:1;fill-rule:evenodd;stroke:none"
         id="path46" /><path
         d="m 996.414,1011.29 v 26.67 c 0,3.42 -0.684,6.16 -2.051,8.21 -1.371,1.37 -4.105,2.74 -8.89,2.74 v 3.42 h 38.297 v -3.42 c -4.79,0 -8.21,-1.37 -10.26,-3.42 -2.05,-2.05 -4.1,-6.16 -4.1,-10.26 v -62.238 c 0,-4.785 2.05,-8.203 4.1,-8.89 2.05,-0.684 4.79,-1.368 7.53,-1.368 h 0.68 0.68 v 0 0 h 17.78 c 5.48,0 9.58,2.055 13.68,6.157 3.42,4.101 6.84,8.89 10.26,13.679 0.68,0.684 1.37,2.051 1.37,2.735 0.68,1.367 1.37,2.734 2.05,3.418 h 3.42 L 1062.75,960 h -68.387 v 0 h -8.89 v 2.734 c 0.683,0 1.367,0 1.367,0 0.683,0 1.367,0 1.367,0 0.684,0 1.367,0 1.367,0 0.684,0 1.367,0 1.367,0 2.051,0 3.422,0.684 4.106,1.368 0.683,0.687 1.367,3.421 1.367,6.839 v 40.349"
         style="fill:#231f20;fill-opacity:1;fill-rule:evenodd;stroke:none"
         id="path48" /><path
         d="m 1843.44,986.766 c 0,8.89 -2.74,16.414 -6.16,20.514 -3.42,4.79 -8.21,8.21 -12.31,9.58 -2.05,0.68 -5.47,2.05 -7.52,2.05 -2.74,0.68 -4.79,0.68 -6.16,0.68 -10.25,-0.68 -18.46,-5.47 -23.93,-14.36 -4.79,-8.89 -8.21,-19.152 -8.21,-29.41 v -0.683 c 0,-0.684 0,-1.367 0,-1.367 0,-10.942 3.42,-21.2 8.21,-29.407 6.15,-8.89 14.36,-13.679 25.98,-13.679 8.21,0 15.05,2.734 21.21,8.207 5.47,6.156 9.57,13.679 10.25,23.254 h 2.74 v -31.461 h -2.74 l -3.42,6.839 c -2.05,-1.367 -4.1,-2.734 -6.83,-4.105 -2.06,-0.684 -5.48,-2.051 -8.21,-2.734 -2.05,-0.684 -4.79,-1.368 -7.52,-2.051 -2.74,0 -4.79,-0.684 -6.84,-0.684 -13.68,0 -25.31,4.102 -34.2,12.309 -9.57,8.207 -14.36,20.519 -14.36,34.195 0,1.367 0.68,3.418 0.68,4.789 0,2.051 0.69,4.102 0.69,5.469 2.05,9.574 6.84,17.779 13.67,25.309 6.84,7.52 17.1,12.31 29.42,12.99 4.78,0 9.57,0 13.67,-0.68 4.11,-1.37 8.89,-2.74 13,-5.47 0.68,-0.69 2.05,-1.37 2.73,-2.06 0.68,-0.68 2.05,-1.36 2.74,-2.05 l 3.42,6.16 h 3.42 v -32.144 h -3.42"
         style="fill:#231f20;fill-opacity:1;fill-rule:evenodd;stroke:none"
         id="path50" /><path
         d="m 2347.1,1039.33 c 0,4.11 -0.69,6.84 -2.05,7.53 -1.37,1.36 -4.11,2.05 -7.53,2.05 v 3.42 h 38.98 c 0.69,0 1.38,0 1.38,0 0.68,0 1.36,-0.69 2.05,-0.69 6.84,-0.68 14.36,-2.73 19.83,-6.84 6.15,-4.1 9.57,-10.25 9.57,-17.78 0,-8.2 -2.05,-13.68 -6.15,-17.09 -4.11,-3.43 -8.89,-6.16 -15.05,-8.21 1.37,-2.052 4.1,-4.107 6.16,-6.157 2.05,-2.735 4.1,-6.157 6.15,-8.891 1.37,-0.684 2.05,-2.051 2.05,-2.734 0.69,-0.684 1.37,-2.051 2.06,-2.739 0.68,-0.683 1.36,-1.367 1.36,-2.051 0.69,-0.683 1.37,-1.367 1.37,-2.05 0.68,-1.368 2.05,-2.735 2.74,-4.106 0.68,-1.367 2.05,-2.734 2.73,-4.101 0.69,-2.051 2.05,-3.418 3.42,-4.789 1.37,-0.684 3.42,-1.368 6.84,-1.368 h 0.69 c 0.68,0 1.36,0 1.36,0 V 960 h -23.25 c -1.37,2.051 -2.74,4.102 -3.42,6.156 -1.37,2.051 -2.73,4.102 -3.42,5.469 -0.68,0.684 -1.37,2.055 -2.05,2.738 -0.69,0.684 -1.37,2.051 -1.37,2.735 -1.37,1.367 -2.73,3.418 -4.1,4.789 -0.68,1.367 -2.06,3.418 -3.42,4.785 -1.37,1.367 -2.05,2.734 -2.74,4.105 -1.36,1.368 -2.73,2.735 -3.41,3.418 -2.06,1.368 -4.11,3.418 -6.16,4.102 -2.74,0.683 -6.84,1.371 -10.94,2.053 v -28.041 c 0,-4.786 1.36,-7.52 2.73,-8.207 2.05,-0.684 5.47,-1.368 10.26,-1.368 V 960 h -36.25 v 2.734 c 0.69,0 1.37,0 1.37,0 1.37,0 2.05,0 2.05,0 2.74,0 4.79,0.684 5.47,2.055 0.69,1.367 0.69,3.418 0.69,6.836 v 0.684 0.683 z m 13.68,-35.56 c 0.68,0 1.36,0 2.05,0 0.68,0 1.37,-0.68 2.05,-0.68 0.68,0 1.37,0 1.37,0 h 0.68 c 0.68,0 1.37,0 2.05,0 0,0 0.69,0.68 1.37,0.68 5.47,0 11.63,1.37 15.73,4.1 5.47,3.42 8.21,8.9 8.21,16.42 0,0.68 0,1.37 0,2.05 0,0.68 0,1.37 0,2.05 -0.69,4.79 -2.74,9.57 -5.47,13.68 -2.74,4.1 -9.58,6.15 -18.47,6.84 -2.74,0 -4.79,-0.69 -6.84,-1.37 -1.37,-1.37 -2.73,-4.1 -2.73,-8.21 v -35.56"
         style="fill:#231f20;fill-opacity:1;fill-rule:evenodd;stroke:none"
         id="path52" /></g></g></svg>
