<?xml version="1.0" encoding="UTF-8" standalone="no"?>
<!-- Created with Inkscape (http://www.inkscape.org/) -->

<svg
   version="1.1"
   id="svg2"
   xml:space="preserve"
   width="134.66667"
   height="70.666664"
   viewBox="0 0 134.66667 70.666664"
   xmlns="http://www.w3.org/2000/svg"
   xmlns:svg="http://www.w3.org/2000/svg"><defs
     id="defs6" /><g
     id="g8"
     transform="matrix(1.3333333,0,0,-1.3333333,0,70.666667)"><g
       id="g10"
       transform="scale(0.1)"><path
         d="M 6.64453,516.574 H 998.77 V 6.33594 H 6.64453 Z"
         style="fill:none;stroke:#231f20;stroke-width:11.52;stroke-linecap:butt;stroke-linejoin:miter;stroke-miterlimit:2.6131;stroke-dasharray:none;stroke-opacity:1"
         id="path12" /><path
         d="M 368.863,397.52 H 652.328 V 114.059 H 368.863 Z"
         style="fill:none;stroke:#231f20;stroke-width:14.4;stroke-linecap:butt;stroke-linejoin:miter;stroke-miterlimit:2.6131;stroke-dasharray:none;stroke-opacity:1"
         id="path14" /><path
         d="M 368.863,336.813 H 206.809"
         style="fill:none;stroke:#231f20;stroke-width:14.4;stroke-linecap:butt;stroke-linejoin:miter;stroke-miterlimit:2.6131;stroke-dasharray:none;stroke-opacity:1"
         id="path16" /><path
         d="M 368.863,174.762 H 206.809"
         style="fill:none;stroke:#231f20;stroke-width:14.4;stroke-linecap:butt;stroke-linejoin:miter;stroke-miterlimit:2.6131;stroke-dasharray:none;stroke-opacity:1"
         id="path18" /><path
         d="M 814.379,256.047 H 652.328"
         style="fill:none;stroke:#231f20;stroke-width:14.4;stroke-linecap:butt;stroke-linejoin:miter;stroke-miterlimit:2.6131;stroke-dasharray:none;stroke-opacity:1"
         id="path20" /><path
         d="m 501.996,275.137 16.121,7.871 h 1.617 v -55.934 c 0,-3.699 0.149,-6.019 0.45,-6.933 0.316,-0.903 0.968,-1.602 1.933,-2.102 0.985,-0.484 2.969,-0.769 5.969,-0.836 v -1.801 H 503.16 v 1.801 c 3.133,0.067 5.153,0.336 6.07,0.817 0.899,0.468 1.536,1.101 1.903,1.902 0.347,0.801 0.531,3.183 0.531,7.152 v 35.762 c 0,4.82 -0.168,7.902 -0.484,9.269 -0.235,1.051 -0.649,1.817 -1.25,2.301 -0.598,0.485 -1.317,0.731 -2.168,0.731 -1.199,0 -2.883,-0.496 -5.035,-1.516 l -0.731,1.516"
         style="fill:#231f20;fill-opacity:1;fill-rule:evenodd;stroke:none"
         id="path22" /><path
         d="m 652.328,296.176 80.766,-40.645"
         style="fill:none;stroke:#231f20;stroke-width:14.4;stroke-linecap:butt;stroke-linejoin:miter;stroke-miterlimit:2.6131;stroke-dasharray:none;stroke-opacity:1"
         id="path24" /></g></g></svg>
