<?xml version="1.0" encoding="UTF-8" standalone="no"?>
<!-- Created with Inkscape (http://www.inkscape.org/) -->

<svg
   version="1.1"
   id="svg2"
   xml:space="preserve"
   width="417.33334"
   height="170.66667"
   viewBox="0 0 417.33334 170.66667"
   xmlns="http://www.w3.org/2000/svg"
   xmlns:svg="http://www.w3.org/2000/svg"><defs
     id="defs6" /><g
     id="g8"
     transform="matrix(1.3333333,0,0,-1.3333333,0,170.66667)"><g
       id="g10"
       transform="scale(0.1)"><path
         d="M 6.60156,1276.6 H 3122.8 V 2.19922 H 6.60156 Z"
         style="fill:none;stroke:#231f20;stroke-width:11.5;stroke-linecap:butt;stroke-linejoin:miter;stroke-miterlimit:11.4737;stroke-dasharray:none;stroke-opacity:1"
         id="path12" /><path
         d="m 1170.9,328.301 c 59,0 108,-47.5 108,-107.301 0,-59 -49,-107.199 -108,-107.199 -59.1,0 -107.3,48.199 -107.3,107.199 0,59.801 48.2,107.301 107.3,107.301 z"
         style="fill:none;stroke:#231f20;stroke-width:8.6;stroke-linecap:butt;stroke-linejoin:miter;stroke-miterlimit:11.4737;stroke-dasharray:none;stroke-opacity:1"
         id="path14" /><path
         d="m 1235,221 c 0,-23.699 -14.4,-42.398 -32.4,-42.398 -16.6,0 -31.7,18.699 -31.7,42.398"
         style="fill:none;stroke:#231f20;stroke-width:8.6;stroke-linecap:butt;stroke-linejoin:miter;stroke-miterlimit:11.4737;stroke-dasharray:none;stroke-opacity:1"
         id="path16" /><path
         d="m 1106.8,221 c 0,24.5 14.4,43.199 31.7,43.199 18,0 32.4,-18.699 32.4,-43.199"
         style="fill:none;stroke:#231f20;stroke-width:8.6;stroke-linecap:butt;stroke-linejoin:miter;stroke-miterlimit:11.4737;stroke-dasharray:none;stroke-opacity:1"
         id="path18" /><path
         d="m 1330.13,198.195 11.62,30.743 c 0.68,0.683 0.68,0.683 0.68,1.367 0,0.679 0,0.679 0,1.363 0,0.684 -0.68,2.051 -1.37,2.051 -1.36,0 -2.73,0.683 -4.78,0.683 v 1.368 h 12.98 v -1.368 c -0.68,0 -2.05,-0.683 -2.73,-2.05 -1.37,-0.684 -2.05,-2.047 -2.73,-4.098 v 0 -0.684 l -12.98,-33.472 v 0 l -2.05,-4.782 h -1.37 l -13.66,33.473 -2.73,5.465 c 0,0.684 -0.69,1.367 -0.69,2.051 0,0 -0.68,0.679 -0.68,1.363 0,0.684 -0.68,1.367 -1.37,2.051 -0.68,0 -1.36,0.683 -2.04,0.683 v 1.368 h 17.07 v -1.368 l -0.68,-0.683 c -0.68,0 -0.68,0 -0.68,0 -1.37,0 -2.74,0 -3.42,0 -0.68,-0.684 -1.36,-1.367 -1.36,-2.051 v -0.684 c 0,-0.679 0.68,-1.363 0.68,-1.363 l 12.29,-31.426"
         style="fill:#231f20;fill-opacity:1;fill-rule:evenodd;stroke:none"
         id="path20" /><path
         d="m 1362.92,218.008 v 12.297 c 0,1.363 0,2.73 -0.68,2.73 -0.69,0.684 -2.05,1.367 -4.1,1.367 v 1.368 h 34.16 v 0 0 l 3.41,-10.93 h -1.37 c -0.68,0.68 -0.68,1.363 -0.68,1.363 -0.68,0.684 -0.68,1.367 -1.36,1.367 -0.69,2.051 -2.74,3.414 -4.1,4.782 -2.05,1.367 -4.1,2.05 -6.83,2.05 h -11.62 V 213.91 h 6.84 c 1.36,0 3.41,0.68 4.78,2.047 1.36,0.684 2.73,2.734 2.73,5.465 h 1.36 v -17.078 h -1.36 v 0 0.683 c 0,2.051 -0.69,3.418 -1.37,4.782 -0.68,1.367 -3.41,2.734 -6.14,2.734 h -6.84 v -15.711 c 0,-2.051 0.69,-4.102 0.69,-4.781 0.68,-0.684 2.73,-0.684 6.15,-0.684 V 190 h -18.45 v 1.367 c 2.74,0 4.1,0 4.1,0.684 0.68,0.679 0.68,2.047 0.68,4.781 0,0 0,0 0,0.684 0,0 0,0 0,0.679 v 19.813"
         style="fill:#231f20;fill-opacity:1;fill-rule:evenodd;stroke:none"
         id="path22" /><path
         d="m 1406.64,215.273 v 0.684 0.684 c 0,4.781 2.74,9.562 6.15,12.98 3.41,4.098 8.88,6.828 15.71,7.512 h 0.68 v 0 c 0.69,0 0.69,0 1.37,0 0,0 0,-0.684 0.68,-0.684 4.79,0 9.57,-2.047 13.66,-6.144 4.79,-4.102 6.84,-9.567 7.52,-16.395 v 0 c 0,-0.683 0,-0.683 0,-0.683 0,-6.832 -2.05,-12.297 -6.15,-16.395 -4.1,-4.781 -9.56,-6.832 -16.39,-6.832 h -0.69 -0.68 c -6.15,0 -11.61,1.367 -14.34,4.781 -4.11,3.414 -6.15,8.199 -6.84,12.297 -0.68,0.684 -0.68,2.047 -0.68,2.731 0,1.367 -0.68,2.05 -0.68,2.734 0,0.684 0,1.367 0,1.367 0,0.68 0.68,0.68 0.68,1.363 z m 38.25,-0.683 c 0,5.465 -1.36,9.566 -3.41,12.297 -1.37,2.734 -4.1,5.465 -6.15,6.148 -0.68,0.684 -2.73,1.367 -3.42,1.367 -1.36,0.684 -2.73,0.684 -3.41,0.684 -4.78,0 -8.88,-2.734 -10.93,-6.832 -2.73,-4.781 -4.1,-10.246 -4.1,-15.711 v 0 0 c 0,-5.465 1.37,-10.246 3.42,-14.348 2.73,-4.781 7.51,-6.828 12.98,-6.828 4.09,0 6.83,1.363 9.56,4.781 2.05,2.731 4.1,6.149 4.78,10.247 0,0.683 0.68,2.05 0.68,2.73 0,1.367 0,2.051 0,2.734 0,0.684 0,1.368 0,1.368 0,0.683 0,1.363 0,1.363"
         style="fill:#231f20;fill-opacity:1;fill-rule:evenodd;stroke:none"
         id="path24" /><path
         d="M 391.102,733 H 148.5 v 394.5"
         style="fill:none;stroke:#231f20;stroke-width:5.8;stroke-linecap:butt;stroke-linejoin:miter;stroke-miterlimit:11.4737;stroke-dasharray:none;stroke-opacity:1"
         id="path26" /><path
         d="m 148.5,1163.5 -20.199,-79.9 c 13,10.8 27.398,10.8 40.301,0 l -20.102,79.9"
         style="fill:#231f20;fill-opacity:1;fill-rule:evenodd;stroke:none"
         id="path28" /><path
         d="m 946.199,733 h -178.5"
         style="fill:none;stroke:#231f20;stroke-width:5.8;stroke-linecap:butt;stroke-linejoin:miter;stroke-miterlimit:11.4737;stroke-dasharray:none;stroke-opacity:1"
         id="path30" /><path
         d="m 982.199,733 -79.898,-20.199 c 10.801,13 10.801,27.398 0,40.301 L 982.199,733"
         style="fill:#231f20;fill-opacity:1;fill-rule:evenodd;stroke:none"
         id="path32" /><path
         d="m 1170.9,508.301 v -178.5"
         style="fill:none;stroke:#231f20;stroke-width:5.8;stroke-linecap:butt;stroke-linejoin:miter;stroke-miterlimit:11.4737;stroke-dasharray:none;stroke-opacity:1"
         id="path34" /><path
         d="m 1170.9,544.301 19.4,-79.903 c -12.9,10.801 -25.9,10.801 -38.9,0 l 19.5,79.903"
         style="fill:#231f20;fill-opacity:1;fill-rule:evenodd;stroke:none"
         id="path36" /><path
         d="M 1538.8,733 H 1360.2"
         style="fill:none;stroke:#231f20;stroke-width:5.8;stroke-linecap:butt;stroke-linejoin:miter;stroke-miterlimit:11.4737;stroke-dasharray:none;stroke-opacity:1"
         id="path38" /><path
         d="m 1574.8,733 -79.9,-20.199 c 10.8,13 10.8,27.398 0,40.301 L 1574.8,733"
         style="fill:#231f20;fill-opacity:1;fill-rule:evenodd;stroke:none"
         id="path40" /><path
         d="M 2130.6,733 H 1952.1"
         style="fill:none;stroke:#231f20;stroke-width:5.8;stroke-linecap:butt;stroke-linejoin:miter;stroke-miterlimit:11.4737;stroke-dasharray:none;stroke-opacity:1"
         id="path42" /><path
         d="m 2166.6,733 -79.9,-20.199 c 10.8,13 10.8,27.398 0,40.301 L 2166.6,733"
         style="fill:#231f20;fill-opacity:1;fill-rule:evenodd;stroke:none"
         id="path44" /><path
         d="M 2721,733 H 2542.5"
         style="fill:none;stroke:#231f20;stroke-width:5.8;stroke-linecap:butt;stroke-linejoin:miter;stroke-miterlimit:11.4737;stroke-dasharray:none;stroke-opacity:1"
         id="path46" /><path
         d="m 2757,733 -79.9,-20.199 c 10.8,13 10.8,27.398 0,40.301 L 2757,733"
         style="fill:#231f20;fill-opacity:1;fill-rule:evenodd;stroke:none"
         id="path48" /><path
         d="m 983,921.602 h 376.5 V 545 H 983 Z"
         style="fill:none;stroke:#231f20;stroke-width:8.6;stroke-linecap:butt;stroke-linejoin:miter;stroke-miterlimit:11.4737;stroke-dasharray:none;stroke-opacity:1"
         id="path50" /><path
         d="m 983,544.301 377.2,377.301"
         style="fill:none;stroke:#231f20;stroke-width:8.6;stroke-linecap:butt;stroke-linejoin:miter;stroke-miterlimit:11.4737;stroke-dasharray:none;stroke-opacity:1"
         id="path52" /><path
         d="M 983,921.602 1360.2,544.301"
         style="fill:none;stroke:#231f20;stroke-width:8.6;stroke-linecap:butt;stroke-linejoin:miter;stroke-miterlimit:11.4737;stroke-dasharray:none;stroke-opacity:1"
         id="path54" /><path
         d="M 390.398,923 H 766.199 V 547.199 H 390.398 Z"
         style="fill:none;stroke:#231f20;stroke-width:8.6;stroke-linecap:butt;stroke-linejoin:miter;stroke-miterlimit:11.4737;stroke-dasharray:none;stroke-opacity:1"
         id="path56" /><path
         d="M 438.602,895 V 594 h 301"
         style="fill:none;stroke:#231f20;stroke-width:5.8;stroke-linecap:butt;stroke-linejoin:miter;stroke-miterlimit:11.4737;stroke-dasharray:none;stroke-opacity:1"
         id="path58" /><path
         d="M 524.301,599 V 814.301 H 637.398 V 599"
         style="fill:none;stroke:#231f20;stroke-width:8.6;stroke-linecap:round;stroke-linejoin:miter;stroke-miterlimit:11.4737;stroke-dasharray:none;stroke-opacity:1"
         id="path60" /><path
         d="m 1574.8,920.902 h 375.8 V 545 h -375.8 z"
         style="fill:none;stroke:#231f20;stroke-width:8.6;stroke-linecap:butt;stroke-linejoin:miter;stroke-miterlimit:11.4737;stroke-dasharray:none;stroke-opacity:1"
         id="path62" /><path
         d="M 1622.3,894.199 V 593.301 H 1924"
         style="fill:none;stroke:#231f20;stroke-width:5.8;stroke-linecap:butt;stroke-linejoin:miter;stroke-miterlimit:11.4737;stroke-dasharray:none;stroke-opacity:1"
         id="path64" /><path
         d="m 1628.1,823.699 h 112.3 V 598.301"
         style="fill:none;stroke:#231f20;stroke-width:8.6;stroke-linecap:round;stroke-linejoin:miter;stroke-miterlimit:11.4737;stroke-dasharray:none;stroke-opacity:1"
         id="path66" /><path
         d="M 2166.6,921.602 H 2541 V 545.801 h -374.4 z"
         style="fill:none;stroke:#231f20;stroke-width:8.6;stroke-linecap:butt;stroke-linejoin:miter;stroke-miterlimit:11.4737;stroke-dasharray:none;stroke-opacity:1"
         id="path68" /><path
         d="m 1025.18,946.832 12.98,28.688 v 0.683 l 1.37,2.735 h 9.56 v -1.368 c -2.05,0 -3.41,0 -4.1,-1.367 -0.68,-0.683 -0.68,-2.047 -0.68,-4.098 v -26.64 c 0,-1.367 0,-2.731 0.68,-3.414 0.69,-0.684 1.37,-1.367 2.74,-1.367 h 0.68 c 0,0 0,0 0.68,0 V 940 h -15.71 v 0.684 c 2.05,0 3.42,0.683 4.1,0.683 0.68,0.684 1.36,2.047 1.36,4.781 v 26.641 l -12.97,-29.375 v 0 L 1023.82,940 h -1.37 l -14.34,28.691 v 0 l -2.06,4.098 v -28.691 c 0,-0.684 0.69,-1.364 1.37,-2.047 0,-0.684 1.37,-1.367 2.74,-1.367 h 0.68 0.68 V 940 h -12.293 v 0.684 c 2.043,0 3.413,0.683 4.093,0.683 0.69,0 1.37,1.367 1.37,2.731 v 29.375 0 0 c 0,0.683 -0.68,2.047 -0.68,2.73 -0.69,0.684 -2.05,1.367 -4.104,1.367 v 1.368 h 10.254 l 12.97,-28.692 v 0 l 2.05,-3.414"
         style="fill:#231f20;fill-opacity:1;fill-rule:evenodd;stroke:none"
         id="path70" /><path
         d="m 1063.44,965.273 v 8.883 c 0,1.364 0,2.731 -0.69,2.731 -0.68,0.683 -1.36,0.683 -2.05,0.683 h -0.68 c -0.68,0 -0.68,0 -0.68,0 v 1.368 h 28.69 v 0 h 0.68 l 2.74,-8.883 h -1.37 c 0,0 -0.69,0.683 -0.69,1.367 -0.68,0 -0.68,0.683 -0.68,0.683 -1.37,2.051 -2.73,3.415 -4.1,4.098 -1.36,1.367 -3.41,1.367 -6.15,1.367 h -8.87 v -17.078 h 4.78 0.68 c 0.68,0 1.36,0 1.36,0 1.37,0 2.74,0.684 3.42,2.051 1.37,0.684 2.05,2.73 2.73,5.465 h 0.69 v -16.395 h -0.69 c -0.68,2.731 -1.36,4.782 -2.73,5.465 -1.37,1.367 -3.42,2.047 -5.46,2.047 h -4.78 v -14.344 c 0,-1.367 0.68,-2.73 1.36,-2.73 0.68,-0.684 1.37,-1.367 2.73,-1.367 h 6.15 c 2.73,0 5.47,1.367 7.51,2.73 1.37,2.051 3.42,4.102 4.79,6.832 h 1.36 L 1090.76,940 h -28.69 v 0 h -2.73 v 0.684 c 1.36,0 2.73,0.683 3.41,1.367 0.69,0.683 0.69,1.363 0.69,2.73 v 20.492"
         style="fill:#231f20;fill-opacity:1;fill-rule:evenodd;stroke:none"
         id="path72" /><path
         d="m 1103.05,952.297 h 1.37 v 0 0 -0.684 0 c 0,-2.734 1.37,-5.465 2.74,-6.832 1.36,-2.047 3.41,-3.414 5.46,-4.097 0,0 0.68,0 1.36,0 0,0 0.69,0 1.37,0 v 0 0 0 h 0.69 c 0,0 0.68,0 1.36,0 0.69,0 0.69,0 1.37,0 1.36,0.683 2.73,1.367 3.41,2.05 1.37,1.364 2.05,3.414 2.05,6.145 0,2.051 -0.68,3.418 -1.36,4.101 -1.37,1.364 -2.74,2.047 -4.1,2.731 -0.68,0 -2.05,0.684 -2.73,0.684 -1.37,0 -2.06,0.683 -2.06,0.683 h -0.68 -0.68 c 0,0.684 -0.68,0.684 -0.68,0.684 -2.74,0.683 -4.78,2.047 -5.47,3.414 -1.36,1.367 -2.05,4.097 -2.05,7.515 0,2.731 0.69,5.465 2.05,6.829 2.05,1.367 3.42,2.734 5.47,3.418 0.68,0.683 1.36,0.683 2.04,0.683 0.69,0 1.37,0.684 2.06,0.684 0.68,0 0.68,0 0.68,0 0,0 0,0 0.68,0 0.69,-0.684 2.05,-0.684 2.73,-0.684 1.37,-0.683 2.05,-0.683 2.74,-1.367 0.68,0 1.36,-0.684 1.36,-0.684 0.68,0 1.37,-0.683 2.05,-1.367 l 1.37,2.051 h 0.68 v -12.297 h -0.68 c -0.69,4.098 -2.05,7.516 -4.1,9.563 -1.37,2.05 -4.1,3.418 -6.83,3.418 v 0 0 c -2.05,0 -4.1,-1.368 -5.47,-2.735 -1.36,-1.363 -2.05,-3.414 -2.73,-5.465 v -0.683 0 c 0,-1.364 0.68,-2.731 1.37,-4.098 0.68,-1.367 2.05,-2.047 4.09,-2.73 v 0 c 0.69,0 0.69,0 0.69,0 0.68,-0.684 2.05,-0.684 2.73,-0.684 0.69,-0.684 2.05,-0.684 2.73,-1.367 2.74,-0.684 4.78,-2.051 6.83,-3.414 2.06,-1.367 2.74,-4.102 2.74,-7.516 0,-3.414 -1.37,-6.832 -3.42,-8.195 -2.05,-1.367 -4.78,-2.051 -7.51,-2.051 -0.68,0 -0.68,0 -1.37,0 0,0 -0.68,0 -1.36,0 -2.06,0 -4.1,0 -6.15,0 -1.37,0.684 -2.73,1.367 -4.1,2.051 L 1103.74,940 h -0.69 z m 15.72,30.055 h -4.1 l -6.83,9.562 h 2.05 l 6.83,-6.144 6.83,6.144 h 2.05 l -6.83,-9.562"
         style="fill:#231f20;fill-opacity:1;fill-rule:evenodd;stroke:none"
         id="path74" /><path
         d="m 1152.24,974.156 -1.36,1.364 v 0 0 c 1.36,0.683 2.04,1.367 2.73,2.05 0.68,1.368 1.36,2.051 2.05,2.735 l 11.61,-28.692 v 0 l 2.73,-6.832 v 0 -0.683 c 0.68,-0.684 0.68,-1.364 1.37,-2.047 0.68,0 1.36,-0.684 2.73,-1.367 V 940 h -15.03 v 0.684 c 1.37,0 2.73,0.683 3.41,0.683 1.37,0 1.37,0.684 1.37,1.367 0,0.68 0,0.68 0,1.364 0,0 0,0.683 -0.68,1.367 l -3.42,9.562 h -12.98 l -4.09,-10.246 v -0.683 -0.684 c 0,-0.68 0,-1.363 0.68,-1.363 0.68,-0.684 2.05,-1.367 4.1,-1.367 V 940 h -10.93 v 0.684 c 1.36,0.683 2.05,1.367 2.73,1.367 0.69,0.683 0.69,1.363 1.37,2.047 0,0.683 0,0.683 0,1.367 0.68,0 0.68,0.683 0.68,0.683 z m 0.68,-2.051 -5.46,-15.71 h 11.61 z"
         style="fill:#231f20;fill-opacity:1;fill-rule:evenodd;stroke:none"
         id="path76" /><path
         d="m 1185.03,961.859 v 11.614 c 0,1.367 -0.69,2.047 -0.69,3.414 -0.68,0.683 -2.04,0.683 -4.09,0.683 v 1.368 h 16.39 v -1.368 c -2.05,0 -3.41,0 -4.1,-1.367 -1.36,-0.683 -2.05,-2.047 -2.05,-4.098 v -26.64 c 0,-2.051 0.69,-3.414 2.05,-4.098 0.69,0 2.05,-0.683 2.73,-0.683 h 0.69 v 0 0 0 h 7.51 c 2.73,0 4.78,1.367 6.15,2.73 1.36,2.051 2.73,4.102 4.1,6.149 0.68,0 0.68,0.683 0.68,1.367 0.69,0 0.69,0.683 1.37,1.367 h 1.36 L 1213.04,940 h -28.7 v 0 h -4.09 v 0.684 h 0.68 0.68 0.69 c 0,0 0,0 0.68,0 0.68,0 1.36,0.683 1.36,0.683 0,0.684 0.69,1.367 0.69,3.414 v 17.078"
         style="fill:#231f20;fill-opacity:1;fill-rule:evenodd;stroke:none"
         id="path78" /><path
         d="m 1260.85,948.195 v 24.594 c 0,1.367 0,2.731 -0.68,3.414 0,0.684 -2.05,1.367 -4.1,1.367 v 1.368 h 12.3 v -1.368 c -2.05,0 -3.42,0 -4.1,-0.683 -0.68,-1.367 -1.37,-2.047 -1.37,-2.731 0,-0.683 0,-0.683 0,-0.683 0,-0.684 0,-0.684 0,-1.368 v -28.691 0 V 940 h -1.36 l -27.33,28.008 v 0 l -3.41,4.097 v -28.007 c 0,-1.364 0.68,-2.047 1.36,-2.731 1.37,0 2.73,-0.683 4.1,-0.683 V 940 h -12.3 v 0.684 c 0.69,0 0.69,0 0.69,0 0.68,0 0.68,0 0.68,0 1.37,0 2.05,0.683 2.73,0.683 0.69,0.684 1.37,1.367 1.37,2.731 v 29.375 0 0 c 0,0.683 -0.68,0.683 -0.68,0.683 0,0 0,0 -0.69,0.684 l -0.68,0.68 c -0.68,0.683 -1.36,1.367 -2.05,1.367 0,0 0,0.683 -0.68,0.683 h -0.69 v 1.368 h 8.88 l 26.64,-28.692 v 0 l 1.37,-2.051"
         style="fill:#231f20;fill-opacity:1;fill-rule:evenodd;stroke:none"
         id="path80" /><path
         d="m 1282.03,962.543 v 9.562 c 0,2.051 0,3.415 -0.69,4.782 -0.68,0.683 -2.04,0.683 -4.78,0.683 v 1.368 h 17.08 v -1.368 c -2.05,0 -3.41,0 -4.78,-0.683 -0.68,-0.684 -0.68,-2.047 -0.68,-4.782 v -27.324 c 0,-2.047 0,-2.73 0.68,-3.414 1.37,0 2.73,-0.683 4.78,-0.683 V 940 h -17.08 v 0.684 0 0 h 0.69 v 0 c 1.36,0 2.73,0 3.41,0.683 0.68,0 1.37,1.367 1.37,3.414 v 17.762"
         style="fill:#231f20;fill-opacity:1;fill-rule:evenodd;stroke:none"
         id="path82" /><path
         d="m 1313.45,958.445 13.66,14.344 c 0.69,0 0.69,0.684 0.69,1.367 0.68,0 0.68,0.684 0.68,0.684 v 0 0.68 c 0,0 -0.68,0.683 -1.37,1.367 -0.68,0 -2.05,0.683 -3.41,0.683 v 1.368 h 14.34 v -1.368 c -1.36,0 -2.73,-0.683 -4.09,-0.683 -0.69,-0.684 -2.06,-1.367 -2.74,-2.047 0,-0.684 -0.68,-0.684 -0.68,-1.367 -0.69,0 -0.69,-0.684 -1.37,-1.368 l -9.56,-10.246 14.35,-17.078 c 0,-0.683 0.68,-1.367 0.68,-2.047 0.68,0 0.68,-0.683 1.36,-0.683 0.69,-0.684 1.37,-0.684 1.37,-0.684 0.68,0 2.05,-0.683 2.73,-0.683 V 940 h -9.56 l -15.03,17.762 -2.05,-1.367 v -12.981 0 -0.68 c 0,0 0.68,-0.683 1.37,-1.367 0.68,0 1.36,-0.683 2.73,-0.683 v 0 c 0.68,0 0.68,0 0.68,0 V 940 h -14.34 v 0.684 c 0.68,0 2.05,0.683 2.73,0.683 0.68,0.684 1.36,1.367 1.36,3.414 v 27.324 c 0,2.051 -0.68,3.415 -1.36,4.782 -0.68,0.683 -1.37,0.683 -3.42,0.683 v 1.368 h 15.03 v -1.368 c -1.36,0 -2.73,0 -3.41,-0.683 -0.69,-0.684 -1.37,-2.047 -1.37,-3.414 v -15.028"
         style="fill:#231f20;fill-opacity:1;fill-rule:evenodd;stroke:none"
         id="path84" /><path
         d="m 454.555,963.91 v 10.93 c 0,0.68 -0.684,2.047 -1.364,2.047 0,0.683 -1.367,0.683 -3.418,0.683 v 1.368 h 29.375 v 0 0 l 2.731,-8.883 h -1.363 c 0,0 0,0.683 -0.684,1.367 0,0 0,0.683 -0.684,0.683 -0.683,1.368 -2.05,2.735 -3.418,4.098 -1.363,0.684 -4.097,1.367 -6.144,1.367 h -9.566 v -17.078 h 5.464 c 1.368,0 2.735,0.684 4.102,1.367 1.363,0.684 2.047,2.731 2.73,4.782 h 1.368 v -14.344 h -1.368 v 0 0.683 c -0.683,1.364 -0.683,2.731 -1.367,4.098 -0.683,1.367 -2.73,2.047 -5.465,2.047 h -5.464 v -12.977 c 0,-2.05 0,-3.414 0.683,-4.097 0.684,-0.684 2.051,-1.367 4.781,-1.367 V 940 h -15.711 v 0.684 c 2.051,0 3.418,0.683 4.098,1.367 0,0 0.684,1.363 0.684,3.414 v 0.683 0.684 17.078"
         style="fill:#231f20;fill-opacity:1;fill-rule:evenodd;stroke:none"
         id="path86" /><path
         d="m 496.227,962.543 v 9.562 c 0,2.051 0,3.415 -0.684,4.782 -0.684,0.683 -2.051,0.683 -4.781,0.683 v 1.368 h 17.078 v -1.368 c -2.051,0 -3.418,0 -4.785,-0.683 -0.68,-0.684 -0.68,-2.047 -0.68,-4.782 v -27.324 c 0,-2.047 0,-2.73 0.68,-3.414 1.367,0 2.734,-0.683 4.785,-0.683 V 940 h -17.078 v 0.684 0 0 h 0.683 v 0 c 1.364,0 2.731,0 3.414,0.683 0.684,0 1.368,1.367 1.368,3.414 v 17.762"
         style="fill:#231f20;fill-opacity:1;fill-rule:evenodd;stroke:none"
         id="path88" /><path
         d="m 521.5,961.859 v 11.614 c 0,1.367 -0.684,2.047 -0.684,3.414 -0.683,0.683 -2.05,0.683 -4.097,0.683 v 1.368 h 16.394 v -1.368 c -2.05,0 -3.418,0 -4.097,-1.367 -1.368,-0.683 -2.051,-2.047 -2.051,-4.098 v -26.64 c 0,-2.051 0.683,-3.414 2.051,-4.098 0.679,0 2.047,-0.683 2.73,-0.683 h 0.684 v 0 0 0 h 7.515 c 2.731,0 4.782,1.367 6.145,2.73 1.367,2.051 2.734,4.102 4.101,6.149 0.684,0 0.684,0.683 0.684,1.367 0.68,0 0.68,0.683 1.363,1.367 h 1.367 L 549.508,940 h -28.692 v 0 h -4.097 v 0.684 h 0.683 0.684 0.68 c 0,0 0,0 0.683,0 0.684,0 1.367,0.683 1.367,0.683 0,0.684 0.684,1.367 0.684,3.414 v 17.078"
         style="fill:#231f20;fill-opacity:1;fill-rule:evenodd;stroke:none"
         id="path90" /><path
         d="m 578.879,962.543 v 15.027 h -8.195 c -1.368,0 -2.051,-0.683 -2.735,-0.683 -0.679,0 -1.363,0 -2.047,-0.684 -0.683,-0.683 -0.683,-0.683 -1.367,-1.363 0,-0.684 -0.683,-0.684 -0.683,-1.367 l -2.731,-4.782 -0.683,0.684 1.367,10.93 c 0.679,0 0.679,-0.684 1.363,-0.684 h 0.684 c 0.683,0 1.367,-0.683 2.05,-0.683 0.684,0 2.047,0 2.731,0 h 25.957 c 0.683,0 1.367,0 2.051,0 0.683,0 1.367,0.683 2.05,0.683 0,0 0.684,0 1.364,0 0,0.684 0.683,0.684 0.683,0.684 l 2.735,-10.93 -0.684,-0.684 -4.098,6.149 -0.683,0.68 v 0 c -0.684,0.683 -1.367,1.367 -2.051,1.367 -0.684,0 -1.367,0.683 -2.73,0.683 h -8.2 v -16.394 -16.395 c 0,-2.047 0,-2.73 0.684,-3.414 1.367,0 2.734,-0.683 4.781,-0.683 V 940 h -17.078 v 0.684 c 2.734,0 4.781,0.683 4.781,1.367 0.684,0.683 0.684,1.363 0.684,2.73 v 0 0.684 17.078"
         style="fill:#231f20;fill-opacity:1;fill-rule:evenodd;stroke:none"
         id="path92" /><path
         d="m 615.086,965.273 v 8.883 c 0,1.364 0,2.731 -0.684,2.731 -0.683,0.683 -1.367,0.683 -2.05,0.683 h -0.684 c -0.684,0 -0.684,0 -0.684,0 v 1.368 h 28.692 v 0 h 0.683 l 2.731,-8.883 h -1.363 c 0,0 -0.684,0.683 -0.684,1.367 -0.684,0 -0.684,0.683 -0.684,0.683 -1.367,2.051 -2.734,3.415 -4.097,4.098 -1.367,1.367 -3.418,1.367 -6.149,1.367 h -8.879 v -17.078 h 4.782 0.683 c 0.68,0 1.364,0 1.364,0 1.367,0 2.734,0.684 3.417,2.051 1.364,0.684 2.047,2.73 2.731,5.465 h 0.684 v -16.395 h -0.684 c -0.684,2.731 -1.367,4.782 -2.731,5.465 -1.367,1.367 -3.417,2.047 -5.464,2.047 h -4.782 v -14.344 c 0,-1.367 0.68,-2.73 1.364,-2.73 0.683,-0.684 1.367,-1.367 2.734,-1.367 h 6.148 c 2.731,0 5.465,1.367 7.512,2.73 1.367,2.051 3.418,4.102 4.781,6.832 h 1.368 L 642.41,940 h -28.691 v 0 h -2.735 v 0.684 c 1.368,0 2.735,0.683 3.418,1.367 0.684,0.683 0.684,1.363 0.684,2.73 v 20.492"
         style="fill:#231f20;fill-opacity:1;fill-rule:evenodd;stroke:none"
         id="path94" /><path
         d="m 660.168,973.473 c 0,2.047 -0.684,3.414 -1.363,3.414 -0.684,0.683 -2.051,0.683 -2.735,0.683 v 1.368 h 16.395 0.683 0.684 c 2.731,0 6.148,-1.368 8.879,-2.735 2.051,-2.047 3.418,-4.781 3.418,-7.512 0,-3.418 -0.684,-6.148 -2.051,-7.515 -2.051,-1.367 -4.098,-2.731 -6.832,-3.414 0.684,-0.684 1.367,-2.051 2.734,-2.735 0.684,-1.367 2.047,-2.73 2.731,-3.414 0,-0.683 0.684,-1.367 0.684,-1.367 0.683,-0.683 0.683,-1.367 0.683,-1.367 0.684,0 0.684,-0.684 0.684,-0.684 0.683,-0.679 0.683,-0.679 0.683,-0.679 0.684,-0.684 0.684,-1.368 1.364,-2.051 0,-0.684 0.683,-1.367 0.683,-2.051 0.684,-0.68 1.367,-1.363 2.051,-2.047 0.684,0 1.367,-0.683 2.73,-0.683 v 0 c 0.684,0 0.684,0 0.684,0 V 940 h -9.562 c -0.684,0.684 -1.368,1.367 -2.051,2.051 0,1.363 -0.68,2.047 -1.364,2.73 0,0 -0.683,0.684 -0.683,1.367 l -0.684,0.684 c -0.683,0.684 -1.367,1.363 -1.367,2.047 -0.683,0.684 -1.367,1.367 -2.047,2.734 0,0 -0.683,0.684 -0.683,1.367 -0.684,0.68 -1.368,1.364 -1.368,1.364 -1.367,0.683 -2.05,1.367 -2.734,2.051 -1.363,0 -2.73,0.683 -4.781,0.683 v -12.297 c 0,-2.047 0.683,-2.73 1.367,-3.414 0.684,0 2.051,-0.683 4.098,-0.683 V 940 H 656.07 v 0.684 0 c 0.684,0 0.684,0 0.684,0 1.367,0 2.73,0.683 2.73,1.367 0,0 0.684,1.363 0.684,2.73 v 0 0.684 z m 5.465,-15.028 h 0.683 c 0.684,0 0.684,0 1.368,0 v 0 c 0.683,0 0.683,0 0.683,0 h 0.684 0.683 c 2.047,0 4.782,0.68 6.829,2.047 2.05,1.367 3.417,3.418 3.417,6.832 v 0.684 c 0,0.683 0,0.683 0,1.367 0,2.047 -1.367,3.414 -2.734,5.465 -0.683,2.047 -3.414,2.73 -7.512,2.73 -1.367,0 -2.05,0 -2.734,-0.683 -0.684,0 -1.367,-1.367 -1.367,-3.414 v -15.028"
         style="fill:#231f20;fill-opacity:1;fill-rule:evenodd;stroke:none"
         id="path96" /><path
         d="m 238.41,1144.16 -1.367,1.36 v 0 0 c 1.367,0.68 2.047,1.37 2.73,2.05 0.684,1.37 1.368,2.05 2.051,2.73 l 11.614,-28.69 v 0 l 2.73,-6.83 v 0 -0.68 c 0.684,-0.69 0.684,-1.37 1.367,-2.05 0.684,0 1.367,-0.68 2.731,-1.37 V 1110 h -15.028 v 0.68 c 1.367,0 2.735,0.69 3.418,0.69 1.364,0 1.364,0.68 1.364,1.36 0,0.68 0,0.68 0,1.37 0,0 0,0.68 -0.684,1.36 l -3.414,9.57 h -12.977 l -4.101,-10.25 v -0.68 -0.69 c 0,-0.68 0,-1.36 0.683,-1.36 0.684,-0.68 2.051,-1.37 4.098,-1.37 V 1110 h -10.93 v 0.68 c 1.368,0.69 2.051,1.37 2.735,1.37 0.683,0.68 0.683,1.36 1.367,2.05 0,0.68 0,0.68 0,1.36 0.683,0 0.683,0.69 0.683,0.69 z m 0.68,-2.05 -5.465,-15.72 h 11.613 z"
         style="fill:#231f20;fill-opacity:1;fill-rule:evenodd;stroke:none"
         id="path98" /><path
         d="m 301.938,1118.2 v 24.59 c 0,1.37 0,2.73 -0.684,3.41 0,0.69 -2.051,1.37 -4.098,1.37 v 1.37 h 12.293 v -1.37 c -2.047,0 -3.414,0 -4.097,-0.68 -0.684,-1.37 -1.368,-2.05 -1.368,-2.73 0,-0.69 0,-0.69 0,-0.69 0,-0.68 0,-0.68 0,-1.36 v -28.7 0 -3.41 h -1.363 l -27.324,28.01 v 0 l -3.418,4.1 v -28.01 c 0,-1.37 0.684,-2.05 1.367,-2.73 1.367,0 2.734,-0.69 4.098,-0.69 V 1110 h -12.293 v 0.68 c 0.679,0 0.679,0 0.679,0 0.684,0 0.684,0 0.684,0 1.367,0 2.051,0.69 2.734,0.69 0.684,0.68 1.368,1.36 1.368,2.73 v 29.37 0 0 c 0,0.69 -0.684,0.69 -0.684,0.69 0,0 0,0 -0.684,0.68 l -0.683,0.68 c -0.684,0.68 -1.367,1.37 -2.051,1.37 0,0 0,0.68 -0.684,0.68 h -0.679 v 1.37 h 8.879 l 26.64,-28.69 v 0 l 1.368,-2.05"
         style="fill:#231f20;fill-opacity:1;fill-rule:evenodd;stroke:none"
         id="path100" /><path
         d="m 334.727,1132.54 v 15.03 h -8.2 c -1.367,0 -2.047,-0.68 -2.73,-0.68 -0.684,0 -1.367,0 -2.051,-0.69 -0.683,-0.68 -0.683,-0.68 -1.367,-1.36 0,-0.68 -0.684,-0.68 -0.684,-1.37 l -2.73,-4.78 -0.684,0.69 1.367,10.92 c 0.684,0 0.684,-0.68 1.368,-0.68 h 0.679 c 0.684,0 1.368,-0.68 2.051,-0.68 0.684,0 2.051,0 2.734,0 h 25.958 c 0.683,0 1.367,0 2.046,0 0.684,0 1.368,0.68 2.051,0.68 0,0 0.684,0 1.367,0 0,0.68 0.684,0.68 0.684,0.68 l 2.73,-10.92 -0.683,-0.69 -4.098,6.15 -0.683,0.68 v 0 c -0.684,0.68 -1.368,1.37 -2.047,1.37 -0.684,0 -1.367,0.68 -2.735,0.68 h -8.195 v -16.39 -16.4 c 0,-2.05 0,-2.73 0.68,-3.41 1.367,0 2.734,-0.69 4.785,-0.69 V 1110 h -17.078 v 0.68 c 2.73,0 4.781,0.69 4.781,1.37 0.684,0.68 0.684,1.36 0.684,2.73 v 0 0.68 17.08"
         style="fill:#231f20;fill-opacity:1;fill-rule:evenodd;stroke:none"
         id="path102" /><path
         d="m 370.93,1135.27 v 8.89 c 0,1.36 0,2.73 -0.684,2.73 -0.683,0.68 -1.367,0.68 -2.051,0.68 h -0.679 c -0.684,0 -0.684,0 -0.684,0 v 1.37 h 28.688 v 0 h 0.683 l 2.735,-8.89 h -1.368 c 0,0 -0.683,0.69 -0.683,1.37 -0.684,0 -0.684,0.69 -0.684,0.69 -1.363,2.05 -2.73,3.41 -4.098,4.09 -1.367,1.37 -3.414,1.37 -6.148,1.37 h -8.879 v -17.08 h 4.781 0.684 c 0.684,0 1.367,0 1.367,0 1.363,0 2.731,0.69 3.414,2.05 1.367,0.69 2.051,2.73 2.731,5.47 h 0.683 v -16.4 h -0.683 c -0.68,2.73 -1.364,4.78 -2.731,5.47 -1.367,1.37 -3.414,2.05 -5.465,2.05 h -4.781 v -14.35 c 0,-1.37 0.684,-2.73 1.367,-2.73 0.68,-0.68 1.364,-1.37 2.731,-1.37 h 6.148 c 2.731,0 5.465,1.37 7.516,2.73 1.363,2.05 3.414,4.11 4.781,6.84 h 1.363 l -2.73,-10.25 h -28.691 v 0 h -2.731 v 0.68 c 1.363,0 2.731,0.69 3.414,1.37 0.684,0.68 0.684,1.36 0.684,2.73 v 20.49"
         style="fill:#231f20;fill-opacity:1;fill-rule:evenodd;stroke:none"
         id="path104" /><path
         d="m 446.07,1118.2 v 24.59 c 0,1.37 0,2.73 -0.683,3.41 0,0.69 -2.047,1.37 -4.098,1.37 v 1.37 h 12.297 v -1.37 c -2.051,0 -3.418,0 -4.102,-0.68 -0.679,-1.37 -1.363,-2.05 -1.363,-2.73 0,-0.69 0,-0.69 0,-0.69 0,-0.68 0,-0.68 0,-1.36 v -28.7 0 -3.41 h -1.367 l -27.324,28.01 v 0 l -3.414,4.1 v -28.01 c 0,-1.37 0.683,-2.05 1.363,-2.73 1.367,0 2.734,-0.69 4.101,-0.69 V 1110 h -12.296 v 0.68 c 0.683,0 0.683,0 0.683,0 0.684,0 0.684,0 0.684,0 1.363,0 2.047,0.69 2.73,0.69 0.684,0.68 1.367,1.36 1.367,2.73 v 29.37 0 0 c 0,0.69 -0.683,0.69 -0.683,0.69 0,0 0,0 -0.684,0.68 l -0.683,0.68 c -0.684,0.68 -1.364,1.37 -2.047,1.37 0,0 0,0.68 -0.684,0.68 h -0.683 v 1.37 h 8.879 l 26.64,-28.69 v 0 l 1.367,-2.05"
         style="fill:#231f20;fill-opacity:1;fill-rule:evenodd;stroke:none"
         id="path106" /><path
         d="m 475.445,1144.16 -1.367,1.36 v 0 0 c 1.367,0.68 2.051,1.37 2.731,2.05 0.683,1.37 1.367,2.05 2.05,2.73 l 11.614,-28.69 v 0 l 2.73,-6.83 v 0 -0.68 c 0.684,-0.69 0.684,-1.37 1.367,-2.05 0.684,0 1.368,-0.68 2.735,-1.37 V 1110 h -15.032 v 0.68 c 1.368,0 2.735,0.69 3.418,0.69 1.364,0 1.364,0.68 1.364,1.36 0,0.68 0,0.68 0,1.37 0,0 0,0.68 -0.68,1.36 l -3.418,9.57 H 469.98 l -4.101,-10.25 v -0.68 -0.69 c 0,-0.68 0,-1.36 0.684,-1.36 0.683,-0.68 2.05,-1.37 4.101,-1.37 V 1110 h -10.93 v 0.68 c 1.364,0.69 2.047,1.37 2.731,1.37 0.683,0.68 0.683,1.36 1.367,2.05 0,0.68 0,0.68 0,1.36 0.684,0 0.684,0.69 0.684,0.69 z m 0.684,-2.05 -5.465,-15.72 h 11.609 z"
         style="fill:#231f20;fill-opacity:1;fill-rule:evenodd;stroke:none"
         id="path108" /><path
         d="m 2692.02,973.473 -5.47,-6.149 h -1.37 l 4.78,11.614 h 28.01 l -19.81,-28.692 h -0.68 l -5.46,-9.562 h 12.29 c 2.05,0 3.42,0.683 4.78,0.683 0.68,0 2.05,0.684 2.73,1.367 0,0 0.69,0.68 1.37,1.364 0,0.683 0.69,1.367 1.36,2.05 l 4.11,5.465 h 1.36 L 2715.92,940 h -29.37 v 0 h -2.73 l 20.49,28.691 v 0 l 6.15,8.879 h -12.3 c -0.68,0 -2.05,-0.683 -2.73,-0.683 -1.37,-0.684 -2.05,-2.047 -2.73,-2.731 h -0.68 c 0,-0.683 0,-0.683 0,-0.683"
         style="fill:#231f20;fill-opacity:1;fill-rule:evenodd;stroke:none"
         id="path110" /><path
         d="m 2745.3,947.516 10.24,25.957 v 0.683 c 0,0.684 0,0.684 0,1.364 0,0.683 0,1.367 -1.36,2.05 -0.69,0 -2.05,0 -4.1,0 v 1.368 h 11.61 v -1.368 c -0.68,0 -2.05,0 -2.73,-1.367 -0.69,-0.683 -1.37,-2.047 -2.05,-3.414 v 0 -0.684 l -10.93,-28.691 v 0 l -2.05,-4.098 h -1.37 l -11.61,28.692 -2.05,4.781 c 0,0.684 -0.68,1.367 -0.68,1.367 0,0.684 0,0.684 -0.68,1.364 0,0.683 -0.69,1.367 -0.69,1.367 -0.68,0.683 -1.37,0.683 -2.05,0.683 v 1.368 h 15.03 v -1.368 c -0.68,0 -0.68,0 -1.37,0 h -0.68 c -0.68,0 -2.05,0 -2.73,-0.683 0,0 -0.68,-0.684 -0.68,-1.367 v -0.68 c 0,-0.684 0,-0.684 0.68,-1.367 l 10.25,-25.957"
         style="fill:#231f20;fill-opacity:1;fill-rule:evenodd;stroke:none"
         id="path112" /><path
         d="m 2769.2,961.859 v 0 c 0,0.684 0,0.684 0,0.684 0.69,4.098 2.05,8.195 5.47,11.613 2.73,3.414 7.51,5.465 13.66,6.149 v 0 h 0.69 0.68 c 0,0 0,-0.684 0.68,-0.684 4.1,0 8.2,-2.051 11.61,-5.465 4.1,-2.734 6.15,-7.515 6.15,-13.664 v 0 c 0,-0.683 0,-0.683 0,-0.683 0,-5.465 -1.37,-10.246 -4.78,-14.344 -3.41,-4.098 -8.2,-5.465 -14.34,-5.465 h -0.69 v 0 c -5.46,0 -10.24,1.367 -12.98,4.098 -2.73,3.418 -4.78,6.832 -5.46,10.246 -0.69,1.367 -0.69,2.051 -0.69,2.734 0,0.684 0,2.047 0,2.047 0,0.684 0,1.367 0,1.367 0,0 0,0.684 0,1.367 z m 32.79,-0.683 c 0,4.781 -1.36,8.199 -2.73,10.246 -1.37,2.734 -3.42,4.781 -5.46,5.465 -0.69,0.683 -2.05,1.367 -2.74,1.367 -1.36,0 -2.73,0.684 -2.73,0.684 -4.1,-0.684 -7.51,-2.735 -9.56,-6.149 -2.05,-4.098 -3.42,-8.879 -3.42,-13.664 v 0 0 c 0,-4.098 0.69,-8.879 2.74,-12.293 2.73,-4.098 6.14,-6.148 10.93,-6.148 3.41,0 6.14,1.367 8.19,4.097 2.05,2.735 3.42,6.149 4.78,8.879 0,1.367 0,2.051 0,2.735 0,0.683 0,2.05 0,2.73 v 0.684 c 0,0.683 0,0.683 0,1.367"
         style="fill:#231f20;fill-opacity:1;fill-rule:evenodd;stroke:none"
         id="path114" /><path
         d="m 2849.81,963.91 c 0,4.098 -1.36,6.828 -2.73,8.879 -1.37,2.051 -3.42,3.414 -5.47,4.098 -0.68,0.683 -2.05,0.683 -2.73,0.683 -1.36,0.684 -2.73,0.684 -2.73,0.684 -4.78,-0.684 -8.2,-2.734 -10.25,-6.149 -2.05,-4.097 -3.42,-8.195 -3.42,-12.98 v 0 -0.68 c 0,-4.785 1.37,-8.882 3.42,-12.297 2.73,-4.097 6.15,-6.148 10.93,-6.148 3.42,0 6.83,1.367 8.88,3.414 2.74,2.734 4.1,6.149 4.78,10.246 h 1.37 V 940 h -1.37 l -1.36,3.414 c -0.68,-0.68 -2.05,-1.363 -3.42,-2.047 -0.68,-0.683 -2.05,-1.367 -3.41,-1.367 -0.69,0 -2.05,0 -3.42,0 -0.68,-0.684 -2.05,-0.684 -2.73,-0.684 -5.47,0 -10.25,1.368 -14.35,4.782 -4.1,3.418 -6.14,8.882 -6.14,15.027 0,0 0,1.367 0,2.051 0,0.683 0.68,1.367 0.68,2.051 0.68,4.097 2.73,7.511 5.46,10.929 3.42,3.414 7.52,4.782 12.98,5.465 2.05,0 4.1,0 5.47,-0.683 2.05,0 4.09,-0.684 5.46,-2.051 0.68,0 1.37,-0.684 1.37,-0.684 0.68,-0.683 1.37,-0.683 1.37,-1.363 l 1.36,2.73 h 1.37 v -13.66 z m -12.98,18.442 h -3.42 l -6.82,9.562 h 2.04 l 6.83,-6.144 6.84,6.144 h 2.04 l -7.51,-9.562"
         style="fill:#231f20;fill-opacity:1;fill-rule:evenodd;stroke:none"
         id="path116" /><path
         d="m 2896.95,948.195 v 24.594 c 0,1.367 0,2.731 -0.69,3.414 0,0.684 -2.05,1.367 -4.1,1.367 v 1.368 h 12.3 v -1.368 c -2.05,0 -3.42,0 -4.1,-0.683 -0.68,-1.367 -1.37,-2.047 -1.37,-2.731 0,-0.683 0,-0.683 0,-0.683 0,-0.684 0,-0.684 0,-1.368 v -28.691 0 V 940 h -1.36 l -27.33,28.008 v 0 l -3.41,4.097 v -28.007 c 0,-1.364 0.68,-2.047 1.36,-2.731 1.37,0 2.73,-0.683 4.1,-0.683 V 940 h -12.3 v 0.684 c 0.69,0 0.69,0 0.69,0 0.68,0 0.68,0 0.68,0 1.37,0 2.05,0.683 2.74,0.683 0.68,0.684 1.36,1.367 1.36,2.731 v 29.375 0 0 c 0,0.683 -0.68,0.683 -0.68,0.683 0,0 0,0 -0.68,0.684 l -0.69,0.68 c -0.68,0.683 -1.36,1.367 -2.05,1.367 0,0 0,0.683 -0.68,0.683 h -0.69 v 1.368 h 8.89 l 26.64,-28.692 v 0 l 1.37,-2.051"
         style="fill:#231f20;fill-opacity:1;fill-rule:evenodd;stroke:none"
         id="path118" /><path
         d="m 2918.12,962.543 v 9.562 c 0,2.051 0,3.415 -0.68,4.782 -0.69,0.683 -2.05,0.683 -4.78,0.683 v 1.368 h 17.07 v -1.368 c -2.05,0 -3.41,0 -4.78,-0.683 -0.68,-0.684 -0.68,-2.047 -0.68,-4.782 v -27.324 c 0,-2.047 0,-2.73 0.68,-3.414 1.37,0 2.73,-0.683 4.78,-0.683 V 940 h -17.07 v 0.684 0 0 h 0.68 v 0 c 1.36,0 2.73,0 3.41,0.683 0.69,0 1.37,1.367 1.37,3.414 v 17.762"
         style="fill:#231f20;fill-opacity:1;fill-rule:evenodd;stroke:none"
         id="path120" /><path
         d="m 2949.54,958.445 13.66,14.344 c 0.69,0 0.69,0.684 0.69,1.367 0.68,0 0.68,0.684 0.68,0.684 v 0 0.68 c 0,0 -0.68,0.683 -1.37,1.367 -0.68,0 -2.04,0.683 -3.41,0.683 v 1.368 h 14.34 v -1.368 c -1.36,0 -2.73,-0.683 -4.09,-0.683 -0.69,-0.684 -2.06,-1.367 -2.74,-2.047 0,-0.684 -0.68,-0.684 -0.68,-1.367 -0.68,0 -0.68,-0.684 -1.37,-1.368 l -9.56,-10.246 14.35,-17.078 c 0,-0.683 0.68,-1.367 0.68,-2.047 0.68,0 0.68,-0.683 1.37,-0.683 0.68,-0.684 1.36,-0.684 1.36,-0.684 0.68,0 2.05,-0.683 2.73,-0.683 V 940 h -9.56 l -15.03,17.762 -2.05,-1.367 v -12.981 0 -0.68 c 0,0 0.69,-0.683 1.37,-1.367 0.68,0 1.36,-0.683 2.73,-0.683 v 0 c 0.68,0 0.68,0 0.68,0 V 940 h -14.34 v 0.684 c 0.68,0 2.05,0.683 2.73,0.683 0.68,0.684 1.37,1.367 1.37,3.414 v 27.324 c 0,2.051 -0.69,3.415 -1.37,4.782 -0.68,0.683 -1.37,0.683 -3.41,0.683 v 1.368 h 15.02 v -1.368 c -1.36,0 -2.73,0 -3.41,-0.683 -0.68,-0.684 -1.37,-2.047 -1.37,-3.414 v -15.028"
         style="fill:#231f20;fill-opacity:1;fill-rule:evenodd;stroke:none"
         id="path122" /><path
         d="m 1644.55,963.91 v 10.93 c 0,0.68 -0.67,2.047 -1.36,2.047 0,0.683 -1.37,0.683 -3.42,0.683 v 1.368 h 29.38 v 0 0 l 2.73,-8.883 h -1.36 c 0,0 0,0.683 -0.69,1.367 0,0 0,0.683 -0.68,0.683 -0.69,1.368 -2.05,2.735 -3.42,4.098 -1.36,0.684 -4.1,1.367 -6.14,1.367 h -9.57 v -17.078 h 5.46 c 1.37,0 2.74,0.684 4.11,1.367 1.36,0.684 2.04,2.731 2.73,4.782 h 1.36 v -14.344 h -1.36 v 0 0.683 c -0.69,1.364 -0.69,2.731 -1.37,4.098 -0.68,1.367 -2.73,2.047 -5.47,2.047 h -5.46 v -12.977 c 0,-2.05 0,-3.414 0.68,-4.097 0.69,-0.684 2.05,-1.367 4.78,-1.367 V 940 h -15.71 v 0.684 c 2.05,0 3.42,0.683 4.11,1.367 0,0 0.67,1.363 0.67,3.414 v 0.683 0.684 17.078"
         style="fill:#231f20;fill-opacity:1;fill-rule:evenodd;stroke:none"
         id="path124" /><path
         d="m 1686.23,962.543 v 9.562 c 0,2.051 0,3.415 -0.69,4.782 -0.68,0.683 -2.05,0.683 -4.78,0.683 v 1.368 h 17.08 v -1.368 c -2.05,0 -3.42,0 -4.79,-0.683 -0.67,-0.684 -0.67,-2.047 -0.67,-4.782 v -27.324 c 0,-2.047 0,-2.73 0.67,-3.414 1.37,0 2.74,-0.683 4.79,-0.683 V 940 h -17.08 v 0.684 0 0 h 0.69 v 0 c 1.36,0 2.73,0 3.41,0.683 0.68,0 1.37,1.367 1.37,3.414 v 17.762"
         style="fill:#231f20;fill-opacity:1;fill-rule:evenodd;stroke:none"
         id="path126" /><path
         d="m 1711.5,961.859 v 11.614 c 0,1.367 -0.68,2.047 -0.68,3.414 -0.69,0.683 -2.05,0.683 -4.1,0.683 v 1.368 h 16.39 v -1.368 c -2.05,0 -3.41,0 -4.09,-1.367 -1.37,-0.683 -2.06,-2.047 -2.06,-4.098 v -26.64 c 0,-2.051 0.69,-3.414 2.06,-4.098 0.68,0 2.04,-0.683 2.73,-0.683 h 0.68 v 0 0 0 h 7.52 c 2.73,0 4.78,1.367 6.14,2.73 1.37,2.051 2.73,4.102 4.1,6.149 0.69,0 0.69,0.683 0.69,1.367 0.67,0 0.67,0.683 1.36,1.367 h 1.37 L 1739.51,940 h -28.69 v 0 h -4.1 v 0.684 h 0.68 0.69 0.68 c 0,0 0,0 0.68,0 0.68,0 1.37,0.683 1.37,0.683 0,0.684 0.68,1.367 0.68,3.414 v 17.078"
         style="fill:#231f20;fill-opacity:1;fill-rule:evenodd;stroke:none"
         id="path128" /><path
         d="m 1768.88,962.543 v 15.027 h -8.2 c -1.36,0 -2.05,-0.683 -2.73,-0.683 -0.68,0 -1.36,0 -2.05,-0.684 -0.68,-0.683 -0.68,-0.683 -1.36,-1.363 0,-0.684 -0.69,-0.684 -0.69,-1.367 l -2.73,-4.782 -0.68,0.684 1.36,10.93 c 0.68,0 0.68,-0.684 1.37,-0.684 h 0.68 c 0.69,0 1.37,-0.683 2.05,-0.683 0.69,0 2.05,0 2.73,0 h 25.96 c 0.68,0 1.37,0 2.05,0 0.68,0 1.37,0.683 2.05,0.683 0,0 0.69,0 1.36,0 0,0.684 0.69,0.684 0.69,0.684 l 2.73,-10.93 -0.68,-0.684 -4.1,6.149 -0.68,0.68 v 0 c -0.69,0.683 -1.37,1.367 -2.05,1.367 -0.69,0 -1.37,0.683 -2.73,0.683 h -8.2 v -16.394 -16.395 c 0,-2.047 0,-2.73 0.68,-3.414 1.37,0 2.74,-0.683 4.78,-0.683 V 940 h -17.08 v 0.684 c 2.74,0 4.79,0.683 4.79,1.367 0.68,0.683 0.68,1.363 0.68,2.73 v 0 0.684 17.078"
         style="fill:#231f20;fill-opacity:1;fill-rule:evenodd;stroke:none"
         id="path130" /><path
         d="m 1805.09,965.273 v 8.883 c 0,1.364 0,2.731 -0.69,2.731 -0.68,0.683 -1.36,0.683 -2.05,0.683 h -0.68 c -0.69,0 -0.69,0 -0.69,0 v 1.368 h 28.7 v 0 h 0.68 l 2.73,-8.883 h -1.36 c 0,0 -0.69,0.683 -0.69,1.367 -0.68,0 -0.68,0.683 -0.68,0.683 -1.37,2.051 -2.73,3.415 -4.1,4.098 -1.37,1.367 -3.42,1.367 -6.15,1.367 h -8.88 v -17.078 h 4.79 0.68 c 0.68,0 1.36,0 1.36,0 1.37,0 2.74,0.684 3.42,2.051 1.36,0.684 2.05,2.73 2.73,5.465 h 0.68 v -16.395 h -0.68 c -0.68,2.731 -1.37,4.782 -2.73,5.465 -1.37,1.367 -3.42,2.047 -5.46,2.047 h -4.79 v -14.344 c 0,-1.367 0.68,-2.73 1.37,-2.73 0.68,-0.684 1.36,-1.367 2.73,-1.367 h 6.15 c 2.73,0 5.47,1.367 7.51,2.73 1.37,2.051 3.42,4.102 4.78,6.832 h 1.37 L 1832.41,940 h -28.69 v 0 h -2.74 v 0.684 c 1.37,0 2.74,0.683 3.42,1.367 0.69,0.683 0.69,1.363 0.69,2.73 v 20.492"
         style="fill:#231f20;fill-opacity:1;fill-rule:evenodd;stroke:none"
         id="path132" /><path
         d="m 1850.17,973.473 c 0,2.047 -0.69,3.414 -1.37,3.414 -0.68,0.683 -2.05,0.683 -2.73,0.683 v 1.368 h 16.39 0.69 0.68 c 2.73,0 6.15,-1.368 8.88,-2.735 2.05,-2.047 3.42,-4.781 3.42,-7.512 0,-3.418 -0.68,-6.148 -2.05,-7.515 -2.05,-1.367 -4.1,-2.731 -6.83,-3.414 0.68,-0.684 1.36,-2.051 2.73,-2.735 0.68,-1.367 2.05,-2.73 2.73,-3.414 0,-0.683 0.68,-1.367 0.68,-1.367 0.69,-0.683 0.69,-1.367 0.69,-1.367 0.68,0 0.68,-0.684 0.68,-0.684 0.69,-0.679 0.69,-0.679 0.69,-0.679 0.68,-0.684 0.68,-1.368 1.36,-2.051 0,-0.684 0.68,-1.367 0.68,-2.051 0.69,-0.68 1.37,-1.363 2.05,-2.047 0.69,0 1.37,-0.683 2.73,-0.683 v 0 c 0.69,0 0.69,0 0.69,0 V 940 h -9.57 c -0.68,0.684 -1.36,1.367 -2.05,2.051 0,1.363 -0.68,2.047 -1.36,2.73 0,0 -0.68,0.684 -0.68,1.367 l -0.69,0.684 c -0.68,0.684 -1.36,1.363 -1.36,2.047 -0.69,0.684 -1.37,1.367 -2.05,2.734 0,0 -0.68,0.684 -0.68,1.367 -0.69,0.68 -1.37,1.364 -1.37,1.364 -1.37,0.683 -2.05,1.367 -2.74,2.051 -1.36,0 -2.73,0.683 -4.78,0.683 v -12.297 c 0,-2.047 0.69,-2.73 1.37,-3.414 0.68,0 2.05,-0.683 4.1,-0.683 V 940 h -15.03 v 0.684 0 c 0.68,0 0.68,0 0.68,0 1.37,0 2.73,0.683 2.73,1.367 0,0 0.69,1.363 0.69,2.73 v 0 0.684 z m 5.46,-15.028 h 0.69 c 0.68,0 0.68,0 1.36,0 v 0 c 0.69,0 0.69,0 0.69,0 h 0.68 0.68 c 2.05,0 4.79,0.68 6.83,2.047 2.05,1.367 3.42,3.418 3.42,6.832 v 0.684 c 0,0.683 0,0.683 0,1.367 0,2.047 -1.37,3.414 -2.73,5.465 -0.69,2.047 -3.42,2.73 -7.52,2.73 -1.36,0 -2.05,0 -2.73,-0.683 -0.68,0 -1.37,-1.367 -1.37,-3.414 v -15.028"
         style="fill:#231f20;fill-opacity:1;fill-rule:evenodd;stroke:none"
         id="path134" /><path
         d="m 2343.17,1008.2 v 24.59 c 0,1.37 0,2.73 -0.69,3.41 0,0.69 -2.04,1.37 -4.09,1.37 v 1.37 h 12.29 v -1.37 c -2.05,0 -3.41,0 -4.09,-0.68 -0.69,-1.37 -1.37,-2.05 -1.37,-2.73 0,-0.69 0,-0.69 0,-0.69 0,-0.68 0,-0.68 0,-1.36 v -28.7 0 -3.41 h -1.37 l -27.32,28.01 v 0 l -3.42,4.1 v -28.01 c 0,-1.37 0.69,-2.05 1.37,-2.73 1.36,0 2.73,-0.69 4.1,-0.69 V 1000 h -12.3 v 0.68 c 0.68,0 0.68,0 0.68,0 0.69,0 0.69,0 0.69,0 1.37,0 2.05,0.69 2.73,0.69 0.68,0.68 1.37,1.36 1.37,2.73 v 29.37 0 0 c 0,0.69 -0.69,0.69 -0.69,0.69 0,0 0,0 -0.68,0.68 l -0.68,0.68 c -0.68,0.68 -1.37,1.37 -2.05,1.37 0,0 0,0.68 -0.69,0.68 h -0.68 v 1.37 h 8.88 l 26.64,-28.69 v 0 l 1.37,-2.05"
         style="fill:#231f20;fill-opacity:1;fill-rule:evenodd;stroke:none"
         id="path136" /><path
         d="m 2364.34,1023.91 v 10.93 c 0,0.68 -0.68,2.05 -1.36,2.05 0,0.68 -1.37,0.68 -3.42,0.68 v 1.37 h 29.38 v 0 0 l 2.73,-8.89 h -1.37 c 0,0 0,0.69 -0.68,1.37 0,0 0,0.69 -0.68,0.69 -0.69,1.36 -2.05,2.73 -3.42,4.09 -1.36,0.69 -4.1,1.37 -6.14,1.37 h -9.57 v -17.08 h 5.46 c 1.37,0 2.74,0.69 4.11,1.37 1.36,0.68 2.04,2.73 2.73,4.78 h 1.36 v -14.34 h -1.36 v 0 0.68 c -0.69,1.36 -0.69,2.73 -1.37,4.1 -0.69,1.37 -2.73,2.05 -5.47,2.05 h -5.46 v -12.98 c 0,-2.05 0,-3.42 0.68,-4.1 0.69,-0.68 2.05,-1.37 4.78,-1.37 V 1000 h -15.71 v 0.68 c 2.05,0 3.42,0.69 4.1,1.37 0,0 0.68,1.36 0.68,3.41 v 0.69 0.68 17.08"
         style="fill:#231f20;fill-opacity:1;fill-rule:evenodd;stroke:none"
         id="path138" /><path
         d="m 2126.63,965.16 v 0 c 0,0.684 0,0.684 0,0.684 0.68,4.101 2.05,8.199 5.46,11.613 2.73,3.418 7.52,5.465 13.66,6.148 v 0 h 0.69 0.68 c 0,0 0,-0.683 0.68,-0.683 4.1,0 8.2,-2.047 11.61,-5.465 4.11,-2.73 6.15,-7.512 6.15,-13.66 v 0 c 0,-0.684 0,-0.684 0,-0.684 0,-5.465 -1.36,-10.246 -4.78,-14.347 -3.41,-4.098 -8.19,-5.465 -14.34,-5.465 h -0.69 v 0 c -5.46,0 -10.24,1.367 -12.98,4.101 -2.73,3.414 -4.78,6.828 -5.46,10.246 -0.68,1.368 -0.68,2.047 -0.68,2.731 0,0.684 0,2.051 0,2.051 0,0.683 0,1.367 0,1.367 0,0 0,0.683 0,1.363 z m 32.78,-0.68 c 0,4.782 -1.36,8.196 -2.73,10.247 -1.36,2.73 -3.41,4.781 -5.46,5.464 -0.68,0.684 -2.05,1.364 -2.74,1.364 -1.36,0 -2.73,0.683 -2.73,0.683 -4.09,-0.683 -7.51,-2.73 -9.56,-6.148 -2.05,-4.098 -3.42,-8.879 -3.42,-13.66 v 0 0 c 0,-4.098 0.69,-8.879 2.74,-12.297 2.73,-4.098 6.15,-6.149 10.93,-6.149 3.41,0 6.15,1.368 8.19,4.102 2.05,2.73 3.42,6.144 4.78,8.879 0,1.367 0,2.051 0,2.73 0,0.684 0,2.051 0,2.735 v 0.683 c 0,0.684 0,0.684 0,1.367"
         style="fill:#231f20;fill-opacity:1;fill-rule:evenodd;stroke:none"
         id="path140" /><path
         d="m 2180.59,968.578 v 6.832 c 0,2.047 -0.68,3.414 -1.36,4.098 -1.37,0.683 -2.05,1.367 -2.74,1.367 h -0.68 -0.68 v 1.363 h 15.71 v -1.363 c -2.05,0 -3.42,0 -4.1,-0.684 -0.69,-1.367 -0.69,-2.734 -0.69,-4.781 v -25.277 c 0,-4.781 -0.68,-7.512 -2.04,-10.246 -0.69,-2.731 -2.74,-4.782 -4.78,-5.465 -0.69,0 -1.37,0 -2.05,0 -0.69,0 -1.37,0 -1.37,0 -0.68,0 -1.36,0 -2.05,0 -0.68,0 -1.37,0.683 -1.37,1.367 -0.68,0 -0.68,0.684 -0.68,0.684 0,0.683 0,0.683 0,1.367 v 0 0 c 0,0.68 0,1.363 0,2.047 0.68,0.683 1.37,1.367 2.05,1.367 0.69,0 1.37,-0.684 2.05,-0.684 0,-0.683 0.68,-1.367 0.68,-2.05 v 0 0 c 0,-0.68 0.69,-0.68 0.69,-1.364 l 0.68,-0.683 c 1.37,-0.684 1.37,-0.684 2.05,0 0,0.683 0.68,2.047 0.68,3.414 v 28.691 0"
         style="fill:#231f20;fill-opacity:1;fill-rule:evenodd;stroke:none"
         id="path142" /><path
         d="m 2213.38,977.457 -1.36,1.367 v 0 0 c 1.36,0.684 2.04,1.367 2.73,2.051 0.68,1.363 1.36,2.047 2.05,2.73 l 11.61,-28.691 v 0 l 2.73,-6.828 v 0 -0.684 c 0.68,-0.683 0.68,-1.367 1.37,-2.05 0.68,0 1.37,-0.684 2.73,-1.368 v -0.683 h -15.03 v 0.683 c 1.37,0 2.74,0.684 3.42,0.684 1.36,0 1.36,0.684 1.36,1.367 0,0.684 0,0.684 0,1.367 0,0 0,0.684 -0.68,1.364 l -3.42,9.566 h -12.98 l -4.09,-10.246 v -0.684 -0.683 c 0,-0.684 0,-1.367 0.68,-1.367 0.68,-0.684 2.05,-1.368 4.1,-1.368 v -0.683 h -10.93 v 0.683 c 1.37,0.684 2.05,1.368 2.73,1.368 0.69,0.683 0.69,1.367 1.37,2.05 0,0.684 0,0.684 0,1.364 0.68,0 0.68,0.683 0.68,0.683 z m 0.68,-2.047 -5.46,-15.715 h 11.61 z"
         style="fill:#231f20;fill-opacity:1;fill-rule:evenodd;stroke:none"
         id="path144" /><path
         d="m 2274.86,967.211 c 0,4.098 -1.37,6.832 -2.73,8.879 -1.37,2.051 -3.42,3.418 -5.47,4.101 -0.68,0.684 -2.05,0.684 -2.73,0.684 -1.37,0.68 -2.73,0.68 -2.73,0.68 -4.79,-0.68 -8.2,-2.731 -10.25,-6.145 -2.05,-4.101 -3.41,-8.199 -3.41,-12.98 v 0 -0.684 c 0,-4.781 1.36,-8.879 3.41,-12.297 2.73,-4.097 6.15,-6.148 10.93,-6.148 3.42,0 6.83,1.367 8.88,3.418 2.73,2.73 4.1,6.148 4.78,10.246 h 1.37 v -13.664 h -1.37 l -1.36,3.418 c -0.69,-0.684 -2.05,-1.367 -3.42,-2.051 -0.68,-0.684 -2.05,-1.367 -3.42,-1.367 -0.68,0 -2.04,0 -3.41,0 -0.68,-0.68 -2.05,-0.68 -2.73,-0.68 -5.47,0 -10.25,1.363 -14.35,4.781 -4.1,3.414 -6.15,8.879 -6.15,15.028 0,0 0,1.367 0,2.05 0,0.68 0.69,1.364 0.69,2.047 0.68,4.098 2.73,7.516 5.46,10.93 3.42,3.418 7.52,4.781 12.98,5.465 2.05,0 4.1,0 5.47,-0.684 2.04,0 4.09,-0.683 5.46,-2.047 0.69,0 1.37,-0.683 1.37,-0.683 0.68,-0.684 1.36,-0.684 1.36,-1.367 l 1.37,2.734 h 1.37 v -13.664 z m -12.98,18.445 h -3.42 l -6.83,9.563 h 2.05 l 6.84,-6.149 6.82,6.149 h 2.05 l -7.51,-9.563"
         style="fill:#231f20;fill-opacity:1;fill-rule:evenodd;stroke:none"
         id="path146" /><path
         d="m 2291.94,968.578 v 8.879 c 0,1.367 0,2.734 -0.69,2.734 -0.68,0.684 -1.36,0.684 -2.05,0.684 h -0.68 c -0.68,0 -0.68,0 -0.68,0 v 1.363 h 28.69 v 0 h 0.68 l 2.74,-8.879 h -1.37 c 0,0 -0.69,0.684 -0.69,1.368 -0.68,0 -0.68,0.683 -0.68,0.683 -1.37,2.047 -2.73,3.414 -4.1,4.098 -1.36,1.367 -3.41,1.367 -6.15,1.367 h -8.87 v -17.078 h 4.78 0.68 c 0.68,0 1.36,0 1.36,0 1.37,0 2.74,0.683 3.42,2.047 1.37,0.683 2.05,2.734 2.73,5.465 h 0.69 v -16.395 h -0.69 c -0.68,2.734 -1.36,4.781 -2.73,5.465 -1.37,1.367 -3.42,2.051 -5.46,2.051 h -4.78 v -14.344 c 0,-1.367 0.68,-2.734 1.36,-2.734 0.68,-0.684 1.37,-1.368 2.73,-1.368 h 6.15 c 2.73,0 5.47,1.368 7.51,2.735 1.37,2.047 3.42,4.097 4.79,6.832 h 1.36 l -2.73,-10.25 h -28.69 v 0 h -2.73 v 0.683 c 1.36,0 2.73,0.684 3.41,1.368 0.69,0.683 0.69,1.367 0.69,2.734 v 20.492"
         style="fill:#231f20;fill-opacity:1;fill-rule:evenodd;stroke:none"
         id="path148" /><path
         d="m 2350,950.816 10.25,25.957 v 0.684 c 0,0.684 0,0.684 0,1.367 0,0.684 0,1.367 -1.37,2.051 -0.68,0 -2.05,0 -4.1,0 v 1.363 h 11.61 v -1.363 c -0.68,0 -2.05,0 -2.73,-1.367 -0.68,-0.684 -1.36,-2.051 -2.05,-3.418 v 0 -0.68 l -10.93,-28.691 v 0 l -2.05,-4.098 h -1.36 l -11.61,28.688 -2.05,4.781 c 0,0.683 -0.69,1.367 -0.69,1.367 0,0.684 0,0.684 -0.68,1.367 0,0.684 -0.69,1.367 -0.69,1.367 -0.67,0.684 -1.36,0.684 -2.04,0.684 v 1.363 h 15.03 v -1.363 c -0.69,0 -0.69,0 -1.37,0 h -0.69 c -0.68,0 -2.04,0 -2.73,-0.684 0,0 -0.68,-0.683 -0.68,-1.367 v -0.683 c 0,-0.684 0,-0.684 0.68,-1.368 L 2350,950.816"
         style="fill:#231f20;fill-opacity:1;fill-rule:evenodd;stroke:none"
         id="path150" /><path
         d="m 2386.89,977.457 -1.37,1.367 v 0 0 c 1.37,0.684 2.05,1.367 2.73,2.051 0.69,1.363 1.37,2.047 2.05,2.73 l 11.61,-28.691 v 0 l 2.74,-6.828 v 0 -0.684 c 0.68,-0.683 0.68,-1.367 1.37,-2.05 0.68,0 1.36,-0.684 2.73,-1.368 v -0.683 h -15.03 v 0.683 c 1.37,0 2.73,0.684 3.41,0.684 1.37,0 1.37,0.684 1.37,1.367 0,0.684 0,0.684 0,1.367 0,0 0,0.684 -0.68,1.364 l -3.42,9.566 h -12.98 l -4.1,-10.246 v -0.684 -0.683 c 0,-0.684 0,-1.367 0.69,-1.367 0.68,-0.684 2.04,-1.368 4.1,-1.368 v -0.683 h -10.93 v 0.683 c 1.36,0.684 2.05,1.368 2.73,1.368 0.68,0.683 0.68,1.367 1.36,2.05 0,0.684 0,0.684 0,1.364 0.69,0 0.69,0.683 0.69,0.683 z m 0.68,-2.047 -5.46,-15.715 h 11.61 z"
         style="fill:#231f20;fill-opacity:1;fill-rule:evenodd;stroke:none"
         id="path152" /><path
         d="m 2419.68,965.16 v 11.613 c 0,1.368 -0.69,2.051 -0.69,3.418 -0.68,0.684 -2.04,0.684 -4.1,0.684 v 1.363 h 16.4 v -1.363 c -2.05,0 -3.41,0 -4.1,-1.367 -1.37,-0.684 -2.05,-2.051 -2.05,-4.098 v -26.644 c 0,-2.047 0.68,-3.414 2.05,-4.098 0.69,0 2.05,-0.684 2.73,-0.684 h 0.69 v 0 0 0 h 7.51 c 2.73,0 4.78,1.368 6.15,2.735 1.36,2.047 2.73,4.097 4.1,6.148 0.68,0 0.68,0.684 0.68,1.363 0.68,0 0.68,0.684 1.36,1.368 h 1.37 l -4.1,-12.297 h -28.69 v 0 h -4.1 v 0.683 h 0.69 0.68 0.69 c 0,0 0,0 0.68,0 0.68,0 1.36,0.684 1.36,0.684 0,0.684 0.69,1.367 0.69,3.418 v 17.074"
         style="fill:#231f20;fill-opacity:1;fill-rule:evenodd;stroke:none"
         id="path154" /><path
         d="m 2495.5,951.5 v 24.59 c 0,1.367 0,2.734 -0.68,3.418 0,0.683 -2.05,1.367 -4.1,1.367 v 1.363 h 12.3 v -1.363 c -2.06,0 -3.42,0 -4.11,-0.684 -0.68,-1.367 -1.36,-2.05 -1.36,-2.734 0,-0.684 0,-0.684 0,-0.684 0,-0.683 0,-0.683 0,-1.363 v -28.691 0 -3.418 h -1.37 l -27.32,28.008 v 0 l -3.41,4.101 v -28.008 c 0,-1.367 0.68,-2.05 1.36,-2.734 1.37,0 2.73,-0.684 4.1,-0.684 v -0.683 h -12.3 v 0.683 c 0.69,0 0.69,0 0.69,0 0.68,0 0.68,0 0.68,0 1.36,0 2.05,0.684 2.73,0.684 0.68,0.684 1.37,1.367 1.37,2.734 v 29.371 0 0 c 0,0.684 -0.69,0.684 -0.69,0.684 0,0 0,0 -0.68,0.684 l -0.68,0.683 c -0.69,0.684 -1.37,1.367 -2.05,1.367 0,0 0,0.684 -0.68,0.684 h -0.69 v 1.363 h 8.88 l 26.64,-28.687 v 0 l 1.37,-2.051"
         style="fill:#231f20;fill-opacity:1;fill-rule:evenodd;stroke:none"
         id="path156" /><path
         d="m 2516.68,965.844 v 9.566 c 0,2.047 0,3.414 -0.69,4.781 -0.68,0.684 -2.04,0.684 -4.78,0.684 v 1.363 h 17.08 v -1.363 c -2.05,0 -3.41,0 -4.78,-0.684 -0.69,-0.683 -0.69,-2.05 -0.69,-4.781 v -27.324 c 0,-2.051 0,-2.734 0.69,-3.418 1.37,0 2.73,-0.684 4.78,-0.684 v -0.683 h -17.08 v 0.683 0 0 h 0.68 v 0 c 1.37,0 2.74,0 3.42,0.684 0.68,0 1.37,1.367 1.37,3.418 v 17.758"
         style="fill:#231f20;fill-opacity:1;fill-rule:evenodd;stroke:none"
         id="path158" /><path
         d="m 2548.1,961.746 13.66,14.344 c 0.69,0 0.69,0.683 0.69,1.367 0.68,0 0.68,0.684 0.68,0.684 v 0 0.683 c 0,0 -0.68,0.684 -1.37,1.367 -0.68,0 -2.05,0.684 -3.42,0.684 v 1.363 h 14.35 v -1.363 c -1.37,0 -2.73,-0.684 -4.1,-0.684 -0.68,-0.683 -2.05,-1.367 -2.73,-2.05 0,-0.684 -0.68,-0.684 -0.68,-1.368 -0.69,0 -0.69,-0.683 -1.37,-1.363 l -9.56,-10.25 14.34,-17.074 c 0,-0.684 0.68,-1.367 0.68,-2.051 0.69,0 0.69,-0.683 1.37,-0.683 0.68,-0.684 1.37,-0.684 1.37,-0.684 0.68,0 2.05,-0.684 2.73,-0.684 v -0.683 h -9.56 l -15.03,17.762 -2.05,-1.368 v -12.976 0 -0.684 c 0,0 0.68,-0.683 1.36,-1.367 0.69,0 1.37,-0.684 2.74,-0.684 v 0 c 0.68,0 0.68,0 0.68,0 v -0.683 h -14.34 v 0.683 c 0.68,0 2.05,0.684 2.73,0.684 0.68,0.684 1.36,1.367 1.36,3.418 v 27.324 c 0,2.047 -0.68,3.414 -1.36,4.781 -0.68,0.684 -1.37,0.684 -3.42,0.684 v 1.363 h 15.03 v -1.363 c -1.36,0 -2.73,0 -3.42,-0.684 -0.68,-0.683 -1.36,-2.05 -1.36,-3.418 v -15.027"
         style="fill:#231f20;fill-opacity:1;fill-rule:evenodd;stroke:none"
         id="path160" /><path
         d="m 2757,840.199 h 54 V 625 h -54 z"
         style="fill:none;stroke:#231f20;stroke-width:8.6;stroke-linecap:butt;stroke-linejoin:miter;stroke-miterlimit:11.4737;stroke-dasharray:none;stroke-opacity:1"
         id="path162" /><path
         d="m 2811,840.199 80.7,81.403 V 544.301 L 2811,625"
         style="fill:none;stroke:#231f20;stroke-width:8.6;stroke-linecap:butt;stroke-linejoin:miter;stroke-miterlimit:11.4737;stroke-dasharray:none;stroke-opacity:1"
         id="path164" /><path
         d="m 2273.2,814.301 v -162 l 160.6,81.398 z"
         style="fill:none;stroke:#231f20;stroke-width:8.6;stroke-linecap:butt;stroke-linejoin:miter;stroke-miterlimit:11.4737;stroke-dasharray:none;stroke-opacity:1"
         id="path166" /></g></g></svg>
