<?xml version="1.0" encoding="UTF-8" standalone="no"?>
<!-- Created with Inkscape (http://www.inkscape.org/) -->

<svg
   version="1.1"
   id="svg2"
   xml:space="preserve"
   width="266.66666"
   height="266.66666"
   viewBox="0 0 266.66666 266.66666"
   xmlns="http://www.w3.org/2000/svg"
   xmlns:svg="http://www.w3.org/2000/svg"><defs
     id="defs6" /><g
     id="g8"
     transform="matrix(1.3333333,0,0,-1.3333333,0,266.66667)"><g
       id="g10"
       transform="scale(0.1)"><path
         d="M 2.80078,1994.9 H 1991.4 V 9.80078 H 2.80078 Z"
         style="fill:none;stroke:#231f20;stroke-width:11.5;stroke-linecap:butt;stroke-linejoin:miter;stroke-miterlimit:11.4737;stroke-dasharray:none;stroke-opacity:1"
         id="path12" /><path
         d="m 1002.9,834.199 c 90,0 164.1,74.199 164.1,163.5 0,90.001 -74.1,164.101 -164.1,164.101 -89.298,0 -163.502,-74.1 -163.502,-164.101 0,-89.301 74.204,-163.5 163.502,-163.5 z"
         style="fill:none;stroke:#231f20;stroke-width:2.2;stroke-linecap:butt;stroke-linejoin:miter;stroke-miterlimit:11.4737;stroke-dasharray:none;stroke-opacity:1"
         id="path14" /><path
         d="m 1003.6,670.801 c 180,0 328.3,147.597 328.3,327.597 0,180.002 -148.3,328.302 -328.3,328.302 -179.998,0 -327.6,-148.3 -327.6,-328.302 0,-180 147.602,-327.597 327.6,-327.597 z"
         style="fill:none;stroke:#231f20;stroke-width:2.2;stroke-linecap:butt;stroke-linejoin:miter;stroke-miterlimit:11.4737;stroke-dasharray:none;stroke-opacity:1"
         id="path16" /><path
         d="m 1003.6,505.898 c 270.7,0 492.5,221.102 492.5,492.5 0,270.702 -221.8,492.502 -492.5,492.502 -271.401,0 -492.498,-221.8 -492.498,-492.502 0,-271.398 221.097,-492.5 492.498,-492.5 z"
         style="fill:none;stroke:#231f20;stroke-width:2.2;stroke-linecap:butt;stroke-linejoin:miter;stroke-miterlimit:11.4737;stroke-dasharray:none;stroke-opacity:1"
         id="path18" /><path
         d="m 1003.6,341.801 c 361.4,0 656.6,295.199 656.6,656.597 C 1660.2,1359.8 1365,1655 1003.6,1655 642.199,1655 347,1359.8 347,998.398 347,637 642.199,341.801 1003.6,341.801 Z"
         style="fill:none;stroke:#231f20;stroke-width:2.2;stroke-linecap:butt;stroke-linejoin:miter;stroke-miterlimit:11.4737;stroke-dasharray:none;stroke-opacity:1"
         id="path20" /><path
         d="m 1002.9,178.301 c 452.1,0 820.8,368.699 820.8,820.097 0,452.202 -368.7,820.802 -820.8,820.802 -451.502,0 -820.099,-368.6 -820.099,-820.802 0,-451.398 368.597,-820.097 820.099,-820.097 z"
         style="fill:none;stroke:#231f20;stroke-width:2.2;stroke-linecap:butt;stroke-linejoin:miter;stroke-miterlimit:11.4737;stroke-dasharray:none;stroke-opacity:1"
         id="path22" /><path
         d="M 1003.6,1819.2 V 1162.6"
         style="fill:none;stroke:#231f20;stroke-width:2.2;stroke-linecap:butt;stroke-linejoin:miter;stroke-miterlimit:11.4737;stroke-dasharray:none;stroke-opacity:1"
         id="path24" /><path
         d="m 1167.8,999.102 h 656.6"
         style="fill:none;stroke:#231f20;stroke-width:2.2;stroke-linecap:butt;stroke-linejoin:miter;stroke-miterlimit:11.4737;stroke-dasharray:none;stroke-opacity:1"
         id="path26" /><path
         d="M 182.801,999.102 H 839.398"
         style="fill:none;stroke:#231f20;stroke-width:2.2;stroke-linecap:butt;stroke-linejoin:miter;stroke-miterlimit:11.4737;stroke-dasharray:none;stroke-opacity:1"
         id="path28" /><path
         d="M 1003.6,834.199 V 178.301"
         style="fill:none;stroke:#231f20;stroke-width:2.2;stroke-linecap:butt;stroke-linejoin:miter;stroke-miterlimit:11.4737;stroke-dasharray:none;stroke-opacity:1"
         id="path30" /><path
         d="M 1084.2,858 1414.7,287"
         style="fill:none;stroke:#231f20;stroke-width:2.2;stroke-linecap:butt;stroke-linejoin:miter;stroke-miterlimit:11.4737;stroke-dasharray:none;stroke-opacity:1"
         id="path32" /><path
         d="M 923,1139.5 594.602,1711.2"
         style="fill:none;stroke:#231f20;stroke-width:2.2;stroke-linecap:butt;stroke-linejoin:miter;stroke-miterlimit:11.4737;stroke-dasharray:none;stroke-opacity:1"
         id="path34" /><path
         d="M 1712.8,1411 1143.3,1082.6"
         style="fill:none;stroke:#231f20;stroke-width:2.2;stroke-linecap:butt;stroke-linejoin:miter;stroke-miterlimit:11.4737;stroke-dasharray:none;stroke-opacity:1"
         id="path36" /><path
         d="M 921.5,858 592.5,289.199"
         style="fill:none;stroke:#231f20;stroke-width:2.2;stroke-linecap:butt;stroke-linejoin:miter;stroke-miterlimit:11.4737;stroke-dasharray:none;stroke-opacity:1"
         id="path38" /><path
         d="M 1146.9,917.801 1717.8,589.398"
         style="fill:none;stroke:#231f20;stroke-width:2.2;stroke-linecap:butt;stroke-linejoin:miter;stroke-miterlimit:11.4737;stroke-dasharray:none;stroke-opacity:1"
         id="path40" /><path
         d="m 861,1079.8 -568.801,329"
         style="fill:none;stroke:#231f20;stroke-width:2.2;stroke-linecap:butt;stroke-linejoin:miter;stroke-miterlimit:11.4737;stroke-dasharray:none;stroke-opacity:1"
         id="path42" /><path
         d="M 1413.3,1710.5 1087.1,1138.8"
         style="fill:none;stroke:#231f20;stroke-width:2.2;stroke-linecap:butt;stroke-linejoin:miter;stroke-miterlimit:11.4737;stroke-dasharray:none;stroke-opacity:1"
         id="path44" /><path
         d="M 865.398,914.898 295.801,588"
         style="fill:none;stroke:#231f20;stroke-width:2.2;stroke-linecap:butt;stroke-linejoin:miter;stroke-miterlimit:11.4737;stroke-dasharray:none;stroke-opacity:1"
         id="path46" /><path
         d="m 1428.4,588.699 c 96.5,3.602 190.8,35.301 258.5,95.102 40.3,36.699 76.3,80.597 100.1,128.097 56.8,123.102 46.8,288.702 -15.9,403.202 -49.7,72 -116.6,133.2 -183.6,159.1 -129.6,59.8 -285.8,41.8 -396,-36.7 -48.9,-33.8 -90.7,-76.3 -128.9,-125.3 -33.1,-50.4 -63.299,-98.6 -64.799,-165.6 -1.403,0.8 -2.801,0.8 -5.699,0 -2.903,56.2 -28.102,110.9 -66.301,134.7 -21.602,10.1 -43.199,5 -61.199,-3.6 -23,-26.7 -19.403,-69.1 -10.801,-100.8 1.5,-15.1 9.398,-23.1 7.199,-36 -18,-20.9 -42.398,-38.9 -36.699,-74.9 7.898,-25.898 25.898,-33.102 41.801,-54 -0.704,-41 -18.704,-89.301 5.699,-125.301 C 888.398,765.102 915,765.102 935.199,773 c 31.699,21.602 50.403,59.102 58.301,104.398 1.5,15.204 4.301,23.801 2.898,36 0,5.801 5.002,8.004 7.902,5.102 10.1,-86.398 64.8,-144 112.3,-198.699 85,-74.199 188.7,-135.403 311.8,-131.102 z"
         style="fill:none;stroke:#231f20;stroke-width:17.3;stroke-linecap:square;stroke-linejoin:miter;stroke-miterlimit:11.4737;stroke-dasharray:none;stroke-opacity:1"
         id="path48" /><path
         d="M 1000,925.699 995.699,1040.9"
         style="fill:none;stroke:#231f20;stroke-width:17.3;stroke-linecap:square;stroke-linejoin:miter;stroke-miterlimit:11.4737;stroke-dasharray:none;stroke-opacity:1"
         id="path50" /></g></g></svg>
