<?xml version="1.0" encoding="UTF-8" standalone="no"?>
<!-- Created with Inkscape (http://www.inkscape.org/) -->

<svg
   version="1.1"
   id="svg2"
   xml:space="preserve"
   width="212"
   height="176"
   viewBox="0 0 212 176"
   xmlns="http://www.w3.org/2000/svg"
   xmlns:svg="http://www.w3.org/2000/svg"><defs
     id="defs6" /><g
     id="g8"
     transform="matrix(1.3333333,0,0,-1.3333333,0,176)"><g
       id="g10"
       transform="scale(0.1)"><path
         d="m 943.602,880.699 c -0.704,22.301 -18,39.602 -39.602,39.602 -21.602,0 -39.602,-18 -40.301,-39.602 0,22.301 -18,39.602 -39.597,39.602 -21.602,0 -39.602,-18 -39.602,-39.602 0,22.301 -18,39.602 -39.602,39.602 -21.597,0 -38.898,-18 -39.597,-40.301 -0.699,22.301 -18,39.602 -39.602,39.602 -22.301,0 -39.597,-17.301 -40.301,-39.602"
         style="fill:none;stroke:#231f20;stroke-width:14.4;stroke-linecap:butt;stroke-linejoin:miter;stroke-miterlimit:11.4737;stroke-dasharray:none;stroke-opacity:1"
         id="path12" /><path
         d="m 566.301,603.5 h -198"
         style="fill:none;stroke:#231f20;stroke-width:14.4;stroke-linecap:butt;stroke-linejoin:miter;stroke-miterlimit:11.4737;stroke-dasharray:none;stroke-opacity:1"
         id="path14" /><path
         d="m 566.301,643.102 h -198"
         style="fill:none;stroke:#231f20;stroke-width:14.4;stroke-linecap:butt;stroke-linejoin:miter;stroke-miterlimit:11.4737;stroke-dasharray:none;stroke-opacity:1"
         id="path16" /><path
         d="m 1201.4,601.402 h -198"
         style="fill:none;stroke:#231f20;stroke-width:14.4;stroke-linecap:butt;stroke-linejoin:miter;stroke-miterlimit:11.4737;stroke-dasharray:none;stroke-opacity:1"
         id="path18" /><path
         d="m 1201.4,641.699 h -198"
         style="fill:none;stroke:#231f20;stroke-width:14.4;stroke-linecap:butt;stroke-linejoin:miter;stroke-miterlimit:11.4737;stroke-dasharray:none;stroke-opacity:1"
         id="path20" /><path
         d="m 248.801,385.398 c 10.097,0 19.398,-9.398 19.398,-20.199 0,-10.801 -9.301,-20.199 -19.398,-20.199 -10.801,0 -20.199,9.398 -20.199,20.199 0,10.801 9.398,20.199 20.199,20.199"
         style="fill:#ffffff;fill-opacity:1;fill-rule:evenodd;stroke:none"
         id="path22" /><path
         d="m 248.801,385.398 c 10.097,0 19.398,-9.398 19.398,-20.199 0,-10.801 -9.301,-20.199 -19.398,-20.199 -10.801,0 -20.199,9.398 -20.199,20.199 0,10.801 9.398,20.199 20.199,20.199 z"
         style="fill:none;stroke:#231f20;stroke-width:11.5;stroke-linecap:butt;stroke-linejoin:miter;stroke-miterlimit:11.4737;stroke-dasharray:none;stroke-opacity:1"
         id="path24" /><path
         d="m 248.801,900.898 c 10.097,0 19.398,-8.699 19.398,-20.199 0,-10.801 -9.301,-20.097 -19.398,-20.097 -10.801,0 -20.199,9.296 -20.199,20.097 0,11.5 9.398,20.199 20.199,20.199"
         style="fill:#ffffff;fill-opacity:1;fill-rule:evenodd;stroke:none"
         id="path26" /><path
         d="m 248.801,900.898 c 10.097,0 19.398,-8.699 19.398,-20.199 0,-10.801 -9.301,-20.097 -19.398,-20.097 -10.801,0 -20.199,9.296 -20.199,20.097 0,11.5 9.398,20.199 20.199,20.199 z"
         style="fill:none;stroke:#231f20;stroke-width:11.5;stroke-linecap:butt;stroke-linejoin:miter;stroke-miterlimit:11.4737;stroke-dasharray:none;stroke-opacity:1"
         id="path28" /><path
         d="m 752.09,987.785 v 19.645 c 0,2.52 -0.504,4.54 -1.512,6.05 -1.008,1.01 -3.019,2.01 -6.547,2.01 v 2.52 h 28.211 v -2.52 c -3.527,0 -6.043,-1 -7.554,-2.51 -1.512,-1.52 -3.024,-4.54 -3.024,-7.56 v -45.85 c 0,-3.523 1.512,-6.043 3.024,-6.547 1.511,-0.503 3.523,-1.007 5.539,-1.007 h 0.503 0.504 v 0 0 h 13.102 c 4.027,0 7.051,1.511 10.074,4.535 2.52,3.019 5.039,6.547 7.559,10.074 0.504,0.504 1.008,1.512 1.008,2.016 0.503,1.007 1.007,2.015 1.511,2.519 h 2.516 L 800.961,950 h -50.383 v 0 h -6.547 v 2.016 c 0.504,0 1.008,0 1.008,0 0.504,0 1.008,0 1.008,0 0.504,0 1.008,0 1.008,0 0.504,0 1.008,0 1.008,0 1.507,0 2.515,0.504 3.019,1.007 0.504,0.504 1.008,2.52 1.008,5.04 v 29.722"
         style="fill:#231f20;fill-opacity:1;fill-rule:evenodd;stroke:none"
         id="path30" /><path
         d="m 561.465,721.816 c 0,6.547 -2.016,12.09 -4.535,15.114 -2.52,3.527 -6.047,6.047 -9.071,7.054 -1.507,0.504 -4.027,1.508 -5.539,1.508 -2.015,0.504 -3.527,0.504 -4.535,0.504 -7.558,-0.504 -13.601,-4.027 -17.633,-10.578 -3.527,-6.551 -6.047,-14.105 -6.047,-21.664 v -0.504 c 0,-0.504 0,-1.008 0,-1.008 0,-8.058 2.52,-15.617 6.047,-21.664 4.536,-6.547 10.578,-10.074 19.145,-10.074 6.047,0 11.082,2.016 15.617,6.047 4.031,4.531 7.055,10.074 7.559,17.129 h 2.015 v -23.176 h -2.015 l -2.52,5.039 c -1.512,-1.008 -3.023,-2.016 -5.039,-3.023 -1.512,-0.504 -4.031,-1.512 -6.047,-2.016 -1.512,-0.504 -3.523,-1.008 -5.539,-1.512 -2.015,0 -3.527,-0.504 -5.039,-0.504 -10.078,0 -18.641,3.024 -25.191,9.071 -7.051,6.043 -10.578,15.113 -10.578,25.187 0,1.008 0.503,2.52 0.503,3.527 0,1.512 0.504,3.024 0.504,4.032 1.512,7.05 5.039,13.097 10.075,18.64 5.039,5.543 12.597,9.067 21.664,9.571 3.527,0 7.054,0 10.078,-0.504 3.019,-1.008 6.547,-2.016 9.57,-4.028 0.504,-0.504 1.512,-1.007 2.016,-1.511 0.504,-0.504 1.511,-1.008 2.015,-1.512 l 2.52,4.531 h 2.519 v -23.676 h -2.519"
         style="fill:#231f20;fill-opacity:1;fill-rule:evenodd;stroke:none"
         id="path32" /><path
         d="m 1201.46,721.816 c 0,6.547 -2.01,12.09 -4.53,15.114 -2.52,3.527 -6.05,6.047 -9.07,7.054 -1.51,0.504 -4.03,1.508 -5.54,1.508 -2.02,0.504 -3.53,0.504 -4.53,0.504 -7.56,-0.504 -13.61,-4.027 -17.64,-10.578 -3.52,-6.551 -6.04,-14.105 -6.04,-21.664 v -0.504 c 0,-0.504 0,-1.008 0,-1.008 0,-8.058 2.52,-15.617 6.04,-21.664 4.54,-6.547 10.58,-10.074 19.15,-10.074 6.04,0 11.08,2.016 15.61,6.047 4.04,4.531 7.06,10.074 7.56,17.129 h 2.02 v -23.176 h -2.02 l -2.52,5.039 c -1.51,-1.008 -3.02,-2.016 -5.04,-3.023 -1.51,-0.504 -4.03,-1.512 -6.04,-2.016 -1.51,-0.504 -3.53,-1.008 -5.54,-1.512 -2.02,0 -3.53,-0.504 -5.04,-0.504 -10.08,0 -18.64,3.024 -25.19,9.071 -7.05,6.043 -10.58,15.113 -10.58,25.187 0,1.008 0.5,2.52 0.5,3.527 0,1.512 0.51,3.024 0.51,4.032 1.51,7.05 5.04,13.097 10.07,18.64 5.04,5.543 12.6,9.067 21.67,9.571 3.52,0 7.05,0 10.07,-0.504 3.02,-1.008 6.55,-2.016 9.57,-4.028 0.51,-0.504 1.52,-1.007 2.02,-1.511 0.5,-0.504 1.51,-1.008 2.02,-1.512 l 2.51,4.531 h 2.52 v -23.676 h -2.52"
         style="fill:#231f20;fill-opacity:1;fill-rule:evenodd;stroke:none"
         id="path34" /><path
         d="m 467,892.199 c 5,0 10,-4.301 10,-10 0,-5.097 -5,-10.097 -10,-10.097 -5.102,0 -9.398,5 -9.398,10.097 0,5.699 4.296,10 9.398,10"
         style="fill:#231f20;fill-opacity:1;fill-rule:evenodd;stroke:none"
         id="path36" /><path
         d="m 467,892.199 c 5,0 10,-4.301 10,-10 0,-5.097 -5,-10.097 -10,-10.097 -5.102,0 -9.398,5 -9.398,10.097 0,5.699 4.296,10 9.398,10 z"
         style="fill:none;stroke:#231f20;stroke-width:5.8;stroke-linecap:butt;stroke-linejoin:miter;stroke-miterlimit:11.4737;stroke-dasharray:none;stroke-opacity:1"
         id="path38" /><path
         d="m 1104.2,376.699 c 5,0 10,-4.301 10,-10.097 0,-5.704 -5,-10 -10,-10 -5.1,0 -9.4,4.296 -9.4,10 0,5.796 4.3,10.097 9.4,10.097"
         style="fill:#231f20;fill-opacity:1;fill-rule:evenodd;stroke:none"
         id="path40" /><path
         d="m 1104.2,376.699 c 5,0 10,-4.301 10,-10.097 0,-5.704 -5,-10 -10,-10 -5.1,0 -9.4,4.296 -9.4,10 0,5.796 4.3,10.097 9.4,10.097 z"
         style="fill:none;stroke:#231f20;stroke-width:5.8;stroke-linecap:butt;stroke-linejoin:miter;stroke-miterlimit:11.4737;stroke-dasharray:none;stroke-opacity:1"
         id="path42" /><path
         d="m 1103.4,891.5 c 5.1,0 9.4,-4.301 9.4,-10.098 0,-5.703 -4.3,-10 -9.4,-10 -5,0 -9.3,4.297 -9.3,10 0,5.797 4.3,10.098 9.3,10.098"
         style="fill:#231f20;fill-opacity:1;fill-rule:evenodd;stroke:none"
         id="path44" /><path
         d="m 1103.4,891.5 c 5.1,0 9.4,-4.301 9.4,-10.098 0,-5.703 -4.3,-10 -9.4,-10 -5,0 -9.3,4.297 -9.3,10 0,5.797 4.3,10.098 9.3,10.098 z"
         style="fill:none;stroke:#231f20;stroke-width:5.8;stroke-linecap:butt;stroke-linejoin:miter;stroke-miterlimit:11.4737;stroke-dasharray:none;stroke-opacity:1"
         id="path46" /><path
         d="m 465.5,378.199 c 5.102,0 9.398,-5.097 9.398,-10.097 0,-5.801 -4.296,-10.102 -9.398,-10.102 -5,0 -10.102,4.301 -10.102,10.102 0,5 5.102,10.097 10.102,10.097"
         style="fill:#231f20;fill-opacity:1;fill-rule:evenodd;stroke:none"
         id="path48" /><path
         d="m 465.5,378.199 c 5.102,0 9.398,-5.097 9.398,-10.097 0,-5.801 -4.296,-10.102 -9.398,-10.102 -5,0 -10.102,4.301 -10.102,10.102 0,5 5.102,10.097 10.102,10.097 z"
         style="fill:none;stroke:#231f20;stroke-width:5.8;stroke-linecap:butt;stroke-linejoin:miter;stroke-miterlimit:11.4737;stroke-dasharray:none;stroke-opacity:1"
         id="path50" /><path
         d="M 269,880.699 H 626.102"
         style="fill:none;stroke:#231f20;stroke-width:8.6;stroke-linecap:butt;stroke-linejoin:miter;stroke-miterlimit:11.4737;stroke-dasharray:none;stroke-opacity:1"
         id="path52" /><path
         d="M 467,880 V 642.398"
         style="fill:none;stroke:#231f20;stroke-width:8.6;stroke-linecap:butt;stroke-linejoin:miter;stroke-miterlimit:11.4737;stroke-dasharray:none;stroke-opacity:1"
         id="path54" /><path
         d="M 1102,880 V 642.398"
         style="fill:none;stroke:#231f20;stroke-width:8.6;stroke-linecap:butt;stroke-linejoin:miter;stroke-miterlimit:11.4737;stroke-dasharray:none;stroke-opacity:1"
         id="path56" /><path
         d="M 943.602,880.699 H 1300.7"
         style="fill:none;stroke:#231f20;stroke-width:8.6;stroke-linecap:butt;stroke-linejoin:miter;stroke-miterlimit:11.4737;stroke-dasharray:none;stroke-opacity:1"
         id="path58" /><path
         d="M 269,364.5 H 1300.7"
         style="fill:none;stroke:#231f20;stroke-width:8.6;stroke-linecap:butt;stroke-linejoin:miter;stroke-miterlimit:11.4737;stroke-dasharray:none;stroke-opacity:1"
         id="path60" /><path
         d="M 467,602.801 V 364.5"
         style="fill:none;stroke:#231f20;stroke-width:8.6;stroke-linecap:butt;stroke-linejoin:miter;stroke-miterlimit:11.4737;stroke-dasharray:none;stroke-opacity:1"
         id="path62" /><path
         d="M 1104.2,597.801 V 359.398"
         style="fill:none;stroke:#231f20;stroke-width:8.6;stroke-linecap:butt;stroke-linejoin:miter;stroke-miterlimit:11.4737;stroke-dasharray:none;stroke-opacity:1"
         id="path64" /><path
         d="m 1320.9,385.398 c 10.1,0 19.4,-9.398 19.4,-20.199 0,-10.801 -9.3,-20.199 -19.4,-20.199 -10.8,0 -20.2,9.398 -20.2,20.199 0,10.801 9.4,20.199 20.2,20.199 z"
         style="fill:none;stroke:#231f20;stroke-width:11.5;stroke-linecap:butt;stroke-linejoin:miter;stroke-miterlimit:11.4737;stroke-dasharray:none;stroke-opacity:1"
         id="path66" /><path
         d="m 1320.9,900.898 c 10.1,0 19.4,-8.699 19.4,-20.199 0,-10.801 -9.3,-20.097 -19.4,-20.097 -10.8,0 -20.2,9.296 -20.2,20.097 0,11.5 9.4,20.199 20.2,20.199 z"
         style="fill:none;stroke:#231f20;stroke-width:11.5;stroke-linecap:butt;stroke-linejoin:miter;stroke-miterlimit:11.4737;stroke-dasharray:none;stroke-opacity:1"
         id="path68" /><path
         d="M 86.8008,1225.6 H 1504.5 V 91.6016 H 86.8008 Z"
         style="fill:none;stroke:#231f20;stroke-width:8.6;stroke-linecap:butt;stroke-linejoin:miter;stroke-miterlimit:11.4737;stroke-dasharray:none;stroke-opacity:1"
         id="path70" /></g></g></svg>
