<?xml version="1.0" encoding="UTF-8" standalone="no"?>
<!-- Created with Inkscape (http://www.inkscape.org/) -->

<svg
   version="1.1"
   id="svg2"
   xml:space="preserve"
   width="212"
   height="174.66667"
   viewBox="0 0 212 174.66667"
   xmlns="http://www.w3.org/2000/svg"
   xmlns:svg="http://www.w3.org/2000/svg"><defs
     id="defs6" /><g
     id="g8"
     transform="matrix(1.3333333,0,0,-1.3333333,0,174.66667)"><g
       id="g10"
       transform="scale(0.1)"><path
         d="m 653.398,513 c 15.903,0 28.102,12.902 28.102,28 0,15.898 -12.199,28.102 -28.102,28.801 15.903,0 28.102,13 28.102,28.097 0,15.903 -12.199,28.102 -28.102,28.801 15.903,0 28.102,12.301 28.102,28.102 0,15.097 -12.199,28.097 -28.102,28.097 15.903,0.704 28.102,12.903 28.102,28.801 0,15.102 -12.898,28.102 -28.102,28.102"
         style="fill:none;stroke:#231f20;stroke-width:14.4;stroke-linecap:butt;stroke-linejoin:miter;stroke-miterlimit:11.4737;stroke-dasharray:none;stroke-opacity:1"
         id="path12" /><path
         d="m 709.359,570.234 v 16.559 c 0,2.16 0,3.602 -0.718,5.039 -1.442,0.719 -2.883,1.441 -5.043,1.441 v 2.161 h 22.32 v -2.161 c -2.883,0 -5.039,-0.722 -5.762,-2.16 -1.437,-0.718 -2.16,-3.601 -2.16,-5.758 v -37.437 c 0,-2.879 0.723,-5.039 2.16,-5.758 0.723,-0.719 2.879,-0.719 4.321,-0.719 v 0 h 0.718 v 0 0 h 10.801 c 3.598,0 5.758,1.438 7.918,3.598 2.16,2.879 5.039,5.758 6.481,7.918 0.718,0.723 0.718,2.16 0.718,2.16 0.719,0.719 1.438,1.442 1.438,2.16 h 2.16 L 749.672,540 h -41.031 v 0 h -5.043 v 1.441 c 0,0 0,0 0.722,0 h 0.719 0.719 0.722 c 0.719,0 2.161,0 2.161,0.719 0.718,0.719 0.718,2.16 0.718,4.32 v 23.754"
         style="fill:#231f20;fill-opacity:1;fill-rule:evenodd;stroke:none"
         id="path14" /><path
         d="m 777.75,579.594 c 0,1.441 0,2.879 -0.719,2.879 0,0.722 -0.722,0.722 -1.441,0.722 -0.719,0 -0.719,0 -0.719,0 -0.723,0 -0.723,0.719 -0.723,0.719 l -4.316,0.719 v 1.441 c 0.719,0 1.438,0.719 2.879,0.719 1.437,0.719 2.879,1.441 4.32,2.16 0.719,0 2.157,1.442 2.879,2.16 0.719,0.719 2.16,1.438 2.879,2.879 h 2.16 v -41.035 0 -3.598 c 0,-3.601 0,-6.48 0.719,-6.48 0.719,-0.719 2.16,-1.438 5.039,-1.438 h 0.719 v 0 V 540 h -20.875 v 1.441 c 0,0 0.719,0 1.437,0 0,0 0.723,0 1.442,0 2.16,0 3.601,0.719 3.601,1.438 0.719,0.719 0.719,2.879 0.719,6.48 v 30.235"
         style="fill:#231f20;fill-opacity:1;fill-rule:evenodd;stroke:none"
         id="path16" /><path
         d="m 1040.39,963.836 c 0,5.758 -1.44,10.078 -3.6,12.238 -2.16,2.879 -5.04,5.039 -7.91,6.477 -1.45,0 -2.88,0.722 -4.33,0.722 -1.43,0.719 -2.87,0.719 -4.32,0.719 -5.75,-0.719 -10.79,-3.597 -13.67,-8.637 -3.6,-5.761 -5.04,-11.519 -5.04,-18 v -0.718 -0.719 c 0,-6.48 1.44,-12.238 5.04,-17.277 3.6,-5.762 8.64,-8.641 15.12,-8.641 5.03,0 9.36,2.16 12.95,5.039 3.6,3.602 5.76,8.641 6.48,13.68 h 1.44 V 930 h -1.44 l -2.16,4.32 c -1.44,-0.722 -2.88,-1.441 -4.32,-2.16 -1.43,-0.719 -2.88,-1.441 -5.04,-2.16 -1.43,0 -2.88,0 -4.32,-0.719 -1.43,0 -2.88,0 -4.31,0 -7.92,0 -15.12,1.438 -20.16,6.477 -5.761,5.039 -8.64,12.238 -8.64,20.879 0,0.718 0,2.16 0,2.879 0,1.441 0.719,2.16 0.719,3.601 0.719,5.039 3.601,10.078 7.921,15.117 4.32,4.317 10.8,7.2 18,7.918 2.88,0 5.75,-0.718 7.91,-0.718 2.88,-0.723 5.76,-1.442 7.92,-2.883 0.73,-0.719 1.44,-1.438 2.16,-1.438 0,-0.718 0.72,-1.441 1.44,-1.441 l 2.16,3.601 h 1.44 v -19.437 h -1.44"
         style="fill:#231f20;fill-opacity:1;fill-rule:evenodd;stroke:none"
         id="path18" /><path
         d="m 1067.75,969.594 c 0,1.441 0,2.879 -0.72,2.879 0,0.722 -0.72,0.722 -1.44,0.722 -0.72,0 -0.72,0 -0.72,0 -0.72,0 -0.72,0.719 -0.72,0.719 l -4.32,0.719 v 1.441 c 0.72,0 1.44,0.719 2.88,0.719 1.44,0.719 2.88,1.441 4.32,2.16 0.72,0 2.16,1.442 2.88,2.16 0.72,0.719 2.16,1.438 2.88,2.879 h 2.16 v -41.035 0 -3.598 c 0,-3.601 0,-6.48 0.72,-6.48 0.72,-0.719 2.16,-1.438 5.04,-1.438 h 0.72 v 0 V 930 h -20.88 v 1.441 c 0,0 0.72,0 1.44,0 0,0 0.72,0 1.44,0 2.16,0 3.6,0.719 3.6,1.438 0.72,0.719 0.72,2.879 0.72,6.48 v 30.235"
         style="fill:#231f20;fill-opacity:1;fill-rule:evenodd;stroke:none"
         id="path20" /><path
         d="m 937.801,796.602 v 170"
         style="fill:none;stroke:#231f20;stroke-width:14.4;stroke-linecap:butt;stroke-linejoin:miter;stroke-miterlimit:11.4737;stroke-dasharray:none;stroke-opacity:1"
         id="path22" /><path
         d="m 966.602,796.602 v 170"
         style="fill:none;stroke:#231f20;stroke-width:14.4;stroke-linecap:butt;stroke-linejoin:miter;stroke-miterlimit:11.4737;stroke-dasharray:none;stroke-opacity:1"
         id="path24" /><path
         d="m 652,383.402 c 7.199,0 13.699,-6.504 13.699,-14.402 0,-8 -6.5,-14.398 -13.699,-14.398 -7.199,0 -13.699,6.398 -13.699,14.398 0,7.898 6.5,14.402 13.699,14.402"
         style="fill:#231f20;fill-opacity:1;fill-rule:evenodd;stroke:none"
         id="path26" /><path
         d="m 652,383.402 c 7.199,0 13.699,-6.504 13.699,-14.402 0,-8 -6.5,-14.398 -13.699,-14.398 -7.199,0 -13.699,6.398 -13.699,14.398 0,7.898 6.5,14.402 13.699,14.402 z"
         style="fill:none;stroke:#231f20;stroke-width:8.6;stroke-linecap:butt;stroke-linejoin:miter;stroke-miterlimit:11.4737;stroke-dasharray:none;stroke-opacity:1"
         id="path28" /><path
         d="m 654.199,898.902 c 7.203,0 13.602,-6.504 13.602,-14.402 0,-7.898 -6.399,-14.398 -13.602,-14.398 -7.199,0 -13.699,6.5 -13.699,14.398 0,7.898 6.5,14.402 13.699,14.402"
         style="fill:#231f20;fill-opacity:1;fill-rule:evenodd;stroke:none"
         id="path30" /><path
         d="m 654.199,898.902 c 7.203,0 13.602,-6.504 13.602,-14.402 0,-7.898 -6.399,-14.398 -13.602,-14.398 -7.199,0 -13.699,6.5 -13.699,14.398 0,7.898 6.5,14.402 13.699,14.402 z"
         style="fill:none;stroke:#231f20;stroke-width:8.6;stroke-linecap:butt;stroke-linejoin:miter;stroke-miterlimit:11.4737;stroke-dasharray:none;stroke-opacity:1"
         id="path32" /><path
         d="m 355.398,386.199 c 7.204,0 13.602,-6.398 13.602,-14.398 0,-7.899 -6.398,-14.403 -13.602,-14.403 -7.199,0 -13.699,6.504 -13.699,14.403 0,8 6.5,14.398 13.699,14.398 z"
         style="fill:none;stroke:#231f20;stroke-width:5.8;stroke-linecap:butt;stroke-linejoin:miter;stroke-miterlimit:11.4737;stroke-dasharray:none;stroke-opacity:1"
         id="path34" /><path
         d="m 1230.2,388.402 c 7.2,0 13.6,-6.504 13.6,-14.402 0,-7.898 -6.4,-14.398 -13.6,-14.398 -7.2,0 -13.7,6.5 -13.7,14.398 0,7.898 6.5,14.402 13.7,14.402 z"
         style="fill:none;stroke:#231f20;stroke-width:5.8;stroke-linecap:butt;stroke-linejoin:miter;stroke-miterlimit:11.4737;stroke-dasharray:none;stroke-opacity:1"
         id="path36" /><path
         d="m 1234.5,894.602 c 7.2,0 13.7,-6.5 13.7,-14.403 0,-8 -6.5,-14.398 -13.7,-14.398 -7.2,0 -13.7,6.398 -13.7,14.398 0,7.903 6.5,14.403 13.7,14.403 z"
         style="fill:none;stroke:#231f20;stroke-width:5.8;stroke-linecap:butt;stroke-linejoin:miter;stroke-miterlimit:11.4737;stroke-dasharray:none;stroke-opacity:1"
         id="path38" /><path
         d="m 356.102,895.301 c 7.199,0 13.699,-6.5 13.699,-14.399 0,-7.902 -6.5,-14.402 -13.699,-14.402 -7.204,0 -13.704,6.5 -13.704,14.402 0,7.899 6.5,14.399 13.704,14.399 z"
         style="fill:none;stroke:#231f20;stroke-width:5.8;stroke-linecap:butt;stroke-linejoin:miter;stroke-miterlimit:11.4737;stroke-dasharray:none;stroke-opacity:1"
         id="path40" /><path
         d="M 369.801,371.102 H 1220.1"
         style="fill:none;stroke:#231f20;stroke-width:8.6;stroke-linecap:butt;stroke-linejoin:miter;stroke-miterlimit:11.4737;stroke-dasharray:none;stroke-opacity:1"
         id="path42" /><path
         d="M 369.801,880.902 H 936.402"
         style="fill:none;stroke:#231f20;stroke-width:8.6;stroke-linecap:butt;stroke-linejoin:miter;stroke-miterlimit:11.4737;stroke-dasharray:none;stroke-opacity:1"
         id="path44" /><path
         d="M 965.199,880.902 H 1220.1"
         style="fill:none;stroke:#231f20;stroke-width:8.6;stroke-linecap:butt;stroke-linejoin:miter;stroke-miterlimit:11.4737;stroke-dasharray:none;stroke-opacity:1"
         id="path46" /><path
         d="M 653.398,739 V 880.902"
         style="fill:none;stroke:#231f20;stroke-width:8.6;stroke-linecap:butt;stroke-linejoin:miter;stroke-miterlimit:11.4737;stroke-dasharray:none;stroke-opacity:1"
         id="path48" /><path
         d="M 653.398,513 V 371.102"
         style="fill:none;stroke:#231f20;stroke-width:8.6;stroke-linecap:butt;stroke-linejoin:miter;stroke-miterlimit:11.4737;stroke-dasharray:none;stroke-opacity:1"
         id="path50" /><path
         d="M 86.8008,1221.4 H 1504.5 V 87.3984 H 86.8008 Z"
         style="fill:none;stroke:#231f20;stroke-width:8.6;stroke-linecap:butt;stroke-linejoin:miter;stroke-miterlimit:11.4737;stroke-dasharray:none;stroke-opacity:1"
         id="path52" /></g></g></svg>
