<?xml version="1.0" encoding="UTF-8" standalone="no"?>
<!-- Created with Inkscape (http://www.inkscape.org/) -->

<svg
   version="1.1"
   id="svg2"
   xml:space="preserve"
   width="266.66666"
   height="266.66666"
   viewBox="0 0 266.66666 266.66666"
   xmlns="http://www.w3.org/2000/svg"
   xmlns:svg="http://www.w3.org/2000/svg"><defs
     id="defs6" /><g
     id="g8"
     transform="matrix(1.3333333,0,0,-1.3333333,0,266.66667)"><g
       id="g10"
       transform="scale(0.1)"><path
         d="M 4.5,1991 H 1991 V 6 H 4.5 Z"
         style="fill:none;stroke:#231f20;stroke-width:11.5;stroke-linecap:butt;stroke-linejoin:miter;stroke-miterlimit:11.4737;stroke-dasharray:none;stroke-opacity:1"
         id="path12" /><path
         d="m 1004.6,830.398 c 90,0 164.1,74.204 164.1,164.204 0,89.198 -74.1,164.098 -164.1,164.098 -89.299,0 -163.498,-74.9 -163.498,-164.098 0,-90 74.199,-164.204 163.498,-164.204 z"
         style="fill:none;stroke:#231f20;stroke-width:2.2;stroke-linecap:butt;stroke-linejoin:miter;stroke-miterlimit:11.4737;stroke-dasharray:none;stroke-opacity:1"
         id="path14" /><path
         d="m 1005.3,667 c 180,0 327.6,148.301 327.6,328.301 0,179.999 -147.6,327.599 -327.6,327.599 -179.999,0 -327.601,-147.6 -327.601,-327.599 0,-180 147.602,-328.301 327.601,-328.301 z"
         style="fill:none;stroke:#231f20;stroke-width:2.2;stroke-linecap:butt;stroke-linejoin:miter;stroke-miterlimit:11.4737;stroke-dasharray:none;stroke-opacity:1"
         id="path16" /><path
         d="m 1005.3,502.102 c 270.7,0 492.5,221 492.5,493.199 0,270.699 -221.8,492.499 -492.5,492.499 -271.499,0 -492.499,-221.8 -492.499,-492.499 0,-272.199 221,-493.199 492.499,-493.199 z"
         style="fill:none;stroke:#231f20;stroke-width:2.2;stroke-linecap:butt;stroke-linejoin:miter;stroke-miterlimit:11.4737;stroke-dasharray:none;stroke-opacity:1"
         id="path18" /><path
         d="m 1004.6,337.898 c 362.1,0 657.3,295.204 657.3,656.704 0,361.398 -295.2,656.598 -657.3,656.598 -360.799,0 -655.998,-295.2 -655.998,-656.598 0,-361.5 295.199,-656.704 655.998,-656.704 z"
         style="fill:none;stroke:#231f20;stroke-width:2.2;stroke-linecap:butt;stroke-linejoin:miter;stroke-miterlimit:11.4737;stroke-dasharray:none;stroke-opacity:1"
         id="path20" /><path
         d="m 1005.3,174.5 c 451.4,0 820.8,368.602 820.8,820.801 0,451.399 -369.4,820.099 -820.8,820.099 -452.198,0 -820.8,-368.7 -820.8,-820.099 0,-452.199 368.602,-820.801 820.8,-820.801 z"
         style="fill:none;stroke:#231f20;stroke-width:2.2;stroke-linecap:butt;stroke-linejoin:miter;stroke-miterlimit:11.4737;stroke-dasharray:none;stroke-opacity:1"
         id="path22" /><path
         d="m 1005.3,1815.4 v -656"
         style="fill:none;stroke:#231f20;stroke-width:2.2;stroke-linecap:butt;stroke-linejoin:miter;stroke-miterlimit:11.4737;stroke-dasharray:none;stroke-opacity:1"
         id="path24" /><path
         d="m 1169.4,995.301 h 656.7"
         style="fill:none;stroke:#231f20;stroke-width:2.2;stroke-linecap:butt;stroke-linejoin:miter;stroke-miterlimit:11.4737;stroke-dasharray:none;stroke-opacity:1"
         id="path26" /><path
         d="M 184.5,995.301 H 841.102"
         style="fill:none;stroke:#231f20;stroke-width:2.2;stroke-linecap:butt;stroke-linejoin:miter;stroke-miterlimit:11.4737;stroke-dasharray:none;stroke-opacity:1"
         id="path28" /><path
         d="M 1005.3,830.398 V 174.5"
         style="fill:none;stroke:#231f20;stroke-width:2.2;stroke-linecap:butt;stroke-linejoin:miter;stroke-miterlimit:11.4737;stroke-dasharray:none;stroke-opacity:1"
         id="path30" /><path
         d="M 1086.6,853.402 1417.1,283.199"
         style="fill:none;stroke:#231f20;stroke-width:2.2;stroke-linecap:butt;stroke-linejoin:miter;stroke-miterlimit:11.4737;stroke-dasharray:none;stroke-opacity:1"
         id="path32" /><path
         d="M 925.398,1136.4 596.301,1706.6"
         style="fill:none;stroke:#231f20;stroke-width:2.2;stroke-linecap:butt;stroke-linejoin:miter;stroke-miterlimit:11.4737;stroke-dasharray:none;stroke-opacity:1"
         id="path34" /><path
         d="M 1714.5,1407.1 1145,1078.8"
         style="fill:none;stroke:#231f20;stroke-width:2.2;stroke-linecap:butt;stroke-linejoin:miter;stroke-miterlimit:11.4737;stroke-dasharray:none;stroke-opacity:1"
         id="path36" /><path
         d="m 923.199,854.898 -329,-568.796"
         style="fill:none;stroke:#231f20;stroke-width:2.2;stroke-linecap:butt;stroke-linejoin:miter;stroke-miterlimit:11.4737;stroke-dasharray:none;stroke-opacity:1"
         id="path38" /><path
         d="m 1149.3,913.902 570.2,-328.3"
         style="fill:none;stroke:#231f20;stroke-width:2.2;stroke-linecap:butt;stroke-linejoin:miter;stroke-miterlimit:11.4737;stroke-dasharray:none;stroke-opacity:1"
         id="path40" /><path
         d="M 862,1075.2 293.898,1405"
         style="fill:none;stroke:#231f20;stroke-width:2.2;stroke-linecap:butt;stroke-linejoin:miter;stroke-miterlimit:11.4737;stroke-dasharray:none;stroke-opacity:1"
         id="path42" /><path
         d="M 1415.7,1706.6 1088.8,1135"
         style="fill:none;stroke:#231f20;stroke-width:2.2;stroke-linecap:butt;stroke-linejoin:miter;stroke-miterlimit:11.4737;stroke-dasharray:none;stroke-opacity:1"
         id="path44" /><path
         d="M 867,911 297.5,583.402"
         style="fill:none;stroke:#231f20;stroke-width:2.2;stroke-linecap:butt;stroke-linejoin:miter;stroke-miterlimit:11.4737;stroke-dasharray:none;stroke-opacity:1"
         id="path46" /><path
         d="m 583.398,464.602 c 73.403,-4.301 164.102,3.597 230.403,44 20.801,15.097 38.097,28.796 59,41 64.801,59.796 104.398,144.699 121,244.796 6.399,19.403 6.399,33.801 7.199,50.403 1.4,0 2.8,0 5,0 15.1,-118.102 52.6,-227.5 132.5,-298.801 34.5,-27.398 72,-49.699 118.8,-69.102 98.6,-25.898 203,-10.097 294.5,31.704 105.1,53.199 198.7,159.097 241.9,277.898 44.6,132.5 41,282.2 -2.9,408.2 -14.4,33.9 -26.6,66.3 -46.8,90 -56.2,94.3 -136.8,152.7 -216.7,191.5 -131.8,55.5 -285.1,38.2 -382.3,-44.6 -81.4,-67.7 -123.9,-181.4 -139,-303.1 -1.4,0 -2.2,0 -5,0 -9.398,115.2 -51.898,226.1 -128.199,295.2 -36.699,25.2 -71.301,51.1 -119.5,68.4 -113.801,33.1 -244.102,14.4 -334.102,-47.5 -73.398,-39.6 -131,-115.2 -176.398,-190.8 C 232,1231.4 225.5,1207 214,1186.8 c -47.5,-131 -46.801,-275.8 1.398,-404.601 17.301,-32.398 23.102,-65.597 47.602,-90 46.801,-88.597 119.5,-147.597 194.398,-188 38.102,-15.097 82.801,-35.199 126,-39.597 z"
         style="fill:none;stroke:#231f20;stroke-width:17.3;stroke-linecap:square;stroke-linejoin:miter;stroke-miterlimit:11.4737;stroke-dasharray:none;stroke-opacity:1"
         id="path48" /><path
         d="M 1003.8,842.602 V 1126.3"
         style="fill:none;stroke:#231f20;stroke-width:17.3;stroke-linecap:square;stroke-linejoin:miter;stroke-miterlimit:11.4737;stroke-dasharray:none;stroke-opacity:1"
         id="path50" /></g></g></svg>
