<?xml version="1.0" encoding="UTF-8" standalone="no"?>
<!-- Created with Inkscape (http://www.inkscape.org/) -->

<svg
   version="1.1"
   id="svg2"
   xml:space="preserve"
   width="212"
   height="174.66667"
   viewBox="0 0 212 174.66667"
   xmlns="http://www.w3.org/2000/svg"
   xmlns:svg="http://www.w3.org/2000/svg"><defs
     id="defs6" /><g
     id="g8"
     transform="matrix(1.3333333,0,0,-1.3333333,0,174.66667)"><g
       id="g10"
       transform="scale(0.1)"><path
         d="M 86.8008,1223.9 H 1504.5 V 89.8984 H 86.8008 Z"
         style="fill:none;stroke:#231f20;stroke-width:8.6;stroke-linecap:butt;stroke-linejoin:miter;stroke-miterlimit:11.4737;stroke-dasharray:none;stroke-opacity:1"
         id="path12" /><path
         d="m 328.289,533.836 c 0,5.758 -1.094,10.078 -2.734,12.238 -1.641,2.879 -3.828,5.039 -6.016,6.477 -1.094,0 -2.187,0.722 -3.281,0.722 -1.098,0.719 -2.192,0.719 -3.285,0.719 -4.375,-0.719 -8.203,-3.597 -10.391,-8.637 -2.734,-5.761 -3.828,-11.519 -3.828,-18 v -0.718 -0.719 c 0,-6.48 1.094,-12.238 3.828,-17.277 2.734,-5.762 6.563,-8.641 11.484,-8.641 3.832,0 7.114,2.16 9.848,5.039 2.734,3.602 4.375,8.641 4.922,13.68 h 1.094 V 500 h -1.094 l -1.641,4.32 c -1.093,-0.722 -2.187,-1.441 -3.281,-2.16 -1.094,-0.719 -2.187,-1.441 -3.828,-2.16 -1.094,0 -2.188,0 -3.281,-0.719 -1.094,0 -2.192,0 -3.285,0 -6.016,0 -11.485,1.438 -15.317,6.477 -4.375,5.039 -6.562,12.238 -6.562,20.879 0,0.718 0,2.16 0,2.879 0,1.441 0.547,2.16 0.547,3.601 0.546,5.039 2.734,10.078 6.015,15.117 3.285,4.317 8.207,7.2 13.676,7.918 2.187,0 4.379,-0.718 6.019,-0.718 2.188,-0.723 4.375,-1.442 6.016,-2.883 0.547,-0.719 1.094,-1.438 1.641,-1.438 0,-0.718 0.547,-1.441 1.093,-1.441 l 1.641,3.601 h 1.094 v -19.437 h -1.094"
         style="fill:#231f20;fill-opacity:1;fill-rule:evenodd;stroke:none"
         id="path14" /><path
         d="m 349.074,539.594 c 0,1.441 0,2.879 -0.547,2.879 0,0.722 -0.547,0.722 -1.093,0.722 -0.547,0 -0.547,0 -0.547,0 -0.547,0 -0.547,0.719 -0.547,0.719 l -3.281,0.719 v 1.441 c 0.546,0 1.093,0.719 2.187,0.719 1.094,0.719 2.188,1.441 3.281,2.16 0.547,0 1.645,1.442 2.192,2.16 0.547,0.719 1.64,1.438 2.187,2.879 h 1.641 v -41.035 0 -3.598 c 0,-3.601 0,-6.48 0.547,-6.48 0.547,-0.719 1.64,-1.438 3.828,-1.438 h 0.547 v 0 V 500 h -15.864 v 1.441 c 0,0 0.547,0 1.094,0 0,0 0.547,0 1.094,0 1.641,0 2.734,0.719 2.734,1.438 0.547,0.719 0.547,2.879 0.547,6.48 v 30.235"
         style="fill:#231f20;fill-opacity:1;fill-rule:evenodd;stroke:none"
         id="path16" /><path
         d="m 598.289,533.836 c 0,5.758 -1.094,10.078 -2.734,12.238 -1.641,2.879 -3.828,5.039 -6.016,6.477 -1.094,0 -2.187,0.722 -3.281,0.722 -1.098,0.719 -2.192,0.719 -3.285,0.719 -4.375,-0.719 -8.203,-3.597 -10.391,-8.637 -2.734,-5.761 -3.828,-11.519 -3.828,-18 v -0.718 -0.719 c 0,-6.48 1.094,-12.238 3.828,-17.277 2.734,-5.762 6.563,-8.641 11.484,-8.641 3.832,0 7.114,2.16 9.848,5.039 2.734,3.602 4.375,8.641 4.922,13.68 h 1.094 V 500 h -1.094 l -1.641,4.32 c -1.093,-0.722 -2.187,-1.441 -3.281,-2.16 -1.094,-0.719 -2.187,-1.441 -3.828,-2.16 -1.094,0 -2.188,0 -3.281,-0.719 -1.094,0 -2.192,0 -3.285,0 -6.016,0 -11.485,1.438 -15.317,6.477 -4.375,5.039 -6.562,12.238 -6.562,20.879 0,0.718 0,2.16 0,2.879 0,1.441 0.547,2.16 0.547,3.601 0.546,5.039 2.734,10.078 6.015,15.117 3.285,4.317 8.207,7.2 13.676,7.918 2.187,0 4.379,-0.718 6.019,-0.718 2.188,-0.723 4.375,-1.442 6.016,-2.883 0.547,-0.719 1.094,-1.438 1.641,-1.438 0,-0.718 0.547,-1.441 1.093,-1.441 l 1.641,3.601 h 1.094 v -19.437 h -1.094"
         style="fill:#231f20;fill-opacity:1;fill-rule:evenodd;stroke:none"
         id="path18" /><path
         d="m 609.23,537.434 c 0.547,0.722 1.094,2.16 1.641,2.879 0.547,1.441 1.094,2.882 2.188,5.042 1.093,2.157 2.734,3.598 4.375,5.758 1.64,1.438 3.832,2.879 6.019,2.879 2.735,0 4.922,-1.441 7.11,-2.879 1.64,-1.441 2.734,-4.32 2.734,-7.918 0,-2.882 -0.547,-5.039 -1.094,-7.199 -1.094,-1.441 -2.187,-3.601 -3.281,-5.762 -1.641,-1.437 -3.281,-3.597 -4.375,-5.039 -1.094,-1.437 -2.188,-2.879 -3.281,-4.316 0,-0.723 -0.547,-1.441 -1.094,-2.16 -0.551,-0.723 -1.098,-1.442 -1.645,-2.16 h -0.547 v -0.723 c -1.64,-1.438 -2.734,-3.598 -3.281,-5.039 -1.094,-1.438 -2.187,-3.598 -2.187,-5.039 h 13.129 c 1.64,0 3.281,0.722 4.375,1.441 0.547,0.719 1.64,2.16 2.187,4.321 h 1.641 l -4.375,-15.118 h -0.547 c 0,1.438 -0.547,2.879 -1.094,2.879 0,0.719 -1.094,0.719 -2.734,0.719 H 609.23 c 0,2.16 0.547,5.039 1.641,7.199 1.094,2.16 2.188,5.039 2.734,6.481 1.094,0.718 1.641,2.156 2.188,2.879 0.547,0.718 1.094,2.16 1.641,2.16 0,1.437 1.093,2.16 1.64,3.597 1.098,1.442 1.645,2.879 2.739,4.321 0.546,0.718 0.546,0.718 0.546,1.437 0.547,0 0.547,0.723 0.547,0.723 0.547,1.437 1.641,2.879 2.188,3.598 0.547,1.441 1.094,2.878 1.64,3.601 0,0.719 0.547,0.719 0.547,1.438 0,0 0,0.722 0,1.441 l 0.547,0.719 c 0,0.719 0,1.441 0,1.441 0,1.438 -0.547,3.598 -1.64,5.039 -0.547,1.438 -2.188,2.16 -3.829,2.879 v 0 h -0.546 v 0 h -0.547 c -1.645,0 -3.286,-0.719 -4.926,-2.16 -1.094,-2.16 -2.735,-3.598 -3.281,-5.758 -0.547,-0.722 -1.094,-1.441 -1.094,-2.16 -0.547,0 -0.547,-1.441 -1.094,-1.441 h -1.641"
         style="fill:#231f20;fill-opacity:1;fill-rule:evenodd;stroke:none"
         id="path20" /><path
         d="m 858.289,533.836 c 0,5.758 -1.094,10.078 -2.734,12.238 -1.641,2.879 -3.828,5.039 -6.016,6.477 -1.094,0 -2.187,0.722 -3.281,0.722 -1.098,0.719 -2.192,0.719 -3.285,0.719 -4.375,-0.719 -8.203,-3.597 -10.391,-8.637 -2.734,-5.761 -3.828,-11.519 -3.828,-18 v -0.718 -0.719 c 0,-6.48 1.094,-12.238 3.828,-17.277 2.734,-5.762 6.563,-8.641 11.484,-8.641 3.832,0 7.114,2.16 9.848,5.039 2.734,3.602 4.375,8.641 4.922,13.68 h 1.094 V 500 h -1.094 l -1.641,4.32 c -1.093,-0.722 -2.187,-1.441 -3.281,-2.16 -1.094,-0.719 -2.187,-1.441 -3.828,-2.16 -1.094,0 -2.188,0 -3.281,-0.719 -1.094,0 -2.192,0 -3.285,0 -6.016,0 -11.485,1.438 -15.317,6.477 -4.375,5.039 -6.562,12.238 -6.562,20.879 0,0.718 0,2.16 0,2.879 0,1.441 0.547,2.16 0.547,3.601 0.546,5.039 2.734,10.078 6.015,15.117 3.285,4.317 8.207,7.2 13.676,7.918 2.187,0 4.379,-0.718 6.019,-0.718 2.188,-0.723 4.375,-1.442 6.016,-2.883 0.547,-0.719 1.094,-1.438 1.641,-1.438 0,-0.718 0.547,-1.441 1.093,-1.441 l 1.641,3.601 h 1.094 v -19.437 h -1.094"
         style="fill:#231f20;fill-opacity:1;fill-rule:evenodd;stroke:none"
         id="path22" /><path
         d="m 877.434,525.195 c 0,0.723 0.546,1.442 1.093,2.16 0,0 0.547,0.719 1.094,1.442 1.098,2.16 2.738,4.32 3.832,5.758 1.094,2.16 1.641,5.039 1.641,7.199 0,2.16 -0.547,3.601 -1.641,5.039 -0.547,0.719 -2.187,1.441 -3.832,1.441 -1.094,0 -2.734,-0.722 -3.828,-1.441 -1.641,-1.438 -3.281,-2.879 -4.375,-5.039 l -1.094,1.441 c 1.094,2.16 2.735,4.317 4.375,5.758 1.641,1.442 3.281,2.879 4.922,3.598 0.551,0 1.098,0.722 1.645,0.722 h 1.093 c 2.188,0 3.829,-0.722 5.469,-2.16 1.094,-0.718 1.641,-3.601 1.641,-5.758 0,-3.601 -0.547,-5.761 -1.641,-7.921 -1.64,-2.161 -3.281,-4.317 -4.922,-6.477 2.735,0 5.469,-1.441 7.11,-4.32 2.187,-2.16 3.281,-5.758 3.828,-9.36 v 0 -0.718 0 -0.723 -0.719 h -0.547 c 0,-3.597 -1.094,-6.476 -2.734,-8.637 -1.094,-2.16 -2.735,-4.32 -4.375,-5.039 C 885.094,500 884,500 882.906,500 c -0.547,0 -1.64,0 -2.187,0 -1.098,0 -1.645,0 -2.739,0 -1.093,0 -2.187,0 -3.281,0 -0.547,0 -1.094,0 -2.187,0 -0.547,0.719 -1.641,1.441 -2.188,2.16 v 0 l -0.547,0.719 c 0,0 -0.547,0.719 -1.093,1.441 0,0.719 -0.547,1.438 -0.547,1.438 0,0.722 0,0.722 0,0.722 v 0.719 0.719 c 0,0.723 0.547,0.723 0.547,1.441 h 0.546 c 0,0 0.547,0.719 1.094,0.719 v 0 c 0.547,0 0.547,-0.719 1.094,-0.719 0,0 0.547,-0.718 1.094,-1.441 0.547,0 1.093,-1.438 1.093,-2.16 1.094,-1.438 1.641,-2.879 2.735,-3.598 0.547,-0.719 1.64,-1.441 2.734,-1.441 h 0.547 c 0.551,0 0.551,0 1.098,0 2.187,0 3.828,2.16 5.469,4.32 1.093,2.879 2.187,5.758 2.187,9.359 v 0.719 0 0.719 0 c -0.547,2.883 -1.094,5.043 -2.187,6.48 -1.641,0.719 -2.735,2.161 -4.375,2.161 -0.547,0.718 -1.641,0.718 -2.739,0.718 -0.547,0 -1.094,0 -1.64,0"
         style="fill:#231f20;fill-opacity:1;fill-rule:evenodd;stroke:none"
         id="path24" /><path
         d="m 1108.29,533.836 c 0,5.758 -1.09,10.078 -2.74,12.238 -1.64,2.879 -3.82,5.039 -6.01,6.477 -1.09,0 -2.19,0.722 -3.28,0.722 -1.1,0.719 -2.19,0.719 -3.29,0.719 -4.37,-0.719 -8.2,-3.597 -10.39,-8.637 -2.73,-5.761 -3.83,-11.519 -3.83,-18 v -0.718 -0.719 c 0,-6.48 1.1,-12.238 3.83,-17.277 2.74,-5.762 6.56,-8.641 11.49,-8.641 3.83,0 7.11,2.16 9.84,5.039 2.74,3.602 4.38,8.641 4.93,13.68 h 1.09 V 500 h -1.09 l -1.64,4.32 c -1.1,-0.722 -2.19,-1.441 -3.29,-2.16 -1.09,-0.719 -2.18,-1.441 -3.82,-2.16 -1.1,0 -2.19,0 -3.29,-0.719 -1.09,0 -2.19,0 -3.28,0 -6.02,0 -11.48,1.438 -15.32,6.477 -4.37,5.039 -6.56,12.238 -6.56,20.879 0,0.718 0,2.16 0,2.879 0,1.441 0.55,2.16 0.55,3.601 0.54,5.039 2.73,10.078 6.01,15.117 3.29,4.317 8.21,7.2 13.68,7.918 2.19,0 4.38,-0.718 6.02,-0.718 2.19,-0.723 4.37,-1.442 6.01,-2.883 0.55,-0.719 1.1,-1.438 1.64,-1.438 0,-0.718 0.55,-1.441 1.1,-1.441 l 1.64,3.601 h 1.09 v -19.437 h -1.09"
         style="fill:#231f20;fill-opacity:1;fill-rule:evenodd;stroke:none"
         id="path26" /><path
         d="m 1119.23,537.434 c 0.55,0.722 1.09,2.16 1.64,2.879 0.55,1.441 1.09,2.882 2.19,5.042 1.09,2.157 2.73,3.598 4.37,5.758 1.64,1.438 3.84,2.879 6.02,2.879 2.74,0 4.93,-1.441 7.11,-2.879 1.64,-1.441 2.74,-4.32 2.74,-7.918 0,-2.882 -0.55,-5.039 -1.1,-7.199 -1.09,-1.441 -2.18,-3.601 -3.28,-5.762 -1.64,-1.437 -3.28,-3.597 -4.37,-5.039 -1.1,-1.437 -2.19,-2.879 -3.28,-4.316 0,-0.723 -0.55,-1.441 -1.1,-2.16 -0.54,-0.723 -1.1,-1.442 -1.64,-2.16 h -0.55 v -0.723 c -1.64,-1.438 -2.73,-3.598 -3.28,-5.039 -1.09,-1.438 -2.19,-3.598 -2.19,-5.039 h 13.13 c 1.64,0 3.28,0.722 4.38,1.441 0.54,0.719 1.64,2.16 2.18,4.321 h 1.64 l -4.37,-15.118 h -0.55 c 0,1.438 -0.54,2.879 -1.09,2.879 0,0.719 -1.1,0.719 -2.74,0.719 h -15.86 c 0,2.16 0.55,5.039 1.64,7.199 1.09,2.16 2.19,5.039 2.74,6.481 1.09,0.718 1.64,2.156 2.18,2.879 0.55,0.718 1.1,2.16 1.64,2.16 0,1.437 1.1,2.16 1.64,3.597 1.1,1.442 1.65,2.879 2.74,4.321 0.55,0.718 0.55,0.718 0.55,1.437 0.55,0 0.55,0.723 0.55,0.723 0.54,1.437 1.64,2.879 2.18,3.598 0.55,1.441 1.1,2.878 1.64,3.601 0,0.719 0.55,0.719 0.55,1.438 0,0 0,0.722 0,1.441 l 0.55,0.719 c 0,0.719 0,1.441 0,1.441 0,1.438 -0.55,3.598 -1.64,5.039 -0.55,1.438 -2.19,2.16 -3.83,2.879 v 0 h -0.55 v 0 h -0.54 c -1.64,0 -3.29,-0.719 -4.93,-2.16 -1.09,-2.16 -2.73,-3.598 -3.28,-5.758 -0.55,-0.722 -1.1,-1.441 -1.1,-2.16 -0.54,0 -0.54,-1.441 -1.09,-1.441 h -1.64"
         style="fill:#231f20;fill-opacity:1;fill-rule:evenodd;stroke:none"
         id="path28" /><path
         d="m 1368.29,533.836 c 0,5.758 -1.09,10.078 -2.74,12.238 -1.64,2.879 -3.82,5.039 -6.01,6.477 -1.09,0 -2.19,0.722 -3.28,0.722 -1.1,0.719 -2.19,0.719 -3.29,0.719 -4.37,-0.719 -8.2,-3.597 -10.39,-8.637 -2.73,-5.761 -3.83,-11.519 -3.83,-18 v -0.718 -0.719 c 0,-6.48 1.1,-12.238 3.83,-17.277 2.74,-5.762 6.56,-8.641 11.49,-8.641 3.83,0 7.11,2.16 9.84,5.039 2.74,3.602 4.38,8.641 4.93,13.68 h 1.09 V 500 h -1.09 l -1.64,4.32 c -1.1,-0.722 -2.19,-1.441 -3.29,-2.16 -1.09,-0.719 -2.18,-1.441 -3.82,-2.16 -1.1,0 -2.19,0 -3.29,-0.719 -1.09,0 -2.19,0 -3.28,0 -6.02,0 -11.48,1.438 -15.32,6.477 -4.37,5.039 -6.56,12.238 -6.56,20.879 0,0.718 0,2.16 0,2.879 0,1.441 0.55,2.16 0.55,3.601 0.54,5.039 2.73,10.078 6.01,15.117 3.29,4.317 8.21,7.2 13.68,7.918 2.19,0 4.38,-0.718 6.02,-0.718 2.19,-0.723 4.37,-1.442 6.01,-2.883 0.55,-0.719 1.1,-1.438 1.64,-1.438 0,-0.718 0.55,-1.441 1.1,-1.441 l 1.64,3.601 h 1.09 v -19.437 h -1.09"
         style="fill:#231f20;fill-opacity:1;fill-rule:evenodd;stroke:none"
         id="path30" /><path
         d="m 1389.07,539.594 c 0,1.441 0,2.879 -0.54,2.879 0,0.722 -0.55,0.722 -1.1,0.722 -0.54,0 -0.54,0 -0.54,0 -0.55,0 -0.55,0.719 -0.55,0.719 l -3.28,0.719 v 1.441 c 0.55,0 1.09,0.719 2.19,0.719 1.09,0.719 2.18,1.441 3.28,2.16 0.54,0 1.64,1.442 2.19,2.16 0.55,0.719 1.64,1.438 2.19,2.879 h 1.64 v -41.035 0 -3.598 c 0,-3.601 0,-6.48 0.54,-6.48 0.55,-0.719 1.64,-1.438 3.83,-1.438 h 0.55 v 0 V 500 h -15.86 v 1.441 c 0,0 0.54,0 1.09,0 0,0 0.55,0 1.09,0 1.64,0 2.74,0.719 2.74,1.438 0.54,0.719 0.54,2.879 0.54,6.48 v 30.235"
         style="fill:#231f20;fill-opacity:1;fill-rule:evenodd;stroke:none"
         id="path32" /><path
         d="m 387.109,1010.23 h -4.921 l 0.546,3.61 h 4.375 v 0 c 0,0.71 0,0.71 0,0.71 0,0.72 0,0.72 0,0.72 0,0.73 0,0.73 0,0.73 0,5.04 0.547,10.07 2.192,13.67 1.094,4.32 4.375,6.48 8.203,6.48 0,0 0.547,0 1.094,0 1.093,0 1.64,-0.72 2.187,-0.72 1.094,-0.72 2.188,-0.72 2.735,-1.44 0.546,-0.72 1.093,-2.16 1.093,-2.88 0,-1.44 -0.547,-2.88 -0.547,-3.6 -0.546,-0.72 -1.093,-1.44 -1.64,-1.44 h -0.547 v 0 c -0.547,0 -1.094,0.72 -1.094,1.44 -0.547,0 -1.094,0.72 -1.094,1.44 v 0 c 0,0.72 -0.546,0.72 -0.546,0.72 -0.547,1.44 -1.094,2.16 -1.641,2.88 -0.547,0 -1.094,0.72 -1.641,0.72 h -0.547 v 0 0 h -0.546 c -1.094,0 -2.188,-0.72 -2.188,-2.16 -0.547,-1.44 -1.094,-2.88 -1.094,-3.6 0,-0.72 0,-1.44 0,-2.15 0,-0.73 0,-1.45 0,-2.16 v 0 -0.73 -8.63 h 7.11 l -0.547,-3.61 h -6.563 v -24.472 c 0,-1.438 0.547,-2.16 0.547,-2.879 0.547,-0.719 2.188,-1.438 4.375,-1.438 V 980 h -13.676 v 1.441 c 1.094,0 2.188,0.719 2.735,0.719 1.094,0.719 1.64,2.16 1.64,5.039 v 23.031"
         style="fill:#231f20;fill-opacity:1;fill-rule:evenodd;stroke:none"
         id="path34" /><path
         d="m 647.109,1010.23 h -4.921 l 0.546,3.61 h 4.375 v 0 c 0,0.71 0,0.71 0,0.71 0,0.72 0,0.72 0,0.72 0,0.73 0,0.73 0,0.73 0,5.04 0.547,10.07 2.192,13.67 1.094,4.32 4.375,6.48 8.203,6.48 0,0 0.547,0 1.094,0 1.093,0 1.64,-0.72 2.187,-0.72 1.094,-0.72 2.188,-0.72 2.735,-1.44 0.546,-0.72 1.093,-2.16 1.093,-2.88 0,-1.44 -0.547,-2.88 -0.547,-3.6 -0.546,-0.72 -1.093,-1.44 -1.64,-1.44 h -0.547 v 0 c -0.547,0 -1.094,0.72 -1.094,1.44 -0.547,0 -1.094,0.72 -1.094,1.44 v 0 c 0,0.72 -0.546,0.72 -0.546,0.72 -0.547,1.44 -1.094,2.16 -1.641,2.88 -0.547,0 -1.094,0.72 -1.641,0.72 h -0.547 v 0 0 h -0.546 c -1.094,0 -2.188,-0.72 -2.188,-2.16 -0.547,-1.44 -1.094,-2.88 -1.094,-3.6 0,-0.72 0,-1.44 0,-2.15 0,-0.73 0,-1.45 0,-2.16 v 0 -0.73 -8.63 h 7.11 l -0.547,-3.61 h -6.563 v -24.472 c 0,-1.438 0.547,-2.16 0.547,-2.879 0.547,-0.719 2.188,-1.438 4.375,-1.438 V 980 h -13.676 v 1.441 c 1.094,0 2.188,0.719 2.735,0.719 1.094,0.719 1.64,2.16 1.64,5.039 v 23.031"
         style="fill:#231f20;fill-opacity:1;fill-rule:evenodd;stroke:none"
         id="path36" /><path
         d="m 907.109,1010.23 h -4.921 l 0.546,3.61 h 4.375 v 0 c 0,0.71 0,0.71 0,0.71 0,0.72 0,0.72 0,0.72 0,0.73 0,0.73 0,0.73 0,5.04 0.547,10.07 2.192,13.67 1.094,4.32 4.375,6.48 8.203,6.48 0,0 0.547,0 1.094,0 1.093,0 1.64,-0.72 2.187,-0.72 1.094,-0.72 2.188,-0.72 2.735,-1.44 0.546,-0.72 1.093,-2.16 1.093,-2.88 0,-1.44 -0.547,-2.88 -0.547,-3.6 -0.546,-0.72 -1.093,-1.44 -1.64,-1.44 h -0.547 v 0 c -0.547,0 -1.094,0.72 -1.094,1.44 -0.547,0 -1.094,0.72 -1.094,1.44 v 0 c 0,0.72 -0.546,0.72 -0.546,0.72 -0.547,1.44 -1.094,2.16 -1.641,2.88 -0.547,0 -1.094,0.72 -1.641,0.72 h -0.547 v 0 0 h -0.546 c -1.094,0 -2.188,-0.72 -2.188,-2.16 -0.547,-1.44 -1.094,-2.88 -1.094,-3.6 0,-0.72 0,-1.44 0,-2.15 0,-0.73 0,-1.45 0,-2.16 v 0 -0.73 -8.63 h 7.11 l -0.547,-3.61 h -6.563 v -24.472 c 0,-1.438 0.547,-2.16 0.547,-2.879 0.547,-0.719 2.188,-1.438 4.375,-1.438 V 980 h -13.676 v 1.441 c 1.094,0 2.188,0.719 2.735,0.719 1.094,0.719 1.64,2.16 1.64,5.039 v 23.031"
         style="fill:#231f20;fill-opacity:1;fill-rule:evenodd;stroke:none"
         id="path38" /><path
         d="m 1167.11,1010.23 h -4.92 l 0.54,3.61 h 4.38 v 0 c 0,0.71 0,0.71 0,0.71 0,0.72 0,0.72 0,0.72 0,0.73 0,0.73 0,0.73 0,5.04 0.55,10.07 2.19,13.67 1.09,4.32 4.38,6.48 8.2,6.48 0,0 0.55,0 1.1,0 1.09,0 1.64,-0.72 2.19,-0.72 1.09,-0.72 2.18,-0.72 2.73,-1.44 0.55,-0.72 1.09,-2.16 1.09,-2.88 0,-1.44 -0.54,-2.88 -0.54,-3.6 -0.55,-0.72 -1.1,-1.44 -1.64,-1.44 h -0.55 v 0 c -0.55,0 -1.09,0.72 -1.09,1.44 -0.55,0 -1.1,0.72 -1.1,1.44 v 0 c 0,0.72 -0.55,0.72 -0.55,0.72 -0.54,1.44 -1.09,2.16 -1.64,2.88 -0.54,0 -1.09,0.72 -1.64,0.72 h -0.54 v 0 0 h -0.55 c -1.09,0 -2.19,-0.72 -2.19,-2.16 -0.54,-1.44 -1.09,-2.88 -1.09,-3.6 0,-0.72 0,-1.44 0,-2.15 0,-0.73 0,-1.45 0,-2.16 v 0 -0.73 -8.63 h 7.11 l -0.55,-3.61 h -6.56 v -24.472 c 0,-1.438 0.55,-2.16 0.55,-2.879 0.54,-0.719 2.18,-1.438 4.37,-1.438 V 980 h -13.68 v 1.441 c 1.1,0 2.19,0.719 2.74,0.719 1.09,0.719 1.64,2.16 1.64,5.039 v 23.031"
         style="fill:#231f20;fill-opacity:1;fill-rule:evenodd;stroke:none"
         id="path40" /><path
         d="m 401.094,968.719 c 0,5.758 0.547,10.797 2.734,14.398 1.641,3.598 3.281,5.758 5.473,6.477 0.547,0 0.547,0.719 1.094,0.719 h 0.546 c 2.735,0 4.375,-1.438 6.016,-3.598 1.094,-2.879 2.734,-5.758 3.281,-8.641 0,-1.437 0.547,-2.879 0.547,-4.316 0,-1.442 0.547,-2.879 0.547,-3.602 0,-5.758 -0.547,-10.078 -1.641,-12.957 -1.093,-2.879 -2.734,-5.039 -3.828,-6.48 C 414.77,950 414.223,950 413.676,950 c -1.094,-0.719 -1.641,-0.719 -2.188,-0.719 -2.734,0 -5.472,1.438 -7.113,4.317 -2.187,3.601 -3.281,8.64 -3.281,15.121 z m 15.863,1.437 c 0,0.723 0,1.442 0,1.442 0,0 0,0.718 0,1.437 0,1.442 -0.547,2.883 -0.547,4.32 -0.547,2.879 -1.094,5.762 -1.64,7.918 -1.094,2.161 -2.188,3.602 -3.282,3.602 v 0 0 h -0.547 c -1.093,0 -2.738,-1.441 -3.285,-3.602 -0.547,-2.156 -1.64,-4.316 -1.64,-7.199 0,-1.437 -0.547,-3.597 -0.547,-5.039 0,-1.437 0,-2.879 0,-3.597 0,-7.2 0.547,-12.239 1.64,-15.118 1.094,-2.879 2.739,-4.32 4.379,-4.32 1.641,0 3.282,2.16 3.828,5.758 1.094,3.601 1.641,7.199 1.641,12.238 v 0.723 c 0,0.719 0,0.719 0,1.437"
         style="fill:#231f20;fill-opacity:1;fill-rule:evenodd;stroke:none"
         id="path42" /><path
         d="m 661.094,968.719 c 0,5.758 0.547,10.797 2.734,14.398 1.641,3.598 3.281,5.758 5.473,6.477 0.547,0 0.547,0.719 1.094,0.719 h 0.546 c 2.735,0 4.375,-1.438 6.016,-3.598 1.094,-2.879 2.734,-5.758 3.281,-8.641 0,-1.437 0.547,-2.879 0.547,-4.316 0,-1.442 0.547,-2.879 0.547,-3.602 0,-5.758 -0.547,-10.078 -1.641,-12.957 -1.093,-2.879 -2.734,-5.039 -3.828,-6.48 C 674.77,950 674.223,950 673.676,950 c -1.094,-0.719 -1.641,-0.719 -2.188,-0.719 -2.734,0 -5.472,1.438 -7.113,4.317 -2.187,3.601 -3.281,8.64 -3.281,15.121 z m 15.863,1.437 c 0,0.723 0,1.442 0,1.442 0,0 0,0.718 0,1.437 0,1.442 -0.547,2.883 -0.547,4.32 -0.547,2.879 -1.094,5.762 -1.64,7.918 -1.094,2.161 -2.188,3.602 -3.282,3.602 v 0 0 h -0.547 c -1.093,0 -2.738,-1.441 -3.285,-3.602 -0.547,-2.156 -1.64,-4.316 -1.64,-7.199 0,-1.437 -0.547,-3.597 -0.547,-5.039 0,-1.437 0,-2.879 0,-3.597 0,-7.2 0.547,-12.239 1.64,-15.118 1.094,-2.879 2.739,-4.32 4.379,-4.32 1.641,0 3.282,2.16 3.828,5.758 1.094,3.601 1.641,7.199 1.641,12.238 v 0.723 c 0,0.719 0,0.719 0,1.437"
         style="fill:#231f20;fill-opacity:1;fill-rule:evenodd;stroke:none"
         id="path44" /><path
         d="m 921.094,968.719 c 0,5.758 0.547,10.797 2.734,14.398 1.641,3.598 3.281,5.758 5.473,6.477 0.547,0 0.547,0.719 1.094,0.719 h 0.546 c 2.735,0 4.375,-1.438 6.016,-3.598 1.094,-2.879 2.734,-5.758 3.281,-8.641 0,-1.437 0.547,-2.879 0.547,-4.316 0,-1.442 0.547,-2.879 0.547,-3.602 0,-5.758 -0.547,-10.078 -1.641,-12.957 -1.093,-2.879 -2.734,-5.039 -3.828,-6.48 C 934.77,950 934.223,950 933.676,950 c -1.094,-0.719 -1.641,-0.719 -2.188,-0.719 -2.734,0 -5.472,1.438 -7.113,4.317 -2.187,3.601 -3.281,8.64 -3.281,15.121 z m 15.863,1.437 c 0,0.723 0,1.442 0,1.442 0,0 0,0.718 0,1.437 0,1.442 -0.547,2.883 -0.547,4.32 -0.547,2.879 -1.094,5.762 -1.64,7.918 -1.094,2.161 -2.188,3.602 -3.282,3.602 v 0 0 h -0.547 c -1.093,0 -2.738,-1.441 -3.285,-3.602 -0.547,-2.156 -1.64,-4.316 -1.64,-7.199 0,-1.437 -0.547,-3.597 -0.547,-5.039 0,-1.437 0,-2.879 0,-3.597 0,-7.2 0.547,-12.239 1.64,-15.118 1.094,-2.879 2.739,-4.32 4.379,-4.32 1.641,0 3.282,2.16 3.828,5.758 1.094,3.601 1.641,7.199 1.641,12.238 v 0.723 c 0,0.719 0,0.719 0,1.437"
         style="fill:#231f20;fill-opacity:1;fill-rule:evenodd;stroke:none"
         id="path46" /><path
         d="m 1181.09,968.719 c 0,5.758 0.55,10.797 2.74,14.398 1.64,3.598 3.28,5.758 5.47,6.477 0.55,0 0.55,0.719 1.09,0.719 h 0.55 c 2.74,0 4.38,-1.438 6.02,-3.598 1.09,-2.879 2.73,-5.758 3.28,-8.641 0,-1.437 0.55,-2.879 0.55,-4.316 0,-1.442 0.54,-2.879 0.54,-3.602 0,-5.758 -0.54,-10.078 -1.64,-12.957 -1.09,-2.879 -2.73,-5.039 -3.83,-6.48 -1.09,-0.719 -1.64,-0.719 -2.18,-0.719 -1.1,-0.719 -1.64,-0.719 -2.19,-0.719 -2.74,0 -5.47,1.438 -7.11,4.317 -2.19,3.601 -3.29,8.64 -3.29,15.121 z m 15.87,1.437 c 0,0.723 0,1.442 0,1.442 0,0 0,0.718 0,1.437 0,1.442 -0.55,2.883 -0.55,4.32 -0.55,2.879 -1.09,5.762 -1.64,7.918 -1.09,2.161 -2.19,3.602 -3.28,3.602 v 0 0 h -0.55 c -1.09,0 -2.74,-1.441 -3.28,-3.602 -0.55,-2.156 -1.64,-4.316 -1.64,-7.199 0,-1.437 -0.55,-3.597 -0.55,-5.039 0,-1.437 0,-2.879 0,-3.597 0,-7.2 0.55,-12.239 1.64,-15.118 1.09,-2.879 2.74,-4.32 4.38,-4.32 1.64,0 3.28,2.16 3.83,5.758 1.09,3.601 1.64,7.199 1.64,12.238 v 0.723 c 0,0.719 0,0.719 0,1.437"
         style="fill:#231f20;fill-opacity:1;fill-rule:evenodd;stroke:none"
         id="path48" /><path
         d="M 344.602,588.199 H 215"
         style="fill:none;stroke:#231f20;stroke-width:14.4;stroke-linecap:butt;stroke-linejoin:miter;stroke-miterlimit:11.4737;stroke-dasharray:none;stroke-opacity:1"
         id="path50" /><path
         d="M 344.602,617 H 215"
         style="fill:none;stroke:#231f20;stroke-width:14.4;stroke-linecap:butt;stroke-linejoin:miter;stroke-miterlimit:11.4737;stroke-dasharray:none;stroke-opacity:1"
         id="path52" /><path
         d="M 602.301,588.199 H 473.398"
         style="fill:none;stroke:#231f20;stroke-width:14.4;stroke-linecap:butt;stroke-linejoin:miter;stroke-miterlimit:11.4737;stroke-dasharray:none;stroke-opacity:1"
         id="path54" /><path
         d="M 602.301,617 H 473.398"
         style="fill:none;stroke:#231f20;stroke-width:14.4;stroke-linecap:butt;stroke-linejoin:miter;stroke-miterlimit:11.4737;stroke-dasharray:none;stroke-opacity:1"
         id="path56" /><path
         d="M 860.801,591.801 H 731.898"
         style="fill:none;stroke:#231f20;stroke-width:14.4;stroke-linecap:butt;stroke-linejoin:miter;stroke-miterlimit:11.4737;stroke-dasharray:none;stroke-opacity:1"
         id="path58" /><path
         d="M 860.801,620.602 H 731.898"
         style="fill:none;stroke:#231f20;stroke-width:14.4;stroke-linecap:butt;stroke-linejoin:miter;stroke-miterlimit:11.4737;stroke-dasharray:none;stroke-opacity:1"
         id="path60" /><path
         d="M 1120,588.199 H 990.398"
         style="fill:none;stroke:#231f20;stroke-width:14.4;stroke-linecap:butt;stroke-linejoin:miter;stroke-miterlimit:11.4737;stroke-dasharray:none;stroke-opacity:1"
         id="path62" /><path
         d="M 1120,617 H 990.398"
         style="fill:none;stroke:#231f20;stroke-width:14.4;stroke-linecap:butt;stroke-linejoin:miter;stroke-miterlimit:11.4737;stroke-dasharray:none;stroke-opacity:1"
         id="path64" /><path
         d="M 1377.8,591.801 H 1248.9"
         style="fill:none;stroke:#231f20;stroke-width:14.4;stroke-linecap:butt;stroke-linejoin:miter;stroke-miterlimit:11.4737;stroke-dasharray:none;stroke-opacity:1"
         id="path66" /><path
         d="M 1377.8,620.602 H 1248.9"
         style="fill:none;stroke:#231f20;stroke-width:14.4;stroke-linecap:butt;stroke-linejoin:miter;stroke-miterlimit:11.4737;stroke-dasharray:none;stroke-opacity:1"
         id="path68" /><path
         d="m 276.898,351.301 c 5.704,0 10.801,-6.5 10.801,-14.403 0,-7.898 -5.097,-14.398 -10.801,-14.398 -5.097,0 -10.097,6.5 -10.097,14.398 0,7.903 5,14.403 10.097,14.403"
         style="fill:#231f20;fill-opacity:1;fill-rule:evenodd;stroke:none"
         id="path70" /><path
         d="m 276.898,351.301 c 5.704,0 10.801,-6.5 10.801,-14.403 0,-7.898 -5.097,-14.398 -10.801,-14.398 -5.097,0 -10.097,6.5 -10.097,14.398 0,7.903 5,14.403 10.097,14.403 z"
         style="fill:none;stroke:#231f20;stroke-width:8.6;stroke-linecap:butt;stroke-linejoin:miter;stroke-miterlimit:11.4737;stroke-dasharray:none;stroke-opacity:1"
         id="path72" /><path
         d="m 536.102,349.801 c 5,0 10.097,-6.403 10.097,-14.403 0,-7.898 -5.097,-14.398 -10.097,-14.398 -5.801,0 -10.801,6.5 -10.801,14.398 0,8 5,14.403 10.801,14.403"
         style="fill:#231f20;fill-opacity:1;fill-rule:evenodd;stroke:none"
         id="path74" /><path
         d="m 536.102,349.801 c 5,0 10.097,-6.403 10.097,-14.403 0,-7.898 -5.097,-14.398 -10.097,-14.398 -5.801,0 -10.801,6.5 -10.801,14.398 0,8 5,14.403 10.801,14.403 z"
         style="fill:none;stroke:#231f20;stroke-width:8.6;stroke-linecap:butt;stroke-linejoin:miter;stroke-miterlimit:11.4737;stroke-dasharray:none;stroke-opacity:1"
         id="path76" /><path
         d="m 795.301,352.699 c 5.699,0 10.097,-6.5 10.097,-14.398 0,-7.903 -4.398,-14.403 -10.097,-14.403 -5.801,0 -10.801,6.5 -10.801,14.403 0,7.898 5,14.398 10.801,14.398"
         style="fill:#231f20;fill-opacity:1;fill-rule:evenodd;stroke:none"
         id="path78" /><path
         d="m 795.301,352.699 c 5.699,0 10.097,-6.5 10.097,-14.398 0,-7.903 -4.398,-14.403 -10.097,-14.403 -5.801,0 -10.801,6.5 -10.801,14.403 0,7.898 5,14.398 10.801,14.398 z"
         style="fill:none;stroke:#231f20;stroke-width:8.6;stroke-linecap:butt;stroke-linejoin:miter;stroke-miterlimit:11.4737;stroke-dasharray:none;stroke-opacity:1"
         id="path80" /><path
         d="m 1053.8,354.199 c 5.7,0 10.8,-6.5 10.8,-14.398 0,-8 -5.1,-14.403 -10.8,-14.403 -5.1,0 -10.1,6.403 -10.1,14.403 0,7.898 5,14.398 10.1,14.398"
         style="fill:#231f20;fill-opacity:1;fill-rule:evenodd;stroke:none"
         id="path82" /><path
         d="m 1053.8,354.199 c 5.7,0 10.8,-6.5 10.8,-14.398 0,-8 -5.1,-14.403 -10.8,-14.403 -5.1,0 -10.1,6.403 -10.1,14.403 0,7.898 5,14.398 10.1,14.398 z"
         style="fill:none;stroke:#231f20;stroke-width:8.6;stroke-linecap:butt;stroke-linejoin:miter;stroke-miterlimit:11.4737;stroke-dasharray:none;stroke-opacity:1"
         id="path84" /><path
         d="m 1313.7,346.199 c 5,0 10.1,-6.398 10.1,-14.398 0,-7.903 -5.1,-14.403 -10.1,-14.403 -5.8,0 -10.8,6.5 -10.8,14.403 0,8 5,14.398 10.8,14.398"
         style="fill:#231f20;fill-opacity:1;fill-rule:evenodd;stroke:none"
         id="path86" /><path
         d="m 1313.7,346.199 c 5,0 10.1,-6.398 10.1,-14.398 0,-7.903 -5.1,-14.403 -10.1,-14.403 -5.8,0 -10.8,6.5 -10.8,14.403 0,8 5,14.398 10.8,14.398 z"
         style="fill:none;stroke:#231f20;stroke-width:8.6;stroke-linecap:butt;stroke-linejoin:miter;stroke-miterlimit:11.4737;stroke-dasharray:none;stroke-opacity:1"
         id="path88" /><path
         d="m 279,858.898 c 5.801,0 10.801,-6.5 10.801,-14.398 0,-7.898 -5,-14.398 -10.801,-14.398 -5,0 -10,6.5 -10,14.398 0,7.898 5,14.398 10,14.398"
         style="fill:#231f20;fill-opacity:1;fill-rule:evenodd;stroke:none"
         id="path90" /><path
         d="m 279,858.898 c 5.801,0 10.801,-6.5 10.801,-14.398 0,-7.898 -5,-14.398 -10.801,-14.398 -5,0 -10,6.5 -10,14.398 0,7.898 5,14.398 10,14.398 z"
         style="fill:none;stroke:#231f20;stroke-width:8.6;stroke-linecap:butt;stroke-linejoin:miter;stroke-miterlimit:11.4737;stroke-dasharray:none;stroke-opacity:1"
         id="path92" /><path
         d="m 536.102,858.898 c 5.699,0 10.796,-6.5 10.796,-14.398 0,-7.898 -5.097,-14.398 -10.796,-14.398 -5.102,0 -10.102,6.5 -10.102,14.398 0,7.898 5,14.398 10.102,14.398"
         style="fill:#231f20;fill-opacity:1;fill-rule:evenodd;stroke:none"
         id="path94" /><path
         d="m 536.102,858.898 c 5.699,0 10.796,-6.5 10.796,-14.398 0,-7.898 -5.097,-14.398 -10.796,-14.398 -5.102,0 -10.102,6.5 -10.102,14.398 0,7.898 5,14.398 10.102,14.398 z"
         style="fill:none;stroke:#231f20;stroke-width:8.6;stroke-linecap:butt;stroke-linejoin:miter;stroke-miterlimit:11.4737;stroke-dasharray:none;stroke-opacity:1"
         id="path96" /><path
         d="m 798.199,858.898 c 5,0 10,-6.5 10,-14.398 0,-7.898 -5,-14.398 -10,-14.398 -5.801,0 -10.801,6.5 -10.801,14.398 0,7.898 5,14.398 10.801,14.398"
         style="fill:#231f20;fill-opacity:1;fill-rule:evenodd;stroke:none"
         id="path98" /><path
         d="m 798.199,858.898 c 5,0 10,-6.5 10,-14.398 0,-7.898 -5,-14.398 -10,-14.398 -5.801,0 -10.801,6.5 -10.801,14.398 0,7.898 5,14.398 10.801,14.398 z"
         style="fill:none;stroke:#231f20;stroke-width:8.6;stroke-linecap:butt;stroke-linejoin:miter;stroke-miterlimit:11.4737;stroke-dasharray:none;stroke-opacity:1"
         id="path100" /><path
         d="m 1053,858.898 c 5.1,0 10.1,-6.5 10.1,-14.398 0,-7.898 -5,-14.398 -10.1,-14.398 -5.7,0 -10.8,6.5 -10.8,14.398 0,7.898 5.1,14.398 10.8,14.398"
         style="fill:#231f20;fill-opacity:1;fill-rule:evenodd;stroke:none"
         id="path102" /><path
         d="m 1053,858.898 c 5.1,0 10.1,-6.5 10.1,-14.398 0,-7.898 -5,-14.398 -10.1,-14.398 -5.7,0 -10.8,6.5 -10.8,14.398 0,7.898 5.1,14.398 10.8,14.398 z"
         style="fill:none;stroke:#231f20;stroke-width:8.6;stroke-linecap:butt;stroke-linejoin:miter;stroke-miterlimit:11.4737;stroke-dasharray:none;stroke-opacity:1"
         id="path104" /><path
         d="m 1313,856.699 c 5,0 10,-6.5 10,-14.398 0,-7.903 -5,-14.403 -10,-14.403 -5.8,0 -10.8,6.5 -10.8,14.403 0,7.898 5,14.398 10.8,14.398"
         style="fill:#231f20;fill-opacity:1;fill-rule:evenodd;stroke:none"
         id="path106" /><path
         d="m 1313,856.699 c 5,0 10,-6.5 10,-14.398 0,-7.903 -5,-14.403 -10,-14.403 -5.8,0 -10.8,6.5 -10.8,14.403 0,7.898 5,14.398 10.8,14.398 z"
         style="fill:none;stroke:#231f20;stroke-width:8.6;stroke-linecap:butt;stroke-linejoin:miter;stroke-miterlimit:11.4737;stroke-dasharray:none;stroke-opacity:1"
         id="path108" /><path
         d="m 183.301,353.398 c 5.699,0 10.801,-6.398 10.801,-14.398 0,-7.898 -5.102,-14.398 -10.801,-14.398 -5.102,0 -10.102,6.5 -10.102,14.398 0,8 5,14.398 10.102,14.398 z"
         style="fill:none;stroke:#231f20;stroke-width:5.8;stroke-linecap:butt;stroke-linejoin:miter;stroke-miterlimit:11.4737;stroke-dasharray:none;stroke-opacity:1"
         id="path110" /><path
         d="m 182.602,861.801 c 5,0 10,-6.5 10,-14.403 0,-8 -5,-14.398 -10,-14.398 -5.801,0 -10.801,6.398 -10.801,14.398 0,7.903 5,14.403 10.801,14.403 z"
         style="fill:none;stroke:#231f20;stroke-width:5.8;stroke-linecap:butt;stroke-linejoin:miter;stroke-miterlimit:11.4737;stroke-dasharray:none;stroke-opacity:1"
         id="path112" /><path
         d="m 1410.2,349.801 c 5.7,0 10.8,-6.403 10.8,-14.403 0,-7.898 -5.1,-14.398 -10.8,-14.398 -5.1,0 -10.1,6.5 -10.1,14.398 0,8 5,14.403 10.1,14.403 z"
         style="fill:none;stroke:#231f20;stroke-width:5.8;stroke-linecap:butt;stroke-linejoin:miter;stroke-miterlimit:11.4737;stroke-dasharray:none;stroke-opacity:1"
         id="path114" /><path
         d="m 1408.7,858.898 c 5.1,0 10.1,-6.5 10.1,-14.398 0,-7.898 -5,-14.398 -10.1,-14.398 -5.7,0 -10.8,6.5 -10.8,14.398 0,7.898 5.1,14.398 10.8,14.398 z"
         style="fill:none;stroke:#231f20;stroke-width:5.8;stroke-linecap:butt;stroke-linejoin:miter;stroke-miterlimit:11.4737;stroke-dasharray:none;stroke-opacity:1"
         id="path116" /><path
         d="M 192.602,334.699 H 1397.9"
         style="fill:none;stroke:#231f20;stroke-width:8.6;stroke-linecap:butt;stroke-linejoin:miter;stroke-miterlimit:11.4737;stroke-dasharray:none;stroke-opacity:1"
         id="path118" /><path
         d="M 279,589.602 V 334.699"
         style="fill:none;stroke:#231f20;stroke-width:8.6;stroke-linecap:butt;stroke-linejoin:miter;stroke-miterlimit:11.4737;stroke-dasharray:none;stroke-opacity:1"
         id="path120" /><path
         d="M 537.5,589.602 V 334.699"
         style="fill:none;stroke:#231f20;stroke-width:8.6;stroke-linecap:butt;stroke-linejoin:miter;stroke-miterlimit:11.4737;stroke-dasharray:none;stroke-opacity:1"
         id="path122" /><path
         d="M 796,589.602 V 334.699"
         style="fill:none;stroke:#231f20;stroke-width:8.6;stroke-linecap:butt;stroke-linejoin:miter;stroke-miterlimit:11.4737;stroke-dasharray:none;stroke-opacity:1"
         id="path124" /><path
         d="M 1054.5,590.301 V 335.398"
         style="fill:none;stroke:#231f20;stroke-width:8.6;stroke-linecap:butt;stroke-linejoin:miter;stroke-miterlimit:11.4737;stroke-dasharray:none;stroke-opacity:1"
         id="path126" /><path
         d="M 1313.7,590.301 V 335.398"
         style="fill:none;stroke:#231f20;stroke-width:8.6;stroke-linecap:butt;stroke-linejoin:miter;stroke-miterlimit:11.4737;stroke-dasharray:none;stroke-opacity:1"
         id="path128" /><path
         d="M 279,618.398 V 845.199"
         style="fill:none;stroke:#231f20;stroke-width:8.6;stroke-linecap:butt;stroke-linejoin:miter;stroke-miterlimit:11.4737;stroke-dasharray:none;stroke-opacity:1"
         id="path130" /><path
         d="M 537.5,618.398 V 845.199"
         style="fill:none;stroke:#231f20;stroke-width:8.6;stroke-linecap:butt;stroke-linejoin:miter;stroke-miterlimit:11.4737;stroke-dasharray:none;stroke-opacity:1"
         id="path132" /><path
         d="M 796,618.398 V 845.199"
         style="fill:none;stroke:#231f20;stroke-width:8.6;stroke-linecap:butt;stroke-linejoin:miter;stroke-miterlimit:11.4737;stroke-dasharray:none;stroke-opacity:1"
         id="path134" /><path
         d="M 1054.5,618.398 V 845.199"
         style="fill:none;stroke:#231f20;stroke-width:8.6;stroke-linecap:butt;stroke-linejoin:miter;stroke-miterlimit:11.4737;stroke-dasharray:none;stroke-opacity:1"
         id="path136" /><path
         d="M 1313.7,618.398 V 845.199"
         style="fill:none;stroke:#231f20;stroke-width:8.6;stroke-linecap:butt;stroke-linejoin:miter;stroke-miterlimit:11.4737;stroke-dasharray:none;stroke-opacity:1"
         id="path138" /><path
         d="M 193.398,845.199 H 364.699"
         style="fill:none;stroke:#231f20;stroke-width:8.6;stroke-linecap:butt;stroke-linejoin:miter;stroke-miterlimit:11.4737;stroke-dasharray:none;stroke-opacity:1"
         id="path140" /><path
         d="m 452.602,845.199 h 171.3"
         style="fill:none;stroke:#231f20;stroke-width:8.6;stroke-linecap:butt;stroke-linejoin:miter;stroke-miterlimit:11.4737;stroke-dasharray:none;stroke-opacity:1"
         id="path142" /><path
         d="M 711,845.199 H 882.398"
         style="fill:none;stroke:#231f20;stroke-width:8.6;stroke-linecap:butt;stroke-linejoin:miter;stroke-miterlimit:11.4737;stroke-dasharray:none;stroke-opacity:1"
         id="path144" /><path
         d="m 969.5,845.199 h 171.4"
         style="fill:none;stroke:#231f20;stroke-width:8.6;stroke-linecap:butt;stroke-linejoin:miter;stroke-miterlimit:11.4737;stroke-dasharray:none;stroke-opacity:1"
         id="path146" /><path
         d="m 1228,845.199 h 171.4"
         style="fill:none;stroke:#231f20;stroke-width:8.6;stroke-linecap:butt;stroke-linejoin:miter;stroke-miterlimit:11.4737;stroke-dasharray:none;stroke-opacity:1"
         id="path148" /><path
         d="M 451.801,930.898 V 760.199"
         style="fill:none;stroke:#231f20;stroke-width:14.4;stroke-linecap:square;stroke-linejoin:miter;stroke-miterlimit:11.4737;stroke-dasharray:none;stroke-opacity:1"
         id="path150" /><path
         d="M 366.898,930.199 V 759.5"
         style="fill:none;stroke:#231f20;stroke-width:14.4;stroke-linecap:square;stroke-linejoin:miter;stroke-miterlimit:11.4737;stroke-dasharray:none;stroke-opacity:1"
         id="path152" /><path
         d="m 387,930.898 h 43.199 V 761 H 387 Z"
         style="fill:none;stroke:#231f20;stroke-width:5.8;stroke-linecap:butt;stroke-linejoin:miter;stroke-miterlimit:11.4737;stroke-dasharray:none;stroke-opacity:1"
         id="path154" /><path
         d="M 709.602,930.199 V 759.5"
         style="fill:none;stroke:#231f20;stroke-width:14.4;stroke-linecap:square;stroke-linejoin:miter;stroke-miterlimit:11.4737;stroke-dasharray:none;stroke-opacity:1"
         id="path156" /><path
         d="M 625.398,929.398 V 758.801"
         style="fill:none;stroke:#231f20;stroke-width:14.4;stroke-linecap:square;stroke-linejoin:miter;stroke-miterlimit:11.4737;stroke-dasharray:none;stroke-opacity:1"
         id="path158" /><path
         d="m 645.5,930.199 h 43.199 v -170 H 645.5 Z"
         style="fill:none;stroke:#231f20;stroke-width:5.8;stroke-linecap:butt;stroke-linejoin:miter;stroke-miterlimit:11.4737;stroke-dasharray:none;stroke-opacity:1"
         id="path160" /><path
         d="M 967.398,930.199 V 759.5"
         style="fill:none;stroke:#231f20;stroke-width:14.4;stroke-linecap:square;stroke-linejoin:miter;stroke-miterlimit:11.4737;stroke-dasharray:none;stroke-opacity:1"
         id="path162" /><path
         d="M 883.102,929.398 V 758.801"
         style="fill:none;stroke:#231f20;stroke-width:14.4;stroke-linecap:square;stroke-linejoin:miter;stroke-miterlimit:11.4737;stroke-dasharray:none;stroke-opacity:1"
         id="path164" /><path
         d="M 903.301,930.199 H 946.5 v -170 h -43.199 z"
         style="fill:none;stroke:#231f20;stroke-width:5.8;stroke-linecap:butt;stroke-linejoin:miter;stroke-miterlimit:11.4737;stroke-dasharray:none;stroke-opacity:1"
         id="path166" /><path
         d="M 1225.8,931.602 V 761"
         style="fill:none;stroke:#231f20;stroke-width:14.4;stroke-linecap:square;stroke-linejoin:miter;stroke-miterlimit:11.4737;stroke-dasharray:none;stroke-opacity:1"
         id="path168" /><path
         d="M 1140.9,930.898 V 760.199"
         style="fill:none;stroke:#231f20;stroke-width:14.4;stroke-linecap:square;stroke-linejoin:miter;stroke-miterlimit:11.4737;stroke-dasharray:none;stroke-opacity:1"
         id="path170" /><path
         d="m 1161,931.602 h 43.2 V 761.699 H 1161 Z"
         style="fill:none;stroke:#231f20;stroke-width:5.8;stroke-linecap:butt;stroke-linejoin:miter;stroke-miterlimit:11.4737;stroke-dasharray:none;stroke-opacity:1"
         id="path172" /></g></g></svg>
