<?xml version="1.0" encoding="UTF-8" standalone="no"?>
<!-- Created with Inkscape (http://www.inkscape.org/) -->

<svg
   version="1.1"
   id="svg2"
   xml:space="preserve"
   width="417.33334"
   height="228"
   viewBox="0 0 417.33334 228"
   xmlns="http://www.w3.org/2000/svg"
   xmlns:svg="http://www.w3.org/2000/svg"><defs
     id="defs6" /><g
     id="g8"
     transform="matrix(1.3333333,0,0,-1.3333333,0,228)"><g
       id="g10"
       transform="scale(0.1)"><path
         d="M 6.60156,1700.2 H 3129.3 V 0.300781 H 6.60156 Z"
         style="fill:none;stroke:#231f20;stroke-width:11.5;stroke-linecap:butt;stroke-linejoin:miter;stroke-miterlimit:11.4737;stroke-dasharray:none;stroke-opacity:1"
         id="path12" /><path
         d="m 2451.8,1259.6 h 402.4"
         style="fill:none;stroke:#231f20;stroke-width:8.6;stroke-linecap:butt;stroke-linejoin:miter;stroke-miterlimit:11.4737;stroke-dasharray:none;stroke-opacity:1"
         id="path14" /><path
         d="m 2890.2,1259.6 -79.9,19.4 c 10.8,-12.9 10.8,-25.9 0,-38.8 l 79.9,19.4"
         style="fill:#231f20;fill-opacity:1;fill-rule:evenodd;stroke:none"
         id="path16" /><path
         d="M 620.801,1259.6 H 840.398"
         style="fill:none;stroke:#231f20;stroke-width:8.6;stroke-linecap:butt;stroke-linejoin:miter;stroke-miterlimit:11.4737;stroke-dasharray:none;stroke-opacity:1"
         id="path18" /><path
         d="M 876.398,1259.6 796.5,1279 c 10.801,-12.9 10.801,-25.9 0,-38.8 l 79.898,19.4"
         style="fill:#231f20;fill-opacity:1;fill-rule:evenodd;stroke:none"
         id="path20" /><path
         d="m 1283.9,1259.6 h 218.9"
         style="fill:none;stroke:#231f20;stroke-width:8.6;stroke-linecap:butt;stroke-linejoin:miter;stroke-miterlimit:11.4737;stroke-dasharray:none;stroke-opacity:1"
         id="path22" /><path
         d="m 1538.8,1259.6 -79.9,19.4 c 10.8,-12.9 10.8,-25.9 0,-38.8 l 79.9,19.4"
         style="fill:#231f20;fill-opacity:1;fill-rule:evenodd;stroke:none"
         id="path24" /><path
         d="m 1947,1259.6 h 219.6"
         style="fill:none;stroke:#231f20;stroke-width:8.6;stroke-linecap:butt;stroke-linejoin:miter;stroke-miterlimit:11.4737;stroke-dasharray:none;stroke-opacity:1"
         id="path26" /><path
         d="m 2202.6,1259.6 -79.9,19.4 c 10.8,-12.9 10.8,-25.9 0,-38.8 l 79.9,19.4"
         style="fill:#231f20;fill-opacity:1;fill-rule:evenodd;stroke:none"
         id="path28" /><path
         d="M 416.301,877.301 V 1019.8"
         style="fill:none;stroke:#231f20;stroke-width:8.6;stroke-linecap:butt;stroke-linejoin:miter;stroke-miterlimit:11.4737;stroke-dasharray:none;stroke-opacity:1"
         id="path30" /><path
         d="m 416.301,1055.8 -20.102,-79.898 c 12.903,10.797 27.301,10.797 40.301,0 l -20.199,79.898"
         style="fill:#231f20;fill-opacity:1;fill-rule:evenodd;stroke:none"
         id="path32" /><path
         d="m 212.602,1464.1 h 408.199 v -409 H 212.602 Z"
         style="fill:none;stroke:#231f20;stroke-width:8.6;stroke-linecap:butt;stroke-linejoin:miter;stroke-miterlimit:11.4737;stroke-dasharray:none;stroke-opacity:1"
         id="path34" /><path
         d="m 875,1464.8 h 408.9 v -409 H 875 Z"
         style="fill:none;stroke:#231f20;stroke-width:8.6;stroke-linecap:butt;stroke-linejoin:miter;stroke-miterlimit:11.4737;stroke-dasharray:none;stroke-opacity:1"
         id="path36" /><path
         d="m 1538.1,954.301 h 408.2 V 545.398 h -408.2 z"
         style="fill:none;stroke:#231f20;stroke-width:8.6;stroke-linecap:butt;stroke-linejoin:miter;stroke-miterlimit:11.4737;stroke-dasharray:none;stroke-opacity:1"
         id="path38" /><path
         d="m 1538.1,1464.8 h 408.2 v -409 h -408.2 z"
         style="fill:none;stroke:#231f20;stroke-width:8.6;stroke-linecap:butt;stroke-linejoin:miter;stroke-miterlimit:11.4737;stroke-dasharray:none;stroke-opacity:1"
         id="path40" /><path
         d="m 417,878 c 69.898,0 127.5,-56.898 127.5,-128.199 0,-70.5 -57.602,-127.403 -127.5,-127.403 -70.5,0 -128.102,56.903 -128.102,127.403 C 288.898,821.102 346.5,878 417,878 Z"
         style="fill:none;stroke:#231f20;stroke-width:8.6;stroke-linecap:butt;stroke-linejoin:miter;stroke-miterlimit:11.4737;stroke-dasharray:none;stroke-opacity:1"
         id="path42" /><path
         d="m 493.398,749.801 c 0,-28 -17.296,-51.102 -38.199,-51.102 -20.898,0 -38.199,23.102 -38.199,51.102"
         style="fill:none;stroke:#231f20;stroke-width:8.6;stroke-linecap:butt;stroke-linejoin:miter;stroke-miterlimit:11.4737;stroke-dasharray:none;stroke-opacity:1"
         id="path44" /><path
         d="m 340,749.801 c 0,28.801 18,51.898 38.898,51.898 C 399,801.699 417,778.602 417,749.801"
         style="fill:none;stroke:#231f20;stroke-width:8.6;stroke-linecap:butt;stroke-linejoin:miter;stroke-miterlimit:11.4737;stroke-dasharray:none;stroke-opacity:1"
         id="path46" /><path
         d="m 2330.1,1387.8 c 69.8,0 127.4,-56.9 127.4,-128.2 0,-70.6 -57.6,-127.4 -127.4,-127.4 -70.6,0 -128.2,56.8 -128.2,127.4 0,71.3 57.6,128.2 128.2,128.2 z"
         style="fill:none;stroke:#231f20;stroke-width:8.6;stroke-linecap:butt;stroke-linejoin:miter;stroke-miterlimit:11.4737;stroke-dasharray:none;stroke-opacity:1"
         id="path48" /><path
         d="m 2406.4,1259.6 c 0,-28.1 -17.3,-51.1 -38.2,-51.1 -20.8,0 -38.1,23 -38.1,51.1"
         style="fill:none;stroke:#231f20;stroke-width:8.6;stroke-linecap:butt;stroke-linejoin:miter;stroke-miterlimit:11.4737;stroke-dasharray:none;stroke-opacity:1"
         id="path50" /><path
         d="m 2253,1259.6 c 0,28.8 18,51.8 38.9,51.8 20.2,0 38.2,-23 38.2,-51.8"
         style="fill:none;stroke:#231f20;stroke-width:8.6;stroke-linecap:butt;stroke-linejoin:miter;stroke-miterlimit:11.4737;stroke-dasharray:none;stroke-opacity:1"
         id="path52" /><path
         d="m 2259.4,1441.66 15.55,41.45 c 0,0.65 0.64,1.3 0.64,1.94 0,0 0,0.65 0,1.3 0,1.94 -0.64,2.59 -1.94,3.24 -1.29,0.64 -3.88,0.64 -6.48,0.64 v 1.95 h 18.14 v -1.95 c -1.94,0 -3.24,-0.64 -4.54,-1.94 -0.64,-1.94 -1.94,-3.88 -3.23,-5.83 v -0.64 h -0.65 l -16.84,-46.64 v 0 l -2.59,-6.48 h -2.59 l -18.79,45.34 -3.24,8.42 c 0,0.65 -0.64,1.95 -0.64,1.95 0,0.64 -0.65,1.29 -0.65,1.94 -0.65,1.29 -1.94,2.59 -1.94,2.59 -0.65,0.65 -1.95,1.29 -3.24,1.29 v 1.95 h 23.96 v -1.95 c -0.65,0 -1.29,0 -1.94,0 0,0 -0.65,0 -1.3,0 -1.29,0 -2.59,-0.64 -3.88,-1.29 -0.65,0 -1.3,-0.65 -1.3,-1.94 0,-0.65 0,-1.3 0,-1.95 0,0 0,-0.64 0.65,-1.29 l 16.84,-42.1"
         style="fill:#231f20;fill-opacity:1;fill-rule:evenodd;stroke:none"
         id="path54" /><path
         d="m 2348.79,1468.86 c 0,5.83 -1.3,10.37 -3.89,13.6 -2.6,2.59 -5.19,5.18 -8.42,6.48 -1.94,0.65 -3.24,1.29 -5.18,1.29 -1.95,0.65 -3.24,0.65 -4.54,0.65 -6.47,-0.65 -12.3,-3.88 -15.54,-9.71 -3.89,-6.48 -5.83,-12.96 -5.83,-20.08 v -0.65 -0.65 c 0,-7.77 1.94,-14.25 5.83,-20.08 3.88,-6.47 9.71,-9.06 16.84,-9.06 5.83,0 11.01,1.94 14.89,5.83 3.89,3.23 6.48,9.06 6.48,14.9 h 2.59 v -20.73 h -2.59 l -1.94,4.53 c -1.3,-0.64 -2.59,-1.94 -4.54,-2.59 -1.94,-1.29 -3.24,-1.94 -5.18,-2.59 -1.94,0 -3.88,-0.65 -5.83,-0.65 -1.29,0 -3.24,-0.65 -4.53,-0.65 -9.07,0 -16.84,2.6 -23.32,8.43 -5.83,5.82 -9.07,13.6 -9.07,23.31 0,0.65 0,1.95 0,3.24 0,1.3 0.65,2.59 0.65,3.24 1.3,6.47 4.54,12.31 9.07,17.49 5.18,5.18 11.66,8.42 20.08,8.42 3.24,0 6.48,0 9.07,-0.65 3.24,0 6.47,-1.3 9.06,-3.24 0.65,-0.65 1.3,-0.65 1.95,-1.3 0.64,-0.64 1.29,-1.29 1.94,-1.94 l 1.95,4.53 h 2.59 v -21.37 h -2.59"
         style="fill:#231f20;fill-opacity:1;fill-rule:evenodd;stroke:none"
         id="path56" /><path
         d="m 2368.21,1464.33 c 0,0.65 0,0.65 0,1.3 v 0.64 c 0.65,6.48 3.24,12.31 8.42,18.14 4.54,5.82 11.66,9.07 21.38,9.07 h 0.65 0.64 c 0.65,0 1.3,0 1.3,0 0,0 0.65,0 1.29,0 6.48,-0.65 12.96,-3.25 18.79,-8.43 5.83,-5.18 9.07,-12.95 9.71,-22.02 v -0.64 c 0,0 0,-0.65 0,-1.3 0,-8.42 -2.59,-16.19 -7.77,-22.02 -5.18,-6.48 -13.6,-9.07 -23.32,-9.07 v 0 c -0.64,0 -0.64,0 -0.64,0 -9.07,0 -15.55,1.94 -20.73,7.13 -4.54,4.53 -7.77,10.36 -9.07,16.19 0,1.29 -0.65,2.59 -0.65,3.88 0,1.3 0,3.24 0,3.89 0,0.65 0,1.3 0,1.94 z m 51.82,-0.65 c 0,7.12 -1.94,12.95 -3.89,16.84 -2.59,3.89 -5.18,6.48 -8.42,8.42 -1.94,1.29 -3.24,1.94 -5.18,1.94 -1.94,0.65 -3.24,0.65 -4.53,0.65 -6.48,0 -11.66,-3.24 -14.9,-9.71 -3.24,-6.48 -5.18,-12.96 -5.18,-20.73 v 0 0 c 0,-7.13 1.3,-14.25 5.18,-20.08 3.24,-5.83 9.07,-9.07 16.19,-9.07 5.83,0 10.37,1.95 13.61,5.83 3.23,4.53 5.82,9.72 7.12,14.25 0,1.94 0,3.24 0,4.53 0,0.65 0.65,2.6 0.65,3.89 0,0 0,0.65 0,1.3 0,0.65 -0.65,1.29 -0.65,1.94"
         style="fill:#231f20;fill-opacity:1;fill-rule:evenodd;stroke:none"
         id="path58" /><path
         d="m 357.852,519.148 -16.192,23.317 c -0.648,0 -0.648,1.293 -1.297,1.293 -0.648,0.648 -1.297,1.297 -1.297,1.297 -1.293,1.297 -2.589,2.59 -3.886,3.238 -0.645,0.648 -3.239,1.297 -5.18,1.941 v 1.946 h 27.203 v -1.946 c -1.941,0 -3.887,0 -5.18,-0.644 -1.945,-0.649 -2.593,-1.297 -2.593,-2.594 0,0 0,-0.644 0.648,-1.293 0,-0.648 0.649,-1.945 1.297,-2.59 l 12.953,-17.488 12.953,16.191 c 0.649,0.649 1.297,1.942 1.297,1.942 0,0.648 0.649,1.945 0.649,2.594 0,0.644 -0.649,1.941 -1.946,2.589 -1.293,0.649 -3.238,1.293 -5.828,1.293 v 1.946 h 22.024 v -1.946 c -2.594,0 -5.184,-0.644 -7.125,-1.941 -1.946,-1.941 -3.239,-3.887 -4.536,-5.18 l -0.648,-0.648 -0.648,-0.649 v -0.648 c -0.649,-0.648 -0.649,-0.648 -1.293,-1.297 l -13.602,-16.84 13.602,-18.781 c 1.293,-1.297 2.589,-3.238 3.886,-4.535 0.645,-1.942 1.942,-3.238 2.59,-3.887 1.293,-1.293 2.59,-2.59 3.238,-3.238 1.293,0 3.239,-0.649 5.829,-0.649 V 490 h -27.852 v 1.941 c 2.59,0 5.184,0 5.832,0.649 1.293,0 1.941,0.648 1.941,1.297 0,0.648 0,1.293 -0.648,1.941 0,0.649 -0.648,1.297 -1.293,1.945 l -13.602,19.43 -12.957,-18.137 c -0.648,-1.293 -1.293,-1.941 -1.941,-2.589 0,-0.649 -0.648,-1.297 -0.648,-1.942 0,-1.297 0.648,-1.945 1.941,-1.945 1.297,-0.649 3.887,-0.649 6.48,-0.649 V 490 h -21.375 v 1.941 c 1.942,0 3.239,0 3.887,0.649 1.293,0.648 2.59,1.297 3.238,1.945 0.649,0.645 1.293,0.645 1.293,1.293 0.649,0.649 1.297,1.297 1.946,1.945 l 16.84,21.375"
         style="fill:#231f20;fill-opacity:1;fill-rule:evenodd;stroke:none"
         id="path60" /><path
         d="m 405.781,524.328 c 0,0.649 0,0.649 0,1.297 v 0.645 c 0.649,6.48 3.239,12.308 8.418,18.136 4.535,5.828 11.66,9.071 21.375,9.071 h 0.649 0.648 c 0.649,0 1.293,0 1.293,0 0,0 0.649,0 1.297,0 6.477,-0.649 12.953,-3.243 18.785,-8.422 5.828,-5.184 9.067,-12.953 9.715,-22.024 v -0.644 c 0,0 0,-0.649 0,-1.297 0,-8.422 -2.59,-16.192 -7.773,-22.024 C 455.008,492.59 446.586,490 436.871,490 v 0 c -0.648,0 -0.648,0 -0.648,0 -9.067,0 -15.543,1.941 -20.727,7.125 -4.535,4.535 -7.773,10.363 -9.066,16.191 0,1.297 -0.649,2.59 -0.649,3.887 0,1.297 0,3.238 0,3.887 0,0.648 0,1.297 0,1.941 z m 51.817,-0.648 c 0,7.125 -1.946,12.953 -3.887,16.84 -2.59,3.886 -5.184,6.476 -8.422,8.421 -1.941,1.293 -3.238,1.942 -5.18,1.942 -1.945,0.648 -3.238,0.648 -4.535,0.648 -6.476,0 -11.656,-3.238 -14.894,-9.715 -3.239,-6.476 -5.184,-12.953 -5.184,-20.726 v 0 0 c 0,-7.125 1.297,-14.25 5.184,-20.078 3.238,-5.832 9.066,-9.071 16.191,-9.071 5.828,0 10.363,1.946 13.602,5.832 3.238,4.532 5.828,9.715 7.125,14.25 0,1.942 0,3.239 0,4.532 0,0.648 0.648,2.593 0.648,3.886 0,0 0,0.649 0,1.297 0,0.649 -0.648,1.293 -0.648,1.942"
         style="fill:#231f20;fill-opacity:1;fill-rule:evenodd;stroke:none"
         id="path62" /><path
         d="m 322.305,1551.45 h -8.418 l 0.648,3.89 h 7.77 c 0,0.65 0,1.29 0,1.29 v 0.65 0.65 c 0,0.65 0,1.3 0,1.3 0,6.47 1.297,12.95 3.886,18.13 2.594,5.83 7.774,8.42 14.899,8.42 0.648,0 1.297,0 2.59,0 1.297,0 2.59,-0.65 3.238,-0.65 1.945,-0.65 3.887,-1.29 5.184,-1.94 0.648,-1.3 1.941,-2.59 1.941,-4.53 0,-1.3 -0.648,-3.24 -1.293,-3.89 -0.648,-1.29 -1.297,-1.94 -2.594,-1.94 h -0.648 -0.645 c -0.648,0 -1.297,0.65 -1.945,1.29 -0.648,0.65 -1.293,1.3 -1.941,1.95 v 0.64 c 0,0.65 -0.649,1.3 -0.649,1.3 -0.648,0.65 -1.941,1.94 -2.59,2.59 -0.648,1.29 -2.59,1.94 -3.886,1.94 v 0 h -0.649 v 0 h -0.648 c -1.942,-0.65 -3.239,-1.94 -3.887,-3.24 -0.645,-1.29 -1.941,-3.88 -1.941,-5.18 0,-0.64 0,-1.94 0,-2.59 0,-0.65 0,-1.94 0,-2.59 v -0.65 -0.65 -12.3 h 12.304 l -1.293,-3.89 h -11.011 v -33.68 c 0,-1.29 0.648,-2.59 1.296,-3.88 0.645,-1.3 3.239,-1.3 7.125,-1.3 V 1510 h -24.613 v 2.59 c 2.59,0 4.531,0 5.828,0.65 1.297,0.65 1.942,3.24 1.942,6.47 v 31.74"
         style="fill:#231f20;fill-opacity:1;fill-rule:evenodd;stroke:none"
         id="path64" /><path
         d="m 452.305,961.453 h -8.418 l 0.648,3.887 h 7.77 c 0,0.648 0,1.293 0,1.293 v 0.648 0.649 c 0,0.648 0,1.297 0,1.297 0,6.476 1.297,12.953 3.886,18.132 2.594,5.832 7.774,8.422 14.899,8.422 0.648,0 1.297,0 2.59,0 1.297,0 2.59,-0.648 3.238,-0.648 1.945,-0.649 3.887,-1.297 5.184,-1.942 0.648,-1.296 1.941,-2.593 1.941,-4.535 0,-1.297 -0.648,-3.238 -1.293,-3.886 -0.648,-1.293 -1.297,-1.942 -2.594,-1.942 h -0.648 -0.645 c -0.648,0 -1.297,0.649 -1.945,1.293 -0.648,0.649 -1.293,1.297 -1.941,1.945 v 0.649 c 0,0.644 -0.649,1.293 -0.649,1.293 -0.648,0.648 -1.941,1.945 -2.59,2.59 -0.648,1.297 -2.59,1.945 -3.886,1.945 v 0 h -0.649 v 0 h -0.648 c -1.942,-0.648 -3.239,-1.945 -3.887,-3.238 -0.645,-1.297 -1.941,-3.887 -1.941,-5.184 0,-0.644 0,-1.941 0,-2.59 0,-0.648 0,-1.941 0,-2.59 v -0.648 -0.648 -12.305 h 12.304 l -1.293,-3.887 h -11.011 v -33.68 c 0,-1.296 0.648,-2.593 1.296,-3.886 0.645,-1.297 3.239,-1.297 7.125,-1.297 V 920 h -24.613 v 2.59 c 2.59,0 4.531,0 5.828,0.648 1.297,0.649 1.942,3.239 1.942,6.477 v 31.738"
         style="fill:#231f20;fill-opacity:1;fill-rule:evenodd;stroke:none"
         id="path66" /><path
         d="m 2592.3,1341.45 h -8.41 l 0.65,3.89 h 7.76 c 0,0.65 0,1.29 0,1.29 v 0.65 0.65 c 0,0.65 0,1.3 0,1.3 0,6.47 1.3,12.95 3.89,18.13 2.6,5.83 7.77,8.42 14.9,8.42 0.65,0 1.3,0 2.59,0 1.3,0 2.59,-0.65 3.24,-0.65 1.94,-0.65 3.88,-1.29 5.18,-1.94 0.65,-1.3 1.94,-2.59 1.94,-4.53 0,-1.3 -0.65,-3.24 -1.29,-3.89 -0.65,-1.29 -1.3,-1.94 -2.59,-1.94 h -0.65 -0.65 c -0.65,0 -1.29,0.65 -1.94,1.29 -0.65,0.65 -1.29,1.3 -1.94,1.95 v 0.64 c 0,0.65 -0.65,1.3 -0.65,1.3 -0.65,0.65 -1.94,1.94 -2.59,2.59 -0.65,1.29 -2.59,1.94 -3.89,1.94 v 0 h -0.65 v 0 h -0.65 c -1.94,-0.65 -3.23,-1.94 -3.88,-3.24 -0.65,-1.29 -1.94,-3.88 -1.94,-5.18 0,-0.64 0,-1.94 0,-2.59 0,-0.65 0,-1.94 0,-2.59 v -0.65 -0.65 -12.3 h 12.3 l -1.29,-3.89 h -11.01 v -33.68 c 0,-1.29 0.65,-2.59 1.29,-3.88 0.65,-1.3 3.24,-1.3 7.13,-1.3 V 1300 h -24.61 v 2.59 c 2.59,0 4.53,0 5.82,0.65 1.3,0.65 1.94,3.24 1.94,6.47 v 31.74"
         style="fill:#231f20;fill-opacity:1;fill-rule:evenodd;stroke:none"
         id="path68" /><path
         d="m 369.066,1522.75 c 0,2.59 -0.644,3.88 -1.293,4.53 -0.648,0 -1.945,0.65 -3.886,0.65 v 1.94 h 21.375 0.644 c 0.649,0 0.649,-0.64 1.297,-0.64 3.238,0 7.125,-1.3 10.363,-3.24 3.239,-2.6 5.184,-5.83 5.184,-9.72 0,-4.53 -1.297,-7.77 -3.242,-9.07 -1.942,-1.94 -5.18,-3.88 -8.418,-5.18 1.297,-0.64 2.59,-1.94 3.238,-3.23 1.297,-1.3 2.59,-2.6 3.887,-4.54 0.648,0 0.648,-0.65 0.648,-1.3 0.645,-0.65 1.293,-1.29 1.293,-1.94 0.649,0 0.649,-0.65 0.649,-0.65 0.648,-0.65 0.648,-0.65 0.648,-1.29 0.649,-0.65 1.297,-1.3 1.942,-2.59 0,-0.65 0.648,-1.3 1.296,-1.94 0.649,-0.65 1.297,-1.95 1.942,-2.6 0.648,-0.64 1.945,-0.64 3.238,-0.64 0.649,0 0.649,0 0.649,0 0.648,0 0.648,0 0.648,0 v -1.3 h -12.305 c -0.648,0.65 -1.297,1.94 -1.945,3.24 -0.648,1.3 -1.293,1.94 -1.941,3.24 -0.649,0 -0.649,0.65 -1.297,1.29 0,0 -0.649,0.65 -0.649,1.3 -0.644,0.64 -1.293,1.94 -1.941,2.59 -0.649,0.64 -1.297,1.94 -1.942,2.59 -0.648,0.65 -1.296,1.94 -1.945,2.59 0,0 -0.648,1.3 -1.297,1.3 -1.293,1.29 -2.59,1.94 -3.883,2.59 -1.296,0 -3.238,0.65 -5.183,1.29 v -15.54 c 0,-2.59 0,-3.89 1.297,-4.54 0.648,-0.64 2.59,-0.64 5.179,-0.64 v -1.3 h -19.429 v 1.3 c 0.648,0 0.648,0 0.648,0 0.645,0 1.293,0 1.293,0 1.297,0 2.594,0 2.594,1.29 0.644,0.65 0.644,1.95 0.644,3.24 v 0.65 0.65 z m 7.774,-19.43 h 0.648 c 0.649,0 1.297,0 1.297,0 h 0.645 0.648 0.649 c 0.648,0 0.648,0 1.296,0 2.59,0 5.829,1.29 8.418,2.59 2.59,1.29 3.887,4.53 4.536,9.07 v 0.65 c 0,0.64 0,1.29 0,1.29 -0.649,2.59 -1.946,5.18 -3.239,7.12 -1.297,2.59 -5.183,3.89 -9.715,3.89 -1.945,0 -3.238,-0.65 -3.886,-0.65 -1.297,-0.65 -1.297,-1.94 -1.297,-4.53 v -19.43"
         style="fill:#231f20;fill-opacity:1;fill-rule:evenodd;stroke:none"
         id="path70" /><path
         d="m 426.715,1512.39 v 11 c 0,1.95 0,3.24 -0.649,3.89 -0.648,0 -1.945,0.65 -2.589,0.65 -0.649,0 -1.297,0 -1.297,0 -0.649,0 -0.649,0 -1.297,0 v 1.94 h 36.918 v 0 h 0.648 l 3.887,-12.3 h -1.941 c -0.649,0.64 -0.649,1.29 -0.649,1.94 -0.648,0.65 -1.297,1.29 -1.297,1.29 -1.941,2.59 -3.238,4.54 -5.179,5.19 -1.946,1.29 -4.536,1.94 -7.774,1.94 h -11.012 v -21.38 h 5.832 c 0.645,0 0.645,0 1.293,0 0.649,0 1.297,0 1.297,0 1.942,0 3.239,0.65 4.535,1.95 1.942,1.29 2.59,3.89 3.239,7.13 h 1.293 v -21.38 h -1.293 c -0.649,3.89 -1.946,6.48 -3.239,7.77 -1.945,1.3 -4.535,1.94 -7.125,1.94 h -5.832 v -18.13 c 0,-1.29 0.649,-2.59 1.297,-3.24 0.649,-0.65 1.942,-1.29 3.887,-1.29 h 7.773 c 3.883,0 7.122,1.29 9.067,3.24 2.59,2.59 4.535,5.17 6.476,9.06 h 1.297 L 461.688,1480 H 424.77 v 0 h -3.887 v 1.3 c 2.594,0 4.535,0.64 5.183,1.29 0.649,0.65 0.649,1.95 0.649,3.89 v 25.91"
         style="fill:#231f20;fill-opacity:1;fill-rule:evenodd;stroke:none"
         id="path72" /><path
         d="m 483.063,1510.44 v 13.6 c 0,1.3 0,2.59 -0.649,3.24 -0.644,0 -2.59,0.65 -5.18,0.65 v 1.94 h 37.567 v 0 0 l 3.887,-11.66 h -1.946 c 0,0.65 -0.644,0.65 -0.644,1.3 -0.649,0.65 -0.649,1.29 -1.297,1.29 -0.649,1.95 -2.59,3.89 -4.535,5.19 -1.942,1.29 -4.532,1.94 -7.125,1.94 h -12.305 v -21.38 h 6.477 c 1.941,0 3.886,0.65 5.179,1.3 1.946,1.3 3.242,3.24 3.242,6.48 h 1.942 v -18.79 h -1.942 v 0 c 0,0.65 0,0.65 0,0.65 0,1.95 -0.648,3.89 -1.296,5.19 -0.649,1.94 -3.239,2.58 -7.125,3.23 h -6.477 v -16.84 c 0,-2.59 0,-4.53 0.648,-5.18 0.645,-0.65 2.59,-1.29 5.829,-1.29 v -1.3 h -20.079 v 1.3 c 3.239,0 5.18,0.64 5.18,1.29 0.649,0.65 0.649,1.95 0.649,4.54 v 0.64 c 0,0.65 0,0.65 0,0.65 v 22.02"
         style="fill:#231f20;fill-opacity:1;fill-rule:evenodd;stroke:none"
         id="path74" /><path
         d="m 512.023,923.316 -12.957,18.137 c 0,0.649 -0.644,1.297 -0.644,1.297 -0.649,0.645 -1.297,1.293 -1.297,1.293 -0.648,0.648 -1.945,1.945 -2.59,2.59 -1.297,0.648 -3.238,0.648 -4.535,1.297 v 1.941 h 22.023 v -1.941 c -1.945,0 -3.238,0 -4.535,-0.649 -1.297,0 -1.945,-0.648 -1.945,-1.293 0,-0.648 0,-1.297 0,-1.945 0.648,0 1.297,-1.293 1.297,-1.941 l 10.363,-13.602 10.363,12.305 c 0.649,1.297 1.297,1.945 1.297,1.945 0,0.645 0,1.293 0,1.941 0,1.297 0,1.942 -1.297,2.59 -0.648,0 -2.589,0.649 -4.535,0.649 v 1.941 h 18.137 v -1.941 c -2.59,0 -5.18,-0.649 -6.477,-1.942 -1.296,-0.648 -2.589,-2.593 -3.886,-3.886 v 0 -0.649 l -0.649,-0.648 -0.648,-0.649 -11.008,-13.601 11.008,-14.895 c 1.297,-1.945 1.945,-3.238 2.594,-3.887 0.648,-1.296 1.941,-2.593 2.589,-3.238 0.649,-1.297 1.942,-1.945 2.59,-2.594 0.649,0 2.59,-0.644 3.887,-0.644 V 900 h -21.375 v 1.297 c 1.945,0 3.887,0 4.535,0.644 0.649,0 1.297,0.649 1.297,1.297 0,0 0,0.649 0,1.297 -0.648,0.645 -1.297,1.293 -1.297,1.942 l -11.012,15.546 -10.363,-14.898 c -0.648,-0.648 -1.293,-1.945 -1.293,-1.945 -0.648,-0.645 -0.648,-1.293 -0.648,-1.942 0,-0.648 0.648,-1.297 1.293,-1.297 1.297,-0.644 3.238,-0.644 5.183,-0.644 V 900 H 490 v 1.297 c 1.941,0 3.238,0 3.887,0.644 0.648,0.649 1.293,1.297 2.59,1.297 0,0.649 0.648,1.297 0.648,1.297 0.648,0.645 1.297,1.293 1.297,1.942 l 13.601,16.839"
         style="fill:#231f20;fill-opacity:1;fill-rule:evenodd;stroke:none"
         id="path76" /><path
         d="m 550.234,927.203 c 0,0.649 0,0.649 0,1.297 0,0 0.649,0 0.649,0.648 0,4.532 2.594,9.715 6.476,14.247 3.887,4.535 9.719,7.125 16.84,7.773 h 0.649 0.648 0.649 c 0.648,0 0.648,-0.648 1.296,-0.648 5.18,0 10.36,-2.59 14.895,-6.477 4.535,-4.535 7.125,-10.363 7.773,-17.488 0,-0.649 0,-0.649 0,-0.649 0,-0.644 0,-0.644 0,-0.644 0,-7.125 -1.945,-13.602 -6.476,-18.137 C 589.746,901.941 583.27,900 575.496,900 v 0 c -0.648,0 -0.648,0 -0.648,0 -7.125,0 -12.953,1.297 -16.192,5.18 -3.886,3.886 -6.476,8.422 -7.125,13.605 -0.648,0.645 -1.297,1.942 -1.297,3.238 0,0.645 0,1.942 0,2.59 0,0.649 0,1.293 0,1.293 0,0.649 0,1.297 0,1.297 z m 42.102,0 c -0.648,5.184 -1.941,10.363 -3.887,12.953 -1.941,3.239 -3.886,5.832 -6.476,7.125 -1.293,0.649 -2.59,1.297 -3.887,1.297 -1.293,0.649 -2.59,0.649 -3.887,0.649 -5.179,0 -9.066,-3.239 -11.656,-7.774 -2.59,-5.183 -4.535,-11.012 -4.535,-16.84 v 0 0 c 0,-5.828 1.297,-11.011 3.887,-16.191 3.238,-4.535 7.773,-7.125 13.601,-7.125 4.535,0 8.422,1.941 10.363,5.18 3.239,3.238 5.184,7.125 5.829,11.011 0,1.297 0.648,2.59 0.648,3.239 0,1.296 0,2.589 0,3.238 0,0.648 0,1.297 0,1.297 0,0.644 0,1.293 0,1.941"
         style="fill:#231f20;fill-opacity:1;fill-rule:evenodd;stroke:none"
         id="path78" /><path
         d="m 2639.71,1309.15 v 11.65 c 0,2.59 0,4.54 -0.64,5.83 -0.65,0.65 -3.24,1.3 -5.83,1.3 v 1.94 h 20.72 v -1.94 c -2.58,0 -4.53,-0.65 -5.17,-0.65 -1.3,-1.29 -1.95,-3.24 -1.95,-6.48 v -34.97 c 0,-1.94 0.65,-3.24 1.95,-3.89 0.64,-0.64 2.59,-0.64 5.17,-0.64 v -1.3 h -20.72 v 1.3 0 0 0 h 0.65 c 1.29,0 2.59,0 3.88,0.64 1.3,0 1.94,1.95 1.94,4.54 v 22.67"
         style="fill:#231f20;fill-opacity:1;fill-rule:evenodd;stroke:none"
         id="path80" /><path
         d="m 2674.04,1322.1 -6.47,-7.12 h -1.3 l 5.18,14.89 h 35.63 l -25.26,-36.92 v 0 l -7.78,-11.65 h 16.19 c 2.6,0 4.54,0 5.84,0.64 0.64,0 2.59,0.65 3.23,1.3 0.65,0.65 1.3,1.3 1.3,1.94 0.65,0.65 1.29,1.3 2.59,2.59 l 5.18,7.13 h 1.3 l -5.19,-14.9 h -36.91 v 0 h -3.89 l 25.91,36.27 v 0 l 8.42,11.66 h -15.55 c -1.29,0 -2.59,-0.65 -3.88,-1.3 -1.3,-0.64 -2.59,-1.94 -3.24,-2.59 -0.65,-0.65 -0.65,-0.65 -0.65,-1.29 0,0 -0.65,0 -0.65,-0.65"
         style="fill:#231f20;fill-opacity:1;fill-rule:evenodd;stroke:none"
         id="path82" /><path
         d="m 2759.54,1305.91 v 17.48 c 0,1.95 -0.65,3.24 -0.65,3.89 -0.64,0 -2.59,0.65 -5.18,0.65 v 1.94 h 18.78 v -1.94 c 0,0 0,0 -0.64,0 h -0.65 c -1.3,0 -1.95,-0.65 -2.59,-1.3 -1.3,-0.64 -1.3,-3.24 -1.3,-6.47 v -34.33 c 0,-1.29 0,-2.59 0,-3.24 0.65,-0.65 1.94,-1.29 3.24,-1.29 0.65,0 0.65,0 1.3,0 h 0.64 v -1.3 h -18.78 v 1.3 c 1.3,0 3.24,0 3.89,0.64 1.29,0.65 1.94,1.95 1.94,3.89 v 17.49 h -26.56 v -16.84 c 0,-1.94 0.65,-3.24 1.3,-3.89 0,-1.29 1.29,-1.29 2.59,-1.29 0.65,0 0.65,0 1.3,0 h 0.64 v -1.3 h -18.78 v 1.3 c 0.65,0 0.65,0 1.29,0 h 0.65 c 1.3,0 2.59,0.64 3.24,1.29 0.65,1.3 0.65,3.24 0.65,5.83 v 31.09 0.65 0.64 c 0,1.95 0,3.89 -0.65,5.19 0,1.29 -1.94,1.94 -5.18,1.94 v 1.94 h 20.08 v -1.94 c -3.24,0 -5.18,-0.65 -5.83,-1.3 -0.65,-0.64 -1.3,-2.59 -1.3,-4.53 v -16.19 h 26.56"
         style="fill:#231f20;fill-opacity:1;fill-rule:evenodd;stroke:none"
         id="path84" /><path
         d="M 2330.1,1130.7 V 749.102 h -346.3"
         style="fill:none;stroke:#231f20;stroke-width:8.6;stroke-linecap:butt;stroke-linejoin:miter;stroke-miterlimit:11.4737;stroke-dasharray:none;stroke-opacity:1"
         id="path86" /><path
         d="M 1947.8,749.102 2028.4,729 c -10.8,12.898 -10.8,27.301 0,40.301 l -80.6,-20.199"
         style="fill:#231f20;fill-opacity:1;fill-rule:evenodd;stroke:none"
         id="path88" /><path
         d="M 1538.8,748.402 H 1080.2 V 1017.7"
         style="fill:none;stroke:#231f20;stroke-width:8.6;stroke-linecap:butt;stroke-linejoin:miter;stroke-miterlimit:11.4737;stroke-dasharray:none;stroke-opacity:1"
         id="path90" /><path
         d="M 1080.2,1053.7 1060,973.801 c 13,10.801 27.4,10.801 40.3,0 l -20.1,79.899"
         style="fill:#231f20;fill-opacity:1;fill-rule:evenodd;stroke:none"
         id="path92" /><path
         d="m 1564.7,544.602 v -88.5"
         style="fill:none;stroke:#231f20;stroke-width:5.8;stroke-linecap:butt;stroke-linejoin:miter;stroke-miterlimit:11.4737;stroke-dasharray:none;stroke-opacity:1"
         id="path94" /><path
         d="m 1564.7,457.5 c 7.9,0 14.4,-6.5 14.4,-15.102 0,-8.597 -6.5,-15.097 -14.4,-15.097 -7.9,0 -14.4,6.5 -14.4,15.097 0,8.602 6.5,15.102 14.4,15.102"
         style="fill:none;stroke:#231f20;stroke-width:10.1;stroke-linecap:butt;stroke-linejoin:miter;stroke-miterlimit:11.4737;stroke-dasharray:none;stroke-opacity:1"
         id="path96" /><path
         d="m 1615.8,544.602 v -88.5"
         style="fill:none;stroke:#231f20;stroke-width:5.8;stroke-linecap:butt;stroke-linejoin:miter;stroke-miterlimit:11.4737;stroke-dasharray:none;stroke-opacity:1"
         id="path98" /><path
         d="m 1615.8,457.5 c 8,0 14.4,-6.5 14.4,-15.102 0,-8.597 -6.4,-15.097 -14.4,-15.097 -7.9,0 -14.4,6.5 -14.4,15.097 0,8.602 6.5,15.102 14.4,15.102"
         style="fill:none;stroke:#231f20;stroke-width:10.1;stroke-linecap:butt;stroke-linejoin:miter;stroke-miterlimit:11.4737;stroke-dasharray:none;stroke-opacity:1"
         id="path100" /><path
         d="m 1666.2,544.602 v -88.5"
         style="fill:none;stroke:#231f20;stroke-width:5.8;stroke-linecap:butt;stroke-linejoin:miter;stroke-miterlimit:11.4737;stroke-dasharray:none;stroke-opacity:1"
         id="path102" /><path
         d="m 1666.2,457.5 c 8,0 14.4,-6.5 14.4,-15.102 0,-8.597 -6.4,-15.097 -14.4,-15.097 -7.9,0 -14.4,6.5 -14.4,15.097 0,8.602 6.5,15.102 14.4,15.102"
         style="fill:none;stroke:#231f20;stroke-width:10.1;stroke-linecap:butt;stroke-linejoin:miter;stroke-miterlimit:11.4737;stroke-dasharray:none;stroke-opacity:1"
         id="path104" /><path
         d="m 1870.7,544.602 v -88.5"
         style="fill:none;stroke:#231f20;stroke-width:5.8;stroke-linecap:butt;stroke-linejoin:miter;stroke-miterlimit:11.4737;stroke-dasharray:none;stroke-opacity:1"
         id="path106" /><path
         d="m 1870.7,457.5 c 7.9,0 14.4,-6.5 14.4,-15.102 0,-8.597 -6.5,-15.097 -14.4,-15.097 -7.9,0 -14.4,6.5 -14.4,15.097 0,8.602 6.5,15.102 14.4,15.102"
         style="fill:none;stroke:#231f20;stroke-width:10.1;stroke-linecap:butt;stroke-linejoin:miter;stroke-miterlimit:11.4737;stroke-dasharray:none;stroke-opacity:1"
         id="path108" /><path
         d="m 1921.8,544.602 v -88.5"
         style="fill:none;stroke:#231f20;stroke-width:5.8;stroke-linecap:butt;stroke-linejoin:miter;stroke-miterlimit:11.4737;stroke-dasharray:none;stroke-opacity:1"
         id="path110" /><path
         d="m 1921.8,457.5 c 8,0 14.4,-6.5 14.4,-15.102 0,-8.597 -6.4,-15.097 -14.4,-15.097 -7.9,0 -14.4,6.5 -14.4,15.097 0,8.602 6.5,15.102 14.4,15.102"
         style="fill:none;stroke:#231f20;stroke-width:10.1;stroke-linecap:butt;stroke-linejoin:miter;stroke-miterlimit:11.4737;stroke-dasharray:none;stroke-opacity:1"
         id="path112" /><path
         d="m 1713.24,464.535 c 0,1.942 0.65,3.238 1.94,4.531 1.3,0.649 2.59,1.946 3.89,1.946 v 0 0 c 1.94,0 3.23,-0.649 4.53,-1.946 0.65,-0.644 1.94,-2.589 1.94,-4.531 0,-1.945 -1.29,-3.238 -1.94,-3.887 -1.3,-0.648 -2.59,-1.296 -4.53,-1.296 -1.3,0 -2.59,0.648 -3.89,1.296 -1.29,0.649 -1.94,1.942 -1.94,3.887"
         style="fill:#231f20;fill-opacity:1;fill-rule:evenodd;stroke:none"
         id="path114" /><path
         d="m 1741.74,464.535 c 0,1.942 0.65,3.238 1.94,4.531 1.3,0.649 2.59,1.946 3.89,1.946 v 0 0 c 1.94,0 3.23,-0.649 4.53,-1.946 0.65,-0.644 1.94,-2.589 1.94,-4.531 0,-1.945 -1.29,-3.238 -1.94,-3.887 -1.3,-0.648 -2.59,-1.296 -4.53,-1.296 -1.3,0 -2.59,0.648 -3.89,1.296 -1.29,0.649 -1.94,1.942 -1.94,3.887"
         style="fill:#231f20;fill-opacity:1;fill-rule:evenodd;stroke:none"
         id="path116" /><path
         d="m 1770.23,464.535 c 0,1.942 0.65,3.238 1.95,4.531 1.3,0.649 2.59,1.946 3.89,1.946 v 0 0 c 1.94,0 3.23,-0.649 4.53,-1.946 0.65,-0.644 1.94,-2.589 1.94,-4.531 0,-1.945 -1.29,-3.238 -1.94,-3.887 -1.3,-0.648 -2.59,-1.296 -4.53,-1.296 -1.3,0 -2.59,0.648 -3.89,1.296 -1.3,0.649 -1.95,1.942 -1.95,3.887"
         style="fill:#231f20;fill-opacity:1;fill-rule:evenodd;stroke:none"
         id="path118" /><path
         d="m 1798.73,464.535 c 0,1.942 0.65,3.238 1.95,4.531 1.29,0.649 2.59,1.946 3.88,1.946 v 0 0 c 1.95,0 3.24,-0.649 4.54,-1.946 0.65,-0.644 1.94,-2.589 1.94,-4.531 0,-1.945 -1.29,-3.238 -1.94,-3.887 -1.3,-0.648 -2.59,-1.296 -4.54,-1.296 -1.29,0 -2.59,0.648 -3.88,1.296 -1.3,0.649 -1.95,1.942 -1.95,3.887"
         style="fill:#231f20;fill-opacity:1;fill-rule:evenodd;stroke:none"
         id="path120" /><path
         d="m 262.324,1302.67 v 10.36 c 0,0.65 0,0.65 0,0.65 v 0 c 0,0.65 -0.648,1.3 -0.648,1.95 -0.649,0 -1.942,0 -3.238,0 v 1.29 c 1.296,0 3.238,0 4.535,0 1.941,0 3.238,0.65 5.179,0.65 1.297,0 3.239,0 4.536,0 1.941,0 3.238,0 5.183,0 6.477,-0.65 11.656,-2.59 14.895,-5.18 3.238,-3.24 4.535,-7.78 5.183,-12.31 v -0.65 0 c 0,-7.77 -1.945,-12.95 -6.476,-15.54 -3.887,-2.59 -9.071,-3.89 -14.25,-3.89 h -18.785 v 0.65 c 1.296,0 2.589,0.65 2.589,1.94 0.649,1.3 1.297,3.24 1.297,5.83 z m 5.184,9.07 v -25.91 c 0,-1.94 0.644,-3.89 1.941,-3.89 0.649,-0.64 2.59,-1.29 5.18,-1.29 3.887,0 7.773,1.94 11.66,4.53 3.238,2.59 5.184,7.12 5.184,14.25 0,4.53 -1.297,7.77 -2.594,10.36 -1.941,2.6 -3.887,4.54 -6.477,5.19 -1.293,0.65 -3.238,1.29 -4.531,1.29 -1.945,0 -3.242,0.65 -3.242,0.65 -0.645,0 -0.645,0 -1.293,0 h -0.648 c -2.59,0 -3.887,-0.65 -4.536,-1.29 -0.644,-1.3 -0.644,-2.6 -0.644,-3.89"
         style="fill:#231f20;fill-opacity:1;fill-rule:evenodd;stroke:none"
         id="path122" /><path
         d="m 310.902,1303.96 v 8.43 c 0,1.29 0,2.59 -0.648,2.59 -0.649,0.65 -1.297,0.65 -1.941,0.65 h -0.649 c -0.648,0 -0.648,0 -0.648,0 v 1.29 h 27.203 v 0 h 0.648 l 2.59,-8.42 h -1.293 c 0,0 -0.648,0.65 -0.648,1.29 -0.649,0 -0.649,0.65 -0.649,0.65 -1.297,1.95 -2.59,3.24 -3.887,3.89 -1.296,1.3 -3.238,1.3 -5.828,1.3 h -8.422 v -16.2 h 4.536 0.648 c 0.645,0 1.293,0 1.293,0 1.297,0 2.594,0.65 3.238,1.95 1.297,0.64 1.946,2.58 2.594,5.17 h 0.645 v -15.54 h -0.645 c -0.648,2.59 -1.297,4.53 -2.594,5.18 -1.293,1.3 -3.238,1.95 -5.179,1.95 h -4.536 v -13.6 c 0,-1.3 0.649,-2.6 1.297,-2.6 0.649,-0.64 1.293,-1.29 2.59,-1.29 h 5.828 c 2.594,0 5.184,1.29 7.125,2.59 1.297,1.94 3.239,3.89 4.535,6.47 h 1.297 l -2.593,-9.71 h -27.204 v 0 h -2.589 v 0.65 c 1.297,0 2.589,0.65 3.238,1.29 0.648,0.65 0.648,1.3 0.648,2.6 v 19.42"
         style="fill:#231f20;fill-opacity:1;fill-rule:evenodd;stroke:none"
         id="path124" /><path
         d="m 353.004,1300.73 v 11.01 c 0,1.29 -0.649,1.94 -0.649,3.24 -0.648,0.65 -1.945,0.65 -3.886,0.65 v 1.29 h 15.543 v -1.29 c -1.942,0 -3.239,0 -3.883,-1.3 -1.297,-0.65 -1.945,-1.94 -1.945,-3.89 v -25.26 c 0,-1.94 0.648,-3.24 1.945,-3.88 0.644,0 1.941,-0.65 2.59,-0.65 h 0.648 v 0 0 0 h 7.125 c 2.59,0 4.531,1.29 5.828,2.59 1.293,1.94 2.59,3.89 3.887,5.83 0.648,0 0.648,0.64 0.648,1.29 0.645,0 0.645,0.65 1.293,1.3 h 1.297 L 379.559,1280 h -27.204 v 0 h -3.886 v 0.65 h 0.648 0.649 0.644 c 0,0 0,0 0.649,0 0.648,0 1.296,0.65 1.296,0.65 0,0.64 0.649,1.29 0.649,3.24 v 16.19"
         style="fill:#231f20;fill-opacity:1;fill-rule:evenodd;stroke:none"
         id="path126" /><path
         d="m 396.398,1301.38 v 9.06 c 0,1.95 0,3.24 -0.648,4.54 -0.648,0.65 -1.941,0.65 -4.535,0.65 v 1.29 h 16.195 v -1.29 c -1.945,0 -3.238,0 -4.535,-0.65 -0.648,-0.65 -0.648,-1.95 -0.648,-4.54 v -25.9 c 0,-1.95 0,-2.6 0.648,-3.24 1.297,0 2.59,-0.65 4.535,-0.65 V 1280 h -16.195 v 0.65 0 0 h 0.648 v 0 c 1.297,0 2.594,0 3.239,0.65 0.648,0 1.296,1.29 1.296,3.24 v 16.84"
         style="fill:#231f20;fill-opacity:1;fill-rule:evenodd;stroke:none"
         id="path128" /><path
         d="m 432.023,1301.38 v 14.25 h -7.773 c -1.297,0 -1.945,-0.65 -2.59,-0.65 -0.648,0 -1.297,0 -1.945,-0.65 -0.649,-0.65 -0.649,-0.65 -1.293,-1.3 0,-0.64 -0.649,-0.64 -0.649,-1.29 l -2.593,-4.54 -0.645,0.65 1.293,10.36 c 0.649,0 0.649,-0.64 1.297,-0.64 h 0.648 c 0.649,0 1.293,-0.65 1.942,-0.65 0.648,0 1.945,0 2.59,0 h 24.613 c 0.648,0 1.297,0 1.945,0 0.645,0 1.293,0.65 1.942,0.65 0,0 0.648,0 1.297,0 0,0.64 0.648,0.64 0.648,0.64 l 2.59,-10.36 -0.649,-0.65 -3.886,5.83 -0.649,0.65 v 0 c -0.648,0.65 -1.293,1.3 -1.941,1.3 -0.649,0 -1.297,0.65 -2.59,0.65 h -7.773 v -15.55 -15.54 c 0,-1.95 0,-2.6 0.648,-3.24 1.293,0 2.59,-0.65 4.531,-0.65 V 1280 H 426.84 v 0.65 c 2.59,0 4.535,0.65 4.535,1.29 0.648,0.65 0.648,1.3 0.648,2.6 v 0 0.64 16.2"
         style="fill:#231f20;fill-opacity:1;fill-rule:evenodd;stroke:none"
         id="path130" /><path
         d="m 466.352,1303.96 v 8.43 c 0,1.29 0,2.59 -0.649,2.59 -0.648,0.65 -1.297,0.65 -1.945,0.65 h -0.645 c -0.648,0 -0.648,0 -0.648,0 v 1.29 h 27.203 v 0 h 0.648 l 2.59,-8.42 h -1.297 c 0,0 -0.648,0.65 -0.648,1.29 -0.645,0 -0.645,0.65 -0.645,0.65 -1.296,1.95 -2.593,3.24 -3.886,3.89 -1.297,1.3 -3.239,1.3 -5.832,1.3 h -8.418 v -16.2 h 4.535 0.644 c 0.649,0 1.297,0 1.297,0 1.297,0 2.59,0.65 3.239,1.95 1.296,0.64 1.941,2.58 2.589,5.17 h 0.649 v -15.54 h -0.649 c -0.648,2.59 -1.293,4.53 -2.589,5.18 -1.297,1.3 -3.239,1.95 -5.18,1.95 h -4.535 v -13.6 c 0,-1.3 0.648,-2.6 1.297,-2.6 0.644,-0.64 1.293,-1.29 2.589,-1.29 h 5.829 c 2.589,0 5.183,1.29 7.125,2.59 1.296,1.94 3.238,3.89 4.535,6.47 h 1.293 l -2.59,-9.71 h -27.203 v 0 h -2.59 v 0.65 c 1.293,0 2.59,0.65 3.238,1.29 0.649,0.65 0.649,1.3 0.649,2.6 v 19.42"
         style="fill:#231f20;fill-opacity:1;fill-rule:evenodd;stroke:none"
         id="path132" /><path
         d="m 508.449,1300.73 v 11.01 c 0,1.29 -0.648,1.94 -0.648,3.24 -0.645,0.65 -1.942,0.65 -3.883,0.65 v 1.29 h 15.543 v -1.29 c -1.941,0 -3.238,0 -3.887,-1.3 -1.293,-0.65 -1.941,-1.94 -1.941,-3.89 v -25.26 c 0,-1.94 0.648,-3.24 1.941,-3.88 0.649,0 1.946,-0.65 2.59,-0.65 h 0.649 v 0 0 0 h 7.125 c 2.589,0 4.535,1.29 5.832,2.59 1.293,1.94 2.589,3.89 3.882,5.83 0.649,0 0.649,0.64 0.649,1.29 0.648,0 0.648,0.65 1.297,1.3 h 1.293 L 535.008,1280 h -27.207 v 0 h -3.883 v 0.65 h 0.645 0.648 0.648 c 0,0 0,0 0.649,0 0.648,0 1.293,0.65 1.293,0.65 0,0.64 0.648,1.29 0.648,3.24 v 16.19"
         style="fill:#231f20;fill-opacity:1;fill-rule:evenodd;stroke:none"
         id="path134" /><path
         d="m 553.141,1303.96 v 6.48 c 0,1.95 -0.649,3.24 -1.293,3.89 -1.297,0.65 -1.946,1.3 -2.594,1.3 h -0.645 -0.648 v 1.29 h 14.894 v -1.29 c -1.941,0 -3.238,0 -3.882,-0.65 -0.649,-1.3 -0.649,-2.59 -0.649,-4.54 v -23.96 c 0,-4.54 -0.648,-7.13 -1.945,-9.72 -0.645,-2.59 -2.59,-4.53 -4.531,-5.18 -0.649,0 -1.297,0 -1.946,0 -0.648,0 -1.293,0 -1.293,0 -0.648,0 -1.296,0 -1.945,0 -0.648,0 -1.293,0.65 -1.293,1.3 -0.648,0 -0.648,0.64 -0.648,0.64 0,0.65 0,0.65 0,1.3 v 0 0 c 0,0.64 0,1.29 0,1.94 0.648,0.65 1.293,1.3 1.941,1.3 0.649,0 1.297,-0.65 1.945,-0.65 0,-0.65 0.645,-1.3 0.645,-1.95 v 0 0 c 0,-0.64 0.648,-0.64 0.648,-1.29 l 0.649,-0.65 c 1.297,-0.64 1.297,-0.64 1.941,0 0,0.65 0.649,1.94 0.649,3.24 v 27.2 0"
         style="fill:#231f20;fill-opacity:1;fill-rule:evenodd;stroke:none"
         id="path136" /><path
         d="m 993.207,1302.67 v 10.36 c 0,0.65 -0.648,1.95 -1.293,1.95 0,0.65 -1.297,0.65 -3.238,0.65 v 1.29 h 27.854 v 0 0 l 2.59,-8.42 h -1.3 c 0,0 0,0.65 -0.65,1.29 0,0 0,0.65 -0.64,0.65 -0.65,1.3 -1.95,2.59 -3.24,3.89 -1.3,0.65 -3.89,1.3 -5.83,1.3 h -9.069 v -16.2 h 5.179 c 1.3,0 2.59,0.65 3.89,1.3 1.29,0.65 1.94,2.59 2.59,4.53 h 1.29 v -13.6 h -1.29 v 0 0.64 c -0.65,1.3 -0.65,2.6 -1.3,3.89 -0.64,1.3 -2.59,1.95 -5.18,1.95 h -5.179 v -12.31 c 0,-1.94 0,-3.24 0.648,-3.89 0.645,-0.64 1.941,-1.29 4.531,-1.29 V 1280 h -14.894 v 0.65 c 1.941,0 3.238,0.65 3.883,1.29 0,0 0.648,1.3 0.648,3.24 v 0.65 0.65 16.19"
         style="fill:#231f20;fill-opacity:1;fill-rule:evenodd;stroke:none"
         id="path138" /><path
         d="m 1040.49,1312.39 -1.29,1.29 v 0 0 c 1.29,0.65 1.94,1.3 2.59,1.95 0.64,1.29 1.29,1.94 1.94,2.58 l 11.01,-27.2 v 0 l 2.59,-6.47 v 0 -0.65 c 0.65,-0.65 0.65,-1.3 1.3,-1.95 0.64,0 1.29,-0.64 2.58,-1.29 V 1280 h -14.24 v 0.65 c 1.29,0 2.59,0.65 3.24,0.65 1.29,0 1.29,0.64 1.29,1.29 0,0.65 0,0.65 0,1.3 0,0 0,0.65 -0.64,1.29 l -3.25,9.07 h -12.3 l -3.89,-9.71 v -0.65 -0.65 c 0,-0.65 0,-1.3 0.65,-1.3 0.65,-0.64 1.94,-1.29 3.89,-1.29 V 1280 h -10.37 v 0.65 c 1.3,0.65 1.95,1.29 2.59,1.29 0.65,0.65 0.65,1.3 1.3,1.95 0,0.65 0,0.65 0,1.29 0.65,0 0.65,0.65 0.65,0.65 z m 0.65,-1.95 -5.18,-14.9 h 11.01 z"
         style="fill:#231f20;fill-opacity:1;fill-rule:evenodd;stroke:none"
         id="path140" /><path
         d="m 1073.52,1311.74 -5.18,-5.83 h -1.29 l 4.53,11.01 h 26.56 l -18.79,-27.21 h -0.65 l -5.18,-9.06 h 11.66 c 1.95,0 3.24,0.65 4.53,0.65 0.65,0 1.95,0.64 2.59,1.29 0,0 0.65,0.65 1.3,1.3 0,0.65 0.65,1.29 1.3,1.94 l 3.89,5.18 h 1.29 l -3.89,-11.01 h -27.85 v 0 h -2.59 l 19.43,27.2 v 0 l 5.83,8.43 h -11.66 c -0.65,0 -1.94,-0.65 -2.59,-0.65 -1.3,-0.65 -1.94,-1.95 -2.59,-2.59 h -0.65 c 0,-0.65 0,-0.65 0,-0.65"
         style="fill:#231f20;fill-opacity:1;fill-rule:evenodd;stroke:none"
         id="path142" /><path
         d="m 1140.23,1287.77 v 23.32 c 0,1.3 0,2.59 -0.64,3.24 0,0.65 -1.95,1.3 -3.89,1.3 v 1.29 h 11.66 v -1.29 c -1.94,0 -3.24,0 -3.88,-0.65 -0.65,-1.3 -1.3,-1.95 -1.3,-2.59 0,-0.65 0,-0.65 0,-0.65 0,-0.65 0,-0.65 0,-1.3 v -27.2 0 -3.24 h -1.3 l -25.9,26.55 v 0 l -3.24,3.89 v -26.55 c 0,-1.3 0.65,-1.95 1.29,-2.59 1.3,0 2.6,-0.65 3.89,-0.65 V 1280 h -11.66 v 0.65 c 0.65,0 0.65,0 0.65,0 0.64,0 0.64,0 0.64,0 1.3,0 1.95,0.65 2.6,0.65 0.64,0.64 1.29,1.29 1.29,2.59 v 27.85 0 0 c 0,0.65 -0.65,0.65 -0.65,0.65 0,0 0,0 -0.64,0.64 l -0.65,0.65 c -0.65,0.65 -1.3,1.3 -1.95,1.3 0,0 0,0.65 -0.64,0.65 h -0.65 v 1.29 h 8.42 l 25.26,-27.21 v 0 l 1.29,-1.94"
         style="fill:#231f20;fill-opacity:1;fill-rule:evenodd;stroke:none"
         id="path144" /><path
         d="m 1160.32,1301.38 v 9.06 c 0,1.95 0,3.24 -0.65,4.54 -0.65,0.65 -1.95,0.65 -4.54,0.65 v 1.29 h 16.19 v -1.29 c -1.94,0 -3.23,0 -4.53,-0.65 -0.65,-0.65 -0.65,-1.95 -0.65,-4.54 v -25.9 c 0,-1.95 0,-2.6 0.65,-3.24 1.3,0 2.59,-0.65 4.53,-0.65 V 1280 h -16.19 v 0.65 0 0 h 0.65 v 0 c 1.3,0 2.59,0 3.24,0.65 0.65,0 1.3,1.29 1.3,3.24 v 16.84"
         style="fill:#231f20;fill-opacity:1;fill-rule:evenodd;stroke:none"
         id="path146" /><path
         d="m 911.598,1248.91 v 10.36 c 0,0.65 0,0.65 0,0.65 v 0 c 0,0.65 -0.649,1.29 -0.649,1.94 -0.648,0 -1.941,0 -3.238,0 v 1.3 c 1.297,0 3.238,0 4.535,0 1.942,0 3.238,0.65 5.18,0.65 1.297,0 3.238,0 4.535,0 1.945,0 3.238,0 5.184,0 6.476,-0.65 11.656,-2.6 14.894,-5.18 3.238,-3.24 4.535,-7.77 5.184,-12.31 v -0.65 0 c 0,-7.77 -1.946,-12.95 -6.477,-15.54 -3.887,-2.59 -9.07,-3.89 -14.25,-3.89 h -18.785 v 0.65 c 1.297,0 2.59,0.65 2.59,1.94 0.648,1.3 1.297,3.24 1.297,5.83 z m 5.183,9.07 v -25.91 c 0,-1.94 0.645,-3.89 1.942,-3.89 0.648,-0.64 2.59,-1.29 5.183,-1.29 3.883,0 7.77,1.94 11.657,4.53 3.238,2.59 5.183,7.13 5.183,14.25 0,4.54 -1.297,7.78 -2.594,10.37 -1.941,2.59 -3.886,4.53 -6.476,5.17 -1.293,0.65 -3.238,1.3 -4.531,1.3 -1.946,0 -3.239,0.65 -3.239,0.65 -0.648,0 -0.648,0 -1.297,0 h -0.648 c -2.59,0 -3.887,-0.65 -4.535,-1.3 -0.645,-1.29 -0.645,-2.59 -0.645,-3.88"
         style="fill:#231f20;fill-opacity:1;fill-rule:evenodd;stroke:none"
         id="path148" /><path
         d="m 960.176,1250.21 v 8.42 c 0,1.29 0,2.58 -0.649,2.58 -0.648,0.65 -1.293,0.65 -1.941,0.65 h -0.648 c -0.649,0 -0.649,0 -0.649,0 v 1.3 h 27.203 v 0 h 0.649 l 2.589,-8.42 h -1.292 c 0,0 -0.649,0.65 -0.649,1.3 -0.648,0 -0.648,0.64 -0.648,0.64 -1.297,1.95 -2.59,3.24 -3.887,3.89 -1.297,1.29 -3.238,1.29 -5.828,1.29 h -8.422 v -16.19 h 4.535 0.649 c 0.648,0 1.292,0 1.292,0 1.297,0 2.594,0.65 3.239,1.94 1.297,0.65 1.945,2.6 2.594,5.19 h 0.644 v -15.55 h -0.644 c -0.649,2.59 -1.297,4.54 -2.594,5.18 -1.293,1.3 -3.239,1.95 -5.18,1.95 h -4.535 v -13.61 c 0,-1.29 0.648,-2.59 1.297,-2.59 0.648,-0.64 1.293,-1.29 2.59,-1.29 h 5.828 c 2.594,0 5.183,1.29 7.125,2.59 1.297,1.94 3.238,3.89 4.535,6.48 h 1.297 l -2.594,-9.72 h -27.203 v 0 h -2.59 v 0.65 c 1.297,0 2.59,0.65 3.238,1.29 0.649,0.65 0.649,1.3 0.649,2.59 v 19.44"
         style="fill:#231f20;fill-opacity:1;fill-rule:evenodd;stroke:none"
         id="path150" /><path
         d="m 1013.93,1247.61 v 14.25 h -7.77 c -1.29,0 -1.94,-0.65 -2.59,-0.65 -0.65,0 -1.29,0 -1.94,-0.64 -0.65,-0.65 -0.65,-0.65 -1.3,-1.3 0,-0.64 -0.646,-0.64 -0.646,-1.29 l -2.59,-4.53 -0.649,0.64 1.297,10.37 c 0.649,0 0.649,-0.65 1.297,-0.65 h 0.645 c 0.646,0 1.296,-0.65 1.946,-0.65 0.65,0 1.94,0 2.59,0 h 24.61 c 0.65,0 1.3,0 1.94,0 0.65,0 1.3,0.65 1.95,0.65 0,0 0.65,0 1.29,0 0,0.65 0.65,0.65 0.65,0.65 l 2.59,-10.37 -0.64,-0.64 -3.89,5.82 -0.65,0.65 v 0 c -0.65,0.65 -1.3,1.29 -1.94,1.29 -0.65,0 -1.3,0.65 -2.59,0.65 h -7.77 v -15.54 -15.55 c 0,-1.94 0,-2.59 0.64,-3.23 1.3,0 2.59,-0.65 4.54,-0.65 v -0.65 h -16.2 v 0.65 c 2.59,0 4.54,0.65 4.54,1.29 0.64,0.65 0.64,1.3 0.64,2.59 v 0 0.65 16.19"
         style="fill:#231f20;fill-opacity:1;fill-rule:evenodd;stroke:none"
         id="path152" /><path
         d="m 1048.26,1250.21 v 8.42 c 0,1.29 0,2.58 -0.65,2.58 -0.64,0.65 -1.29,0.65 -1.94,0.65 h -0.65 c -0.64,0 -0.64,0 -0.64,0 v 1.3 h 27.2 v 0 h 0.65 l 2.59,-8.42 h -1.3 c 0,0 -0.64,0.65 -0.64,1.3 -0.65,0 -0.65,0.64 -0.65,0.64 -1.3,1.95 -2.59,3.24 -3.89,3.89 -1.29,1.29 -3.24,1.29 -5.83,1.29 h -8.42 v -16.19 h 4.54 0.64 c 0.65,0 1.3,0 1.3,0 1.29,0 2.59,0.65 3.24,1.94 1.29,0.65 1.94,2.6 2.59,5.19 h 0.65 v -15.55 h -0.65 c -0.65,2.59 -1.3,4.54 -2.59,5.18 -1.3,1.3 -3.24,1.95 -5.18,1.95 h -4.54 v -13.61 c 0,-1.29 0.65,-2.59 1.3,-2.59 0.65,-0.64 1.29,-1.29 2.59,-1.29 h 5.83 c 2.59,0 5.18,1.29 7.12,2.59 1.3,1.94 3.24,3.89 4.53,6.48 h 1.3 l -2.59,-9.72 h -27.2 v 0 h -2.59 v 0.65 c 1.29,0 2.59,0.65 3.23,1.29 0.65,0.65 0.65,1.3 0.65,2.59 v 19.44"
         style="fill:#231f20;fill-opacity:1;fill-rule:evenodd;stroke:none"
         id="path154" /><path
         d="m 1096.19,1243.73 12.96,13.6 c 0.64,0 0.64,0.65 0.64,1.3 0.65,0 0.65,0.64 0.65,0.64 v 0 0.65 c 0,0 -0.65,0.65 -1.29,1.29 -0.65,0 -1.95,0.65 -3.24,0.65 v 1.3 h 13.6 v -1.3 c -1.3,0 -2.59,-0.65 -3.88,-0.65 -0.65,-0.64 -1.95,-1.29 -2.6,-1.94 0,-0.64 -0.64,-0.64 -0.64,-1.29 -0.65,0 -0.65,-0.65 -1.3,-1.3 l -9.07,-9.71 13.61,-16.2 c 0,-0.64 0.64,-1.29 0.64,-1.94 0.65,0 0.65,-0.65 1.3,-0.65 0.64,-0.64 1.29,-0.64 1.29,-0.64 0.65,0 1.94,-0.65 2.59,-0.65 v -0.65 h -9.06 l -14.25,16.84 -1.95,-1.29 v -12.31 0 -0.65 c 0,0 0.65,-0.65 1.3,-1.29 0.65,0 1.3,-0.65 2.59,-0.65 v 0 c 0.65,0 0.65,0 0.65,0 v -0.65 h -13.6 v 0.65 c 0.64,0 1.94,0.65 2.58,0.65 0.65,0.64 1.3,1.29 1.3,3.23 v 25.91 c 0,1.95 -0.65,3.24 -1.3,4.53 -0.64,0.65 -1.29,0.65 -3.23,0.65 v 1.3 h 14.25 v -1.3 c -1.3,0 -2.59,0 -3.24,-0.65 -0.65,-0.64 -1.3,-1.94 -1.3,-3.23 v -14.25"
         style="fill:#231f20;fill-opacity:1;fill-rule:evenodd;stroke:none"
         id="path156" /><path
         d="m 1144.77,1247.61 v 14.25 H 1137 c -1.3,0 -1.95,-0.65 -2.59,-0.65 -0.65,0 -1.3,0 -1.95,-0.64 -0.64,-0.65 -0.64,-0.65 -1.29,-1.3 0,-0.64 -0.65,-0.64 -0.65,-1.29 l -2.59,-4.53 -0.65,0.64 1.3,10.37 c 0.65,0 0.65,-0.65 1.29,-0.65 h 0.65 c 0.65,0 1.3,-0.65 1.94,-0.65 0.65,0 1.95,0 2.59,0 h 24.62 c 0.65,0 1.29,0 1.94,0 0.65,0 1.3,0.65 1.94,0.65 0,0 0.65,0 1.3,0 0,0.65 0.65,0.65 0.65,0.65 l 2.59,-10.37 -0.65,-0.64 -3.89,5.82 -0.64,0.65 v 0 c -0.65,0.65 -1.3,1.29 -1.95,1.29 -0.64,0 -1.29,0.65 -2.59,0.65 h -7.77 v -15.54 -15.55 c 0,-1.94 0,-2.59 0.65,-3.23 1.29,0 2.59,-0.65 4.53,-0.65 v -0.65 h -16.19 v 0.65 c 2.59,0 4.53,0.65 4.53,1.29 0.65,0.65 0.65,1.3 0.65,2.59 v 0 0.65 16.19"
         style="fill:#231f20;fill-opacity:1;fill-rule:evenodd;stroke:none"
         id="path158" /><path
         d="m 1174.56,1246.97 v 0 c 0,0.64 0,0.64 0,0.64 0.65,3.89 1.95,7.78 5.19,11.02 2.59,3.23 7.12,5.18 12.95,5.83 v 0 h 0.65 0.65 c 0,0 0,-0.65 0.64,-0.65 3.89,0 7.77,-1.95 11.01,-5.18 3.89,-2.59 5.83,-7.13 5.83,-12.96 v 0 c 0,-0.65 0,-0.65 0,-0.65 0,-5.18 -1.29,-9.71 -4.53,-13.6 -3.24,-3.88 -7.77,-5.18 -13.6,-5.18 h -0.65 v 0 c -5.18,0 -9.72,1.3 -12.31,3.89 -2.59,3.24 -4.53,6.48 -5.18,9.71 -0.65,1.3 -0.65,1.95 -0.65,2.59 0,0.65 0,1.95 0,1.95 0,0.64 0,1.29 0,1.29 0,0 0,0.65 0,1.3 z m 31.09,-0.65 c 0,4.54 -1.29,7.77 -2.59,9.72 -1.29,2.59 -3.24,4.53 -5.18,5.17 -0.65,0.65 -1.94,1.3 -2.59,1.3 -1.29,0 -2.59,0.65 -2.59,0.65 -3.89,-0.65 -7.13,-2.59 -9.07,-5.83 -1.94,-3.88 -3.24,-8.42 -3.24,-12.95 v 0 0 c 0,-3.89 0.65,-8.42 2.59,-11.66 2.59,-3.89 5.83,-5.83 10.37,-5.83 3.24,0 5.83,1.29 7.77,3.88 1.94,2.6 3.24,5.84 4.53,8.43 0,1.29 0,1.94 0,2.59 0,0.64 0,1.94 0,2.59 v 0.64 c 0,0.65 0,0.65 0,1.3"
         style="fill:#231f20;fill-opacity:1;fill-rule:evenodd;stroke:none"
         id="path160" /><path
         d="m 1224.44,1257.98 c 0,1.94 -0.65,3.23 -1.3,3.23 -0.65,0.65 -1.94,0.65 -2.59,0.65 v 1.3 h 15.55 0.64 0.65 c 2.59,0 5.83,-1.3 8.42,-2.59 1.94,-1.94 3.24,-4.53 3.24,-7.12 0,-3.24 -0.65,-5.84 -1.94,-7.13 -1.95,-1.3 -3.89,-2.59 -6.48,-3.24 0.65,-0.65 1.3,-1.94 2.59,-2.59 0.65,-1.29 1.94,-2.59 2.59,-3.24 0,-0.64 0.65,-1.29 0.65,-1.29 0.65,-0.65 0.65,-1.3 0.65,-1.3 0.64,0 0.64,-0.65 0.64,-0.65 0.65,-0.64 0.65,-0.64 0.65,-0.64 0.65,-0.65 0.65,-1.3 1.3,-1.95 0,-0.65 0.64,-1.29 0.64,-1.94 0.65,-0.65 1.3,-1.3 1.95,-1.94 0.65,0 1.29,-0.65 2.59,-0.65 v 0 c 0.65,0 0.65,0 0.65,0 v -0.65 h -9.07 c -0.65,0.65 -1.3,1.3 -1.94,1.94 0,1.3 -0.65,1.95 -1.3,2.59 0,0 -0.65,0.65 -0.65,1.3 l -0.64,0.65 c -0.65,0.65 -1.3,1.29 -1.3,1.94 -0.65,0.65 -1.29,1.3 -1.94,2.59 0,0 -0.65,0.65 -0.65,1.3 -0.65,0.65 -1.3,1.29 -1.3,1.29 -1.29,0.65 -1.94,1.3 -2.59,1.95 -1.29,0 -2.59,0.64 -4.53,0.64 v -11.66 c 0,-1.94 0.65,-2.59 1.29,-3.23 0.65,0 1.95,-0.65 3.89,-0.65 v -0.65 h -14.25 v 0.65 0 c 0.65,0 0.65,0 0.65,0 1.29,0 2.59,0.65 2.59,1.29 0,0 0.65,1.3 0.65,2.59 v 0 0.65 z m 5.18,-14.25 h 0.65 c 0.64,0 0.64,0 1.29,0 v 0 c 0.65,0 0.65,0 0.65,0 h 0.65 0.64 c 1.95,0 4.54,0.65 6.48,1.94 1.95,1.3 3.24,3.24 3.24,6.48 v 0.65 c 0,0.65 0,0.65 0,1.29 0,1.95 -1.29,3.24 -2.59,5.18 -0.65,1.94 -3.24,2.59 -7.13,2.59 -1.29,0 -1.94,0 -2.59,-0.65 -0.64,0 -1.29,-1.29 -1.29,-3.23 v -14.25"
         style="fill:#231f20;fill-opacity:1;fill-rule:evenodd;stroke:none"
         id="path162" /><path
         d="m 1630.54,1252.67 v 10.36 c 0,0.65 -0.65,1.95 -1.3,1.95 0,0.65 -1.29,0.65 -3.24,0.65 v 1.29 h 27.86 v 0 0 l 2.59,-8.42 h -1.3 c 0,0 0,0.65 -0.65,1.29 0,0 0,0.65 -0.64,0.65 -0.65,1.3 -1.95,2.59 -3.24,3.89 -1.3,0.65 -3.89,1.3 -5.83,1.3 h -9.07 v -16.2 h 5.18 c 1.3,0 2.59,0.65 3.89,1.3 1.29,0.65 1.94,2.59 2.59,4.53 h 1.3 v -13.6 h -1.3 v 0 0.64 c -0.65,1.3 -0.65,2.6 -1.3,3.89 -0.64,1.3 -2.59,1.95 -5.18,1.95 h -5.18 v -12.31 c 0,-1.94 0,-3.24 0.65,-3.89 0.65,-0.64 1.94,-1.29 4.53,-1.29 V 1230 H 1626 v 0.65 c 1.95,0 3.24,0.65 3.89,1.29 0,0 0.65,1.3 0.65,3.24 v 0.65 0.65 16.19"
         style="fill:#231f20;fill-opacity:1;fill-rule:evenodd;stroke:none"
         id="path164" /><path
         d="m 1670.05,1251.38 v 9.06 c 0,1.95 0,3.24 -0.65,4.54 -0.65,0.65 -1.94,0.65 -4.53,0.65 v 1.29 h 16.19 v -1.29 c -1.94,0 -3.24,0 -4.53,-0.65 -0.65,-0.65 -0.65,-1.95 -0.65,-4.54 v -25.9 c 0,-1.95 0,-2.6 0.65,-3.24 1.29,0 2.59,-0.65 4.53,-0.65 V 1230 h -16.19 v 0.65 0 0 h 0.65 v 0 c 1.29,0 2.59,0 3.23,0.65 0.65,0 1.3,1.29 1.3,3.24 v 16.84"
         style="fill:#231f20;fill-opacity:1;fill-rule:evenodd;stroke:none"
         id="path166" /><path
         d="m 1694.01,1250.73 v 11.01 c 0,1.29 -0.64,1.94 -0.64,3.24 -0.65,0.65 -1.95,0.65 -3.89,0.65 v 1.29 h 15.54 v -1.29 c -1.94,0 -3.23,0 -3.88,-1.3 -1.3,-0.65 -1.94,-1.94 -1.94,-3.89 v -25.26 c 0,-1.94 0.64,-3.24 1.94,-3.88 0.65,0 1.94,-0.65 2.59,-0.65 h 0.65 v 0 0 0 h 7.12 c 2.59,0 4.54,1.29 5.83,2.59 1.3,1.94 2.59,3.89 3.88,5.83 0.65,0 0.65,0.64 0.65,1.29 0.65,0 0.65,0.65 1.3,1.3 h 1.3 l -3.89,-11.66 h -27.2 v 0 h -3.89 v 0.65 h 0.65 0.64 0.65 c 0,0 0,0 0.65,0 0.65,0 1.3,0.65 1.3,0.65 0,0.64 0.64,1.29 0.64,3.24 v 16.19"
         style="fill:#231f20;fill-opacity:1;fill-rule:evenodd;stroke:none"
         id="path168" /><path
         d="m 1748.42,1251.38 v 14.25 h -7.77 c -1.3,0 -1.95,-0.65 -2.59,-0.65 -0.65,0 -1.3,0 -1.95,-0.65 -0.65,-0.65 -0.65,-0.65 -1.29,-1.3 0,-0.64 -0.65,-0.64 -0.65,-1.29 l -2.59,-4.54 -0.65,0.65 1.3,10.36 c 0.65,0 0.65,-0.64 1.29,-0.64 h 0.65 c 0.65,0 1.29,-0.65 1.94,-0.65 0.65,0 1.95,0 2.59,0 h 24.62 c 0.64,0 1.29,0 1.94,0 0.65,0 1.29,0.65 1.94,0.65 0,0 0.65,0 1.3,0 0,0.64 0.65,0.64 0.65,0.64 l 2.59,-10.36 -0.65,-0.65 -3.89,5.83 -0.65,0.65 v 0 c -0.64,0.65 -1.29,1.3 -1.94,1.3 -0.65,0 -1.29,0.65 -2.59,0.65 h -7.77 v -15.55 -15.54 c 0,-1.95 0,-2.6 0.65,-3.24 1.29,0 2.59,-0.65 4.53,-0.65 V 1230 h -16.19 v 0.65 c 2.59,0 4.53,0.65 4.53,1.29 0.65,0.65 0.65,1.3 0.65,2.6 v 0 0.64 16.2"
         style="fill:#231f20;fill-opacity:1;fill-rule:evenodd;stroke:none"
         id="path170" /><path
         d="m 1782.75,1253.96 v 8.43 c 0,1.29 0,2.59 -0.65,2.59 -0.65,0.65 -1.3,0.65 -1.94,0.65 h -0.65 c -0.65,0 -0.65,0 -0.65,0 v 1.29 h 27.21 v 0 h 0.64 l 2.59,-8.42 h -1.29 c 0,0 -0.65,0.65 -0.65,1.29 -0.65,0 -0.65,0.65 -0.65,0.65 -1.29,1.95 -2.59,3.24 -3.88,3.89 -1.3,1.3 -3.24,1.3 -5.83,1.3 h -8.42 v -16.2 h 4.53 0.65 c 0.65,0 1.29,0 1.29,0 1.3,0 2.59,0.65 3.24,1.95 1.3,0.64 1.94,2.58 2.59,5.17 h 0.65 v -15.54 h -0.65 c -0.65,2.59 -1.29,4.53 -2.59,5.18 -1.29,1.3 -3.24,1.95 -5.18,1.95 h -4.53 v -13.6 c 0,-1.3 0.65,-2.6 1.29,-2.6 0.65,-0.64 1.3,-1.29 2.59,-1.29 h 5.83 c 2.59,0 5.19,1.29 7.13,2.59 1.29,1.94 3.24,3.89 4.53,6.47 h 1.3 l -2.59,-9.71 h -27.21 v 0 h -2.59 v 0.65 c 1.3,0 2.59,0.65 3.24,1.29 0.65,0.65 0.65,1.3 0.65,2.6 v 19.42"
         style="fill:#231f20;fill-opacity:1;fill-rule:evenodd;stroke:none"
         id="path172" /><path
         d="m 1825.5,1261.74 c 0,1.94 -0.65,3.24 -1.3,3.24 -0.65,0.65 -1.94,0.65 -2.59,0.65 v 1.29 h 15.55 0.64 0.65 c 2.59,0 5.83,-1.29 8.42,-2.59 1.94,-1.94 3.24,-4.54 3.24,-7.13 0,-3.24 -0.65,-5.82 -1.95,-7.12 -1.94,-1.29 -3.88,-2.59 -6.47,-3.24 0.65,-0.65 1.29,-1.94 2.59,-2.59 0.65,-1.3 1.94,-2.59 2.59,-3.24 0,-0.65 0.65,-1.3 0.65,-1.3 0.64,-0.64 0.64,-1.29 0.64,-1.29 0.65,0 0.65,-0.65 0.65,-0.65 0.65,-0.64 0.65,-0.64 0.65,-0.64 0.65,-0.65 0.65,-1.3 1.3,-1.95 0,-0.64 0.65,-1.29 0.65,-1.94 0.64,-0.65 1.29,-1.3 1.94,-1.94 0.65,0 1.29,-0.65 2.59,-0.65 v 0 c 0.65,0 0.65,0 0.65,0 V 1230 h -9.07 c -0.65,0.65 -1.3,1.3 -1.95,1.94 0,1.3 -0.64,1.95 -1.29,2.6 0,0 -0.65,0.64 -0.65,1.29 l -0.65,0.65 c -0.64,0.65 -1.29,1.29 -1.29,1.94 -0.65,0.65 -1.3,1.29 -1.94,2.59 0,0 -0.65,0.65 -0.65,1.29 -0.65,0.65 -1.3,1.3 -1.3,1.3 -1.29,0.65 -1.94,1.3 -2.59,1.94 -1.29,0 -2.59,0.65 -4.53,0.65 v -11.65 c 0,-1.95 0.64,-2.6 1.29,-3.24 0.65,0 1.95,-0.65 3.89,-0.65 V 1230 h -14.25 v 0.65 0 c 0.65,0 0.65,0 0.65,0 1.29,0 2.59,0.65 2.59,1.29 0,0 0.65,1.3 0.65,2.6 v 0 0.64 z m 5.18,-14.25 h 0.64 c 0.65,0 0.65,0 1.3,0 v 0 c 0.65,0 0.65,0 0.65,0 h 0.65 0.64 c 1.95,0 4.54,0.65 6.48,1.94 1.94,1.3 3.24,3.24 3.24,6.48 v 0.64 c 0,0.65 0,0.65 0,1.3 0,1.94 -1.3,3.24 -2.59,5.18 -0.65,1.95 -3.24,2.6 -7.13,2.6 -1.29,0 -1.94,0 -2.59,-0.65 -0.65,0 -1.29,-1.3 -1.29,-3.24 v -14.25"
         style="fill:#231f20;fill-opacity:1;fill-rule:evenodd;stroke:none"
         id="path174" /><path
         d="M 749,1590.8 H 2509.4 V 366.102 H 749 Z"
         style="fill:none;stroke:#231f20;stroke-width:5.8;stroke-linecap:butt;stroke-linejoin:miter;stroke-miterlimit:11.4737;stroke-dasharray:29, 29, 58, 29;stroke-dashoffset:0;stroke-opacity:1"
         id="path176" /><path
         d="m 2008.79,232.18 h -12.96 l 1.3,5.828 h 11.66 c 0,0.648 0,1.297 0,1.297 0,0.648 0,1.293 0,1.293 0,0.648 0,1.297 0,1.297 0,0.648 0,1.296 0,1.296 0,10.364 1.94,20.079 5.82,27.852 3.89,8.418 11.66,12.305 22.02,12.305 0.65,0 1.95,0 3.89,0 1.94,0 3.24,-0.649 5.18,-1.297 2.59,0 5.18,-1.293 7.13,-2.59 1.29,-1.297 2.59,-3.887 2.59,-6.477 0,-2.589 0,-4.535 -1.3,-6.476 -0.64,-1.297 -2.59,-2.59 -3.89,-2.59 h -1.29 -0.65 c -0.65,0 -1.94,1.293 -3.24,1.941 -0.64,0.649 -1.29,2.59 -2.59,3.239 v 1.297 l -1.29,1.293 c -0.65,1.296 -2.59,3.238 -3.89,4.535 -1.29,1.297 -3.24,1.941 -5.18,1.941 h -0.65 -0.65 v 0 h -0.64 c -3.24,0 -5.83,-1.941 -6.48,-3.883 -0.65,-2.593 -1.94,-5.832 -1.94,-8.422 0,-0.648 0,-2.589 0,-3.238 0,-1.297 0,-3.238 0,-3.887 v -1.293 c 0,0 0,-0.648 0,-1.296 v -18.137 h 17.49 l -1.3,-5.828 h -16.19 v -49.875 c 0,-2.59 0,-5.18 1.29,-6.477 0.65,-1.293 5.18,-2.59 11.01,-2.59 V 170 h -36.91 v 3.238 c 3.23,0 6.47,1.297 8.41,1.942 1.95,0.648 3.25,4.535 3.25,9.718 v 47.282"
         style="fill:#231f20;fill-opacity:1;fill-rule:evenodd;stroke:none"
         id="path178" /><path
         d="m 2289.24,199.148 h 71.89 v -9.07 h -71.89 z m 0,21.372 h 71.89 v -9.067 h -71.89 v 9.067"
         style="fill:#231f20;fill-opacity:1;fill-rule:evenodd;stroke:none"
         id="path180" /><path
         d="m 2537.3,193.965 v 69.953 c 0,3.883 -0.64,7.77 -1.94,10.363 -1.29,2.59 -5.82,3.883 -12.3,3.883 v 3.887 h 34.97 v -3.887 c -5.83,0 -10.36,-1.293 -11.65,-3.238 -1.95,-1.942 -3.89,-4.531 -3.89,-7.125 0,-1.293 0,-1.942 0,-2.59 0,-0.648 0,-1.293 0,-2.59 v -82.906 0 -10.363 h -3.89 l -77.07,81.609 h -0.65 l -9.07,10.363 v -79.019 c 0,-3.883 1.3,-6.477 3.89,-7.125 2.59,-0.645 6.47,-1.942 11.01,-1.942 V 170 h -34.33 v 3.238 c 0.65,0 1.3,0 1.94,0 0.65,0 1.3,0 1.95,0 2.59,0 5.18,0.649 7.12,1.297 1.94,1.293 3.24,3.887 3.24,7.77 v 82.906 0 1.297 c 0,0.648 -1.3,1.293 -1.3,1.293 0,0 -0.65,1.297 -1.29,1.297 -0.65,1.297 -1.95,2.59 -3.24,3.886 -1.3,1.297 -3.24,2.59 -4.53,3.239 -0.65,0.648 -1.3,1.297 -2.59,1.297 -0.65,0.644 -1.3,0.644 -2.6,0.644 v 3.887 h 25.91 l 75.14,-82.903 h 0.64 l 4.53,-5.183"
         style="fill:#231f20;fill-opacity:1;fill-rule:evenodd;stroke:none"
         id="path182" /><path
         d="m 2640.94,232.18 h -12.96 l 1.3,5.828 h 11.66 c 0,0.648 0,1.297 0,1.297 0,0.648 0,1.293 0,1.293 0,0.648 0,1.297 0,1.297 0,0.648 0,1.296 0,1.296 0,10.364 1.94,20.079 5.83,27.852 3.88,8.418 11.66,12.305 22.02,12.305 0.65,0 1.94,0 3.89,0 1.94,0 3.23,-0.649 5.18,-1.297 2.59,0 5.18,-1.293 7.12,-2.59 1.3,-1.297 2.59,-3.887 2.59,-6.477 0,-2.589 0,-4.535 -1.29,-6.476 -0.65,-1.297 -2.59,-2.59 -3.89,-2.59 h -1.29 -0.65 c -0.65,0 -1.95,1.293 -3.24,1.941 -0.65,0.649 -1.3,2.59 -2.59,3.239 v 1.297 l -1.3,1.293 c -0.64,1.296 -2.59,3.238 -3.88,4.535 -1.3,1.297 -3.24,1.941 -5.19,1.941 h -0.64 -0.65 v 0 h -0.65 c -3.24,0 -5.83,-1.941 -6.47,-3.883 -0.65,-2.593 -1.95,-5.832 -1.95,-8.422 0,-0.648 0,-2.589 0,-3.238 0,-1.297 0,-3.238 0,-3.887 v -1.293 c 0,0 0,-0.648 0,-1.296 v -18.137 h 17.49 l -1.29,-5.828 h -16.2 v -49.875 c 0,-2.59 0,-5.18 1.3,-6.477 0.65,-1.293 5.18,-2.59 11.01,-2.59 V 170 h -36.92 v 3.238 c 3.24,0 6.48,1.297 8.42,1.942 1.94,0.648 3.24,4.535 3.24,9.718 v 47.282"
         style="fill:#231f20;fill-opacity:1;fill-rule:evenodd;stroke:none"
         id="path184" /><path
         d="m 2052.3,186.27 v 15.546 c 0,2.59 -0.64,5.18 -1.29,6.477 -0.65,1.297 -3.24,1.941 -7.12,1.941 v 1.946 h 26.55 v -1.946 c -3.24,0 -5.83,-0.644 -7.12,-1.293 -1.3,-0.648 -1.94,-3.886 -1.94,-7.125 v -44.691 c 0,-2.59 0.64,-3.887 1.94,-4.535 1.29,-0.649 3.88,-0.649 7.12,-0.649 V 150 h -26.55 v 1.941 0 0 h 0.65 0.64 c 1.95,0 3.24,0 4.53,0.649 1.95,0 2.59,2.59 2.59,5.183 v 28.497"
         style="fill:#231f20;fill-opacity:1;fill-rule:evenodd;stroke:none"
         id="path186" /><path
         d="m 2095.05,203.113 -7.77,-9.718 h -1.94 l 7.12,18.785 h 44.05 l -31.09,-45.989 h -0.65 l -9.72,-14.25 h 20.08 c 3.24,0 5.83,0 7.78,0.649 1.29,0 2.59,0.648 3.88,1.945 0.65,0.645 1.94,1.293 1.94,1.942 0.65,0.648 1.95,1.945 2.59,3.238 l 6.48,9.07 h 2.59 L 2133.92,150 h -45.99 v 0 h -5.18 l 32.38,45.988 v 0 l 9.72,14.246 h -18.78 c -1.95,0 -3.89,-1.293 -5.19,-1.941 -1.29,-1.297 -3.24,-2.59 -3.88,-3.238 -0.65,-0.649 -1.3,-0.649 -1.3,-1.297 l -0.65,-0.645"
         style="fill:#231f20;fill-opacity:1;fill-rule:evenodd;stroke:none"
         id="path188" /><path
         d="m 2201.93,182.387 v 22.019 c 0,1.946 -0.65,3.887 -1.3,4.535 -0.65,0.649 -3.24,1.293 -6.48,1.293 v 1.946 h 23.97 v -1.946 h -0.65 -0.65 c -1.94,0 -2.59,-1.293 -3.88,-1.941 -0.65,-0.648 -1.95,-3.887 -1.95,-8.422 v -42.746 c 0,-1.297 0.65,-2.59 1.3,-3.887 0,-0.648 1.94,-1.941 3.89,-1.941 h 0.64 c 0.65,0 1.3,0.644 1.3,0.644 V 150 h -23.97 v 1.941 c 2.59,0 4.54,0 5.83,0.649 1.3,0.648 1.95,1.945 1.95,4.535 v 22.023 h -33.04 v -21.375 c 0,-1.945 0.65,-3.886 1.3,-4.535 0,-1.297 1.94,-1.941 3.88,-1.941 h 0.65 c 0.65,0 1.3,0.644 1.3,0.644 V 150 h -23.32 v 1.941 c 0.65,0 1.3,-0.644 1.3,-0.644 h 0.64 c 1.95,0 3.89,1.293 3.89,1.941 0.65,1.297 1.29,3.887 1.29,7.774 v 38.215 c 0,0.644 0,0.644 0,0.644 0,0.649 0,0.649 0,0.649 0,3.238 0,5.832 -0.64,7.125 -0.65,1.296 -2.59,2.589 -6.48,2.589 v 1.946 h 25.26 v -1.946 c -3.89,0 -6.48,-0.644 -7.77,-1.941 -0.65,-0.648 -1.3,-3.238 -1.3,-5.18 v -20.726 h 33.04"
         style="fill:#231f20;fill-opacity:1;fill-rule:evenodd;stroke:none"
         id="path190" /><path
         d="m 2701.66,183.758 c 0,2.594 -0.65,4.535 -1.95,5.183 -0.64,0.649 -2.58,1.293 -4.53,1.293 v 1.946 h 26.56 0.65 c 0.64,0 1.29,0 1.29,0 5.18,0 9.71,-1.946 13.6,-4.535 4.54,-3.239 6.48,-7.125 6.48,-12.305 0,-5.184 -1.3,-9.715 -3.89,-11.66 -2.59,-2.59 -6.48,-4.532 -10.36,-5.828 1.29,-0.649 2.59,-1.946 3.88,-3.887 1.3,-1.942 3.24,-3.887 4.54,-5.828 0.65,-0.649 0.65,-1.297 1.3,-1.946 0.64,-0.648 0.64,-1.293 1.29,-1.941 0,-0.648 0.65,-0.648 1.3,-1.297 0,0 0.64,-0.648 0.64,-1.293 0.65,-0.648 1.3,-1.945 1.95,-3.238 0,-0.649 0.64,-1.945 1.29,-2.594 0.65,-1.293 1.94,-2.59 2.59,-3.238 1.3,-0.649 2.59,-1.293 4.54,-1.293 h 0.65 c 0,0 0.64,0.644 1.29,0.644 V 130 h -16.19 c -0.65,1.297 -1.3,2.59 -2.59,3.887 -0.65,1.293 -1.3,3.238 -1.95,3.886 -0.65,0.649 -1.29,1.293 -1.29,1.942 -0.65,0 -1.3,1.297 -1.3,1.945 -0.65,0.645 -1.94,1.942 -2.59,2.59 -0.65,1.293 -1.29,2.59 -2.59,3.887 -0.64,1.293 -1.29,1.941 -1.94,2.59 0,0.648 -1.3,1.941 -1.94,1.941 -1.3,1.297 -3.24,2.594 -4.54,3.238 -1.3,0.649 -3.89,1.297 -7.12,1.297 v -19.43 c 0,-2.593 0.65,-4.535 1.94,-5.183 1.29,-0.649 3.88,-0.649 6.48,-0.649 V 130 h -23.97 v 1.941 c 0,0 0.65,-0.644 1.3,-0.644 h 0.65 c 1.94,0 3.88,0.644 3.88,1.941 0.65,0.649 0.65,2.59 0.65,4.535 v 0 c 0,0.649 0,1.293 0,1.293 z m 9.07,-24.61 c 0.65,0 1.29,0 1.29,0 0.65,0 1.3,0 1.94,0 h 0.65 0.65 c 0.65,0 0.65,0 1.29,0 h 0.65 c 3.89,0 7.78,1.293 11.01,3.239 3.24,1.941 5.18,5.828 5.18,11.008 0,0.648 0,1.296 0,1.945 0,0 0,0.648 0,1.293 0,3.238 -1.94,5.832 -3.88,8.422 -1.94,3.238 -5.83,5.179 -12.31,5.179 -1.29,0 -3.24,-0.644 -4.53,-1.293 -1.29,-0.648 -1.94,-2.589 -1.94,-5.183 v -24.61"
         style="fill:#231f20;fill-opacity:1;fill-rule:evenodd;stroke:none"
         id="path192" /><path
         d="m 2773.55,170.805 v 13.601 c 0,2.59 -0.64,3.887 -1.29,4.535 -0.65,0.649 -1.94,1.293 -3.24,1.293 -0.65,0 -0.65,0 -1.3,0 0,0 -0.64,0 -1.29,0 v 1.946 h 46.63 v 0 h 0.65 l 3.89,-14.899 h -1.95 c -0.64,0.649 -0.64,1.946 -1.29,2.59 -0.65,0 -0.65,1.297 -1.3,1.945 -1.94,2.59 -3.88,4.536 -6.47,6.477 -1.95,1.297 -5.18,1.941 -9.72,1.941 h -13.6 v -27.203 h 7.12 c 0.65,0 1.3,0 1.95,0 0,0 1.29,0 1.94,0 1.94,0 3.89,1.297 5.83,2.594 1.94,1.293 2.59,4.531 3.24,8.418 h 1.29 v -25.906 h -1.29 c -0.65,4.531 -1.94,8.418 -3.89,9.715 -2.59,1.296 -5.18,2.589 -9.07,2.589 h -7.12 v -23.316 c 0,-1.945 0.65,-3.238 1.94,-3.887 0.65,-0.648 2.59,-1.297 4.54,-1.297 h 10.36 c 3.89,0 7.77,1.297 11.01,3.887 2.59,3.238 5.18,6.477 7.13,11.012 h 2.59 L 2816.95,130 h -45.99 v 0 h -4.53 v 1.941 c 3.24,0 5.18,0.649 5.83,1.297 0.65,1.297 1.29,3.239 1.29,4.535 v 33.032"
         style="fill:#231f20;fill-opacity:1;fill-rule:evenodd;stroke:none"
         id="path194" /><path
         d="m 2844.15,167.566 v 17.489 c 0,1.941 -0.65,3.238 -1.29,3.886 -0.65,0.649 -2.59,1.293 -5.83,1.293 v 1.946 h 45.99 v 0 0 l 5.18,-14.25 h -1.95 c 0,0.648 -0.64,1.297 -1.29,1.941 0,0 -0.65,1.297 -0.65,1.945 -1.94,1.942 -3.88,3.887 -6.48,5.829 -1.94,1.296 -5.83,2.589 -9.06,2.589 h -15.55 v -27.203 h 8.42 c 2.59,0 5.18,0.649 7.13,1.946 1.94,1.293 3.23,3.886 3.88,7.773 h 1.94 v -23.32 h -1.94 v 0.648 0.649 c -0.65,1.941 -1.29,4.535 -1.94,6.476 -1.3,1.945 -3.89,3.238 -9.07,3.887 h -8.42 v -21.375 c 0,-3.238 0.65,-5.18 1.3,-6.477 0.64,-0.648 3.23,-1.297 7.12,-1.297 V 130 h -24.61 v 1.941 c 3.24,0 5.83,0.649 6.47,1.297 0,0.649 0.65,3.239 0.65,5.828 v 0.649 c 0,0.648 0,1.297 0,1.297 v 26.554"
         style="fill:#231f20;fill-opacity:1;fill-rule:evenodd;stroke:none"
         id="path196" /><path
         d="m 2583.24,214.535 c 0,1.942 0.65,3.238 1.94,4.531 1.3,0.649 2.59,1.946 3.89,1.946 v 0 0 c 1.94,0 3.23,-0.649 4.53,-1.946 0.65,-0.644 1.94,-2.589 1.94,-4.531 0,-1.945 -1.29,-3.238 -1.94,-3.887 -1.3,-0.648 -2.59,-1.296 -4.53,-1.296 -1.3,0 -2.59,0.648 -3.89,1.296 -1.29,0.649 -1.94,1.942 -1.94,3.887"
         style="fill:#231f20;fill-opacity:1;fill-rule:evenodd;stroke:none"
         id="path198" /><path
         d="m 228.785,232.18 h -12.957 l 1.297,5.828 h 11.66 c 0,0.648 0,1.297 0,1.297 0,0.648 0,1.293 0,1.293 0,0.648 0,1.297 0,1.297 0,0.648 0,1.296 0,1.296 0,10.364 1.942,20.079 5.828,27.852 3.887,8.418 11.657,12.305 22.02,12.305 0.648,0 1.945,0 3.887,0 1.945,0 3.238,-0.649 5.183,-1.297 2.59,0 5.18,-1.293 7.125,-2.59 1.293,-1.297 2.59,-3.887 2.59,-6.477 0,-2.589 0,-4.535 -1.297,-6.476 -0.644,-1.297 -2.59,-2.59 -3.887,-2.59 h -1.293 -0.648 c -0.648,0 -1.941,1.293 -3.238,1.941 -0.649,0.649 -1.297,2.59 -2.59,3.239 v 1.297 l -1.297,1.293 c -0.648,1.296 -2.59,3.238 -3.887,4.535 -1.293,1.297 -3.238,1.941 -5.179,1.941 h -0.649 -0.648 v 0 h -0.649 c -3.238,0 -5.828,-1.941 -6.476,-3.883 -0.649,-2.593 -1.942,-5.832 -1.942,-8.422 0,-0.648 0,-2.589 0,-3.238 0,-1.297 0,-3.238 0,-3.887 v -1.293 c 0,0 0,-0.648 0,-1.296 v -18.137 h 17.489 l -1.297,-5.828 h -16.192 v -49.875 c 0,-2.59 0,-5.18 1.293,-6.477 0.649,-1.293 5.184,-2.59 11.012,-2.59 V 170 h -36.918 v 3.238 c 3.238,0 6.477,1.297 8.418,1.942 1.945,0.648 3.242,4.535 3.242,9.718 v 47.282"
         style="fill:#231f20;fill-opacity:1;fill-rule:evenodd;stroke:none"
         id="path200" /><path
         d="m 509.238,199.148 h 71.895 v -9.07 h -71.895 z m 0,21.372 h 71.895 v -9.067 h -71.895 v 9.067"
         style="fill:#231f20;fill-opacity:1;fill-rule:evenodd;stroke:none"
         id="path202" /><path
         d="m 667.926,232.18 h -12.957 l 1.297,5.828 h 11.66 c 0,0.648 0,1.297 0,1.297 0,0.648 0,1.293 0,1.293 0,0.648 0,1.297 0,1.297 0,0.648 0,1.296 0,1.296 0,10.364 1.941,20.079 5.828,27.852 3.887,8.418 11.656,12.305 22.019,12.305 0.649,0 1.946,0 3.887,0 1.945,0 3.238,-0.649 5.184,-1.297 2.59,0 5.179,-1.293 7.125,-2.59 1.293,-1.297 2.59,-3.887 2.59,-6.477 0,-2.589 0,-4.535 -1.297,-6.476 -0.649,-1.297 -2.59,-2.59 -3.887,-2.59 h -1.293 -0.648 c -0.649,0 -1.942,1.293 -3.239,1.941 -0.648,0.649 -1.297,2.59 -2.59,3.239 v 1.297 l -1.296,1.293 c -0.649,1.296 -2.59,3.238 -3.887,4.535 -1.293,1.297 -3.238,1.941 -5.18,1.941 h -0.648 -0.649 v 0 h -0.648 c -3.238,0 -5.828,-1.941 -6.477,-3.883 -0.648,-2.593 -1.941,-5.832 -1.941,-8.422 0,-0.648 0,-2.589 0,-3.238 0,-1.297 0,-3.238 0,-3.887 v -1.293 c 0,0 0,-0.648 0,-1.296 v -18.137 h 17.488 l -1.297,-5.828 h -16.191 v -49.875 c 0,-2.59 0,-5.18 1.293,-6.477 0.648,-1.293 5.183,-2.59 11.012,-2.59 V 170 h -36.918 v 3.238 c 3.238,0 6.476,1.297 8.418,1.942 1.945,0.648 3.242,4.535 3.242,9.718 v 47.282"
         style="fill:#231f20;fill-opacity:1;fill-rule:evenodd;stroke:none"
         id="path204" /><path
         d="m 947.082,175.828 c 0,2.594 0.648,4.535 2.59,6.477 1.297,1.297 4.535,2.593 7.773,2.593 2.59,0 4.535,-1.296 5.828,-2.593 1.297,-1.293 2.594,-2.59 2.594,-4.532 v -0.648 c 0,-0.648 0.645,-1.297 0.645,-1.297 0,-0.648 0,-1.293 0,-1.941 0,-0.649 -1.293,-1.297 -1.293,-1.946 0,-1.293 -1.297,-2.589 -2.59,-3.238 -1.945,-1.293 -3.887,-1.941 -6.481,-1.941 -0.644,0 -1.293,0 -1.293,0 -0.648,0 -1.296,0 -1.296,0 -1.942,0 -3.887,1.297 -4.532,2.59 -1.297,1.296 -1.945,3.886 -1.945,6.476 z m 0,53.762 c 0,2.59 0.648,4.531 2.59,5.828 1.297,1.941 4.535,2.59 7.773,2.59 2.59,0 4.535,-0.649 5.828,-1.293 1.297,-1.297 2.594,-3.242 2.594,-5.184 v -1.297 l 0.645,-0.644 c 0,-0.649 0,-1.297 0,-1.945 0,0 -1.293,-1.293 -1.293,-1.942 0,-1.945 -1.297,-3.238 -2.59,-4.535 -1.945,-1.297 -3.887,-1.941 -6.481,-1.941 -0.644,0 -1.293,0 -1.293,0 -0.648,0 -1.296,0.644 -1.296,0.644 -1.942,0 -3.887,1.297 -4.532,2.594 -1.297,1.293 -1.945,3.887 -1.945,7.125"
         style="fill:#231f20;fill-opacity:1;fill-rule:evenodd;stroke:none"
         id="path206" /><path
         d="m 1112.89,190.078 37.57,82.906 v 0 l 3.89,9.067 h 27.2 v -3.887 c -5.18,0 -9.07,-1.293 -10.36,-3.883 -1.95,-2.593 -2.59,-7.125 -2.59,-12.957 v -75.133 c 0,-4.531 0.64,-8.418 1.29,-10.363 1.3,-1.293 4.54,-2.59 7.77,-2.59 0.65,0 1.3,0 1.95,0 0.64,0 1.29,0 1.94,0 V 170 h -44.04 v 3.238 c 5.83,0 9.71,1.297 11.65,1.942 1.3,1.297 2.59,5.832 2.59,13.605 v 75.133 l -36.91,-82.906 v 0 L 1109.01,170 h -3.89 l -40.16,82.258 v 0 l -5.18,11.66 v -81.613 c 0,-2.59 0.65,-4.532 2.6,-6.477 1.29,-1.293 4.53,-2.59 9.06,-2.59 h 1.3 c 0.64,0 1.29,0 1.94,0 V 170 h -34.33 v 3.238 c 5.18,0 9.07,0.649 11.01,1.297 1.94,0.645 3.24,3.238 3.24,7.77 v 82.906 0 0 c 0,3.238 -1.3,6.477 -1.94,9.07 -0.65,2.59 -5.18,3.883 -11.01,3.883 v 3.887 h 29.79 l 37.57,-82.903 v 0 l 3.88,-9.07"
         style="fill:#231f20;fill-opacity:1;fill-rule:evenodd;stroke:none"
         id="path208" /><path
         d="m 747.852,159.148 -16.192,23.317 c -0.648,0 -0.648,1.293 -1.297,1.293 -0.648,0.648 -1.297,1.297 -1.297,1.297 -1.293,1.297 -2.589,2.59 -3.886,3.238 -0.645,0.648 -3.239,1.297 -5.18,1.941 v 1.946 h 27.203 v -1.946 c -1.941,0 -3.887,0 -5.18,-0.644 -1.945,-0.649 -2.593,-1.297 -2.593,-2.594 0,0 0,-0.644 0.648,-1.293 0,-0.648 0.649,-1.945 1.297,-2.59 l 12.953,-17.488 12.953,16.191 c 0.649,0.649 1.297,1.942 1.297,1.942 0,0.648 0.649,1.945 0.649,2.594 0,0.644 -0.649,1.941 -1.946,2.589 -1.293,0.649 -3.238,1.293 -5.828,1.293 v 1.946 h 22.024 v -1.946 c -2.594,0 -5.184,-0.644 -7.125,-1.941 -1.946,-1.941 -3.239,-3.887 -4.536,-5.18 l -0.648,-0.648 -0.648,-0.649 v -0.648 c -0.649,-0.648 -0.649,-0.648 -1.293,-1.297 l -13.602,-16.84 13.602,-18.781 c 1.293,-1.297 2.589,-3.238 3.886,-4.535 0.645,-1.942 1.942,-3.238 2.59,-3.887 1.293,-1.293 2.59,-2.59 3.238,-3.238 1.293,0 3.239,-0.649 5.829,-0.649 V 130 h -27.852 v 1.941 c 2.59,0 5.184,0 5.832,0.649 1.293,0 1.941,0.648 1.941,1.297 0,0.648 0,1.293 -0.648,1.941 0,0.649 -0.648,1.297 -1.293,1.945 l -13.602,19.43 -12.957,-18.137 c -0.648,-1.293 -1.293,-1.941 -1.941,-2.589 0,-0.649 -0.648,-1.297 -0.648,-1.942 0,-1.297 0.648,-1.945 1.941,-1.945 1.297,-0.649 3.887,-0.649 6.48,-0.649 V 130 h -21.375 v 1.941 c 1.942,0 3.239,0 3.887,0.649 1.293,0.648 2.59,1.297 3.238,1.945 0.649,0.645 1.293,0.645 1.293,1.293 0.649,0.649 1.297,1.297 1.946,1.945 l 16.84,21.375"
         style="fill:#231f20;fill-opacity:1;fill-rule:evenodd;stroke:none"
         id="path210" /><path
         d="m 795.781,164.328 c 0,0.649 0,0.649 0,1.297 v 0.645 c 0.649,6.48 3.239,12.308 8.418,18.136 4.535,5.828 11.66,9.067 21.375,9.067 h 0.649 0.648 c 0.649,0 1.293,0 1.293,0 0,0 0.649,0 1.297,0 6.477,-0.645 12.953,-3.239 18.785,-8.418 5.828,-5.184 9.067,-12.953 9.715,-22.024 v -0.644 c 0,0 0,-0.649 0,-1.297 0,-8.422 -2.59,-16.192 -7.773,-22.024 C 845.008,132.59 836.586,130 826.871,130 v 0 c -0.648,0 -0.648,0 -0.648,0 -9.067,0 -15.543,1.941 -20.727,7.125 -4.535,4.535 -7.773,10.363 -9.066,16.191 0,1.297 -0.649,2.59 -0.649,3.887 0,1.297 0,3.238 0,3.887 0,0.648 0,1.297 0,1.941 z m 51.817,-0.648 c 0,7.125 -1.946,12.953 -3.887,16.84 -2.59,3.886 -5.184,6.476 -8.422,8.421 -1.941,1.293 -3.238,1.942 -5.18,1.942 -1.945,0.648 -3.238,0.648 -4.535,0.648 -6.476,0 -11.656,-3.238 -14.894,-9.715 -3.239,-6.476 -5.184,-12.953 -5.184,-20.726 v 0 0 c 0,-7.125 1.297,-14.25 5.184,-20.078 3.238,-5.832 9.066,-9.071 16.191,-9.071 5.828,0 10.363,1.946 13.602,5.832 3.238,4.532 5.828,9.715 7.125,14.25 0,1.942 0,3.239 0,4.532 0,0.648 0.648,2.593 0.648,3.886 0,0 0,0.649 0,1.297 0,0.649 -0.648,1.293 -0.648,1.942"
         style="fill:#231f20;fill-opacity:1;fill-rule:evenodd;stroke:none"
         id="path212" /><path
         d="m 271.66,183.758 c 0,2.594 -0.648,4.535 -1.945,5.183 -0.649,0.649 -2.59,1.293 -4.535,1.293 v 1.946 h 26.558 0.649 c 0.644,0 1.293,0 1.293,0 5.183,0 9.715,-1.946 13.601,-4.535 4.535,-3.239 6.477,-7.125 6.477,-12.305 0,-5.184 -1.293,-9.715 -3.887,-11.66 -2.59,-2.59 -6.476,-4.532 -10.363,-5.828 1.297,-0.649 2.594,-1.946 3.887,-3.887 1.296,-1.942 3.238,-3.887 4.535,-5.828 0.648,-0.649 0.648,-1.297 1.297,-1.946 0.644,-0.648 0.644,-1.293 1.293,-1.941 0,-0.648 0.648,-0.648 1.296,-1.297 0,0 0.649,-0.648 0.649,-1.293 0.648,-0.648 1.293,-1.945 1.941,-3.238 0,-0.649 0.649,-1.945 1.297,-2.594 0.649,-1.293 1.942,-2.59 2.59,-3.238 1.297,-0.649 2.59,-1.293 4.535,-1.293 h 0.649 c 0,0 0.644,0.644 1.293,0.644 V 130 h -16.192 c -0.648,1.297 -1.297,2.59 -2.59,3.887 -0.648,1.293 -1.297,3.238 -1.945,3.886 -0.648,0.649 -1.293,1.293 -1.293,1.942 -0.648,0 -1.297,1.297 -1.297,1.945 -0.648,0.645 -1.945,1.942 -2.59,2.59 -0.648,1.293 -1.297,2.59 -2.593,3.887 -0.645,1.293 -1.293,1.941 -1.942,2.59 0,0.648 -1.297,1.941 -1.941,1.941 -1.297,1.297 -3.239,2.594 -4.535,3.238 -1.297,0.649 -3.887,1.297 -7.125,1.297 v -19.43 c 0,-2.593 0.648,-4.535 1.941,-5.183 1.297,-0.649 3.887,-0.649 6.48,-0.649 V 130 H 265.18 v 1.941 c 0,0 0.648,-0.644 1.297,-0.644 h 0.648 c 1.941,0 3.887,0.644 3.887,1.941 0.648,0.649 0.648,2.59 0.648,4.535 v 0 c 0,0.649 0,1.293 0,1.293 z m 9.067,-24.61 c 0.648,0 1.296,0 1.296,0 0.645,0 1.293,0 1.942,0 h 0.648 0.649 c 0.644,0 0.644,0 1.293,0 h 0.648 c 3.887,0 7.774,1.293 11.012,3.239 3.238,1.941 5.18,5.828 5.18,11.008 0,0.648 0,1.296 0,1.945 0,0 0,0.648 0,1.293 0,3.238 -1.942,5.832 -3.887,8.422 -1.942,3.238 -5.828,5.179 -12.305,5.179 -1.297,0 -3.238,-0.644 -4.535,-1.293 -1.293,-0.648 -1.941,-2.589 -1.941,-5.183 v -24.61"
         style="fill:#231f20;fill-opacity:1;fill-rule:evenodd;stroke:none"
         id="path214" /><path
         d="m 343.555,170.805 v 13.601 c 0,2.59 -0.649,3.887 -1.297,4.535 -0.649,0.649 -1.942,1.293 -3.238,1.293 -0.649,0 -0.649,0 -1.297,0 0,0 -0.645,0 -1.293,0 v 1.946 h 46.633 v 0 h 0.648 l 3.887,-14.899 h -1.946 c -0.644,0.649 -0.644,1.946 -1.293,2.59 -0.648,0 -0.648,1.297 -1.296,1.945 -1.942,2.59 -3.887,4.536 -6.477,6.477 -1.941,1.297 -5.18,1.941 -9.715,1.941 H 353.27 v -27.203 h 7.125 c 0.648,0 1.293,0 1.941,0 0,0 1.297,0 1.945,0 1.942,0 3.883,1.297 5.828,2.594 1.942,1.293 2.59,4.531 3.239,8.418 h 1.297 v -25.906 h -1.297 c -0.649,4.531 -1.942,8.418 -3.887,9.715 -2.59,1.296 -5.18,2.589 -9.066,2.589 h -7.125 v -23.316 c 0,-1.945 0.648,-3.238 1.941,-3.887 0.648,-0.648 2.59,-1.297 4.535,-1.297 h 10.363 c 3.887,0 7.774,1.297 11.012,3.887 2.59,3.238 5.18,6.477 7.125,11.012 h 2.59 L 386.949,130 h -45.988 v 0 h -4.531 v 1.941 c 3.238,0 5.179,0.649 5.828,1.297 0.648,1.297 1.297,3.239 1.297,4.535 v 33.032"
         style="fill:#231f20;fill-opacity:1;fill-rule:evenodd;stroke:none"
         id="path216" /><path
         d="m 414.152,167.566 v 17.489 c 0,1.941 -0.648,3.238 -1.297,3.886 -0.644,0.649 -2.589,1.293 -5.828,1.293 v 1.946 h 45.989 v 0 0 l 5.179,-14.25 h -1.941 c 0,0.648 -0.649,1.297 -1.297,1.941 0,0 -0.648,1.297 -0.648,1.945 -1.942,1.942 -3.887,3.887 -6.477,5.829 -1.941,1.296 -5.828,2.589 -9.066,2.589 h -15.547 v -27.203 h 8.422 c 2.589,0 5.179,0.649 7.125,1.946 1.941,1.293 3.238,3.886 3.886,7.773 h 1.942 v -23.32 h -1.942 v 0.648 0.649 c -0.648,1.941 -1.297,4.535 -1.945,6.476 -1.293,1.945 -3.887,3.238 -9.066,3.887 h -8.422 v -21.375 c 0,-3.238 0.648,-5.18 1.297,-6.477 0.648,-0.648 3.238,-1.297 7.125,-1.297 V 130 h -24.614 v 1.941 c 3.239,0 5.828,0.649 6.477,1.297 0,0.649 0.648,3.239 0.648,5.828 v 0.649 c 0,0.648 0,1.297 0,1.297 v 26.554"
         style="fill:#231f20;fill-opacity:1;fill-rule:evenodd;stroke:none"
         id="path218" /><path
         d="m 358.184,1183.24 c 0,1.3 0.648,2.59 1.296,3.24 1.293,1.29 2.59,1.29 4.532,1.29 1.297,0 2.593,0 3.238,-0.64 0.648,-0.65 1.297,-1.95 1.297,-2.59 v -0.65 c 0,-0.65 0.648,-0.65 0.648,-0.65 0,-0.65 0,-0.65 0,-1.3 0,0 -0.648,-0.64 -0.648,-1.29 -0.649,-0.65 -1.297,-0.65 -1.942,-1.3 -0.648,-0.65 -1.945,-1.29 -3.238,-1.29 -0.648,0 -0.648,0 -0.648,0 -0.649,0 -1.297,0.64 -1.297,0.64 -0.649,0 -1.293,0.65 -1.942,1.3 -0.648,0 -1.296,1.3 -1.296,3.24 z m 0,29.79 c 0,1.3 0.648,2.6 1.296,3.24 1.293,1.3 2.59,1.3 4.532,1.3 1.297,0 2.593,0 3.238,-0.65 0.648,-0.65 1.297,-1.94 1.297,-2.59 v -0.65 l 0.648,-0.65 v -0.64 c 0,-0.65 -0.648,-1.3 -0.648,-1.3 -0.649,-1.3 -1.297,-1.94 -1.942,-2.59 -0.648,-0.65 -1.945,-1.3 -3.238,-1.3 -0.648,0 -0.648,0 -0.648,0 -0.649,0 -1.297,0 -1.297,0 -0.649,0.65 -1.293,1.3 -1.942,1.95 -0.648,0.64 -1.296,1.94 -1.296,3.88"
         style="fill:#231f20;fill-opacity:1;fill-rule:evenodd;stroke:none"
         id="path220" /><path
         d="m 424.25,1191.01 20.727,45.99 v 0 l 1.941,5.18 h 15.547 v -1.95 c -3.238,0 -5.184,-0.64 -5.832,-1.94 -1.293,-1.94 -1.293,-4.53 -1.293,-7.77 v -41.45 c 0,-2.59 0,-4.53 0.648,-5.83 0.645,-0.65 2.59,-1.94 4.532,-1.94 h 0.648 c 0.648,0 0.648,0.64 1.297,0.64 V 1180 h -24.613 v 1.94 c 3.238,0 5.179,0.65 6.476,0.65 0.649,0.65 1.297,3.89 1.297,7.77 v 42.1 l -20.082,-45.98 v 0 l -3.238,-6.48 h -2.59 l -22.02,45.99 v 0 l -3.238,6.47 v -45.98 c 0,-1.3 0.645,-1.94 1.293,-3.24 1.297,-0.65 2.59,-1.94 5.184,-1.94 0.644,0 0.644,0 1.293,0 l 0.648,0.64 V 1180 h -18.781 v 1.94 c 2.59,0 5.179,0 5.828,0.65 1.293,0 1.941,1.95 1.941,3.89 v 46.63 0 0 c 0,1.3 -0.648,3.24 -1.293,4.53 -0.648,1.3 -2.593,2.59 -5.832,2.59 v 1.95 h 16.196 l 20.726,-45.99 v 0 l 2.59,-5.18"
         style="fill:#231f20;fill-opacity:1;fill-rule:evenodd;stroke:none"
         id="path222" /><path
         d="m 1549.29,841.375 v 4.531 c 0,1.946 0,2.594 -0.65,3.242 0,0 -0.64,0 -1.94,0 h -0.65 v 0 1.942 h 12.96 c 3.24,0 5.83,-1.297 7.77,-2.59 1.29,-1.297 2.59,-3.238 3.24,-4.535 0,-0.649 0,-0.649 0,-1.297 v -0.645 c 0,-3.238 -1.3,-5.183 -2.59,-6.48 -1.95,-1.293 -3.89,-1.941 -5.83,-2.59 -0.65,0 -1.3,0 -1.94,0 -1.3,0 -1.95,0 -2.6,0 h -0.64 c -0.65,0 -0.65,0 -1.3,0 h -0.65 -0.65 v -8.418 c 0,-1.945 0.65,-2.594 0.65,-3.238 0.65,0 1.95,-0.649 3.89,-0.649 V 820 h -11.66 v 0.648 c 1.3,0 1.94,0.649 1.94,0.649 0.65,0.644 0.65,1.293 0.65,2.59 v 0.648 c 0,0 0,0 0,0.645 z m 15.55,0.648 c 0,2.59 0,4.532 -1.3,5.18 -0.65,1.297 -1.94,1.945 -3.24,1.945 -0.64,0 -0.64,0.645 -1.29,0.645 h -0.65 c -1.94,0 -3.24,-0.645 -3.89,-0.645 -0.65,-0.648 -0.65,-1.945 -0.65,-3.242 V 834.25 c 0.65,0 0.65,0 1.3,0 0.65,0 0.65,0 1.3,0 2.59,0 5.18,0 6.47,1.293 1.3,0.648 1.95,3.242 1.95,6.48"
         style="fill:#231f20;fill-opacity:1;fill-rule:evenodd;stroke:none"
         id="path224" /><path
         d="m 1581.68,846.555 c 0,1.297 -0.65,2.593 -1.3,2.593 0,0 -1.29,0.645 -1.94,0.645 v 1.297 h 12.95 0.65 c 0,0 0,-0.649 0.65,-0.649 1.94,0 4.53,-0.648 6.47,-1.941 1.95,-1.297 3.24,-3.238 3.24,-6.477 0,-2.593 -0.65,-4.535 -1.94,-5.183 -1.3,-1.297 -3.24,-2.59 -5.18,-3.238 0.65,-0.649 1.29,-1.297 1.94,-1.942 0.65,-0.648 1.3,-1.945 1.94,-2.594 0.65,-0.644 0.65,-0.644 0.65,-1.293 0.65,0 0.65,-0.648 1.3,-0.648 0,-0.648 0,-0.648 0,-0.648 0,-0.649 0.64,-0.649 0.64,-0.649 0,-0.648 0.65,-1.293 0.65,-1.941 0.65,0 0.65,-0.649 1.3,-1.297 0,-0.649 0.65,-1.293 1.29,-1.293 0,-0.649 0.65,-0.649 1.95,-0.649 v 0 c 0.65,0 0.65,0 0.65,0 V 820 h -7.78 c -0.65,0.648 -0.65,1.297 -1.29,1.941 0,0.649 -0.65,1.297 -1.3,1.946 0,0 0,0.648 -0.65,0.648 0,0 0,0.645 0,1.293 -0.64,0 -1.29,0.649 -1.29,1.297 -0.65,0.648 -1.3,1.297 -1.3,1.941 -0.64,0 -0.64,0.649 -1.29,1.297 l -0.65,0.649 c -0.65,0.648 -1.94,1.293 -2.59,1.941 -0.65,0 -1.94,0 -3.24,0.649 v -9.715 c 0,-1.297 0,-2.59 0.65,-2.59 0.65,-0.649 1.94,-0.649 3.24,-0.649 V 820 h -11.66 v 0.648 0 c 0.65,0 0.65,0 0.65,0 1.29,0 1.94,0 1.94,0.649 0.65,0.644 0.65,1.293 0.65,2.59 v 0 0 z m 4.53,-12.305 c 0,0 0,0 0.65,0 h 0.65 v 0 c 0.64,0 0.64,0 0.64,0 h 0.65 c 0,0 0,0 0.65,0 1.94,0 3.89,0.648 5.18,1.941 1.94,0.649 2.59,2.594 2.59,5.184 0,0.648 0,0.648 0,0.648 0,0.645 0,0.645 0,0.645 0,1.945 -0.65,3.238 -1.94,4.535 -0.65,1.297 -3.24,2.59 -5.83,2.59 -1.3,0 -1.94,-0.645 -2.59,-0.645 -0.65,0 -0.65,-1.296 -0.65,-2.593 V 834.25"
         style="fill:#231f20;fill-opacity:1;fill-rule:evenodd;stroke:none"
         id="path226" /><path
         d="m 1613.41,836.84 v 0.648 c 0,0 0,0 0,0.649 0.65,2.59 1.95,5.828 4.54,8.418 1.94,3.238 5.83,4.535 10.36,5.183 h 0.65 v 0 h 0.65 l 0.64,-0.648 c 3.24,0 6.48,-1.297 9.07,-3.887 3.24,-2.59 4.54,-6.476 5.18,-11.012 v 0 c 0,-0.648 0,-0.648 0,-0.648 0,-4.531 -1.29,-8.418 -3.88,-11.008 -2.59,-3.238 -6.48,-4.535 -11.66,-4.535 v 0 h -0.65 c -3.88,0 -7.77,0.648 -9.72,3.238 -2.59,2.59 -3.88,5.184 -4.53,8.422 0,0.645 -0.65,1.293 -0.65,1.942 0,0.648 0,1.296 0,1.941 v 0.648 z m 25.91,0 c 0,3.238 -0.64,6.476 -1.94,8.422 -1.3,1.293 -2.59,3.238 -3.89,3.886 -1.29,0.645 -1.94,0.645 -3.24,0.645 -0.64,0.648 -1.29,0.648 -1.94,0.648 -3.24,0 -5.83,-1.941 -7.12,-5.179 -1.95,-2.594 -2.6,-6.477 -2.6,-9.719 v 0 -0.645 c 0,-3.238 0.65,-6.476 1.95,-9.718 1.94,-2.59 5.18,-4.532 8.42,-4.532 3.24,0 5.18,1.293 6.48,3.239 1.94,1.941 3.24,4.535 3.88,7.125 0,0.648 0,1.293 0,1.941 0,0.649 0,1.297 0,1.945 v 0.645 c 0,0.648 0,0.648 0,1.297"
         style="fill:#231f20;fill-opacity:1;fill-rule:evenodd;stroke:none"
         id="path228" /><path
         d="m 1678.18,840.727 c -0.64,1.941 -1.94,4.535 -3.88,6.476 -1.94,1.297 -3.89,2.59 -6.48,2.59 -3.89,0 -7.12,-1.941 -9.07,-4.531 -1.94,-3.239 -3.23,-6.477 -3.23,-10.364 v 0 -0.648 0 0 c 0,-3.887 0.64,-7.125 2.59,-9.715 1.94,-3.238 4.53,-4.535 8.42,-4.535 1.94,0 3.88,0.648 5.18,1.297 1.29,1.293 1.94,2.59 1.94,4.531 v 3.238 c 0,1.946 0,2.594 -0.65,3.239 0,0 -1.29,0.648 -3.23,0.648 v 1.297 h 12.3 v -1.297 c -0.65,0 -0.65,0 -0.65,0 -0.65,0 -0.65,0 -1.29,0 -0.65,-0.648 -1.3,-0.648 -1.3,-1.293 0,0 -0.65,-1.297 -0.65,-2.594 v -6.476 l -0.64,-0.649 c -0.65,-0.644 -0.65,-0.644 -1.3,-0.644 -0.65,-0.649 -1.94,-1.297 -3.88,-1.297 -1.3,0 -3.24,-0.648 -5.19,-0.648 0,0 0,0 -0.64,0 0,0 0,0 -0.65,0 -3.89,0 -7.77,0.648 -9.72,2.589 -2.59,1.946 -4.53,5.184 -5.18,7.774 0,0.648 -0.65,1.297 -0.65,1.945 0,0.645 0,1.293 0,1.942 0,6.476 1.95,11.011 5.19,13.601 3.88,2.59 7.77,3.887 12.3,3.887 v 0 c 0.65,0 0.65,0 0.65,0 1.3,0 3.24,-0.649 4.53,-1.297 1.3,-0.645 2.59,-1.293 3.89,-1.941 l 1.29,1.941 h 0.65 l 0.65,-9.066 h -1.3"
         style="fill:#231f20;fill-opacity:1;fill-rule:evenodd;stroke:none"
         id="path230" /><path
         d="m 1692.43,846.555 c 0,1.297 -0.64,2.593 -1.29,2.593 0,0 -1.3,0.645 -1.94,0.645 v 1.297 h 12.95 0.65 c 0,0 0,-0.649 0.65,-0.649 1.94,0 4.53,-0.648 6.47,-1.941 1.94,-1.297 3.24,-3.238 3.24,-6.477 0,-2.593 -0.65,-4.535 -1.95,-5.183 -1.29,-1.297 -3.23,-2.59 -5.17,-3.238 0.64,-0.649 1.29,-1.297 1.94,-1.942 0.65,-0.648 1.29,-1.945 1.94,-2.594 0.65,-0.644 0.65,-0.644 0.65,-1.293 0.64,0 0.64,-0.648 1.29,-0.648 0,-0.648 0,-0.648 0,-0.648 0,-0.649 0.65,-0.649 0.65,-0.649 0,-0.648 0.65,-1.293 0.65,-1.941 0.65,0 0.65,-0.649 1.3,-1.297 0,-0.649 0.64,-1.293 1.29,-1.293 0,-0.649 0.65,-0.649 1.95,-0.649 v 0 c 0.64,0 0.64,0 0.64,0 V 820 h -7.77 c -0.65,0.648 -0.65,1.297 -1.3,1.941 0,0.649 -0.64,1.297 -1.29,1.946 0,0 0,0.648 -0.65,0.648 0,0 0,0.645 0,1.293 -0.65,0 -1.29,0.649 -1.29,1.297 -0.65,0.648 -1.3,1.297 -1.3,1.941 -0.65,0 -0.65,0.649 -1.29,1.297 l -0.65,0.649 c -0.65,0.648 -1.94,1.293 -2.59,1.941 -0.65,0 -1.95,0 -3.24,0.649 v -9.715 c 0,-1.297 0,-2.59 0.64,-2.59 0.65,-0.649 1.95,-0.649 3.25,-0.649 V 820 h -11.66 v 0.648 0 c 0.64,0 0.64,0 0.64,0 1.3,0 1.95,0 1.95,0.649 0.64,0.644 0.64,1.293 0.64,2.59 v 0 0 z m 4.54,-12.305 c 0,0 0,0 0.64,0 h 0.65 v 0 c 0.65,0 0.65,0 0.65,0 h 0.65 c 0,0 0,0 0.65,0 1.94,0 3.88,0.648 5.18,1.941 1.94,0.649 2.59,2.594 2.59,5.184 0,0.648 0,0.648 0,0.648 0,0.645 0,0.645 0,0.645 0,1.945 -0.65,3.238 -1.94,4.535 -0.65,1.297 -3.24,2.59 -5.83,2.59 -1.3,0 -1.95,-0.645 -2.6,-0.645 -0.64,0 -0.64,-1.296 -0.64,-2.593 V 834.25"
         style="fill:#231f20;fill-opacity:1;fill-rule:evenodd;stroke:none"
         id="path232" /><path
         d="m 1734.54,846.555 -1.3,1.297 h 0.65 v 0 c 0.65,0.648 1.29,1.296 1.94,1.941 0.65,0.648 0.65,1.297 1.3,1.945 l 9.06,-22.672 v 0 l 1.95,-5.179 h 0.65 c 0,-0.649 0,-0.649 0,-0.649 0,-0.648 0.64,-1.297 0.64,-1.297 0.65,-0.644 1.3,-0.644 2.59,-1.293 V 820 h -12.31 v 0.648 c 1.3,0 2.59,0 3.24,0.649 0.65,0 0.65,0 0.65,0.644 0,0.649 0,0.649 0,1.297 v 0.649 l -3.24,7.773 H 1730 l -2.59,-7.773 v -0.649 l -0.65,-0.648 c 0,0 0.65,-0.649 0.65,-1.293 0.65,0 1.94,-0.649 3.24,-0.649 V 820 h -8.42 v 0.648 c 1.29,0.649 1.94,0.649 1.94,1.293 0.65,0 0.65,0.649 1.29,1.297 0,0.649 0,0.649 0,0.649 0,0.648 0.65,0.648 0.65,1.293 z m 0.64,-1.293 -4.53,-12.309 h 9.06 z"
         style="fill:#231f20;fill-opacity:1;fill-rule:evenodd;stroke:none"
         id="path234" /><path
         d="m 1775.99,825.18 10.36,22.672 v 0.648 l 1.29,2.59 h 7.13 v -1.297 c -1.29,0 -2.59,-0.645 -2.59,-1.293 -0.65,-0.648 -0.65,-1.945 -0.65,-3.238 v -21.375 c 0,-0.649 0,-1.946 0,-2.59 0.65,0 1.3,-0.649 2.59,-0.649 v 0 c 0.65,0 0.65,0 0.65,0 V 820 h -11.66 v 0.648 c 1.3,0 2.59,0.649 2.59,0.649 0.65,0 1.3,1.293 1.3,3.883 v 20.726 l -10.37,-23.316 v 0 l -1.94,-2.59 h -0.65 l -11.01,22.668 v 0 l -1.94,3.238 v -22.668 c 0,-0.648 0.65,-1.297 0.65,-1.941 0.65,0 1.29,-0.649 2.59,-0.649 h 0.65 0.65 V 820 h -9.72 v 0.648 c 1.29,0 2.59,0 3.24,0.649 0,0 0.64,0.644 0.64,1.941 v 22.668 0 0 c 0,1.297 0,1.946 -0.64,2.594 0,0.648 -1.3,1.293 -2.6,1.293 v 1.297 h 7.78 l 10.36,-23.317 v 0 l 1.3,-2.593"
         style="fill:#231f20;fill-opacity:1;fill-rule:evenodd;stroke:none"
         id="path236" /><path
         d="m 1806.43,838.137 v 7.125 c 0,1.941 0,2.59 -0.65,3.238 0,0.648 -1.3,1.293 -3.24,1.293 v 1.297 h 12.96 v -1.297 c -1.95,0 -2.59,-0.645 -3.24,-0.645 -0.65,-0.648 -1.3,-1.945 -1.3,-3.886 v -22.024 c 0,-1.297 0.65,-1.941 1.3,-1.941 0.65,-0.649 1.29,-0.649 3.24,-0.649 V 820 h -12.96 v 0.648 0 0 0 h 0.65 c 0.65,0 1.29,0 1.94,0.649 1.3,0 1.3,1.293 1.3,2.59 v 14.25"
         style="fill:#231f20;fill-opacity:1;fill-rule:evenodd;stroke:none"
         id="path238" /><path
         d="m 1827.16,846.555 c 0,1.297 -0.65,2.593 -1.3,2.593 0,0 -1.3,0.645 -1.94,0.645 v 1.297 h 12.95 0.65 c 0,0 0,-0.649 0.64,-0.649 1.95,0 4.54,-0.648 6.48,-1.941 1.95,-1.297 3.24,-3.238 3.24,-6.477 0,-2.593 -0.65,-4.535 -1.94,-5.183 -1.3,-1.297 -3.24,-2.59 -5.18,-3.238 0.65,-0.649 1.29,-1.297 1.94,-1.942 0.65,-0.648 1.3,-1.945 1.94,-2.594 0.65,-0.644 0.65,-0.644 0.65,-1.293 0.65,0 0.65,-0.648 1.3,-0.648 0,-0.648 0,-0.648 0,-0.648 0,-0.649 0.64,-0.649 0.64,-0.649 0,-0.648 0.65,-1.293 0.65,-1.941 0.65,0 0.65,-0.649 1.3,-1.297 0,-0.649 0.64,-1.293 1.29,-1.293 0,-0.649 0.65,-0.649 1.94,-0.649 v 0 c 0.65,0 0.65,0 0.65,0 V 820 h -7.77 c -0.65,0.648 -0.65,1.297 -1.29,1.941 0,0.649 -0.65,1.297 -1.3,1.946 0,0 0,0.648 -0.65,0.648 0,0 0,0.645 0,1.293 -0.64,0 -1.29,0.649 -1.29,1.297 -0.65,0.648 -1.3,1.297 -1.3,1.941 -0.65,0 -0.65,0.649 -1.3,1.297 l -0.64,0.649 c -0.65,0.648 -1.95,1.293 -2.59,1.941 -0.65,0 -1.95,0 -3.24,0.649 v -9.715 c 0,-1.297 0,-2.59 0.65,-2.59 0.64,-0.649 1.94,-0.649 3.23,-0.649 V 820 h -11.65 v 0.648 0 c 0.64,0 0.64,0 0.64,0 1.3,0 1.95,0 1.95,0.649 0.65,0.644 0.65,1.293 0.65,2.59 v 0 0 z m 4.53,-12.305 c 0,0 0,0 0.65,0 h 0.64 v 0 c 0.65,0 0.65,0 0.65,0 h 0.65 c 0,0 0,0 0.65,0 1.94,0 3.88,0.648 5.18,1.941 1.94,0.649 2.59,2.594 2.59,5.184 0,0.648 0,0.648 0,0.648 0,0.645 0,0.645 0,0.645 0,1.945 -0.65,3.238 -1.94,4.535 -0.65,1.297 -3.24,2.59 -5.83,2.59 -1.3,0 -1.95,-0.645 -2.59,-0.645 -0.65,0 -0.65,-1.296 -0.65,-2.593 V 834.25"
         style="fill:#231f20;fill-opacity:1;fill-rule:evenodd;stroke:none"
         id="path240" /><path
         d="m 1886.74,826.477 v 19.429 c 0,0.649 -0.64,1.946 -0.64,2.594 -0.65,0.648 -1.3,1.293 -3.24,1.293 v 1.297 h 9.71 v -1.297 c -1.94,0 -3.23,-0.645 -3.23,-1.293 -0.65,-0.648 -1.3,-1.297 -1.3,-1.945 0,0 0,0 0,-0.649 0,0 0,0 0,-0.644 v -22.672 0 -2.59 h -1.3 l -21.37,22.023 v 0 l -2.59,3.239 v -22.024 c 0,-1.297 0.65,-1.941 1.29,-1.941 0.65,0 1.95,-0.649 3.24,-0.649 V 820 h -9.71 v 0.648 h 0.65 c 0,0 0,0 0.64,0 0.65,0 1.3,0 1.95,0.649 0,0 0.64,0.644 0.64,1.941 v 22.668 0 0.649 0 l -0.64,0.648 -0.65,0.649 c -0.65,0.648 -1.3,1.296 -1.3,1.296 -0.64,0 -0.64,0 -0.64,0 -0.65,0.645 -0.65,0.645 -0.65,0.645 v 1.297 h 6.47 l 21.38,-23.317 v 0 l 1.29,-1.296"
         style="fill:#231f20;fill-opacity:1;fill-rule:evenodd;stroke:none"
         id="path242" /><path
         d="m 1902.94,838.137 v 7.125 c 0,1.941 0,2.59 -0.65,3.238 0,0.648 -1.3,1.293 -3.24,1.293 v 1.297 H 1912 v -1.297 c -1.94,0 -2.59,-0.645 -3.23,-0.645 -0.65,-0.648 -1.3,-1.945 -1.3,-3.886 v -22.024 c 0,-1.297 0.65,-1.941 1.3,-1.941 0.64,-0.649 1.29,-0.649 3.23,-0.649 V 820 h -12.95 v 0.648 0 0 0 h 0.65 c 0.64,0 1.29,0 1.94,0.649 1.3,0 1.3,1.293 1.3,2.59 v 14.25"
         style="fill:#231f20;fill-opacity:1;fill-rule:evenodd;stroke:none"
         id="path244" /><path
         d="m 1606.94,794.094 v 9.066 0 0 c 0,0.649 -0.65,1.297 -0.65,1.297 0,0.645 -1.3,0.645 -2.59,0.645 v 1.296 c 1.29,0 2.59,0 3.89,0 1.29,0 2.59,0 3.88,0 1.3,0 3.24,0 4.53,0 1.3,0 2.59,0 3.89,0 5.83,0 9.72,-1.941 12.31,-4.535 2.59,-2.59 3.88,-5.828 4.53,-9.715 0,-0.648 0,-0.648 0,-0.648 v 0 c 0,-6.477 -1.94,-10.363 -5.18,-12.953 -3.89,-2.59 -7.77,-3.238 -12.31,-3.238 h -15.54 v 0.648 c 1.29,0 1.94,0.648 2.59,1.293 0,1.297 0.65,2.594 0.65,5.184 z m 4.53,7.121 v -20.723 c 0,-1.945 0,-3.242 1.3,-3.887 0.64,0 2.59,-0.648 4.53,-0.648 3.24,0 6.48,1.293 9.72,3.238 2.59,2.59 3.88,6.477 3.88,12.305 0,3.238 -0.65,6.477 -1.94,8.422 -1.3,1.941 -3.24,3.887 -5.18,4.535 -1.3,0.645 -2.59,0.645 -3.89,1.293 -1.3,0 -2.59,0 -2.59,0 -0.65,0 -0.65,0 -1.3,0 0,0 0,0 -0.64,0 -1.95,0 -3.24,-0.648 -3.24,-1.293 -0.65,-0.648 -0.65,-1.945 -0.65,-3.242"
         style="fill:#231f20;fill-opacity:1;fill-rule:evenodd;stroke:none"
         id="path246" /><path
         d="m 1647.09,795.387 v 6.476 c 0,1.297 0,2.594 -0.64,2.594 0,0 -0.65,0.645 -1.3,0.645 -0.65,0 -0.65,0 -0.65,0 -0.64,0 -0.64,0 -0.64,0 v 1.296 h 22.67 v 0 h 0.64 l 1.95,-7.773 h -1.3 c 0,0.648 0,0.648 0,1.297 -0.65,0 -0.65,0.648 -1.29,0.648 -0.65,1.293 -1.95,2.59 -2.6,3.239 -1.29,0.648 -3.23,1.293 -5.18,1.293 h -6.47 V 791.5 h 3.24 c 0.64,0 0.64,0 0.64,0 0.65,0 1.3,0 1.3,0 0.65,0 1.94,0.648 2.59,1.297 1.29,0.648 1.94,2.59 1.94,4.535 h 0.65 v -12.957 h -0.65 c 0,1.945 -1.29,3.887 -1.94,4.535 -1.3,0.649 -2.59,1.297 -4.53,1.297 h -3.24 v -11.66 c 0,-0.649 0,-1.297 0.64,-1.942 0.65,0 1.3,-0.648 2.6,-0.648 h 4.53 c 2.59,0 4.53,0.648 5.83,1.941 1.29,1.297 2.59,3.239 3.89,5.832 h 0.64 l -1.29,-8.421 h -23.32 v 0 h -1.94 v 0.648 c 1.29,0 2.59,0.648 2.59,0.648 0.64,0.645 0.64,1.293 0.64,2.59 v 16.192"
         style="fill:#231f20;fill-opacity:1;fill-rule:evenodd;stroke:none"
         id="path248" /><path
         d="m 1682.07,792.148 v 9.067 c 0,1.297 0,1.945 -0.65,2.594 -0.65,0.648 -1.29,1.293 -2.59,1.293 v 1.296 h 12.31 v -1.296 c -1.3,0 -2.59,-0.645 -3.24,-1.293 -0.65,-0.649 -1.29,-1.946 -1.29,-3.239 v -21.375 c 0,-1.297 0.64,-2.59 1.29,-2.59 0.65,-0.648 1.94,-0.648 2.59,-0.648 v 0 h 0.65 v 0 0 h 5.83 c 1.94,0 3.24,0.648 4.53,1.941 1.3,1.297 2.59,3.239 3.24,4.536 0.65,0.648 0.65,1.296 0.65,1.296 0.65,0 0.65,0.645 0.65,1.293 h 1.29 l -2.59,-9.714 h -23.32 v 0 h -2.59 v 0.648 0 c 0.65,0 0.65,0 0.65,0 h 0.65 v 0 c 0.64,0 1.29,0 1.29,0.648 0.65,0 0.65,1.293 0.65,1.942 v 13.601"
         style="fill:#231f20;fill-opacity:1;fill-rule:evenodd;stroke:none"
         id="path250" /><path
         d="m 1718.34,793.445 v 7.125 c 0,1.942 0,2.59 -0.64,3.239 0,0.648 -1.3,1.293 -3.24,1.293 v 1.296 h 12.95 v -1.296 c -1.95,0 -2.59,-0.645 -3.24,-0.645 -0.65,-0.648 -1.29,-1.945 -1.29,-3.887 v -22.023 c 0,-1.297 0.64,-1.942 1.29,-1.942 0.65,-0.648 1.29,-0.648 3.24,-0.648 v -0.648 h -12.95 v 0.648 0 0 0 h 0.64 c 0.65,0 1.3,0 1.95,0.648 1.29,0 1.29,1.293 1.29,2.59 v 14.25"
         style="fill:#231f20;fill-opacity:1;fill-rule:evenodd;stroke:none"
         id="path252" /><path
         d="m 1748.14,793.445 v 11.012 h -6.48 c -0.65,0 -1.95,0 -1.95,0 -0.64,0 -1.29,-0.648 -1.94,-0.648 0,-0.649 -0.64,-0.649 -0.64,-1.297 0,0 -0.65,-0.649 -0.65,-1.297 l -1.94,-3.238 -0.65,0.648 1.29,8.422 0.65,-0.649 h 0.65 c 0.65,0 1.29,0 1.94,0 0,0 1.29,0 1.94,0 h 20.08 c 0.65,0 1.3,0 1.3,0 0.65,0 1.29,0 1.94,0 0.65,0 0.65,0 1.3,0 0,0.649 0.65,0.649 0.65,0.649 l 1.94,-8.422 -0.65,-0.648 -3.24,5.183 v 0 0 c -0.65,0.649 -1.29,1.297 -1.94,1.297 -0.65,0 -1.3,0 -1.95,0 h -7.12 v -12.309 -12.953 c 0,-1.297 0.65,-2.59 1.29,-2.59 0.65,-0.648 1.95,-0.648 3.89,-0.648 v -0.648 h -13.6 v 0.648 c 1.94,0 3.24,0.648 3.24,0.648 0.65,0.645 0.65,1.293 0.65,2.59 v 0 0 14.25"
         style="fill:#231f20;fill-opacity:1;fill-rule:evenodd;stroke:none"
         id="path254" /><path
         d="m 1776.63,795.387 v 6.476 c 0,1.297 0,2.594 -0.64,2.594 0,0 -0.65,0.645 -1.3,0.645 -0.65,0 -0.65,0 -0.65,0 -0.65,0 -0.65,0 -0.65,0 v 1.296 h 22.68 v 0 h 0.64 l 1.95,-7.773 h -1.3 c 0,0.648 0,0.648 0,1.297 -0.65,0 -0.65,0.648 -1.29,0.648 -0.65,1.293 -1.95,2.59 -2.59,3.239 -1.3,0.648 -3.25,1.293 -5.19,1.293 h -6.47 V 791.5 h 3.23 c 0.65,0 0.65,0 0.65,0 0.65,0 1.3,0 1.3,0 0.64,0 1.94,0.648 2.59,1.297 1.29,0.648 1.94,2.59 1.94,4.535 h 0.65 v -12.957 h -0.65 c 0,1.945 -1.3,3.887 -1.94,4.535 -1.3,0.649 -2.59,1.297 -4.54,1.297 h -3.23 v -11.66 c 0,-0.649 0,-1.297 0.64,-1.942 0.65,0 1.3,-0.648 2.59,-0.648 h 4.54 c 2.59,0 4.53,0.648 5.83,1.941 1.29,1.297 2.59,3.239 3.88,5.832 h 0.65 l -1.29,-8.421 h -23.32 v 0 h -1.95 v 0.648 c 1.3,0 2.6,0.648 2.6,0.648 0.64,0.645 0.64,1.293 0.64,2.59 v 16.192"
         style="fill:#231f20;fill-opacity:1;fill-rule:evenodd;stroke:none"
         id="path256" /><path
         d="m 1811.61,792.148 v 9.067 c 0,1.297 0,1.945 -0.65,2.594 -0.64,0.648 -1.29,1.293 -2.59,1.293 v 1.296 h 12.31 v -1.296 c -1.3,0 -2.59,-0.645 -3.24,-1.293 -0.65,-0.649 -1.3,-1.946 -1.3,-3.239 v -21.375 c 0,-1.297 0.65,-2.59 1.3,-2.59 0.65,-0.648 1.94,-0.648 2.59,-0.648 v 0 h 0.65 v 0 0 h 5.83 c 1.94,0 3.24,0.648 4.53,1.941 1.3,1.297 2.59,3.239 3.24,4.536 0.65,0.648 0.65,1.296 0.65,1.296 0.64,0 0.64,0.645 0.64,1.293 h 1.3 l -2.59,-9.714 h -23.32 v 0 h -2.59 v 0.648 0 c 0.65,0 0.65,0 0.65,0 h 0.65 v 0 c 0.65,0 1.29,0 1.29,0.648 0.65,0 0.65,1.293 0.65,1.942 v 13.601"
         style="fill:#231f20;fill-opacity:1;fill-rule:evenodd;stroke:none"
         id="path258" /><path
         d="m 1848.53,794.738 v 5.832 c 0,1.942 0,2.59 -0.65,3.239 -0.65,0.648 -1.29,1.293 -1.94,1.293 -0.65,0 -0.65,0 -0.65,0 h -0.65 v 1.296 h 12.31 v -1.296 c -1.3,0 -2.59,-0.645 -3.24,-1.293 0,-0.649 -0.65,-1.297 -0.65,-3.239 v -20.078 c 0,-3.242 0,-5.832 -1.29,-7.773 -0.65,-1.946 -2.59,-3.887 -3.89,-3.887 -0.65,-0.648 -1.29,-0.648 -1.29,-0.648 -0.65,0 -1.3,0 -1.3,0 -0.65,0 -1.29,0 -1.94,0 0,0.648 -0.65,0.648 -0.65,1.296 -0.65,0 -0.65,0 -0.65,0.649 v 0.644 0.649 0 c 0,0 0,0.648 0,1.297 0,0.648 1.3,0.648 1.95,0.648 0.64,0 0.64,0 1.29,-0.648 l 0.65,-0.649 v -0.648 0 c 0,0 0,-0.649 0.65,-0.649 0,0 0,-0.644 0.64,-0.644 0.65,-0.649 0.65,-0.649 1.3,0 0,0.644 0,1.293 0,2.59 v 22.019 0"
         style="fill:#231f20;fill-opacity:1;fill-rule:evenodd;stroke:none"
         id="path260" /><path
         d="m 1683.37,673.238 c 0,1.297 0.64,2.59 1.29,3.239 1.3,1.296 2.59,1.296 4.54,1.296 1.29,0 2.59,0 3.23,-0.648 0.65,-0.648 1.3,-1.945 1.3,-2.59 v -0.648 c 0,-0.649 0.65,-0.649 0.65,-0.649 0,-0.648 0,-0.648 0,-1.297 0,0 -0.65,-0.644 -0.65,-1.293 -0.65,-0.648 -1.3,-0.648 -1.94,-1.296 -0.65,-0.649 -1.95,-1.293 -3.24,-1.293 -0.65,0 -0.65,0 -0.65,0 -0.65,0 -1.29,0.644 -1.29,0.644 -0.65,0 -1.3,0.649 -1.95,1.297 -0.65,0 -1.29,1.297 -1.29,3.238 z m 0,29.793 c 0,1.297 0.64,2.594 1.29,3.239 1.3,1.296 2.59,1.296 4.54,1.296 1.29,0 2.59,0 3.23,-0.648 0.65,-0.648 1.3,-1.941 1.3,-2.59 v -0.648 l 0.65,-0.649 v -0.644 c 0,-0.649 -0.65,-1.297 -0.65,-1.297 -0.65,-1.297 -1.3,-1.942 -1.94,-2.59 -0.65,-0.648 -1.95,-1.297 -3.24,-1.297 -0.65,0 -0.65,0 -0.65,0 -0.65,0 -1.29,0 -1.29,0 -0.65,0.649 -1.3,1.297 -1.95,1.945 -0.65,0.645 -1.29,1.942 -1.29,3.883"
         style="fill:#231f20;fill-opacity:1;fill-rule:evenodd;stroke:none"
         id="path262" /><path
         d="m 1767.57,682.953 v 39.512 c 0,1.941 -0.65,3.887 -1.3,5.18 -0.64,1.296 -3.24,2.589 -6.48,2.589 v 1.946 h 18.79 v -1.946 c -2.59,0 -5.19,-0.644 -6.48,-1.941 -0.65,-1.297 -1.94,-2.59 -1.94,-3.887 0,-0.648 0,-1.293 0,-1.293 0,-0.648 0,-1.297 0,-1.297 v -46.636 0 -5.828 h -1.95 l -42.75,45.988 h -0.64 l -5.18,5.18 v -44.043 c 0,-1.942 1.29,-3.239 2.59,-3.887 1.29,0 3.23,-0.649 5.83,-0.649 V 670 h -18.79 v 1.941 h 0.65 c 0.65,0 0.65,0 1.29,0 1.3,0 3.25,0 3.89,0.649 1.3,0.648 1.95,1.945 1.95,3.887 v 46.636 0 0.645 l -0.65,0.648 -0.65,0.649 c -0.65,0.648 -1.29,1.297 -1.94,1.941 -0.65,0.649 -1.95,1.297 -2.6,1.945 -0.64,0 -0.64,0.649 -1.29,0.649 -0.65,0.644 -1.29,0.644 -1.29,0.644 v 1.946 h 14.25 l 41.45,-45.989 h 0.65 l 2.59,-3.238"
         style="fill:#231f20;fill-opacity:1;fill-rule:evenodd;stroke:none"
         id="path264" /></g></g></svg>
