<?xml version="1.0" encoding="UTF-8" standalone="no"?>
<!-- Created with Inkscape (http://www.inkscape.org/) -->

<svg
   version="1.1"
   id="svg2"
   xml:space="preserve"
   width="214.66667"
   height="213.33333"
   viewBox="0 0 214.66667 213.33333"
   xmlns="http://www.w3.org/2000/svg"
   xmlns:svg="http://www.w3.org/2000/svg"><defs
     id="defs6" /><g
     id="g8"
     transform="matrix(1.3333333,0,0,-1.3333333,0,213.33333)"><g
       id="g10"
       transform="scale(0.1)"><path
         d="M 94.1992,91 H 1512.6 V 1510.2 H 94.1992 Z"
         style="fill:none;stroke:#231f20;stroke-width:11.5;stroke-linecap:butt;stroke-linejoin:miter;stroke-miterlimit:11.4737;stroke-dasharray:none;stroke-opacity:1"
         id="path12" /><path
         d="M 377.898,376.199 V 829.801 H 491.699 V 376.199 Z"
         style="fill:none;stroke:#231f20;stroke-width:14.4;stroke-linecap:butt;stroke-linejoin:miter;stroke-miterlimit:11.4737;stroke-dasharray:none;stroke-opacity:1"
         id="path14" /><path
         d="M 660.898,347.398 H 1114.5 V 234.301 H 660.898 Z"
         style="fill:none;stroke:#231f20;stroke-width:14.4;stroke-linecap:butt;stroke-linejoin:miter;stroke-miterlimit:11.4737;stroke-dasharray:none;stroke-opacity:1"
         id="path16" /><path
         d="M 661.602,970.898 H 1115.2 V 857.801 H 661.602 Z"
         style="fill:none;stroke:#231f20;stroke-width:14.4;stroke-linecap:butt;stroke-linejoin:miter;stroke-miterlimit:11.4737;stroke-dasharray:none;stroke-opacity:1"
         id="path18" /><path
         d="m 859.602,1083.9 v 283.7"
         style="fill:none;stroke:#231f20;stroke-width:14.4;stroke-linecap:butt;stroke-linejoin:miter;stroke-miterlimit:11.4737;stroke-dasharray:none;stroke-opacity:1"
         id="path20" /><path
         d="m 916.5,1168.9 v 113"
         style="fill:none;stroke:#231f20;stroke-width:20.2;stroke-linecap:butt;stroke-linejoin:miter;stroke-miterlimit:11.4737;stroke-dasharray:none;stroke-opacity:1"
         id="path22" /><path
         d="m 795.449,1273.76 h 15.836 l 0.004,15.12 h 3.598 v -15.12 h 15.117 v -5.04 h -15.121 v -15.12 h -3.602 l 0.004,15.12 h -15.836 v 5.04"
         style="fill:#231f20;fill-opacity:1;fill-rule:evenodd;stroke:none"
         id="path24" /><path
         d="m 795.449,1273.76 h 15.836 l 0.004,15.12 h 3.598 v -15.12 h 15.117 v -5.04 h -15.121 v -15.12 h -3.602 l 0.004,15.12 h -15.836 z"
         style="fill:none;stroke:#231f20;stroke-width:2.9;stroke-linecap:butt;stroke-linejoin:miter;stroke-miterlimit:11.4737;stroke-dasharray:none;stroke-opacity:1"
         id="path26" /><path
         d="m 949.125,1252.88 v 20.16 h 5.762 l -0.004,-20.16 h -5.758"
         style="fill:#231f20;fill-opacity:1;fill-rule:evenodd;stroke:none"
         id="path28" /><path
         d="m 949.125,1252.88 v 20.16 h 5.762 l -0.004,-20.16 z"
         style="fill:none;stroke:#231f20;stroke-width:2.9;stroke-linecap:butt;stroke-linejoin:miter;stroke-miterlimit:11.4737;stroke-dasharray:none;stroke-opacity:1"
         id="path30" /><path
         d="m 435.5,829.801 -1.398,395.199 426.199,0.8"
         style="fill:none;stroke:#231f20;stroke-width:8.6;stroke-linecap:butt;stroke-linejoin:miter;stroke-miterlimit:11.4737;stroke-dasharray:none;stroke-opacity:1"
         id="path32" /><path
         d="M 434.801,376.199 V 290.5 h 226.801"
         style="fill:none;stroke:#231f20;stroke-width:8.6;stroke-linecap:butt;stroke-linejoin:miter;stroke-miterlimit:11.4737;stroke-dasharray:none;stroke-opacity:1"
         id="path34" /><path
         d="m 1040.32,1330.63 c 1.43,0 2.15,0 2.15,0 0,0 0.73,0 1.44,0 0,0 1.45,1.44 2.16,1.44 v 0.72 c 0.72,0.72 0.72,1.44 0.72,1.44 h 2.88 l -5.76,-13.68 h -26.63 l -1.44,-15.84 c 12.23,0 21.59,-2.88 27.36,-7.92 6.47,-5.04 9.35,-12.24 9.35,-21.59 0,-6.48 -2.16,-12.24 -5.76,-15.84 -2.88,-3.6 -7.2,-7.2 -12.24,-8.64 -0.71,-0.72 -2.87,-0.72 -4.32,-0.72 -1.43,0 -2.87,-0.72 -4.31,-0.72 h -0.72 c -0.72,0 -1.44,0 -1.44,0 -0.72,0 -2.16,0 -2.88,0 -0.72,0 -1.44,0.72 -2.16,0.72 -4.32,0 -7.2,0.72 -10.8,2.16 -2.88,1.44 -5.04,3.6 -5.04,6.48 v 0 0 0 c 0,1.44 1.44,2.88 2.16,3.6 0.72,0.72 1.44,0.72 2.88,0.72 0.72,0 0.72,0 1.44,0 0.72,0 2.16,-0.72 2.16,-1.44 0.72,0 2.16,-0.72 2.88,-1.44 0.72,-1.44 1.44,-2.88 2.16,-4.32 0.72,-0.72 2.16,-2.16 3.6,-2.88 1.44,0 3.6,-0.72 5.76,-0.72 0,0 0.72,0 1.44,0 0.71,0 1.44,0 2.16,0 3.6,0.72 6.48,2.88 8.64,5.76 2.88,2.88 5.04,7.2 5.04,12.24 v 0.72 0.72 c 0,7.92 -2.16,13.67 -7.2,16.56 -5.04,3.59 -10.8,5.75 -16.56,5.75 -0.72,0 -1.44,0 -2.16,0 -0.72,0 -1.44,0 -2.16,0 -0.72,0 -1.44,0 -2.16,0 -0.72,0 -1.44,0 -2.16,0 l 3.6,36.72 h 25.92"
         style="fill:#231f20;fill-opacity:1;fill-rule:evenodd;stroke:none"
         id="path36" /><path
         d="m 1112.3,1265.84 20.88,54.71 c 0.72,1.44 0.72,2.16 0.72,2.88 0,0.72 0.72,1.44 0.72,2.16 0,2.16 -1.44,3.6 -2.88,3.6 -2.16,0.72 -5.04,1.44 -8.64,1.44 v 2.88 h 23.76 v -2.88 c -2.16,0 -4.32,-1.44 -5.76,-2.88 -1.44,-2.16 -2.88,-5.04 -4.32,-7.92 v 0 l -0.72,-0.72 -23.04,-61.91 v 0 l -3.59,-9.36 h -2.88 l -24.48,61.19 -5.04,10.8 c 0,1.44 -0.72,2.88 -0.72,2.88 0,0.72 -0.72,2.16 -1.44,2.88 -0.72,1.44 -1.44,2.88 -2.16,3.6 -1.44,0.72 -2.88,1.44 -4.32,1.44 v 2.88 h 31.68 v -2.88 c -0.72,0 -1.44,-0.72 -2.16,-0.72 -0.72,0 -0.72,0 -1.45,0 -2.15,0 -4.31,-0.72 -5.03,-0.72 -1.44,-0.72 -2.88,-1.44 -2.88,-3.6 0,0 0,-0.72 0,-1.44 0,-0.72 0.72,-1.44 1.44,-2.16 l 22.31,-56.15"
         style="fill:#231f20;fill-opacity:1;fill-rule:evenodd;stroke:none"
         id="path38" /><g
         id="g40"
         transform="scale(10)"><text
           transform="matrix(1,0,0,-1,52,54)"
           style="font-variant:normal;font-weight:normal;font-size:12.0223px;font-family:Symbol;-inkscape-font-specification:Symbol;writing-mode:lr-tb;fill:#231f20;fill-opacity:1;fill-rule:nonzero;stroke:none"
           id="text48"><tspan
             x="0 6.7671723"
             y="0"
             id="tspan42">4Ω</tspan><tspan
             x="28 33.759361 40.598408"
             y="-20"
             id="tspan44">10Ω</tspan><tspan
             x="28 34.767174"
             y="17"
             id="tspan46">6Ω</tspan></text></g><path
         d="m 1115.2,290.5 141.1,0.699 V 1225 H 917.199"
         style="fill:none;stroke:#231f20;stroke-width:8.6;stroke-linecap:butt;stroke-linejoin:miter;stroke-miterlimit:11.4737;stroke-dasharray:none;stroke-opacity:1"
         id="path50" /><path
         d="M 662.301,914.699 H 435.5"
         style="fill:none;stroke:#231f20;stroke-width:8.6;stroke-linecap:butt;stroke-linejoin:miter;stroke-miterlimit:11.4737;stroke-dasharray:none;stroke-opacity:1"
         id="path52" /><path
         d="M 1115.2,914.699 H 1257"
         style="fill:none;stroke:#231f20;stroke-width:8.6;stroke-linecap:butt;stroke-linejoin:miter;stroke-miterlimit:11.4737;stroke-dasharray:none;stroke-opacity:1"
         id="path54" /><path
         d="m 434.102,929.801 c 7.898,0 14.398,-5.699 14.398,-14.403 0,-8.597 -6.5,-14.398 -14.398,-14.398 -7.903,0 -14.403,5.801 -14.403,14.398 0,8.704 6.5,14.403 14.403,14.403"
         style="fill:#231f20;fill-opacity:1;fill-rule:evenodd;stroke:none"
         id="path56" /><path
         d="m 434.102,929.801 c 7.898,0 14.398,-5.699 14.398,-14.403 0,-8.597 -6.5,-14.398 -14.398,-14.398 -7.903,0 -14.403,5.801 -14.403,14.398 0,8.704 6.5,14.403 14.403,14.403 z"
         style="fill:none;stroke:#231f20;stroke-width:2.2;stroke-linecap:butt;stroke-linejoin:miter;stroke-miterlimit:11.4737;stroke-dasharray:none;stroke-opacity:1"
         id="path58" /><path
         d="m 1254.9,927.699 c 7.9,0 14.4,-5.801 14.4,-14.398 0,-8.699 -6.5,-14.403 -14.4,-14.403 -7.9,0 -14.4,5.704 -14.4,14.403 0,8.597 6.5,14.398 14.4,14.398"
         style="fill:#231f20;fill-opacity:1;fill-rule:evenodd;stroke:none"
         id="path60" /><path
         d="m 1254.9,927.699 c 7.9,0 14.4,-5.801 14.4,-14.398 0,-8.699 -6.5,-14.403 -14.4,-14.403 -7.9,0 -14.4,5.704 -14.4,14.403 0,8.597 6.5,14.398 14.4,14.398 z"
         style="fill:none;stroke:#231f20;stroke-width:2.2;stroke-linecap:butt;stroke-linejoin:miter;stroke-miterlimit:11.4737;stroke-dasharray:none;stroke-opacity:1"
         id="path62" /><path
         d="m 1027.4,522.301 c -30.298,-10.801 -68.4,-16.5 -106.599,-16.5 -96.5,0 -175,36.699 -175,82 0,45.398 78.5,82.097 175,82.097 74.898,0 134.599,-21.597 166.299,-56.097"
         style="fill:none;stroke:#231f20;stroke-width:8.6;stroke-linecap:butt;stroke-linejoin:miter;stroke-miterlimit:11.4737;stroke-dasharray:none;stroke-opacity:1"
         id="path64" /><path
         d="M 1110.9,587.102 1069.1,667 c -2.9,-18.699 -12.9,-28.801 -33.1,-30.199 l 74.9,-49.699"
         style="fill:#231f20;fill-opacity:1;fill-rule:evenodd;stroke:none"
         id="path66" /><path
         d="m 896.559,598.953 v 20.156 c 0,3.602 -0.723,7.2 -1.442,8.641 -1.437,1.438 -5.039,2.879 -10.078,2.879 v 2.879 h 35.274 v -2.879 c -4.317,0 -7.196,-0.719 -8.637,-2.16 -2.16,-0.719 -2.879,-4.321 -2.879,-9.36 v -59.031 c 0,-3.598 0.719,-5.758 2.879,-6.48 1.441,-0.719 4.32,-0.719 8.637,-0.719 V 550 h -35.274 v 2.879 h 0.719 v 0 0 h 0.722 c 2.879,0 5.04,0 7.2,0 1.437,0.719 2.879,3.601 2.879,7.918 v 38.156"
         style="fill:#231f20;fill-opacity:1;fill-rule:evenodd;stroke:none"
         id="path68" /><path
         d="m 896.559,598.953 v 20.156 c 0,3.602 -0.723,7.2 -1.442,8.641 -1.437,1.438 -5.039,2.879 -10.078,2.879 v 2.879 h 35.274 v -2.879 c -4.317,0 -7.196,-0.719 -8.637,-2.16 -2.16,-0.719 -2.879,-4.321 -2.879,-9.36 v -59.031 c 0,-3.598 0.719,-5.758 2.879,-6.48 1.441,-0.719 4.32,-0.719 8.637,-0.719 V 550 h -35.274 v 2.879 h 0.719 v 0 0 h 0.722 c 2.879,0 5.04,0 7.2,0 1.437,0.719 2.879,3.601 2.879,7.918 z"
         style="fill:none;stroke:#231f20;stroke-width:2.2;stroke-linecap:butt;stroke-linejoin:miter;stroke-miterlimit:11.4737;stroke-dasharray:none;stroke-opacity:1"
         id="path70" /><path
         d="m 951.27,598.953 v 20.156 c 0,3.602 -0.719,7.2 -1.438,8.641 -1.441,1.438 -5.039,2.879 -10.082,2.879 v 2.879 h 35.277 v -2.879 c -4.32,0 -7.199,-0.719 -8.64,-2.16 -2.16,-0.719 -2.879,-4.321 -2.879,-9.36 v -59.031 c 0,-3.598 0.719,-5.758 2.879,-6.48 1.441,-0.719 4.32,-0.719 8.64,-0.719 V 550 H 939.75 v 2.879 h 0.723 v 0 0 h 0.718 c 2.879,0 5.039,0 7.2,0 1.441,0.719 2.879,3.601 2.879,7.918 v 38.156"
         style="fill:#231f20;fill-opacity:1;fill-rule:evenodd;stroke:none"
         id="path72" /><path
         d="m 951.27,598.953 v 20.156 c 0,3.602 -0.719,7.2 -1.438,8.641 -1.441,1.438 -5.039,2.879 -10.082,2.879 v 2.879 h 35.277 v -2.879 c -4.32,0 -7.199,-0.719 -8.64,-2.16 -2.16,-0.719 -2.879,-4.321 -2.879,-9.36 v -59.031 c 0,-3.598 0.719,-5.758 2.879,-6.48 1.441,-0.719 4.32,-0.719 8.64,-0.719 V 550 H 939.75 v 2.879 h 0.723 v 0 0 h 0.718 c 2.879,0 5.039,0 7.2,0 1.441,0.719 2.879,3.601 2.879,7.918 z"
         style="fill:none;stroke:#231f20;stroke-width:2.2;stroke-linecap:butt;stroke-linejoin:miter;stroke-miterlimit:11.4737;stroke-dasharray:none;stroke-opacity:1"
         id="path74" /></g></g></svg>
