<?xml version="1.0" encoding="UTF-8" standalone="no"?>
<!-- Created with Inkscape (http://www.inkscape.org/) -->

<svg
   version="1.1"
   id="svg2"
   xml:space="preserve"
   width="134.66667"
   height="72"
   viewBox="0 0 134.66667 72"
   xmlns="http://www.w3.org/2000/svg"
   xmlns:svg="http://www.w3.org/2000/svg"><defs
     id="defs6" /><g
     id="g8"
     transform="matrix(1.3333333,0,0,-1.3333333,0,72)"><g
       id="g10"
       transform="scale(0.1)"><path
         d="M 6.88281,524.461 H 999.008 V 14.2227 H 6.88281 Z"
         style="fill:none;stroke:#231f20;stroke-width:11.52;stroke-linecap:butt;stroke-linejoin:miter;stroke-miterlimit:2.6131;stroke-dasharray:none;stroke-opacity:1"
         id="path12" /><path
         d="M 373.75,405.145 H 657.215 V 121.68 H 373.75 Z"
         style="fill:none;stroke:#231f20;stroke-width:14.4;stroke-linecap:butt;stroke-linejoin:miter;stroke-miterlimit:2.6131;stroke-dasharray:none;stroke-opacity:1"
         id="path14" /><path
         d="M 373.75,344.438 H 211.695"
         style="fill:none;stroke:#231f20;stroke-width:14.4;stroke-linecap:butt;stroke-linejoin:miter;stroke-miterlimit:2.6131;stroke-dasharray:none;stroke-opacity:1"
         id="path16" /><path
         d="M 373.75,182.387 H 211.695"
         style="fill:none;stroke:#231f20;stroke-width:14.4;stroke-linecap:butt;stroke-linejoin:miter;stroke-miterlimit:2.6131;stroke-dasharray:none;stroke-opacity:1"
         id="path18" /><path
         d="M 819.266,263.672 H 657.215"
         style="fill:none;stroke:#231f20;stroke-width:14.4;stroke-linecap:butt;stroke-linejoin:miter;stroke-miterlimit:2.6131;stroke-dasharray:none;stroke-opacity:1"
         id="path20" /><path
         d="m 657.215,303.797 80.769,-40.641"
         style="fill:none;stroke:#231f20;stroke-width:14.4;stroke-linecap:butt;stroke-linejoin:miter;stroke-miterlimit:2.6131;stroke-dasharray:none;stroke-opacity:1"
         id="path22" /><path
         d="m 529.711,288.363 17.73,8.657 h 1.778 V 235.5 c 0,-4.07 0.164,-6.621 0.496,-7.629 0.348,-0.988 1.062,-1.758 2.125,-2.308 1.082,-0.532 3.265,-0.844 6.566,-0.918 v -1.981 h -27.414 v 1.981 c 3.446,0.074 5.664,0.367 6.676,0.898 0.988,0.516 1.687,1.211 2.09,2.09 0.383,0.883 0.586,3.504 0.586,7.867 v 39.332 c 0,5.301 -0.184,8.691 -0.531,10.195 -0.258,1.157 -0.715,2 -1.375,2.528 -0.661,0.535 -1.45,0.808 -2.383,0.808 -1.321,0 -3.172,-0.547 -5.539,-1.668 l -0.805,1.668"
         style="fill:#231f20;fill-opacity:1;fill-rule:evenodd;stroke:none"
         id="path24" /><path
         d="m 509.848,279.809 -57.817,-25.028 v 4.617 L 501.836,281 452.031,302.805 v 4.894 l 57.817,-25.25 v -2.64"
         style="fill:#231f20;fill-opacity:1;fill-rule:evenodd;stroke:none"
         id="path26" /><path
         d="m 450.055,222.664 h 66.761"
         style="fill:none;stroke:#231f20;stroke-width:8.64;stroke-linecap:butt;stroke-linejoin:miter;stroke-miterlimit:2.6131;stroke-dasharray:none;stroke-opacity:1"
         id="path28" /></g></g></svg>
