<?xml version="1.0" encoding="UTF-8" standalone="no"?>
<!-- Created with Inkscape (http://www.inkscape.org/) -->

<svg
   version="1.1"
   id="svg2"
   xml:space="preserve"
   width="417.33334"
   height="189.33333"
   viewBox="0 0 417.33334 189.33333"
   xmlns="http://www.w3.org/2000/svg"
   xmlns:svg="http://www.w3.org/2000/svg"><defs
     id="defs6" /><g
     id="g8"
     transform="matrix(1.3333333,0,0,-1.3333333,0,189.33333)"><g
       id="g10"
       transform="scale(0.1)"><path
         d="M 6.60156,1417.3 H 3122.8 V 0.300781 H 6.60156 Z"
         style="fill:none;stroke:#231f20;stroke-width:11.5;stroke-linecap:butt;stroke-linejoin:miter;stroke-miterlimit:11.4737;stroke-dasharray:none;stroke-opacity:1"
         id="path12" /><path
         d="M 254.301,826.898 C 206.102,839.102 171.5,884.5 171.5,936.301 c 0,62.699 49.699,113.099 110.199,113.099 60.5,0 110.102,-50.4 110.102,-113.099 0,-61.903 -49.602,-113 -110.102,-113 -9.398,0 -18.699,1.398 -27.398,3.597 z"
         style="fill:none;stroke:#231f20;stroke-width:8.6;stroke-linecap:butt;stroke-linejoin:miter;stroke-miterlimit:11.4737;stroke-dasharray:none;stroke-opacity:1"
         id="path14" /><path
         d="m 2622.84,1175.84 11.91,12.96 c 0,0 0,0.72 0.7,0.72 0,0 0,0.71 0,1.44 v 0 0 c 0,0 -0.7,0.72 -0.7,1.43 -0.7,0 -2.11,0.73 -3.51,0.73 v 1.43 h 11.91 v -1.43 c -0.7,0 -2.1,-0.73 -2.8,-0.73 -0.7,-0.71 -1.4,-1.43 -2.1,-2.16 -0.7,0 -0.7,-0.71 -1.4,-0.71 0,0 -0.7,-0.72 -0.7,-1.45 l -8.41,-8.63 11.91,-15.84 c 0.7,0 0.7,-0.72 1.4,-0.72 0,-0.72 0.7,-0.72 0.7,-1.44 0.7,0 0.7,-0.72 1.4,-0.72 0.7,0 1.4,0 2.1,0 V 1160 h -8.4 l -12.61,15.84 -1.4,-1.44 v -11.52 0 0 c 0,-0.72 0.7,-1.44 0.7,-1.44 0.7,-0.72 1.4,-0.72 2.1,-0.72 h 0.7 0.7 V 1160 h -12.61 v 0.72 c 0.7,0 2.11,0 2.11,0.72 0.69,0 1.4,0.72 1.4,2.16 v 24.47 c 0,1.45 -0.71,2.89 -0.71,3.61 -0.69,0.71 -2.1,1.44 -3.5,1.44 v 1.43 h 13.31 v -1.43 c -1.4,0 -2.8,-0.73 -3.5,-0.73 -0.7,-0.71 -0.7,-1.43 -0.7,-3.59 v -12.96"
         style="fill:#231f20;fill-opacity:1;fill-rule:evenodd;stroke:none"
         id="path16" /><path
         d="m 2652.25,1178.72 v 0.72 c 0,0 0,0 0,0.72 0.71,2.88 2.11,6.48 4.91,9.36 2.1,3.6 6.3,5.03 11.2,5.75 h 0.71 v 0 h 0.7 l 0.69,-0.72 c 3.51,0 7.01,-1.43 9.81,-4.32 3.5,-2.87 4.91,-7.19 5.61,-12.23 v 0 c 0,-0.72 0,-0.72 0,-0.72 0,-5.04 -1.41,-9.36 -4.21,-12.24 -2.8,-3.6 -7,-5.04 -12.6,-5.04 v 0 h -0.71 c -4.2,0 -8.4,0.72 -10.5,3.6 -2.8,2.88 -4.2,5.76 -4.9,9.36 0,0.72 -0.71,1.44 -0.71,2.16 0,0.72 0,1.44 0,2.16 v 0.72 z m 28.02,0 c 0,3.6 -0.7,7.2 -2.1,9.35 -1.4,1.45 -2.8,3.61 -4.2,4.32 -1.4,0.73 -2.1,0.73 -3.51,0.73 -0.69,0.72 -1.39,0.72 -2.1,0.72 -3.5,0 -6.3,-2.16 -7.7,-5.77 -2.1,-2.87 -2.8,-7.19 -2.8,-10.79 v 0 -0.72 c 0,-3.6 0.7,-7.2 2.1,-10.8 2.1,-2.88 5.6,-5.04 9.11,-5.04 3.5,0 5.6,1.44 7,3.6 2.1,2.16 3.5,5.04 4.2,7.92 0,0.72 0,1.44 0,2.16 0,0.72 0,1.44 0,2.16 v 0.72 c 0,0.72 0,0.72 0,1.44"
         style="fill:#231f20;fill-opacity:1;fill-rule:evenodd;stroke:none"
         id="path18" /><path
         d="m 2723,1167.2 v 21.6 c 0,0.72 -0.7,2.16 -0.7,2.88 -0.71,0.71 -1.41,1.44 -3.51,1.44 v 1.43 h 10.51 v -1.43 c -2.1,0 -3.5,-0.73 -3.5,-1.44 -0.7,-0.72 -1.4,-1.45 -1.4,-2.16 0,0 0,0 0,-0.72 0,0 0,0 0,-0.73 v -25.19 0 -2.88 h -1.4 l -23.12,24.48 v 0 l -2.8,3.59 v -24.47 c 0,-1.44 0.7,-2.16 1.4,-2.16 0.7,0 2.1,-0.72 3.5,-0.72 V 1160 h -10.5 v 0.72 h 0.7 c 0,0 0,0 0.7,0 0.7,0 1.4,0 2.1,0.72 0,0 0.7,0.72 0.7,2.16 v 25.2 0 0.72 0 l -0.7,0.71 -0.7,0.73 c -0.7,0.72 -1.4,1.43 -1.4,1.43 -0.7,0 -0.7,0 -0.7,0 -0.7,0.73 -0.7,0.73 -0.7,0.73 v 1.43 h 7 l 23.11,-25.91 v 0 l 1.41,-1.44"
         style="fill:#231f20;fill-opacity:1;fill-rule:evenodd;stroke:none"
         id="path20" /><path
         d="m 2764.32,1180.88 c 0,3.6 -0.7,6.48 -2.1,7.92 -1.4,1.43 -2.8,2.88 -4.2,3.59 -1.4,0 -2.11,0.73 -3.5,0.73 -0.71,0 -1.41,0 -2.11,0 -3.5,0 -6.3,-2.16 -8.4,-5.05 -2.1,-3.59 -2.8,-7.19 -2.8,-11.51 v 0 -0.72 c 0,-3.6 0.7,-7.92 2.8,-10.8 2.1,-3.6 4.9,-5.04 9.1,-5.04 3.51,0 5.6,1.44 7.71,2.88 2.1,2.16 3.5,5.04 4.2,8.64 h 0.7 V 1160 h -0.7 l -1.4,2.88 c -0.7,-0.72 -1.4,-1.44 -2.1,-1.44 -1.4,-0.72 -2.1,-1.44 -3.5,-1.44 -0.7,0 -1.4,0 -2.81,0 -0.69,0 -1.4,-0.72 -2.1,-0.72 -4.9,0 -9.1,1.44 -12.6,4.32 -3.51,2.88 -4.91,7.92 -4.91,12.96 0,0.72 0,1.44 0,1.44 0,0.72 0,1.44 0,2.16 0.7,3.6 2.81,6.48 4.91,9.36 2.8,2.87 6.3,5.03 11.2,5.03 1.4,0 2.81,0 4.91,0 1.4,-0.71 2.8,-1.43 4.9,-2.16 l 0.7,-0.71 c 0,-0.72 0.7,-0.72 0.7,-0.72 l 1.4,2.16 h 1.4 v -12.24 z m -10.51,15.83 h -3.5 l -5.6,8.65 h 1.4 l 6.3,-5.04 5.61,5.04 h 1.4 l -5.61,-8.65"
         style="fill:#231f20;fill-opacity:1;fill-rule:evenodd;stroke:none"
         id="path22" /><path
         d="m 2804.94,1167.2 v 21.6 c 0,0.72 -0.7,2.16 -0.7,2.88 -0.7,0.71 -1.4,1.44 -3.5,1.44 v 1.43 h 10.51 v -1.43 c -2.11,0 -3.5,-0.73 -3.5,-1.44 -0.71,-0.72 -1.41,-1.45 -1.41,-2.16 0,0 0,0 0,-0.72 0,0 0,0 0,-0.73 v -25.19 0 -2.88 h -1.4 l -23.11,24.48 v 0 l -2.8,3.59 v -24.47 c 0,-1.44 0.7,-2.16 1.4,-2.16 0.7,0 2.1,-0.72 3.5,-0.72 V 1160 h -10.5 v 0.72 h 0.7 c 0,0 0,0 0.69,0 0.71,0 1.41,0 2.11,0.72 0,0 0.7,0.72 0.7,2.16 v 25.2 0 0.72 0 l -0.7,0.71 -0.7,0.73 c -0.7,0.72 -1.41,1.43 -1.41,1.43 -0.69,0 -0.69,0 -0.69,0 -0.7,0.73 -0.7,0.73 -0.7,0.73 v 1.43 h 7 l 23.11,-25.91 v 0 l 1.4,-1.44"
         style="fill:#231f20;fill-opacity:1;fill-rule:evenodd;stroke:none"
         id="path24" /><path
         d="m 2829.46,1189.52 -1.41,1.44 h 0.71 v 0 c 0.7,0.72 1.4,1.43 2.1,2.16 0.7,0.72 0.7,1.43 1.4,2.15 l 9.8,-25.19 v 0 l 2.1,-5.76 h 0.71 c 0,-0.72 0,-0.72 0,-0.72 0,-0.72 0.7,-1.44 0.7,-1.44 0.7,-0.72 1.4,-0.72 2.8,-1.44 V 1160 h -13.31 v 0.72 c 1.4,0 2.8,0 3.5,0.72 0.7,0 0.7,0 0.7,0.72 0,0.72 0,0.72 0,1.44 v 0.72 l -3.5,8.64 h -11.21 l -2.8,-8.64 v -0.72 l -0.7,-0.72 c 0,0 0.7,-0.72 0.7,-1.44 0.7,0 2.11,-0.72 3.5,-0.72 V 1160 h -9.1 v 0.72 c 1.4,0.72 2.1,0.72 2.1,1.44 0.7,0 0.7,0.72 1.4,1.44 0,0.72 0,0.72 0,0.72 0,0.72 0.7,0.72 0.7,1.44 z m 0.7,-1.45 -4.91,-13.67 h 9.81 z"
         style="fill:#231f20;fill-opacity:1;fill-rule:evenodd;stroke:none"
         id="path26" /><path
         d="m 2610.23,1121.13 h 1.4 v 0 0 -0.72 0 c 0,-2.16 0.7,-4.32 2.1,-5.77 1.4,-2.15 3.5,-2.87 4.91,-3.59 0,0 0.7,0 1.4,0 l 0.7,-0.72 v 0 l 0.7,0.72 v 0 0 c 0,0 0.7,0 1.4,0 0,0 0.7,0 1.4,0 0.7,0 2.1,0.72 2.8,2.16 0.7,0.72 1.4,2.88 1.4,5.04 0,1.44 -0.7,2.88 -1.4,3.59 -0.7,0.73 -2.1,1.45 -3.5,2.16 -0.7,0 -1.4,0.73 -2.1,0.73 -0.7,0 -1.4,0 -2.1,0.72 v 0 h -0.7 l -0.7,0.71 c -2.1,0.72 -3.51,1.45 -4.9,2.88 -0.71,0.73 -1.41,3.6 -1.41,6.48 0,2.16 0.7,4.32 2.1,5.76 1.4,1.44 2.81,2.88 4.21,3.6 0.7,0 1.4,0 2.1,0 0.7,0 1.4,0.72 1.4,0.72 0.7,0 0.7,0 0.7,0 0,0 0,0 0.7,0 0.7,-0.72 1.4,-0.72 2.1,-0.72 1.4,0 2.1,-0.72 2.8,-0.72 0,-0.72 0.7,-0.72 1.4,-0.72 0,-0.72 0.7,-0.72 0.7,-1.44 l 1.4,1.44 h 0.71 v -10.08 h -0.71 c -0.7,2.88 -1.4,5.76 -2.8,7.92 -2.1,1.44 -4.2,2.88 -6.3,2.88 v 0 0 c -2.1,0 -3.5,-0.72 -4.91,-2.16 -0.69,-1.44 -1.39,-2.88 -2.1,-5.04 v 0 -0.72 c 0,-0.72 0.71,-2.16 1.41,-2.88 0.69,-1.43 1.4,-2.16 3.5,-2.88 v 0 h 0.7 c 0.7,0 1.4,-0.71 2.1,-0.71 0.7,0 1.4,-0.73 2.1,-0.73 2.1,-0.72 4.2,-2.16 5.6,-2.88 2.1,-1.43 2.8,-3.59 2.8,-6.47 0,-3.6 -0.7,-6.48 -2.8,-7.2 -2.1,-1.44 -4.2,-2.16 -7,-2.16 h -0.7 c 0,0 -0.7,0 -1.4,0 -1.4,0 -3.5,0 -4.9,0 -1.41,0.72 -2.81,1.44 -3.5,2.16 l -2.11,-2.16 h -0.7 v 10.8"
         style="fill:#231f20;fill-opacity:1;fill-rule:evenodd;stroke:none"
         id="path28" /><path
         d="m 2655.06,1130.48 v 12.24 h -7.01 c -0.7,0 -2.1,0 -2.1,0 -0.7,0 -1.4,-0.72 -2.1,-0.72 0,-0.72 -0.7,-0.72 -0.7,-1.44 0,0 -0.7,-0.72 -0.7,-1.44 l -2.1,-3.6 -0.7,0.72 1.4,9.36 0.7,-0.72 h 0.7 c 0.7,0 1.4,0 2.1,0 0,0 1.4,0 2.1,0 h 21.71 c 0.71,0 1.41,0 1.41,0 0.69,0 1.4,0 2.1,0 0.7,0 0.7,0 1.4,0 0,0.72 0.7,0.72 0.7,0.72 l 2.1,-9.36 -0.7,-0.72 -3.5,5.76 v 0 0 c -0.7,0.72 -1.41,1.44 -2.1,1.44 -0.7,0 -1.41,0 -2.11,0 h -7.7 v -13.68 -14.4 c 0,-1.43 0.7,-2.87 1.4,-2.87 0.7,-0.72 2.1,-0.72 4.2,-0.72 v -0.72 h -14.7 v 0.72 c 2.1,0 3.5,0.72 3.5,0.72 0.7,0.72 0.7,1.44 0.7,2.87 v 0 0 15.84"
         style="fill:#231f20;fill-opacity:1;fill-rule:evenodd;stroke:none"
         id="path30" /><path
         d="m 2681.67,1129.04 v 0.73 c 0,0 0,0 0,0.71 0.7,2.88 2.1,6.48 4.9,9.36 2.11,3.6 6.31,5.04 11.21,5.76 h 0.7 v 0 h 0.7 l 0.7,-0.72 c 3.51,0 7.01,-1.44 9.81,-4.32 3.5,-2.88 4.9,-7.2 5.6,-12.24 v 0 c 0,-0.71 0,-0.71 0,-0.71 0,-5.04 -1.4,-9.36 -4.2,-12.24 -2.8,-3.6 -7,-5.04 -12.61,-5.04 v 0 h -0.7 c -4.2,0 -8.4,0.72 -10.5,3.6 -2.81,2.87 -4.21,5.76 -4.91,9.36 0,0.71 -0.7,1.44 -0.7,2.16 0,0.71 0,1.43 0,2.16 v 0.71 z m 28.02,0 c 0,3.6 -0.7,7.2 -2.1,9.36 -1.4,1.44 -2.8,3.6 -4.2,4.32 -1.41,0.72 -2.1,0.72 -3.51,0.72 -0.7,0.72 -1.4,0.72 -2.1,0.72 -3.5,0 -6.3,-2.16 -7.7,-5.76 -2.1,-2.88 -2.8,-7.2 -2.8,-10.79 v 0 -0.73 c 0,-3.59 0.7,-7.19 2.1,-10.79 2.1,-2.88 5.6,-5.04 9.1,-5.04 3.5,0 5.61,1.44 7,3.59 2.11,2.16 3.51,5.05 4.21,7.93 0,0.72 0,1.43 0,2.16 0,0.72 0,1.43 0,2.15 v 0.73 c 0,0.71 0,0.71 0,1.43"
         style="fill:#231f20;fill-opacity:1;fill-rule:evenodd;stroke:none"
         id="path32" /><path
         d="m 2724.4,1134.08 v 5.04 c 0,2.16 0,2.88 -0.7,3.6 0,0 -0.7,0 -2.11,0 h -0.7 v 0 2.16 h 14.01 c 3.51,0 6.31,-1.44 8.41,-2.88 1.4,-1.44 2.8,-3.6 3.5,-5.04 0,-0.72 0,-0.72 0,-1.44 v -0.72 c 0,-3.6 -1.4,-5.76 -2.8,-7.19 -2.1,-1.45 -4.21,-2.16 -6.31,-2.88 -0.7,0 -1.4,0 -2.1,0 -1.4,0 -2.1,0 -2.8,0 h -0.7 c -0.7,0 -0.7,0 -1.4,0 h -0.7 -0.7 v -9.36 c 0,-2.16 0.7,-2.88 0.7,-3.6 0.7,0 2.1,-0.72 4.2,-0.72 v -0.72 h -12.61 v 0.72 c 1.41,0 2.11,0.72 2.11,0.72 0.7,0.72 0.7,1.44 0.7,2.87 v 0.73 c 0,0 0,0 0,0.72 z m 16.81,0.72 c 0,2.88 0,5.04 -1.41,5.76 -0.69,1.44 -2.1,2.16 -3.5,2.16 -0.7,0 -0.7,0.72 -1.4,0.72 h -0.7 c -2.1,0 -3.5,-0.72 -4.2,-0.72 -0.7,-0.72 -0.7,-2.16 -0.7,-3.6 v -12.96 c 0.7,0 0.7,0 1.4,0 0.7,0 0.7,0 1.4,0 2.8,0 5.6,0 7.01,1.45 1.4,0.71 2.1,3.59 2.1,7.19"
         style="fill:#231f20;fill-opacity:1;fill-rule:evenodd;stroke:none"
         id="path34" /><path
         d="m 2785.33,1117.53 v 21.59 c 0,0.72 -0.7,2.16 -0.7,2.88 -0.7,0.72 -1.4,1.44 -3.5,1.44 v 1.44 h 10.51 v -1.44 c -2.1,0 -3.51,-0.72 -3.51,-1.44 -0.7,-0.72 -1.4,-1.44 -1.4,-2.16 0,0 0,0 0,-0.72 0,0 0,0 0,-0.72 v -25.19 0 -2.88 h -1.4 l -23.11,24.47 v 0 l -2.8,3.6 v -24.47 c 0,-1.44 0.7,-2.16 1.4,-2.16 0.7,0 2.1,-0.72 3.5,-0.72 v -0.72 h -10.51 v 0.72 h 0.71 c 0,0 0,0 0.69,0 0.7,0 1.41,0 2.11,0.72 0,0 0.7,0.72 0.7,2.16 v 25.19 0 0.72 0 l -0.7,0.72 -0.7,0.72 c -0.71,0.72 -1.41,1.44 -1.41,1.44 -0.69,0 -0.69,0 -0.69,0 -0.71,0.72 -0.71,0.72 -0.71,0.72 v 1.44 h 7.01 l 23.11,-25.92 v 0 l 1.4,-1.43"
         style="fill:#231f20;fill-opacity:1;fill-rule:evenodd;stroke:none"
         id="path36" /><path
         d="m 2803.54,1131.93 v 6.47 c 0,2.16 0,2.88 -0.7,3.6 -0.7,0.72 -1.4,1.44 -2.1,1.44 -0.7,0 -0.7,0 -0.7,0 h -0.7 v 1.44 h 13.31 v -1.44 c -1.4,0 -2.8,-0.72 -3.51,-1.44 0,-0.72 -0.69,-1.44 -0.69,-3.6 v -22.31 c 0,-3.6 0,-6.48 -1.41,-8.64 -0.7,-2.16 -2.8,-4.32 -4.2,-4.32 -0.7,-0.72 -1.4,-0.72 -1.4,-0.72 -0.7,0 -1.4,0 -1.4,0 -0.7,0 -1.4,0 -2.1,0 0,0.72 -0.7,0.72 -0.7,1.44 -0.7,0 -0.7,0 -0.7,0.72 v 0.72 0.72 0 c 0,0 0,0.72 0,1.44 0,0.72 1.4,0.72 2.1,0.72 0.7,0 0.7,0 1.4,-0.72 l 0.7,-0.72 v -0.72 0 c 0,0 0,-0.72 0.7,-0.72 0,0 0,-0.72 0.7,-0.72 0.7,-0.72 0.7,-0.72 1.4,0 0,0.72 0,1.44 0,2.88 v 24.48 0"
         style="fill:#231f20;fill-opacity:1;fill-rule:evenodd;stroke:none"
         id="path38" /><path
         d="m 2832.26,1139.84 -1.4,1.44 h 0.7 v 0 c 0.7,0.72 1.4,1.44 2.1,2.16 0.7,0.72 0.7,1.44 1.4,2.16 l 9.81,-25.19 v 0 l 2.1,-5.77 h 0.7 c 0,-0.71 0,-0.71 0,-0.71 0,-0.72 0.7,-1.44 0.7,-1.44 0.7,-0.72 1.4,-0.72 2.8,-1.44 v -0.72 h -13.31 v 0.72 c 1.4,0 2.8,0 3.5,0.72 0.7,0 0.7,0 0.7,0.72 0,0.72 0,0.72 0,1.44 v 0.71 l -3.5,8.65 h -11.2 l -2.81,-8.65 v -0.71 l -0.69,-0.72 c 0,0 0.69,-0.72 0.69,-1.44 0.7,0 2.11,-0.72 3.5,-0.72 v -0.72 h -9.1 v 0.72 c 1.4,0.72 2.1,0.72 2.1,1.44 0.7,0 0.7,0.72 1.4,1.44 0,0.71 0,0.71 0,0.71 0,0.73 0.7,0.73 0.7,1.45 z m 0.7,-1.44 -4.91,-13.67 h 9.81 z"
         style="fill:#231f20;fill-opacity:1;fill-rule:evenodd;stroke:none"
         id="path40" /><path
         d="m 2120.23,1175.84 11.91,12.96 c 0,0 0,0.72 0.7,0.72 0,0 0,0.71 0,1.44 v 0 0 c 0,0 -0.7,0.72 -0.7,1.43 -0.7,0 -2.1,0.73 -3.5,0.73 v 1.43 h 11.9 v -1.43 c -0.7,0 -2.1,-0.73 -2.8,-0.73 -0.7,-0.71 -1.4,-1.43 -2.1,-2.16 -0.7,0 -0.7,-0.71 -1.4,-0.71 0,0 -0.7,-0.72 -0.7,-1.45 l -8.41,-8.63 11.91,-15.84 c 0.7,0 0.7,-0.72 1.4,-0.72 0,-0.72 0.7,-0.72 0.7,-1.44 0.7,0 0.7,-0.72 1.4,-0.72 0.7,0 1.41,0 2.1,0 V 1160 h -8.4 l -12.61,15.84 -1.4,-1.44 v -11.52 0 0 c 0,-0.72 0.7,-1.44 0.7,-1.44 0.7,-0.72 1.4,-0.72 2.11,-0.72 h 0.69 0.7 V 1160 h -12.6 v 0.72 c 0.7,0 2.1,0 2.1,0.72 0.7,0 1.4,0.72 1.4,2.16 v 24.47 c 0,1.45 -0.7,2.89 -0.7,3.61 -0.7,0.71 -2.1,1.44 -3.5,1.44 v 1.43 h 13.3 v -1.43 c -1.39,0 -2.8,-0.73 -3.5,-0.73 -0.7,-0.71 -0.7,-1.43 -0.7,-3.59 v -12.96"
         style="fill:#231f20;fill-opacity:1;fill-rule:evenodd;stroke:none"
         id="path42" /><path
         d="m 2153.85,1189.52 c 0,1.44 -0.7,2.87 -1.4,2.87 0,0 -1.4,0.73 -2.1,0.73 v 1.43 h 14.01 0.7 c 0,0 0,-0.71 0.7,-0.71 2.1,0 4.9,-0.72 7,-2.16 2.1,-1.45 3.51,-3.61 3.51,-7.2 0,-2.88 -0.71,-5.04 -2.11,-5.76 -1.4,-1.44 -3.5,-2.88 -5.6,-3.6 0.7,-0.72 1.4,-1.44 2.1,-2.16 0.7,-0.72 1.4,-2.16 2.1,-2.88 0.7,-0.72 0.7,-0.72 0.7,-1.44 0.7,0 0.7,-0.72 1.4,-0.72 0,-0.72 0,-0.72 0,-0.72 0,-0.72 0.7,-0.72 0.7,-0.72 0,-0.72 0.71,-1.44 0.71,-2.16 0.69,0 0.69,-0.72 1.39,-1.44 0,-0.72 0.7,-1.44 1.41,-1.44 0,-0.72 0.7,-0.72 2.1,-0.72 v 0 c 0.7,0 0.7,0 0.7,0 V 1160 h -8.41 c -0.7,0.72 -0.7,1.44 -1.4,2.16 0,0.72 -0.7,1.44 -1.4,2.16 0,0 0,0.72 -0.7,0.72 0,0 0,0.72 0,1.44 -0.7,0 -1.4,0.72 -1.4,1.44 -0.7,0.72 -1.4,1.44 -1.4,2.16 -0.7,0 -0.7,0.72 -1.4,1.44 l -0.7,0.72 c -0.7,0.72 -2.1,1.44 -2.81,2.16 -0.7,0 -2.09,0 -3.5,0.72 v -10.8 c 0,-1.44 0,-2.88 0.7,-2.88 0.71,-0.72 2.1,-0.72 3.51,-0.72 V 1160 h -12.61 v 0.72 0 c 0.7,0 0.7,0 0.7,0 1.4,0 2.1,0 2.1,0.72 0.7,0.72 0.7,1.44 0.7,2.88 v 0 0 z m 4.9,-13.68 c 0,0 0,0 0.7,0 h 0.71 v 0 c 0.7,0 0.7,0 0.7,0 h 0.69 c 0,0 0,0 0.7,0 2.11,0 4.21,0.72 5.61,2.16 2.1,0.72 2.8,2.88 2.8,5.76 0,0.72 0,0.72 0,0.72 0,0.72 0,0.72 0,0.72 0,2.16 -0.7,3.6 -2.1,5.03 -0.7,1.45 -3.5,2.89 -6.31,2.89 -1.39,0 -2.09,-0.73 -2.8,-0.73 -0.7,0 -0.7,-1.43 -0.7,-2.87 v -13.68"
         style="fill:#231f20;fill-opacity:1;fill-rule:evenodd;stroke:none"
         id="path44" /><path
         d="m 2208.48,1165.76 11.21,25.2 v 0.72 l 1.4,2.87 h 7.7 v -1.43 c -1.4,0 -2.8,-0.73 -2.8,-1.44 -0.7,-0.72 -0.7,-2.16 -0.7,-3.61 v -23.75 c 0,-0.72 0,-2.16 0,-2.88 0.7,0 1.4,-0.72 2.8,-0.72 v 0 c 0.7,0 0.7,0 0.7,0 V 1160 h -12.6 v 0.72 c 1.4,0 2.8,0.72 2.8,0.72 0.7,0 1.4,1.44 1.4,4.32 v 23.04 l -11.21,-25.92 v 0 l -2.1,-2.88 h -0.7 l -11.91,25.2 v 0 l -2.1,3.6 v -25.2 c 0,-0.72 0.7,-1.44 0.7,-2.16 0.7,0 1.4,-0.72 2.81,-0.72 h 0.69 0.71 V 1160 h -10.51 v 0.72 c 1.4,0 2.8,0 3.5,0.72 0,0 0.7,0.72 0.7,2.16 v 25.2 0 0 c 0,1.43 0,2.16 -0.7,2.88 0,0.71 -1.4,1.44 -2.8,1.44 v 1.43 h 8.41 l 11.2,-25.91 v 0 l 1.4,-2.88"
         style="fill:#231f20;fill-opacity:1;fill-rule:evenodd;stroke:none"
         id="path46" /><path
         d="m 2241.4,1180.16 v 7.91 c 0,2.16 0,2.89 -0.7,3.61 0,0.71 -1.4,1.44 -3.5,1.44 v 1.43 h 14.01 v -1.43 c -2.1,0 -2.8,-0.73 -3.51,-0.73 -0.7,-0.71 -1.4,-2.16 -1.4,-4.32 v -24.47 c 0,-1.44 0.7,-2.16 1.4,-2.16 0.71,-0.72 1.41,-0.72 3.51,-0.72 V 1160 h -14.01 v 0.72 0 0 0 h 0.7 c 0.7,0 1.4,0 2.1,0.72 1.4,0 1.4,1.44 1.4,2.88 v 15.84"
         style="fill:#231f20;fill-opacity:1;fill-rule:evenodd;stroke:none"
         id="path48" /><path
         d="m 2263.11,1178.72 v 10.08 c 0,1.43 0,2.16 -0.7,2.88 -0.7,0.71 -1.4,1.44 -2.8,1.44 v 1.43 h 13.31 v -1.43 c -1.4,0 -2.8,-0.73 -3.5,-1.44 -0.71,-0.72 -1.4,-2.16 -1.4,-3.61 v -23.75 c 0,-1.44 0.69,-2.88 1.4,-2.88 0.7,-0.72 2.1,-0.72 2.8,-0.72 v 0 h 0.7 v 0 0 h 6.3 c 2.1,0 3.5,0.72 4.91,2.16 1.4,1.44 2.8,3.6 3.5,5.04 0.7,0.72 0.7,1.44 0.7,1.44 0.7,0 0.7,0.72 0.7,1.44 h 1.4 l -2.8,-10.8 h -25.22 v 0 h -2.8 v 0.72 0 c 0.7,0 0.7,0 0.7,0 h 0.7 v 0 c 0.7,0 1.4,0 1.4,0.72 0.7,0 0.7,1.44 0.7,2.16 v 15.12"
         style="fill:#231f20;fill-opacity:1;fill-rule:evenodd;stroke:none"
         id="path50" /><path
         d="m 2328.25,1167.2 v 21.6 c 0,0.72 -0.7,2.16 -0.7,2.88 -0.7,0.71 -1.4,1.44 -3.5,1.44 v 1.43 h 10.5 v -1.43 c -2.1,0 -3.5,-0.73 -3.5,-1.44 -0.7,-0.72 -1.4,-1.45 -1.4,-2.16 0,0 0,0 0,-0.72 0,0 0,0 0,-0.73 v -25.19 0 -2.88 h -1.4 l -23.11,24.48 v 0 l -2.8,3.59 v -24.47 c 0,-1.44 0.7,-2.16 1.4,-2.16 0.7,0 2.1,-0.72 3.5,-0.72 V 1160 h -10.51 v 0.72 h 0.7 c 0,0 0,0 0.7,0 0.7,0 1.41,0 2.1,0.72 0,0 0.7,0.72 0.7,2.16 v 25.2 0 0.72 0 l -0.7,0.71 -0.69,0.73 c -0.71,0.72 -1.41,1.43 -1.41,1.43 -0.7,0 -0.7,0 -0.7,0 -0.7,0.73 -0.7,0.73 -0.7,0.73 v 1.43 h 7.01 l 23.11,-25.91 v 0 l 1.4,-1.44"
         style="fill:#231f20;fill-opacity:1;fill-rule:evenodd;stroke:none"
         id="path52" /><path
         d="m 2352.77,1189.52 -1.41,1.44 h 0.7 v 0 c 0.71,0.72 1.4,1.43 2.1,2.16 0.71,0.72 0.71,1.43 1.41,2.15 l 9.8,-25.19 v 0 l 2.1,-5.76 h 0.7 c 0,-0.72 0,-0.72 0,-0.72 0,-0.72 0.71,-1.44 0.71,-1.44 0.69,-0.72 1.39,-0.72 2.8,-1.44 V 1160 h -13.31 v 0.72 c 1.4,0 2.8,0 3.5,0.72 0.7,0 0.7,0 0.7,0.72 0,0.72 0,0.72 0,1.44 v 0.72 l -3.5,8.64 h -11.21 l -2.8,-8.64 v -0.72 l -0.7,-0.72 c 0,0 0.7,-0.72 0.7,-1.44 0.7,0 2.1,-0.72 3.5,-0.72 V 1160 h -9.1 v 0.72 c 1.4,0.72 2.1,0.72 2.1,1.44 0.7,0 0.7,0.72 1.4,1.44 0,0.72 0,0.72 0,0.72 0,0.72 0.7,0.72 0.7,1.44 z m 0.69,-1.45 -4.9,-13.67 h 9.81 z"
         style="fill:#231f20;fill-opacity:1;fill-rule:evenodd;stroke:none"
         id="path54" /><path
         d="m 2120.23,1121.13 h 1.4 v 0 0 -0.72 0 c 0,-2.16 0.7,-4.32 2.1,-5.77 1.4,-2.15 3.5,-2.87 4.91,-3.59 0,0 0.7,0 1.4,0 l 0.7,-0.72 v 0 l 0.7,0.72 v 0 0 c 0,0 0.7,0 1.4,0 0,0 0.7,0 1.4,0 0.7,0 2.1,0.72 2.8,2.16 0.7,0.72 1.4,2.88 1.4,5.04 0,1.44 -0.7,2.88 -1.4,3.59 -0.7,0.73 -2.1,1.45 -3.5,2.16 -0.7,0 -1.4,0.73 -2.1,0.73 -0.7,0 -1.4,0 -2.1,0.72 v 0 h -0.7 l -0.7,0.71 c -2.1,0.72 -3.51,1.45 -4.9,2.88 -0.71,0.73 -1.41,3.6 -1.41,6.48 0,2.16 0.7,4.32 2.1,5.76 1.4,1.44 2.81,2.88 4.21,3.6 0.7,0 1.4,0 2.1,0 0.7,0 1.4,0.72 1.4,0.72 0.7,0 0.7,0 0.7,0 0,0 0,0 0.7,0 0.7,-0.72 1.4,-0.72 2.1,-0.72 1.4,0 2.1,-0.72 2.8,-0.72 0,-0.72 0.7,-0.72 1.4,-0.72 0,-0.72 0.7,-0.72 0.7,-1.44 l 1.4,1.44 h 0.71 v -10.08 h -0.71 c -0.7,2.88 -1.4,5.76 -2.8,7.92 -2.1,1.44 -4.2,2.88 -6.3,2.88 v 0 0 c -2.1,0 -3.5,-0.72 -4.91,-2.16 -0.69,-1.44 -1.39,-2.88 -2.1,-5.04 v 0 -0.72 c 0,-0.72 0.71,-2.16 1.41,-2.88 0.69,-1.43 1.4,-2.16 3.5,-2.88 v 0 h 0.7 c 0.7,0 1.4,-0.71 2.1,-0.71 0.7,0 1.4,-0.73 2.1,-0.73 2.1,-0.72 4.2,-2.16 5.6,-2.88 2.1,-1.43 2.8,-3.59 2.8,-6.47 0,-3.6 -0.7,-6.48 -2.8,-7.2 -2.1,-1.44 -4.2,-2.16 -7,-2.16 h -0.7 c 0,0 -0.7,0 -1.4,0 -1.4,0 -3.5,0 -4.9,0 -1.41,0.72 -2.81,1.44 -3.5,2.16 l -2.11,-2.16 h -0.7 v 10.8"
         style="fill:#231f20;fill-opacity:1;fill-rule:evenodd;stroke:none"
         id="path56" /><path
         d="m 2165.06,1130.48 v 12.24 h -7.01 c -0.7,0 -2.1,0 -2.1,0 -0.7,0 -1.4,-0.72 -2.1,-0.72 0,-0.72 -0.7,-0.72 -0.7,-1.44 0,0 -0.7,-0.72 -0.7,-1.44 l -2.1,-3.6 -0.7,0.72 1.4,9.36 0.7,-0.72 h 0.7 c 0.7,0 1.4,0 2.1,0 0,0 1.4,0 2.1,0 h 21.71 c 0.71,0 1.41,0 1.41,0 0.69,0 1.4,0 2.1,0 0.7,0 0.7,0 1.4,0 0,0.72 0.7,0.72 0.7,0.72 l 2.1,-9.36 -0.7,-0.72 -3.5,5.76 v 0 0 c -0.7,0.72 -1.41,1.44 -2.1,1.44 -0.7,0 -1.41,0 -2.11,0 h -7.7 v -13.68 -14.4 c 0,-1.43 0.7,-2.87 1.4,-2.87 0.7,-0.72 2.1,-0.72 4.2,-0.72 v -0.72 h -14.7 v 0.72 c 2.1,0 3.5,0.72 3.5,0.72 0.7,0.72 0.7,1.44 0.7,2.87 v 0 0 15.84"
         style="fill:#231f20;fill-opacity:1;fill-rule:evenodd;stroke:none"
         id="path58" /><path
         d="m 2191.67,1129.04 v 0.73 c 0,0 0,0 0,0.71 0.7,2.88 2.1,6.48 4.9,9.36 2.11,3.6 6.31,5.04 11.21,5.76 h 0.7 v 0 h 0.7 l 0.7,-0.72 c 3.51,0 7.01,-1.44 9.81,-4.32 3.5,-2.88 4.9,-7.2 5.6,-12.24 v 0 c 0,-0.71 0,-0.71 0,-0.71 0,-5.04 -1.4,-9.36 -4.2,-12.24 -2.8,-3.6 -7,-5.04 -12.61,-5.04 v 0 h -0.7 c -4.2,0 -8.4,0.72 -10.5,3.6 -2.81,2.87 -4.21,5.76 -4.91,9.36 0,0.71 -0.7,1.44 -0.7,2.16 0,0.71 0,1.43 0,2.16 v 0.71 z m 28.02,0 c 0,3.6 -0.7,7.2 -2.1,9.36 -1.4,1.44 -2.8,3.6 -4.2,4.32 -1.41,0.72 -2.1,0.72 -3.51,0.72 -0.7,0.72 -1.4,0.72 -2.1,0.72 -3.5,0 -6.3,-2.16 -7.7,-5.76 -2.1,-2.88 -2.8,-7.2 -2.8,-10.79 v 0 -0.73 c 0,-3.59 0.7,-7.19 2.1,-10.79 2.1,-2.88 5.6,-5.04 9.1,-5.04 3.5,0 5.61,1.44 7,3.59 2.11,2.16 3.51,5.05 4.21,7.93 0,0.72 0,1.43 0,2.16 0,0.72 0,1.43 0,2.15 v 0.73 c 0,0.71 0,0.71 0,1.43"
         style="fill:#231f20;fill-opacity:1;fill-rule:evenodd;stroke:none"
         id="path60" /><path
         d="m 2234.4,1134.08 v 5.04 c 0,2.16 0,2.88 -0.7,3.6 0,0 -0.7,0 -2.11,0 h -0.7 v 0 2.16 h 14.01 c 3.51,0 6.31,-1.44 8.41,-2.88 1.4,-1.44 2.8,-3.6 3.5,-5.04 0,-0.72 0,-0.72 0,-1.44 v -0.72 c 0,-3.6 -1.4,-5.76 -2.8,-7.19 -2.1,-1.45 -4.21,-2.16 -6.31,-2.88 -0.7,0 -1.4,0 -2.1,0 -1.4,0 -2.1,0 -2.8,0 h -0.7 c -0.7,0 -0.7,0 -1.4,0 h -0.7 -0.7 v -9.36 c 0,-2.16 0.7,-2.88 0.7,-3.6 0.7,0 2.1,-0.72 4.2,-0.72 v -0.72 h -12.61 v 0.72 c 1.41,0 2.11,0.72 2.11,0.72 0.7,0.72 0.7,1.44 0.7,2.87 v 0.73 c 0,0 0,0 0,0.72 z m 16.81,0.72 c 0,2.88 0,5.04 -1.41,5.76 -0.69,1.44 -2.1,2.16 -3.5,2.16 -0.7,0 -0.7,0.72 -1.4,0.72 h -0.7 c -2.1,0 -3.5,-0.72 -4.2,-0.72 -0.7,-0.72 -0.7,-2.16 -0.7,-3.6 v -12.96 c 0.7,0 0.7,0 1.4,0 0.7,0 0.7,0 1.4,0 2.8,0 5.6,0 7.01,1.45 1.4,0.71 2.1,3.59 2.1,7.19"
         style="fill:#231f20;fill-opacity:1;fill-rule:evenodd;stroke:none"
         id="path62" /><path
         d="m 2295.33,1117.53 v 21.59 c 0,0.72 -0.7,2.16 -0.7,2.88 -0.7,0.72 -1.4,1.44 -3.5,1.44 v 1.44 h 10.51 v -1.44 c -2.1,0 -3.51,-0.72 -3.51,-1.44 -0.7,-0.72 -1.4,-1.44 -1.4,-2.16 0,0 0,0 0,-0.72 0,0 0,0 0,-0.72 v -25.19 0 -2.88 h -1.4 l -23.11,24.47 v 0 l -2.8,3.6 v -24.47 c 0,-1.44 0.7,-2.16 1.4,-2.16 0.7,0 2.1,-0.72 3.5,-0.72 v -0.72 h -10.51 v 0.72 h 0.71 c 0,0 0,0 0.69,0 0.7,0 1.41,0 2.11,0.72 0,0 0.7,0.72 0.7,2.16 v 25.19 0 0.72 0 l -0.7,0.72 -0.7,0.72 c -0.71,0.72 -1.41,1.44 -1.41,1.44 -0.69,0 -0.69,0 -0.69,0 -0.71,0.72 -0.71,0.72 -0.71,0.72 v 1.44 h 7.01 l 23.11,-25.92 v 0 l 1.4,-1.43"
         style="fill:#231f20;fill-opacity:1;fill-rule:evenodd;stroke:none"
         id="path64" /><path
         d="m 2313.54,1131.93 v 6.47 c 0,2.16 0,2.88 -0.7,3.6 -0.7,0.72 -1.4,1.44 -2.1,1.44 -0.7,0 -0.7,0 -0.7,0 h -0.7 v 1.44 h 13.31 v -1.44 c -1.4,0 -2.8,-0.72 -3.51,-1.44 0,-0.72 -0.69,-1.44 -0.69,-3.6 v -22.31 c 0,-3.6 0,-6.48 -1.41,-8.64 -0.7,-2.16 -2.8,-4.32 -4.2,-4.32 -0.7,-0.72 -1.4,-0.72 -1.4,-0.72 -0.7,0 -1.4,0 -1.4,0 -0.7,0 -1.4,0 -2.1,0 0,0.72 -0.7,0.72 -0.7,1.44 -0.7,0 -0.7,0 -0.7,0.72 v 0.72 0.72 0 c 0,0 0,0.72 0,1.44 0,0.72 1.4,0.72 2.1,0.72 0.7,0 0.7,0 1.4,-0.72 l 0.7,-0.72 v -0.72 0 c 0,0 0,-0.72 0.7,-0.72 0,0 0,-0.72 0.7,-0.72 0.7,-0.72 0.7,-0.72 1.4,0 0,0.72 0,1.44 0,2.88 v 24.48 0"
         style="fill:#231f20;fill-opacity:1;fill-rule:evenodd;stroke:none"
         id="path66" /><path
         d="m 2342.26,1139.84 -1.4,1.44 h 0.7 v 0 c 0.7,0.72 1.4,1.44 2.1,2.16 0.7,0.72 0.7,1.44 1.4,2.16 l 9.81,-25.19 v 0 l 2.1,-5.77 h 0.7 c 0,-0.71 0,-0.71 0,-0.71 0,-0.72 0.7,-1.44 0.7,-1.44 0.7,-0.72 1.4,-0.72 2.8,-1.44 v -0.72 h -13.31 v 0.72 c 1.4,0 2.8,0 3.5,0.72 0.7,0 0.7,0 0.7,0.72 0,0.72 0,0.72 0,1.44 v 0.71 l -3.5,8.65 h -11.2 l -2.81,-8.65 v -0.71 l -0.69,-0.72 c 0,0 0.69,-0.72 0.69,-1.44 0.7,0 2.11,-0.72 3.5,-0.72 v -0.72 h -9.1 v 0.72 c 1.4,0.72 2.1,0.72 2.1,1.44 0.7,0 0.7,0.72 1.4,1.44 0,0.71 0,0.71 0,0.71 0,0.73 0.7,0.73 0.7,1.45 z m 0.7,-1.44 -4.91,-13.67 h 9.81 z"
         style="fill:#231f20;fill-opacity:1;fill-rule:evenodd;stroke:none"
         id="path68" /><path
         d="m 574.199,225.758 11.207,25.199 v 0.719 l 1.403,2.879 h 7.703 v -1.438 c -1.403,0 -2.801,-0.722 -2.801,-1.441 -0.703,-0.719 -0.703,-2.16 -0.703,-3.602 V 224.32 c 0,-0.722 0,-2.16 0,-2.879 0.703,0 1.402,-0.722 2.805,-0.722 v 0 c 0.699,0 0.699,0 0.699,0 V 220 h -12.61 v 0.719 c 1.403,0 2.805,0.722 2.805,0.722 0.699,0 1.398,1.438 1.398,4.317 v 23.039 l -11.207,-25.918 v 0 L 572.801,220 h -0.703 l -11.907,25.195 v 0 l -2.101,3.602 v -25.199 c 0,-0.719 0.699,-1.438 0.699,-2.157 0.703,0 1.402,-0.722 2.805,-0.722 h 0.699 0.699 V 220 h -10.504 v 0.719 c 1.399,0 2.801,0 3.5,0.722 0,0 0.703,0.719 0.703,2.157 v 25.199 0 0 c 0,1.437 0,2.16 -0.703,2.879 0,0.719 -1.398,1.441 -2.8,1.441 v 1.438 h 8.406 l 11.207,-25.914 v 0 l 1.398,-2.883"
         style="fill:#231f20;fill-opacity:1;fill-rule:evenodd;stroke:none"
         id="path70" /><path
         d="m 607.117,240.156 v 7.918 c 0,2.16 0,2.883 -0.699,3.602 0,0.719 -1.402,1.441 -3.5,1.441 v 1.438 h 14.008 v -1.438 c -2.102,0 -2.805,-0.722 -3.504,-0.722 -0.699,-0.719 -1.402,-2.161 -1.402,-4.321 v -24.476 c 0,-1.438 0.703,-2.157 1.402,-2.157 0.699,-0.722 1.402,-0.722 3.504,-0.722 V 220 h -14.008 v 0.719 0 0 0 h 0.699 c 0.699,0 1.399,0 2.102,0.722 1.398,0 1.398,1.438 1.398,2.879 v 15.836"
         style="fill:#231f20;fill-opacity:1;fill-rule:evenodd;stroke:none"
         id="path72" /><path
         d="m 634.434,235.836 11.906,12.961 c 0,0 0,0.719 0.703,0.719 0,0 0,0.718 0,1.441 v 0 0 c 0,0 -0.703,0.719 -0.703,1.438 -0.699,0 -2.102,0.722 -3.5,0.722 v 1.438 h 11.906 v -1.438 c -0.699,0 -2.101,-0.722 -2.801,-0.722 -0.703,-0.719 -1.402,-1.438 -2.101,-2.161 -0.703,0 -0.703,-0.718 -1.403,-0.718 0,0 -0.699,-0.719 -0.699,-1.442 l -8.406,-8.636 11.906,-15.84 c 0.703,0 0.703,-0.719 1.403,-0.719 0,-0.719 0.699,-0.719 0.699,-1.438 0.703,0 0.703,-0.722 1.402,-0.722 0.699,0 1.399,0 2.102,0 V 220 h -8.407 l -12.605,15.836 -1.402,-1.438 v -11.519 0 0 c 0,-0.719 0.699,-1.438 0.699,-1.438 0.703,-0.722 1.402,-0.722 2.101,-0.722 h 0.704 0.699 V 220 h -12.61 v 0.719 c 0.703,0 2.102,0 2.102,0.722 0.703,0 1.402,0.719 1.402,2.157 v 24.476 c 0,1.442 -0.699,2.883 -0.699,3.602 -0.703,0.719 -2.102,1.441 -3.504,1.441 v 1.438 h 13.309 v -1.438 c -1.403,0 -2.801,-0.722 -3.504,-0.722 -0.699,-0.719 -0.699,-1.438 -0.699,-3.598 v -12.961"
         style="fill:#231f20;fill-opacity:1;fill-rule:evenodd;stroke:none"
         id="path74" /><path
         d="m 668.055,249.516 c 0,1.441 -0.703,2.879 -1.403,2.879 0,0 -1.402,0.722 -2.101,0.722 v 1.438 h 14.008 0.699 c 0,0 0,-0.719 0.703,-0.719 2.102,0 4.902,-0.719 7.004,-2.16 2.101,-1.442 3.5,-3.602 3.5,-7.199 0,-2.879 -0.699,-5.039 -2.102,-5.758 -1.398,-1.442 -3.5,-2.883 -5.601,-3.602 0.699,-0.719 1.402,-1.437 2.101,-2.16 0.7,-0.719 1.399,-2.16 2.102,-2.879 0.699,-0.719 0.699,-0.719 0.699,-1.437 0.699,0 0.699,-0.723 1.402,-0.723 0,-0.719 0,-0.719 0,-0.719 0,-0.719 0.7,-0.719 0.7,-0.719 0,-0.722 0.699,-1.441 0.699,-2.16 0.703,0 0.703,-0.722 1.402,-1.441 0,-0.719 0.699,-1.438 1.403,-1.438 0,-0.722 0.699,-0.722 2.097,-0.722 v 0 c 0.703,0 0.703,0 0.703,0 V 220 h -8.406 c -0.699,0.719 -0.699,1.441 -1.402,2.16 0,0.719 -0.699,1.438 -1.399,2.16 0,0 0,0.719 -0.699,0.719 0,0 0,0.719 0,1.441 -0.703,0 -1.402,0.719 -1.402,1.438 -0.699,0.723 -1.403,1.441 -1.403,2.16 -0.699,0 -0.699,0.719 -1.398,1.442 l -0.703,0.718 c -0.699,0.719 -2.098,1.442 -2.801,2.16 -0.699,0 -2.102,0 -3.5,0.719 V 224.32 c 0,-1.441 0,-2.879 0.699,-2.879 0.699,-0.722 2.102,-0.722 3.504,-0.722 V 220 h -12.609 v 0.719 0 c 0.699,0 0.699,0 0.699,0 1.402,0 2.102,0 2.102,0.722 0.703,0.719 0.703,1.438 0.703,2.879 v 0 0 z m 4.902,-13.68 c 0,0 0,0 0.699,0 h 0.699 v 0 c 0.704,0 0.704,0 0.704,0 h 0.699 c 0,0 0,0 0.699,0 2.102,0 4.203,0.723 5.606,2.16 2.101,0.723 2.8,2.883 2.8,5.762 0,0.719 0,0.719 0,0.719 0,0.718 0,0.718 0,0.718 0,2.16 -0.699,3.602 -2.101,5.039 -0.699,1.442 -3.504,2.883 -6.305,2.883 -1.398,0 -2.102,-0.722 -2.801,-0.722 -0.699,0 -0.699,-1.438 -0.699,-2.879 v -13.68"
         style="fill:#231f20;fill-opacity:1;fill-rule:evenodd;stroke:none"
         id="path76" /><path
         d="m 702.371,238.719 v 0.719 c 0,0 0,0 0,0.718 0.703,2.879 2.102,6.481 4.906,9.36 2.098,3.601 6.301,5.039 11.203,5.757 h 0.704 v 0 h 0.699 l 0.699,-0.718 c 3.504,0 7.004,-1.438 9.809,-4.321 3.5,-2.879 4.902,-7.199 5.601,-12.238 v 0 c 0,-0.719 0,-0.719 0,-0.719 0,-5.039 -1.402,-9.359 -4.203,-12.238 C 728.988,221.441 724.785,220 719.184,220 v 0 h -0.704 c -4.199,0 -8.402,0.719 -10.503,3.598 -2.801,2.882 -4.204,5.761 -4.903,9.359 0,0.723 -0.703,1.441 -0.703,2.16 0,0.719 0,1.442 0,2.16 v 0.719 z m 28.02,0 c 0,3.597 -0.703,7.199 -2.102,9.355 -1.402,1.442 -2.805,3.602 -4.203,4.321 -1.402,0.722 -2.102,0.722 -3.504,0.722 -0.699,0.719 -1.398,0.719 -2.102,0.719 -3.5,0 -6.3,-2.16 -7.703,-5.762 -2.101,-2.879 -2.8,-7.195 -2.8,-10.797 v 0 -0.718 c 0,-3.602 0.699,-7.2 2.101,-10.801 2.102,-2.879 5.602,-5.039 9.106,-5.039 3.5,0 5.601,1.441 7.004,3.601 2.101,2.16 3.5,5.039 4.203,7.918 0,0.719 0,1.442 0,2.16 0,0.719 0,1.438 0,2.161 v 0.718 c 0,0.719 0,0.719 0,1.442"
         style="fill:#231f20;fill-opacity:1;fill-rule:evenodd;stroke:none"
         id="path78" /><path
         d="m 747.199,240.879 v 9.355 c 0,0.723 -0.703,1.442 -0.703,2.161 -0.699,0 -1.398,0.722 -3.5,0.722 v 1.438 h 25.215 v 0 0 l 2.801,-8.637 h -1.403 c 0,0.719 -0.699,0.719 -0.699,1.437 l -0.699,0.719 c -0.699,1.442 -2.102,2.883 -2.801,3.602 -1.402,0.719 -3.504,1.441 -4.902,1.441 h -8.406 v -15.121 h 4.203 c 1.398,0 2.8,0.723 3.5,1.442 1.402,0.718 2.101,2.16 2.101,4.32 h 1.403 v -12.961 h -1.403 v 0 0.723 c 0,0.718 0,2.16 -0.699,2.878 -0.699,1.438 -2.102,2.161 -4.902,2.161 h -4.203 v -11.52 c 0,-1.441 0,-2.879 0,-3.598 0.699,0 2.101,-0.722 4.203,-0.722 V 220 h -13.309 v 0.719 c 2.102,0 3.5,0.722 3.5,0.722 0,0.719 0.703,1.438 0.703,3.598 v 0 c 0,0.719 0,0.719 0,0.719 v 15.121"
         style="fill:#231f20;fill-opacity:1;fill-rule:evenodd;stroke:none"
         id="path80" /><path
         d="m 778.715,238.719 v 0.719 c 0,0 0,0 0,0.718 0.703,2.879 2.101,6.481 4.906,9.36 2.098,3.601 6.301,5.039 11.203,5.757 h 0.703 v 0 h 0.7 l 0.699,-0.718 c 3.504,0 7.004,-1.438 9.808,-4.321 3.5,-2.879 4.903,-7.199 5.602,-12.238 v 0 c 0,-0.719 0,-0.719 0,-0.719 0,-5.039 -1.402,-9.359 -4.203,-12.238 C 805.332,221.441 801.129,220 795.527,220 v 0 h -0.703 c -4.199,0 -8.402,0.719 -10.504,3.598 -2.8,2.882 -4.203,5.761 -4.902,9.359 0,0.723 -0.703,1.441 -0.703,2.16 0,0.719 0,1.442 0,2.16 v 0.719 z m 28.019,0 c 0,3.597 -0.703,7.199 -2.101,9.355 -1.403,1.442 -2.805,3.602 -4.203,4.321 -1.403,0.722 -2.102,0.722 -3.504,0.722 -0.699,0.719 -1.399,0.719 -2.102,0.719 -3.5,0 -6.301,-2.16 -7.703,-5.762 -2.101,-2.879 -2.801,-7.195 -2.801,-10.797 v 0 -0.718 c 0,-3.602 0.7,-7.2 2.102,-10.801 2.101,-2.879 5.601,-5.039 9.105,-5.039 3.5,0 5.602,1.441 7.004,3.601 2.102,2.16 3.5,5.039 4.203,7.918 0,0.719 0,1.442 0,2.16 0,0.719 0,1.438 0,2.161 v 0.718 c 0,0.719 0,0.719 0,1.442"
         style="fill:#231f20;fill-opacity:1;fill-rule:evenodd;stroke:none"
         id="path82" /><path
         d="m 849.457,227.199 v 21.598 c 0,0.719 -0.699,2.16 -0.699,2.879 -0.703,0.719 -1.403,1.441 -3.504,1.441 v 1.438 h 10.508 v -1.438 c -2.102,0 -3.504,-0.722 -3.504,-1.441 -0.699,-0.719 -1.399,-1.442 -1.399,-2.16 0,0 0,0 0,-0.719 0,0 0,0 0,-0.723 v -25.195 0 V 220 h -1.402 l -23.113,24.477 v 0 l -2.801,3.597 v -24.476 c 0,-1.438 0.699,-2.157 1.398,-2.157 0.704,0 2.102,-0.722 3.504,-0.722 V 220 h -10.507 v 0.719 h 0.703 c 0,0 0,0 0.699,0 0.699,0 1.402,0 2.101,0.722 0,0 0.7,0.719 0.7,2.157 v 25.199 0 0.719 0 l -0.7,0.718 -0.699,0.723 c -0.703,0.719 -1.402,1.438 -1.402,1.438 -0.699,0 -0.699,0 -0.699,0 -0.703,0.722 -0.703,0.722 -0.703,0.722 v 1.438 h 7.003 l 23.114,-25.914 v 0 l 1.402,-1.442"
         style="fill:#231f20;fill-opacity:1;fill-rule:evenodd;stroke:none"
         id="path84" /><path
         d="m 862.063,230.797 h 1.402 v 0 0 -0.719 0 c 0,-2.16 0.699,-4.32 2.101,-5.758 1.403,-2.16 3.5,-2.879 4.903,-3.601 0,0 0.699,0 1.402,0 L 872.57,220 v 0 l 0.7,0.719 v 0 0 c 0,0 0.703,0 1.402,0 0,0 0.699,0 1.398,0 0.703,0 2.102,0.722 2.805,2.16 0.699,0.719 1.398,2.879 1.398,5.039 0,1.441 -0.699,2.879 -1.398,3.602 -0.703,0.718 -2.102,1.437 -3.504,2.16 -0.699,0 -1.398,0.718 -2.101,0.718 -0.7,0 -1.399,0 -2.102,0.719 v 0 h -0.699 l -0.699,0.719 c -2.102,0.723 -3.504,1.441 -4.903,2.883 -0.703,0.719 -1.402,3.597 -1.402,6.476 0,2.16 0.699,4.321 2.101,5.762 1.403,1.438 2.801,2.879 4.204,3.598 0.699,0 1.398,0 2.101,0 0.699,0 1.399,0.718 1.399,0.718 0.703,0 0.703,0 0.703,0 0,0 0,0 0.699,0 0.699,-0.718 1.398,-0.718 2.101,-0.718 1.399,0 2.102,-0.719 2.801,-0.719 0,-0.719 0.699,-0.719 1.403,-0.719 0,-0.722 0.699,-0.722 0.699,-1.441 l 1.398,1.441 h 0.703 v -10.082 h -0.703 c -0.699,2.883 -1.398,5.762 -2.801,7.922 -2.101,1.438 -4.203,2.879 -6.3,2.879 v 0 0 c -2.102,0 -3.504,-0.719 -4.907,-2.16 -0.699,-1.442 -1.398,-2.879 -2.097,-5.039 v 0 -0.719 c 0,-0.723 0.699,-2.16 1.398,-2.883 0.699,-1.437 1.403,-2.156 3.504,-2.879 v 0 h 0.699 c 0.7,0 1.403,-0.718 2.102,-0.718 0.699,0 1.398,-0.719 2.101,-0.719 2.102,-0.723 4.204,-2.16 5.602,-2.883 2.102,-1.438 2.801,-3.598 2.801,-6.477 0,-3.601 -0.699,-6.48 -2.801,-7.199 -2.102,-1.441 -4.203,-2.16 -7.004,-2.16 h -0.699 c 0,0 -0.699,0 -1.402,0 -1.399,0 -3.5,0 -4.903,0 -1.398,0.719 -2.801,1.441 -3.5,2.16 L 862.766,220 h -0.703 v 10.797"
         style="fill:#231f20;fill-opacity:1;fill-rule:evenodd;stroke:none"
         id="path86" /><path
         d="m 901.988,235.836 11.907,12.961 c 0,0 0,0.719 0.699,0.719 0,0 0,0.718 0,1.441 v 0 0 c 0,0 -0.699,0.719 -0.699,1.438 -0.704,0 -2.102,0.722 -3.504,0.722 v 1.438 h 11.906 v -1.438 c -0.699,0 -2.102,-0.722 -2.801,-0.722 -0.699,-0.719 -1.398,-1.438 -2.101,-2.161 -0.7,0 -0.7,-0.718 -1.399,-0.718 0,0 -0.703,-0.719 -0.703,-1.442 l -8.402,-8.636 11.906,-15.84 c 0.699,0 0.699,-0.719 1.398,-0.719 0,-0.719 0.703,-0.719 0.703,-1.438 0.7,0 0.7,-0.722 1.399,-0.722 0.703,0 1.402,0 2.101,0 V 220 h -8.402 l -12.609,15.836 -1.399,-1.438 v -11.519 0 0 c 0,-0.719 0.7,-1.438 0.7,-1.438 0.699,-0.722 1.402,-0.722 2.101,-0.722 h 0.699 0.7 V 220 h -12.606 v 0.719 c 0.699,0 2.102,0 2.102,0.722 0.699,0 1.402,0.719 1.402,2.157 v 24.476 c 0,1.442 -0.703,2.883 -0.703,3.602 -0.699,0.719 -2.102,1.441 -3.5,1.441 v 1.438 h 13.305 v -1.438 c -1.399,0 -2.801,-0.722 -3.5,-0.722 -0.7,-0.719 -0.7,-1.438 -0.7,-3.598 v -12.961"
         style="fill:#231f20;fill-opacity:1;fill-rule:evenodd;stroke:none"
         id="path88" /><path
         d="m 935.605,240.156 v 7.918 c 0,2.16 0,2.883 -0.699,3.602 0,0.719 -1.402,1.441 -3.504,1.441 v 1.438 h 14.008 v -1.438 c -2.101,0 -2.801,-0.722 -3.5,-0.722 -0.699,-0.719 -1.402,-2.161 -1.402,-4.321 v -24.476 c 0,-1.438 0.703,-2.157 1.402,-2.157 0.699,-0.722 1.399,-0.722 3.5,-0.722 V 220 h -14.008 v 0.719 0 0 0 h 0.703 c 0.7,0 1.399,0 2.102,0.722 1.398,0 1.398,1.438 1.398,2.879 v 15.836"
         style="fill:#231f20;fill-opacity:1;fill-rule:evenodd;stroke:none"
         id="path90" /><path
         d="m 558.789,189.043 v 0.723 c 0,0 0,0 0,0.718 0.703,2.879 2.102,6.481 4.906,9.36 2.098,3.597 6.301,5.039 11.203,5.758 h 0.704 v 0 h 0.699 L 577,204.883 c 3.504,0 7.004,-1.442 9.809,-4.32 3.5,-2.879 4.902,-7.2 5.601,-12.239 v 0 c 0,-0.719 0,-0.719 0,-0.719 0,-5.039 -1.402,-9.359 -4.203,-12.238 -2.801,-3.601 -7.004,-5.039 -12.605,-5.039 v 0 h -0.704 c -4.199,0 -8.402,0.719 -10.503,3.598 -2.801,2.879 -4.204,5.762 -4.903,9.359 0,0.719 -0.703,1.442 -0.703,2.16 0,0.719 0,1.438 0,2.16 v 0.719 z m 28.02,0 c 0,3.602 -0.704,7.199 -2.102,9.359 -1.402,1.442 -2.805,3.602 -4.203,4.321 -1.402,0.718 -2.102,0.718 -3.504,0.718 -0.699,0.723 -1.398,0.723 -2.102,0.723 -3.5,0 -6.3,-2.16 -7.703,-5.762 -2.101,-2.879 -2.8,-7.199 -2.8,-10.797 v 0 -0.722 c 0,-3.598 0.699,-7.195 2.101,-10.797 2.102,-2.879 5.602,-5.039 9.106,-5.039 3.5,0 5.601,1.441 7.003,3.598 2.102,2.16 3.5,5.043 4.204,7.921 0,0.719 0,1.438 0,2.161 0,0.718 0,1.437 0,2.156 v 0.722 c 0,0.719 0,0.719 0,1.438"
         style="fill:#231f20;fill-opacity:1;fill-rule:evenodd;stroke:none"
         id="path92" /><path
         d="m 604.316,191.926 v 6.476 c 0,2.161 0,2.879 -0.699,3.602 -0.699,0.719 -1.402,1.437 -2.101,1.437 -0.7,0 -0.7,0 -0.7,0 h -0.703 v 1.442 h 13.309 v -1.442 c -1.402,0 -2.801,-0.718 -3.5,-1.437 0,-0.723 -0.703,-1.441 -0.703,-3.602 v -22.316 c 0,-3.598 0,-6.481 -1.399,-8.637 -0.703,-2.16 -2.804,-4.32 -4.203,-4.32 -0.699,-0.723 -1.402,-0.723 -1.402,-0.723 -0.699,0 -1.399,0 -1.399,0 -0.703,0 -1.402,0 -2.101,0 0,0.723 -0.703,0.723 -0.703,1.442 -0.699,0 -0.699,0 -0.699,0.718 v 0.723 0.719 0 c 0,0 0,0.719 0,1.441 0,0.719 1.402,0.719 2.101,0.719 0.699,0 0.699,0 1.402,-0.719 l 0.7,-0.722 v -0.719 0 c 0,0 0,-0.719 0.699,-0.719 0,0 0,-0.723 0.703,-0.723 0.699,-0.718 0.699,-0.718 1.398,0 0,0.723 0,1.442 0,2.883 v 24.477 0"
         style="fill:#231f20;fill-opacity:1;fill-rule:evenodd;stroke:none"
         id="path94" /><path
         d="m 633.035,199.844 -1.402,1.437 h 0.699 v 0 c 0.703,0.723 1.402,1.442 2.102,2.16 0.699,0.723 0.699,1.442 1.402,2.161 l 9.805,-25.196 v 0 l 2.101,-5.761 h 0.699 c 0,-0.719 0,-0.719 0,-0.719 0,-0.719 0.7,-1.438 0.7,-1.438 0.703,-0.722 1.402,-0.722 2.804,-1.441 v -0.719 h -13.308 v 0.719 c 1.402,0 2.801,0 3.5,0.719 0.703,0 0.703,0 0.703,0.722 0,0.719 0,0.719 0,1.438 v 0.719 l -3.504,8.64 h -11.207 l -2.801,-8.64 v -0.719 l -0.699,-0.719 c 0,0 0.699,-0.719 0.699,-1.441 0.699,0 2.102,-0.719 3.504,-0.719 v -0.719 h -9.105 v 0.719 c 1.398,0.719 2.101,0.719 2.101,1.441 0.699,0 0.699,0.719 1.399,1.438 0,0.719 0,0.719 0,0.719 0,0.722 0.703,0.722 0.703,1.441 z m 0.699,-1.442 -4.902,-13.675 h 9.805 z"
         style="fill:#231f20;fill-opacity:1;fill-rule:evenodd;stroke:none"
         id="path96" /><path
         d="m 685.563,191.203 c 0,3.602 -0.7,6.481 -2.102,7.918 -1.398,1.442 -2.801,2.883 -4.203,3.602 -1.399,0 -2.098,0.718 -3.5,0.718 -0.699,0 -1.403,0 -2.102,0 -3.5,0 -6.304,-2.16 -8.406,-5.039 -2.098,-3.597 -2.801,-7.199 -2.801,-11.519 v 0 -0.719 c 0,-3.598 0.703,-7.918 2.801,-10.797 2.102,-3.601 4.906,-5.039 9.105,-5.039 3.504,0 5.606,1.438 7.708,2.879 2.101,2.16 3.5,5.039 4.199,8.637 h 0.703 v -11.516 h -0.703 l -1.399,2.879 c -0.699,-0.719 -1.402,-1.441 -2.101,-1.441 -1.403,-0.719 -2.102,-1.438 -3.504,-1.438 -0.699,0 -1.399,0 -2.801,0 -0.699,0 -1.398,-0.723 -2.102,-0.723 -4.902,0 -9.105,1.442 -12.605,4.321 -3.504,2.879 -4.902,7.918 -4.902,12.957 0,0.722 0,1.441 0,1.441 0,0.719 0,1.442 0,2.16 0.699,3.598 2.8,6.481 4.902,9.36 2.801,2.879 6.305,5.039 11.207,5.039 1.398,0 2.801,0 4.902,0 1.399,-0.719 2.801,-1.442 4.903,-2.16 l 0.699,-0.719 c 0,-0.723 0.703,-0.723 0.703,-0.723 l 1.399,2.16 h 1.402 v -12.238 z m -10.504,15.84 h -3.504 l -5.602,8.637 h 1.399 l 6.304,-5.039 5.602,5.039 h 1.402 l -5.601,-8.637"
         style="fill:#231f20;fill-opacity:1;fill-rule:evenodd;stroke:none"
         id="path98" /><path
         d="m 700.273,192.645 v 7.199 c 0,1.437 0,2.879 -0.703,2.879 0,0 -0.699,0.718 -1.398,0.718 -0.703,0 -0.703,0 -0.703,0 -0.699,0 -0.699,0 -0.699,0 v 1.442 h 24.515 v 0 h 0.699 l 2.102,-8.641 h -1.402 c 0,0.723 0,0.723 0,1.442 -0.7,0 -0.7,0.718 -1.399,0.718 -0.703,1.442 -2.101,2.879 -2.805,3.602 -1.398,0.719 -3.5,1.437 -5.601,1.437 h -7.004 v -15.117 h 3.5 c 0.703,0 0.703,0 0.703,0 0.699,0 1.399,0 1.399,0 0.703,0 2.101,0.719 2.804,1.442 1.399,0.718 2.098,2.879 2.098,5.039 h 0.703 v -14.399 h -0.703 c 0,2.16 -1.399,4.321 -2.098,5.039 -1.402,0.719 -2.804,1.438 -4.906,1.438 h -3.5 v -12.957 c 0,-0.719 0,-1.438 0.699,-2.16 0.703,0 1.403,-0.719 2.801,-0.719 h 4.906 c 2.801,0 4.903,0.719 6.301,2.16 1.402,1.438 2.805,3.598 4.203,6.481 h 0.699 l -1.398,-9.36 h -25.215 v 0 h -2.101 v 0.719 c 1.402,0 2.8,0.719 2.8,0.719 0.703,0.722 0.703,1.441 0.703,2.879 v 18"
         style="fill:#231f20;fill-opacity:1;fill-rule:evenodd;stroke:none"
         id="path100" /><path
         d="m 750,176.805 8.406,22.316 c 0,0.723 0,0.723 0,1.442 l 0.699,0.718 c 0,0.723 -0.699,1.442 -1.402,1.442 -0.699,0.718 -2.101,0.718 -3.5,0.718 v 1.442 h 9.805 v -1.442 c -0.699,0 -2.102,-0.718 -2.102,-1.437 -0.699,-0.723 -1.398,-1.441 -2.101,-2.883 v 0 -0.719 L 750,173.207 v 0 l -1.402,-3.602 h -0.7 l -10.503,25.2 -1.403,4.316 c 0,0.723 -0.699,0.723 -0.699,1.442 v 0.718 c -0.703,0.723 -1.402,1.442 -1.402,1.442 0,0 -0.7,0.718 -1.403,0.718 v 1.442 h 12.61 v -1.442 h -0.7 c -0.703,0 -0.703,0 -0.703,0 -0.699,0 -2.101,-0.718 -2.101,-0.718 -0.699,0 -1.399,-0.719 -1.399,-1.442 0,0 0,0 0,-0.718 l 0.7,-0.719 9.105,-23.039"
         style="fill:#231f20;fill-opacity:1;fill-rule:evenodd;stroke:none"
         id="path102" /><path
         d="m 781.52,199.844 -1.403,1.437 h 0.699 v 0 c 0.704,0.723 1.403,1.442 2.102,2.16 0.703,0.723 0.703,1.442 1.402,2.161 l 9.805,-25.196 v 0 l 2.102,-5.761 h 0.699 c 0,-0.719 0,-0.719 0,-0.719 0,-0.719 0.703,-1.438 0.703,-1.438 0.699,-0.722 1.398,-0.722 2.801,-1.441 v -0.719 h -13.309 v 0.719 c 1.402,0 2.801,0 3.504,0.719 0.699,0 0.699,0 0.699,0.722 0,0.719 0,0.719 0,1.438 v 0.719 l -3.504,8.64 h -11.207 l -2.8,-8.64 v -0.719 l -0.7,-0.719 c 0,0 0.7,-0.719 0.7,-1.441 0.703,0 2.101,-0.719 3.503,-0.719 v -0.719 h -9.105 v 0.719 c 1.398,0.719 2.102,0.719 2.102,1.441 0.699,0 0.699,0.719 1.398,1.438 0,0.719 0,0.719 0,0.719 0,0.722 0.703,0.722 0.703,1.441 z m 0.699,-1.442 -4.903,-13.675 h 9.805 z"
         style="fill:#231f20;fill-opacity:1;fill-rule:evenodd;stroke:none"
         id="path104" /><path
         d="m 809.535,189.043 v 10.078 c 0,1.442 0,2.16 -0.703,2.883 -0.699,0.719 -1.398,1.437 -2.801,1.437 v 1.442 h 13.309 v -1.442 c -1.402,0 -2.801,-0.718 -3.504,-1.437 -0.699,-0.723 -1.398,-2.16 -1.398,-3.602 v -23.757 c 0,-1.438 0.699,-2.879 1.398,-2.879 0.703,-0.719 2.102,-0.719 2.805,-0.719 v 0 h 0.699 v 0 0 h 6.305 c 2.101,0 3.5,0.719 4.902,2.16 1.398,1.438 2.801,3.598 3.5,5.039 0.703,0.719 0.703,1.442 0.703,1.442 0.699,0 0.699,0.718 0.699,1.437 h 1.403 l -2.805,-10.797 h -25.215 v 0 h -2.801 v 0.719 0 c 0.703,0 0.703,0 0.703,0 h 0.7 v 0 c 0.699,0 1.398,0 1.398,0.719 0.703,0 0.703,1.441 0.703,2.16 v 15.117"
         style="fill:#231f20;fill-opacity:1;fill-rule:evenodd;stroke:none"
         id="path106" /><path
         d="m 874.672,177.527 v 21.594 c 0,0.723 -0.699,2.16 -0.699,2.883 -0.703,0.719 -1.403,1.437 -3.504,1.437 v 1.442 h 10.508 v -1.442 c -2.102,0 -3.504,-0.718 -3.504,-1.437 -0.7,-0.723 -1.403,-1.441 -1.403,-2.16 0,0 0,0 0,-0.723 0,0 0,0 0,-0.719 v -25.195 0 -2.879 h -1.398 l -23.113,24.477 v 0 l -2.801,3.597 v -24.476 c 0,-1.438 0.699,-2.16 1.398,-2.16 0.703,0 2.102,-0.719 3.504,-0.719 v -0.719 h -10.508 v 0.719 h 0.703 c 0,0 0,0 0.7,0 0.699,0 1.398,0 2.101,0.719 0,0 0.699,0.722 0.699,2.16 v 25.195 0 0.723 0 l -0.699,0.719 -0.703,0.718 c -0.699,0.723 -1.398,1.442 -1.398,1.442 -0.7,0 -0.7,0 -0.7,0 -0.703,0.718 -0.703,0.718 -0.703,0.718 v 1.442 h 7.004 l 23.114,-25.918 v 0 l 1.402,-1.438"
         style="fill:#231f20;fill-opacity:1;fill-rule:evenodd;stroke:none"
         id="path108" /><path
         d="m 892.18,190.484 v 7.918 c 0,2.161 0,2.879 -0.7,3.602 0,0.719 -1.402,1.437 -3.5,1.437 v 1.442 h 14.008 v -1.442 c -2.101,0 -2.804,-0.718 -3.504,-0.718 -0.699,-0.719 -1.398,-2.16 -1.398,-4.321 v -24.476 c 0,-1.438 0.699,-2.16 1.398,-2.16 0.7,-0.719 1.403,-0.719 3.504,-0.719 v -0.719 H 887.98 v 0.719 0 0 0 h 0.7 c 0.699,0 1.398,0 2.101,0.719 1.399,0 1.399,1.441 1.399,2.879 v 15.839"
         style="fill:#231f20;fill-opacity:1;fill-rule:evenodd;stroke:none"
         id="path110" /><path
         d="m 919.496,186.164 11.906,12.957 c 0,0 0,0.723 0.703,0.723 0,0 0,0.719 0,1.437 v 0 0 c 0,0 -0.703,0.723 -0.703,1.442 -0.699,0 -2.101,0.718 -3.5,0.718 v 1.442 h 11.907 v -1.442 c -0.7,0 -2.102,-0.718 -2.801,-0.718 -0.703,-0.719 -1.403,-1.442 -2.102,-2.16 -0.699,0 -0.699,-0.719 -1.402,-0.719 0,0 -0.699,-0.723 -0.699,-1.442 l -8.407,-8.636 11.907,-15.84 c 0.703,0 0.703,-0.719 1.402,-0.719 0,-0.719 0.699,-0.719 0.699,-1.441 0.703,0 0.703,-0.719 1.403,-0.719 0.699,0 1.402,0 2.101,0 v -0.719 h -8.406 l -12.606,15.836 -1.402,-1.437 v -11.52 0 0 c 0,-0.719 0.699,-1.441 0.699,-1.441 0.703,-0.719 1.403,-0.719 2.102,-0.719 h 0.703 0.699 v -0.719 h -12.605 v 0.719 c 0.699,0 2.097,0 2.097,0.719 0.704,0 1.403,0.722 1.403,2.16 v 24.476 c 0,1.442 -0.699,2.879 -0.699,3.602 -0.704,0.719 -2.102,1.437 -3.504,1.437 v 1.442 h 13.308 v -1.442 c -1.402,0 -2.801,-0.718 -3.504,-0.718 -0.699,-0.719 -0.699,-1.442 -0.699,-3.602 v -12.957"
         style="fill:#231f20;fill-opacity:1;fill-rule:evenodd;stroke:none"
         id="path112" /><path
         d="m 1059.73,225.758 11.2,25.199 v 0.719 l 1.4,2.879 h 7.71 v -1.438 c -1.4,0 -2.81,-0.722 -2.81,-1.441 -0.69,-0.719 -0.69,-2.16 -0.69,-3.602 V 224.32 c 0,-0.722 0,-2.16 0,-2.879 0.69,0 1.4,-0.722 2.8,-0.722 v 0 c 0.7,0 0.7,0 0.7,0 V 220 h -12.61 v 0.719 c 1.4,0 2.8,0.722 2.8,0.722 0.7,0 1.4,1.438 1.4,4.317 v 23.039 l -11.2,-25.918 v 0 L 1058.32,220 h -0.69 l -11.91,25.195 v 0 l -2.1,3.602 v -25.199 c 0,-0.719 0.7,-1.438 0.7,-2.157 0.7,0 1.4,-0.722 2.8,-0.722 h 0.7 0.7 V 220 h -10.51 v 0.719 c 1.4,0 2.81,0 3.51,0.722 0,0 0.69,0.719 0.69,2.157 v 25.199 0 0 c 0,1.437 0,2.16 -0.69,2.879 0,0.719 -1.41,1.441 -2.81,1.441 v 1.438 h 8.41 l 11.2,-25.914 v 0 l 1.41,-2.883"
         style="fill:#231f20;fill-opacity:1;fill-rule:evenodd;stroke:none"
         id="path114" /><path
         d="m 1092.64,240.156 v 7.918 c 0,2.16 0,2.883 -0.69,3.602 0,0.719 -1.41,1.441 -3.51,1.441 v 1.438 h 14.01 v -1.438 c -2.1,0 -2.8,-0.722 -3.5,-0.722 -0.7,-0.719 -1.4,-2.161 -1.4,-4.321 v -24.476 c 0,-1.438 0.7,-2.157 1.4,-2.157 0.7,-0.722 1.4,-0.722 3.5,-0.722 V 220 h -14.01 v 0.719 0 0 0 h 0.7 c 0.7,0 1.4,0 2.1,0.722 1.4,0 1.4,1.438 1.4,2.879 v 15.836"
         style="fill:#231f20;fill-opacity:1;fill-rule:evenodd;stroke:none"
         id="path116" /><path
         d="m 1119.96,235.836 11.91,12.961 c 0,0 0,0.719 0.7,0.719 0,0 0,0.718 0,1.441 v 0 0 c 0,0 -0.7,0.719 -0.7,1.438 -0.7,0 -2.1,0.722 -3.51,0.722 v 1.438 h 11.91 v -1.438 c -0.7,0 -2.1,-0.722 -2.8,-0.722 -0.7,-0.719 -1.4,-1.438 -2.1,-2.161 -0.7,0 -0.7,-0.718 -1.4,-0.718 0,0 -0.7,-0.719 -0.7,-1.442 l -8.41,-8.636 11.91,-15.84 c 0.7,0 0.7,-0.719 1.4,-0.719 0,-0.719 0.7,-0.719 0.7,-1.438 0.7,0 0.7,-0.722 1.4,-0.722 0.7,0 1.4,0 2.1,0 V 220 h -8.4 l -12.61,15.836 -1.4,-1.438 v -11.519 0 0 c 0,-0.719 0.7,-1.438 0.7,-1.438 0.7,-0.722 1.4,-0.722 2.1,-0.722 h 0.7 0.7 V 220 h -12.61 v 0.719 c 0.7,0 2.11,0 2.11,0.722 0.7,0 1.4,0.719 1.4,2.157 v 24.476 c 0,1.442 -0.7,2.883 -0.7,3.602 -0.7,0.719 -2.11,1.441 -3.5,1.441 v 1.438 h 13.3 v -1.438 c -1.4,0 -2.8,-0.722 -3.5,-0.722 -0.7,-0.719 -0.7,-1.438 -0.7,-3.598 v -12.961"
         style="fill:#231f20;fill-opacity:1;fill-rule:evenodd;stroke:none"
         id="path118" /><path
         d="m 1153.58,249.516 c 0,1.441 -0.7,2.879 -1.4,2.879 0,0 -1.4,0.722 -2.1,0.722 v 1.438 h 14.01 0.7 c 0,0 0,-0.719 0.69,-0.719 2.11,0 4.91,-0.719 7.01,-2.16 2.1,-1.442 3.5,-3.602 3.5,-7.199 0,-2.879 -0.7,-5.039 -2.1,-5.758 -1.4,-1.442 -3.5,-2.883 -5.6,-3.602 0.7,-0.719 1.4,-1.437 2.1,-2.16 0.7,-0.719 1.4,-2.16 2.1,-2.879 0.7,-0.719 0.7,-0.719 0.7,-1.437 0.7,0 0.7,-0.723 1.4,-0.723 0,-0.719 0,-0.719 0,-0.719 0,-0.719 0.7,-0.719 0.7,-0.719 0,-0.722 0.7,-1.441 0.7,-2.16 0.7,0 0.7,-0.722 1.4,-1.441 0,-0.719 0.7,-1.438 1.4,-1.438 0,-0.722 0.7,-0.722 2.1,-0.722 v 0 c 0.7,0 0.7,0 0.7,0 V 220 h -8.4 c -0.7,0.719 -0.7,1.441 -1.4,2.16 0,0.719 -0.7,1.438 -1.4,2.16 0,0 0,0.719 -0.7,0.719 0,0 0,0.719 0,1.441 -0.7,0 -1.4,0.719 -1.4,1.438 -0.7,0.723 -1.4,1.441 -1.4,2.16 -0.7,0 -0.7,0.719 -1.41,1.442 l -0.69,0.718 c -0.7,0.719 -2.11,1.442 -2.81,2.16 -0.69,0 -2.1,0 -3.5,0.719 V 224.32 c 0,-1.441 0,-2.879 0.7,-2.879 0.7,-0.722 2.11,-0.722 3.5,-0.722 V 220 h -12.6 v 0.719 0 c 0.7,0 0.7,0 0.7,0 1.4,0 2.1,0 2.1,0.722 0.7,0.719 0.7,1.438 0.7,2.879 v 0 0 z m 4.9,-13.68 c 0,0 0,0 0.7,0 h 0.7 v 0 c 0.7,0 0.7,0 0.7,0 h 0.71 c 0,0 0,0 0.69,0 2.11,0 4.21,0.723 5.61,2.16 2.1,0.723 2.8,2.883 2.8,5.762 0,0.719 0,0.719 0,0.719 0,0.718 0,0.718 0,0.718 0,2.16 -0.7,3.602 -2.1,5.039 -0.7,1.442 -3.5,2.883 -6.31,2.883 -1.4,0 -2.1,-0.722 -2.8,-0.722 -0.7,0 -0.7,-1.438 -0.7,-2.879 v -13.68"
         style="fill:#231f20;fill-opacity:1;fill-rule:evenodd;stroke:none"
         id="path120" /><path
         d="m 1187.9,238.719 v 0.719 c 0,0 0,0 0,0.718 0.7,2.879 2.1,6.481 4.9,9.36 2.1,3.601 6.31,5.039 11.21,5.757 h 0.7 v 0 h 0.7 l 0.7,-0.718 c 3.5,0 7,-1.438 9.8,-4.321 3.51,-2.879 4.91,-7.199 5.61,-12.238 v 0 c 0,-0.719 0,-0.719 0,-0.719 0,-5.039 -1.4,-9.359 -4.2,-12.238 -2.8,-3.598 -7.01,-5.039 -12.61,-5.039 v 0 h -0.7 c -4.21,0 -8.41,0.719 -10.51,3.598 -2.8,2.882 -4.2,5.761 -4.9,9.359 0,0.723 -0.7,1.441 -0.7,2.16 0,0.719 0,1.442 0,2.16 v 0.719 z m 28.01,0 c 0,3.597 -0.7,7.199 -2.1,9.355 -1.4,1.442 -2.8,3.602 -4.2,4.321 -1.4,0.722 -2.1,0.722 -3.5,0.722 -0.7,0.719 -1.4,0.719 -2.1,0.719 -3.5,0 -6.31,-2.16 -7.71,-5.762 -2.1,-2.879 -2.8,-7.195 -2.8,-10.797 v 0 -0.718 c 0,-3.602 0.7,-7.2 2.1,-10.801 2.1,-2.879 5.61,-5.039 9.11,-5.039 3.5,0 5.6,1.441 7,3.601 2.1,2.16 3.5,5.039 4.2,7.918 0,0.719 0,1.442 0,2.16 0,0.719 0,1.438 0,2.161 v 0.718 c 0,0.719 0,0.719 0,1.442"
         style="fill:#231f20;fill-opacity:1;fill-rule:evenodd;stroke:none"
         id="path122" /><path
         d="m 1232.72,240.879 v 9.355 c 0,0.723 -0.7,1.442 -0.7,2.161 -0.7,0 -1.39,0.722 -3.5,0.722 v 1.438 h 25.22 v 0 0 l 2.8,-8.637 h -1.4 c 0,0.719 -0.7,0.719 -0.7,1.437 l -0.7,0.719 c -0.7,1.442 -2.1,2.883 -2.81,3.602 -1.39,0.719 -3.5,1.441 -4.9,1.441 h -8.4 v -15.121 h 4.2 c 1.4,0 2.8,0.723 3.5,1.442 1.4,0.718 2.1,2.16 2.1,4.32 h 1.4 v -12.961 h -1.4 v 0 0.723 c 0,0.718 0,2.16 -0.7,2.878 -0.7,1.438 -2.1,2.161 -4.9,2.161 h -4.2 v -11.52 c 0,-1.441 0,-2.879 0,-3.598 0.7,0 2.1,-0.722 4.2,-0.722 V 220 h -13.31 v 0.719 c 2.11,0 3.5,0.722 3.5,0.722 0,0.719 0.7,1.438 0.7,3.598 v 0 c 0,0.719 0,0.719 0,0.719 v 15.121"
         style="fill:#231f20;fill-opacity:1;fill-rule:evenodd;stroke:none"
         id="path124" /><path
         d="m 1264.24,238.719 v 0.719 c 0,0 0,0 0,0.718 0.7,2.879 2.1,6.481 4.9,9.36 2.11,3.601 6.31,5.039 11.21,5.757 h 0.7 v 0 h 0.7 l 0.7,-0.718 c 3.5,0 7.01,-1.438 9.81,-4.321 3.5,-2.879 4.9,-7.199 5.6,-12.238 v 0 c 0,-0.719 0,-0.719 0,-0.719 0,-5.039 -1.4,-9.359 -4.2,-12.238 -2.8,-3.598 -7,-5.039 -12.61,-5.039 v 0 h -0.7 c -4.2,0 -8.4,0.719 -10.51,3.598 -2.8,2.882 -4.2,5.761 -4.9,9.359 0,0.723 -0.7,1.441 -0.7,2.16 0,0.719 0,1.442 0,2.16 v 0.719 z m 28.02,0 c 0,3.597 -0.7,7.199 -2.1,9.355 -1.4,1.442 -2.8,3.602 -4.21,4.321 -1.4,0.722 -2.09,0.722 -3.5,0.722 -0.7,0.719 -1.4,0.719 -2.1,0.719 -3.5,0 -6.3,-2.16 -7.7,-5.762 -2.1,-2.879 -2.81,-7.195 -2.81,-10.797 v 0 -0.718 c 0,-3.602 0.71,-7.2 2.11,-10.801 2.1,-2.879 5.6,-5.039 9.1,-5.039 3.5,0 5.61,1.441 7,3.601 2.11,2.16 3.51,5.039 4.21,7.918 0,0.719 0,1.442 0,2.16 0,0.719 0,1.438 0,2.161 v 0.718 c 0,0.719 0,0.719 0,1.442"
         style="fill:#231f20;fill-opacity:1;fill-rule:evenodd;stroke:none"
         id="path126" /><path
         d="m 1334.98,227.199 v 21.598 c 0,0.719 -0.7,2.16 -0.7,2.879 -0.7,0.719 -1.4,1.441 -3.5,1.441 v 1.438 h 10.51 v -1.438 c -2.11,0 -3.5,-0.722 -3.5,-1.441 -0.7,-0.719 -1.41,-1.442 -1.41,-2.16 0,0 0,0 0,-0.719 0,0 0,0 0,-0.723 v -25.195 0 V 220 h -1.4 l -23.11,24.477 v 0 l -2.8,3.597 v -24.476 c 0,-1.438 0.7,-2.157 1.4,-2.157 0.7,0 2.1,-0.722 3.5,-0.722 V 220 h -10.51 v 0.719 h 0.7 c 0,0 0,0 0.71,0 0.7,0 1.4,0 2.1,0.722 0,0 0.7,0.719 0.7,2.157 v 25.199 0 0.719 0 l -0.7,0.718 -0.7,0.723 c -0.7,0.719 -1.4,1.438 -1.4,1.438 -0.71,0 -0.71,0 -0.71,0 -0.7,0.722 -0.7,0.722 -0.7,0.722 v 1.438 h 7.01 l 23.11,-25.914 v 0 l 1.4,-1.442"
         style="fill:#231f20;fill-opacity:1;fill-rule:evenodd;stroke:none"
         id="path128" /><path
         d="m 2874.4,937.801 h 137.5 V 1184"
         style="fill:none;stroke:#231f20;stroke-width:5.8;stroke-linecap:butt;stroke-linejoin:miter;stroke-miterlimit:11.4737;stroke-dasharray:none;stroke-opacity:1"
         id="path130" /><path
         d="m 3011.9,1220 -20.1,-79.9 c 12.9,10.8 27.3,10.8 40.3,0 l -20.2,79.9"
         style="fill:#231f20;fill-opacity:1;fill-rule:evenodd;stroke:none"
         id="path132" /><path
         d="M 2572,937 H 2377.6"
         style="fill:none;stroke:#231f20;stroke-width:5.8;stroke-linecap:butt;stroke-linejoin:miter;stroke-miterlimit:11.4737;stroke-dasharray:none;stroke-opacity:1"
         id="path134" /><path
         d="m 2608,937 -79.9,-20.102 c 10.8,12.903 10.8,27.301 0,40.301 L 2608,937"
         style="fill:#231f20;fill-opacity:1;fill-rule:evenodd;stroke:none"
         id="path136" /><path
         d="M 2075.9,937 H 1881.5"
         style="fill:none;stroke:#231f20;stroke-width:5.8;stroke-linecap:butt;stroke-linejoin:miter;stroke-miterlimit:11.4737;stroke-dasharray:none;stroke-opacity:1"
         id="path138" /><path
         d="M 2111.9,937 2032,916.898 c 10.8,12.903 10.8,27.301 0,40.301 L 2111.9,937"
         style="fill:#231f20;fill-opacity:1;fill-rule:evenodd;stroke:none"
         id="path140" /><path
         d="M 587,937 H 392.602"
         style="fill:none;stroke:#231f20;stroke-width:5.8;stroke-linecap:butt;stroke-linejoin:miter;stroke-miterlimit:11.4737;stroke-dasharray:none;stroke-opacity:1"
         id="path142" /><path
         d="m 623,937 -80,-20.102 c 10.801,12.903 10.801,27.301 0,40.301 L 623,937"
         style="fill:#231f20;fill-opacity:1;fill-rule:evenodd;stroke:none"
         id="path144" /><path
         d="M 614.301,1078.2 H 889.398 V 795.199 H 614.301 Z"
         style="fill:none;stroke:#231f20;stroke-width:8.6;stroke-linecap:butt;stroke-linejoin:miter;stroke-miterlimit:11.4737;stroke-dasharray:none;stroke-opacity:1"
         id="path146" /><path
         d="M 944.801,1078.2 H 1219.8 V 795.199 H 944.801 Z"
         style="fill:none;stroke:#231f20;stroke-width:8.6;stroke-linecap:butt;stroke-linejoin:miter;stroke-miterlimit:11.4737;stroke-dasharray:none;stroke-opacity:1"
         id="path148" /><path
         d="m 1276,1078.2 h 275 V 795.199 h -275 z"
         style="fill:none;stroke:#231f20;stroke-width:8.6;stroke-linecap:butt;stroke-linejoin:miter;stroke-miterlimit:11.4737;stroke-dasharray:none;stroke-opacity:1"
         id="path150" /><path
         d="m 1606.5,1078.2 h 275 V 795.199 h -275 z"
         style="fill:none;stroke:#231f20;stroke-width:8.6;stroke-linecap:butt;stroke-linejoin:miter;stroke-miterlimit:11.4737;stroke-dasharray:none;stroke-opacity:1"
         id="path152" /><path
         d="m 2598.6,1078.2 h 275.1 V 795.199 h -275.1 z"
         style="fill:none;stroke:#231f20;stroke-width:8.6;stroke-linecap:butt;stroke-linejoin:miter;stroke-miterlimit:11.4737;stroke-dasharray:none;stroke-opacity:1"
         id="path154" /><path
         d="m 890.102,937 h 54"
         style="fill:none;stroke:#231f20;stroke-width:5.8;stroke-linecap:butt;stroke-linejoin:miter;stroke-miterlimit:11.4737;stroke-dasharray:none;stroke-opacity:1"
         id="path156" /><path
         d="m 1220.6,937 h 54.7"
         style="fill:none;stroke:#231f20;stroke-width:5.8;stroke-linecap:butt;stroke-linejoin:miter;stroke-miterlimit:11.4737;stroke-dasharray:none;stroke-opacity:1"
         id="path158" /><path
         d="m 1551,937 h 54.8"
         style="fill:none;stroke:#231f20;stroke-width:5.8;stroke-linecap:butt;stroke-linejoin:miter;stroke-miterlimit:11.4737;stroke-dasharray:none;stroke-opacity:1"
         id="path160" /><path
         d="M 530.801,1135 H 1965 V 738.301 H 530.801 Z"
         style="fill:none;stroke:#231f20;stroke-width:5.8;stroke-linecap:butt;stroke-linejoin:miter;stroke-miterlimit:11.4737;stroke-dasharray:29, 29;stroke-dashoffset:0;stroke-opacity:1"
         id="path162" /><path
         d="m 845.676,1166.48 8.402,22.32 c 0,0.72 0,0.72 0,1.43 l 0.703,0.73 c 0,0.72 -0.703,1.43 -1.402,1.43 -0.699,0.73 -2.102,0.73 -3.5,0.73 v 1.43 h 9.805 v -1.43 c -0.7,0 -2.102,-0.73 -2.102,-1.44 -0.699,-0.72 -1.402,-1.45 -2.102,-2.88 v 0 -0.73 l -9.804,-25.19 v 0 l -1.403,-3.6 h -0.699 l -10.508,25.2 -1.398,4.32 c 0,0.72 -0.703,0.72 -0.703,1.43 v 0.73 c -0.699,0.72 -1.399,1.43 -1.399,1.43 0,0 -0.699,0.73 -1.402,0.73 v 1.43 h 12.609 v -1.43 h -0.703 c -0.699,0 -0.699,0 -0.699,0 -0.699,0 -2.101,-0.73 -2.101,-0.73 -0.7,0 -1.399,-0.71 -1.399,-1.43 0,0 0,0 0,-0.73 l 0.699,-0.71 9.106,-23.04"
         style="fill:#231f20;fill-opacity:1;fill-rule:evenodd;stroke:none"
         id="path164" /><path
         d="m 870.188,1182.32 v 7.2 c 0,1.44 0,2.87 -0.7,2.87 0,0 -0.699,0.73 -1.402,0.73 -0.699,0 -0.699,0 -0.699,0 -0.699,0 -0.699,0 -0.699,0 v 1.43 h 24.511 v 0 h 0.703 l 2.102,-8.63 h -1.402 c 0,0.72 0,0.72 0,1.44 -0.7,0 -0.7,0.71 -1.403,0.71 -0.699,1.45 -2.097,2.89 -2.801,3.61 -1.398,0.71 -3.5,1.44 -5.601,1.44 h -7.004 V 1178 h 3.5 c 0.703,0 0.703,0 0.703,0 0.699,0 1.399,0 1.399,0 0.699,0 2.101,0.72 2.8,1.44 1.403,0.72 2.102,2.88 2.102,5.04 H 887 v -14.4 h -0.703 c 0,2.16 -1.399,4.32 -2.102,5.04 -1.398,0.72 -2.8,1.44 -4.902,1.44 h -3.5 v -12.96 c 0,-0.72 0,-1.44 0.699,-2.16 0.699,0 1.403,-0.72 2.801,-0.72 h 4.902 c 2.805,0 4.907,0.72 6.305,2.16 1.402,1.44 2.801,3.6 4.203,6.48 h 0.699 l -1.398,-9.36 h -25.215 v 0 h -2.101 v 0.72 c 1.398,0 2.8,0.72 2.8,0.72 0.7,0.72 0.7,1.44 0.7,2.88 v 18"
         style="fill:#231f20;fill-opacity:1;fill-rule:evenodd;stroke:none"
         id="path166" /><path
         d="m 908.711,1189.52 c 0,1.44 -0.699,2.87 -1.402,2.87 0,0 -1.399,0.73 -2.102,0.73 v 1.43 h 14.012 0.699 c 0,0 0,-0.71 0.699,-0.71 2.102,0 4.903,-0.72 7.004,-2.16 2.102,-1.45 3.504,-3.61 3.504,-7.2 0,-2.88 -0.703,-5.04 -2.102,-5.76 -1.402,-1.44 -3.503,-2.88 -5.605,-3.6 0.703,-0.72 1.402,-1.44 2.102,-2.16 0.703,-0.72 1.402,-2.16 2.101,-2.88 0.699,-0.72 0.699,-0.72 0.699,-1.44 0.703,0 0.703,-0.72 1.403,-0.72 0,-0.72 0,-0.72 0,-0.72 0,-0.72 0.699,-0.72 0.699,-0.72 0,-0.72 0.703,-1.44 0.703,-2.16 0.699,0 0.699,-0.72 1.398,-1.44 0,-0.72 0.704,-1.44 1.403,-1.44 0,-0.72 0.699,-0.72 2.101,-0.72 v 0 c 0.7,0 0.7,0 0.7,0 V 1160 h -8.407 c -0.699,0.72 -0.699,1.44 -1.398,2.16 0,0.72 -0.699,1.44 -1.402,2.16 0,0 0,0.72 -0.7,0.72 0,0 0,0.72 0,1.44 -0.699,0 -1.402,0.72 -1.402,1.44 -0.699,0.72 -1.398,1.44 -1.398,2.16 -0.704,0 -0.704,0.72 -1.403,1.44 l -0.699,0.72 c -0.699,0.72 -2.102,1.44 -2.801,2.16 -0.703,0 -2.101,0 -3.504,0.72 v -10.8 c 0,-1.44 0,-2.88 0.7,-2.88 0.703,-0.72 2.101,-0.72 3.503,-0.72 V 1160 h -12.609 v 0.72 0 c 0.703,0 0.703,0 0.703,0 1.399,0 2.102,0 2.102,0.72 0.699,0.72 0.699,1.44 0.699,2.88 v 0 0 z m 4.902,-13.68 c 0,0 0,0 0.7,0 h 0.703 v 0 c 0.699,0 0.699,0 0.699,0 h 0.699 c 0,0 0,0 0.703,0 2.102,0 4.199,0.72 5.602,2.16 2.101,0.72 2.801,2.88 2.801,5.76 0,0.72 0,0.72 0,0.72 0,0.72 0,0.72 0,0.72 0,2.16 -0.7,3.6 -2.102,5.03 -0.699,1.45 -3.5,2.89 -6.301,2.89 -1.402,0 -2.101,-0.73 -2.804,-0.73 -0.7,0 -0.7,-1.43 -0.7,-2.87 v -13.68"
         style="fill:#231f20;fill-opacity:1;fill-rule:evenodd;stroke:none"
         id="path168" /><path
         d="m 947.234,1180.16 v 7.91 c 0,2.16 0,2.89 -0.703,3.61 0,0.71 -1.398,1.44 -3.5,1.44 v 1.43 h 14.008 v -1.43 c -2.101,0 -2.801,-0.73 -3.504,-0.73 -0.699,-0.71 -1.398,-2.16 -1.398,-4.32 v -24.47 c 0,-1.44 0.699,-2.16 1.398,-2.16 0.703,-0.72 1.403,-0.72 3.504,-0.72 V 1160 h -14.008 v 0.72 0 0 0 h 0.699 c 0.7,0 1.403,0 2.102,0.72 1.402,0 1.402,1.44 1.402,2.88 v 15.84"
         style="fill:#231f20;fill-opacity:1;fill-rule:evenodd;stroke:none"
         id="path170" /><path
         d="m 994.859,1183.04 c -0.699,2.16 -2.101,5.03 -4.203,7.19 -2.101,1.45 -4.199,2.89 -7.004,2.89 -4.199,0 -7.703,-2.16 -9.804,-5.05 -2.102,-3.59 -3.5,-7.19 -3.5,-11.51 v 0 -0.72 0 0 c 0,-4.32 0.699,-7.92 2.8,-10.8 2.102,-3.6 4.903,-5.04 9.106,-5.04 2.101,0 4.203,0.72 5.601,1.44 1.403,1.44 2.102,2.88 2.102,5.04 v 3.6 c 0,2.16 0,2.88 -0.699,3.6 0,0 -1.403,0.72 -3.504,0.72 v 1.44 h 13.309 v -1.44 c -0.7,0 -0.7,0 -0.7,0 -0.703,0 -0.703,0 -1.402,0 -0.699,-0.72 -1.402,-0.72 -1.402,-1.44 0,0 -0.7,-1.44 -0.7,-2.88 v -7.2 l -0.699,-0.72 c -0.699,-0.72 -0.699,-0.72 -1.402,-0.72 -0.699,-0.72 -2.102,-1.44 -4.203,-1.44 -1.399,0 -3.5,-0.72 -5.602,-0.72 0,0 0,0 -0.699,0 0,0 0,0 -0.703,0 -4.199,0 -8.403,0.72 -10.504,2.88 -2.801,2.16 -4.902,5.76 -5.606,8.64 0,0.72 -0.699,1.44 -0.699,2.16 0,0.72 0,1.44 0,2.16 0,7.2 2.102,12.24 5.606,15.11 4.199,2.89 8.402,4.32 13.304,4.32 v 0 c 0.703,0 0.703,0 0.703,0 1.399,0 3.5,-0.71 4.903,-1.43 1.398,-0.73 2.801,-1.44 4.203,-2.16 l 1.398,2.16 h 0.7 l 0.703,-10.08 h -1.403"
         style="fill:#231f20;fill-opacity:1;fill-rule:evenodd;stroke:none"
         id="path172" /><path
         d="m 1017.27,1189.52 -1.4,1.44 h 0.7 v 0 c 0.7,0.72 1.4,1.43 2.1,2.16 0.71,0.72 0.71,1.43 1.4,2.15 l 9.81,-25.19 v 0 l 2.1,-5.76 h 0.7 c 0,-0.72 0,-0.72 0,-0.72 0,-0.72 0.7,-1.44 0.7,-1.44 0.7,-0.72 1.4,-0.72 2.8,-1.44 V 1160 h -13.3 v 0.72 c 1.4,0 2.8,0 3.5,0.72 0.7,0 0.7,0 0.7,0.72 0,0.72 0,0.72 0,1.44 v 0.72 l -3.5,8.64 h -11.21 l -2.8,-8.64 v -0.72 l -0.7,-0.72 c 0,0 0.7,-0.72 0.7,-1.44 0.7,0 2.1,-0.72 3.5,-0.72 V 1160 h -9.11 v 0.72 c 1.41,0.72 2.11,0.72 2.11,1.44 0.7,0 0.7,0.72 1.4,1.44 0,0.72 0,0.72 0,0.72 0,0.72 0.7,0.72 0.7,1.44 z m 0.7,-1.45 -4.9,-13.67 h 9.81 z"
         style="fill:#231f20;fill-opacity:1;fill-rule:evenodd;stroke:none"
         id="path174" /><path
         d="m 1076.11,1165.76 11.2,25.2 v 0.72 l 1.4,2.87 h 7.71 v -1.43 c -1.4,0 -2.8,-0.73 -2.8,-1.44 -0.7,-0.72 -0.7,-2.16 -0.7,-3.61 v -23.75 c 0,-0.72 0,-2.16 0,-2.88 0.7,0 1.4,-0.72 2.8,-0.72 v 0 c 0.7,0 0.7,0 0.7,0 V 1160 h -12.61 v 0.72 c 1.4,0 2.8,0.72 2.8,0.72 0.7,0 1.4,1.44 1.4,4.32 v 23.04 l -11.2,-25.92 v 0 l -2.1,-2.88 H 1074 l -11.9,25.2 v 0 l -2.1,3.6 v -25.2 c 0,-0.72 0.7,-1.44 0.7,-2.16 0.7,0 1.4,-0.72 2.8,-0.72 h 0.7 0.7 V 1160 h -10.51 v 0.72 c 1.4,0 2.81,0 3.5,0.72 0,0 0.71,0.72 0.71,2.16 v 25.2 0 0 c 0,1.43 0,2.16 -0.71,2.88 0,0.71 -1.39,1.44 -2.8,1.44 v 1.43 h 8.41 l 11.21,-25.91 v 0 l 1.4,-2.88"
         style="fill:#231f20;fill-opacity:1;fill-rule:evenodd;stroke:none"
         id="path176" /><path
         d="m 1134.94,1167.2 v 21.6 c 0,0.72 -0.7,2.16 -0.7,2.88 -0.7,0.71 -1.4,1.44 -3.5,1.44 v 1.43 h 10.5 v -1.43 c -2.1,0 -3.5,-0.73 -3.5,-1.44 -0.7,-0.72 -1.4,-1.45 -1.4,-2.16 0,0 0,0 0,-0.72 0,0 0,0 0,-0.73 v -25.19 0 -2.88 h -1.4 l -23.11,24.48 v 0 l -2.81,3.59 v -24.47 c 0,-1.44 0.71,-2.16 1.41,-2.16 0.7,0 2.1,-0.72 3.5,-0.72 V 1160 h -10.51 v 0.72 h 0.7 c 0,0 0,0 0.7,0 0.7,0 1.4,0 2.11,0.72 0,0 0.7,0.72 0.7,2.16 v 25.2 0 0.72 0 l -0.7,0.71 -0.71,0.73 c -0.7,0.72 -1.4,1.43 -1.4,1.43 -0.7,0 -0.7,0 -0.7,0 -0.7,0.73 -0.7,0.73 -0.7,0.73 v 1.43 h 7.01 l 23.11,-25.91 v 0 l 1.4,-1.44"
         style="fill:#231f20;fill-opacity:1;fill-rule:evenodd;stroke:none"
         id="path178" /><path
         d="m 1148.25,1178.72 v 0.72 c 0,0 0,0 0,0.72 0.7,2.88 2.1,6.48 4.9,9.36 2.1,3.6 6.3,5.03 11.21,5.75 h 0.7 v 0 h 0.7 l 0.7,-0.72 c 3.5,0 7,-1.43 9.8,-4.32 3.51,-2.87 4.91,-7.19 5.61,-12.23 v 0 c 0,-0.72 0,-0.72 0,-0.72 0,-5.04 -1.41,-9.36 -4.21,-12.24 -2.8,-3.6 -7,-5.04 -12.6,-5.04 v 0 h -0.7 c -4.2,0 -8.41,0.72 -10.51,3.6 -2.8,2.88 -4.2,5.76 -4.9,9.36 0,0.72 -0.7,1.44 -0.7,2.16 0,0.72 0,1.44 0,2.16 v 0.72 z m 28.01,0 c 0,3.6 -0.7,7.2 -2.1,9.35 -1.4,1.45 -2.8,3.61 -4.2,4.32 -1.4,0.73 -2.1,0.73 -3.5,0.73 -0.7,0.72 -1.4,0.72 -2.1,0.72 -3.5,0 -6.31,-2.16 -7.71,-5.77 -2.1,-2.87 -2.8,-7.19 -2.8,-10.79 v 0 -0.72 c 0,-3.6 0.7,-7.2 2.1,-10.8 2.1,-2.88 5.6,-5.04 9.11,-5.04 3.5,0 5.6,1.44 7,3.6 2.1,2.16 3.5,5.04 4.2,7.92 0,0.72 0,1.44 0,2.16 0,0.72 0,1.44 0,2.16 v 0.72 c 0,0.72 0,0.72 0,1.44"
         style="fill:#231f20;fill-opacity:1;fill-rule:evenodd;stroke:none"
         id="path180" /><path
         d="m 1193.77,1188.8 -4.2,-5.04 h -0.7 l 3.5,10.79 h 23.82 l -16.81,-25.91 v 0 l -5.61,-7.92 h 11.21 c 1.4,0 2.8,0 3.5,0.72 0.7,0 2.1,0 2.81,0.72 0,0.72 0.69,0.72 0.69,1.44 0.7,0 0.7,0.72 1.41,1.44 l 3.5,5.04 h 1.4 l -3.5,-10.08 h -25.22 v 0 h -2.1 l 16.81,25.2 v 0 l 5.6,7.92 h -10.5 c -0.7,0 -1.4,-0.73 -2.1,-1.44 -1.4,0 -2.1,-0.72 -2.81,-1.45 v -0.71 c 0,0 -0.7,0 -0.7,-0.72 z m 11.21,7.91 h -2.8 l -6.3,8.65 h 2.1 l 5.6,-5.04 5.6,5.04 h 2.11 l -6.31,-8.65"
         style="fill:#231f20;fill-opacity:1;fill-rule:evenodd;stroke:none"
         id="path182" /><path
         d="m 1228.79,1180.16 v 7.91 c 0,2.16 0,2.89 -0.7,3.61 0,0.71 -1.4,1.44 -3.5,1.44 v 1.43 h 14.01 v -1.43 c -2.1,0 -2.8,-0.73 -3.5,-0.73 -0.7,-0.71 -1.4,-2.16 -1.4,-4.32 v -24.47 c 0,-1.44 0.7,-2.16 1.4,-2.16 0.7,-0.72 1.4,-0.72 3.5,-0.72 V 1160 h -14.01 v 0.72 0 0 0 h 0.7 c 0.7,0 1.4,0 2.1,0.72 1.4,0 1.4,1.44 1.4,2.88 v 15.84"
         style="fill:#231f20;fill-opacity:1;fill-rule:evenodd;stroke:none"
         id="path184" /><path
         d="m 1250.51,1178.72 v 10.08 c 0,1.43 0,2.16 -0.71,2.88 -0.69,0.71 -1.39,1.44 -2.8,1.44 v 1.43 h 13.31 v -1.43 c -1.4,0 -2.8,-0.73 -3.5,-1.44 -0.7,-0.72 -1.4,-2.16 -1.4,-3.61 v -23.75 c 0,-1.44 0.7,-2.88 1.4,-2.88 0.7,-0.72 2.1,-0.72 2.8,-0.72 v 0 h 0.7 v 0 0 h 6.31 c 2.09,0 3.5,0.72 4.9,2.16 1.4,1.44 2.8,3.6 3.5,5.04 0.7,0.72 0.7,1.44 0.7,1.44 0.7,0 0.7,0.72 0.7,1.44 h 1.4 l -2.8,-10.8 h -25.22 v 0 h -2.8 v 0.72 0 c 0.7,0 0.7,0 0.7,0 h 0.71 v 0 c 0.7,0 1.39,0 1.39,0.72 0.71,0 0.71,1.44 0.71,2.16 v 15.12"
         style="fill:#231f20;fill-opacity:1;fill-rule:evenodd;stroke:none"
         id="path186" /><path
         d="m 1315.64,1167.2 v 21.6 c 0,0.72 -0.7,2.16 -0.7,2.88 -0.7,0.71 -1.4,1.44 -3.5,1.44 v 1.43 h 10.51 v -1.43 c -2.11,0 -3.5,-0.73 -3.5,-1.44 -0.7,-0.72 -1.41,-1.45 -1.41,-2.16 0,0 0,0 0,-0.72 0,0 0,0 0,-0.73 v -25.19 0 -2.88 h -1.4 l -23.11,24.48 v 0 l -2.8,3.59 v -24.47 c 0,-1.44 0.7,-2.16 1.4,-2.16 0.7,0 2.1,-0.72 3.5,-0.72 V 1160 h -10.5 v 0.72 h 0.69 c 0,0 0,0 0.71,0 0.7,0 1.4,0 2.1,0.72 0,0 0.7,0.72 0.7,2.16 v 25.2 0 0.72 0 l -0.7,0.71 -0.7,0.73 c -0.7,0.72 -1.4,1.43 -1.4,1.43 -0.71,0 -0.71,0 -0.71,0 -0.69,0.73 -0.69,0.73 -0.69,0.73 v 1.43 h 7 l 23.11,-25.91 v 0 l 1.4,-1.44"
         style="fill:#231f20;fill-opacity:1;fill-rule:evenodd;stroke:none"
         id="path188" /><path
         d="m 1333.15,1180.16 v 7.91 c 0,2.16 0,2.89 -0.7,3.61 0,0.71 -1.4,1.44 -3.5,1.44 v 1.43 h 14.01 v -1.43 c -2.1,0 -2.8,-0.73 -3.5,-0.73 -0.7,-0.71 -1.41,-2.16 -1.41,-4.32 v -24.47 c 0,-1.44 0.71,-2.16 1.41,-2.16 0.7,-0.72 1.4,-0.72 3.5,-0.72 V 1160 h -14.01 v 0.72 0 0 0 h 0.7 c 0.7,0 1.4,0 2.1,0.72 1.4,0 1.4,1.44 1.4,2.88 v 15.84"
         style="fill:#231f20;fill-opacity:1;fill-rule:evenodd;stroke:none"
         id="path190" /><path
         d="m 1377.98,1178 v 11.52 c 0,1.44 0,2.16 0,2.87 -0.7,0 -2.1,0.73 -3.5,0.73 v 1.43 h 12.61 v -1.43 c 0,0 0,0 -0.71,0 v 0 c -0.7,0 -1.4,-0.73 -2.1,-0.73 -0.7,-0.71 -0.7,-2.16 -0.7,-5.03 v -23.76 c 0,-0.72 0,-1.44 0,-2.16 0.7,0 1.4,-0.72 2.1,-0.72 h 0.7 0.71 V 1160 h -12.61 v 0.72 c 0.7,0 2.1,0 2.8,0.72 0.7,0 0.7,0.72 0.7,2.16 v 12.24 h -17.51 v -11.52 c 0,-1.44 0.7,-2.16 0.7,-2.88 0,-0.72 0.7,-0.72 2.1,-0.72 0,0 0,0 0.7,0 0,0 0,0 0.7,0 V 1160 h -12.61 v 0.72 c 0,0 0,0 0.71,0 v 0 c 1.39,0 2.1,0.72 2.1,0.72 0.7,0.72 0.7,2.16 0.7,4.32 v 21.6 0 0.71 c 0,1.45 0,2.89 0,3.61 -0.7,0.71 -2.11,1.44 -3.51,1.44 v 1.43 h 13.31 v -1.43 c -2.1,0 -3.5,-0.73 -4.2,-0.73 0,-0.71 -0.7,-2.16 -0.7,-3.59 V 1178 h 17.51"
         style="fill:#231f20;fill-opacity:1;fill-rule:evenodd;stroke:none"
         id="path192" /><path
         d="m 1408.1,1170.8 h 1.4 v 0 0 -0.72 0 c 0,-2.16 0.7,-4.32 2.1,-5.76 1.4,-2.16 3.5,-2.88 4.9,-3.6 0,0 0.7,0 1.4,0 l 0.7,-0.72 v 0 l 0.7,0.72 v 0 0 c 0,0 0.7,0 1.4,0 0,0 0.7,0 1.41,0 0.69,0 2.1,0.72 2.8,2.16 0.7,0.72 1.39,2.88 1.39,5.04 0,1.44 -0.69,2.88 -1.39,3.6 -0.7,0.72 -2.11,1.44 -3.51,2.16 -0.7,0 -1.4,0.72 -2.1,0.72 -0.7,0 -1.4,0 -2.1,0.72 v 0 h -0.7 l -0.7,0.72 c -2.1,0.72 -3.5,1.44 -4.9,2.88 -0.7,0.72 -1.4,3.6 -1.4,6.48 0,2.16 0.7,4.32 2.1,5.76 1.4,1.43 2.8,2.88 4.2,3.59 0.7,0 1.4,0 2.1,0 0.7,0 1.4,0.72 1.4,0.72 0.7,0 0.7,0 0.7,0 0,0 0,0 0.7,0 0.7,-0.72 1.41,-0.72 2.1,-0.72 1.41,0 2.11,-0.71 2.81,-0.71 0,-0.72 0.69,-0.72 1.4,-0.72 0,-0.73 0.7,-0.73 0.7,-1.44 l 1.4,1.44 h 0.7 v -10.08 h -0.7 c -0.7,2.88 -1.4,5.76 -2.81,7.92 -2.09,1.43 -4.19,2.88 -6.3,2.88 v 0 0 c -2.1,0 -3.5,-0.72 -4.9,-2.16 -0.7,-1.45 -1.4,-2.88 -2.1,-5.04 v 0 -0.72 c 0,-0.72 0.7,-2.16 1.4,-2.88 0.7,-1.44 1.4,-2.16 3.5,-2.88 v 0 h 0.7 c 0.7,0 1.4,-0.72 2.1,-0.72 0.7,0 1.41,-0.72 2.1,-0.72 2.11,-0.72 4.21,-2.16 5.61,-2.88 2.1,-1.44 2.8,-3.6 2.8,-6.48 0,-3.6 -0.7,-6.48 -2.8,-7.2 -2.11,-1.44 -4.2,-2.16 -7.01,-2.16 h -0.7 c 0,0 -0.7,0 -1.4,0 -1.4,0 -3.5,0 -4.9,0 -1.4,0.72 -2.8,1.44 -3.5,2.16 l -2.1,-2.16 h -0.7 v 10.8"
         style="fill:#231f20;fill-opacity:1;fill-rule:evenodd;stroke:none"
         id="path194" /><path
         d="m 1452.92,1180.16 v 12.23 h -7 c -0.7,0 -2.1,0 -2.1,0 -0.7,0 -1.41,-0.71 -2.11,-0.71 0,-0.72 -0.69,-0.72 -0.69,-1.45 0,0 -0.7,-0.71 -0.7,-1.43 l -2.11,-3.6 -0.7,0.72 1.4,9.35 0.7,-0.72 h 0.71 c 0.7,0 1.39,0 2.09,0 0,0 1.41,0 2.11,0 h 21.71 c 0.7,0 1.4,0 1.4,0 0.7,0 1.4,0 2.1,0 0.7,0 0.7,0 1.4,0 0,0.72 0.7,0.72 0.7,0.72 l 2.1,-9.35 -0.7,-0.72 -3.5,5.76 v 0 0 c -0.7,0.72 -1.4,1.43 -2.1,1.43 -0.7,0 -1.4,0 -2.1,0 h -7.71 v -13.67 -14.4 c 0,-1.44 0.7,-2.88 1.41,-2.88 0.7,-0.72 2.1,-0.72 4.2,-0.72 V 1160 h -14.71 v 0.72 c 2.1,0 3.5,0.72 3.5,0.72 0.7,0.72 0.7,1.44 0.7,2.88 v 0 0 15.84"
         style="fill:#231f20;fill-opacity:1;fill-rule:evenodd;stroke:none"
         id="path196" /><path
         d="m 1479.54,1178.72 v 0.72 c 0,0 0,0 0,0.72 0.7,2.88 2.1,6.48 4.9,9.36 2.1,3.6 6.3,5.03 11.2,5.75 h 0.71 v 0 h 0.7 l 0.7,-0.72 c 3.5,0 7,-1.43 9.8,-4.32 3.5,-2.87 4.91,-7.19 5.61,-12.23 v 0 c 0,-0.72 0,-0.72 0,-0.72 0,-5.04 -1.41,-9.36 -4.21,-12.24 -2.8,-3.6 -7,-5.04 -12.6,-5.04 v 0 h -0.71 c -4.19,0 -8.4,0.72 -10.5,3.6 -2.8,2.88 -4.2,5.76 -4.9,9.36 0,0.72 -0.7,1.44 -0.7,2.16 0,0.72 0,1.44 0,2.16 v 0.72 z m 28.01,0 c 0,3.6 -0.7,7.2 -2.1,9.35 -1.4,1.45 -2.8,3.61 -4.2,4.32 -1.4,0.73 -2.1,0.73 -3.5,0.73 -0.7,0.72 -1.4,0.72 -2.11,0.72 -3.5,0 -6.3,-2.16 -7.7,-5.77 -2.1,-2.87 -2.8,-7.19 -2.8,-10.79 v 0 -0.72 c 0,-3.6 0.7,-7.2 2.1,-10.8 2.1,-2.88 5.6,-5.04 9.11,-5.04 3.5,0 5.6,1.44 7,3.6 2.1,2.16 3.5,5.04 4.2,7.92 0,0.72 0,1.44 0,2.16 0,0.72 0,1.44 0,2.16 v 0.72 c 0,0.72 0,0.72 0,1.44"
         style="fill:#231f20;fill-opacity:1;fill-rule:evenodd;stroke:none"
         id="path198" /><path
         d="m 1522.26,1183.76 v 5.04 c 0,2.16 0,2.88 -0.7,3.59 0,0 -0.7,0 -2.1,0 h -0.7 v 0 2.16 h 14.01 c 3.5,0 6.3,-1.43 8.4,-2.87 1.4,-1.45 2.8,-3.61 3.51,-5.04 0,-0.72 0,-0.72 0,-1.44 v -0.72 c 0,-3.6 -1.41,-5.76 -2.81,-7.2 -2.1,-1.44 -4.2,-2.16 -6.3,-2.88 -0.7,0 -1.4,0 -2.1,0 -1.4,0 -2.1,0 -2.8,0 h -0.71 c -0.69,0 -0.69,0 -1.39,0 h -0.71 -0.7 v -9.36 c 0,-2.16 0.7,-2.88 0.7,-3.6 0.71,0 2.1,-0.72 4.21,-0.72 V 1160 h -12.61 v 0.72 c 1.4,0 2.1,0.72 2.1,0.72 0.7,0.72 0.7,1.44 0.7,2.88 v 0.72 c 0,0 0,0 0,0.72 z m 16.81,0.72 c 0,2.88 0,5.04 -1.4,5.75 -0.7,1.45 -2.1,2.16 -3.5,2.16 -0.7,0 -0.7,0.73 -1.4,0.73 h -0.7 c -2.11,0 -3.5,-0.73 -4.21,-0.73 -0.7,-0.71 -0.7,-2.16 -0.7,-3.59 v -12.96 c 0.7,0 0.7,0 1.41,0 0.7,0 0.7,0 1.39,0 2.81,0 5.61,0 7.01,1.44 1.4,0.72 2.1,3.6 2.1,7.2"
         style="fill:#231f20;fill-opacity:1;fill-rule:evenodd;stroke:none"
         id="path200" /><path
         d="m 1557.28,1182.32 v 7.2 c 0,1.44 0,2.87 -0.7,2.87 0,0 -0.7,0.73 -1.4,0.73 -0.7,0 -0.7,0 -0.7,0 -0.7,0 -0.7,0 -0.7,0 v 1.43 h 24.51 v 0 h 0.7 l 2.1,-8.63 h -1.39 c 0,0.72 0,0.72 0,1.44 -0.71,0 -0.71,0.71 -1.41,0.71 -0.7,1.45 -2.1,2.89 -2.8,3.61 -1.4,0.71 -3.5,1.44 -5.6,1.44 h -7.01 V 1178 h 3.51 c 0.7,0 0.7,0 0.7,0 0.7,0 1.4,0 1.4,0 0.7,0 2.1,0.72 2.8,1.44 1.4,0.72 2.1,2.88 2.1,5.04 h 0.7 v -14.4 h -0.7 c 0,2.16 -1.4,4.32 -2.1,5.04 -1.4,0.72 -2.8,1.44 -4.9,1.44 h -3.51 v -12.96 c 0,-0.72 0,-1.44 0.71,-2.16 0.7,0 1.39,-0.72 2.8,-0.72 h 4.9 c 2.8,0 4.9,0.72 6.3,2.16 1.4,1.44 2.8,3.6 4.21,6.48 h 0.7 l -1.41,-9.36 h -25.21 v 0 h -2.1 v 0.72 c 1.4,0 2.8,0.72 2.8,0.72 0.7,0.72 0.7,1.44 0.7,2.88 v 18"
         style="fill:#231f20;fill-opacity:1;fill-rule:evenodd;stroke:none"
         id="path202" /><path
         d="m 1621.72,1167.2 v 21.6 c 0,0.72 -0.7,2.16 -0.7,2.88 -0.7,0.71 -1.4,1.44 -3.5,1.44 v 1.43 h 10.5 v -1.43 c -2.1,0 -3.5,-0.73 -3.5,-1.44 -0.7,-0.72 -1.4,-1.45 -1.4,-2.16 0,0 0,0 0,-0.72 0,0 0,0 0,-0.73 v -25.19 0 -2.88 h -1.4 l -23.11,24.48 v 0 l -2.81,3.59 v -24.47 c 0,-1.44 0.7,-2.16 1.4,-2.16 0.71,0 2.1,-0.72 3.51,-0.72 V 1160 h -10.51 v 0.72 h 0.7 c 0,0 0,0 0.7,0 0.7,0 1.4,0 2.1,0.72 0,0 0.7,0.72 0.7,2.16 v 25.2 0 0.72 0 l -0.7,0.71 -0.7,0.73 c -0.7,0.72 -1.4,1.43 -1.4,1.43 -0.7,0 -0.7,0 -0.7,0 -0.7,0.73 -0.7,0.73 -0.7,0.73 v 1.43 h 7 l 23.12,-25.91 v 0 l 1.4,-1.44"
         style="fill:#231f20;fill-opacity:1;fill-rule:evenodd;stroke:none"
         id="path204" /><path
         d="m 1639.93,1181.6 v 6.47 c 0,2.16 0,2.89 -0.7,3.61 -0.7,0.71 -1.4,1.44 -2.1,1.44 -0.7,0 -0.7,0 -0.7,0 h -0.7 v 1.43 h 13.31 v -1.43 c -1.41,0 -2.81,-0.73 -3.51,-1.44 0,-0.72 -0.7,-1.45 -0.7,-3.61 v -22.31 c 0,-3.6 0,-6.48 -1.4,-8.64 -0.7,-2.16 -2.8,-4.32 -4.2,-4.32 -0.7,-0.72 -1.4,-0.72 -1.4,-0.72 -0.7,0 -1.4,0 -1.4,0 -0.7,0 -1.4,0 -2.11,0 0,0.72 -0.69,0.72 -0.69,1.44 -0.7,0 -0.7,0 -0.7,0.72 v 0.72 0.72 0 c 0,0 0,0.72 0,1.44 0,0.72 1.39,0.72 2.1,0.72 0.7,0 0.7,0 1.4,-0.72 l 0.7,-0.72 v -0.72 0 c 0,0 0,-0.72 0.7,-0.72 0,0 0,-0.72 0.7,-0.72 0.7,-0.72 0.7,-0.72 1.4,0 0,0.72 0,1.44 0,2.88 v 24.48 0"
         style="fill:#231f20;fill-opacity:1;fill-rule:evenodd;stroke:none"
         id="path206" /><path
         d="m 704.473,920.156 -12.606,17.278 v 0 c 0,0.722 -1.402,1.441 -2.101,2.16 -1.403,0 -2.801,0.719 -4.203,0.719 v 2.882 h 20.312 v -2.882 c -1.402,0 -2.801,0 -3.504,0 -0.699,0 -0.699,-0.719 -0.699,-1.438 v -0.719 c 0,0 0,-0.722 0.699,-1.441 l 6.305,-11.52 8.406,10.078 c 0,0 0,0.723 0.699,0.723 v 0.719 c 0,0 0,0.719 0,1.441 0,0 0,0.719 -0.699,1.438 -1.402,0.719 -3.504,0.719 -5.605,0.719 v 2.882 h 18.914 v -2.882 c -1.403,0 -2.805,0 -3.504,0 -0.699,0 -2.102,-0.719 -2.801,-1.438 0,0 -0.699,-0.719 -1.402,-0.719 0,0 -0.7,-0.722 -1.399,-1.441 l -10.508,-12.957 12.61,-16.559 c 0.699,0 1.398,-1.441 2.097,-1.441 0.704,-0.719 0.704,-1.438 1.403,-2.16 0.699,-0.719 1.402,-0.719 2.101,-0.719 0.7,-0.719 2.102,-0.719 2.801,-0.719 V 900 h -23.113 v 2.16 h 0.699 c 0.703,0 0.703,0 1.402,0 0.7,0 2.102,0 3.504,0 0.699,0 1.399,0.719 1.399,1.438 0,0.722 0,1.441 -0.7,2.16 0,0.722 -1.402,2.16 -2.101,2.883 l -7.004,9.355 -9.105,-12.238 -0.7,-0.719 c 0,0 0,-0.719 0,-1.441 0,0 0,-0.719 1.399,-0.719 0.703,-0.719 2.101,-0.719 3.504,-0.719 0.699,0 0.699,0 0.699,0 0.699,0 1.402,0 1.402,0 V 900 h -18.211 v 2.16 c 0,0 0.7,0 1.399,0 0.703,0 1.402,0 2.804,0 0,0 1.399,0.719 2.102,0.719 0,0.719 1.398,1.441 1.398,2.16 l 11.907,15.117"
         style="fill:#231f20;fill-opacity:1;fill-rule:evenodd;stroke:none"
         id="path208" /><path
         d="m 785.719,931.676 c 0,0.719 1.402,2.16 1.402,2.16 0.699,0.719 2.102,2.16 2.102,2.879 2.101,2.16 4.902,4.32 6.304,7.199 2.102,2.16 2.801,5.039 2.801,7.918 0,2.879 -0.699,5.762 -2.101,6.481 -2.102,1.437 -4.204,2.16 -7.004,2.16 -2.102,0 -4.203,-0.723 -6.305,-2.16 -2.102,-1.442 -4.902,-3.602 -7.004,-5.762 l -1.398,1.441 c 2.097,2.879 4.199,5.039 7.004,7.199 2.101,2.161 5.601,4.321 8.402,5.039 0,0 1.402,0.719 2.101,0.719 0,0 1.403,0 2.102,0 2.801,0 5.602,-0.719 7.703,-2.156 2.102,-2.16 3.504,-5.043 3.504,-8.641 0,-3.601 -1.402,-7.199 -3.504,-9.359 -2.101,-2.879 -4.902,-5.758 -7.004,-7.918 4.203,0 8.406,-1.441 11.207,-5.039 3.504,-3.602 5.606,-7.199 5.606,-11.52 v -0.718 -0.719 -0.723 c 0,0 0,0 0,-0.718 v 0 -0.719 c -0.703,-4.321 -2.102,-7.922 -4.203,-10.801 -2.102,-2.879 -5.606,-5.039 -7.707,-6.477 -2.098,-0.722 -3.5,-1.441 -4.903,-1.441 -1.398,0 -2.801,-0.719 -4.199,-0.719 -0.703,0 -2.102,0 -3.504,0 -2.101,0 -3.5,0.719 -4.902,0.719 -1.403,0 -2.801,0 -4.203,0.719 -1.403,0 -2.102,0.722 -3.5,2.16 v 0 l -0.703,0.719 c -0.7,0 -1.399,1.441 -2.102,1.441 0,0.719 -0.699,2.16 -0.699,2.879 v 0.723 c 0,0 0,0 0,0.718 v 0.719 c 0,0.719 0.699,0.719 0.699,1.442 l 0.703,0.718 c 0.699,0 1.399,0 1.399,0 0,0 0.703,0 1.402,0 h 0.699 c 0.699,-0.718 1.402,-1.441 2.102,-2.16 0.699,0 1.402,-1.437 2.101,-2.879 0.699,-1.441 2.102,-3.601 3.504,-4.32 1.399,-1.438 3.5,-2.16 4.902,-2.16 0.7,0 0.7,0 1.399,0 l 0.703,0.722 c 3.5,0 7.004,2.157 9.102,5.039 2.101,3.598 3.503,7.2 3.503,11.516 v 0.723 0.719 0 0.718 c 0,2.879 -1.402,5.762 -3.503,7.199 -2.098,2.161 -4.903,2.879 -7.004,3.602 -0.7,0.719 -2.801,0.719 -3.5,0.719 -1.403,0 -2.801,0 -3.504,0"
         style="fill:#231f20;fill-opacity:1;fill-rule:evenodd;stroke:none"
         id="path210" /><path
         d="m 1034.47,920.156 -12.6,17.278 v 0 c 0,0.722 -1.41,1.441 -2.1,2.16 -1.41,0 -2.81,0.719 -4.21,0.719 v 2.882 h 20.32 v -2.882 c -1.41,0 -2.81,0 -3.51,0 -0.7,0 -0.7,-0.719 -0.7,-1.438 v -0.719 c 0,0 0,-0.722 0.7,-1.441 l 6.31,-11.52 8.4,10.078 c 0,0 0,0.723 0.7,0.723 v 0.719 c 0,0 0,0.719 0,1.441 0,0 0,0.719 -0.7,1.438 -1.4,0.719 -3.5,0.719 -5.6,0.719 v 2.882 h 18.91 v -2.882 c -1.4,0 -2.8,0 -3.5,0 -0.7,0 -2.1,-0.719 -2.8,-1.438 0,0 -0.7,-0.719 -1.41,-0.719 0,0 -0.7,-0.722 -1.39,-1.441 l -10.51,-12.957 12.61,-16.559 c 0.7,0 1.4,-1.441 2.09,-1.441 0.71,-0.719 0.71,-1.438 1.41,-2.16 0.7,-0.719 1.4,-0.719 2.1,-0.719 0.7,-0.719 2.1,-0.719 2.8,-0.719 V 900 h -23.11 v 2.16 h 0.7 c 0.7,0 0.7,0 1.4,0 0.7,0 2.1,0 3.5,0 0.7,0 1.4,0.719 1.4,1.438 0,0.722 0,1.441 -0.7,2.16 0,0.722 -1.4,2.16 -2.1,2.883 l -7,9.355 -9.11,-12.238 -0.7,-0.719 c 0,0 0,-0.719 0,-1.441 0,0 0,-0.719 1.4,-0.719 0.7,-0.719 2.1,-0.719 3.5,-0.719 0.7,0 0.7,0 0.7,0 0.7,0 1.4,0 1.4,0 V 900 h -18.21 v 2.16 c 0,0 0.7,0 1.4,0 0.7,0 1.4,0 2.81,0 0,0 1.39,0.719 2.1,0.719 0,0.719 1.4,1.441 1.4,2.16 l 11.9,15.117"
         style="fill:#231f20;fill-opacity:1;fill-rule:evenodd;stroke:none"
         id="path212" /><path
         d="m 1103.11,946.793 c 0.7,1.441 1.41,2.16 2.1,4.32 0.7,1.438 2.11,3.598 3.5,5.039 2.11,2.879 4.91,5.039 7.01,7.2 2.8,2.16 6.3,4.32 9.81,4.32 4.2,0 7.7,-1.442 11.2,-3.602 2.81,-2.16 4.91,-5.757 4.91,-10.078 0,-2.879 -0.71,-5.758 -2.1,-8.637 -1.41,-2.16 -3.51,-5.042 -5.61,-7.199 -2.1,-2.16 -4.9,-4.32 -6.3,-6.48 -2.1,-2.16 -3.5,-3.602 -5.61,-5.039 0,-1.442 -1.39,-2.16 -2.1,-2.879 -0.7,-0.723 -1.4,-2.16 -2.1,-2.879 l -0.7,-0.723 h -0.7 c -2.1,-2.16 -3.5,-5.039 -5.6,-6.476 -1.4,-2.16 -2.8,-4.321 -2.8,-6.481 h 21.01 c 2.8,0 4.9,0.719 7,1.442 1.4,1.437 2.8,3.597 4.2,5.757 h 2.11 l -7.01,-18.718 h -1.4 c 0,1.441 -0.7,2.879 -0.7,3.601 -0.7,0.719 -2.8,0.719 -4.9,0.719 h -25.22 c 0,2.879 0.7,6.48 2.1,9.359 1.41,2.879 3.5,5.758 4.91,7.918 0.7,0.719 2.1,2.161 2.8,3.602 0.7,0.719 2.1,2.156 2.8,2.879 0,1.437 1.4,2.879 2.8,4.316 1.4,1.442 2.8,3.602 4.2,5.762 0.71,0 1.41,0.719 1.41,0.719 0,0.718 0.69,1.441 0.69,1.441 1.41,2.16 2.11,3.598 3.51,5.039 0.7,1.438 2.1,2.879 2.8,4.32 0,0.719 0,0.719 0,1.438 0,0.719 0.7,1.441 0.7,1.441 0,0.719 0,1.438 0,2.161 l 0.7,0.718 c 0,2.16 -0.7,5.039 -2.1,6.481 -1.4,2.156 -3.5,2.879 -6.3,3.597 h -0.7 -0.71 v 0 h -0.7 c -2.8,0 -5.6,-0.718 -7.7,-2.878 -2.1,-2.161 -4.2,-4.321 -5.61,-7.2 -0.69,-0.718 -1.39,-1.441 -2.09,-2.16 0,-0.719 -0.71,-1.441 -1.41,-2.16 h -2.1"
         style="fill:#231f20;fill-opacity:1;fill-rule:evenodd;stroke:none"
         id="path214" /><path
         d="m 1364.47,920.156 -12.6,17.278 v 0 c 0,0.722 -1.41,1.441 -2.1,2.16 -1.41,0 -2.81,0.719 -4.21,0.719 v 2.882 h 20.32 v -2.882 c -1.41,0 -2.81,0 -3.51,0 -0.7,0 -0.7,-0.719 -0.7,-1.438 v -0.719 c 0,0 0,-0.722 0.7,-1.441 l 6.31,-11.52 8.4,10.078 c 0,0 0,0.723 0.7,0.723 v 0.719 c 0,0 0,0.719 0,1.441 0,0 0,0.719 -0.7,1.438 -1.4,0.719 -3.5,0.719 -5.6,0.719 v 2.882 h 18.91 v -2.882 c -1.4,0 -2.8,0 -3.5,0 -0.7,0 -2.1,-0.719 -2.8,-1.438 0,0 -0.7,-0.719 -1.41,-0.719 0,0 -0.7,-0.722 -1.39,-1.441 l -10.51,-12.957 12.61,-16.559 c 0.7,0 1.4,-1.441 2.09,-1.441 0.71,-0.719 0.71,-1.438 1.41,-2.16 0.7,-0.719 1.4,-0.719 2.1,-0.719 0.7,-0.719 2.1,-0.719 2.8,-0.719 V 900 h -23.11 v 2.16 h 0.7 c 0.7,0 0.7,0 1.4,0 0.7,0 2.1,0 3.5,0 0.7,0 1.4,0.719 1.4,1.438 0,0.722 0,1.441 -0.7,2.16 0,0.722 -1.4,2.16 -2.1,2.883 l -7,9.355 -9.11,-12.238 -0.7,-0.719 c 0,0 0,-0.719 0,-1.441 0,0 0,-0.719 1.4,-0.719 0.7,-0.719 2.1,-0.719 3.5,-0.719 0.7,0 0.7,0 0.7,0 0.7,0 1.4,0 1.4,0 V 900 h -18.21 v 2.16 c 0,0 0.7,0 1.4,0 0.7,0 1.4,0 2.81,0 0,0 1.39,0.719 2.1,0.719 0,0.719 1.4,1.441 1.4,2.16 l 11.9,15.117"
         style="fill:#231f20;fill-opacity:1;fill-rule:evenodd;stroke:none"
         id="path216" /><path
         d="m 1433.11,946.793 c 0.7,1.441 1.41,2.16 2.1,4.32 0.7,1.438 2.11,3.598 3.5,5.039 2.11,2.879 4.91,5.039 7.01,7.2 2.8,2.16 6.3,4.32 9.81,4.32 4.2,0 7.7,-1.442 11.2,-3.602 2.81,-2.16 4.91,-5.757 4.91,-10.078 0,-2.879 -0.71,-5.758 -2.1,-8.637 -1.41,-2.16 -3.51,-5.042 -5.61,-7.199 -2.1,-2.16 -4.9,-4.32 -6.3,-6.48 -2.1,-2.16 -3.5,-3.602 -5.61,-5.039 0,-1.442 -1.39,-2.16 -2.1,-2.879 -0.7,-0.723 -1.4,-2.16 -2.1,-2.879 l -0.7,-0.723 h -0.7 c -2.1,-2.16 -3.5,-5.039 -5.6,-6.476 -1.4,-2.16 -2.8,-4.321 -2.8,-6.481 h 21.01 c 2.8,0 4.9,0.719 7,1.442 1.4,1.437 2.8,3.597 4.2,5.757 h 2.11 l -7.01,-18.718 h -1.4 c 0,1.441 -0.7,2.879 -0.7,3.601 -0.7,0.719 -2.8,0.719 -4.9,0.719 h -25.22 c 0,2.879 0.7,6.48 2.1,9.359 1.41,2.879 3.5,5.758 4.91,7.918 0.7,0.719 2.1,2.161 2.8,3.602 0.7,0.719 2.1,2.156 2.8,2.879 0,1.437 1.4,2.879 2.8,4.316 1.4,1.442 2.8,3.602 4.2,5.762 0.71,0 1.41,0.719 1.41,0.719 0,0.718 0.69,1.441 0.69,1.441 1.41,2.16 2.11,3.598 3.51,5.039 0.7,1.438 2.1,2.879 2.8,4.32 0,0.719 0,0.719 0,1.438 0,0.719 0.7,1.441 0.7,1.441 0,0.719 0,1.438 0,2.161 l 0.7,0.718 c 0,2.16 -0.7,5.039 -2.1,6.481 -1.4,2.156 -3.5,2.879 -6.3,3.597 h -0.7 -0.71 v 0 h -0.7 c -2.8,0 -5.6,-0.718 -7.7,-2.878 -2.1,-2.161 -4.2,-4.321 -5.61,-7.2 -0.69,-0.718 -1.39,-1.441 -2.09,-2.16 0,-0.719 -0.71,-1.441 -1.41,-2.16 h -2.1"
         style="fill:#231f20;fill-opacity:1;fill-rule:evenodd;stroke:none"
         id="path218" /><path
         d="m 1694.47,920.156 -12.6,17.278 v 0 c 0,0.722 -1.41,1.441 -2.1,2.16 -1.41,0 -2.81,0.719 -4.21,0.719 v 2.882 h 20.32 v -2.882 c -1.41,0 -2.81,0 -3.51,0 -0.7,0 -0.7,-0.719 -0.7,-1.438 v -0.719 c 0,0 0,-0.722 0.7,-1.441 l 6.31,-11.52 8.4,10.078 c 0,0 0,0.723 0.7,0.723 v 0.719 c 0,0 0,0.719 0,1.441 0,0 0,0.719 -0.7,1.438 -1.4,0.719 -3.5,0.719 -5.6,0.719 v 2.882 h 18.91 v -2.882 c -1.4,0 -2.8,0 -3.5,0 -0.7,0 -2.1,-0.719 -2.8,-1.438 0,0 -0.7,-0.719 -1.41,-0.719 0,0 -0.7,-0.722 -1.39,-1.441 l -10.51,-12.957 12.61,-16.559 c 0.7,0 1.4,-1.441 2.09,-1.441 0.71,-0.719 0.71,-1.438 1.41,-2.16 0.7,-0.719 1.4,-0.719 2.1,-0.719 0.7,-0.719 2.1,-0.719 2.8,-0.719 V 900 h -23.11 v 2.16 h 0.7 c 0.7,0 0.7,0 1.4,0 0.7,0 2.1,0 3.5,0 0.7,0 1.4,0.719 1.4,1.438 0,0.722 0,1.441 -0.7,2.16 0,0.722 -1.4,2.16 -2.1,2.883 l -7,9.355 -9.11,-12.238 -0.7,-0.719 c 0,0 0,-0.719 0,-1.441 0,0 0,-0.719 1.4,-0.719 0.7,-0.719 2.1,-0.719 3.5,-0.719 0.7,0 0.7,0 0.7,0 0.7,0 1.4,0 1.4,0 V 900 h -18.21 v 2.16 c 0,0 0.7,0 1.4,0 0.7,0 1.4,0 2.81,0 0,0 1.39,0.719 2.1,0.719 0,0.719 1.4,1.441 1.4,2.16 l 11.9,15.117"
         style="fill:#231f20;fill-opacity:1;fill-rule:evenodd;stroke:none"
         id="path220" /><path
         d="m 1763.11,946.793 c 0.7,1.441 1.41,2.16 2.1,4.32 0.7,1.438 2.11,3.598 3.5,5.039 2.11,2.879 4.91,5.039 7.01,7.2 2.8,2.16 6.3,4.32 9.81,4.32 4.2,0 7.7,-1.442 11.2,-3.602 2.81,-2.16 4.91,-5.757 4.91,-10.078 0,-2.879 -0.71,-5.758 -2.1,-8.637 -1.41,-2.16 -3.51,-5.042 -5.61,-7.199 -2.1,-2.16 -4.9,-4.32 -6.3,-6.48 -2.1,-2.16 -3.5,-3.602 -5.61,-5.039 0,-1.442 -1.39,-2.16 -2.1,-2.879 -0.7,-0.723 -1.4,-2.16 -2.1,-2.879 l -0.7,-0.723 h -0.7 c -2.1,-2.16 -3.5,-5.039 -5.6,-6.476 -1.4,-2.16 -2.8,-4.321 -2.8,-6.481 h 21.01 c 2.8,0 4.9,0.719 7,1.442 1.4,1.437 2.8,3.597 4.2,5.757 h 2.11 l -7.01,-18.718 h -1.4 c 0,1.441 -0.7,2.879 -0.7,3.601 -0.7,0.719 -2.8,0.719 -4.9,0.719 h -25.22 c 0,2.879 0.7,6.48 2.1,9.359 1.41,2.879 3.5,5.758 4.91,7.918 0.7,0.719 2.1,2.161 2.8,3.602 0.7,0.719 2.1,2.156 2.8,2.879 0,1.437 1.4,2.879 2.8,4.316 1.4,1.442 2.8,3.602 4.2,5.762 0.71,0 1.41,0.719 1.41,0.719 0,0.718 0.69,1.441 0.69,1.441 1.41,2.16 2.11,3.598 3.51,5.039 0.7,1.438 2.1,2.879 2.8,4.32 0,0.719 0,0.719 0,1.438 0,0.719 0.7,1.441 0.7,1.441 0,0.719 0,1.438 0,2.161 l 0.7,0.718 c 0,2.16 -0.7,5.039 -2.1,6.481 -1.4,2.156 -3.5,2.879 -6.3,3.597 h -0.7 -0.71 v 0 h -0.7 c -2.8,0 -5.6,-0.718 -7.7,-2.878 -2.1,-2.161 -4.2,-4.321 -5.61,-7.2 -0.69,-0.718 -1.39,-1.441 -2.09,-2.16 0,-0.719 -0.71,-1.441 -1.41,-2.16 h -2.1"
         style="fill:#231f20;fill-opacity:1;fill-rule:evenodd;stroke:none"
         id="path222" /><path
         d="m 2103.3,1078.2 h 274.3 V 795.199 h -274.3 z"
         style="fill:none;stroke:#231f20;stroke-width:8.6;stroke-linecap:butt;stroke-linejoin:miter;stroke-miterlimit:11.4737;stroke-dasharray:none;stroke-opacity:1"
         id="path224" /><path
         d="m 2296.2,937 -110.8,-56.801 v 113 z"
         style="fill:none;stroke:#231f20;stroke-width:8.6;stroke-linecap:butt;stroke-linejoin:miter;stroke-miterlimit:11.4737;stroke-dasharray:none;stroke-opacity:1"
         id="path226" /><path
         d="M 890.102,595.801 H 614.301 v -283 h 275.801 z"
         style="fill:none;stroke:#231f20;stroke-width:8.6;stroke-linecap:butt;stroke-linejoin:miter;stroke-miterlimit:11.4737;stroke-dasharray:none;stroke-opacity:1"
         id="path228" /><path
         d="M 697.102,454.602 808,397.801 v 113 z"
         style="fill:none;stroke:#231f20;stroke-width:8.6;stroke-linecap:butt;stroke-linejoin:miter;stroke-miterlimit:11.4737;stroke-dasharray:none;stroke-opacity:1"
         id="path230" /><path
         d="m 2790.9,937 -110.2,-56.801 v 113 z"
         style="fill:none;stroke:#231f20;stroke-width:8.6;stroke-linecap:butt;stroke-linejoin:miter;stroke-miterlimit:11.4737;stroke-dasharray:none;stroke-opacity:1"
         id="path232" /><path
         d="M 612.898,454.602 H 281.699 V 788"
         style="fill:none;stroke:#231f20;stroke-width:5.8;stroke-linecap:butt;stroke-linejoin:miter;stroke-miterlimit:11.4737;stroke-dasharray:none;stroke-opacity:1"
         id="path234" /><path
         d="m 281,823.301 -19.5,-77.102 c 13,10.801 26.699,10.801 39.602,0 L 281,823.301"
         style="fill:#231f20;fill-opacity:1;fill-rule:evenodd;stroke:none"
         id="path236" /><path
         d="M 924.602,454.602 H 1109.7"
         style="fill:none;stroke:#231f20;stroke-width:5.8;stroke-linecap:butt;stroke-linejoin:miter;stroke-miterlimit:11.4737;stroke-dasharray:none;stroke-opacity:1"
         id="path238" /><path
         d="m 889.398,454.602 77.704,19.5 c -10.801,-13 -10.801,-25.204 0,-38.204 l -77.704,18.704"
         style="fill:#231f20;fill-opacity:1;fill-rule:evenodd;stroke:none"
         id="path240" /><path
         d="m 1191.8,455.398 v -85 c -44.7,0 -82.1,37.403 -82.1,85 0,47.5 37.4,84.903 82.1,84.903 z"
         style="fill:none;stroke:#231f20;stroke-width:8.6;stroke-linecap:butt;stroke-linejoin:miter;stroke-miterlimit:11.4737;stroke-dasharray:none;stroke-opacity:1"
         id="path242" /><path
         d="m 262.395,860.078 c 0,3.602 1.441,6.481 3.601,8.641 2.879,2.16 5.758,3.597 8.637,3.597 h 0.722 v 0 c 2.879,0 5.758,-2.16 7.918,-3.597 2.161,-2.16 3.598,-5.039 3.598,-8.641 0,-4.32 -1.437,-7.199 -3.598,-8.637 -2.16,-1.441 -5.761,-2.882 -8.64,-2.882 -2.879,0 -5.758,1.441 -7.918,2.16 -2.879,2.16 -4.32,5.039 -4.32,9.359 z m 7.918,20.156 c 0,1.442 0,2.161 0,2.161 0,0 0,0 0,0.722 0,1.438 0,2.156 0,3.598 0,0.719 -0.719,2.16 -0.719,2.16 0,1.438 0,2.16 0,3.598 v 0.722 1.438 c 0,2.879 1.441,6.48 1.441,10.078 0.719,2.883 2.879,6.48 5.039,9.359 0.719,1.442 2.879,2.879 5.039,3.602 1.438,1.437 3.598,3.598 5.039,4.316 l 1.442,0.723 c 0,0 1.437,1.437 2.156,1.437 2.883,1.442 5.762,3.602 8.641,5.762 3.597,2.16 5.757,6.477 7.918,10.797 0.722,1.441 1.441,3.602 1.441,5.758 0,2.16 0.719,4.32 0.719,6.48 0,7.2 -2.16,13.68 -7.918,18.719 -5.039,5.758 -12.238,7.918 -20.879,7.918 -0.719,0 -2.879,0 -4.317,0 -2.16,0 -4.32,-1.441 -6.48,-2.16 -3.602,-0.719 -7.199,-2.16 -10.078,-4.32 -3.602,-2.161 -5.039,-5.758 -5.039,-8.637 0,-0.719 0,-1.442 0,-1.442 0,-0.718 0.719,-2.16 0.719,-2.16 0,0 0,-1.437 0,-2.16 l 0.718,-1.437 0.723,-1.442 c 0,-0.719 0.719,-1.437 0.719,-1.437 0,-1.442 0,-2.16 0,-2.879 0,-0.723 0.718,-2.16 0.718,-2.883 0,-1.437 -0.718,-2.879 -0.718,-4.316 -0.719,-0.723 -2.16,-2.161 -4.321,-3.602 -1.437,0 -2.16,-0.719 -2.878,-0.719 -1.442,0 -2.161,-0.718 -2.879,-0.718 -2.879,0 -6.481,1.437 -8.641,4.316 -2.16,2.879 -2.879,7.199 -2.879,10.801 0,0.718 0,2.879 0,4.316 0,0.723 0.719,2.883 1.441,4.32 3.598,7.2 9.356,13.68 16.555,17.278 7.922,4.32 17.278,7.199 25.918,7.922 h 1.442 c 0.718,0 1.437,0 1.437,0 4.32,0 9.359,-0.723 13.68,-1.442 4.32,-0.718 8.636,-2.879 12.238,-5.039 6.477,-2.879 12.238,-7.918 15.117,-12.957 3.598,-5.762 6.481,-11.519 6.481,-18 v 0 -0.719 c 0,-5.757 -1.442,-10.796 -3.602,-15.117 -2.16,-5.039 -6.476,-9.359 -11.519,-12.961 -1.438,-0.718 -3.598,-2.156 -5.758,-2.156 -2.16,-1.441 -4.321,-2.16 -6.481,-3.602 v 0 c -3.597,-0.718 -6.476,-2.878 -9.355,-3.597 -2.883,-1.442 -6.481,-3.602 -8.641,-6.481 -1.441,-2.16 -2.879,-5.039 -3.597,-7.918 -0.723,-2.879 -1.442,-6.48 -1.442,-9.359 0,-1.441 0,-2.16 0,-3.602 0,-0.718 0,-2.156 0,-2.878 v -0.719 -1.442 h -8.64"
         style="fill:#231f20;fill-opacity:1;fill-rule:evenodd;stroke:none"
         id="path244" /><path
         d="m 262.395,860.078 c 0,3.602 1.441,6.481 3.601,8.641 2.879,2.16 5.758,3.597 8.637,3.597 h 0.722 v 0 c 2.879,0 5.758,-2.16 7.918,-3.597 2.161,-2.16 3.598,-5.039 3.598,-8.641 0,-4.32 -1.437,-7.199 -3.598,-8.637 -2.16,-1.441 -5.761,-2.882 -8.64,-2.882 -2.879,0 -5.758,1.441 -7.918,2.16 -2.879,2.16 -4.32,5.039 -4.32,9.359 z m 7.918,20.156 c 0,1.442 0,2.161 0,2.161 0,0 0,0 0,0.722 0,1.438 0,2.156 0,3.598 0,0.719 -0.719,2.16 -0.719,2.16 0,1.438 0,2.16 0,3.598 v 0.722 1.438 c 0,2.879 1.441,6.48 1.441,10.078 0.719,2.883 2.879,6.48 5.039,9.359 0.719,1.442 2.879,2.879 5.039,3.602 1.438,1.437 3.598,3.598 5.039,4.316 l 1.442,0.723 c 0,0 1.437,1.437 2.156,1.437 2.883,1.442 5.762,3.602 8.641,5.762 3.597,2.16 5.757,6.477 7.918,10.797 0.722,1.441 1.441,3.602 1.441,5.758 0,2.16 0.719,4.32 0.719,6.48 0,7.2 -2.16,13.68 -7.918,18.719 -5.039,5.758 -12.238,7.918 -20.879,7.918 -0.719,0 -2.879,0 -4.317,0 -2.16,0 -4.32,-1.441 -6.48,-2.16 -3.602,-0.719 -7.199,-2.16 -10.078,-4.32 -3.602,-2.161 -5.039,-5.758 -5.039,-8.637 0,-0.719 0,-1.442 0,-1.442 0,-0.718 0.719,-2.16 0.719,-2.16 0,0 0,-1.437 0,-2.16 l 0.718,-1.437 0.723,-1.442 c 0,-0.719 0.719,-1.437 0.719,-1.437 0,-1.442 0,-2.16 0,-2.879 0,-0.723 0.718,-2.16 0.718,-2.883 0,-1.437 -0.718,-2.879 -0.718,-4.316 -0.719,-0.723 -2.16,-2.161 -4.321,-3.602 -1.437,0 -2.16,-0.719 -2.878,-0.719 -1.442,0 -2.161,-0.718 -2.879,-0.718 -2.879,0 -6.481,1.437 -8.641,4.316 -2.16,2.879 -2.879,7.199 -2.879,10.801 0,0.718 0,2.879 0,4.316 0,0.723 0.719,2.883 1.441,4.32 3.598,7.2 9.356,13.68 16.555,17.278 7.922,4.32 17.278,7.199 25.918,7.922 h 1.442 c 0.718,0 1.437,0 1.437,0 4.32,0 9.359,-0.723 13.68,-1.442 4.32,-0.718 8.636,-2.879 12.238,-5.039 6.477,-2.879 12.238,-7.918 15.117,-12.957 3.598,-5.762 6.481,-11.519 6.481,-18 v 0 -0.719 c 0,-5.757 -1.442,-10.796 -3.602,-15.117 -2.16,-5.039 -6.476,-9.359 -11.519,-12.961 -1.438,-0.718 -3.598,-2.156 -5.758,-2.156 -2.16,-1.441 -4.321,-2.16 -6.481,-3.602 v 0 c -3.597,-0.718 -6.476,-2.878 -9.355,-3.597 -2.883,-1.442 -6.481,-3.602 -8.641,-6.481 -1.441,-2.16 -2.879,-5.039 -3.597,-7.918 -0.723,-2.879 -1.442,-6.48 -1.442,-9.359 0,-1.441 0,-2.16 0,-3.602 0,-0.718 0,-2.156 0,-2.878 v -0.719 -1.442 z"
         style="fill:none;stroke:#231f20;stroke-width:8.6;stroke-linecap:butt;stroke-linejoin:miter;stroke-miterlimit:11.4737;stroke-dasharray:none;stroke-opacity:1"
         id="path246" /></g></g></svg>
