<?xml version="1.0" encoding="UTF-8" standalone="no"?>
<!-- Created with Inkscape (http://www.inkscape.org/) -->

<svg
   version="1.1"
   id="svg2"
   xml:space="preserve"
   width="190.66667"
   height="190.66667"
   viewBox="0 0 190.66667 190.66667"
   xmlns="http://www.w3.org/2000/svg"
   xmlns:svg="http://www.w3.org/2000/svg"><defs
     id="defs6" /><g
     id="g8"
     transform="matrix(1.3333333,0,0,-1.3333333,0,190.66667)"><g
       id="g10"
       transform="scale(0.1)"><path
         d="M 6.89844,1424.8 H 1423.1 V 7.80078 H 6.89844 Z"
         style="fill:none;stroke:#231f20;stroke-width:11.5;stroke-linecap:butt;stroke-linejoin:miter;stroke-miterlimit:11.4737;stroke-dasharray:none;stroke-opacity:1"
         id="path12" /><path
         d="M 204.199,120.898 H 1309.4 v 56.903"
         style="fill:none;stroke:#231f20;stroke-width:8.6;stroke-linecap:butt;stroke-linejoin:miter;stroke-miterlimit:11.4737;stroke-dasharray:none;stroke-opacity:1"
         id="path14" /><path
         d="m 1309.4,404.602 v 56.097 H 204.199"
         style="fill:none;stroke:#231f20;stroke-width:8.6;stroke-linecap:butt;stroke-linejoin:miter;stroke-miterlimit:11.4737;stroke-dasharray:none;stroke-opacity:1"
         id="path16" /><path
         d="m 1281.3,404.602 h 56.1 V 177.801 h -56.1 z"
         style="fill:none;stroke:#231f20;stroke-width:14.4;stroke-linecap:butt;stroke-linejoin:miter;stroke-miterlimit:11.4737;stroke-dasharray:none;stroke-opacity:1"
         id="path18" /><path
         d="m 212.238,306.793 -7.199,-7.918 h -1.441 l 5.761,16.559 h 39.594 l -28.074,-41.036 v 0 l -8.641,-12.957 h 17.996 c 2.883,0 5.039,0 6.481,0.719 0.719,0 2.879,0.719 3.598,1.438 0.722,0.722 1.441,1.441 1.441,2.16 0.719,0.722 1.441,1.441 2.879,2.883 l 5.762,7.918 h 1.437 L 246.074,260 h -41.035 v 0 h -4.32 l 28.797,40.313 v 0 l 9.359,12.96 h -17.277 c -1.442,0 -2.879,-0.722 -4.321,-1.441 -1.441,-0.719 -2.879,-2.16 -3.597,-2.879 -0.723,-0.719 -0.723,-0.719 -0.723,-1.441 0,0 -0.719,0 -0.719,-0.719"
         style="fill:#231f20;fill-opacity:1;fill-rule:evenodd;stroke:none"
         id="path20" /><path
         d="m 955.836,301.988 c 0,3.602 -1.438,6.481 -2.156,6.481 -1.442,1.441 -4.321,2.16 -6.481,2.16 v 2.879 h 35.274 c 0,0 0.722,0 1.441,0 0,0 0.719,-0.719 1.441,-0.719 6.477,0 12.958,-2.16 17.995,-5.758 5.76,-4.32 8.64,-9.359 8.64,-16.558 0,-7.2 -2.16,-12.239 -5.76,-15.118 -3.6,-3.601 -7.917,-5.761 -13.679,-7.921 1.441,-1.438 3.601,-2.879 5.762,-5.758 1.437,-2.16 3.597,-5.039 5.757,-7.199 0.72,-0.719 1.44,-2.161 1.44,-2.879 0.72,-0.719 1.44,-1.442 2.16,-2.879 0,0 0.72,-0.723 1.44,-1.442 0,0 0.72,-0.718 0.72,-1.441 0.72,-1.438 2.16,-2.879 2.88,-4.316 0,-1.442 1.44,-2.879 2.16,-3.602 0.72,-1.438 2.16,-2.879 3.6,-4.32 0.72,-0.719 2.88,-1.438 5.76,-1.438 h 0.72 c 0,0 0.72,0.719 1.44,0.719 V 230 h -21.6 c -0.72,1.441 -2.16,3.598 -2.88,5.758 -0.72,1.441 -2.16,3.601 -3.597,5.039 0,0.723 -0.719,1.441 -1.442,2.16 -0.719,0.723 -1.437,1.441 -1.437,2.16 -0.723,1.442 -2.161,2.879 -2.883,4.321 -1.438,1.441 -2.879,3.597 -3.598,5.039 -1.441,1.441 -2.16,2.16 -2.879,3.597 -0.719,0.723 -2.16,2.16 -2.879,2.883 -1.441,1.438 -3.601,2.879 -5.761,3.598 -2.161,0.718 -5.758,1.441 -9.36,2.16 v -25.918 c 0,-4.317 0.723,-6.477 2.16,-7.199 1.442,-0.719 5.039,-0.719 9.36,-0.719 V 230 h -32.395 v 2.879 c 0,0 0.719,-0.719 1.442,-0.719 h 0.718 c 2.879,0 5.039,0.719 5.039,2.16 0.719,1.438 1.438,3.598 1.438,5.758 v 0.719 c 0,0.723 0,0.723 0,0.723 z m 12.238,-32.394 c 0.723,0 0.723,0 1.442,0 0.718,0 1.441,-0.719 2.16,-0.719 h 0.719 c 0.722,0 1.441,0 1.441,0 0.719,0 0.719,0 1.437,0 0,0 0.723,0.719 1.442,0.719 5.039,0 10.078,1.441 14.398,4.32 4.321,2.16 7.2,7.199 7.2,14.399 0,0.718 0,1.437 0,2.16 0,0.718 0,0.718 0,1.437 -0.719,4.32 -2.879,8.641 -5.04,12.238 -2.878,3.602 -8.64,5.762 -16.558,6.481 -2.16,0 -5.039,-0.719 -6.481,-1.441 -1.437,-0.719 -2.16,-3.598 -2.16,-7.2 v -32.394"
         style="fill:#231f20;fill-opacity:1;fill-rule:evenodd;stroke:none"
         id="path22" /><path
         d="m 1077.5,251.598 h 53.27 v -7.2 h -53.27 z m 0,15.836 h 53.27 v -6.477 h -53.27 v 6.477"
         style="fill:#231f20;fill-opacity:1;fill-rule:evenodd;stroke:none"
         id="path24" /><path
         d="m 1190.52,234.32 c 0,1.438 0.73,3.598 2.16,4.321 1.45,1.437 3.61,2.156 5.77,2.156 2.16,0 3.59,-0.719 4.31,-1.438 1.44,-0.718 2.16,-2.16 2.16,-3.601 v -0.719 -0.719 c 0,-0.722 0,-1.441 0,-1.441 0,0 0,-0.719 0,-1.438 -0.72,-1.441 -1.44,-1.441 -2.88,-2.16 -0.72,-1.441 -2.88,-2.16 -4.32,-2.16 H 1197 c -0.71,0 -0.71,0.719 -0.71,0.719 -1.45,0 -2.88,0.719 -3.61,2.16 -1.43,0 -2.16,2.16 -2.16,4.32 z m 5.05,44.633 c 4.31,0 7.19,0 7.19,0 0,0 1.44,0 4.32,0.719 2.88,0.723 5.76,1.441 7.2,2.879 1.44,0.722 2.16,2.16 2.88,3.601 0.72,1.442 1.44,2.879 1.44,5.039 v 0 0 c 0,2.161 -1.44,3.602 -2.16,5.039 0,1.442 -2.16,2.879 -3.6,3.602 -0.72,0.719 -2.16,1.438 -3.6,1.438 -1.44,0 -2.16,0.718 -3.6,0.718 -1.44,0 -2.88,0.723 -3.6,0.723 -1.43,0 -2.88,0 -3.59,0 v 0 0 h -0.73 c -1.43,0 -2.15,0.719 -2.88,1.437 -0.71,1.442 -1.43,2.161 -1.43,3.602 v 0 0.719 c 0,0.719 0.72,2.16 1.43,3.601 0.73,0.719 2.88,1.438 5.04,1.438 0,0 0.73,0 1.44,0 0.72,0 1.44,0 2.16,0 5.04,-1.438 10.08,-5.039 12.96,-8.637 3.6,-5.039 5.76,-10.078 5.76,-15.84 0,-5.039 -1.44,-9.359 -5.04,-12.957 -2.88,-3.601 -8.64,-5.761 -16.55,-5.761 l -1.45,-20.157 h -2.87 l -0.72,28.797"
         style="fill:#231f20;fill-opacity:1;fill-rule:evenodd;stroke:none"
         id="path26" /><path
         d="M 147.301,1218.9 V 1027.4"
         style="fill:none;stroke:#231f20;stroke-width:5.8;stroke-linecap:butt;stroke-linejoin:miter;stroke-miterlimit:11.4737;stroke-dasharray:none;stroke-opacity:1"
         id="path28" /><path
         d="m 147.301,1254.2 20.097,-80 c -13.597,11.6 -26.597,11.6 -40.296,0 l 20.199,80"
         style="fill:#231f20;fill-opacity:1;fill-rule:evenodd;stroke:none"
         id="path30" /><path
         d="M 1302.2,630.602 H 1110.6"
         style="fill:none;stroke:#231f20;stroke-width:5.8;stroke-linecap:butt;stroke-linejoin:miter;stroke-miterlimit:11.4737;stroke-dasharray:none;stroke-opacity:1"
         id="path32" /><path
         d="m 1337.4,630.602 -79.9,-20.801 c 11.5,13.601 11.5,28 0,41.699 l 79.9,-20.898"
         style="fill:#231f20;fill-opacity:1;fill-rule:evenodd;stroke:none"
         id="path34" /><path
         d="M 204.199,1254.2 V 686.801 H 1337.4 V 1254.2"
         style="fill:none;stroke:#231f20;stroke-width:8.6;stroke-linecap:butt;stroke-linejoin:miter;stroke-miterlimit:11.4737;stroke-dasharray:none;stroke-opacity:1"
         id="path36" /><path
         d="m 110.395,1126.07 c 0,2.88 -1.442,5.04 -2.883,5.76 -2.157,0.72 -4.317,1.44 -5.758,1.44 v 2.16 h 17.277 v -2.16 c -2.16,0 -4.32,-0.72 -5.039,-1.44 -0.719,-0.72 -1.441,-2.88 -2.16,-5.76 v -30.23 c 0,-6.48 -1.437,-11.52 -5.039,-14.4 -3.598,-1.44 -7.918,-3.6 -13.6758,-3.6 -8.6406,0 -14.3984,1.44 -16.5586,3.6 -3.6016,3.6 -5.0391,7.2 -5.7617,10.8 0,0.72 0,1.44 0,2.88 0,0.72 -0.7188,1.44 -0.7188,2.16 v 28.79 c 0,0.72 0,0.72 0,0.72 0,0.72 0,0.72 0,0.72 0,0.72 0,0.72 0,0.72 0,0.72 0,0.72 0,0.72 0,1.44 0,2.16 -0.7187,2.88 -0.7188,0.72 -2.1602,1.44 -5.0391,1.44 v 2.16 h 20.875 v -2.16 h -0.7187 v 0 c -2.8789,0 -5.0391,-0.72 -5.0391,-2.16 -0.7187,-2.16 -0.7187,-5.04 -0.7187,-7.91 v -25.92 c 0,-6.48 0.7187,-10.8 3.5976,-13.68 2.1602,-2.16 5.7578,-3.6 10.8008,-3.6 0.7187,0 2.1562,0 2.8789,0 1.4375,0 3.5977,0 5.0389,0.72 2.16,0.72 4.32,2.16 6.477,4.32 1.441,2.88 2.883,6.48 2.883,11.52 v 29.51"
         style="fill:#231f20;fill-opacity:1;fill-rule:evenodd;stroke:none"
         id="path38" /><path
         d="m 1197.92,570.234 v 14.399 c 0,2.16 -0.72,4.32 -0.72,4.32 -0.72,0.719 -2.16,1.442 -4.32,2.16 v 0.719 l 11.52,3.602 v -41.036 0 -7.918 c 0,-1.441 0,-2.882 0,-3.601 0.72,-0.719 1.44,-1.438 2.88,-1.438 0.72,0 0.72,0 0.72,0 0.72,0 0.72,0 0.72,0 V 540 h -15.84 v 1.441 c 2.16,0 3.6,0 4.32,0.719 0,0.719 0.72,2.16 0.72,4.32 v 23.754"
         style="fill:#231f20;fill-opacity:1;fill-rule:evenodd;stroke:none"
         id="path40" /><path
         d="m 172.16,625.195 c 0,7.922 1.438,14.399 4.32,19.438 2.879,4.32 6.477,7.918 10.079,8.64 0.718,0 1.437,0.719 1.437,0.719 0.723,0 1.442,0 1.442,0 4.32,0 7.917,-1.441 10.078,-5.039 2.879,-3.598 5.039,-7.199 6.48,-11.519 0,-1.438 0.719,-3.598 0.719,-5.758 0.719,-1.442 0.719,-3.602 0.719,-5.039 0,-7.199 -1.438,-12.957 -2.879,-16.559 -2.16,-4.32 -4.321,-7.199 -6.481,-8.637 C 196.637,600 195.195,600 193.758,600 c -1.442,-0.719 -2.879,-0.719 -3.602,-0.719 -5.039,0 -9.359,1.438 -12.238,5.758 -3.598,5.039 -5.758,11.52 -5.758,20.156 z m 28.074,1.442 c 0,1.437 0,2.16 0,2.16 0,0 -0.718,0.719 -0.718,2.879 0,1.441 0,3.597 -0.719,5.039 -0.723,3.598 -1.442,7.199 -2.879,10.797 -1.441,2.883 -3.602,4.32 -5.762,4.32 v 0 0 h -0.718 c -2.161,0 -4.321,-1.437 -5.758,-4.32 -1.442,-2.879 -2.883,-6.477 -2.883,-10.078 -0.719,-1.438 -0.719,-4.317 -0.719,-6.477 0,-2.16 -0.719,-3.602 -0.719,-5.039 0,-9.359 1.438,-16.559 3.598,-20.16 2.16,-3.598 4.32,-5.758 7.199,-5.758 2.879,0 5.762,2.879 7.199,7.199 1.442,5.039 2.161,10.797 2.161,16.559 0,0.719 0.718,0.719 0.718,1.437 0,0.723 0,0.723 0,1.442"
         style="fill:#231f20;fill-opacity:1;fill-rule:evenodd;stroke:none"
         id="path42" /><path
         d="M 734.801,1197.3 H 238.699"
         style="fill:none;stroke:#231f20;stroke-width:5.8;stroke-linecap:butt;stroke-linejoin:miter;stroke-miterlimit:11.4737;stroke-dasharray:none;stroke-opacity:1"
         id="path44" /><path
         d="m 770.102,1197.3 -79.903,-20.9 c 11.5,13.7 11.5,28.1 0,41.8 l 79.903,-20.9"
         style="fill:#231f20;fill-opacity:1;fill-rule:evenodd;stroke:none"
         id="path46" /><path
         d="m 202.699,1197.3 81.403,-20.9 c -11.5,13.7 -11.5,28.1 0,41.8 l -81.403,-20.9"
         style="fill:#231f20;fill-opacity:1;fill-rule:evenodd;stroke:none"
         id="path48" /><path
         d="M 1302.2,1197.3 H 806.102"
         style="fill:none;stroke:#231f20;stroke-width:5.8;stroke-linecap:butt;stroke-linejoin:miter;stroke-miterlimit:11.4737;stroke-dasharray:none;stroke-opacity:1"
         id="path50" /><path
         d="m 1337.4,1197.3 -79.9,-20.9 c 11.5,13.7 11.5,28.1 0,41.8 l 79.9,-20.9"
         style="fill:#231f20;fill-opacity:1;fill-rule:evenodd;stroke:none"
         id="path52" /><path
         d="m 770.102,1197.3 81.296,-20.9 c -11.5,13.7 -11.5,28.1 0,41.8 l -81.296,-20.9"
         style="fill:#231f20;fill-opacity:1;fill-rule:evenodd;stroke:none"
         id="path54" /><g
         id="g56"
         transform="scale(10)"><text
           transform="matrix(1,0,0,-1,99.0969,122)"
           style="font-variant:normal;font-weight:normal;font-size:7.99089px;font-family:Symbol;-inkscape-font-specification:Symbol;writing-mode:lr-tb;fill:#231f20;fill-opacity:1;fill-rule:nonzero;stroke:none"
           id="text60"><tspan
             x="0 5.1832023 7.9187441 -56.999966 -51.816765 -49.081215"
             y="0"
             id="tspan58">λ/2λ/2</tspan></text></g><path
         d="M 770.801,1226.1 V 801.301"
         style="fill:none;stroke:#231f20;stroke-width:2.9;stroke-linecap:butt;stroke-linejoin:miter;stroke-miterlimit:11.4737;stroke-dasharray:none;stroke-opacity:1"
         id="path62" /><path
         d="m 1338.2,771 c -77.8,0 -141.2,79.199 -141.9,172.801 0,94.399 -63.3,170.699 -141.1,170.699 -77.802,0 -141.802,-75.6 -141.802,-169.898 0,-94.403 -64.097,-172.801 -141.898,-172.801 -77.699,0 -141.801,78.398 -141.801,172.801 0,94.298 -64.801,169.198 -142.597,169.198 -77.704,0 -140.403,-74.9 -141.102,-170.698 -0.699,-95 -64.102,-171.301 -141.801,-171.301"
         style="fill:none;stroke:#231f20;stroke-width:14.4;stroke-linecap:butt;stroke-linejoin:miter;stroke-miterlimit:11.4737;stroke-dasharray:none;stroke-opacity:1"
         id="path64" /><path
         d="m 340.957,1168.8 c 0,1.43 -0.723,2.88 -1.441,3.59 -1.442,0 -2.879,0.73 -3.598,0.73 v 1.43 h 10.797 v -1.43 c -1.442,0 -2.879,-0.73 -2.879,-0.73 -0.719,-0.71 -1.441,-2.16 -1.441,-3.59 v -18.72 c 0,-4.32 -1.438,-7.92 -3.598,-9.36 -2.16,-0.72 -5.039,-2.16 -8.641,-2.16 -5.039,0 -8.636,1.44 -10.078,2.16 -2.16,2.16 -2.879,4.32 -3.598,6.48 0,0.72 0,1.44 0,2.16 0,0 0,0.72 0,1.44 v 18 0 c 0,0.72 0,0.72 0,0.72 v 0.71 0 c 0,0.73 -0.722,1.45 -0.722,2.16 -0.719,0 -1.438,0.73 -2.879,0.73 v 1.43 h 12.957 v -1.43 h -0.719 v 0 c -2.16,0 -2.879,-0.73 -3.597,-1.44 0,-1.45 0,-2.88 0,-5.04 v -15.84 c 0,-4.32 0.718,-7.2 2.16,-8.64 1.437,-1.44 3.597,-2.16 6.476,-2.16 0.723,0 1.442,0 2.16,0 0.719,0 2.161,0 2.879,0 1.442,0.72 2.879,1.44 4.321,2.88 0.718,1.44 1.441,4.32 1.441,7.2 v 18.72"
         style="fill:#231f20;fill-opacity:1;fill-rule:evenodd;stroke:none"
         id="path66" /><path
         d="m 356.074,1150.8 v 5.04 0.72 0 c 0,0.72 0,1.44 -0.719,1.44 0,0.72 -0.722,0.72 -1.441,0.72 v 0.72 l 0.719,0.72 c 0.722,0 0.722,0 1.441,0 h 0.719 c 0,0.72 0.719,0.72 0.719,0.72 0.722,0 1.441,0 1.441,0.72 0.719,0 0.719,0 1.442,0 v -3.6 c 0.718,1.44 1.437,2.16 2.878,2.88 0.719,0 2.161,0.72 2.879,0.72 h 0.719 0.723 c 1.437,0 2.879,0 3.597,-0.72 1.442,-0.72 2.161,-2.16 2.161,-3.6 h 0.718 c 0,0.72 0,0.72 0,0.72 0.723,0.72 2.16,2.16 2.879,2.16 0.723,0.72 2.883,1.44 4.321,1.44 1.441,0 3.601,-0.72 5.039,-2.16 0.722,-1.44 1.441,-3.6 2.16,-5.76 v -9.36 c 0,-1.44 0,-2.88 0,-2.88 0.719,0 1.441,-0.72 2.879,-0.72 V 1140 H 381.27 v 0.72 c 1.441,0 2.878,0.72 2.878,0.72 0,0 0,0.72 0,2.16 v 0 0.72 10.08 c 0,1.44 0,2.88 -1.437,3.6 -0.723,0.72 -2.16,1.44 -2.879,1.44 -1.441,0 -2.883,-0.72 -3.602,-1.44 -1.437,-0.72 -1.437,-2.16 -1.437,-3.6 v -10.8 c 0,-0.72 0,-1.44 0,-2.16 0,0 0.719,-0.72 1.437,-0.72 h 0.719 c 0,0 0,0 0.723,0 V 1140 h -10.078 v 0.72 c 1.437,0 2.156,0.72 2.156,0.72 0.723,0.72 0.723,1.44 0.723,2.16 v 0 0.72 8.64 c 0,0.72 0,0.72 0,0.72 v 0.72 c 0,1.44 -0.723,2.88 -1.442,3.6 -0.718,0.72 -2.16,1.44 -2.879,1.44 -0.718,0 -0.718,0 -0.718,0 h -0.723 c -0.719,0 -1.438,-0.72 -2.16,-0.72 -0.719,-0.72 -1.438,-1.44 -2.156,-2.88 v -11.52 c 0,-1.44 0,-2.88 0.718,-2.88 0,0 0.719,-0.72 1.438,-0.72 v 0 h 0.722 V 1140 h -9.359 v 0.72 c 0.719,0 1.441,0 2.16,0.72 0,0 0,0.72 0,1.44 v 0 0.72 7.2"
         style="fill:#231f20;fill-opacity:1;fill-rule:evenodd;stroke:none"
         id="path68" /><path
         d="m 408.625,1152.24 v 5.76 c 0,0.72 0,1.44 -0.719,1.44 0,0 -0.718,0.72 -1.441,0.72 h -0.719 v 0 c -0.719,0 -1.437,-0.72 -2.16,-0.72 0,0 -0.719,-0.72 -1.438,-0.72 v 0 c 0,-0.72 0,-0.72 0,-0.72 v -0.72 c 0,0 0,0 0,-0.72 0,-0.72 -0.722,-2.16 -0.722,-2.16 -0.719,-0.72 -0.719,-0.72 -1.438,-0.72 h -0.718 v -0.72 c -0.723,0 -0.723,0.72 -1.442,0.72 v 0.72 0.72 0 c 0,1.44 0.719,2.16 1.442,3.6 1.437,0.72 2.878,1.44 4.316,2.16 0.723,0 1.441,0 2.16,0 0.719,0.72 1.442,0.72 2.16,0.72 1.442,0 2.879,-0.72 3.602,-1.44 0.719,-0.72 1.437,-2.16 1.437,-3.6 v -12.96 c 0,-0.72 0,-1.44 0,-2.16 0.719,0 0.719,0 0.719,0 v 0 h 0.723 c 0,0 0,0 0.718,0.72 v 0.72 h 1.442 c 0,-0.72 -0.723,-2.16 -0.723,-2.88 -0.719,0 -1.437,0 -2.16,0 l -0.719,-0.72 v 0 c -0.718,0 -2.16,0.72 -2.16,0.72 -0.719,0 -1.437,1.44 -2.16,2.16 v 0 0 c 0,-0.72 -0.719,-0.72 -1.437,-1.44 -0.723,0 -1.442,-0.72 -2.161,-0.72 h -0.718 c -0.723,0 -1.442,0 -1.442,0 v 0 h -0.719 -0.722 c -0.719,0 -0.719,0 -1.438,0 0,0 -0.718,0 -1.441,0.72 0,0.72 -0.719,1.44 -0.719,2.88 v 0 0 0 c 0,1.44 0.719,2.88 2.16,4.32 1.438,0.72 2.879,2.16 4.321,2.88 1.437,0 2.156,0.72 2.879,0.72 0.718,0 1.437,0.72 1.437,0.72 z m 0,-1.44 c -2.16,-0.72 -4.316,-1.44 -5.758,-2.88 -1.441,-0.72 -2.16,-1.44 -2.16,-2.88 v -0.72 0 h 0.719 c 0,-0.72 0,-0.72 0,-0.72 0.722,-0.72 0.722,-1.44 1.441,-1.44 0.719,0 1.442,0 2.16,0 v 0 0 c 0.719,0 1.438,0 2.161,0 0.718,0.72 1.437,0.72 1.437,1.44 v 7.2"
         style="fill:#231f20;fill-opacity:1;fill-rule:evenodd;stroke:none"
         id="path70" /><path
         d="m 431.664,1150.08 -6.48,8.64 v 0 l -0.719,0.72 c -0.719,0 -1.442,0.72 -2.16,0.72 v 0.72 h 10.078 v -0.72 c -0.719,0 -1.442,-0.72 -1.442,-0.72 -0.718,0 -0.718,0 -0.718,0 v -0.72 c 0,0 0,-0.72 0.718,-0.72 l 2.883,-5.76 4.317,5.04 c 0,0 0,0 0,0.72 h 0.722 v 0.72 l -0.722,0.72 c -0.719,0 -1.438,0.72 -2.879,0.72 v 0.72 h 10.078 v -0.72 c -0.719,0 -1.438,-0.72 -2.16,-0.72 -0.719,0 -0.719,0 -1.438,0 l -0.719,-0.72 c 0,0 0,-0.72 -0.722,-0.72 l -5.758,-6.48 7.199,-7.92 c 0,-0.72 0.719,-0.72 0.719,-0.72 0,-0.72 0.719,-0.72 0.719,-1.44 0,0 0.722,0 1.441,0 0,-0.72 0.719,-0.72 1.442,-0.72 V 1140 h -12.239 v 0.72 h 0.719 v 0 c 0.719,0 1.441,0 2.16,0 0.719,0 0.719,0.72 0.719,0.72 0,0.72 0,0.72 0,1.44 -0.719,0 -0.719,0.72 -1.438,1.44 l -3.601,4.32 -4.32,-5.76 -0.719,-0.72 c 0,0 0,0 0,-0.72 0,0 0,0 0.719,0 0.722,-0.72 1.441,-0.72 2.16,-0.72 v 0 c 0.718,0 0.718,0 0.718,0 V 1140 h -9.355 v 0.72 h 0.719 c 0.718,0 0.718,0 1.441,0 l 0.719,0.72 c 0.719,0 1.437,0.72 1.437,0.72 l 5.762,7.92"
         style="fill:#231f20;fill-opacity:1;fill-rule:evenodd;stroke:none"
         id="path72" /><path
         d="m 740.957,738.797 c 0,1.437 -0.723,2.879 -1.441,3.598 -1.442,0 -2.879,0.722 -3.598,0.722 v 1.438 h 10.797 v -1.438 c -1.442,0 -2.879,-0.722 -2.879,-0.722 -0.719,-0.719 -1.441,-2.161 -1.441,-3.598 v -18.719 c 0,-4.32 -1.438,-7.918 -3.598,-9.359 -2.16,-0.719 -5.039,-2.16 -8.641,-2.16 -5.039,0 -8.636,1.441 -10.078,2.16 -2.16,2.16 -2.879,4.32 -3.598,6.48 0,0.719 0,1.442 0,2.16 0,0 0,0.719 0,1.438 v 18 0 c 0,0.719 0,0.719 0,0.719 v 0.718 0 c 0,0.723 -0.722,1.442 -0.722,2.161 -0.719,0 -1.438,0.722 -2.879,0.722 v 1.438 h 12.957 v -1.438 h -0.719 v 0 c -2.16,0 -2.879,-0.722 -3.597,-1.441 0,-1.442 0,-2.879 0,-5.039 v -15.84 c 0,-4.317 0.718,-7.199 2.16,-8.637 1.437,-1.441 3.597,-2.16 6.476,-2.16 0.723,0 1.442,0 2.16,0 0.719,0 2.161,0 2.879,0 1.442,0.719 2.879,1.441 4.321,2.879 0.718,1.441 1.441,4.32 1.441,7.199 v 18.719"
         style="fill:#231f20;fill-opacity:1;fill-rule:evenodd;stroke:none"
         id="path74" /><path
         d="m 756.074,720.797 v 5.039 0.723 0 c 0,0.718 0,1.437 -0.719,1.437 0,0.723 -0.722,0.723 -1.441,0.723 v 0.719 l 0.719,0.718 c 0.722,0 0.722,0 1.441,0 h 0.719 c 0,0.723 0.719,0.723 0.719,0.723 0.722,0 1.441,0 1.441,0.719 0.719,0 0.719,0 1.442,0 v -3.602 c 0.718,1.442 1.437,2.16 2.878,2.883 0.719,0 2.161,0.719 2.879,0.719 h 0.719 0.723 c 1.437,0 2.879,0 3.597,-0.719 1.442,-0.723 2.161,-2.16 2.161,-3.602 h 0.718 c 0,0.719 0,0.719 0,0.719 0.723,0.723 2.16,2.16 2.879,2.16 0.723,0.723 2.883,1.442 4.321,1.442 1.441,0 3.601,-0.719 5.039,-2.16 0.722,-1.442 1.441,-3.602 2.16,-5.758 v -9.36 c 0,-1.441 0,-2.879 0,-2.879 0.719,0 1.441,-0.722 2.879,-0.722 V 710 H 781.27 v 0.719 c 1.441,0 2.878,0.722 2.878,0.722 0,0 0,0.719 0,2.157 v 0 0.722 10.078 c 0,1.438 0,2.879 -1.437,3.598 -0.723,0.723 -2.16,1.442 -2.879,1.442 -1.441,0 -2.883,-0.719 -3.602,-1.442 -1.437,-0.719 -1.437,-2.16 -1.437,-3.598 v -10.8 c 0,-0.719 0,-1.438 0,-2.157 0,0 0.719,-0.722 1.437,-0.722 h 0.719 c 0,0 0,0 0.723,0 V 710 h -10.078 v 0.719 c 1.437,0 2.156,0.722 2.156,0.722 0.723,0.719 0.723,1.438 0.723,2.157 v 0 0.722 8.637 c 0,0.723 0,0.723 0,0.723 v 0.718 c 0,1.438 -0.723,2.879 -1.442,3.598 -0.718,0.723 -2.16,1.442 -2.879,1.442 -0.718,0 -0.718,0 -0.718,0 h -0.723 c -0.719,0 -1.438,-0.719 -2.16,-0.719 -0.719,-0.723 -1.438,-1.442 -2.156,-2.883 V 714.32 c 0,-1.441 0,-2.879 0.718,-2.879 0,0 0.719,-0.722 1.438,-0.722 v 0 h 0.722 V 710 h -9.359 v 0.719 c 0.719,0 1.441,0 2.16,0.722 0,0 0,0.719 0,1.438 v 0 0.719 7.199"
         style="fill:#231f20;fill-opacity:1;fill-rule:evenodd;stroke:none"
         id="path76" /><path
         d="m 800.707,720.078 v 5.758 c 0,0.723 0,1.441 0,2.16 -0.719,0 -1.437,0.723 -2.16,0.723 v 0.719 c 0,0 0.723,0 1.441,0 0.719,0 0.719,0.718 1.438,0.718 0.722,0.723 1.441,0.723 1.441,0.723 0.719,0.719 1.442,0.719 2.16,0.719 v -18 c 0,-0.719 0,-1.438 0,-2.157 0.719,0 1.438,-0.722 2.879,-0.722 V 710 h -10.078 v 0.719 c 1.442,0 2.879,0.722 2.879,0.722 0,0 0,0.719 0,1.438 z m 2.16,25.195 c 0.719,0 1.442,-0.718 1.442,-0.718 0.718,-0.719 0.718,-1.438 0.718,-2.16 0,-0.719 0,-1.438 -0.718,-2.161 0,-0.718 -0.723,-0.718 -1.442,-0.718 -0.719,0 -2.16,0 -2.16,0.718 -0.719,0.723 -0.719,1.442 -0.719,2.161 0,0.722 0,1.441 0.719,1.441 0,0.719 1.441,1.437 2.16,1.437"
         style="fill:#231f20;fill-opacity:1;fill-rule:evenodd;stroke:none"
         id="path78" /><path
         d="m 817.984,720.797 v 5.762 c 0,0.718 0,1.437 -0.718,1.437 -0.719,0 -1.442,0.723 -1.442,0.723 v 0.719 c 0,0 0.723,0 1.442,0.718 0.718,0 1.437,0 2.16,0.723 v 0 c 0.719,0 0.719,0 0.719,0 0,0 0.718,0.719 1.441,0.719 h 0.719 v -3.602 c 0.718,1.442 2.16,2.16 2.879,2.883 1.441,0.719 2.16,0.719 3.601,0.719 2.879,0 4.317,-0.719 5.758,-2.16 1.441,-1.442 2.16,-2.879 2.16,-5.04 v 0 0 -0.718 0 -10.082 c 0,-0.719 0,-2.157 0,-2.157 0.719,0 1.438,-0.722 2.879,-0.722 V 710 h -10.078 v 0.719 c 0.719,0 1.437,0 2.16,0.722 0.719,0 0.719,0.719 0.719,2.157 v 10.8 c 0,1.438 -0.719,2.879 -1.442,3.598 -0.718,1.442 -2.156,1.442 -2.878,1.442 h -0.719 v 0 c -1.442,0 -2.879,-0.719 -3.598,-1.442 -1.441,-0.719 -2.16,-2.16 -2.16,-3.598 v -11.519 c 0,-0.719 0.719,-1.438 1.437,-1.438 0,-0.722 1.442,-0.722 2.161,-0.722 v 0 0 V 710 h -10.079 v 0.719 c 1.442,0 2.161,0 2.161,0.722 0.718,0 0.718,0.719 0.718,2.157 v 7.199"
         style="fill:#231f20;fill-opacity:1;fill-rule:evenodd;stroke:none"
         id="path80" /></g></g></svg>
