<?xml version="1.0" encoding="UTF-8" standalone="no"?>
<!-- Created with Inkscape (http://www.inkscape.org/) -->

<svg
   version="1.1"
   id="svg2"
   xml:space="preserve"
   width="214.66667"
   height="137.33333"
   viewBox="0 0 214.66667 137.33333"
   xmlns="http://www.w3.org/2000/svg"
   xmlns:svg="http://www.w3.org/2000/svg"><defs
     id="defs6" /><g
     id="g8"
     transform="matrix(1.3333333,0,0,-1.3333333,0,137.33333)"><g
       id="g10"
       transform="scale(0.1)"><path
         d="M 1515.2,214.102 H 96.8008 V 780 H 1515.2 Z"
         style="fill:none;stroke:#231f20;stroke-width:11.5;stroke-linecap:butt;stroke-linejoin:miter;stroke-miterlimit:11.4737;stroke-dasharray:none;stroke-opacity:1"
         id="path12" /><path
         d="m 1034.2,497.801 c -0.7,30.898 -25.9,56.101 -56.802,56.101 -30.996,0 -56.199,-24.504 -56.898,-56.101"
         style="fill:none;stroke:#231f20;stroke-width:14.4;stroke-linecap:butt;stroke-linejoin:miter;stroke-miterlimit:11.4737;stroke-dasharray:none;stroke-opacity:1"
         id="path14" /><path
         d="m 920.5,498.5 c -0.699,30.898 -25.898,56.102 -56.898,56.102 -31,0 -56.204,-24.403 -56.903,-56.102"
         style="fill:none;stroke:#231f20;stroke-width:14.4;stroke-linecap:butt;stroke-linejoin:miter;stroke-miterlimit:11.4737;stroke-dasharray:none;stroke-opacity:1"
         id="path16" /><path
         d="m 807.398,498.5 c -0.699,30.898 -25.898,56.102 -56.796,56.102 -31,0 -56.204,-24.403 -56.903,-56.102"
         style="fill:none;stroke:#231f20;stroke-width:14.4;stroke-linecap:butt;stroke-linejoin:miter;stroke-miterlimit:11.4737;stroke-dasharray:none;stroke-opacity:1"
         id="path18" /><path
         d="m 693.699,498.5 c -0.699,30.898 -25.898,56.102 -56.898,56.102 -31,0 -56.199,-24.403 -56.903,-56.102"
         style="fill:none;stroke:#231f20;stroke-width:14.4;stroke-linecap:butt;stroke-linejoin:miter;stroke-miterlimit:11.4737;stroke-dasharray:none;stroke-opacity:1"
         id="path20" /><path
         d="m 1033.5,497.801 h 283"
         style="fill:none;stroke:#231f20;stroke-width:8.6;stroke-linecap:round;stroke-linejoin:miter;stroke-miterlimit:11.4737;stroke-dasharray:none;stroke-opacity:1"
         id="path22" /><path
         d="m 296.199,497.801 h 283"
         style="fill:none;stroke:#231f20;stroke-width:8.6;stroke-linecap:round;stroke-linejoin:miter;stroke-miterlimit:11.4737;stroke-dasharray:none;stroke-opacity:1"
         id="path24" /><path
         d="M 579.199,383.301 1020.6,638.199"
         style="fill:none;stroke:#231f20;stroke-width:11.5;stroke-linecap:butt;stroke-linejoin:miter;stroke-miterlimit:11.4737;stroke-dasharray:none;stroke-opacity:1"
         id="path26" /><path
         d="m 1006.9,660.5 27.3,-44.699"
         style="fill:none;stroke:#231f20;stroke-width:10.1;stroke-linecap:butt;stroke-linejoin:miter;stroke-miterlimit:11.4737;stroke-dasharray:none;stroke-opacity:1"
         id="path28" /></g></g></svg>
