<?xml version="1.0" encoding="UTF-8" standalone="no"?>
<!-- Created with Inkscape (http://www.inkscape.org/) -->

<svg
   version="1.1"
   id="svg2"
   xml:space="preserve"
   width="460"
   height="101.33333"
   viewBox="0 0 460 101.33333"
   xmlns="http://www.w3.org/2000/svg"
   xmlns:svg="http://www.w3.org/2000/svg"><defs
     id="defs6" /><g
     id="g8"
     transform="matrix(1.3333333,0,0,-1.3333333,0,101.33333)"><g
       id="g10"
       transform="scale(0.1)"><path
         d="M 168.102,660.699 H 3285 V 93.4023 H 168.102 Z"
         style="fill:none;stroke:#231f20;stroke-width:11.5;stroke-linecap:butt;stroke-linejoin:miter;stroke-miterlimit:11.4737;stroke-dasharray:none;stroke-opacity:1"
         id="path12" /><path
         d="M 536.699,518.199 H 1103.4 v -283 H 536.699 Z"
         style="fill:none;stroke:#231f20;stroke-width:14.4;stroke-linecap:butt;stroke-linejoin:miter;stroke-miterlimit:11.4737;stroke-dasharray:none;stroke-opacity:1"
         id="path14" /><path
         d="m 1443.9,518.199 h 566.7 v -283 h -566.7 z"
         style="fill:none;stroke:#231f20;stroke-width:14.4;stroke-linecap:butt;stroke-linejoin:miter;stroke-miterlimit:11.4737;stroke-dasharray:none;stroke-opacity:1"
         id="path16" /><path
         d="m 2351.1,518.199 h 566.7 v -283 h -566.7 z"
         style="fill:none;stroke:#231f20;stroke-width:14.4;stroke-linecap:butt;stroke-linejoin:miter;stroke-miterlimit:11.4737;stroke-dasharray:none;stroke-opacity:1"
         id="path18" /><path
         d="m 1103.4,377 h 305.2"
         style="fill:none;stroke:#231f20;stroke-width:8.6;stroke-linecap:butt;stroke-linejoin:miter;stroke-miterlimit:11.4737;stroke-dasharray:none;stroke-opacity:1"
         id="path20" /><path
         d="m 1443.9,377 -79.9,20.199 c 11.5,-13.699 11.5,-26.597 0,-40.301 L 1443.9,377"
         style="fill:#231f20;fill-opacity:1;fill-rule:evenodd;stroke:none"
         id="path22" /><path
         d="m 309.898,377 h 181.5"
         style="fill:none;stroke:#231f20;stroke-width:8.6;stroke-linecap:butt;stroke-linejoin:miter;stroke-miterlimit:11.4737;stroke-dasharray:none;stroke-opacity:1"
         id="path24" /><path
         d="m 526.602,377 -79.903,20.199 c 11.5,-13.699 11.5,-26.597 0,-40.301 L 526.602,377"
         style="fill:#231f20;fill-opacity:1;fill-rule:evenodd;stroke:none"
         id="path26" /><path
         d="m 2927.8,377 h 181.5"
         style="fill:none;stroke:#231f20;stroke-width:8.6;stroke-linecap:butt;stroke-linejoin:miter;stroke-miterlimit:11.4737;stroke-dasharray:none;stroke-opacity:1"
         id="path28" /><path
         d="m 3144.6,377 -80,20.199 c 11.6,-13.699 11.6,-26.597 0,-40.301 l 80,20.102"
         style="fill:#231f20;fill-opacity:1;fill-rule:evenodd;stroke:none"
         id="path30" /><path
         d="m 2010.6,377 h 305.2"
         style="fill:none;stroke:#231f20;stroke-width:8.6;stroke-linecap:butt;stroke-linejoin:miter;stroke-miterlimit:11.4737;stroke-dasharray:none;stroke-opacity:1"
         id="path32" /><path
         d="m 2351.1,377 -79.9,20.199 c 11.5,-13.699 11.5,-26.597 0,-40.301 L 2351.1,377"
         style="fill:#231f20;fill-opacity:1;fill-rule:evenodd;stroke:none"
         id="path34" /><path
         d="m 1554.32,371.676 h 30.23 v -8.641 h -30.23 v 8.641"
         style="fill:#231f20;fill-opacity:1;fill-rule:evenodd;stroke:none"
         id="path36" /><path
         d="m 1635.67,420.629 c 1.44,0 2.16,0 2.16,0 0,0 0.72,0 1.44,0 0,0 1.44,1.441 2.16,1.441 v 0.719 c 0.72,0.719 0.72,1.438 0.72,1.438 h 2.88 l -5.76,-13.676 h -26.64 l -1.44,-15.84 c 12.24,0 21.6,-2.879 27.36,-7.918 6.48,-5.039 9.36,-12.238 9.36,-21.598 0,-6.476 -2.16,-12.238 -5.76,-15.836 -2.88,-3.601 -7.2,-7.199 -12.24,-8.64 -0.72,-0.719 -2.88,-0.719 -4.32,-0.719 -1.44,0 -2.88,-0.719 -4.32,-0.719 h -0.72 c -0.72,0 -1.44,0 -1.44,0 -0.72,0 -2.16,0 -2.88,0 -0.72,0 -1.44,0.719 -2.16,0.719 -4.32,0 -7.2,0.719 -10.8,2.16 -2.88,1.438 -5.04,3.598 -5.04,6.481 v 0 0 0 c 0,1.437 1.44,2.879 2.16,3.597 0.72,0.719 1.44,0.719 2.88,0.719 0.72,0 0.72,0 1.44,0 0.72,0 2.16,-0.719 2.16,-1.437 0.72,0 2.16,-0.723 2.88,-1.442 0.72,-1.437 1.44,-2.879 2.16,-4.32 0.72,-0.719 2.16,-2.16 3.6,-2.879 1.44,0 3.6,-0.719 5.76,-0.719 0,0 0.72,0 1.44,0 0.72,0 1.44,0 2.16,0 3.6,0.719 6.48,2.879 8.64,5.758 2.88,2.879 5.04,7.199 5.04,12.238 v 0.723 0.719 c 0,7.918 -2.16,13.675 -7.2,16.558 -5.04,3.598 -10.8,5.758 -16.56,5.758 -0.72,0 -1.44,0 -2.16,0 -0.72,0 -1.44,0 -2.16,0 -0.72,0 -1.44,0 -2.16,0 -0.72,0 -1.44,0 -2.16,0 l 3.6,36.715 h 25.92"
         style="fill:#231f20;fill-opacity:1;fill-rule:evenodd;stroke:none"
         id="path38" /><path
         d="m 1706.94,406.949 v 0.723 c 0,0.719 0,1.437 0,1.437 0,2.161 0,4.321 -0.72,5.039 -0.72,0.723 -2.88,1.442 -7.2,1.442 v 2.16 l 17.28,6.477 v -61.911 0 -17.277 l 7.2,-0.719 v -1.441 l -16.56,-5.039 v 7.918 0 0 c -2.16,-2.16 -4.32,-3.598 -6.48,-5.039 -2.16,-0.719 -5.04,-2.16 -8.64,-2.16 l -0.72,-0.719 c -0.72,0 -1.44,0 -1.44,0 -0.72,0 -2.88,0.719 -3.6,0.719 -2.16,0.722 -3.6,1.441 -5.04,1.441 -3.6,0.719 -7.2,3.598 -9.36,7.199 -2.87,3.598 -5.03,8.637 -5.76,15.117 v 0.719 0.723 0.719 0.718 c 0,7.2 2.16,12.961 5.76,18 3.6,4.317 7.92,7.918 12.24,9.356 1.44,0 2.88,0.722 3.6,0.722 1.44,0 2.88,0 3.6,0 h 0.72 0.72 c 0.72,0 2.16,0 2.88,0 0,0 1.44,-0.722 2.16,-0.722 1.44,0 3.6,0 5.04,-0.719 1.44,-0.719 2.88,-2.16 4.32,-2.879 z m 0,-58.308 v 26.632 c 0,0.723 0,2.161 0,2.883 0,0.719 -0.72,2.157 -1.44,2.879 -0.72,2.879 -2.88,5.039 -4.32,6.477 -2.16,2.16 -5.76,2.883 -8.64,2.883 -5.76,0 -10.08,-2.883 -12.24,-7.2 -2.88,-5.039 -4.32,-10.078 -4.32,-15.84 v 0 -0.718 c 0,-5.758 2.16,-11.52 4.32,-15.84 2.88,-5.039 7.2,-7.918 12.96,-7.918 2.16,0 4.32,0 6.48,0.719 2.16,1.441 5.04,2.882 7.2,5.043"
         style="fill:#231f20;fill-opacity:1;fill-rule:evenodd;stroke:none"
         id="path40" /><path
         d="m 1748.69,395.434 v 15.117 c 0,3.597 -0.72,6.48 -1.44,7.918 -0.72,0.719 -3.6,2.16 -8.64,2.16 v 2.879 h 33.84 c 7.2,0 14.4,-1.438 19.44,-5.039 5.04,-2.879 7.91,-7.918 7.91,-14.399 0,-5.757 -1.43,-10.078 -4.32,-12.957 -2.87,-2.879 -6.47,-5.039 -10.07,-5.758 v 0 h -0.72 c 0.72,0 2.16,-0.722 2.88,-0.722 0.72,-0.719 2.16,-0.719 2.88,-1.438 3.6,-1.441 7.19,-4.32 10.07,-7.199 3.61,-3.601 5.05,-8.641 5.05,-14.398 0,-5.762 -2.16,-10.078 -5.05,-12.957 -3.59,-2.883 -7.19,-5.762 -10.79,-6.481 -2.88,-0.719 -5.76,-2.16 -7.92,-2.16 -2.16,0 -4.32,0 -5.76,0 h -37.44 v 2.879 c 5.04,0 7.92,0 8.64,1.441 0.72,1.438 1.44,4.321 1.44,10.078 v 0.719 c 0,0.719 0,1.442 0,1.442 z m 43.2,-33.118 c 0,7.2 -2.16,12.239 -5.76,14.399 -3.6,2.16 -7.2,4.32 -11.52,4.32 -0.72,0 -2.16,0 -2.88,0 -1.44,0 -2.16,0 -2.88,0 -0.72,0 -1.44,0 -1.44,0 h -0.72 c -1.44,0 -2.16,0 -2.88,0 -1.44,0 -2.16,0 -2.88,0 v -30.957 c 0,-2.879 0.72,-5.039 2.88,-5.758 1.44,-0.722 3.6,-1.441 6.48,-1.441 v 0 h 0.72 c 1.44,0 2.88,0 2.88,0 1.44,0 2.88,0 2.88,0 4.32,0.719 8.64,2.879 10.8,5.762 2.88,2.879 4.32,7.918 4.32,13.675 z m -30.96,58.313 v -36.715 h 0.72 v 0 h 0.72 0.72 c 8.64,0 15.12,2.16 18.72,5.758 3.6,3.601 5.76,8.641 5.76,13.68 0,6.48 -2.16,11.519 -5.76,12.957 -3.6,2.16 -7.92,3.601 -12.24,3.601 -1.44,0 -2.16,0.719 -3.6,0.719 -1.44,0 -2.88,0 -3.6,0 h -0.72 -0.72"
         style="fill:#231f20;fill-opacity:1;fill-rule:evenodd;stroke:none"
         id="path42" /><path
         d="m 2545.2,399.031 c 0,2.879 0,5.039 -0.72,5.039 -0.72,0.723 -1.44,1.442 -2.88,1.442 -0.72,0 -1.44,0 -1.44,0 l -0.72,0.718 -6.48,0.719 v 2.883 c 1.44,0 2.88,0 4.32,0.719 2.16,0.719 4.32,2.16 6.48,2.879 1.44,0.718 3.6,2.16 5.04,3.601 0.72,1.438 2.88,2.879 3.59,4.317 h 2.88 v -61.91 0 -5.04 c 0,-5.757 0.73,-9.359 1.44,-10.078 0.72,-1.441 3.61,-1.441 7.2,-1.441 0.72,0 1.45,0 1.45,0 h 0.71 V 340 h -32.39 v 2.879 c 0.72,0 1.44,0 2.16,0 0.72,0 1.44,0 2.16,0 3.6,0 5.76,0.719 6.48,1.441 0.72,1.438 0.72,5.039 0.72,10.078 v 44.633"
         style="fill:#231f20;fill-opacity:1;fill-rule:evenodd;stroke:none"
         id="path44" /><path
         d="m 2588.39,378.156 c 0,11.516 2.88,21.594 7.2,28.793 4.32,7.199 10.08,11.52 15.12,13.68 0.72,0 1.44,0.719 2.16,0.719 0.72,0 1.44,0 2.16,0 6.48,0 11.52,-2.879 15.11,-7.918 4.32,-5.039 7.2,-10.797 9.36,-17.278 0.72,-2.16 1.44,-5.757 1.44,-7.918 0.72,-2.879 0.72,-5.761 0.72,-7.921 0,-10.797 -1.44,-19.434 -4.32,-25.196 -2.88,-6.476 -6.48,-10.797 -10.07,-12.957 -1.45,-1.441 -4.32,-2.16 -5.76,-2.879 -2.16,-0.722 -4.32,-0.722 -5.05,-0.722 -7.91,0 -13.67,2.882 -19.43,9.359 -5.04,7.199 -7.92,17.277 -8.64,30.238 z m 42.47,2.157 c 0,2.16 0,3.601 0,3.601 0,0 -0.72,0.719 -0.72,3.598 0,2.16 -0.71,5.761 -0.71,7.922 -0.73,5.757 -2.88,11.515 -5.04,15.836 -1.44,4.32 -5.04,7.199 -8.64,7.199 v 0 0 h -0.72 c -3.6,0 -6.48,-2.879 -8.64,-6.481 -2.16,-5.039 -3.6,-10.078 -5.04,-15.117 0,-2.879 -0.72,-6.476 -0.72,-10.078 0,-2.879 -0.72,-5.758 -0.72,-7.199 0,-15.117 2.16,-25.196 5.04,-30.953 3.6,-5.043 7.2,-7.922 11.51,-7.922 4.33,0 7.93,3.601 10.09,10.801 2.15,7.199 3.59,15.117 3.59,24.476 0,0.719 0.72,1.438 0.72,2.16 0,0.719 0,1.438 0,2.157"
         style="fill:#231f20;fill-opacity:1;fill-rule:evenodd;stroke:none"
         id="path46" /><path
         d="m 2697.09,406.949 v 0.723 c 0,0.719 0,1.437 0,1.437 0,2.161 0,4.321 -0.71,5.039 -0.72,0.723 -2.88,1.442 -7.2,1.442 v 2.16 l 17.27,6.477 v -61.911 0 -17.277 l 7.2,-0.719 v -1.441 l -16.56,-5.039 v 7.918 0 0 c -2.15,-2.16 -4.31,-3.598 -6.47,-5.039 -2.16,-0.719 -5.04,-2.16 -8.64,-2.16 l -0.72,-0.719 c -0.72,0 -1.44,0 -1.44,0 -0.72,0 -2.88,0.719 -3.6,0.719 -2.16,0.722 -3.6,1.441 -5.04,1.441 -3.6,0.719 -7.2,3.598 -9.36,7.199 -2.88,3.598 -5.04,8.637 -5.76,15.117 v 0.719 0.723 0.719 0.718 c 0,7.2 2.16,12.961 5.76,18 3.6,4.317 7.92,7.918 12.24,9.356 1.44,0 2.88,0.722 3.6,0.722 1.44,0 2.88,0 3.6,0 h 0.72 0.72 c 0.72,0 2.16,0 2.88,0 0,0 1.44,-0.722 2.16,-0.722 1.44,0 3.6,0 5.04,-0.719 1.43,-0.719 2.88,-2.16 4.31,-2.879 z m 0,-58.308 v 26.632 c 0,0.723 0,2.161 0,2.883 0,0.719 -0.71,2.157 -1.43,2.879 -0.72,2.879 -2.88,5.039 -4.32,6.477 -2.16,2.16 -5.76,2.883 -8.64,2.883 -5.76,0 -10.08,-2.883 -12.24,-7.2 -2.88,-5.039 -4.32,-10.078 -4.32,-15.84 v 0 -0.718 c 0,-5.758 2.16,-11.52 4.32,-15.84 2.88,-5.039 7.2,-7.918 12.96,-7.918 2.16,0 4.32,0 6.48,0.719 2.15,1.441 5.04,2.882 7.19,5.043"
         style="fill:#231f20;fill-opacity:1;fill-rule:evenodd;stroke:none"
         id="path48" /><path
         d="m 2738.85,395.434 v 15.117 c 0,3.597 -0.72,6.48 -1.44,7.918 -0.72,0.719 -3.6,2.16 -8.64,2.16 v 2.879 h 33.84 c 7.19,0 14.39,-1.438 19.43,-5.039 5.04,-2.879 7.92,-7.918 7.92,-14.399 0,-5.757 -1.44,-10.078 -4.32,-12.957 -2.88,-2.879 -6.48,-5.039 -10.07,-5.758 v 0 h -0.73 c 0.73,0 2.16,-0.722 2.88,-0.722 0.73,-0.719 2.16,-0.719 2.89,-1.438 3.59,-1.441 7.19,-4.32 10.07,-7.199 3.6,-3.601 5.04,-8.641 5.04,-14.398 0,-5.762 -2.16,-10.078 -5.04,-12.957 -3.6,-2.883 -7.2,-5.762 -10.8,-6.481 -2.88,-0.719 -5.75,-2.16 -7.92,-2.16 -2.16,0 -4.32,0 -5.75,0 h -37.44 v 2.879 c 5.04,0 7.92,0 8.64,1.441 0.72,1.438 1.44,4.321 1.44,10.078 v 0.719 c 0,0.719 0,1.442 0,1.442 z m 43.19,-33.118 c 0,7.2 -2.16,12.239 -5.75,14.399 -3.61,2.16 -7.2,4.32 -11.52,4.32 -0.72,0 -2.16,0 -2.88,0 -1.44,0 -2.16,0 -2.88,0 -0.72,0 -1.44,0 -1.44,0 h -0.72 c -1.44,0 -2.16,0 -2.88,0 -1.44,0 -2.16,0 -2.88,0 v -30.957 c 0,-2.879 0.72,-5.039 2.88,-5.758 1.44,-0.722 3.6,-1.441 6.48,-1.441 v 0 h 0.72 c 1.44,0 2.88,0 2.88,0 1.43,0 2.88,0 2.88,0 4.32,0.719 8.64,2.879 10.79,5.762 2.89,2.879 4.32,7.918 4.32,13.675 z m -30.95,58.313 v -36.715 h 0.72 v 0 h 0.72 0.72 c 8.64,0 15.12,2.16 18.71,5.758 3.61,3.601 5.76,8.641 5.76,13.68 0,6.48 -2.15,11.519 -5.76,12.957 -3.59,2.16 -7.91,3.601 -12.23,3.601 -1.44,0 -2.16,0.719 -3.6,0.719 -1.44,0 -2.88,0 -3.6,0 h -0.72 -0.72"
         style="fill:#231f20;fill-opacity:1;fill-rule:evenodd;stroke:none"
         id="path50" /><path
         d="m 735.273,392.551 v -23.754 h 23.04 v -6.481 h -23.04 v -23.035 h -6.476 v 23.035 h -23.039 v 6.481 h 23.039 v 23.754 h 6.476"
         style="fill:#231f20;fill-opacity:1;fill-rule:evenodd;stroke:none"
         id="path52" /><path
         d="m 776.309,378.156 c 0,11.516 2.879,21.594 7.199,28.793 4.32,7.199 10.078,11.52 15.117,13.68 0.723,0 1.441,0.719 2.16,0.719 0.723,0 1.442,0 2.16,0 6.481,0 11.52,-2.879 15.118,-7.918 4.32,-5.039 7.199,-10.797 9.359,-17.278 0.719,-2.16 1.441,-5.757 1.441,-7.918 0.719,-2.879 0.719,-5.761 0.719,-7.921 0,-10.797 -1.441,-19.434 -4.32,-25.196 -2.879,-6.476 -6.477,-10.797 -10.078,-12.957 -1.438,-1.441 -4.321,-2.16 -5.758,-2.879 -2.16,-0.722 -4.321,-0.722 -5.039,-0.722 -7.922,0 -13.68,2.882 -19.438,9.359 -5.039,7.199 -7.918,17.277 -8.64,30.238 z m 42.476,2.157 c 0,2.16 0,3.601 0,3.601 0,0 -0.722,0.719 -0.722,3.598 0,2.16 -0.719,5.761 -0.719,7.922 -0.719,5.757 -2.879,11.515 -5.039,15.836 -1.442,4.32 -5.039,7.199 -8.641,7.199 v 0 0 h -0.719 c -3.597,0 -6.48,-2.879 -8.636,-6.481 -2.161,-5.039 -3.602,-10.078 -5.039,-15.117 0,-2.879 -0.723,-6.476 -0.723,-10.078 0,-2.879 -0.719,-5.758 -0.719,-7.199 0,-15.117 2.16,-25.196 5.039,-30.953 3.598,-5.043 7.199,-7.922 11.52,-7.922 4.316,0 7.918,3.601 10.078,10.801 2.16,7.199 3.598,15.117 3.598,24.476 0,0.719 0.722,1.438 0.722,2.16 0,0.719 0,1.438 0,2.157"
         style="fill:#231f20;fill-opacity:1;fill-rule:evenodd;stroke:none"
         id="path54" /><path
         d="m 885.016,406.949 v 0.723 c 0,0.719 0,1.437 0,1.437 0,2.161 0,4.321 -0.723,5.039 -0.719,0.723 -2.879,1.442 -7.199,1.442 v 2.16 l 17.277,6.477 v -61.911 0 -17.277 l 7.199,-0.719 v -1.441 l -16.554,-5.039 v 7.918 0 0 c -2.161,-2.16 -4.321,-3.598 -6.481,-5.039 -2.16,-0.719 -5.039,-2.16 -8.64,-2.16 l -0.719,-0.719 c -0.719,0 -1.438,0 -1.438,0 -0.722,0 -2.883,0.719 -3.601,0.719 -2.16,0.722 -3.598,1.441 -5.039,1.441 -3.598,0.719 -7.2,3.598 -9.36,7.199 -2.879,3.598 -5.039,8.637 -5.758,15.117 v 0.719 0.723 0.719 0.718 c 0,7.2 2.161,12.961 5.758,18 3.602,4.317 7.918,7.918 12.239,9.356 1.441,0 2.878,0.722 3.601,0.722 1.438,0 2.879,0 3.598,0 h 0.719 0.722 c 0.719,0 2.16,0 2.879,0 0,0 1.442,-0.722 2.16,-0.722 1.438,0 3.598,0 5.039,-0.719 1.438,-0.719 2.879,-2.16 4.321,-2.879 z m 0,-58.308 v 26.632 c 0,0.723 0,2.161 0,2.883 0,0.719 -0.723,2.157 -1.442,2.879 -0.719,2.879 -2.879,5.039 -4.32,6.477 -2.16,2.16 -5.758,2.883 -8.637,2.883 -5.762,0 -10.078,-2.883 -12.238,-7.2 -2.879,-5.039 -4.32,-10.078 -4.32,-15.84 v 0 -0.718 c 0,-5.758 2.16,-11.52 4.32,-15.84 2.879,-5.039 7.199,-7.918 12.957,-7.918 2.16,0 4.32,0 6.48,0.719 2.161,1.441 5.039,2.882 7.2,5.043"
         style="fill:#231f20;fill-opacity:1;fill-rule:evenodd;stroke:none"
         id="path56" /><path
         d="m 926.77,395.434 v 15.117 c 0,3.597 -0.723,6.48 -1.442,7.918 -0.719,0.719 -3.598,2.16 -8.637,2.16 v 2.879 h 33.832 c 7.2,0 14.399,-1.438 19.438,-5.039 5.039,-2.879 7.922,-7.918 7.922,-14.399 0,-5.757 -1.442,-10.078 -4.32,-12.957 -2.879,-2.879 -6.481,-5.039 -10.079,-5.758 v 0 h -0.722 c 0.722,0 2.16,-0.722 2.883,-0.722 0.718,-0.719 2.16,-0.719 2.878,-1.438 3.598,-1.441 7.2,-4.32 10.079,-7.199 3.597,-3.601 5.039,-8.641 5.039,-14.398 0,-5.762 -2.161,-10.078 -5.039,-12.957 -3.602,-2.883 -7.2,-5.762 -10.797,-6.481 -2.883,-0.719 -5.762,-2.16 -7.922,-2.16 -2.16,0 -4.317,0 -5.758,0 h -37.434 v 2.879 c 5.039,0 7.918,0 8.637,1.441 0.719,1.438 1.442,4.321 1.442,10.078 v 0.719 c 0,0.719 0,1.442 0,1.442 z m 43.191,-33.118 c 0,7.2 -2.156,12.239 -5.758,14.399 -3.598,2.16 -7.199,4.32 -11.519,4.32 -0.719,0 -2.161,0 -2.879,0 -1.438,0 -2.16,0 -2.879,0 -0.719,0 -1.442,0 -1.442,0 h -0.718 c -1.438,0 -2.161,0 -2.879,0 -1.442,0 -2.16,0 -2.879,0 v -30.957 c 0,-2.879 0.719,-5.039 2.879,-5.758 1.441,-0.722 3.597,-1.441 6.48,-1.441 v 0 h 0.719 c 1.437,0 2.879,0 2.879,0 1.441,0 2.879,0 2.879,0 4.32,0.719 8.64,2.879 10.801,5.762 2.878,2.879 4.316,7.918 4.316,13.675 z m -30.953,58.313 v -36.715 h 0.719 v 0 h 0.718 0.723 c 8.637,0 15.117,2.16 18.715,5.758 3.601,3.601 5.762,8.641 5.762,13.68 0,6.48 -2.161,11.519 -5.762,12.957 -3.598,2.16 -7.918,3.601 -12.238,3.601 -1.438,0 -2.161,0.719 -3.598,0.719 -1.442,0 -2.879,0 -3.602,0 h -0.718 -0.719"
         style="fill:#231f20;fill-opacity:1;fill-rule:evenodd;stroke:none"
         id="path58" /></g></g></svg>
