<?xml version="1.0" encoding="UTF-8" standalone="no"?>
<!-- Created with Inkscape (http://www.inkscape.org/) -->

<svg
   version="1.1"
   id="svg2"
   xml:space="preserve"
   width="190.66667"
   height="96"
   viewBox="0 0 190.66667 96"
   xmlns="http://www.w3.org/2000/svg"
   xmlns:svg="http://www.w3.org/2000/svg"><defs
     id="defs6" /><g
     id="g8"
     transform="matrix(1.3333333,0,0,-1.3333333,0,96)"><g
       id="g10"
       transform="scale(0.1)"><path
         d="M 6.89844,713.102 H 1425.3 V 6.10156 H 6.89844 Z"
         style="fill:none;stroke:#231f20;stroke-width:11.5;stroke-linecap:butt;stroke-linejoin:miter;stroke-miterlimit:11.4737;stroke-dasharray:none;stroke-opacity:1"
         id="path12" /><path
         d="M 522.398,531.699 H 879.5 V 174.602 H 522.398 Z"
         style="fill:none;stroke:#231f20;stroke-width:14.4;stroke-linecap:butt;stroke-linejoin:miter;stroke-miterlimit:11.4737;stroke-dasharray:none;stroke-opacity:1"
         id="path14" /><path
         d="m 522.398,454.602 h -204.5"
         style="fill:none;stroke:#231f20;stroke-width:14.4;stroke-linecap:butt;stroke-linejoin:miter;stroke-miterlimit:11.4737;stroke-dasharray:none;stroke-opacity:1"
         id="path16" /><path
         d="m 522.398,250.898 h -204.5"
         style="fill:none;stroke:#231f20;stroke-width:14.4;stroke-linecap:butt;stroke-linejoin:miter;stroke-miterlimit:11.4737;stroke-dasharray:none;stroke-opacity:1"
         id="path18" /><path
         d="M 1083.3,353.102 H 879.5"
         style="fill:none;stroke:#231f20;stroke-width:14.4;stroke-linecap:butt;stroke-linejoin:miter;stroke-miterlimit:11.4737;stroke-dasharray:none;stroke-opacity:1"
         id="path20" /><path
         d="m 724.902,342.395 14.254,18.789 c 0.649,0.648 1.297,1.296 1.297,1.945 0,0.648 0.645,1.293 0.645,1.941 0,1.297 -1.293,1.946 -2.59,2.594 -1.297,0.649 -3.887,1.293 -5.832,1.293 h -0.649 -0.648 v 3.242 h 28.508 v -3.242 h -0.645 c -0.648,0 -1.297,-0.644 -1.297,-0.644 -1.945,0 -4.535,-1.297 -5.832,-1.297 -1.297,-0.649 -3.238,-1.946 -4.535,-3.239 -1.297,-0.648 -2.59,-1.297 -3.887,-2.593 -0.648,-1.297 -1.945,-3.239 -3.238,-5.184 l -12.312,-16.844 c 4.535,-5.832 9.07,-11.015 11.664,-15.551 2.59,-3.886 5.828,-7.125 7.773,-8.421 0.649,0 1.297,-0.649 1.297,-0.649 0.648,0 1.293,0 1.293,0 1.297,0 2.594,0 3.891,0.649 1.293,0.648 2.589,1.941 3.238,2.589 l 0.648,0.649 c 0.649,0 1.297,1.297 1.297,1.297 l 2.59,-3.239 c -1.945,-2.593 -3.887,-4.535 -6.48,-5.832 -2.59,-1.296 -5.829,-2.593 -9.071,-2.593 -5.183,0 -9.07,1.297 -12.308,3.89 -2.594,2.59 -5.832,5.828 -7.774,9.071 0,0.648 -0.648,1.293 -0.648,1.293 l -0.649,0.648 c -0.648,1.297 -1.945,2.594 -2.593,3.242 -0.645,0.645 -1.293,1.942 -1.942,3.239 -0.648,-1.297 -1.945,-2.594 -2.594,-3.239 -0.648,-0.648 -1.941,-1.945 -2.589,-3.242 -1.297,-1.941 -3.239,-3.887 -5.184,-5.832 -1.945,-1.293 -4.535,-3.238 -6.48,-4.535 -1.942,-1.293 -3.887,-2.59 -5.829,-2.59 -1.945,-0.648 -3.89,-1.945 -5.183,-1.945 -0.649,0 -1.297,0 -1.945,0 -0.649,0 -1.942,0 -2.59,0 -7.778,0 -13.606,1.945 -18.141,7.129 -5.184,5.183 -7.777,11.015 -7.777,17.492 0,0.648 0,1.945 0,2.594 0,0.648 0.648,1.293 0.648,1.941 0,1.945 0.649,3.887 1.297,5.184 0.648,1.296 1.941,3.238 2.59,4.535 v 0.648 c 0,0.649 1.297,1.297 1.297,1.297 1.297,1.941 3.886,4.535 6.48,6.477 3.238,2.593 7.125,5.183 11.66,7.777 -1.297,1.293 -3.238,2.59 -3.886,3.238 -1.297,1.946 -2.594,3.238 -3.239,4.535 0,0.649 -0.648,1.946 -0.648,2.594 0,0.645 -0.649,1.942 -0.649,2.59 v 0.648 0 c 0,1.297 0.649,2.59 0.649,3.887 0,0.649 0.648,1.945 1.293,3.238 1.297,2.594 3.891,5.832 7.129,7.778 3.238,2.59 7.125,4.535 10.367,5.828 0.648,0 1.293,0.648 1.293,0.648 0,0 0.648,0 1.297,0 0,0 0.648,0 1.297,0 0.648,0 1.297,0.649 1.297,0.649 4.535,0 7.773,-1.297 10.363,-3.887 2.594,-1.945 5.183,-5.184 5.832,-7.773 v -0.649 c 0,-0.648 0,-1.297 0,-1.297 v 0 -0.648 0 -0.649 c 0,-0.648 -0.649,-1.941 -0.649,-2.589 0,-0.649 -0.648,-1.946 -1.293,-3.239 -1.945,-1.945 -3.89,-3.89 -5.832,-5.832 -2.593,-1.945 -5.832,-3.886 -9.07,-6.48 0.649,-0.649 1.297,-1.297 1.942,-1.942 0.648,-0.648 1.945,-1.945 2.593,-2.593 3.239,-3.887 7.125,-7.125 11.012,-9.719 3.242,-3.238 5.832,-6.477 7.777,-9.07 z m -6.48,-9.719 c -1.297,2.594 -3.887,5.183 -6.477,7.777 -2.593,2.59 -5.183,5.18 -8.425,7.774 -2.59,1.941 -5.184,4.535 -7.774,6.48 -2.59,1.941 -5.183,4.535 -6.48,5.828 -5.18,-1.941 -9.071,-5.183 -11.012,-7.773 -2.594,-3.239 -4.535,-7.129 -4.535,-10.367 0,-0.649 0,-1.297 0,-1.297 v -0.645 c 0,-3.242 0.648,-5.832 1.293,-8.426 0.648,-2.589 2.593,-5.183 3.89,-6.476 1.293,-2.594 3.887,-4.535 5.828,-5.184 3.243,-1.297 5.833,-1.945 7.778,-1.945 0.648,0 1.293,0 1.941,0 0.649,0 1.297,0 2.594,0 3.887,1.297 7.773,2.594 11.66,5.183 3.887,2.594 7.129,5.833 9.719,9.071 z m -20.086,35.637 c 0.648,0.644 1.297,1.292 1.945,1.292 0.649,0.649 1.946,1.297 2.594,1.297 1.941,1.297 3.887,2.594 5.18,3.887 1.297,1.297 1.945,3.887 1.945,6.481 0,0.648 0,1.296 0,1.941 0,1.297 -0.648,2.594 -0.648,3.242 -0.649,1.942 -1.942,3.238 -3.887,4.535 -1.297,1.297 -3.238,1.942 -5.832,1.942 h -0.649 -0.648 v 0 h -0.645 c -2.593,0 -5.183,-0.645 -6.48,-1.293 -1.945,-1.297 -3.238,-3.242 -3.887,-5.184 0,0 -0.648,-0.648 -0.648,-1.297 0,-0.648 -0.649,-1.297 -0.649,-1.945 0,-1.941 1.297,-4.535 3.239,-6.477 1.297,-1.945 3.89,-4.535 5.832,-5.832 0,-0.648 0.648,-1.297 1.945,-1.297 0.648,-0.648 1.293,-1.292 1.293,-1.292"
         style="fill:#231f20;fill-opacity:1;fill-rule:evenodd;stroke:none"
         id="path22" /></g></g></svg>
