<?xml version="1.0" encoding="UTF-8" standalone="no"?>
<!-- Created with Inkscape (http://www.inkscape.org/) -->

<svg
   version="1.1"
   id="svg2"
   xml:space="preserve"
   width="214.66667"
   height="213.33333"
   viewBox="0 0 214.66667 213.33333"
   xmlns="http://www.w3.org/2000/svg"
   xmlns:svg="http://www.w3.org/2000/svg"><defs
     id="defs6" /><g
     id="g8"
     transform="matrix(1.3333333,0,0,-1.3333333,0,213.33333)"><g
       id="g10"
       transform="scale(0.1)"><path
         d="M 97.3984,1508.2 H 1514.3 V 91.3008 H 97.3984 Z"
         style="fill:none;stroke:#231f20;stroke-width:11.5;stroke-linecap:butt;stroke-linejoin:miter;stroke-miterlimit:11.4737;stroke-dasharray:none;stroke-opacity:1"
         id="path12" /><path
         d="m 1347.3,1287.9 -969.101,-0.7 V 1154"
         style="fill:none;stroke:#231f20;stroke-width:8.6;stroke-linecap:butt;stroke-linejoin:miter;stroke-miterlimit:11.4737;stroke-dasharray:none;stroke-opacity:1"
         id="path14" /><path
         d="M 378.898,561.398 V 318.801 h 457.903 m 0.699,-0.699 511.9,0.699"
         style="fill:none;stroke:#231f20;stroke-width:8.6;stroke-linecap:butt;stroke-linejoin:miter;stroke-miterlimit:11.4737;stroke-dasharray:none;stroke-opacity:1"
         id="path16" /><path
         d="m 1347.3,1019.4 0.7,268.5"
         style="fill:none;stroke:#231f20;stroke-width:8.6;stroke-linecap:butt;stroke-linejoin:miter;stroke-miterlimit:11.4737;stroke-dasharray:none;stroke-opacity:1"
         id="path18" /><path
         d="M 1293.3,642.102 V 1018.6 h 108 V 642.102 Z"
         style="fill:none;stroke:#231f20;stroke-width:14.4;stroke-linecap:butt;stroke-linejoin:miter;stroke-miterlimit:11.4737;stroke-dasharray:none;stroke-opacity:1"
         id="path20" /><path
         d="M 432.199,1154 V 776.699 H 324.898 V 1154 Z"
         style="fill:none;stroke:#231f20;stroke-width:14.4;stroke-linecap:butt;stroke-linejoin:miter;stroke-miterlimit:11.4737;stroke-dasharray:none;stroke-opacity:1"
         id="path22" /><path
         d="M 245,637 H 514.199"
         style="fill:none;stroke:#231f20;stroke-width:14.4;stroke-linecap:butt;stroke-linejoin:miter;stroke-miterlimit:11.4737;stroke-dasharray:none;stroke-opacity:1"
         id="path24" /><path
         d="M 325.602,583 H 432.898"
         style="fill:none;stroke:#231f20;stroke-width:20.2;stroke-linecap:butt;stroke-linejoin:miter;stroke-miterlimit:11.4737;stroke-dasharray:none;stroke-opacity:1"
         id="path26" /><path
         d="m 422.57,692.828 v -15.047 h 14.36 v -3.418 H 422.57 V 660 h -4.789 v 14.363 h -14.363 v 3.418 h 14.363 v 15.047 h 4.789"
         style="fill:#231f20;fill-opacity:1;fill-rule:evenodd;stroke:none"
         id="path28" /><path
         d="m 422.57,692.828 v -15.047 h 14.36 v -3.418 H 422.57 V 660 h -4.789 v 14.363 h -14.363 v 3.418 h 14.363 v 15.047 z"
         style="fill:none;stroke:#231f20;stroke-width:2.9;stroke-linecap:butt;stroke-linejoin:miter;stroke-miterlimit:11.4737;stroke-dasharray:none;stroke-opacity:1"
         id="path30" /><path
         d="m 402.734,549.832 h 19.153 v -5.469 h -19.153 v 5.469"
         style="fill:#231f20;fill-opacity:1;fill-rule:evenodd;stroke:none"
         id="path32" /><path
         d="m 402.734,549.832 h 19.153 v -5.469 h -19.153 z"
         style="fill:none;stroke:#231f20;stroke-width:2.9;stroke-linecap:butt;stroke-linejoin:miter;stroke-miterlimit:11.4737;stroke-dasharray:none;stroke-opacity:1"
         id="path34" /><path
         d="m 1348,1287.9 v -180"
         style="fill:none;stroke:#231f20;stroke-width:5.8;stroke-linecap:butt;stroke-linejoin:miter;stroke-miterlimit:11.4737;stroke-dasharray:none;stroke-opacity:1"
         id="path36" /><path
         d="m 1348,1071.9 20.2,81.4 c -13.7,-11.5 -26.7,-11.5 -40.4,0 l 20.2,-81.4"
         style="fill:#231f20;fill-opacity:1;fill-rule:evenodd;stroke:none"
         id="path38" /><path
         d="m 1165.99,1170.87 c 0,2.73 -0.69,4.1 -1.37,4.79 -0.68,0.68 -1.37,1.36 -2.73,1.36 h -0.69 c -0.68,0 -1.37,0.69 -1.37,0.69 l -6.83,0.68 v 3.42 c 1.36,0 2.73,0 4.78,0.68 2.05,0.69 4.79,1.37 6.16,2.74 2.05,0.68 4.1,2.05 5.47,3.42 1.37,1.37 2.73,2.73 4.1,4.79 h 2.74 v -63.61 0 -4.78 c 0,-6.16 0.68,-10.26 1.36,-10.95 1.37,-0.68 3.43,-1.37 7.53,-1.37 0.68,0 1.36,0 1.36,0 h 0.69 V 1110 h -32.83 v 2.73 c 0.69,0 1.37,0 2.05,0 0.69,0 1.37,0 2.05,0 3.43,0 5.48,0.69 6.16,2.06 0.68,1.37 1.37,4.78 1.37,10.26 v 45.82"
         style="fill:#231f20;fill-opacity:1;fill-rule:evenodd;stroke:none"
         id="path40" /><path
         d="m 1243.95,1184.55 -2.73,2.73 0.68,0.68 v 0 c 1.37,1.37 3.42,3.42 5.47,4.79 1.37,1.37 2.74,3.42 3.42,5.47 l 25.99,-63.6 v 0 l 5.47,-13.68 0.68,-0.68 v -0.69 c 0.69,-1.36 2.06,-2.73 2.74,-4.1 1.37,-1.37 3.42,-2.05 6.15,-2.74 V 1110 H 1259 v 2.73 c 3.42,0 6.84,0 8.21,0.69 1.36,0 2.73,1.37 2.73,3.42 0,0.68 -0.68,1.37 -0.68,2.05 0,0.68 -0.69,2.05 -0.69,3.42 l -8.2,19.83 h -28.73 l -7.52,-21.2 c 0,-0.68 0,-1.37 0,-1.37 0,-0.68 -0.68,-1.36 -0.68,-1.36 0,-1.37 0.68,-2.74 2.05,-3.42 0.68,-1.37 4.1,-2.06 8.21,-2.06 V 1110 h -23.26 v 2.73 c 2.74,0.69 4.79,1.37 6.16,2.74 0.68,1.37 1.36,2.74 2.05,4.1 0,0.69 0.68,1.37 0.68,2.06 0.69,0.68 1.37,2.05 1.37,2.73 z m 1.37,-4.79 -11.62,-33.51 h 25.3 z"
         style="fill:#231f20;fill-opacity:1;fill-rule:evenodd;stroke:none"
         id="path42" /><path
         d="m 485.305,570.184 c 0,2.734 0,4.101 -0.684,4.785 -0.683,0.687 -1.367,1.371 -2.734,1.371 -0.688,0 -1.371,0 -1.371,0 l -0.684,0.683 -6.84,0.684 v 2.734 c 1.371,0 2.738,0.684 4.789,1.368 2.051,0.683 4.106,1.367 6.157,2.738 1.367,0.683 3.417,2.051 4.785,3.418 1.367,1.367 2.738,2.734 4.105,4.785 h 3.418 v -62.918 0 -4.785 c 0,-6.156 0.684,-10.258 1.367,-10.945 0.684,-0.684 3.422,-1.368 6.84,-1.368 0.684,0 1.367,0 1.367,0 h 0.684 V 510 H 473.68 v 2.734 c 0.683,0 2.05,0 2.734,0 0.684,0 1.367,0 2.051,0 3.422,0 5.473,0.684 6.156,2.055 0.684,1.367 0.684,4.785 0.684,10.258 v 45.137"
         style="fill:#231f20;fill-opacity:1;fill-rule:evenodd;stroke:none"
         id="path44" /><path
         d="m 534.547,567.449 c 0.683,0.684 1.367,2.735 2.734,4.785 1.367,1.368 2.735,4.106 4.102,6.84 2.738,2.735 6.156,6.156 9.574,8.207 2.738,2.735 7.523,4.785 11.629,5.469 4.785,0 10.258,-2.051 13.676,-4.785 4.105,-2.051 6.156,-6.84 6.156,-12.309 0,-3.422 -0.684,-7.523 -2.734,-10.261 -1.368,-2.735 -4.106,-6.153 -6.84,-8.891 -2.735,-2.734 -5.473,-5.469 -7.524,-8.207 -2.734,-2.051 -4.785,-4.102 -6.84,-6.152 -0.683,-0.684 -2.05,-2.055 -2.734,-3.422 -0.683,-0.684 -2.051,-2.051 -2.734,-3.418 h -0.684 l -0.683,-0.684 c -2.739,-2.734 -4.79,-5.473 -6.84,-8.207 -2.055,-2.734 -4.106,-4.789 -4.106,-7.523 h 26.672 c 3.422,0 6.156,0.683 8.207,2.05 2.051,1.368 3.422,3.422 4.789,6.84 h 3.418 l -8.89,-23.254 h -2.051 c 0,2.055 0,4.106 -0.684,4.789 C 571.477,510 568.738,510 566.688,510 h -32.141 c 0,3.418 0.683,7.523 2.734,11.625 2.051,3.422 4.102,6.84 6.157,9.574 1.367,1.371 2.734,2.739 3.417,4.106 1.368,1.367 2.735,2.734 3.418,4.101 0.684,1.371 2.055,2.739 3.422,4.789 2.051,2.051 4.102,4.102 6.153,6.84 0,0.684 0.687,1.367 0.687,1.367 0.684,0.684 1.367,1.368 1.367,2.051 1.368,1.367 2.735,4.106 4.102,5.473 1.367,2.051 2.734,4.101 3.422,5.469 0,0.683 0.683,1.371 0.683,2.054 0,0 0.684,0.684 0.684,1.367 0,0.684 0,1.368 0,2.051 0,0.684 0.684,1.367 0.684,2.051 0,2.051 -1.368,5.473 -2.739,7.523 -2.05,2.051 -4.785,3.418 -8.203,4.106 h -0.687 v 0.683 h -0.684 -0.684 c -3.417,0 -6.835,-1.371 -9.574,-4.105 -2.734,-2.734 -5.468,-5.469 -7.523,-8.207 -0.684,-1.367 -1.367,-2.734 -2.051,-3.418 -0.684,-0.684 -1.367,-2.051 -2.051,-2.051 h -2.734"
         style="fill:#231f20;fill-opacity:1;fill-rule:evenodd;stroke:none"
         id="path46" /><path
         d="m 641.234,525.73 21.2,56.079 c 0.683,0.683 0.683,2.05 0.683,2.738 0,0.683 0.684,1.367 0.684,2.051 0,2.05 -1.367,3.418 -3.418,4.101 -1.367,0.684 -4.789,0.684 -8.207,0.684 v 2.738 h 23.937 v -2.738 c -2.05,0 -4.105,-0.684 -5.472,-2.735 -1.368,-2.05 -3.418,-4.789 -4.102,-7.523 v -0.684 l -0.684,-0.683 -23.937,-62.235 v 0 l -3.422,-9.574 h -2.734 l -25.305,62.235 -4.785,10.257 c 0,1.368 -0.684,2.735 -0.684,3.418 -0.683,0.688 -1.371,2.055 -1.371,2.739 -0.683,1.367 -2.051,2.734 -2.734,3.418 -0.684,0.683 -2.735,1.367 -4.102,1.367 v 2.738 h 32.141 v -2.738 c -0.684,0 -1.367,0 -2.051,0 -0.683,0 -1.367,0 -1.367,0 -2.734,0 -4.102,-0.684 -5.473,-1.367 -1.367,0 -2.734,-1.368 -2.734,-3.418 0,0 0,-0.684 0,-1.368 0,-0.683 0.683,-2.054 1.367,-2.738 l 22.57,-56.762"
         style="fill:#231f20;fill-opacity:1;fill-rule:evenodd;stroke:none"
         id="path48" /><path
         d="M 1348.7,641.398 V 318.102"
         style="fill:none;stroke:#231f20;stroke-width:8.6;stroke-linecap:butt;stroke-linejoin:miter;stroke-miterlimit:11.4737;stroke-dasharray:none;stroke-opacity:1"
         id="path50" /><g
         id="g52"
         transform="scale(10)"><text
           transform="matrix(1,0,0,-1,106,80)"
           style="font-variant:normal;font-weight:normal;font-size:12.1734px;font-family:Symbol;-inkscape-font-specification:Symbol;writing-mode:lr-tb;fill:#231f20;fill-opacity:1;fill-rule:nonzero;stroke:none"
           id="text56"><tspan
             x="0 5.8816342 11.763268"
             y="0"
             id="tspan54">11Ω</tspan></text></g><path
         d="M 378.199,776.699 V 642.102"
         style="fill:none;stroke:#231f20;stroke-width:8.6;stroke-linecap:butt;stroke-linejoin:miter;stroke-miterlimit:11.4737;stroke-dasharray:none;stroke-opacity:1"
         id="path58" /><path
         d="M 190.199,1395.2 H 781.398 V 211.5 H 190.199 Z"
         style="fill:none;stroke:#231f20;stroke-width:2.9;stroke-linecap:butt;stroke-linejoin:miter;stroke-miterlimit:11.4737;stroke-dasharray:14.5, 14.5;stroke-dashoffset:0;stroke-opacity:1"
         id="path60" /><path
         d="m 782.102,1315.3 c 13.699,0 26.597,-11.5 26.597,-26.7 0,-14.4 -12.898,-27.3 -26.597,-27.3 -14.403,0 -26.704,12.9 -26.704,27.3 0,15.2 12.301,26.7 26.704,26.7"
         style="fill:#ffffff;fill-opacity:1;fill-rule:evenodd;stroke:none"
         id="path62" /><path
         d="m 782.102,1315.3 c 13.699,0 26.597,-11.5 26.597,-26.7 0,-14.4 -12.898,-27.3 -26.597,-27.3 -14.403,0 -26.704,12.9 -26.704,27.3 0,15.2 12.301,26.7 26.704,26.7 z"
         style="fill:none;stroke:#231f20;stroke-width:8.6;stroke-linecap:butt;stroke-linejoin:miter;stroke-miterlimit:11.4737;stroke-dasharray:none;stroke-opacity:1"
         id="path64" /><path
         d="m 782.102,346.199 c 13.699,0 26.597,-11.597 26.597,-26.699 0,-14.398 -12.898,-27.301 -26.597,-27.301 -14.403,0 -26.704,12.903 -26.704,27.301 0,15.102 12.301,26.699 26.704,26.699"
         style="fill:#ffffff;fill-opacity:1;fill-rule:evenodd;stroke:none"
         id="path66" /><path
         d="m 782.102,346.199 c 13.699,0 26.597,-11.597 26.597,-26.699 0,-14.398 -12.898,-27.301 -26.597,-27.301 -14.403,0 -26.704,12.903 -26.704,27.301 0,15.102 12.301,26.699 26.704,26.699 z"
         style="fill:none;stroke:#231f20;stroke-width:8.6;stroke-linecap:butt;stroke-linejoin:miter;stroke-miterlimit:11.4737;stroke-dasharray:none;stroke-opacity:1"
         id="path68" /><path
         d="m 696.672,1367.45 -2.734,2.05 0.683,0.68 v 0 c 1.367,1.37 2.734,2.05 4.102,3.42 1.367,1.37 2.738,2.74 3.422,4.79 l 19.148,-49.24 v 0 l 4.785,-10.94 v 0 c 0,-0.69 0.688,-0.69 0.688,-0.69 0.683,-1.36 1.367,-2.73 2.05,-3.42 0.684,-0.68 2.735,-1.37 4.786,-2.05 V 1310 h -25.989 v 2.05 c 3.422,0 5.473,0 6.84,0.68 1.367,0 2.051,0.69 2.051,2.06 0,0.68 -0.684,1.37 -0.684,2.05 0,0.68 0,1.37 -0.683,2.73 l -6.157,15.73 h -21.882 l -6.157,-17.09 v -0.69 c 0,-0.68 -0.683,-0.68 -0.683,-1.36 0,-0.69 0.683,-2.06 1.367,-2.74 1.367,-0.69 3.422,-1.37 6.84,-1.37 V 1310 h -17.781 v 2.05 c 2.05,0.68 3.418,1.37 4.105,2.05 0.684,0.69 2.051,2.06 2.051,3.42 0,0.69 0.683,0.69 0.683,1.37 0,0.68 0.684,1.37 0.684,2.05 z m 0.683,-4.11 -8.89,-25.3 h 19.148 z"
         style="fill:#231f20;fill-opacity:1;fill-rule:evenodd;stroke:none"
         id="path70" /><path
         d="m 682.309,273.77 v 12.308 c 0,2.055 -0.684,4.789 -0.684,5.473 -0.684,1.367 -3.418,2.051 -6.836,2.051 v 2.054 h 25.988 c 6.153,0 11.625,-1.371 15.727,-3.422 4.105,-2.05 6.156,-6.156 6.156,-11.625 0,-4.105 -1.367,-7.523 -3.418,-10.257 -2.054,-2.055 -4.789,-4.106 -7.523,-4.789 h -0.684 v 0 c 0.684,0 1.367,-0.684 2.051,-0.684 0.684,0 2.051,-0.684 2.734,-0.684 2.739,-1.367 5.473,-3.418 7.524,-6.156 2.734,-2.051 4.105,-6.152 4.105,-10.941 0,-4.789 -1.371,-8.207 -4.105,-10.258 -2.735,-2.051 -5.473,-4.106 -8.891,-5.473 -1.367,-0.683 -4.101,-1.367 -5.473,-1.367 -2.05,0 -4.101,0 -4.785,0 h -29.406 v 2.051 c 3.418,0 6.152,0.683 6.836,1.367 0,1.371 0.684,3.422 0.684,7.523 0,0.684 0,0.684 0,1.368 v 0.683 z m 34.195,-25.989 c 0,5.473 -1.367,9.574 -4.102,10.942 -2.734,2.054 -6.156,3.422 -9.574,3.422 -0.683,0 -2.051,0 -2.051,0 -0.687,0 -2.054,0 -2.738,0 h -0.684 -0.683 c -0.684,0 -2.051,0 -2.734,0 -0.684,0 -1.368,0.683 -2.051,0.683 v -25.305 c 0,-2.05 0.683,-3.421 2.051,-4.105 2.05,-0.684 3.417,-1.367 5.468,-1.367 v 0 h 0.684 c 0.687,0 2.055,0 2.738,0 0.684,0 1.367,0.683 2.051,0.683 3.418,0 6.156,1.368 8.207,4.106 2.734,2.734 3.418,6.152 3.418,10.941 z m -24.617,45.821 v -28.723 h 0.683 0.684 v 0 h 0.684 c 6.839,0 11.625,1.367 14.359,4.101 3.422,3.422 4.789,6.84 4.789,10.946 0,5.469 -1.367,8.89 -4.106,10.258 -2.734,2.05 -6.152,3.418 -10.257,3.418 -0.684,0 -1.368,0 -2.735,0 -0.683,0 -2.05,0 -2.734,0 h -0.684 -0.683"
         style="fill:#231f20;fill-opacity:1;fill-rule:evenodd;stroke:none"
         id="path72" /><path
         d="m 475.73,1012.49 c 0,4.11 -0.683,6.84 -2.05,7.53 -1.371,0.68 -4.106,1.36 -6.84,1.36 v 2.74 h 36.246 c 0,0 0.684,0 1.367,0 0,0 0.684,0 1.367,0 6.157,-0.68 12.996,-2.74 18.465,-6.16 5.473,-4.1 8.207,-9.57 8.207,-16.41 0,-7.523 -2.051,-12.991 -5.469,-15.73 -3.421,-3.418 -8.207,-6.152 -13.679,-7.523 1.367,-1.367 3.422,-3.418 5.472,-6.152 2.051,-2.055 4.102,-4.79 6.153,-7.524 0.687,-0.683 1.371,-2.051 1.371,-2.734 0.683,-0.688 1.367,-2.055 2.051,-2.739 0.683,0 1.367,-0.683 1.367,-1.367 0.683,-0.683 0.683,-1.367 0.683,-2.051 1.368,-1.367 2.051,-2.738 2.735,-4.105 0.683,-1.367 2.054,-2.734 2.738,-3.418 0.684,-2.051 2.051,-3.418 3.418,-4.105 1.367,-1.368 3.418,-2.051 5.473,-2.051 0.683,0 1.367,0 1.367,0 0,0 0.683,0.683 1.367,0.683 V 940 h -21.883 c -0.687,1.367 -2.054,4.102 -2.738,5.473 -1.367,2.05 -2.734,4.101 -3.418,5.468 -0.684,0.684 -1.367,1.368 -2.051,2.051 0,0.688 -0.683,2.055 -1.371,2.738 -0.683,1.368 -2.051,2.735 -3.418,4.102 -0.683,1.367 -2.051,3.422 -3.418,4.789 -0.683,1.367 -2.054,2.734 -2.738,3.418 -0.684,1.367 -2.051,2.738 -2.734,3.422 -1.368,1.367 -4.102,2.734 -5.473,3.418 -2.734,0.684 -6.152,2.051 -10.258,2.051 v -25.989 c 0,-4.101 1.367,-6.839 2.738,-7.523 1.368,-0.684 4.786,-0.684 8.891,-0.684 V 940 H 466.84 v 2.734 c 0.683,0 1.367,-0.683 1.367,-0.683 0.684,0 1.367,0 1.367,0 2.735,0 4.789,0.683 5.473,2.051 0.683,1.371 0.683,3.421 0.683,6.156 v 0.683 c 0,0.684 0,1.368 0,1.368 z m 12.309,-32.822 c 0.684,0 1.367,0 2.051,0 0.687,0 1.371,0 2.055,0 h 0.683 c 0.684,0 1.367,0 1.367,0 0.684,0 1.368,0 1.368,0 0.683,0 1.367,0 1.367,0 5.472,0 10.258,2.051 14.363,4.785 4.785,2.051 7.523,7.524 7.523,14.363 0,0.684 0,1.364 0,2.054 0,0.68 0,1.36 0,2.05 -0.683,4.1 -2.05,8.21 -4.789,12.31 -2.734,3.42 -8.89,6.15 -17.097,6.15 -2.051,0 -4.785,-0.68 -6.153,-1.36 -1.371,-0.69 -2.738,-3.42 -2.738,-7.53 v -32.822"
         style="fill:#231f20;fill-opacity:1;fill-rule:evenodd;stroke:none"
         id="path74" /><path
         d="m 559.848,961.887 h 54.715 v -6.84 h -54.715 z m 0,16.41 h 54.715 v -6.836 h -54.715 v 6.836"
         style="fill:#231f20;fill-opacity:1;fill-rule:evenodd;stroke:none"
         id="path76" /><path
         d="m 635.762,944.102 c 0,2.054 0.683,3.421 2.051,4.789 1.371,1.367 3.421,2.05 6.156,2.05 2.051,0 3.418,-0.683 4.105,-1.367 1.367,-1.367 2.051,-2.734 2.051,-3.418 v -0.683 c 0,-0.684 0.684,-1.371 0.684,-1.371 0,0 0,-0.684 0,-1.368 0,0 -0.684,-0.683 -0.684,-1.367 -0.684,-1.367 -1.367,-1.367 -2.738,-2.051 -1.367,-1.367 -2.735,-2.05 -4.785,-2.05 h -0.684 l -0.684,0.683 c -1.367,0 -2.738,0.684 -3.421,2.051 -1.368,0 -2.051,2.051 -2.051,4.102 z m 4.789,45.14 c 4.785,0 7.523,0 7.523,0 0,0 1.367,0.684 4.102,1.367 3.418,0 6.156,1.368 7.523,2.735 1.367,0.683 2.735,2.051 3.418,3.422 0.684,1.367 0.684,3.414 0.684,4.784 v 0.68 0 c 0,1.37 -0.684,3.43 -1.367,4.79 -0.684,1.37 -2.735,3.42 -4.102,3.42 -0.684,0.69 -2.051,1.37 -3.422,1.37 -1.367,0.68 -2.734,1.37 -4.101,1.37 -1.368,0 -2.735,0 -4.106,0 -0.683,0 -2.051,0.68 -2.734,0.68 h -0.684 v 0 0 c -1.367,0 -2.734,0.69 -3.418,1.37 -0.683,1.37 -1.371,2.05 -1.371,3.42 v 0 0.68 c 0,1.37 0.688,2.74 1.371,3.42 0.684,1.37 2.735,2.05 5.469,2.05 0,0 0.684,0 1.367,0 0.684,0 1.371,-0.68 2.055,-0.68 5.469,-1.37 10.258,-4.1 13.676,-8.21 3.421,-4.78 5.472,-10.25 5.472,-15.73 0,-5.469 -2.051,-9.571 -4.789,-13.676 -3.418,-3.418 -9.574,-5.469 -17.097,-5.469 l -1.368,-20.519 h -2.734 l -1.367,28.726"
         style="fill:#231f20;fill-opacity:1;fill-rule:evenodd;stroke:none"
         id="path78" /></g></g></svg>
