<?xml version="1.0" encoding="UTF-8" standalone="no"?>
<!-- Created with Inkscape (http://www.inkscape.org/) -->

<svg
   version="1.1"
   id="svg2"
   xml:space="preserve"
   width="190.66667"
   height="96"
   viewBox="0 0 190.66667 96"
   xmlns="http://www.w3.org/2000/svg"
   xmlns:svg="http://www.w3.org/2000/svg"><defs
     id="defs6" /><g
     id="g8"
     transform="matrix(1.3333333,0,0,-1.3333333,0,96)"><g
       id="g10"
       transform="scale(0.1)"><path
         d="M 6.89844,713.801 H 1425.3 V 5.39844 H 6.89844 Z"
         style="fill:none;stroke:#231f20;stroke-width:11.5;stroke-linecap:butt;stroke-linejoin:miter;stroke-miterlimit:11.4737;stroke-dasharray:none;stroke-opacity:1"
         id="path12" /><path
         d="m 904.699,332.199 h -329"
         style="fill:none;stroke:#231f20;stroke-width:14.4;stroke-linecap:butt;stroke-linejoin:miter;stroke-miterlimit:11.4737;stroke-dasharray:none;stroke-opacity:1"
         id="path14" /><path
         d="M 740.602,332.199 V 538.898"
         style="fill:none;stroke:#231f20;stroke-width:8.6;stroke-linecap:butt;stroke-linejoin:miter;stroke-miterlimit:11.4737;stroke-dasharray:none;stroke-opacity:1"
         id="path16" /><path
         d="m 863,332.199 v -82.801 h 248.4"
         style="fill:none;stroke:#231f20;stroke-width:8.6;stroke-linecap:butt;stroke-linejoin:miter;stroke-miterlimit:11.4737;stroke-dasharray:none;stroke-opacity:1"
         id="path18" /><path
         d="M 616.699,332.199 V 249.398 H 369"
         style="fill:none;stroke:#231f20;stroke-width:8.6;stroke-linecap:butt;stroke-linejoin:miter;stroke-miterlimit:11.4737;stroke-dasharray:none;stroke-opacity:1"
         id="path20" /><path
         d="m 740.602,476.199 v -88.5"
         style="fill:none;stroke:#231f20;stroke-width:2.9;stroke-linecap:butt;stroke-linejoin:miter;stroke-miterlimit:11.4737;stroke-dasharray:none;stroke-opacity:1"
         id="path22" /><path
         d="M 740.602,351.699 760.699,433 C 747,421.5 734.102,421.5 720.398,433 l 20.204,-81.301"
         style="fill:#231f20;fill-opacity:1;fill-rule:evenodd;stroke:none"
         id="path24" /><path
         d="m 797.609,513.484 c -1.043,4.188 -3.136,7.848 -5.754,10.465 -3.136,3.141 -6.8,4.707 -11.511,4.707 -6.278,0 -10.985,-2.613 -14.649,-7.847 -3.136,-4.707 -5.23,-10.465 -5.23,-16.219 v -0.524 -0.523 0 -0.523 c 0,-5.754 1.57,-10.985 4.707,-15.696 3.141,-4.707 7.848,-6.801 13.605,-6.801 3.661,0 6.278,0.524 8.371,2.094 2.09,1.571 3.137,4.184 3.137,7.324 v 5.231 c 0,2.617 0,4.187 -0.523,4.711 -0.524,1.047 -2.614,1.57 -6.278,1.57 v 1.567 h 20.407 v -1.567 c -0.524,0 -1.047,0 -1.571,0 0,0 -0.523,-0.523 -1.047,-0.523 -1.046,0 -2.093,-1.047 -2.617,-1.571 0,-0.523 -0.523,-2.093 -0.523,-4.711 v -10.46 c -0.524,0 -1.043,-0.524 -1.567,-1.047 -0.523,-0.524 -1.57,-0.524 -2.093,-1.047 -1.571,-1.047 -3.664,-1.571 -5.754,-2.094 -2.617,-0.523 -5.758,-1.57 -8.895,-1.57 h -0.523 c -0.524,0 -1.047,0 -1.047,0 -7.324,0 -13.082,1.57 -16.742,5.234 -4.188,3.66 -6.805,7.848 -7.848,12.031 -0.523,1.047 -1.047,2.618 -1.047,3.664 0,1.047 0,2.094 0,3.137 0,10.465 2.613,17.789 8.371,21.977 5.754,4.183 12.555,6.277 19.356,6.277 0.523,0 1.047,0 1.047,0 h 0.523 c 2.617,0 4.711,-0.523 6.805,-1.57 2.613,-1.047 4.707,-2.614 6.277,-4.184 l 3.137,4.184 h 1.047 l 0.523,-15.696 h -2.094"
         style="fill:#231f20;fill-opacity:1;fill-rule:evenodd;stroke:none"
         id="path26" /><path
         d="m 1049.42,200.344 v 14.652 c 0,0.524 0,0.524 0,0.524 v 0.523 c 0,1.047 -0.53,1.566 -0.53,2.09 -0.52,0.523 -2.61,0.523 -4.7,0.523 v 1.571 c 2.09,0 4.7,0.523 6.8,0.523 2.09,0 4.18,0 6.28,0 2.61,0 4.7,0 6.8,0 2.09,0 4.71,0 6.27,0 9.42,-0.523 16.23,-3.141 20.41,-7.324 4.71,-4.188 6.8,-9.418 6.8,-16.219 v -0.523 -0.524 c 0,-9.941 -2.61,-16.742 -8.37,-20.406 -5.75,-4.184 -12.03,-5.754 -19.36,-5.754 h -25.63 v 1.57 c 2.09,0 3.66,0.524 4.18,2.094 0.52,1.566 1.05,4.184 1.05,7.848 z m 7.32,12.558 v -34.531 c 0,-3.141 1.05,-5.23 2.62,-5.754 1.57,-0.523 3.66,-1.047 6.8,-1.047 5.75,0 10.99,2.094 15.7,5.754 4.71,3.664 7.32,9.942 7.32,18.836 0,6.278 -1.57,10.988 -3.66,14.125 -2.62,3.664 -5.23,5.758 -8.37,7.324 -2.1,1.047 -4.71,1.571 -6.81,1.571 -1.56,0.523 -3.66,0.523 -4.18,0.523 -0.52,0 -1.05,0 -1.05,0 -0.52,0 -1.04,0 -1.04,0 -3.66,0 -5.76,-0.523 -6.28,-1.57 -0.52,-1.043 -1.05,-3.137 -1.05,-5.231"
         style="fill:#231f20;fill-opacity:1;fill-rule:evenodd;stroke:none"
         id="path28" /><path
         d="m 372.617,195.695 h 2.09 v 0 0 -0.523 -0.524 c 0,-3.136 1.047,-6.277 3.141,-8.371 2.093,-2.613 4.711,-4.183 7.324,-5.23 0.523,0 1.047,0 1.57,0 0.524,0 1.047,-0.524 1.571,-0.524 v 0 l 0.523,0.524 v 0 h 0.523 c 0.524,0 1.047,0 1.571,0 0.523,0 1.566,0 2.09,0 1.57,0.523 3.14,1.57 4.71,3.141 1.047,1.566 2.094,4.183 2.094,7.324 0,2.613 -0.523,4.707 -2.094,5.754 -1.57,1.047 -3.14,2.093 -4.71,2.617 -1.567,0.523 -2.614,1.047 -3.661,1.57 -1.57,0 -2.617,0.52 -3.14,0.52 v 0 c -0.524,0 -0.524,0.523 -1.047,0.523 -0.524,0 -1.047,0.524 -1.047,0.524 -3.137,1.046 -5.754,2.617 -7.324,4.71 -1.571,1.571 -2.613,4.708 -2.613,9.418 0,3.661 1.566,6.801 3.136,8.372 2.094,2.089 4.188,4.183 6.801,4.707 0.523,0.523 2.094,1.046 2.617,1.046 1.047,0 2.094,0 3.141,0 h 0.523 0.524 c 1.566,0 2.613,-0.523 4.183,-0.523 1.047,-0.523 2.094,-1.047 3.141,-1.57 0.523,0 1.57,-0.524 2.09,-0.524 0.523,-0.523 1.57,-1.566 2.094,-1.566 l 1.57,2.09 h 1.047 v -15.696 h -1.047 c -0.524,5.235 -2.094,9.418 -4.707,12.036 -2.094,2.613 -5.235,4.183 -8.895,4.183 h -0.523 v 0 c -2.617,0 -4.711,-1.047 -6.805,-3.137 -1.566,-2.093 -2.613,-4.711 -2.613,-7.328 v 0 -0.519 c 0,-1.571 0.523,-3.664 1.047,-5.235 1.047,-1.57 3.136,-2.617 5.23,-3.66 h 0.524 0.523 c 1.047,-0.523 2.094,-1.047 3.141,-1.047 1.043,-0.523 2.613,-0.523 4.183,-1.047 3.141,-1.046 5.754,-2.617 8.371,-4.71 2.094,-2.09 3.664,-5.231 3.664,-9.418 0,-4.707 -1.57,-8.372 -4.187,-10.461 -3.137,-2.094 -6.801,-3.141 -9.941,-3.141 -0.524,0 -1.567,-0.523 -1.567,-0.523 -0.523,0 -1.57,0 -1.57,0 -3.141,0 -5.758,0.523 -7.848,1.046 -2.094,0.524 -4.187,1.571 -5.758,2.618 l -2.613,-2.618 h -1.047 v 15.172"
         style="fill:#231f20;fill-opacity:1;fill-rule:evenodd;stroke:none"
         id="path30" /></g></g></svg>
