<?xml version="1.0" encoding="UTF-8" standalone="no"?>
<!-- Created with Inkscape (http://www.inkscape.org/) -->

<svg
   version="1.1"
   id="svg2"
   xml:space="preserve"
   width="190.66667"
   height="190.66667"
   viewBox="0 0 190.66667 190.66667"
   xmlns="http://www.w3.org/2000/svg"
   xmlns:svg="http://www.w3.org/2000/svg"><defs
     id="defs6" /><g
     id="g8"
     transform="matrix(1.3333333,0,0,-1.3333333,0,190.66667)"><g
       id="g10"
       transform="scale(0.1)"><path
         d="M 217.398,148.5 H 1281.5 v 56.898"
         style="fill:none;stroke:#231f20;stroke-width:8.6;stroke-linecap:butt;stroke-linejoin:miter;stroke-miterlimit:11.4737;stroke-dasharray:none;stroke-opacity:1"
         id="path12" /><path
         d="m 1281.5,432.199 v 56.102 H 217.398"
         style="fill:none;stroke:#231f20;stroke-width:8.6;stroke-linecap:butt;stroke-linejoin:miter;stroke-miterlimit:11.4737;stroke-dasharray:none;stroke-opacity:1"
         id="path14" /><path
         d="m 1254.9,432.199 h 54 V 205.398 h -54 z"
         style="fill:none;stroke:#231f20;stroke-width:14.4;stroke-linecap:butt;stroke-linejoin:miter;stroke-miterlimit:11.4737;stroke-dasharray:none;stroke-opacity:1"
         id="path16" /><path
         d="m 221.785,336.793 -6.933,-7.918 h -1.387 l 5.547,16.559 h 38.125 l -27.035,-41.036 v 0 l -8.317,-12.957 h 17.328 c 2.774,0 4.856,0 6.239,0.719 0.695,0 2.773,0.719 3.468,1.438 0.692,0.722 1.387,1.441 1.387,2.16 0.691,0.722 1.387,1.441 2.77,2.883 l 5.546,7.918 h 1.387 L 254.363,290 h -39.511 v 0 h -4.161 l 27.731,40.313 v 0 l 9.012,12.96 h -16.637 c -1.387,0 -2.774,-0.722 -4.16,-1.441 -1.387,-0.719 -2.774,-2.16 -3.465,-2.879 -0.695,-0.719 -0.695,-0.719 -0.695,-1.441 0,0 -0.692,0 -0.692,-0.719"
         style="fill:#231f20;fill-opacity:1;fill-rule:evenodd;stroke:none"
         id="path18" /><path
         d="m 945.25,361.988 c 0,3.602 -1.387,6.481 -2.078,6.481 -1.387,1.441 -4.16,2.16 -6.238,2.16 v 2.879 h 33.964 c 0,0 0.696,0 1.387,0 0,0 0.692,-0.719 1.387,-0.719 6.238,0 12.476,-2.16 17.328,-5.758 5.547,-4.32 8.32,-9.359 8.32,-16.558 0,-7.2 -2.078,-12.239 -5.547,-15.118 -3.464,-3.601 -7.625,-5.761 -13.168,-7.921 1.383,-1.438 3.465,-2.879 5.543,-5.758 1.387,-2.16 3.465,-5.039 5.547,-7.199 0.692,-0.719 1.387,-2.161 1.387,-2.879 0.691,-0.719 1.387,-1.442 2.078,-2.879 0,0 0.695,-0.723 1.387,-1.442 0,0 0.695,-0.718 0.695,-1.441 0.692,-1.438 2.078,-2.879 2.768,-4.316 0,-1.442 1.39,-2.879 2.08,-3.602 0.7,-1.438 2.08,-2.879 3.47,-4.32 0.69,-0.719 2.77,-1.438 5.55,-1.438 h 0.69 c 0,0 0.69,0.719 1.38,0.719 V 290 h -20.793 c -0.692,1.441 -2.078,3.598 -2.774,5.758 -0.691,1.441 -2.078,3.601 -3.465,5.039 0,0.723 -0.691,1.441 -1.386,2.16 -0.692,0.723 -1.387,1.441 -1.387,2.16 -0.691,1.442 -2.078,2.879 -2.77,4.321 -1.386,1.441 -2.773,3.597 -3.468,5.039 -1.387,1.441 -2.078,2.16 -2.774,3.597 -0.691,0.723 -2.078,2.16 -2.769,2.883 -1.387,1.438 -3.469,2.879 -5.547,3.598 -2.078,0.718 -5.547,1.441 -9.012,2.16 v -25.918 c 0,-4.317 0.692,-6.477 2.078,-7.199 1.387,-0.719 4.856,-0.719 9.012,-0.719 V 290 h -31.191 v 2.879 c 0,0 0.691,-0.719 1.386,-0.719 h 0.692 c 2.773,0 4.851,0.719 4.851,2.16 0.696,1.438 1.387,3.598 1.387,5.758 v 0.719 c 0,0.723 0,0.723 0,0.723 z m 11.785,-32.394 c 0.692,0 0.692,0 1.387,0 0.691,0 1.387,-0.719 2.078,-0.719 h 0.695 c 0.692,0 1.387,0 1.387,0 0.691,0 0.691,0 1.387,0 0,0 0.691,0.719 1.383,0.719 4.855,0 9.707,1.441 13.867,4.32 4.156,2.16 6.929,7.199 6.929,14.399 0,0.718 0,1.437 0,2.16 0,0.718 0,0.718 0,1.437 -0.691,4.32 -2.773,8.641 -4.851,12.238 -2.774,3.602 -8.32,5.762 -15.945,6.481 -2.079,0 -4.852,-0.719 -6.239,-1.441 -1.386,-0.719 -2.078,-3.598 -2.078,-7.2 v -32.394"
         style="fill:#231f20;fill-opacity:1;fill-rule:evenodd;stroke:none"
         id="path20" /><path
         d="m 1062.4,311.598 h 51.3 v -7.2 h -51.3 z m 0,15.836 h 51.3 v -6.477 h -51.3 v 6.477"
         style="fill:#231f20;fill-opacity:1;fill-rule:evenodd;stroke:none"
         id="path22" /><path
         d="m 1171.23,294.32 c 0,1.438 0.7,3.598 2.08,4.321 1.39,1.437 3.47,2.156 5.55,2.156 2.08,0 3.46,-0.719 4.16,-1.438 1.39,-0.718 2.08,-2.16 2.08,-3.601 v -0.719 -0.719 c 0,-0.722 0,-1.441 0,-1.441 0,0 0,-0.719 0,-1.438 -0.69,-1.441 -1.39,-1.441 -2.78,-2.16 -0.69,-1.441 -2.77,-2.16 -4.16,-2.16 h -0.69 c -0.69,0 -0.69,0.719 -0.69,0.719 -1.39,0 -2.77,0.719 -3.47,2.16 -1.38,0 -2.08,2.16 -2.08,4.32 z m 4.86,44.633 c 4.16,0 6.93,0 6.93,0 0,0 1.39,0 4.16,0.719 2.77,0.723 5.54,1.441 6.93,2.879 1.39,0.722 2.08,2.16 2.77,3.601 0.69,1.442 1.39,2.879 1.39,5.039 v 0 0 c 0,2.161 -1.39,3.602 -2.08,5.039 0,1.442 -2.08,2.879 -3.47,3.602 -0.69,0.719 -2.08,1.438 -3.46,1.438 -1.39,0 -2.08,0.718 -3.47,0.718 -1.38,0 -2.77,0.723 -3.47,0.723 -1.38,0 -2.77,0 -3.46,0 v 0 0 h -0.7 c -1.38,0 -2.07,0.719 -2.77,1.437 -0.69,1.442 -1.38,2.161 -1.38,3.602 v 0 0.719 c 0,0.719 0.69,2.16 1.38,3.601 0.7,0.719 2.77,1.438 4.86,1.438 0,0 0.69,0 1.38,0 0.69,0 1.39,0 2.08,0 4.85,-1.438 9.71,-5.039 12.48,-8.637 3.47,-5.039 5.54,-10.078 5.54,-15.84 0,-5.039 -1.38,-9.359 -4.85,-12.957 -2.77,-3.601 -8.32,-5.761 -15.94,-5.761 l -1.39,-20.157 h -2.77 l -0.69,28.797"
         style="fill:#231f20;fill-opacity:1;fill-rule:evenodd;stroke:none"
         id="path24" /><path
         d="M 5.69922,1423.6 H 1421.9 V 6.60156 H 5.69922 Z"
         style="fill:none;stroke:#231f20;stroke-width:11.5;stroke-linecap:butt;stroke-linejoin:miter;stroke-miterlimit:11.4737;stroke-dasharray:none;stroke-opacity:1"
         id="path26" /><path
         d="M 146.102,1233.5 V 1042"
         style="fill:none;stroke:#231f20;stroke-width:5.8;stroke-linecap:butt;stroke-linejoin:miter;stroke-miterlimit:11.4737;stroke-dasharray:none;stroke-opacity:1"
         id="path28" /><path
         d="m 146.102,1268.8 20.097,-79.9 c -13.597,11.5 -26.597,11.5 -40.301,0 l 20.204,79.9"
         style="fill:#231f20;fill-opacity:1;fill-rule:evenodd;stroke:none"
         id="path30" /><path
         d="M 1301,645.301 H 1109.4"
         style="fill:none;stroke:#231f20;stroke-width:5.8;stroke-linecap:butt;stroke-linejoin:miter;stroke-miterlimit:11.4737;stroke-dasharray:none;stroke-opacity:1"
         id="path32" /><path
         d="m 1336.2,645.301 -79.9,-20.903 c 11.5,13.704 11.5,28.102 0,41.801 l 79.9,-20.898"
         style="fill:#231f20;fill-opacity:1;fill-rule:evenodd;stroke:none"
         id="path34" /><path
         d="M 203,1268.8 V 701.402 H 1336.2 V 1268.8"
         style="fill:none;stroke:#231f20;stroke-width:8.6;stroke-linecap:butt;stroke-linejoin:miter;stroke-miterlimit:11.4737;stroke-dasharray:none;stroke-opacity:1"
         id="path36" /><path
         d="m 110.395,1136.07 c 0,2.88 -1.442,5.04 -2.883,5.76 -2.157,0.72 -4.317,1.44 -5.758,1.44 v 2.16 h 17.277 v -2.16 c -2.16,0 -4.32,-0.72 -5.039,-1.44 -0.719,-0.72 -1.441,-2.88 -2.16,-5.76 v -30.23 c 0,-6.48 -1.437,-11.52 -5.039,-14.4 -3.598,-1.44 -7.918,-3.6 -13.6758,-3.6 -8.6406,0 -14.3984,1.44 -16.5586,3.6 -3.6016,3.6 -5.0391,7.2 -5.7617,10.8 0,0.72 0,1.44 0,2.88 0,0.72 -0.7188,1.44 -0.7188,2.16 v 28.79 c 0,0.72 0,0.72 0,0.72 0,0.72 0,0.72 0,0.72 0,0.72 0,0.72 0,0.72 0,0.72 0,0.72 0,0.72 0,1.44 0,2.16 -0.7187,2.88 -0.7188,0.72 -2.1602,1.44 -5.0391,1.44 v 2.16 h 20.875 v -2.16 h -0.7187 v 0 c -2.8789,0 -5.0391,-0.72 -5.0391,-2.16 -0.7187,-2.16 -0.7187,-5.04 -0.7187,-7.91 v -25.92 c 0,-6.48 0.7187,-10.8 3.5976,-13.68 2.1602,-2.16 5.7578,-3.6 10.8008,-3.6 0.7187,0 2.1562,0 2.8789,0 1.4375,0 3.5977,0 5.0389,0.72 2.16,0.72 4.32,2.16 6.477,4.32 1.441,2.88 2.883,6.48 2.883,11.52 v 29.51"
         style="fill:#231f20;fill-opacity:1;fill-rule:evenodd;stroke:none"
         id="path38" /><path
         d="m 1197.92,580.234 v 14.399 c 0,2.16 -0.72,4.32 -0.72,4.32 -0.72,0.719 -2.16,1.442 -4.32,2.16 v 0.719 l 11.52,3.602 v -41.036 0 -7.918 c 0,-1.441 0,-2.882 0,-3.601 0.72,-0.719 1.44,-1.438 2.88,-1.438 0.72,0 0.72,0 0.72,0 0.72,0 0.72,0 0.72,0 V 550 h -15.84 v 1.441 c 2.16,0 3.6,0 4.32,0.719 0,0.719 0.72,2.16 0.72,4.32 v 23.754"
         style="fill:#231f20;fill-opacity:1;fill-rule:evenodd;stroke:none"
         id="path40" /><path
         d="m 172.16,635.195 c 0,7.922 1.438,14.399 4.32,19.438 2.879,4.32 6.477,7.918 10.079,8.64 0.718,0 1.437,0.719 1.437,0.719 0.723,0 1.442,0 1.442,0 4.32,0 7.917,-1.441 10.078,-5.039 2.879,-3.598 5.039,-7.199 6.48,-11.519 0,-1.438 0.719,-3.598 0.719,-5.758 0.719,-1.442 0.719,-3.602 0.719,-5.039 0,-7.199 -1.438,-12.957 -2.879,-16.559 -2.16,-4.32 -4.321,-7.199 -6.481,-8.637 C 196.637,610 195.195,610 193.758,610 c -1.442,-0.719 -2.879,-0.719 -3.602,-0.719 -5.039,0 -9.359,1.438 -12.238,5.758 -3.598,5.039 -5.758,11.52 -5.758,20.156 z m 28.074,1.442 c 0,1.437 0,2.16 0,2.16 0,0 -0.718,0.719 -0.718,2.879 0,1.441 0,3.597 -0.719,5.039 -0.723,3.598 -1.442,7.199 -2.879,10.797 -1.441,2.883 -3.602,4.32 -5.762,4.32 v 0 0 h -0.718 c -2.161,0 -4.321,-1.437 -5.758,-4.32 -1.442,-2.879 -2.883,-6.477 -2.883,-10.078 -0.719,-1.438 -0.719,-4.317 -0.719,-6.477 0,-2.16 -0.719,-3.602 -0.719,-5.039 0,-9.359 1.438,-16.559 3.598,-20.16 2.16,-3.598 4.32,-5.758 7.199,-5.758 2.879,0 5.762,2.879 7.199,7.199 1.442,5.039 2.161,10.797 2.161,16.559 0,0.719 0.718,0.719 0.718,1.437 0,0.723 0,0.723 0,1.442"
         style="fill:#231f20;fill-opacity:1;fill-rule:evenodd;stroke:none"
         id="path42" /><path
         d="m 485.898,701.402 v 0 c 0,234.797 127.5,426.298 283.704,426.298 156.199,0 280.798,-191.501 283.698,-426.298 C 1056.2,935.398 1180.7,1127 1337,1127"
         style="fill:none;stroke:#231f20;stroke-width:14.4;stroke-linecap:butt;stroke-linejoin:miter;stroke-miterlimit:11.4737;stroke-dasharray:none;stroke-opacity:1"
         id="path44" /><path
         d="M 486.602,701.402 C 486.602,936.199 359.199,1127.7 203,1127.7"
         style="fill:none;stroke:#231f20;stroke-width:14.4;stroke-linecap:butt;stroke-linejoin:miter;stroke-miterlimit:11.4737;stroke-dasharray:none;stroke-opacity:1"
         id="path46" /><path
         d="M 1018,1211.9 H 521.898"
         style="fill:none;stroke:#231f20;stroke-width:5.8;stroke-linecap:butt;stroke-linejoin:miter;stroke-miterlimit:11.4737;stroke-dasharray:none;stroke-opacity:1"
         id="path48" /><path
         d="M 1053.3,1211.9 973.398,1191 c 11.5,13.7 11.5,28.1 0,41.8 l 79.902,-20.9"
         style="fill:#231f20;fill-opacity:1;fill-rule:evenodd;stroke:none"
         id="path50" /><path
         d="m 485.898,1211.9 81.403,-20.9 c -11.5,13.7 -11.5,28.1 0,41.8 l -81.403,-20.9"
         style="fill:#231f20;fill-opacity:1;fill-rule:evenodd;stroke:none"
         id="path52" /><path
         d="M 1302.4,1211.9 H 1089.3"
         style="fill:none;stroke:#231f20;stroke-width:5.8;stroke-linecap:butt;stroke-linejoin:miter;stroke-miterlimit:11.4737;stroke-dasharray:none;stroke-opacity:1"
         id="path54" /><path
         d="m 1337.7,1211.9 -79.9,-20.9 c 11.5,13.7 11.5,28.1 0,41.8 l 79.9,-20.9"
         style="fill:#231f20;fill-opacity:1;fill-rule:evenodd;stroke:none"
         id="path56" /><path
         d="m 1053.3,1211.9 81.3,-20.9 c -11.5,13.7 -11.5,28.1 0,41.8 l -81.3,-20.9"
         style="fill:#231f20;fill-opacity:1;fill-rule:evenodd;stroke:none"
         id="path58" /><path
         d="M 1053.3,843.301 V 1236.4"
         style="fill:none;stroke:#231f20;stroke-width:2.9;stroke-linecap:butt;stroke-linejoin:miter;stroke-miterlimit:11.4737;stroke-dasharray:none;stroke-opacity:1"
         id="path60" /><path
         d="M 486.602,1239.3 V 843.301"
         style="fill:none;stroke:#231f20;stroke-width:2.9;stroke-linecap:butt;stroke-linejoin:miter;stroke-miterlimit:11.4737;stroke-dasharray:none;stroke-opacity:1"
         id="path62" /><g
         id="g64"
         transform="scale(10)"><text
           transform="matrix(1,0,0,-1,71.0969,123)"
           style="font-variant:normal;font-weight:normal;font-size:7.99089px;font-family:Symbol;-inkscape-font-specification:Symbol;writing-mode:lr-tb;fill:#231f20;fill-opacity:1;fill-rule:nonzero;stroke:none"
           id="text68"><tspan
             x="0 5.1832023 7.9187508 41.999977 47.183178 49.91872"
             y="0"
             id="tspan66">λ/2λ/4</tspan></text></g></g></g></svg>
