<?xml version="1.0" encoding="UTF-8" standalone="no"?>
<!-- Created with Inkscape (http://www.inkscape.org/) -->

<svg
   version="1.1"
   id="svg2"
   xml:space="preserve"
   width="214.66667"
   height="100"
   viewBox="0 0 214.66667 100"
   xmlns="http://www.w3.org/2000/svg"
   xmlns:svg="http://www.w3.org/2000/svg"><defs
     id="defs6" /><g
     id="g8"
     transform="matrix(1.3333333,0,0,-1.3333333,0,100)"><g
       id="g10"
       transform="scale(0.1)"><path
         d="M 96.8008,91.8008 H 1515.2 V 657.801 H 96.8008 Z"
         style="fill:none;stroke:#231f20;stroke-width:11.5;stroke-linecap:butt;stroke-linejoin:miter;stroke-miterlimit:11.4737;stroke-dasharray:none;stroke-opacity:1"
         id="path12" /><path
         d="m 577.801,376.199 c 0.699,31 25.898,56.199 56.801,56.199 31,0 56.199,-24.5 56.898,-56.199"
         style="fill:none;stroke:#231f20;stroke-width:14.4;stroke-linecap:butt;stroke-linejoin:miter;stroke-miterlimit:11.4737;stroke-dasharray:none;stroke-opacity:1"
         id="path14" /><path
         d="m 691.5,377 c 0.699,30.898 25.898,56.102 56.898,56.102 31,0 56.204,-24.5 56.903,-56.102"
         style="fill:none;stroke:#231f20;stroke-width:14.4;stroke-linecap:butt;stroke-linejoin:miter;stroke-miterlimit:11.4737;stroke-dasharray:none;stroke-opacity:1"
         id="path16" /><path
         d="m 804.602,377 c 0.699,30.898 25.898,56.102 56.8,56.102 30.996,0 56.2,-24.5 56.899,-56.102"
         style="fill:none;stroke:#231f20;stroke-width:14.4;stroke-linecap:butt;stroke-linejoin:miter;stroke-miterlimit:11.4737;stroke-dasharray:none;stroke-opacity:1"
         id="path18" /><path
         d="m 918.301,377 c 0.699,30.898 25.898,56.102 56.898,56.102 31.001,0 56.201,-24.5 56.901,-56.102"
         style="fill:none;stroke:#231f20;stroke-width:14.4;stroke-linecap:butt;stroke-linejoin:miter;stroke-miterlimit:11.4737;stroke-dasharray:none;stroke-opacity:1"
         id="path20" /><path
         d="m 578.5,376.199 h -283"
         style="fill:none;stroke:#231f20;stroke-width:8.6;stroke-linecap:round;stroke-linejoin:miter;stroke-miterlimit:11.4737;stroke-dasharray:none;stroke-opacity:1"
         id="path22" /><path
         d="m 1315.8,376.199 h -283"
         style="fill:none;stroke:#231f20;stroke-width:8.6;stroke-linecap:round;stroke-linejoin:miter;stroke-miterlimit:11.4737;stroke-dasharray:none;stroke-opacity:1"
         id="path24" /></g></g></svg>
