<?xml version="1.0" encoding="UTF-8" standalone="no"?>
<!-- Created with Inkscape (http://www.inkscape.org/) -->

<svg
   version="1.1"
   id="svg2"
   xml:space="preserve"
   width="214.66667"
   height="213.33333"
   viewBox="0 0 214.66667 213.33333"
   xmlns="http://www.w3.org/2000/svg"
   xmlns:svg="http://www.w3.org/2000/svg"><defs
     id="defs6" /><g
     id="g8"
     transform="matrix(1.3333333,0,0,-1.3333333,0,213.33333)"><g
       id="g10"
       transform="scale(0.1)"><path
         d="M 96.1992,1508.2 H 1513.1 V 91.3008 H 96.1992 Z"
         style="fill:none;stroke:#231f20;stroke-width:11.5;stroke-linecap:butt;stroke-linejoin:miter;stroke-miterlimit:11.4737;stroke-dasharray:none;stroke-opacity:1"
         id="path12" /><path
         d="m 957.098,899.926 v 20.515 c 0,4.106 -0.684,7.524 -1.368,9.575 -1.367,1.367 -5.472,2.05 -10.257,2.05 v 3.422 h 35.562 v -3.422 c -4.105,0 -7.523,-0.683 -8.89,-1.367 -1.368,-1.367 -2.739,-4.785 -2.739,-10.258 v -60.183 c 0,-3.418 1.371,-6.156 2.739,-6.84 1.367,-0.684 4.785,-0.684 8.89,-0.684 V 850 h -35.562 v 2.734 0 0 h 0.683 0.684 c 2.734,0 4.785,0 6.84,0.684 2.05,0.684 3.418,3.422 3.418,7.523 v 38.985"
         style="fill:#231f20;fill-opacity:1;fill-rule:evenodd;stroke:none"
         id="path14" /><path
         d="m 1022.07,910.867 c 0,2.735 -0.69,4.102 -1.37,4.789 -0.68,0.684 -1.37,1.367 -2.74,1.367 h -0.68 c -0.68,0 -1.37,0.684 -1.37,0.684 l -6.84,0.684 v 3.418 c 1.37,0 2.74,0 4.79,0.683 2.05,0.684 4.79,1.367 6.16,2.738 2.05,0.684 4.1,2.051 5.47,3.418 1.37,1.368 2.73,2.735 4.1,4.79 h 2.74 v -63.606 0 -4.785 c 0,-6.156 0.68,-10.258 1.37,-10.945 1.36,-0.684 3.41,-1.368 7.52,-1.368 0.68,0 1.37,0 1.37,0 h 0.68 V 850 h -32.83 v 2.734 c 0.69,0 1.37,0 2.05,0 0.69,0 1.37,0 2.06,0 3.41,0 5.47,0.684 6.15,2.055 0.68,1.367 1.37,4.785 1.37,10.258 v 45.82"
         style="fill:#231f20;fill-opacity:1;fill-rule:evenodd;stroke:none"
         id="path16" /><path
         d="m 1073.36,871.887 h 54.71 v -6.84 h -54.71 z m 0,16.41 h 54.71 v -6.836 h -54.71 v 6.836"
         style="fill:#231f20;fill-opacity:1;fill-rule:evenodd;stroke:none"
         id="path18" /><path
         d="m 1165.69,889.668 c 0.68,0.684 2.05,1.367 2.05,2.051 0.68,0.683 2.05,2.051 2.73,3.418 2.74,2.734 5.48,5.472 8.21,8.89 2.05,2.739 3.42,6.84 3.42,10.258 0,3.422 -1.37,6.156 -3.42,7.524 -2.05,1.367 -4.79,2.738 -8.21,2.738 -2.73,0 -5.47,-1.371 -8.2,-2.738 -2.74,-1.368 -5.47,-4.102 -8.21,-6.84 l -2.05,1.371 c 2.05,3.418 5.47,6.836 8.2,8.89 3.43,2.735 7.53,5.469 10.95,6.153 0.68,0 2.05,0.683 2.73,0.683 0.69,0 2.06,0 2.06,0 4.78,0 8.2,-0.683 10.94,-2.734 2.74,-2.051 4.1,-5.473 4.1,-9.574 0,-4.789 -1.36,-8.891 -4.1,-12.309 -2.74,-3.422 -6.16,-6.84 -9.58,-8.89 6.16,0 10.94,-2.739 15.05,-6.84 3.42,-4.106 6.16,-9.574 6.84,-14.364 v -0.683 -0.684 -0.683 c 0,0 0,-0.684 0,-1.367 v 0 l -0.68,-0.684 c 0,-5.473 -2.06,-10.262 -5.48,-13.68 -2.73,-2.734 -6.15,-6.156 -9.57,-7.523 -2.05,-1.367 -4.11,-2.051 -6.16,-2.051 -1.36,0 -3.42,-0.684 -4.78,-0.684 -1.37,0 -3.42,0 -4.79,0 -2.05,0 -4.79,0.684 -6.84,0.684 -1.37,0 -2.74,0 -4.1,0.684 -2.05,0.683 -3.42,1.367 -4.79,2.734 h -0.69 v 0.684 c -0.68,0.687 -2.05,2.054 -2.73,2.738 -0.68,0.683 -1.37,2.051 -1.37,2.734 v 0.684 c 0,0 0,0.683 0,1.367 0,0 0,0.684 0,1.367 0,0 0.69,0.688 0.69,1.371 0.68,0 1.36,0.684 1.36,0.684 0.69,0 1.37,0.683 2.05,0.683 h 0.69 c 0.68,0 1.37,-0.683 1.37,-0.683 0.68,-0.684 2.05,-1.367 2.73,-2.055 1.37,-0.683 2.05,-2.734 2.74,-4.101 1.36,-2.051 2.73,-4.102 4.79,-5.473 1.36,-1.367 4.1,-2.051 6.15,-2.051 0,0 0.68,0 1.37,0 0,0 0.68,0 1.37,0 4.1,0 8.2,2.735 10.94,6.84 2.73,4.102 4.78,8.891 4.78,14.363 v 0.684 0.684 0 0.683 c -0.68,4.102 -2.05,7.524 -4.78,9.574 -2.74,2.051 -5.47,3.418 -8.21,4.102 -1.37,0.683 -3.42,0.683 -5.47,0.683 -1.37,0 -2.74,0.688 -4.1,0.688"
         style="fill:#231f20;fill-opacity:1;fill-rule:evenodd;stroke:none"
         id="path20" /><path
         d="m 1247.75,924.547 -2.73,2.734 0.68,0.684 v 0 c 1.37,1.367 3.42,3.418 5.48,4.785 1.36,1.371 2.73,3.422 3.41,5.473 l 25.99,-63.602 v 0 l 5.47,-13.68 0.69,-0.683 v -0.684 c 0.68,-1.367 2.05,-2.734 2.73,-4.101 1.37,-1.371 3.42,-2.055 6.16,-2.739 V 850 h -32.83 v 2.734 c 3.42,0 6.84,0 8.21,0.684 1.37,0 2.73,1.371 2.73,3.422 0,0.683 -0.68,1.367 -0.68,2.051 0,0.683 -0.68,2.05 -0.68,3.418 l -8.21,19.836 h -28.72 l -7.53,-21.204 c 0,-0.683 0,-1.367 0,-1.367 0,-0.683 -0.68,-1.367 -0.68,-1.367 0,-1.367 0.68,-2.734 2.05,-3.418 0.68,-1.371 4.1,-2.055 8.21,-2.055 V 850 h -23.26 v 2.734 c 2.74,0.684 4.79,1.368 6.16,2.739 0.68,1.367 1.37,2.734 2.05,4.101 0,0.684 0.68,1.367 0.68,2.051 0.69,0.684 1.37,2.055 1.37,2.738 z m 1.37,-4.789 -11.62,-33.512 h 25.3 z"
         style="fill:#231f20;fill-opacity:1;fill-rule:evenodd;stroke:none"
         id="path22" /><path
         d="m 337.098,899.926 v 20.515 c 0,4.106 -0.684,7.524 -1.368,9.575 -1.367,1.367 -5.472,2.05 -10.257,2.05 v 3.422 h 35.562 v -3.422 c -4.105,0 -7.523,-0.683 -8.89,-1.367 -1.368,-1.367 -2.739,-4.785 -2.739,-10.258 v -60.183 c 0,-3.418 1.371,-6.156 2.739,-6.84 1.367,-0.684 4.785,-0.684 8.89,-0.684 V 850 h -35.562 v 2.734 0 0 h 0.683 0.684 c 2.734,0 4.785,0 6.84,0.684 2.05,0.684 3.418,3.422 3.418,7.523 v 38.985"
         style="fill:#231f20;fill-opacity:1;fill-rule:evenodd;stroke:none"
         id="path24" /><path
         d="m 382.234,907.449 c 0.684,1.367 1.368,3.418 2.735,5.469 1.371,2.051 2.738,4.105 4.789,6.84 2.051,3.418 5.472,6.156 8.89,8.89 3.418,2.735 7.524,4.102 11.625,4.79 5.473,0 10.262,-2.055 14.364,-4.106 4.101,-2.734 6.156,-7.523 6.156,-12.992 0,-3.422 -0.684,-7.524 -2.738,-10.262 -1.367,-2.734 -4.102,-6.152 -6.836,-8.89 -2.739,-2.735 -5.473,-6.153 -8.207,-8.208 -2.055,-2.05 -4.789,-4.785 -6.157,-6.835 -0.683,-0.684 -2.05,-2.055 -2.734,-2.739 -1.371,-1.367 -2.738,-2.734 -3.422,-3.418 l -0.683,-0.683 -0.684,-0.684 c -2.734,-2.734 -4.785,-5.473 -6.84,-8.207 -2.051,-2.051 -3.418,-4.789 -4.101,-7.523 h 27.355 c 2.734,0 6.156,0.683 8.207,2.05 1.367,1.368 3.418,4.106 4.785,6.84 h 3.422 l -8.89,-23.254 h -2.051 c 0,2.055 -0.684,4.106 -1.371,4.789 C 419.164,850 417.113,850 414.379,850 h -32.145 c 0,3.418 1.368,7.523 2.735,11.625 2.054,3.422 4.105,6.84 6.156,9.574 1.367,1.371 2.734,2.739 3.422,4.106 1.367,1.367 2.734,3.418 3.418,4.101 0.683,1.371 2.051,2.739 4.101,4.789 1.372,2.051 3.422,4.785 5.473,7.524 0.684,0 0.684,0.683 1.367,1.367 0,0.684 0.684,1.367 0.684,1.367 1.367,2.051 3.422,4.106 4.789,6.156 1.367,2.051 2.051,4.102 2.734,5.469 0,0.688 0.684,0.688 0.684,1.371 0,0.684 0.683,1.367 0.683,2.051 0,0.684 0.684,1.367 0.684,2.051 0,0.683 0,1.367 0,2.051 0,2.054 -0.684,5.472 -2.734,7.523 -1.367,2.051 -4.102,3.422 -8.207,4.105 v 0 l -0.684,0.684 h -0.684 -0.683 c -3.422,0 -6.84,-1.367 -9.574,-4.105 -2.739,-2.735 -5.473,-5.469 -7.524,-8.207 -0.683,-1.368 -1.367,-2.735 -2.051,-3.418 -0.683,-0.684 -1.367,-2.051 -2.054,-2.735 h -2.735"
         style="fill:#231f20;fill-opacity:1;fill-rule:evenodd;stroke:none"
         id="path26" /><path
         d="m 453.359,871.887 h 54.715 v -6.84 h -54.715 z m 0,16.41 h 54.715 v -6.836 h -54.715 v 6.836"
         style="fill:#231f20;fill-opacity:1;fill-rule:evenodd;stroke:none"
         id="path28" /><path
         d="m 529.957,907.449 c 0.684,1.367 1.367,3.418 2.734,5.469 1.372,2.051 2.739,4.105 4.789,6.84 2.051,3.418 5.473,6.156 8.891,8.89 3.418,2.735 7.524,4.102 11.625,4.79 5.473,0 10.258,-2.055 14.363,-4.106 4.102,-2.734 6.157,-7.523 6.157,-12.992 0,-3.422 -0.684,-7.524 -2.739,-10.262 -1.367,-2.734 -4.101,-6.152 -6.836,-8.89 -2.738,-2.735 -5.472,-6.153 -8.207,-8.208 -2.054,-2.05 -4.789,-4.785 -6.156,-6.835 -0.683,-0.684 -2.051,-2.055 -2.734,-2.739 -1.371,-1.367 -2.739,-2.734 -3.422,-3.418 l -0.684,-0.683 -0.683,-0.684 c -2.735,-2.734 -4.789,-5.473 -6.84,-8.207 -2.051,-2.051 -3.418,-4.789 -4.102,-7.523 h 27.356 c 2.734,0 6.156,0.683 8.207,2.05 1.367,1.368 3.418,4.106 4.785,6.84 h 3.422 l -8.891,-23.254 h -2.051 c 0,2.055 -0.687,4.106 -1.371,4.789 C 566.887,850 564.836,850 562.102,850 h -32.145 c 0,3.418 1.367,7.523 2.734,11.625 2.055,3.422 4.106,6.84 6.157,9.574 1.367,1.371 2.734,2.739 3.418,4.106 1.371,1.367 2.738,3.418 3.422,4.101 0.683,1.371 2.05,2.739 4.101,4.789 1.371,2.051 3.422,4.785 5.473,7.524 0.683,0 0.683,0.683 1.367,1.367 0,0.684 0.684,1.367 0.684,1.367 1.367,2.051 3.421,4.106 4.789,6.156 1.367,2.051 2.05,4.102 2.734,5.469 0,0.688 0.684,0.688 0.684,1.371 0,0.684 0.683,1.367 0.683,2.051 0,0.684 0.684,1.367 0.684,2.051 0,0.683 0,1.367 0,2.051 0,2.054 -0.684,5.472 -2.735,7.523 -1.367,2.051 -4.101,3.422 -8.207,4.105 v 0 l -0.683,0.684 h -0.684 -0.683 c -3.422,0 -6.84,-1.367 -9.575,-4.105 -2.738,-2.735 -5.472,-5.469 -7.523,-8.207 -0.684,-1.368 -1.367,-2.735 -2.051,-3.418 -0.683,-0.684 -1.371,-2.051 -2.055,-2.735 h -2.734"
         style="fill:#231f20;fill-opacity:1;fill-rule:evenodd;stroke:none"
         id="path30" /><path
         d="m 627.754,924.547 -2.734,2.734 0.683,0.684 v 0 c 1.367,1.367 3.418,3.418 5.473,4.785 1.367,1.371 2.734,3.422 3.418,5.473 l 25.988,-63.602 v 0 l 5.473,-13.68 0.683,-0.683 v -0.684 c 0.684,-1.367 2.051,-2.734 2.735,-4.101 1.367,-1.371 3.418,-2.055 6.156,-2.739 V 850 h -32.828 v 2.734 c 3.418,0 6.84,0 8.207,0.684 1.367,0 2.734,1.371 2.734,3.422 0,0.683 -0.683,1.367 -0.683,2.051 0,0.683 -0.684,2.05 -0.684,3.418 l -8.207,19.836 h -28.723 l -7.523,-21.204 c 0,-0.683 0,-1.367 0,-1.367 0,-0.683 -0.684,-1.367 -0.684,-1.367 0,-1.367 0.684,-2.734 2.051,-3.418 0.684,-1.371 4.106,-2.055 8.207,-2.055 V 850 h -23.254 v 2.734 c 2.738,0.684 4.789,1.368 6.156,2.739 0.684,1.367 1.368,2.734 2.051,4.101 0,0.684 0.684,1.367 0.684,2.051 0.687,0.684 1.371,2.055 1.371,2.738 z m 1.367,-4.789 -11.625,-33.512 h 25.305 z"
         style="fill:#231f20;fill-opacity:1;fill-rule:evenodd;stroke:none"
         id="path32" /><path
         d="m 847.098,1209.93 v 20.51 c 0,4.11 -0.684,7.52 -1.368,9.58 -1.367,1.36 -5.472,2.05 -10.257,2.05 v 3.42 h 35.562 v -3.42 c -4.105,0 -7.523,-0.69 -8.89,-1.37 -1.368,-1.37 -2.739,-4.79 -2.739,-10.26 v -60.18 c 0,-3.42 1.371,-6.16 2.739,-6.84 1.367,-0.69 4.785,-0.69 8.89,-0.69 V 1160 h -35.562 v 2.73 0 0 h 0.683 0.684 c 2.734,0 4.785,0 6.84,0.69 2.05,0.68 3.418,3.42 3.418,7.52 v 38.99"
         style="fill:#231f20;fill-opacity:1;fill-rule:evenodd;stroke:none"
         id="path34" /><path
         d="m 921.645,1160 v 23.94 h -34.196 v 5.47 l 38.981,54.71 h 6.156 v -52.66 h 12.309 v -7.52 H 932.586 V 1160 Z m 0,72.49 -28.043,-41.03 h 28.043 z"
         style="fill:#231f20;fill-opacity:1;fill-rule:evenodd;stroke:none"
         id="path36" /><path
         d="m 963.359,1181.89 h 54.711 v -6.84 h -54.711 z m 0,16.41 h 54.711 v -6.84 h -54.711 v 6.84"
         style="fill:#231f20;fill-opacity:1;fill-rule:evenodd;stroke:none"
         id="path38" /><path
         d="m 1074.84,1242.07 c 1.36,0 2.05,0 2.05,0 0,0 0.68,0.68 1.36,0.68 0.69,0 2.06,0.69 2.74,1.37 v 0.68 c 0.69,0.69 1.37,1.37 1.37,1.37 h 2.05 l -5.47,-13.68 h -27.36 l -2.05,-16.41 c 13,0 22.57,-2.74 28.72,-8.2 6.16,-5.48 9.58,-13 9.58,-21.89 0,-6.84 -2.05,-12.31 -5.47,-16.42 -4.11,-4.1 -8.21,-7.52 -13,-8.89 -1.36,-0.68 -3.41,-0.68 -4.1,-0.68 -1.37,0 -3.42,-0.68 -4.79,-0.68 0,0 -0.68,0 -1.36,0 0,0 -0.69,0 -1.37,0 0,0 -1.37,0 -2.05,0 -0.69,0 -2.05,0.68 -2.74,0.68 -4.1,0 -7.52,0.68 -10.94,2.05 -3.42,2.05 -4.79,4.11 -4.79,6.16 v 0.68 0 0 c 0,1.37 0.69,2.74 1.37,3.42 0.68,0.69 2.05,1.37 2.73,1.37 0.69,0 1.37,-0.68 2.06,-0.68 0.68,0 2.05,-0.69 2.73,-0.69 0.69,-0.68 2.05,-1.37 2.74,-2.05 0.68,-1.37 1.36,-2.74 2.05,-4.1 0.68,-1.37 2.05,-2.06 3.42,-2.74 2.05,-0.69 3.42,-1.37 5.47,-1.37 0.68,0 1.37,0 2.05,0 0.69,0 2.05,0 2.74,0 2.73,0.68 6.15,3.42 8.89,5.47 2.05,3.42 4.1,8.21 4.78,13.68 v 0.69 0.68 c 0,7.52 -2.73,13.68 -7.52,17.1 -5.47,2.73 -10.94,4.78 -17.09,5.47 -0.69,0 -1.37,0 -2.06,0 -0.68,0 -2.05,0 -2.05,0 -0.68,0 -2.05,0 -2.73,0 -0.69,0 -1.37,0 -2.05,0 l 4.1,36.93 h 25.99"
         style="fill:#231f20;fill-opacity:1;fill-rule:evenodd;stroke:none"
         id="path40" /><path
         d="m 1137.75,1234.55 -2.73,2.73 0.68,0.68 v 0 c 1.37,1.37 3.42,3.42 5.48,4.79 1.36,1.37 2.73,3.42 3.41,5.47 l 25.99,-63.6 v 0 l 5.47,-13.68 0.69,-0.68 v -0.69 c 0.68,-1.36 2.05,-2.73 2.73,-4.1 1.37,-1.37 3.42,-2.05 6.16,-2.74 V 1160 h -32.83 v 2.73 c 3.42,0 6.84,0 8.21,0.69 1.37,0 2.73,1.37 2.73,3.42 0,0.68 -0.68,1.37 -0.68,2.05 0,0.68 -0.68,2.05 -0.68,3.42 l -8.21,19.83 h -28.72 l -7.53,-21.2 c 0,-0.68 0,-1.37 0,-1.37 0,-0.68 -0.68,-1.36 -0.68,-1.36 0,-1.37 0.68,-2.74 2.05,-3.42 0.68,-1.37 4.1,-2.06 8.21,-2.06 V 1160 h -23.26 v 2.73 c 2.74,0.69 4.79,1.37 6.16,2.74 0.68,1.37 1.37,2.74 2.05,4.1 0,0.69 0.68,1.37 0.68,2.06 0.69,0.68 1.37,2.05 1.37,2.73 z m 1.37,-4.79 -11.62,-33.51 h 25.3 z"
         style="fill:#231f20;fill-opacity:1;fill-rule:evenodd;stroke:none"
         id="path42" /><path
         d="m 877.098,529.926 v 20.515 c 0,4.106 -0.684,7.524 -1.368,9.575 -1.367,1.367 -5.472,2.05 -10.257,2.05 v 3.422 h 35.562 v -3.422 c -4.105,0 -7.523,-0.683 -8.89,-1.367 -1.368,-1.367 -2.739,-4.785 -2.739,-10.258 v -60.183 c 0,-3.418 1.371,-6.156 2.739,-6.84 1.367,-0.684 4.785,-0.684 8.89,-0.684 V 480 h -35.562 v 2.734 0 0 h 0.683 0.684 c 2.734,0 4.785,0 6.84,0.684 2.05,0.684 3.418,3.422 3.418,7.523 v 38.985"
         style="fill:#231f20;fill-opacity:1;fill-rule:evenodd;stroke:none"
         id="path44" /><path
         d="m 937.965,519.668 c 0.683,0.684 2.051,1.367 2.051,2.051 0.683,0.683 2.05,2.051 2.734,3.418 2.738,2.734 5.473,5.472 8.207,8.89 2.055,2.739 3.422,6.84 3.422,10.258 0,3.422 -1.367,6.156 -3.422,7.524 -2.051,1.367 -4.785,2.738 -8.207,2.738 -2.734,0 -5.469,-1.371 -8.203,-2.738 -2.738,-1.368 -5.473,-4.102 -8.207,-6.84 l -2.055,1.371 c 2.055,3.418 5.473,6.836 8.207,8.89 3.422,2.735 7.524,5.469 10.946,6.153 0.683,0 2.05,0.683 2.734,0.683 0.683,0 2.051,0 2.051,0 4.789,0 8.207,-0.683 10.941,-2.734 2.738,-2.051 4.106,-5.473 4.106,-9.574 0,-4.789 -1.368,-8.891 -4.106,-12.309 -2.734,-3.422 -6.152,-6.84 -9.574,-8.89 6.156,0 10.945,-2.739 15.047,-6.84 3.418,-4.106 6.156,-9.574 6.84,-14.364 v -0.683 -0.684 -0.683 c 0,0 0,-0.684 0,-1.367 v 0 l -0.684,-0.684 c 0,-5.473 -2.055,-10.262 -5.473,-13.68 -2.734,-2.734 -6.156,-6.156 -9.574,-7.523 -2.051,-1.367 -4.101,-2.051 -6.156,-2.051 -1.367,0 -3.418,-0.684 -4.785,-0.684 -1.367,0 -3.422,0 -4.789,0 -2.051,0 -4.786,0.684 -6.84,0.684 -1.367,0 -2.735,0 -4.102,0.684 -2.051,0.683 -3.418,1.367 -4.789,2.734 h -0.683 v 0.684 c -0.684,0.687 -2.051,2.054 -2.735,2.738 -0.683,0.683 -1.367,2.051 -1.367,2.734 v 0.684 c 0,0 0,0.683 0,1.367 0,0 0,0.684 0,1.367 0,0 0.684,0.688 0.684,1.371 0.683,0 1.367,0.684 1.367,0.684 0.683,0 1.367,0.683 2.051,0.683 h 0.683 c 0.684,0 1.371,-0.683 1.371,-0.683 0.684,-0.684 2.051,-1.367 2.735,-2.055 1.367,-0.683 2.05,-2.734 2.734,-4.101 1.367,-2.051 2.734,-4.102 4.789,-5.473 1.367,-1.367 4.102,-2.051 6.152,-2.051 0,0 0.684,0 1.372,0 0,0 0.683,0 1.367,0 4.101,0 8.207,2.735 10.941,6.84 2.734,4.102 4.789,8.891 4.789,14.363 v 0.684 0.684 0 0.683 c -0.687,4.102 -2.055,7.524 -4.789,9.574 -2.734,2.051 -5.473,3.418 -8.207,4.102 -1.367,0.683 -3.418,0.683 -5.473,0.683 -1.367,0 -2.734,0.688 -4.101,0.688"
         style="fill:#231f20;fill-opacity:1;fill-rule:evenodd;stroke:none"
         id="path46" /><path
         d="m 993.359,501.887 h 54.711 v -6.84 h -54.711 z m 0,16.41 h 54.711 v -6.836 h -54.711 v 6.836"
         style="fill:#231f20;fill-opacity:1;fill-rule:evenodd;stroke:none"
         id="path48" /><path
         d="m 1072.69,484.102 c 0,2.054 0.69,3.421 2.06,4.789 1.36,1.367 4.1,2.05 6.15,2.05 2.05,0 3.42,-0.683 4.79,-1.367 0.68,-1.367 2.05,-2.051 2.05,-3.418 v -0.683 c 0,-0.684 0,-1.371 0,-1.371 0,0 0,-0.684 0,-1.368 0,0 -0.69,-0.683 -0.69,-1.367 0,-1.367 -1.36,-1.367 -2.05,-2.051 -1.36,-1.367 -3.42,-2.05 -5.47,-2.05 v 0 c -0.68,0 -1.37,0.683 -1.37,0.683 -1.36,0 -2.73,0.684 -3.41,2.051 -1.37,0 -2.06,2.051 -2.06,4.102 z m 5.47,45.824 c 4.11,0 6.84,0 6.84,0 0,0 2.05,0 4.79,0.683 2.74,0.684 5.47,2.051 7.52,3.418 1.37,0.684 2.05,2.051 2.74,3.422 0.68,1.367 1.37,3.418 1.37,4.785 v 0.684 0 c 0,2.051 -1.37,3.422 -2.06,4.789 -0.68,1.367 -2.05,3.418 -4.1,4.102 -0.68,0.683 -2.05,1.367 -3.42,1.367 -1.37,0 -2.73,0.683 -4.1,0.683 -0.69,0 -2.05,0 -3.42,0 -1.37,0 -2.74,0.688 -3.42,0.688 h -0.69 v 0 0 c -1.36,0 -2.73,0.683 -3.41,1.367 -0.69,1.367 -1.37,2.734 -1.37,4.102 v 0 0 c 0,1.367 0.68,2.734 1.37,3.422 1.36,1.367 2.73,2.05 5.47,2.05 0,0 0.68,0 1.37,0 0.68,0 1.36,0 2.05,0 5.47,-1.367 10.26,-4.789 13.67,-8.89 4.11,-4.789 5.48,-10.258 5.48,-15.731 0,-5.472 -1.37,-10.258 -4.79,-13.679 -3.42,-4.102 -8.89,-6.153 -17.1,-6.153 l -1.37,-19.836 h -2.73 l -0.69,28.727"
         style="fill:#231f20;fill-opacity:1;fill-rule:evenodd;stroke:none"
         id="path50" /><path
         d="m 803.199,828.602 c 13.699,0 26.602,-11.602 26.602,-26.704 0,-14.398 -12.903,-27.296 -26.602,-27.296 -14.398,0 -26.597,12.898 -26.597,27.296 0,15.102 12.199,26.704 26.597,26.704 z"
         style="fill:none;stroke:#231f20;stroke-width:8.6;stroke-linecap:butt;stroke-linejoin:miter;stroke-miterlimit:11.4737;stroke-dasharray:none;stroke-opacity:1"
         id="path52" /><path
         d="M 832.699,800.5 H 1286.3"
         style="fill:none;stroke:#231f20;stroke-width:11.5;stroke-linecap:butt;stroke-linejoin:miter;stroke-miterlimit:11.4737;stroke-dasharray:none;stroke-opacity:1"
         id="path54" /><path
         d="M 323,800.5 H 776.602"
         style="fill:none;stroke:#231f20;stroke-width:11.5;stroke-linecap:butt;stroke-linejoin:miter;stroke-miterlimit:11.4737;stroke-dasharray:none;stroke-opacity:1"
         id="path56" /><path
         d="M 804.602,828.602 V 1282.2"
         style="fill:none;stroke:#231f20;stroke-width:11.5;stroke-linecap:butt;stroke-linejoin:miter;stroke-miterlimit:11.4737;stroke-dasharray:none;stroke-opacity:1"
         id="path58" /><path
         d="M 804.602,318.102 V 771.699"
         style="fill:none;stroke:#231f20;stroke-width:11.5;stroke-linecap:butt;stroke-linejoin:miter;stroke-miterlimit:11.4737;stroke-dasharray:none;stroke-opacity:1"
         id="path60" /><path
         d="M 804.602,1225.3 V 1113"
         style="fill:none;stroke:#231f20;stroke-width:8.6;stroke-linecap:butt;stroke-linejoin:miter;stroke-miterlimit:11.4737;stroke-dasharray:none;stroke-opacity:1"
         id="path62" /><path
         d="M 804.602,1077 827,1164.1 c -15.199,-12.3 -29.602,-12.3 -44.699,0 l 22.301,-87.1"
         style="fill:#231f20;fill-opacity:1;fill-rule:evenodd;stroke:none"
         id="path64" /><path
         d="M 804.602,657.898 V 545.602"
         style="fill:none;stroke:#231f20;stroke-width:8.6;stroke-linecap:butt;stroke-linejoin:miter;stroke-miterlimit:11.4737;stroke-dasharray:none;stroke-opacity:1"
         id="path66" /><path
         d="M 804.602,509.602 827,596.699 c -15.199,-12.199 -29.602,-12.199 -44.699,0 l 22.301,-87.097"
         style="fill:#231f20;fill-opacity:1;fill-rule:evenodd;stroke:none"
         id="path68" /><path
         d="m 946.5,800.5 h 112.3"
         style="fill:none;stroke:#231f20;stroke-width:8.6;stroke-linecap:butt;stroke-linejoin:miter;stroke-miterlimit:11.4737;stroke-dasharray:none;stroke-opacity:1"
         id="path70" /><path
         d="m 1094.1,800.5 -85.7,22.301 c 12.2,-15.102 12.2,-29.5 0,-44.602 l 85.7,22.301"
         style="fill:#231f20;fill-opacity:1;fill-rule:evenodd;stroke:none"
         id="path72" /><path
         d="M 577.801,800.5 H 465.5"
         style="fill:none;stroke:#231f20;stroke-width:8.6;stroke-linecap:butt;stroke-linejoin:miter;stroke-miterlimit:11.4737;stroke-dasharray:none;stroke-opacity:1"
         id="path74" /><path
         d="m 429.5,801.199 87.102,-23.801 c -12.204,15.204 -12.204,31 0,46.102 L 429.5,801.199"
         style="fill:#231f20;fill-opacity:1;fill-rule:evenodd;stroke:none"
         id="path76" /></g></g></svg>
