<?xml version="1.0" encoding="UTF-8" standalone="no"?>
<!-- Created with Inkscape (http://www.inkscape.org/) -->

<svg
   version="1.1"
   id="svg2"
   xml:space="preserve"
   width="214.66667"
   height="213.33333"
   viewBox="0 0 214.66667 213.33333"
   xmlns="http://www.w3.org/2000/svg"
   xmlns:svg="http://www.w3.org/2000/svg"><defs
     id="defs6" /><g
     id="g8"
     transform="matrix(1.3333333,0,0,-1.3333333,0,213.33333)"><g
       id="g10"
       transform="scale(0.1)"><path
         d="M 96.6016,1507.8 H 1513.6 V 90.8008 H 96.6016 Z"
         style="fill:none;stroke:#231f20;stroke-width:11.5;stroke-linecap:butt;stroke-linejoin:miter;stroke-miterlimit:11.4737;stroke-dasharray:none;stroke-opacity:1"
         id="path12" /><g
         id="g14"
         transform="scale(10)"><text
           transform="matrix(1,0,0,-1,38,85)"
           style="font-variant:normal;font-weight:normal;font-size:13.9661px;font-family:Symbol;-inkscape-font-specification:Symbol;writing-mode:lr-tb;fill:#231f20;fill-opacity:1;fill-rule:nonzero;stroke:none"
           id="text20"><tspan
             x="0 8.0629148 16.053951 56.00021 64.063118 72.054161"
             y="0"
             id="tspan16">20Ω20Ω</tspan><tspan
             x="28 34.839081 42.830116"
             y="51"
             id="tspan18">10Ω</tspan></text></g><path
         d="M 1316.3,289.5 579.801,288.801"
         style="fill:none;stroke:#231f20;stroke-width:8.6;stroke-linecap:butt;stroke-linejoin:miter;stroke-miterlimit:11.4737;stroke-dasharray:none;stroke-opacity:1"
         id="path22" /><path
         d="M 1316.3,1309.8 296.102,1309"
         style="fill:none;stroke:#231f20;stroke-width:8.6;stroke-linecap:butt;stroke-linejoin:miter;stroke-miterlimit:11.4737;stroke-dasharray:none;stroke-opacity:1"
         id="path24" /><path
         d="M 579.801,345.699 V 288.801"
         style="fill:none;stroke:#231f20;stroke-width:8.6;stroke-linecap:butt;stroke-linejoin:miter;stroke-miterlimit:11.4737;stroke-dasharray:none;stroke-opacity:1"
         id="path26" /><path
         d="M 635.898,742.398 V 345.699 H 522.199 v 396.699 z"
         style="fill:none;stroke:#231f20;stroke-width:14.4;stroke-linecap:butt;stroke-linejoin:miter;stroke-miterlimit:11.4737;stroke-dasharray:none;stroke-opacity:1"
         id="path28" /><path
         d="M 353,1252.2 V 854.699 H 239.199 V 1252.2 Z"
         style="fill:none;stroke:#231f20;stroke-width:14.4;stroke-linecap:butt;stroke-linejoin:miter;stroke-miterlimit:11.4737;stroke-dasharray:none;stroke-opacity:1"
         id="path30" /><path
         d="M 920.301,1252.9 V 855.398 H 806.602 V 1252.9 Z"
         style="fill:none;stroke:#231f20;stroke-width:14.4;stroke-linecap:butt;stroke-linejoin:miter;stroke-miterlimit:11.4737;stroke-dasharray:none;stroke-opacity:1"
         id="path32" /><path
         d="m 296.102,1252.9 v 56.9"
         style="fill:none;stroke:#231f20;stroke-width:8.6;stroke-linecap:butt;stroke-linejoin:miter;stroke-miterlimit:11.4737;stroke-dasharray:none;stroke-opacity:1"
         id="path34" /><path
         d="m 1345.1,1281.7 c -15.1,0 -28.1,12.2 -28.1,28.1 0,15.8 13,28 28.1,28 15.1,0 28.1,-12.2 28.1,-28 0,-15.9 -13,-28.1 -28.1,-28.1 z"
         style="fill:none;stroke:#231f20;stroke-width:5.8;stroke-linecap:butt;stroke-linejoin:miter;stroke-miterlimit:11.4737;stroke-dasharray:none;stroke-opacity:1"
         id="path36" /><path
         d="m 1345.1,260.699 c -15.1,0 -28.1,12.301 -28.1,28.102 0,15.801 13,28.097 28.1,28.097 15.1,0 28.1,-12.296 28.1,-28.097 0,-15.801 -13,-28.102 -28.1,-28.102 z"
         style="fill:none;stroke:#231f20;stroke-width:5.8;stroke-linecap:butt;stroke-linejoin:miter;stroke-miterlimit:11.4737;stroke-dasharray:none;stroke-opacity:1"
         id="path38" /><path
         d="m 863.398,1252.9 -0.699,56.9"
         style="fill:none;stroke:#231f20;stroke-width:8.6;stroke-linecap:butt;stroke-linejoin:miter;stroke-miterlimit:11.4737;stroke-dasharray:none;stroke-opacity:1"
         id="path40" /><path
         d="m 862.699,1293.2 c -7.898,0 -14.398,6.5 -14.398,14.4 0,7.9 6.5,14.4 14.398,14.4 7.903,0 14.403,-6.5 14.403,-14.4 0,-7.9 -6.5,-14.4 -14.403,-14.4"
         style="fill:#231f20;fill-opacity:1;fill-rule:evenodd;stroke:none"
         id="path42" /><path
         d="m 862.699,1293.2 c -7.898,0 -14.398,6.5 -14.398,14.4 0,7.9 6.5,14.4 14.398,14.4 7.903,0 14.403,-6.5 14.403,-14.4 0,-7.9 -6.5,-14.4 -14.403,-14.4 z"
         style="fill:none;stroke:#231f20;stroke-width:2.2;stroke-linecap:butt;stroke-linejoin:miter;stroke-miterlimit:11.4737;stroke-dasharray:none;stroke-opacity:1"
         id="path44" /><path
         d="m 578.301,782 c -7.903,0 -14.403,6.5 -14.403,14.402 0,7.899 6.5,14.399 14.403,14.399 7.898,0 14.398,-6.5 14.398,-14.399 0,-7.902 -6.5,-14.402 -14.398,-14.402"
         style="fill:#231f20;fill-opacity:1;fill-rule:evenodd;stroke:none"
         id="path46" /><path
         d="m 578.301,782 c -7.903,0 -14.403,6.5 -14.403,14.402 0,7.899 6.5,14.399 14.403,14.399 7.898,0 14.398,-6.5 14.398,-14.399 0,-7.902 -6.5,-14.402 -14.398,-14.402 z"
         style="fill:none;stroke:#231f20;stroke-width:2.2;stroke-linecap:butt;stroke-linejoin:miter;stroke-miterlimit:11.4737;stroke-dasharray:none;stroke-opacity:1"
         id="path48" /><path
         d="M 862.699,855.398 V 799.301 H 296.102 v 56.097"
         style="fill:none;stroke:#231f20;stroke-width:8.6;stroke-linecap:butt;stroke-linejoin:miter;stroke-miterlimit:11.4737;stroke-dasharray:none;stroke-opacity:1"
         id="path50" /><path
         d="M 579.801,799.301 V 742.398"
         style="fill:none;stroke:#231f20;stroke-width:8.6;stroke-linecap:butt;stroke-linejoin:miter;stroke-miterlimit:11.4737;stroke-dasharray:none;stroke-opacity:1"
         id="path52" /></g></g></svg>
