<?xml version="1.0" encoding="UTF-8" standalone="no"?>
<!-- Created with Inkscape (http://www.inkscape.org/) -->

<svg
   version="1.1"
   id="svg2"
   xml:space="preserve"
   width="266.66666"
   height="152"
   viewBox="0 0 266.66666 152"
   xmlns="http://www.w3.org/2000/svg"
   xmlns:svg="http://www.w3.org/2000/svg"><defs
     id="defs6" /><g
     id="g8"
     transform="matrix(1.3333333,0,0,-1.3333333,0,152)"><g
       id="g10"
       transform="scale(0.1)"><path
         d="M 6.60156,1138.7 H 1995.3 V 4.69922 H 6.60156 Z"
         style="fill:none;stroke:#231f20;stroke-width:11.5;stroke-linecap:butt;stroke-linejoin:miter;stroke-miterlimit:11.4737;stroke-dasharray:none;stroke-opacity:1"
         id="path12" /><path
         d="m 1163.7,174.602 c 0,90 -74.2,164.199 -164.2,164.199 -89.301,0 -163.398,-74.199 -163.398,-164.199"
         style="fill:none;stroke:#231f20;stroke-width:2.2;stroke-linecap:butt;stroke-linejoin:miter;stroke-miterlimit:11.4737;stroke-dasharray:none;stroke-opacity:1"
         id="path14" /><path
         d="m 1328.6,175.398 c 0,180 -148.4,328.301 -328.4,328.301 -180.001,0 -327.598,-148.301 -327.598,-328.301"
         style="fill:none;stroke:#231f20;stroke-width:2.2;stroke-linecap:butt;stroke-linejoin:miter;stroke-miterlimit:11.4737;stroke-dasharray:none;stroke-opacity:1"
         id="path16" /><path
         d="m 1492.7,175.398 c 0,270.704 -221.7,492.403 -492.5,492.403 -271.399,0 -492.399,-221.699 -492.399,-492.403"
         style="fill:none;stroke:#231f20;stroke-width:2.2;stroke-linecap:butt;stroke-linejoin:miter;stroke-miterlimit:11.4737;stroke-dasharray:none;stroke-opacity:1"
         id="path18" /><path
         d="m 1000.2,175.398 h 656.7 C 1656.9,536.801 1361.7,832 1000.2,832 638.801,832 343.602,536.801 343.602,175.398 Z"
         style="fill:none;stroke:#231f20;stroke-width:2.2;stroke-linecap:butt;stroke-linejoin:miter;stroke-miterlimit:11.4737;stroke-dasharray:none;stroke-opacity:1"
         id="path20" /><path
         d="m 1820.3,175.398 c 0,452.102 -368.6,820.801 -820.8,820.801 -451.398,0 -820.102,-368.699 -820.102,-820.801"
         style="fill:none;stroke:#231f20;stroke-width:2.2;stroke-linecap:butt;stroke-linejoin:miter;stroke-miterlimit:11.4737;stroke-dasharray:none;stroke-opacity:1"
         id="path22" /><path
         d="M 1000.2,996.199 V 339.5"
         style="fill:none;stroke:#231f20;stroke-width:2.2;stroke-linecap:butt;stroke-linejoin:miter;stroke-miterlimit:11.4737;stroke-dasharray:none;stroke-opacity:1"
         id="path24" /><path
         d="M 1164.4,176.102 H 1821"
         style="fill:none;stroke:#231f20;stroke-width:2.2;stroke-linecap:butt;stroke-linejoin:miter;stroke-miterlimit:11.4737;stroke-dasharray:none;stroke-opacity:1"
         id="path26" /><path
         d="M 179.398,176.102 H 836.102"
         style="fill:none;stroke:#231f20;stroke-width:2.2;stroke-linecap:butt;stroke-linejoin:miter;stroke-miterlimit:11.4737;stroke-dasharray:none;stroke-opacity:1"
         id="path28" /><path
         d="M 919.602,316.5 591.301,888.199"
         style="fill:none;stroke:#231f20;stroke-width:2.2;stroke-linecap:butt;stroke-linejoin:miter;stroke-miterlimit:11.4737;stroke-dasharray:none;stroke-opacity:1"
         id="path30" /><path
         d="M 1709.4,587.898 1139.9,259.602"
         style="fill:none;stroke:#231f20;stroke-width:2.2;stroke-linecap:butt;stroke-linejoin:miter;stroke-miterlimit:11.4737;stroke-dasharray:none;stroke-opacity:1"
         id="path32" /><path
         d="M 857.699,256.699 288.898,585.801"
         style="fill:none;stroke:#231f20;stroke-width:2.2;stroke-linecap:butt;stroke-linejoin:miter;stroke-miterlimit:11.4737;stroke-dasharray:none;stroke-opacity:1"
         id="path34" /><path
         d="M 1409.9,887.398 1083.8,315.801"
         style="fill:none;stroke:#231f20;stroke-width:2.2;stroke-linecap:butt;stroke-linejoin:miter;stroke-miterlimit:11.4737;stroke-dasharray:none;stroke-opacity:1"
         id="path36" /><path
         d="m 1003.1,184 c 0,19.398 0,32.398 0.7,58.301 -9.3,121 -40.3,259.898 -167.698,339.898 C 742.5,640.5 605,665.699 479,639.801 389.699,617.398 317.699,577.102 262.199,508 225.5,456.199 214,382.699 252.199,320.102 329.898,215.699 500.602,191.898 638.801,181.102 L 1294.7,180.398 C 1445.9,190.5 1620.2,202 1721,290.602 c 56.8,43.199 62.6,110.796 46,168.398 -11.5,22.398 -20.8,41.801 -37.4,57.602 -56.2,69.898 -136.8,106.597 -233.3,126 -82.1,12.296 -164.9,9.398 -238.3,-15.801 -88.6,-29.5 -169.2,-96.5 -205.9,-167.801 -38.2,-63.301 -43.2,-145.398 -47.5,-214.5"
         style="fill:none;stroke:#231f20;stroke-width:17.3;stroke-linecap:butt;stroke-linejoin:miter;stroke-miterlimit:11.4737;stroke-dasharray:none;stroke-opacity:1"
         id="path38" /></g></g></svg>
