<?xml version="1.0" encoding="UTF-8" standalone="no"?>
<!-- Created with Inkscape (http://www.inkscape.org/) -->

<svg
   version="1.1"
   id="svg2"
   xml:space="preserve"
   width="134.66667"
   height="136"
   viewBox="0 0 134.66667 136"
   xmlns="http://www.w3.org/2000/svg"
   xmlns:svg="http://www.w3.org/2000/svg"><defs
     id="defs6" /><g
     id="g8"
     transform="matrix(1.3333333,0,0,-1.3333333,0,136)"><g
       id="g10"
       transform="scale(0.1)"><path
         d="M 326.004,878.559 H 683.047 V 163.754 H 326.004 Z"
         style="fill:none;stroke:#231f20;stroke-width:14.4;stroke-linecap:butt;stroke-linejoin:miter;stroke-miterlimit:2.6131;stroke-dasharray:none;stroke-opacity:1"
         id="path12" /><path
         d="M 325.355,750.906 H 121.234"
         style="fill:none;stroke:#231f20;stroke-width:14.4;stroke-linecap:butt;stroke-linejoin:miter;stroke-miterlimit:2.6131;stroke-dasharray:none;stroke-opacity:1"
         id="path14" /><path
         d="M 887.168,750.906 H 683.047"
         style="fill:none;stroke:#231f20;stroke-width:14.4;stroke-linecap:butt;stroke-linejoin:miter;stroke-miterlimit:2.6131;stroke-dasharray:none;stroke-opacity:1"
         id="path16" /><path
         d="M 325.355,292.125 H 121.234"
         style="fill:none;stroke:#231f20;stroke-width:14.4;stroke-linecap:butt;stroke-linejoin:miter;stroke-miterlimit:2.6131;stroke-dasharray:none;stroke-opacity:1"
         id="path18" /><path
         d="M 887.168,292.125 H 683.047"
         style="fill:none;stroke:#231f20;stroke-width:14.4;stroke-linecap:butt;stroke-linejoin:miter;stroke-miterlimit:2.6131;stroke-dasharray:none;stroke-opacity:1"
         id="path20" /><path
         d="m 437.578,724.688 h -22.281 l -28.246,38.996 c -2.078,-0.063 -3.781,-0.106 -5.102,-0.106 -0.523,0 -1.094,0 -1.722,0.024 -0.61,0.019 -1.239,0.039 -1.911,0.082 v -24.235 c 0,-5.25 0.586,-8.504 1.719,-9.785 1.578,-1.805 3.906,-2.711 7.016,-2.711 h 3.277 v -2.265 h -35.742 v 2.265 h 3.129 c 3.527,0 6.047,1.156 7.558,3.445 0.864,1.282 1.305,4.305 1.305,9.051 v 53.906 c 0,5.25 -0.59,8.508 -1.723,9.766 -1.597,1.809 -3.992,2.711 -7.14,2.711 h -3.129 v 2.289 h 30.387 c 8.863,0 15.394,-0.652 19.593,-1.953 4.2,-1.281 7.77,-3.656 10.711,-7.121 2.918,-3.484 4.387,-7.602 4.387,-12.41 0,-5.125 -1.656,-9.578 -5.019,-13.356 -3.34,-3.761 -8.504,-6.426 -15.516,-7.98 l 17.219,-23.942 c 3.925,-5.5 7.328,-9.156 10.144,-10.961 2.832,-1.785 6.528,-2.937 11.086,-3.445 z m -59.262,42.882 c 0.797,0 1.469,0 2.036,-0.023 0.566,-0.02 1.05,-0.043 1.406,-0.043 7.961,0 13.965,1.723 18,5.168 4.051,3.445 6.07,7.832 6.07,13.168 0,5.207 -1.64,9.449 -4.894,12.703 -3.254,3.258 -7.582,4.895 -12.957,4.895 -2.375,0 -5.586,-0.399 -9.661,-1.176 V 767.57"
         style="fill:#231f20;fill-opacity:1;fill-rule:evenodd;stroke:none"
         id="path22" /><path
         d="m 410.195,350.652 v -28.855 h -2.269 c -0.754,5.543 -2.078,9.953 -3.969,13.226 -1.91,3.301 -4.641,5.903 -8.168,7.813 -3.531,1.934 -7.164,2.898 -10.945,2.898 -4.262,0 -7.785,-1.3 -10.582,-3.906 -2.793,-2.601 -4.176,-5.562 -4.176,-8.883 0,-2.539 0.879,-4.871 2.644,-6.949 2.54,-3.086 8.59,-7.18 18.145,-12.305 7.789,-4.179 13.125,-7.394 15.961,-9.64 2.852,-2.227 5.059,-4.871 6.594,-7.895 1.531,-3.047 2.308,-6.218 2.308,-9.535 0,-6.32 -2.457,-11.762 -7.351,-16.336 -4.914,-4.582 -11.215,-6.871 -18.922,-6.871 -2.434,0 -4.699,0.191 -6.844,0.566 -1.262,0.192 -3.906,0.95 -7.894,2.231 -3.993,1.301 -6.532,1.949 -7.606,1.949 -1.027,0 -1.824,-0.312 -2.433,-0.922 -0.59,-0.609 -1.032,-1.89 -1.325,-3.824 h -2.265 v 28.602 h 2.265 c 1.071,-5.985 2.52,-10.457 4.325,-13.438 1.808,-2.961 4.558,-5.441 8.277,-7.414 3.695,-1.953 7.769,-2.937 12.199,-2.937 5.125,0 9.176,1.343 12.16,4.05 2.961,2.707 4.453,5.903 4.453,9.598 0,2.059 -0.566,4.117 -1.679,6.215 -1.137,2.101 -2.899,4.031 -5.274,5.84 -1.594,1.238 -5.961,3.843 -13.105,7.851 -7.141,3.992 -12.199,7.184 -15.223,9.555 -3.023,2.398 -5.293,5.023 -6.867,7.879 -1.555,2.875 -2.332,6.047 -2.332,9.492 0,5.984 2.289,11.129 6.891,15.453 4.597,4.328 10.437,6.492 17.531,6.492 4.433,0 9.136,-1.074 14.094,-3.257 2.289,-1.028 3.925,-1.532 4.851,-1.532 1.07,0 1.949,0.313 2.625,0.946 0.672,0.648 1.215,1.933 1.637,3.843 h 2.269"
         style="fill:#231f20;fill-opacity:1;fill-rule:evenodd;stroke:none"
         id="path24" /><path
         d="m 611.688,723.762 c 4.175,-7.223 8.691,-12.535 13.562,-15.938 4.852,-3.402 10.375,-5.355 16.57,-5.84 v -1.972 c -5.648,0.207 -11.695,1.343 -18.144,3.422 -6.446,2.058 -12.535,4.933 -18.313,8.613 -5.75,3.672 -10.73,7.578 -14.906,11.715 -5.902,2.375 -10.586,4.894 -14.031,7.558 -4.996,3.993 -8.883,8.887 -11.653,14.68 -2.773,5.816 -4.16,12.664 -4.16,20.582 0,12.473 4.032,22.824 12.117,31.078 8.086,8.235 17.872,12.352 29.36,12.352 10.898,0 20.348,-4.117 28.328,-12.391 7.98,-8.254 11.969,-18.691 11.969,-31.293 0,-10.203 -2.856,-19.172 -8.528,-26.879 -5.687,-7.707 -13.082,-12.937 -22.171,-15.687 z m -10.356,81.523 c -7.453,0 -13.461,-2.668 -18.019,-8 -5.731,-6.68 -8.61,-16.926 -8.61,-30.703 0,-13.484 2.918,-23.898 8.735,-31.187 4.515,-5.625 10.48,-8.442 17.894,-8.442 7.731,0 13.922,2.817 18.648,8.442 5.543,6.636 8.317,16.445 8.317,29.402 0,9.973 -1.531,18.351 -4.555,25.16 -2.355,5.246 -5.441,9.113 -9.324,11.613 -3.887,2.477 -8.234,3.715 -13.086,3.715"
         style="fill:#231f20;fill-opacity:1;fill-rule:evenodd;stroke:none"
         id="path26" /><path
         d="m 611.688,264.402 c 4.175,-7.222 8.691,-12.535 13.562,-15.937 4.852,-3.402 10.375,-5.356 16.57,-5.84 v -1.973 c -5.648,0.207 -11.695,1.344 -18.144,3.422 -6.446,2.059 -12.535,4.934 -18.313,8.61 -5.75,3.675 -10.73,7.582 -14.906,11.718 -5.902,2.375 -10.586,4.895 -14.031,7.559 -4.996,3.992 -8.883,8.883 -11.653,14.68 -2.773,5.816 -4.16,12.664 -4.16,20.582 0,12.472 4.032,22.824 12.117,31.078 8.086,8.234 17.872,12.351 29.36,12.351 10.898,0 20.348,-4.117 28.328,-12.39 7.98,-8.254 11.969,-18.692 11.969,-31.293 0,-10.203 -2.856,-19.172 -8.528,-26.879 -5.687,-7.707 -13.082,-12.938 -22.171,-15.688 z m -10.356,81.524 c -7.453,0 -13.461,-2.668 -18.019,-8.004 -5.731,-6.676 -8.61,-16.922 -8.61,-30.699 0,-13.485 2.918,-23.899 8.735,-31.188 4.515,-5.625 10.48,-8.441 17.894,-8.441 7.731,0 13.922,2.816 18.648,8.441 5.543,6.637 8.317,16.445 8.317,29.403 0,9.972 -1.531,18.351 -4.555,25.16 -2.355,5.246 -5.441,9.113 -9.324,11.613 -3.887,2.477 -8.234,3.715 -13.086,3.715"
         style="fill:#231f20;fill-opacity:1;fill-rule:evenodd;stroke:none"
         id="path28" /><path
         d="M 556.184,368.285 H 658.566"
         style="fill:none;stroke:#231f20;stroke-width:8.64;stroke-linecap:butt;stroke-linejoin:miter;stroke-miterlimit:2.6131;stroke-dasharray:none;stroke-opacity:1"
         id="path30" /><path
         d="M 6.88281,1004.64 H 999.008 V 12.5117 H 6.88281 Z"
         style="fill:none;stroke:#231f20;stroke-width:11.52;stroke-linecap:butt;stroke-linejoin:miter;stroke-miterlimit:2.6131;stroke-dasharray:none;stroke-opacity:1"
         id="path32" /></g></g></svg>
