<?xml version="1.0" encoding="UTF-8" standalone="no"?>
<!-- Created with Inkscape (http://www.inkscape.org/) -->

<svg
   version="1.1"
   id="svg2"
   xml:space="preserve"
   width="190.66667"
   height="190.66667"
   viewBox="0 0 190.66667 190.66667"
   xmlns="http://www.w3.org/2000/svg"
   xmlns:svg="http://www.w3.org/2000/svg"><defs
     id="defs6" /><g
     id="g8"
     transform="matrix(1.3333333,0,0,-1.3333333,0,190.66667)"><g
       id="g10"
       transform="scale(0.1)"><path
         d="M 5.89844,1423.4 H 1423.6 V 7.19922 H 5.89844 Z"
         style="fill:none;stroke:#231f20;stroke-width:11.5;stroke-linecap:butt;stroke-linejoin:miter;stroke-miterlimit:11.4737;stroke-dasharray:none;stroke-opacity:1"
         id="path12" /><path
         d="m 970,249.102 c 74.9,58.296 113.8,150.5 113.8,255.597 0,98.699 -42.5,189.403 -113.8,254.903 l 397.4,0.699 V 249.102 H 970"
         style="fill:#bdbcbc;fill-opacity:1;fill-rule:evenodd;stroke:none"
         id="path14" /><path
         d="m 970,249.102 c 74.9,58.296 113.8,150.5 113.8,255.597 0,98.699 -42.5,189.403 -113.8,254.903 l 397.4,0.699 V 249.102 Z"
         style="fill:none;stroke:#231f20;stroke-width:8.6;stroke-linecap:butt;stroke-linejoin:miter;stroke-miterlimit:11.4737;stroke-dasharray:none;stroke-opacity:1"
         id="path16" /><path
         d="M 520.699,248.398 119,249.102 v 511.199 l 397.398,-0.699 C 443,695.5 402.602,604.102 402.602,504.699 c 0,-102.199 46.097,-194.398 118.097,-256.301"
         style="fill:#e9e9e9;fill-opacity:1;fill-rule:evenodd;stroke:none"
         id="path18" /><path
         d="M 520.699,248.398 119,249.102 v 511.199 l 397.398,-0.699 C 443,695.5 402.602,604.102 402.602,504.699 c 0,-102.199 46.097,-194.398 118.097,-256.301 z"
         style="fill:none;stroke:#231f20;stroke-width:8.6;stroke-linecap:butt;stroke-linejoin:miter;stroke-miterlimit:11.4737;stroke-dasharray:none;stroke-opacity:1"
         id="path20" /><path
         d="m 275.117,514.633 v 12.961 c 0,2.879 -0.719,5.758 -2.16,7.199 -1.437,0.719 -2.879,2.156 -4.316,2.156 -0.723,0 -0.723,0 -0.723,0 -0.719,0 -0.719,0 -1.438,0 v 2.16 h 27.356 v -2.16 c -3.602,0 -5.762,-0.719 -6.481,-2.156 -1.437,-1.441 -2.16,-4.32 -2.16,-7.199 v -45.356 c 0,-7.918 -0.718,-13.679 -2.879,-18.718 -2.16,-4.317 -5.757,-7.918 -9.359,-8.637 -0.719,-0.719 -2.16,-0.719 -2.879,-0.719 -1.437,0 -2.16,0 -2.879,0 -1.441,0 -2.16,0 -3.601,0 -0.719,0.719 -2.157,1.438 -2.157,1.438 -0.722,0.718 -1.441,1.441 -1.441,2.16 0,0.718 0,1.441 0,2.16 v 0 0.719 c 0,0.718 0,2.16 0.719,2.879 0,1.441 2.16,2.16 3.601,2.16 1.438,0 2.16,-0.719 2.879,-1.438 0.719,-0.722 1.442,-1.441 1.442,-2.16 v -0.723 0 c 0.718,-0.718 1.437,-1.437 1.437,-2.156 0,0 0.719,-1.441 1.442,-1.441 1.437,-0.719 2.878,-0.719 2.878,0 0.719,1.441 0.719,3.597 0.719,6.48 v 50.391 0"
         style="fill:#231f20;fill-opacity:1;fill-rule:evenodd;stroke:none"
         id="path22" /><path
         d="m 1193.6,491.598 h 2.88 v 0 0 -0.719 -0.723 c 0,-4.32 1.44,-8.636 4.32,-11.515 2.88,-3.602 6.48,-5.762 10.08,-7.2 0.72,0 1.44,0 2.16,0 0.72,0 1.44,-0.722 2.16,-0.722 v 0 l 0.72,0.722 v 0 h 0.72 c 0.72,0 1.43,0 2.16,0 0.72,0 2.16,0 2.88,0 2.16,0.719 4.32,2.157 6.48,4.317 1.43,2.16 2.88,5.762 2.88,10.078 0,3.602 -0.72,6.48 -2.88,7.922 -2.16,1.437 -4.32,2.879 -6.48,3.597 -2.16,0.719 -3.61,1.442 -5.04,2.161 -2.16,0 -3.6,0.718 -4.32,0.718 v 0 c -0.72,0 -0.72,0.723 -1.44,0.723 -0.72,0 -1.44,0.719 -1.44,0.719 -4.32,1.441 -7.92,3.597 -10.08,6.48 -2.16,2.157 -3.6,6.477 -3.6,12.957 0,5.039 2.16,9.36 4.32,11.52 2.88,2.879 5.76,5.758 9.36,6.476 0.72,0.723 2.88,1.442 3.6,1.442 1.44,0 2.88,0 4.32,0 h 0.71 0.73 c 2.16,0 3.59,-0.719 5.75,-0.719 1.45,-0.723 2.88,-1.441 4.33,-2.16 0.71,0 2.16,-0.723 2.87,-0.723 0.72,-0.719 2.16,-2.156 2.88,-2.156 l 2.16,2.879 h 1.44 v -21.598 h -1.44 c -0.72,7.199 -2.88,12.957 -6.47,16.559 -2.89,3.597 -7.2,5.758 -12.25,5.758 h -0.71 v 0 c -3.6,0 -6.48,-1.442 -9.36,-4.321 -2.16,-2.879 -3.6,-6.476 -3.6,-10.078 v 0 -0.719 c 0,-2.16 0.72,-5.039 1.44,-7.199 1.44,-2.16 4.32,-3.601 7.2,-5.039 h 0.72 0.72 c 1.44,-0.722 2.88,-1.441 4.32,-1.441 1.43,-0.719 3.59,-0.719 5.75,-1.438 4.33,-1.441 7.92,-3.601 11.52,-6.48 2.88,-2.879 5.04,-7.199 5.04,-12.957 0,-6.481 -2.16,-11.52 -5.75,-14.399 -4.32,-2.879 -9.36,-4.32 -13.68,-4.32 -0.72,0 -2.16,-0.719 -2.16,-0.719 -0.72,0 -2.16,0 -2.16,0 -4.32,0 -7.92,0.719 -10.8,1.438 -2.88,0.722 -5.76,2.16 -7.92,3.601 l -3.6,-3.601 h -1.44 v 20.879"
         style="fill:#231f20;fill-opacity:1;fill-rule:evenodd;stroke:none"
         id="path24" /><path
         d="M 563.199,527.801 898,595.398 921,483.801 586.199,416.199 Z"
         style="fill:none;stroke:#231f20;stroke-width:5.8;stroke-linecap:butt;stroke-linejoin:miter;stroke-miterlimit:11.4737;stroke-dasharray:none;stroke-opacity:1"
         id="path26" /><path
         d="m 569.699,499 329,95.699"
         style="fill:none;stroke:#231f20;stroke-width:8.6;stroke-linecap:butt;stroke-linejoin:miter;stroke-miterlimit:11.4737;stroke-dasharray:none;stroke-opacity:1"
         id="path28" /><path
         d="m 575.398,471.602 328.403,95"
         style="fill:none;stroke:#231f20;stroke-width:8.6;stroke-linecap:butt;stroke-linejoin:miter;stroke-miterlimit:11.4737;stroke-dasharray:none;stroke-opacity:1"
         id="path30" /><path
         d="M 581.199,443.5 909.5,539.301"
         style="fill:none;stroke:#231f20;stroke-width:8.6;stroke-linecap:butt;stroke-linejoin:miter;stroke-miterlimit:11.4737;stroke-dasharray:none;stroke-opacity:1"
         id="path32" /><path
         d="m 587,416.199 328.301,95"
         style="fill:none;stroke:#231f20;stroke-width:8.6;stroke-linecap:butt;stroke-linejoin:miter;stroke-miterlimit:11.4737;stroke-dasharray:none;stroke-opacity:1"
         id="path34" /><path
         d="M 730.199,560.898 679.102,810.699"
         style="fill:none;stroke:#231f20;stroke-width:20.2;stroke-linecap:butt;stroke-linejoin:miter;stroke-miterlimit:11.4737;stroke-dasharray:none;stroke-opacity:1"
         id="path36" /><path
         d="M 679.801,810.699 634.5,1032.5"
         style="fill:none;stroke:#231f20;stroke-width:14.4;stroke-linecap:butt;stroke-linejoin:miter;stroke-miterlimit:11.4737;stroke-dasharray:none;stroke-opacity:1"
         id="path38" /><path
         d="m 634.5,1033.2 -51.102,249.1"
         style="fill:none;stroke:#231f20;stroke-width:8.6;stroke-linecap:butt;stroke-linejoin:miter;stroke-miterlimit:11.4737;stroke-dasharray:none;stroke-opacity:1"
         id="path40" /><path
         d="m 824.602,462.199 c -7.204,-36 -31.704,-61.898 -60.5,-67.597 -28.801,-5.801 -59.801,8.597 -81.403,38.097"
         style="fill:none;stroke:#231f20;stroke-width:5.8;stroke-linecap:butt;stroke-linejoin:miter;stroke-miterlimit:11.4737;stroke-dasharray:none;stroke-opacity:1"
         id="path42" /><path
         d="m 653.199,549.398 c 7.199,36 31.699,61.903 60.5,67.602 28.801,5.801 59.699,-8.602 81.301,-38.102"
         style="fill:none;stroke:#231f20;stroke-width:5.8;stroke-linecap:butt;stroke-linejoin:miter;stroke-miterlimit:11.4737;stroke-dasharray:none;stroke-opacity:1"
         id="path44" /><path
         d="m 623.699,421.898 c 32.403,-59.699 66.199,-78.5 126.699,-82.796 58.301,12.296 59,-44.602 39.602,-67.704"
         style="fill:none;stroke:#231f20;stroke-width:5.8;stroke-linecap:butt;stroke-linejoin:miter;stroke-miterlimit:11.4737;stroke-dasharray:none;stroke-opacity:1"
         id="path46" /><path
         d="m 600.602,537.102 c 6.5,67.699 48.296,123.097 107.296,135.398 59.801,12.199 120.301,-23.102 152.704,-82.102"
         style="fill:none;stroke:#231f20;stroke-width:5.8;stroke-linecap:butt;stroke-linejoin:miter;stroke-miterlimit:11.4737;stroke-dasharray:none;stroke-opacity:1"
         id="path48" /><path
         d="m 785,281.5 c 7.898,2.199 15.801,-2.102 17.199,-9.301 1.5,-7.199 -3.597,-13.699 -11.5,-15.898 -7.898,-1.403 -15.097,3.597 -16.5,10.801 -1.5,7.199 2.801,13 10.801,14.398"
         style="fill:#231f20;fill-opacity:1;fill-rule:evenodd;stroke:none"
         id="path50" /><path
         d="m 785,281.5 c 7.898,2.199 15.801,-2.102 17.199,-9.301 1.5,-7.199 -3.597,-13.699 -11.5,-15.898 -7.898,-1.403 -15.097,3.597 -16.5,10.801 -1.5,7.199 2.801,13 10.801,14.398 z"
         style="fill:none;stroke:#231f20;stroke-width:8.6;stroke-linecap:butt;stroke-linejoin:miter;stroke-miterlimit:11.4737;stroke-dasharray:none;stroke-opacity:1"
         id="path52" /><path
         d="m 658.719,1245.92 19.437,20.15 c 0,0.72 0.719,1.44 0.719,1.44 0.719,0.72 0.719,1.44 0.719,2.16 v 0 0 c 0,0.72 -0.719,1.44 -1.438,2.16 -0.722,0.72 -2.883,1.44 -5.039,1.44 v 2.16 h 19.434 v -2.16 c -1.438,0 -3.598,-0.72 -5.039,-1.44 -1.438,-0.72 -2.879,-1.44 -3.598,-2.88 -0.719,0 -1.441,-0.72 -1.441,-1.44 -0.719,0 -1.438,-1.44 -1.438,-2.15 l -14.398,-14.4 20.156,-24.48 c 0.719,-0.72 1.441,-1.44 2.16,-2.16 0,-0.72 0.719,-0.72 0.719,-1.44 1.441,-0.72 2.16,-1.44 2.879,-1.44 0.722,0 2.16,0 3.601,0 V 1220 h -13.679 l -21.594,25.2 -2.16,-2.16 v -18 0 -0.72 c 0,-0.72 0.719,-1.44 1.437,-2.16 0.723,-0.72 2.16,-0.72 3.602,-0.72 h 0.719 0.718 V 1220 H 644.32 v 1.44 c 2.16,0 3.598,0 4.321,0.72 0.718,0.72 1.437,2.16 1.437,4.32 v 38.88 c 0,2.87 0,5.03 -0.719,6.47 -1.441,0.72 -2.879,1.44 -5.761,1.44 v 2.16 h 21.597 v -2.16 c -2.16,0 -4.316,-0.72 -5.039,-1.44 -1.437,-0.72 -1.437,-2.16 -1.437,-5.04 v -20.87"
         style="fill:#231f20;fill-opacity:1;fill-rule:evenodd;stroke:none"
         id="path54" /><path
         d="m 725.668,1268.23 -2.16,2.16 h 0.719 v 0 c 0.722,0.72 2.16,2.16 3.601,2.88 0.719,1.44 1.442,2.88 2.16,3.6 l 16.559,-41.03 v 0 l 3.598,-8.64 0.718,-0.72 v -0.72 c 0.723,-0.72 1.442,-1.44 1.442,-2.16 0.718,-0.72 2.16,-1.44 4.32,-2.16 V 1220 h -21.598 v 1.44 c 2.161,0 4.321,0 5.758,0.72 0.723,0 1.442,0.72 1.442,2.16 0,0 0,0.72 0,1.44 0,0 -0.719,1.44 -0.719,2.16 l -5.043,12.96 H 717.75 l -5.039,-13.68 c 0,-0.72 0,-0.72 0,-1.44 l -0.723,-0.72 c 0,-0.72 0.723,-1.44 1.442,-2.16 0.718,-0.72 2.879,-1.44 5.039,-1.44 V 1220 h -15.117 v 1.44 c 2.16,0.72 3.597,1.44 4.32,2.16 0.719,0.72 0.719,1.44 1.437,2.88 l 0.723,0.72 c 0,0.72 0.719,1.44 0.719,2.16 z m 0.719,-2.87 -7.918,-21.6 h 16.558 z"
         style="fill:#231f20;fill-opacity:1;fill-rule:evenodd;stroke:none"
         id="path56" /><path
         d="m 774.621,1266.79 -7.199,-7.91 h -1.438 l 5.758,16.55 h 39.594 l -28.074,-41.03 v 0 l -8.641,-12.96 h 17.996 c 2.883,0 5.039,0 6.481,0.72 0.718,0 2.879,0.72 3.601,1.44 0.719,0.72 1.438,1.44 1.438,2.16 0.718,0.72 1.441,1.44 2.879,2.88 l 5.761,7.92 h 1.438 L 808.457,1220 h -41.035 v 0 h -4.32 l 28.796,40.32 v 0 l 9.36,12.95 H 783.98 c -1.441,0 -2.878,-0.72 -4.32,-1.44 -1.437,-0.72 -2.879,-2.16 -3.597,-2.88 -0.723,-0.72 -0.723,-0.72 -0.723,-1.44 0,0 -0.719,0 -0.719,-0.72"
         style="fill:#231f20;fill-opacity:1;fill-rule:evenodd;stroke:none"
         id="path58" /><path
         d="m 843.73,1268.23 -2.16,2.16 h 0.723 v 0 c 0.719,0.72 2.16,2.16 3.598,2.88 0.722,1.44 1.441,2.88 2.16,3.6 l 16.558,-41.03 v 0 l 3.598,-8.64 0.723,-0.72 v -0.72 c 0.718,-0.72 1.437,-1.44 1.437,-2.16 0.723,-0.72 2.16,-1.44 4.321,-2.16 V 1220 H 853.09 v 1.44 c 2.16,0 4.32,0 5.762,0.72 0.718,0 1.437,0.72 1.437,2.16 0,0 0,0.72 0,1.44 0,0 -0.719,1.44 -0.719,2.16 l -5.039,12.96 h -18.718 l -5.04,-13.68 c 0,-0.72 0,-0.72 0,-1.44 l -0.718,-0.72 c 0,-0.72 0.718,-1.44 1.437,-2.16 0.723,-0.72 2.879,-1.44 5.039,-1.44 V 1220 h -15.117 v 1.44 c 2.16,0.72 3.602,1.44 4.32,2.16 0.719,0.72 0.719,1.44 1.442,2.88 l 0.719,0.72 c 0,0.72 0.718,1.44 0.718,2.16 z m 0.723,-2.87 -7.922,-21.6 h 16.559 z"
         style="fill:#231f20;fill-opacity:1;fill-rule:evenodd;stroke:none"
         id="path60" /><path
         d="m 889.805,1250.23 v 16.56 c 0,2.16 0,3.6 -0.719,5.04 -1.441,0.72 -2.879,1.44 -5.039,1.44 v 2.16 h 22.316 v -2.16 c -2.879,0 -5.039,-0.72 -5.758,-2.16 -1.441,-0.72 -2.16,-3.6 -2.16,-5.75 v -37.44 c 0,-2.88 0.719,-5.04 2.16,-5.76 0.719,-0.72 2.879,-0.72 4.317,-0.72 v 0 h 0.723 v 0 0 h 10.796 c 3.602,0 5.758,1.44 7.918,3.6 2.161,2.88 5.039,5.76 6.481,7.92 0.719,0.72 0.719,2.16 0.719,2.16 0.722,0.72 1.441,1.44 1.441,2.16 h 2.16 L 930.121,1220 h -41.035 v 0 h -5.039 v 1.44 c 0,0 0,0 0.719,0 h 0.718 0.723 0.719 c 0.719,0 2.16,0 2.16,0.72 0.719,0.72 0.719,2.16 0.719,4.32 v 23.75"
         style="fill:#231f20;fill-opacity:1;fill-rule:evenodd;stroke:none"
         id="path62" /><path
         d="m 954.598,1256 v 12.23 c 0,2.16 0,3.6 -0.723,4.32 -0.719,0 -2.16,0.72 -2.879,0.72 -0.719,0 -1.437,0 -1.437,0 -0.723,0 -0.723,0 -1.442,0 v 2.16 h 41.035 v 0 h 0.719 l 4.32,-13.68 h -2.16 c -0.718,0.72 -0.718,1.45 -0.718,2.16 -0.723,0.72 -1.442,1.45 -1.442,1.45 -2.16,2.87 -3.598,5.03 -5.758,5.75 -2.16,1.44 -5.039,2.16 -8.64,2.16 h -12.239 v -23.75 h 6.481 c 0.719,0 0.719,0 1.437,0 0.723,0 1.442,0 1.442,0 2.16,0 3.597,0.71 5.039,2.16 2.16,1.44 2.879,4.32 3.601,7.91 h 1.438 v -23.75 h -1.438 c -0.722,4.32 -2.16,7.2 -3.601,8.64 -2.16,1.44 -5.039,2.16 -7.918,2.16 h -6.481 v -20.16 c 0,-1.44 0.719,-2.88 1.442,-3.6 0.719,-0.72 2.16,-1.44 4.32,-1.44 h 8.637 c 4.32,0 7.918,1.44 10.078,3.6 2.879,2.88 5.039,5.76 7.199,10.08 h 1.442 L 993.473,1220 h -41.035 v 0 h -4.321 v 1.44 c 2.879,0 5.039,0.72 5.758,1.44 0.723,0.72 0.723,2.16 0.723,4.32 v 28.8"
         style="fill:#231f20;fill-opacity:1;fill-rule:evenodd;stroke:none"
         id="path64" /><path
         d="m 1057.54,1253.84 c 0,5.75 -1.44,10.07 -3.6,12.23 -2.16,2.88 -5.04,5.04 -7.92,6.48 -1.44,0 -2.88,0.72 -4.32,0.72 -1.43,0.72 -2.88,0.72 -4.31,0.72 -5.76,-0.72 -10.8,-3.6 -13.68,-8.63 -3.6,-5.77 -5.04,-11.52 -5.04,-18 v -0.72 -0.72 c 0,-6.48 1.44,-12.24 5.04,-17.28 3.59,-5.76 8.63,-8.64 15.11,-8.64 5.04,0 9.36,2.16 12.96,5.04 3.6,3.6 5.76,8.64 6.48,13.68 h 1.44 V 1220 h -1.44 l -2.16,4.32 c -1.44,-0.72 -2.88,-1.44 -4.32,-2.16 -1.44,-0.72 -2.88,-1.44 -5.04,-2.16 -1.44,0 -2.88,0 -4.31,-0.72 -1.45,0 -2.89,0 -4.32,0 -7.92,0 -15.12,1.44 -20.16,6.48 -5.76,5.04 -8.64,12.24 -8.64,20.88 0,0.72 0,2.16 0,2.88 0,1.44 0.72,2.16 0.72,3.6 0.72,5.04 3.6,10.08 7.92,15.11 4.32,4.32 10.8,7.2 18,7.92 2.87,0 5.75,-0.72 7.91,-0.72 2.88,-0.72 5.77,-1.44 7.92,-2.88 0.72,-0.72 1.44,-1.44 2.16,-1.44 0,-0.72 0.72,-1.44 1.44,-1.44 l 2.16,3.6 h 1.44 v -19.43 h -1.44"
         style="fill:#231f20;fill-opacity:1;fill-rule:evenodd;stroke:none"
         id="path66" /><path
         d="m 137.434,819.359 18,41.036 v 0.718 l 2.16,4.321 h 13.676 v -2.161 c -2.879,0 -4.321,-0.722 -5.04,-2.16 -1.441,-0.718 -1.441,-3.601 -1.441,-5.758 v -37.437 c 0,-2.16 0,-4.32 0.723,-5.039 0.718,-0.719 2.16,-1.438 3.597,-1.438 0.723,0 0.723,0 0.723,0 0.719,0 0.719,0 1.438,0 V 810 h -21.598 v 1.441 c 2.879,0 4.32,0.719 5.039,0.719 1.441,0.719 2.16,2.879 2.16,7.199 v 36.715 l -18.715,-41.035 v 0 L 135.273,810 h -1.437 l -20.156,40.313 v 0 l -2.883,5.761 v -40.316 c 0,-0.719 0.723,-2.16 1.441,-2.879 0.719,-0.719 2.16,-1.438 4.321,-1.438 h 0.718 c 0.719,0 0.719,0 1.442,0 V 810 h -17.278 v 1.441 c 2.879,0 4.317,0 5.758,0.719 0.719,0 1.442,1.438 1.442,3.598 v 41.035 0 0 c 0,1.441 -0.723,2.879 -1.442,4.32 0,1.438 -2.16,2.16 -5.039,2.16 v 2.161 h 14.399 l 18.714,-41.036 v 0 l 2.161,-5.039"
         style="fill:#231f20;fill-opacity:1;fill-rule:evenodd;stroke:none"
         id="path68" /><path
         d="m 202.945,858.234 -2.16,2.161 h 0.723 v 0 c 0.719,0.718 2.156,2.156 3.597,2.878 0.719,1.438 1.442,2.879 2.161,3.598 l 16.558,-41.035 v 0 l 3.598,-8.637 0.719,-0.719 v -0.722 c 0.722,-0.719 1.441,-1.438 1.441,-2.16 0.719,-0.719 2.16,-1.438 4.32,-2.157 V 810 h -21.597 v 1.441 c 2.16,0 4.32,0 5.758,0.719 0.722,0 1.441,0.719 1.441,2.16 0,0 0,0.719 0,1.438 0,0 -0.719,1.441 -0.719,2.16 l -5.039,12.961 h -18.719 l -5.039,-13.68 c 0,-0.719 0,-0.719 0,-1.441 l -0.718,-0.719 c 0,-0.719 0.718,-1.441 1.437,-2.16 0.719,-0.719 2.879,-1.438 5.039,-1.438 V 810 h -15.117 v 1.441 c 2.16,0.719 3.598,1.438 4.32,2.157 0.719,0.722 0.719,1.441 1.438,2.882 l 0.722,0.719 c 0,0.719 0.719,1.442 0.719,2.16 z m 0.719,-2.879 -7.918,-21.597 h 16.559 z"
         style="fill:#231f20;fill-opacity:1;fill-rule:evenodd;stroke:none"
         id="path70" /><path
         d="m 291.492,846.715 c -0.719,4.32 -2.879,8.64 -6.476,11.519 -2.883,3.598 -7.2,5.039 -11.52,5.039 -7.199,0 -12.957,-2.878 -16.558,-7.918 -3.598,-5.761 -5.758,-12.238 -5.758,-18.718 v 0 -0.719 0 -0.723 c 0,-6.476 1.437,-12.238 5.039,-17.277 3.597,-5.039 8.636,-7.918 15.117,-7.918 3.602,0 7.199,1.441 9.359,2.879 2.16,1.441 3.598,4.32 3.598,7.918 v 5.762 c 0,2.879 -0.719,5.039 -1.438,5.757 0,0 -2.878,0.719 -6.48,1.442 v 1.437 h 22.316 v -1.437 c -0.718,0 -0.718,-0.723 -1.437,-0.723 -0.723,0 -0.723,0 -1.441,0 -1.442,-0.719 -2.161,-0.719 -2.879,-1.437 0,-0.719 -0.719,-2.879 -0.719,-5.762 V 814.32 l -1.442,-0.722 c -0.718,-0.719 -1.441,-0.719 -2.16,-1.438 -1.437,-0.719 -4.32,-2.16 -6.48,-2.16 -2.879,-0.719 -6.477,-1.441 -9.356,-1.441 -0.722,0 -0.722,0 -1.441,0 h -0.719 c -7.918,0 -14.398,1.441 -18.719,5.039 -4.32,4.32 -7.199,8.64 -8.636,13.679 0,1.442 -0.723,2.879 -0.723,3.602 0,1.437 0,2.879 0,3.598 0,11.519 2.879,19.437 9.359,24.476 6.481,4.32 13.68,7.199 21.598,7.199 0,0 0,0 0.719,0 l 0.723,-0.718 c 2.156,0 5.039,-0.723 7.195,-1.442 2.883,-1.441 5.043,-2.879 7.199,-4.32 l 2.883,4.32 h 1.437 l 0.719,-17.277 h -2.879"
         style="fill:#231f20;fill-opacity:1;fill-rule:evenodd;stroke:none"
         id="path72" /><path
         d="m 360.605,821.52 v 34.554 c 0,2.16 -0.722,3.598 -0.722,5.039 -0.719,1.438 -2.879,2.16 -6.477,2.16 v 2.161 h 17.278 v -2.161 c -2.879,0 -5.039,-0.722 -5.762,-1.441 -0.719,-1.437 -1.438,-2.879 -1.438,-3.598 0,-0.722 0,-0.722 0,-1.441 0,0 0,-0.719 0,-1.438 v -40.316 0 V 810 h -2.16 l -38.156,39.594 v 0 l -5.039,5.761 v -39.597 c 0,-1.438 0.723,-2.879 2.16,-3.598 1.441,0 3.602,-0.719 5.758,-0.719 V 810 H 308.77 v 1.441 h 0.722 c 0.719,0 0.719,0 1.438,0 0.722,0 2.16,0 3.601,0.719 0.719,0.719 1.438,1.438 1.438,3.598 v 41.035 0 0.719 l -0.719,0.722 -0.719,0.719 c 0,0 -0.722,1.442 -1.441,1.442 -0.719,0.718 -1.438,1.437 -2.16,2.156 -0.719,0 -0.719,0 -1.438,0 -0.722,0.722 -0.722,0.722 -1.441,0.722 v 2.161 h 12.957 l 37.437,-41.036 v 0 l 2.16,-2.878"
         style="fill:#231f20;fill-opacity:1;fill-rule:evenodd;stroke:none"
         id="path74" /><path
         d="m 390.121,845.996 v 12.238 c 0,2.161 0,3.598 -0.723,4.317 -0.718,0 -2.16,0.722 -2.878,0.722 -0.719,0 -1.438,0 -1.438,0 -0.723,0 -0.723,0 -1.441,0 v 2.161 h 41.035 v 0 h 0.719 l 4.32,-13.68 h -2.16 c -0.719,0.719 -0.719,1.441 -0.719,2.16 -0.723,0.719 -1.441,1.441 -1.441,1.441 -2.161,2.879 -3.598,5.04 -5.758,5.758 -2.16,1.438 -5.039,2.16 -8.641,2.16 h -12.238 v -23.757 h 6.48 c 0.719,0 0.719,0 1.438,0 0.722,0 1.441,0 1.441,0 2.16,0 3.598,0.718 5.039,2.16 2.16,1.441 2.879,4.32 3.602,7.918 h 1.437 v -23.758 h -1.437 c -0.723,4.32 -2.16,7.199 -3.602,8.641 -2.16,1.441 -5.039,2.16 -7.918,2.16 h -6.48 V 816.48 c 0,-1.441 0.719,-2.882 1.441,-3.601 0.719,-0.719 2.16,-1.438 4.321,-1.438 h 8.636 c 4.321,0 7.918,1.438 10.078,3.598 2.879,2.879 5.039,5.758 7.2,10.078 h 1.441 L 428.996,810 h -41.035 v 0 h -4.32 v 1.441 c 2.879,0 5.039,0.719 5.757,1.438 0.723,0.719 0.723,2.16 0.723,4.32 v 28.797"
         style="fill:#231f20;fill-opacity:1;fill-rule:evenodd;stroke:none"
         id="path76" /><path
         d="m 470.027,842.395 v 20.156 h -12.238 c -1.437,0 -2.879,0 -3.598,0 -0.718,0 -2.16,-0.719 -2.878,-1.438 -0.723,-0.718 -0.723,-1.441 -1.442,-2.16 0,0 -0.719,-1.441 -1.441,-2.16 l -3.598,-5.758 -1.441,0.719 2.882,15.117 c 0,0 0.719,-0.719 1.438,-0.719 0,0 0.719,0 1.441,0 0.719,0 1.438,-0.718 2.879,-0.718 0.719,0 2.16,0 3.598,0 h 35.996 c 0.719,0 2.16,0 2.879,0 0.723,0 2.16,0 2.883,0 0.718,0 1.437,0.718 2.156,0.718 0,0.719 0.723,0.719 1.441,0.719 l 3.598,-15.117 -1.437,-0.719 -5.758,8.637 v 0 h -0.723 c -0.719,1.441 -1.437,2.16 -2.879,2.16 -0.719,0.719 -2.16,0.719 -3.597,0.719 h -12.239 v -22.317 -23.035 c 0,-2.879 0.719,-4.32 2.156,-5.039 0.723,-0.719 3.602,-0.719 6.481,-0.719 V 810 h -24.477 v 1.441 c 4.321,0 6.481,0.719 6.481,1.438 0.719,0.719 1.437,2.16 1.437,4.32 v 0 0.719 24.477"
         style="fill:#231f20;fill-opacity:1;fill-rule:evenodd;stroke:none"
         id="path78" /><path
         d="m 899.516,830.078 13.679,36.715 c 0,0.719 0,1.441 0,2.16 l 0.719,0.719 c 0,1.441 -0.719,2.879 -2.16,2.879 -1.441,0.722 -3.598,0.722 -5.758,0.722 v 2.161 h 15.836 v -2.161 c -0.719,0 -2.879,-0.722 -3.598,-2.16 -0.722,-0.718 -2.16,-2.879 -2.879,-4.32 v -0.719 -0.719 l -15.839,-40.316 v 0 l -2.161,-6.48 h -2.16 l -16.554,41.035 -2.883,6.48 c 0,1.438 -0.719,2.16 -0.719,2.16 0,0.719 -0.719,1.438 -0.719,1.438 -0.722,1.441 -1.441,2.16 -1.441,2.879 -0.719,0 -2.16,0.722 -2.879,0.722 v 2.161 h 20.879 v -2.161 c 0,0 -0.723,0 -1.441,0 h -0.719 c -1.442,0 -2.883,-0.722 -3.602,-0.722 -0.719,0 -1.437,-1.438 -1.437,-2.156 0,-0.723 0,-0.723 0,-1.442 0,0 0,-0.719 0.718,-1.441 l 15.118,-37.434"
         style="fill:#231f20;fill-opacity:1;fill-rule:evenodd;stroke:none"
         id="path80" /><path
         d="m 941.27,866.793 -7.2,-7.918 h -1.437 l 5.758,16.559 h 39.593 L 949.91,834.398 v 0 l -8.64,-12.957 h 18 c 2.878,0 5.039,0 6.476,0.719 0.719,0 2.879,0.719 3.602,1.438 0.718,0.722 1.437,1.441 1.437,2.16 0.723,0.722 1.442,1.441 2.879,2.883 l 5.762,7.918 h 1.437 L 975.105,820 H 934.07 v 0 h -4.32 l 28.797,40.313 v 0 l 9.359,12.96 h -17.277 c -1.441,0 -2.879,-0.722 -4.32,-1.441 -1.438,-0.719 -2.879,-2.16 -3.598,-2.879 -0.723,-0.719 -0.723,-0.719 -0.723,-1.441 0,0 -0.718,0 -0.718,-0.719"
         style="fill:#231f20;fill-opacity:1;fill-rule:evenodd;stroke:none"
         id="path82" /><path
         d="m 1025.5,829.359 18,41.036 v 0.718 l 2.16,4.321 h 13.67 v -2.161 c -2.88,0 -4.31,-0.722 -5.04,-2.16 -1.43,-0.718 -1.43,-3.601 -1.43,-5.758 v -37.437 c 0,-2.16 0,-4.32 0.71,-5.039 0.72,-0.719 2.16,-1.438 3.61,-1.438 0.71,0 0.71,0 0.71,0 0.72,0 0.72,0 1.44,0 V 820 h -21.59 v 1.441 c 2.88,0 4.31,0.719 5.04,0.719 1.43,0.719 2.16,2.879 2.16,7.199 v 36.715 l -18.72,-41.035 v 0 L 1023.34,820 h -1.44 l -20.16,40.313 v 0 l -2.877,5.761 v -40.316 c 0,-0.719 0.719,-2.16 1.437,-2.879 0.72,-0.719 2.16,-1.438 4.32,-1.438 h 0.72 c 0.72,0 0.72,0 1.44,0 V 820 h -17.276 v 1.441 c 2.879,0 4.32,0 5.758,0.719 0.722,0 1.441,1.438 1.441,3.598 v 41.035 0 0 c 0,1.441 -0.719,2.879 -1.441,4.32 0,1.438 -2.16,2.16 -5.039,2.16 v 2.161 h 14.397 l 18.72,-41.036 v 0 l 2.16,-5.039"
         style="fill:#231f20;fill-opacity:1;fill-rule:evenodd;stroke:none"
         id="path84" /><path
         d="m 1079.49,855.996 v 12.238 c 0,2.161 0,3.598 -0.72,4.317 -0.72,0 -2.16,0.722 -2.88,0.722 -0.72,0 -1.44,0 -1.44,0 -0.72,0 -0.72,0 -1.44,0 v 2.161 h 41.04 v 0 h 0.72 l 4.32,-13.68 h -2.16 c -0.72,0.719 -0.72,1.441 -0.72,2.16 -0.73,0.719 -1.44,1.441 -1.44,1.441 -2.16,2.879 -3.6,5.04 -5.76,5.758 -2.16,1.438 -5.04,2.16 -8.64,2.16 h -12.24 v -23.757 h 6.48 c 0.72,0 0.72,0 1.44,0 0.72,0 1.44,0 1.44,0 2.16,0 3.6,0.718 5.04,2.16 2.16,1.441 2.88,4.32 3.6,7.918 h 1.44 v -23.758 h -1.44 c -0.72,4.32 -2.16,7.199 -3.6,8.641 -2.16,1.441 -5.04,2.16 -7.92,2.16 h -6.48 V 826.48 c 0,-1.441 0.72,-2.882 1.44,-3.601 0.72,-0.719 2.16,-1.438 4.32,-1.438 h 8.64 c 4.32,0 7.92,1.438 10.08,3.598 2.87,2.879 5.03,5.758 7.19,10.078 h 1.45 L 1118.37,820 h -41.04 v 0 h -4.32 v 1.441 c 2.88,0 5.04,0.719 5.76,1.438 0.72,0.719 0.72,2.16 0.72,4.32 v 28.797"
         style="fill:#231f20;fill-opacity:1;fill-rule:evenodd;stroke:none"
         id="path86" /><path
         d="m 1159.4,852.395 v 20.156 h -12.24 c -1.44,0 -2.88,0 -3.6,0 -0.72,0 -2.16,-0.719 -2.88,-1.438 -0.72,-0.718 -0.72,-1.441 -1.44,-2.16 0,0 -0.72,-1.441 -1.44,-2.16 l -3.6,-5.758 -1.44,0.719 2.88,15.117 c 0,0 0.72,-0.719 1.44,-0.719 0,0 0.72,0 1.44,0 0.72,0 1.44,-0.718 2.88,-0.718 0.72,0 2.16,0 3.6,0 h 36 c 0.71,0 2.16,0 2.88,0 0.72,0 2.16,0 2.88,0 0.72,0 1.44,0.718 2.15,0.718 0,0.719 0.73,0.719 1.45,0.719 l 3.6,-15.117 -1.44,-0.719 -5.76,8.637 v 0 h -0.72 c -0.72,1.441 -1.44,2.16 -2.88,2.16 -0.72,0.719 -2.16,0.719 -3.6,0.719 h -12.24 v -22.317 -23.035 c 0,-2.879 0.72,-4.32 2.16,-5.039 0.72,-0.719 3.6,-0.719 6.48,-0.719 V 820 h -24.48 v 1.441 c 4.32,0 6.48,0.719 6.48,1.438 0.72,0.719 1.44,2.16 1.44,4.32 v 0 0.719 24.477"
         style="fill:#231f20;fill-opacity:1;fill-rule:evenodd;stroke:none"
         id="path88" /><path
         d="m 943.273,141.52 v 34.554 c 0,2.16 -0.722,3.598 -0.722,5.039 -0.719,1.438 -2.879,2.16 -6.477,2.16 v 2.161 h 17.278 v -2.161 c -2.879,0 -5.039,-0.722 -5.758,-1.441 -0.723,-1.437 -1.442,-2.879 -1.442,-3.598 0,-0.722 0,-0.722 0,-1.441 0,0 0,-0.719 0,-1.438 v -40.316 0 V 130 h -2.16 l -38.156,39.594 v 0 l -5.039,5.761 v -39.597 c 0,-1.438 0.723,-2.879 2.16,-3.598 1.441,0 3.602,-0.719 5.762,-0.719 V 130 h -17.278 v 1.441 h 0.719 c 0.719,0 0.719,0 1.438,0 0.722,0 2.16,0 3.601,0.719 0.719,0.719 1.442,1.438 1.442,3.598 v 41.035 0 0.719 l -0.723,0.722 -0.719,0.719 c 0,0 -0.719,1.442 -1.441,1.442 -0.719,0.718 -1.438,1.437 -2.16,2.156 -0.719,0 -0.719,0 -1.438,0 -0.719,0.722 -0.719,0.722 -1.441,0.722 v 2.161 h 12.961 l 37.433,-41.036 v 0 l 2.16,-2.878"
         style="fill:#231f20;fill-opacity:1;fill-rule:evenodd;stroke:none"
         id="path90" /><path
         d="m 984.309,178.234 -2.161,2.161 h 0.719 v 0 c 0.719,0.718 2.16,2.156 3.598,2.878 0.723,1.438 1.441,2.879 2.16,3.598 l 16.555,-41.035 v 0 l 3.61,-8.637 0.71,-0.719 v -0.722 c 0.72,-0.719 1.44,-1.438 1.44,-2.16 0.72,-0.719 2.16,-1.438 4.32,-2.157 V 130 h -21.596 v 1.441 c 2.16,0 4.32,0 5.762,0.719 0.714,0 1.434,0.719 1.434,2.16 0,0 0,0.719 0,1.438 0,0 -0.72,1.441 -0.72,2.16 l -5.035,12.961 h -18.718 l -5.039,-13.68 c 0,-0.719 0,-0.719 0,-1.441 l -0.719,-0.719 c 0,-0.719 0.719,-1.441 1.441,-2.16 0.719,-0.719 2.879,-1.438 5.039,-1.438 V 130 h -15.121 v 1.441 c 2.16,0.719 3.602,1.438 4.321,2.157 0.722,0.722 0.722,1.441 1.441,2.882 l 0.719,0.719 c 0,0.719 0.719,1.442 0.719,2.16 z m 0.718,-2.879 -7.918,-21.597 h 16.555 z"
         style="fill:#231f20;fill-opacity:1;fill-rule:evenodd;stroke:none"
         id="path92" /><path
         d="m 1050.54,140.078 13.67,36.715 c 0,0.719 0,1.441 0,2.16 l 0.73,0.719 c 0,1.441 -0.73,2.879 -2.16,2.879 -1.44,0.722 -3.6,0.722 -5.76,0.722 v 2.161 h 15.84 v -2.161 c -0.72,0 -2.88,-0.722 -3.61,-2.16 -0.71,-0.718 -2.16,-2.879 -2.87,-4.32 v -0.719 -0.719 l -15.84,-40.316 v 0 l -2.16,-6.48 h -2.16 l -16.56,41.035 -2.88,6.48 c 0,1.438 -0.72,2.16 -0.72,2.16 0,0.719 -0.72,1.438 -0.72,1.438 -0.72,1.441 -1.44,2.16 -1.44,2.879 -0.72,0 -2.16,0.722 -2.88,0.722 v 2.161 h 20.88 v -2.161 c 0,0 -0.72,0 -1.44,0 h -0.72 c -1.44,0 -2.88,-0.722 -3.6,-0.722 -0.72,0 -1.44,-1.438 -1.44,-2.156 0,-0.723 0,-0.723 0,-1.442 0,0 0,-0.719 0.72,-1.441 l 15.12,-37.434"
         style="fill:#231f20;fill-opacity:1;fill-rule:evenodd;stroke:none"
         id="path94" /><path
         d="m 1090.85,162.395 v 12.96 c 0,2.879 0,5.04 -0.72,6.477 -0.72,0.719 -3.6,1.441 -6.48,1.441 v 2.161 h 23.04 v -2.161 c -2.88,0 -5.04,-0.722 -5.76,-0.722 -1.44,-1.438 -2.16,-3.598 -2.16,-7.196 V 136.48 c 0,-2.16 0.72,-3.601 2.16,-4.32 0.72,-0.719 2.88,-0.719 5.76,-0.719 V 130 h -23.04 v 1.441 0 0 0 h 0.73 c 1.43,0 2.87,0 4.31,0.719 1.44,0 2.16,2.16 2.16,5.039 v 25.196"
         style="fill:#231f20;fill-opacity:1;fill-rule:evenodd;stroke:none"
         id="path96" /><path
         d="m 1144.13,162.395 v 20.156 h -12.24 c -1.44,0 -2.88,0 -3.6,0 -0.72,0 -2.16,-0.719 -2.88,-1.438 -0.72,-0.718 -0.72,-1.441 -1.44,-2.16 0,0 -0.72,-1.441 -1.44,-2.16 l -3.6,-5.758 -1.44,0.719 2.88,15.117 c 0,0 0.72,-0.719 1.44,-0.719 0,0 0.72,0 1.44,0 0.72,0 1.44,-0.718 2.88,-0.718 0.72,0 2.16,0 3.6,0 h 35.99 c 0.72,0 2.16,0 2.88,0 0.72,0 2.16,0 2.88,0 0.72,0 1.44,0.718 2.16,0.718 0,0.719 0.72,0.719 1.44,0.719 l 3.6,-15.117 -1.44,-0.719 -5.76,8.637 v 0 h -0.72 c -0.72,1.441 -1.44,2.16 -2.88,2.16 -0.72,0.719 -2.16,0.719 -3.6,0.719 h -12.24 v -22.317 -23.035 c 0,-2.879 0.72,-4.32 2.16,-5.039 0.72,-0.719 3.6,-0.719 6.48,-0.719 V 130 h -24.47 v 1.441 c 4.31,0 6.47,0.719 6.47,1.438 0.73,0.719 1.45,2.16 1.45,4.32 v 0 0.719 24.477"
         style="fill:#231f20;fill-opacity:1;fill-rule:evenodd;stroke:none"
         id="path98" /><path
         d="m 1196.68,165.273 v 10.082 c 0,2.879 -0.72,5.04 -1.44,5.758 -1.44,1.438 -2.88,2.16 -4.32,2.16 h -0.72 -0.72 v 2.161 h 21.59 v -2.161 c -2.16,0 -4.31,-0.722 -5.03,-1.441 -0.72,-1.437 -1.44,-3.598 -1.44,-6.477 v -35.996 c 0,-5.761 -0.72,-10.8 -2.16,-14.398 -2.16,-3.602 -5.04,-6.481 -7.92,-7.199 -0.72,0 -1.44,-0.719 -2.16,-0.719 -0.72,0 -1.44,0 -2.16,0 -0.72,0 -2.16,0 -2.88,0.719 -0.72,0 -1.44,0.718 -2.16,1.441 0,0 -0.72,0.719 -0.72,1.438 0,0 0,0.718 0,1.441 v 0 0.719 c 0,0.719 0,1.441 0,2.16 0.72,0.719 2.16,1.441 3.6,1.441 0.72,0 1.44,0 2.16,-0.722 0,-0.719 0.72,-1.438 1.44,-2.16 v 0 -0.719 c 0,0 0.72,-0.719 0.72,-1.442 0,0 0.72,-0.718 1.44,-0.718 0.72,-0.719 1.44,-0.719 2.16,0 0.72,0.718 0.72,2.16 0.72,4.32 v 40.312 0"
         style="fill:#231f20;fill-opacity:1;fill-rule:evenodd;stroke:none"
         id="path100" /><path
         d="m 1231.95,165.996 v 12.238 c 0,2.161 0,3.598 -0.72,4.317 -0.72,0 -2.16,0.722 -2.88,0.722 -0.72,0 -1.44,0 -1.44,0 -0.71,0 -0.71,0 -1.44,0 v 2.161 h 41.04 v 0 h 0.72 l 4.32,-13.68 h -2.16 c -0.72,0.719 -0.72,1.441 -0.72,2.16 -0.72,0.719 -1.44,1.441 -1.44,1.441 -2.16,2.879 -3.6,5.04 -5.76,5.758 -2.16,1.438 -5.04,2.16 -8.64,2.16 h -12.24 v -23.757 h 6.48 c 0.72,0 0.72,0 1.44,0 0.72,0 1.44,0 1.44,0 2.16,0 3.6,0.718 5.04,2.16 2.16,1.441 2.88,4.32 3.6,7.918 h 1.44 v -23.758 h -1.44 c -0.72,4.32 -2.16,7.199 -3.6,8.641 -2.16,1.441 -5.04,2.16 -7.92,2.16 h -6.48 V 136.48 c 0,-1.441 0.72,-2.882 1.44,-3.601 0.72,-0.719 2.16,-1.438 4.32,-1.438 h 8.64 c 4.32,0 7.92,1.438 10.08,3.598 2.88,2.879 5.04,5.758 7.2,10.078 h 1.44 L 1270.83,130 h -41.04 v 0 h -4.32 v 1.441 c 2.88,0 5.04,0.719 5.76,1.438 0.72,0.719 0.72,2.16 0.72,4.32 v 28.797"
         style="fill:#231f20;fill-opacity:1;fill-rule:evenodd;stroke:none"
         id="path102" /><path
         d="M 899.398,795.602 832.5,684.699"
         style="fill:none;stroke:#231f20;stroke-width:5.8;stroke-linecap:butt;stroke-linejoin:miter;stroke-miterlimit:11.4737;stroke-dasharray:none;stroke-opacity:1"
         id="path104" /><path
         d="m 814.5,653.801 58.301,59 c -17.301,-2.903 -27.403,4.301 -33.102,21.597 L 814.5,653.801"
         style="fill:#231f20;fill-opacity:1;fill-rule:evenodd;stroke:none"
         id="path106" /><path
         d="M 927.5,200.199 877.801,420.5"
         style="fill:none;stroke:#231f20;stroke-width:5.8;stroke-linecap:butt;stroke-linejoin:miter;stroke-miterlimit:11.4737;stroke-dasharray:none;stroke-opacity:1"
         id="path108" /><path
         d="m 870.602,455 -1.403,-82.801 c 10.102,14.403 23,17.301 38.903,8.699 L 870.602,455"
         style="fill:#231f20;fill-opacity:1;fill-rule:evenodd;stroke:none"
         id="path110" /></g></g></svg>
