<?xml version="1.0" encoding="UTF-8" standalone="no"?>
<!-- Created with Inkscape (http://www.inkscape.org/) -->

<svg
   version="1.1"
   id="svg2"
   xml:space="preserve"
   width="190.66667"
   height="96"
   viewBox="0 0 190.66667 96"
   xmlns="http://www.w3.org/2000/svg"
   xmlns:svg="http://www.w3.org/2000/svg"><defs
     id="defs6" /><g
     id="g8"
     transform="matrix(1.3333333,0,0,-1.3333333,0,96)"><g
       id="g10"
       transform="scale(0.1)"><path
         d="M 5.39844,713.398 H 1423.1 V 5.69922 H 5.39844 Z"
         style="fill:none;stroke:#231f20;stroke-width:11.5;stroke-linecap:butt;stroke-linejoin:miter;stroke-miterlimit:11.4737;stroke-dasharray:none;stroke-opacity:1"
         id="path12" /><path
         d="m 306.637,483.195 c 0,6.477 -1.442,11.516 -4.321,15.118 -2.878,2.878 -5.757,5.757 -9.359,7.199 -2.16,0.718 -3.598,1.437 -5.758,1.437 -2.16,0.723 -3.601,0.723 -5.039,0.723 -7.199,-0.723 -13.68,-4.32 -17.277,-10.801 -4.32,-7.199 -6.481,-14.398 -6.481,-22.316 v -0.719 -0.719 c 0,-8.64 2.161,-15.84 6.481,-22.32 4.32,-7.199 10.797,-10.078 18.715,-10.078 6.48,0 12.238,2.16 16.558,6.48 4.321,3.598 7.199,10.078 7.199,16.559 h 2.879 v -23.039 h -2.879 l -2.16,5.039 c -1.437,-0.719 -2.879,-2.16 -5.039,-2.879 -2.16,-1.438 -3.597,-2.16 -5.758,-2.879 -2.16,0 -4.32,-0.719 -6.48,-0.719 -1.438,0 -3.598,-0.722 -5.039,-0.722 -10.078,0 -18.715,2.882 -25.914,9.359 -6.481,6.48 -10.082,15.117 -10.082,25.918 0,0.719 0,2.16 0,3.598 0,1.441 0.722,2.879 0.722,3.601 1.438,7.199 5.04,13.676 10.079,19.438 5.757,5.757 12.957,9.359 22.316,9.359 3.598,0 7.199,0 10.078,-0.723 3.602,0 7.199,-1.437 10.078,-3.597 0.723,-0.719 1.442,-0.719 2.16,-1.442 0.719,-0.718 1.442,-1.437 2.161,-2.16 l 2.16,5.039 h 2.879 v -23.754 h -2.879"
         style="fill:#231f20;fill-opacity:1;fill-rule:evenodd;stroke:none"
         id="path14" /><path
         d="m 1197.68,485.355 v 15.118 c 0,2.879 -0.72,4.32 -1.44,5.039 -0.72,0.718 -2.16,1.437 -3.6,1.437 -0.71,0 -0.71,0 -1.44,0 0,0 -0.72,0 -1.43,0 v 2.16 h 51.83 v 0 h 0.72 l 4.32,-16.558 h -2.16 c -0.72,0.722 -0.72,2.16 -1.44,2.883 -0.72,0 -0.72,1.437 -1.44,2.16 -2.16,2.879 -4.32,5.039 -7.2,7.199 -2.16,1.437 -5.76,2.156 -10.8,2.156 h -15.12 v -30.234 h 7.92 c 0.72,0 1.44,0 2.16,0 0,0 1.44,0 2.16,0 2.16,0 4.32,1.441 6.48,2.879 2.16,1.441 2.88,5.039 3.6,9.359 h 1.44 v -28.797 h -1.44 c -0.72,5.039 -2.16,9.36 -4.32,10.801 -2.88,1.438 -5.76,2.879 -10.08,2.879 h -7.92 v -25.918 c 0,-2.16 0.72,-3.598 2.16,-4.32 0.72,-0.719 2.88,-1.438 5.04,-1.438 h 11.52 c 4.32,0 8.64,1.438 12.24,4.32 2.88,3.598 5.76,7.2 7.92,12.239 h 2.87 L 1245.92,440 h -51.12 v 0 h -5.03 v 2.16 c 3.59,0 5.75,0.719 6.47,1.438 0.72,1.441 1.44,3.601 1.44,5.043 v 36.714"
         style="fill:#231f20;fill-opacity:1;fill-rule:evenodd;stroke:none"
         id="path16" /><path
         d="m 659.844,236.074 v 12.957 c 0,2.16 -0.723,5.039 -0.723,5.758 -0.719,1.441 -3.598,2.16 -7.195,2.16 v 2.16 h 27.355 c 6.477,0 12.239,-1.437 16.555,-3.597 4.32,-2.16 6.48,-6.481 6.48,-12.239 0,-4.32 -1.437,-7.918 -3.597,-10.8 -2.16,-2.16 -5.039,-4.317 -7.922,-5.039 h -0.719 v 0 c 0.719,0 1.442,-0.719 2.16,-0.719 0.719,0 2.16,-0.719 2.879,-0.719 2.879,-1.441 5.762,-3.601 7.918,-6.48 2.883,-2.161 4.32,-6.481 4.32,-11.52 0,-5.039 -1.437,-8.637 -4.32,-10.797 -2.879,-2.16 -5.758,-4.32 -9.355,-5.758 -1.442,-0.722 -4.321,-1.441 -5.762,-1.441 -2.16,0 -4.32,0 -5.039,0 h -30.953 v 2.16 c 3.597,0 6.476,0.719 7.195,1.438 0,1.441 0.723,3.601 0.723,7.922 0,0.718 0,0.718 0,1.437 v 0.723 z m 35.992,-27.355 c 0,5.758 -1.438,10.078 -4.316,11.515 -2.879,2.161 -6.481,3.602 -10.079,3.602 -0.722,0 -2.16,0 -2.16,0 -0.722,0 -2.16,0 -2.879,0 h -0.722 -0.719 c -0.719,0 -2.16,0 -2.879,0 -0.723,0 -1.441,0.719 -2.16,0.719 v -26.637 c 0,-2.16 0.719,-3.598 2.16,-4.32 2.16,-0.719 3.598,-1.438 5.758,-1.438 v 0 h 0.719 c 0.722,0 2.16,0 2.882,0 0.719,0 1.438,0.719 2.157,0.719 3.601,0 6.48,1.441 8.64,4.32 2.879,2.879 3.598,6.481 3.598,11.52 z m -25.914,48.23 v -30.234 h 0.719 0.718 v 0 h 0.723 c 7.199,0 12.238,1.441 15.117,4.32 3.598,3.598 5.039,7.199 5.039,11.516 0,5.762 -1.441,9.359 -4.32,10.801 -2.879,2.16 -6.477,3.597 -10.797,3.597 -0.719,0 -1.441,0 -2.879,0 -0.722,0 -2.16,0 -2.883,0 h -0.718 -0.719"
         style="fill:#231f20;fill-opacity:1;fill-rule:evenodd;stroke:none"
         id="path18" /><path
         d="M 630.398,429.801 H 857.199"
         style="fill:none;stroke:#231f20;stroke-width:20.2;stroke-linecap:butt;stroke-linejoin:miter;stroke-miterlimit:11.4737;stroke-dasharray:none;stroke-opacity:1"
         id="path20" /><path
         d="M 744.199,203 V 429.801 L 630.398,543.5 H 233.699"
         style="fill:none;stroke:#231f20;stroke-width:8.6;stroke-linecap:butt;stroke-linejoin:miter;stroke-miterlimit:11.4737;stroke-dasharray:none;stroke-opacity:1"
         id="path22" /><path
         d="m 744.199,429.801 113,113.699 H 1253.9"
         style="fill:none;stroke:#231f20;stroke-width:8.6;stroke-linecap:butt;stroke-linejoin:miter;stroke-miterlimit:11.4737;stroke-dasharray:none;stroke-opacity:1"
         id="path24" /><path
         d="M 800.301,486.602 832.699,519"
         style="fill:none;stroke:#231f20;stroke-width:2.9;stroke-linecap:butt;stroke-linejoin:miter;stroke-miterlimit:11.4737;stroke-dasharray:none;stroke-opacity:1"
         id="path26" /><path
         d="m 857.199,543.5 -72,-42.5 c 18.703,-1.398 28.801,-10 30.199,-28.801 l 41.801,71.301"
         style="fill:#231f20;fill-opacity:1;fill-rule:evenodd;stroke:none"
         id="path28" /></g></g></svg>
