<?xml version="1.0" encoding="UTF-8" standalone="no"?>
<!-- Created with Inkscape (http://www.inkscape.org/) -->

<svg
   version="1.1"
   id="svg2"
   xml:space="preserve"
   width="441.33334"
   height="233.33333"
   viewBox="0 0 441.33334 233.33333"
   xmlns="http://www.w3.org/2000/svg"
   xmlns:svg="http://www.w3.org/2000/svg"><defs
     id="defs6" /><g
     id="g8"
     transform="matrix(1.3333333,0,0,-1.3333333,0,233.33333)"><g
       id="g10"
       transform="scale(0.1)"><path
         d="M 96.6016,1655.4 H 3212.8 V 97.3008 H 96.6016 Z"
         style="fill:none;stroke:#231f20;stroke-width:11.5;stroke-linecap:butt;stroke-linejoin:miter;stroke-miterlimit:11.4737;stroke-dasharray:none;stroke-opacity:1"
         id="path12" /><path
         d="m 1679.9,507 c 88.6,0 161.3,-72 161.3,-162 0,-89.301 -72.7,-162 -161.3,-162 -89.3,0 -162,72.699 -162,162 0,90 72.7,162 162,162 z"
         style="fill:none;stroke:#231f20;stroke-width:14.4;stroke-linecap:butt;stroke-linejoin:miter;stroke-miterlimit:11.4737;stroke-dasharray:none;stroke-opacity:1"
         id="path14" /><path
         d="m 2272.5,802.898 h -431.3 v 108 h 431.3 z"
         style="fill:none;stroke:#231f20;stroke-width:14.4;stroke-linecap:butt;stroke-linejoin:miter;stroke-miterlimit:11.4737;stroke-dasharray:none;stroke-opacity:1"
         id="path16" /><path
         d="m 1517.9,857.602 c 0,29.5 -24.5,53.296 -54,53.296 -28.8,0 -53.3,-24.5 -54,-53.296 -0.7,29.5 -24.5,53.296 -54,53.296 -29.5,0 -53.3,-24.5 -54,-53.296 0,29.5 -23.7,53.296 -53.3,53.296 -29.5,0 -53.2,-24.5 -54,-54 -0.7,29.5 -24.4,53.301 -54,53.301 -29.5,0 -53.2,-23.801 -54,-53.301"
         style="fill:none;stroke:#231f20;stroke-width:14.4;stroke-linecap:butt;stroke-linejoin:miter;stroke-miterlimit:11.4737;stroke-dasharray:none;stroke-opacity:1"
         id="path18" /><path
         d="m 1651.8,1260.8 v 269.3"
         style="fill:none;stroke:#231f20;stroke-width:14.4;stroke-linecap:butt;stroke-linejoin:miter;stroke-miterlimit:11.4737;stroke-dasharray:none;stroke-opacity:1"
         id="path20" /><path
         d="m 1705.8,1260.8 v 269.3"
         style="fill:none;stroke:#231f20;stroke-width:14.4;stroke-linecap:butt;stroke-linejoin:miter;stroke-miterlimit:11.4737;stroke-dasharray:none;stroke-opacity:1"
         id="path22" /><path
         d="m 1599.3,344.199 c 0,29.602 18,53.301 40.3,53.301 21.6,0 40.3,-23.699 41,-53.301 0,-29.5 18,-53.199 40.4,-53.199 21.6,0 40.3,23.699 40.3,53.199"
         style="fill:none;stroke:#231f20;stroke-width:8.6;stroke-linecap:butt;stroke-linejoin:miter;stroke-miterlimit:11.4737;stroke-dasharray:none;stroke-opacity:1"
         id="path24" /><path
         d="m 1517.9,856.898 h 324"
         style="fill:none;stroke:#231f20;stroke-width:8.6;stroke-linecap:butt;stroke-linejoin:miter;stroke-miterlimit:11.4737;stroke-dasharray:none;stroke-opacity:1"
         id="path26" /><path
         d="M 1841.9,344.199 H 2703 v 512 l -430.5,0.699"
         style="fill:none;stroke:#231f20;stroke-width:8.6;stroke-linecap:butt;stroke-linejoin:miter;stroke-miterlimit:11.4737;stroke-dasharray:none;stroke-opacity:1"
         id="path28" /><path
         d="m 1087.4,856.898 -431.298,-0.699 v -512 H 1517.9"
         style="fill:none;stroke:#231f20;stroke-width:8.6;stroke-linecap:butt;stroke-linejoin:miter;stroke-miterlimit:11.4737;stroke-dasharray:none;stroke-opacity:1"
         id="path30" /><path
         d="m 656.102,615 c 13.699,0 26.597,-12.301 26.597,-27.398 0,-15.102 -12.898,-27.403 -26.597,-27.403 -14.403,0 -27.403,12.301 -27.403,27.403 0,15.097 13,27.398 27.403,27.398"
         style="fill:#ffffff;fill-opacity:1;fill-rule:evenodd;stroke:none"
         id="path32" /><path
         d="m 656.102,615 c 13.699,0 26.597,-12.301 26.597,-27.398 0,-15.102 -12.898,-27.403 -26.597,-27.403 -14.403,0 -27.403,12.301 -27.403,27.403 0,15.097 13,27.398 27.403,27.398 z"
         style="fill:none;stroke:#231f20;stroke-width:11.5;stroke-linecap:butt;stroke-linejoin:miter;stroke-miterlimit:11.4737;stroke-dasharray:none;stroke-opacity:1"
         id="path34" /><path
         d="m 2702.3,613.5 c 14.4,0 26.7,-12.199 26.7,-27.301 0,-14.398 -12.3,-27.398 -26.7,-27.398 -14.4,0 -26.6,13 -26.6,27.398 0,15.102 12.2,27.301 26.6,27.301"
         style="fill:#ffffff;fill-opacity:1;fill-rule:evenodd;stroke:none"
         id="path36" /><path
         d="m 2702.3,613.5 c 14.4,0 26.7,-12.199 26.7,-27.301 0,-14.398 -12.3,-27.398 -26.7,-27.398 -14.4,0 -26.6,13 -26.6,27.398 0,15.102 12.2,27.301 26.6,27.301 z"
         style="fill:none;stroke:#231f20;stroke-width:11.5;stroke-linecap:butt;stroke-linejoin:miter;stroke-miterlimit:11.4737;stroke-dasharray:none;stroke-opacity:1"
         id="path38" /><path
         d="m 656.102,667.5 v 72.699"
         style="fill:none;stroke:#231f20;stroke-width:5.8;stroke-linecap:butt;stroke-linejoin:miter;stroke-miterlimit:11.4737;stroke-dasharray:none;stroke-opacity:1"
         id="path40" /><path
         d="m 655.398,775.5 -19.5,-77 c 13,10.801 26.704,10.801 39.602,0 l -20.102,77"
         style="fill:#231f20;fill-opacity:1;fill-rule:evenodd;stroke:none"
         id="path42" /><path
         d="m 538.465,744.027 v 21.887 c 0,4.785 -0.684,8.207 -2.051,10.258 -1.367,1.367 -4.789,2.734 -10.941,2.734 v 3.422 h 38.98 v -3.422 c -4.785,0 -8.207,-0.683 -9.574,-2.051 -2.051,-1.367 -2.734,-4.789 -2.734,-10.941 v -64.973 c 0,-4.101 0.683,-6.152 2.734,-6.839 1.367,-0.684 4.789,-1.368 9.574,-1.368 V 690 h -38.98 v 2.734 h 0.683 v 0 h 0.684 0.683 c 2.735,0 5.469,0 7.524,0.684 2.051,0.684 3.418,4.105 3.418,8.891 v 41.718"
         style="fill:#231f20;fill-opacity:1;fill-rule:evenodd;stroke:none"
         id="path44" /><path
         d="m 1256.41,981.293 v 26.667 c 0,3.42 -0.68,6.16 -2.05,8.21 -1.36,1.37 -4.1,2.74 -8.89,2.74 v 3.42 h 38.3 v -3.42 c -4.79,0 -8.21,-1.37 -10.26,-3.42 -2.05,-2.05 -4.1,-6.16 -4.1,-10.26 v -62.238 c 0,-4.785 2.05,-8.203 4.1,-8.89 2.05,-0.684 4.79,-1.368 7.53,-1.368 h 0.68 0.68 v 0 0 h 17.78 c 5.48,0 9.58,2.055 13.68,6.157 3.42,4.101 6.84,8.89 10.26,13.679 0.68,0.684 1.37,2.051 1.37,2.735 0.68,1.367 1.37,2.734 2.05,3.418 h 3.42 L 1322.75,930 h -68.39 v 0 h -8.89 v 2.734 c 0.69,0 1.37,0 1.37,0 0.68,0 1.37,0 1.37,0 0.68,0 1.36,0 1.36,0 0.69,0 1.37,0 1.37,0 2.06,0 3.42,0.684 4.11,1.368 0.68,0.687 1.36,3.421 1.36,6.839 v 40.352"
         style="fill:#231f20;fill-opacity:1;fill-rule:evenodd;stroke:none"
         id="path46" /><path
         d="m 1813.44,1476.77 c 0,8.89 -2.74,16.41 -6.16,20.51 -3.42,4.79 -8.21,8.21 -12.31,9.58 -2.05,0.68 -5.47,2.05 -7.52,2.05 -2.74,0.68 -4.79,0.68 -6.16,0.68 -10.25,-0.68 -18.46,-5.47 -23.93,-14.36 -4.79,-8.89 -8.21,-19.15 -8.21,-29.41 v -0.68 c 0,-0.69 0,-1.37 0,-1.37 0,-10.94 3.42,-21.2 8.21,-29.41 6.15,-8.89 14.36,-13.68 25.98,-13.68 8.21,0 15.05,2.74 21.21,8.21 5.47,6.16 9.57,13.68 10.25,23.25 h 2.74 v -31.46 h -2.74 l -3.42,6.84 c -2.05,-1.36 -4.1,-2.73 -6.83,-4.1 -2.06,-0.69 -5.48,-2.05 -8.21,-2.74 -2.05,-0.68 -4.79,-1.36 -7.52,-2.05 -2.74,0 -4.79,-0.68 -6.84,-0.68 -13.68,0 -25.31,4.1 -34.2,12.31 -9.57,8.2 -14.36,20.52 -14.36,34.19 0,1.37 0.68,3.43 0.68,4.79 0,2.05 0.69,4.1 0.69,5.47 2.05,9.58 6.84,17.78 13.67,25.31 6.84,7.52 17.1,12.31 29.42,12.99 4.78,0 9.57,0 13.67,-0.68 4.11,-1.37 8.89,-2.74 13,-5.47 0.68,-0.69 2.05,-1.37 2.73,-2.06 0.68,-0.68 2.05,-1.36 2.74,-2.05 l 3.42,6.16 h 3.42 v -32.14 h -3.42"
         style="fill:#231f20;fill-opacity:1;fill-rule:evenodd;stroke:none"
         id="path48" /><path
         d="m 2037.1,1009.33 c 0,4.11 -0.69,6.84 -2.05,7.53 -1.37,1.36 -4.11,2.05 -7.53,2.05 v 3.42 h 38.98 c 0.69,0 1.38,0 1.38,0 0.68,0 1.36,-0.69 2.05,-0.69 6.84,-0.68 14.36,-2.73 19.83,-6.84 6.15,-4.1 9.57,-10.25 9.57,-17.777 0,-8.207 -2.05,-13.679 -6.15,-17.097 -4.11,-3.422 -8.89,-6.156 -15.05,-8.207 1.37,-2.051 4.1,-4.106 6.16,-6.156 2.05,-2.735 4.1,-6.157 6.15,-8.891 1.37,-0.684 2.05,-2.051 2.05,-2.734 0.69,-0.684 1.37,-2.051 2.06,-2.739 0.68,-0.683 1.36,-1.367 1.36,-2.051 0.69,-0.683 1.37,-1.367 1.37,-2.05 0.68,-1.368 2.05,-2.735 2.74,-4.106 0.68,-1.367 2.05,-2.734 2.73,-4.101 0.69,-2.051 2.05,-3.418 3.42,-4.789 1.37,-0.684 3.42,-1.368 6.84,-1.368 h 0.69 c 0.68,0 1.36,0 1.36,0 V 930 h -23.25 c -1.37,2.051 -2.74,4.102 -3.42,6.156 -1.37,2.051 -2.73,4.102 -3.42,5.469 -0.68,0.684 -1.37,2.055 -2.05,2.738 -0.69,0.684 -1.37,2.051 -1.37,2.735 -1.37,1.367 -2.73,3.418 -4.1,4.789 -0.68,1.367 -2.06,3.418 -3.42,4.785 -1.37,1.367 -2.05,2.734 -2.74,4.105 -1.36,1.368 -2.73,2.735 -3.41,3.418 -2.06,1.368 -4.11,3.418 -6.16,4.102 -2.74,0.683 -6.84,1.371 -10.94,2.055 v -28.043 c 0,-4.786 1.36,-7.52 2.73,-8.207 2.05,-0.684 5.47,-1.368 10.26,-1.368 V 930 h -36.25 v 2.734 c 0.69,0 1.37,0 1.37,0 1.37,0 2.05,0 2.05,0 2.74,0 4.79,0.684 5.47,2.055 0.69,1.367 0.69,3.418 0.69,6.836 v 0.684 0.683 z m 13.68,-35.56 c 0.68,0 1.36,0 2.05,0 0.68,0 1.37,-0.684 2.05,-0.684 0.68,0 1.37,0 1.37,0 h 0.68 c 0.68,0 1.37,0 2.05,0 0,0 0.69,0.684 1.37,0.684 5.47,0 11.63,1.367 15.73,4.101 5.47,3.422 8.21,8.895 8.21,16.414 0,0.684 0,1.371 0,2.055 0,0.683 0,1.367 0,2.051 -0.69,4.789 -2.74,9.569 -5.47,13.679 -2.74,4.1 -9.58,6.15 -18.47,6.84 -2.74,0 -4.79,-0.69 -6.84,-1.37 -1.37,-1.37 -2.73,-4.1 -2.73,-8.21 v -35.56"
         style="fill:#231f20;fill-opacity:1;fill-rule:evenodd;stroke:none"
         id="path50" /><path
         d="M 656.102,856.898 V 1395.4 H 1653.3"
         style="fill:none;stroke:#231f20;stroke-width:8.6;stroke-linecap:butt;stroke-linejoin:miter;stroke-miterlimit:11.4737;stroke-dasharray:none;stroke-opacity:1"
         id="path52" /><path
         d="M 1707.3,1395.4 H 2703 V 856.898"
         style="fill:none;stroke:#231f20;stroke-width:8.6;stroke-linecap:butt;stroke-linejoin:miter;stroke-miterlimit:11.4737;stroke-dasharray:none;stroke-opacity:1"
         id="path54" /><path
         d="m 655.398,868.398 c 6.403,0 12.903,-6.5 12.903,-13.699 0,-7.898 -6.5,-13.699 -12.903,-13.699 -7.199,0 -13,5.801 -13,13.699 0,7.199 5.801,13.699 13,13.699"
         style="fill:#231f20;fill-opacity:1;fill-rule:evenodd;stroke:none"
         id="path56" /><path
         d="m 655.398,868.398 c 6.403,0 12.903,-6.5 12.903,-13.699 0,-7.898 -6.5,-13.699 -12.903,-13.699 -7.199,0 -13,5.801 -13,13.699 0,7.199 5.801,13.699 13,13.699 z"
         style="fill:none;stroke:#231f20;stroke-width:5.8;stroke-linecap:butt;stroke-linejoin:miter;stroke-miterlimit:11.4737;stroke-dasharray:none;stroke-opacity:1"
         id="path58" /><path
         d="m 2703,870.602 c 6.5,0 13,-6.5 13,-13.704 0,-7.898 -6.5,-13.699 -13,-13.699 -7.2,0 -12.9,5.801 -12.9,13.699 0,7.204 5.7,13.704 12.9,13.704"
         style="fill:#231f20;fill-opacity:1;fill-rule:evenodd;stroke:none"
         id="path60" /><path
         d="m 2703,870.602 c 6.5,0 13,-6.5 13,-13.704 0,-7.898 -6.5,-13.699 -13,-13.699 -7.2,0 -12.9,5.801 -12.9,13.699 0,7.204 5.7,13.704 12.9,13.704 z"
         style="fill:none;stroke:#231f20;stroke-width:5.8;stroke-linecap:butt;stroke-linejoin:miter;stroke-miterlimit:11.4737;stroke-dasharray:none;stroke-opacity:1"
         id="path62" /></g></g></svg>
