<?xml version="1.0" encoding="UTF-8" standalone="no"?>
<!-- Created with Inkscape (http://www.inkscape.org/) -->

<svg
   version="1.1"
   id="svg2"
   xml:space="preserve"
   width="212"
   height="176"
   viewBox="0 0 212 176"
   xmlns="http://www.w3.org/2000/svg"
   xmlns:svg="http://www.w3.org/2000/svg"><defs
     id="defs6" /><g
     id="g8"
     transform="matrix(1.3333333,0,0,-1.3333333,0,176)"><g
       id="g10"
       transform="scale(0.1)"><path
         d="m 1022.1,873 c -0.7,15.902 -13,28.102 -28.799,28.102 -15.102,0 -28.102,-12.2 -28.102,-28.102 -0.699,15.902 -13,28.102 -28.797,28.102 -15.101,0 -28.101,-12.2 -28.101,-28.102 0,15.902 -12.903,28.102 -28.102,28.102 -15.801,0 -28,-12.2 -28.797,-28.102 0,15.902 -12.902,28.102 -28.004,28.102 -15.898,0 -28.097,-12.903 -28.796,-28.102"
         style="fill:none;stroke:#231f20;stroke-width:14.4;stroke-linecap:butt;stroke-linejoin:miter;stroke-miterlimit:11.4737;stroke-dasharray:none;stroke-opacity:1"
         id="path12" /><path
         d="m 859.359,980.234 v 16.559 c 0,2.16 0,3.597 -0.718,5.037 -1.442,0.72 -2.883,1.44 -5.043,1.44 v 2.16 h 22.32 v -2.16 c -2.883,0 -5.039,-0.72 -5.762,-2.16 -1.437,-0.72 -2.16,-3.598 -2.16,-5.755 v -37.437 c 0,-2.879 0.723,-5.039 2.16,-5.758 0.723,-0.719 2.879,-0.719 4.321,-0.719 v 0 h 0.718 v 0 0 h 10.801 c 3.598,0 5.758,1.438 7.918,3.598 2.16,2.879 5.039,5.758 6.481,7.918 0.718,0.723 0.718,2.16 0.718,2.16 0.719,0.719 1.438,1.442 1.438,2.16 h 2.16 L 899.672,950 h -41.031 v 0 h -5.043 v 1.441 c 0,0 0,0 0.722,0 h 0.719 0.719 0.722 c 0.719,0 2.161,0 2.161,0.719 0.718,0.719 0.718,2.16 0.718,4.32 v 23.754"
         style="fill:#231f20;fill-opacity:1;fill-rule:evenodd;stroke:none"
         id="path14" /><path
         d="m 927.75,989.594 c 0,1.441 0,2.879 -0.719,2.879 0,0.722 -0.722,0.722 -1.441,0.722 -0.719,0 -0.719,0 -0.719,0 -0.723,0 -0.723,0.719 -0.723,0.719 l -4.316,0.719 v 1.441 c 0.719,0 1.438,0.719 2.879,0.719 1.437,0.719 2.879,1.441 4.32,2.16 0.719,0 2.157,1.437 2.879,2.157 0.719,0.72 2.16,1.44 2.879,2.88 h 2.16 v -41.033 0 -3.598 c 0,-3.601 0,-6.48 0.719,-6.48 0.719,-0.719 2.16,-1.438 5.039,-1.438 h 0.719 v 0 V 950 h -20.875 v 1.441 c 0,0 0.719,0 1.437,0 0,0 0.723,0 1.442,0 2.16,0 3.601,0.719 3.601,1.438 0.719,0.719 0.719,2.879 0.719,6.48 v 30.235"
         style="fill:#231f20;fill-opacity:1;fill-rule:evenodd;stroke:none"
         id="path16" /><path
         d="m 820.395,643.836 c 0,5.758 -1.442,10.078 -3.602,12.238 -2.16,2.879 -5.039,5.039 -7.918,6.477 -1.441,0 -2.879,0.722 -4.32,0.722 -1.438,0.719 -2.879,0.719 -4.321,0.719 -5.757,-0.719 -10.796,-3.597 -13.675,-8.637 -3.602,-5.761 -5.039,-11.519 -5.039,-18 v -0.718 -0.719 c 0,-6.48 1.437,-12.238 5.039,-17.277 3.597,-5.762 8.636,-8.641 15.117,-8.641 5.039,0 9.359,2.16 12.957,5.039 3.601,3.602 5.762,8.641 6.48,13.68 h 1.438 V 610 h -1.438 l -2.16,4.32 c -1.441,-0.722 -2.879,-1.441 -4.32,-2.16 -1.438,-0.719 -2.879,-1.441 -5.039,-2.16 -1.438,0 -2.879,0 -4.321,-0.719 -1.437,0 -2.878,0 -4.316,0 -7.922,0 -15.121,1.438 -20.16,6.477 -5.758,5.039 -8.637,12.238 -8.637,20.879 0,0.718 0,2.16 0,2.879 0,1.441 0.719,2.16 0.719,3.601 0.719,5.039 3.601,10.078 7.918,15.117 4.32,4.317 10.801,7.2 18,7.918 2.879,0 5.758,-0.718 7.918,-0.718 2.879,-0.723 5.758,-1.442 7.918,-2.883 0.722,-0.719 1.441,-1.438 2.16,-1.438 0,-0.718 0.719,-1.441 1.441,-1.441 l 2.161,3.601 h 1.437 v -19.437 h -1.437"
         style="fill:#231f20;fill-opacity:1;fill-rule:evenodd;stroke:none"
         id="path18" /><path
         d="m 834.793,647.434 c 0.719,0.722 1.437,2.16 2.156,2.879 0.723,1.441 1.442,2.882 2.883,5.042 1.438,2.157 3.598,3.598 5.758,5.758 2.16,1.438 5.039,2.879 7.918,2.879 3.601,0 6.48,-1.441 9.359,-2.879 2.16,-1.441 3.598,-4.32 3.598,-7.918 0,-2.882 -0.719,-5.039 -1.438,-7.199 -1.441,-1.441 -2.879,-3.601 -4.32,-5.762 -2.16,-1.437 -4.32,-3.597 -5.758,-5.039 -1.441,-1.437 -2.879,-2.879 -4.32,-4.316 0,-0.723 -0.719,-1.441 -1.441,-2.16 -0.719,-0.723 -1.438,-1.442 -2.157,-2.16 h -0.722 v -0.723 c -2.161,-1.438 -3.598,-3.598 -4.321,-5.039 -1.437,-1.438 -2.879,-3.598 -2.879,-5.039 h 17.278 c 2.16,0 4.32,0.722 5.761,1.441 0.719,0.719 2.161,2.16 2.879,4.321 h 2.161 l -5.762,-15.118 h -0.719 c 0,1.438 -0.719,2.879 -1.437,2.879 0,0.719 -1.442,0.719 -3.602,0.719 h -20.875 c 0,2.16 0.719,5.039 2.156,7.199 1.442,2.16 2.883,5.039 3.602,6.481 1.437,0.718 2.16,2.156 2.879,2.879 0.718,0.718 1.441,2.16 2.16,2.16 0,1.437 1.441,2.16 2.16,3.597 1.438,1.442 2.16,2.879 3.598,4.321 0.722,0.718 0.722,0.718 0.722,1.437 0.719,0 0.719,0.723 0.719,0.723 0.719,1.437 2.16,2.879 2.879,3.598 0.719,1.441 1.441,2.878 2.16,3.601 0,0.719 0.719,0.719 0.719,1.438 0,0 0,0.722 0,1.441 l 0.723,0.719 c 0,0.719 0,1.441 0,1.441 0,1.438 -0.723,3.598 -2.161,5.039 -0.722,1.438 -2.882,2.16 -5.039,2.879 v 0 h -0.722 v 0 h -0.719 c -2.16,0 -4.32,-0.719 -6.481,-2.16 -1.437,-2.16 -3.597,-3.598 -4.316,-5.758 -0.723,-0.722 -1.441,-1.441 -1.441,-2.16 -0.719,0 -0.719,-1.441 -1.442,-1.441 h -2.156"
         style="fill:#231f20;fill-opacity:1;fill-rule:evenodd;stroke:none"
         id="path20" /><path
         d="M 738.398,615.301 H 568.5"
         style="fill:none;stroke:#231f20;stroke-width:14.4;stroke-linecap:butt;stroke-linejoin:miter;stroke-miterlimit:11.4737;stroke-dasharray:none;stroke-opacity:1"
         id="path22" /><path
         d="M 738.398,644.102 H 568.5"
         style="fill:none;stroke:#231f20;stroke-width:14.4;stroke-linecap:butt;stroke-linejoin:miter;stroke-miterlimit:11.4737;stroke-dasharray:none;stroke-opacity:1"
         id="path24" /><path
         d="m 652,377.699 c 7.199,0 13.699,-6.5 13.699,-14.398 0,-7.903 -6.5,-14.399 -13.699,-14.399 -7.199,0 -13.699,6.496 -13.699,14.399 0,7.898 6.5,14.398 13.699,14.398"
         style="fill:#231f20;fill-opacity:1;fill-rule:evenodd;stroke:none"
         id="path26" /><path
         d="m 652,377.699 c 7.199,0 13.699,-6.5 13.699,-14.398 0,-7.903 -6.5,-14.399 -13.699,-14.399 -7.199,0 -13.699,6.496 -13.699,14.399 0,7.898 6.5,14.398 13.699,14.398 z"
         style="fill:none;stroke:#231f20;stroke-width:8.6;stroke-linecap:butt;stroke-linejoin:miter;stroke-miterlimit:11.4737;stroke-dasharray:none;stroke-opacity:1"
         id="path28" /><path
         d="m 652,886 c 7.199,0 13.699,-6.5 13.699,-14.398 0,-7.903 -6.5,-14.403 -13.699,-14.403 -7.199,0 -13.699,6.5 -13.699,14.403 0,7.898 6.5,14.398 13.699,14.398"
         style="fill:#231f20;fill-opacity:1;fill-rule:evenodd;stroke:none"
         id="path30" /><path
         d="m 652,886 c 7.199,0 13.699,-6.5 13.699,-14.398 0,-7.903 -6.5,-14.403 -13.699,-14.403 -7.199,0 -13.699,6.5 -13.699,14.403 0,7.898 6.5,14.398 13.699,14.398 z"
         style="fill:none;stroke:#231f20;stroke-width:8.6;stroke-linecap:butt;stroke-linejoin:miter;stroke-miterlimit:11.4737;stroke-dasharray:none;stroke-opacity:1"
         id="path32" /><path
         d="m 355.398,377 c 7.204,0 13.602,-6.5 13.602,-14.398 0,-8 -6.398,-14.403 -13.602,-14.403 -7.199,0 -13.699,6.403 -13.699,14.403 0,7.898 6.5,14.398 13.699,14.398 z"
         style="fill:none;stroke:#231f20;stroke-width:5.8;stroke-linecap:butt;stroke-linejoin:miter;stroke-miterlimit:11.4737;stroke-dasharray:none;stroke-opacity:1"
         id="path34" /><path
         d="m 355.398,886.699 c 7.204,0 13.602,-6.5 13.602,-14.398 0,-7.903 -6.398,-14.403 -13.602,-14.403 -7.199,0 -13.699,6.5 -13.699,14.403 0,7.898 6.5,14.398 13.699,14.398 z"
         style="fill:none;stroke:#231f20;stroke-width:5.8;stroke-linecap:butt;stroke-linejoin:miter;stroke-miterlimit:11.4737;stroke-dasharray:none;stroke-opacity:1"
         id="path36" /><path
         d="m 1232.3,379.102 c 7.2,0 13.7,-6.5 13.7,-14.403 0,-7.898 -6.5,-14.398 -13.7,-14.398 -7.2,0 -13.7,6.5 -13.7,14.398 0,7.903 6.5,14.403 13.7,14.403 z"
         style="fill:none;stroke:#231f20;stroke-width:5.8;stroke-linecap:butt;stroke-linejoin:miter;stroke-miterlimit:11.4737;stroke-dasharray:none;stroke-opacity:1"
         id="path38" /><path
         d="m 1232.3,887.398 c 7.2,0 13.7,-6.398 13.7,-14.398 0,-7.898 -6.5,-14.398 -13.7,-14.398 -7.2,0 -13.7,6.5 -13.7,14.398 0,8 6.5,14.398 13.7,14.398 z"
         style="fill:none;stroke:#231f20;stroke-width:5.8;stroke-linecap:butt;stroke-linejoin:miter;stroke-miterlimit:11.4737;stroke-dasharray:none;stroke-opacity:1"
         id="path40" /><path
         d="m 369,362.602 h 851.1"
         style="fill:none;stroke:#231f20;stroke-width:8.6;stroke-linecap:butt;stroke-linejoin:miter;stroke-miterlimit:11.4737;stroke-dasharray:none;stroke-opacity:1"
         id="path42" /><path
         d="M 652.699,617.398 V 362.602"
         style="fill:none;stroke:#231f20;stroke-width:8.6;stroke-linecap:butt;stroke-linejoin:miter;stroke-miterlimit:11.4737;stroke-dasharray:none;stroke-opacity:1"
         id="path44" /><path
         d="M 652.699,645.5 V 872.301"
         style="fill:none;stroke:#231f20;stroke-width:8.6;stroke-linecap:butt;stroke-linejoin:miter;stroke-miterlimit:11.4737;stroke-dasharray:none;stroke-opacity:1"
         id="path46" /><path
         d="M 369,872.301 H 794.602"
         style="fill:none;stroke:#231f20;stroke-width:8.6;stroke-linecap:butt;stroke-linejoin:miter;stroke-miterlimit:11.4737;stroke-dasharray:none;stroke-opacity:1"
         id="path48" /><path
         d="m 1021.4,872.301 h 198.7"
         style="fill:none;stroke:#231f20;stroke-width:8.6;stroke-linecap:butt;stroke-linejoin:miter;stroke-miterlimit:11.4737;stroke-dasharray:none;stroke-opacity:1"
         id="path50" /><path
         d="M 86.8008,1227.3 H 1504.5 V 93.3008 H 86.8008 Z"
         style="fill:none;stroke:#231f20;stroke-width:8.6;stroke-linecap:butt;stroke-linejoin:miter;stroke-miterlimit:11.4737;stroke-dasharray:none;stroke-opacity:1"
         id="path52" /></g></g></svg>
