<?xml version="1.0" encoding="UTF-8" standalone="no"?>
<!-- Created with Inkscape (http://www.inkscape.org/) -->

<svg
   version="1.1"
   id="svg2"
   xml:space="preserve"
   width="214.66667"
   height="213.33333"
   viewBox="0 0 214.66667 213.33333"
   xmlns="http://www.w3.org/2000/svg"
   xmlns:svg="http://www.w3.org/2000/svg"><defs
     id="defs6" /><g
     id="g8"
     transform="matrix(1.3333333,0,0,-1.3333333,0,213.33333)"><g
       id="g10"
       transform="scale(0.1)"><path
         d="M 95,1507.3 H 1511.9 V 90.3008 H 95 Z"
         style="fill:none;stroke:#231f20;stroke-width:11.5;stroke-linecap:butt;stroke-linejoin:miter;stroke-miterlimit:11.4737;stroke-dasharray:none;stroke-opacity:1"
         id="path12" /><path
         d="m 264.898,1307.8 736.502,0.8"
         style="fill:none;stroke:#231f20;stroke-width:8.6;stroke-linecap:butt;stroke-linejoin:miter;stroke-miterlimit:11.4737;stroke-dasharray:none;stroke-opacity:1"
         id="path14" /><path
         d="M 264.898,287.602 1285.1,288.301"
         style="fill:none;stroke:#231f20;stroke-width:8.6;stroke-linecap:butt;stroke-linejoin:miter;stroke-miterlimit:11.4737;stroke-dasharray:none;stroke-opacity:1"
         id="path16" /><path
         d="m 1001.4,1251.7 v 56.9"
         style="fill:none;stroke:#231f20;stroke-width:8.6;stroke-linecap:butt;stroke-linejoin:miter;stroke-miterlimit:11.4737;stroke-dasharray:none;stroke-opacity:1"
         id="path18" /><path
         d="m 945.301,855 v 396.7 H 1059 V 855 Z"
         style="fill:none;stroke:#231f20;stroke-width:14.4;stroke-linecap:butt;stroke-linejoin:miter;stroke-miterlimit:11.4737;stroke-dasharray:none;stroke-opacity:1"
         id="path20" /><path
         d="M 1228.2,345.199 V 742.602 H 1342 V 345.199 Z"
         style="fill:none;stroke:#231f20;stroke-width:14.4;stroke-linecap:butt;stroke-linejoin:miter;stroke-miterlimit:11.4737;stroke-dasharray:none;stroke-opacity:1"
         id="path22" /><path
         d="M 660.898,344.5 V 741.898 H 774.602 V 344.5 Z"
         style="fill:none;stroke:#231f20;stroke-width:14.4;stroke-linecap:butt;stroke-linejoin:miter;stroke-miterlimit:11.4737;stroke-dasharray:none;stroke-opacity:1"
         id="path24" /><path
         d="M 1285.1,344.5 V 287.602"
         style="fill:none;stroke:#231f20;stroke-width:8.6;stroke-linecap:butt;stroke-linejoin:miter;stroke-miterlimit:11.4737;stroke-dasharray:none;stroke-opacity:1"
         id="path26" /><g
         id="g28"
         transform="scale(10)"><text
           transform="matrix(1,0,0,-1,108,108)"
           style="font-variant:normal;font-weight:normal;font-size:13.9661px;font-family:Symbol;-inkscape-font-specification:Symbol;writing-mode:lr-tb;fill:#231f20;fill-opacity:1;fill-rule:nonzero;stroke:none"
           id="text34"><tspan
             x="0 6.8390803 14.830117"
             y="0"
             id="tspan30">10Ω</tspan><tspan
             x="-14 -7.1609197 0.83011699 -71.000191 -64.161102 -56.170067"
             y="68"
             id="tspan32">10Ω10Ω</tspan></text></g><path
         d="m 236.102,315.699 c 15.097,0 28.097,-12.297 28.097,-28.097 0,-15.801 -13,-28.102 -28.097,-28.102 C 221,259.5 208,271.801 208,287.602 c 0,15.8 13,28.097 28.102,28.097 z"
         style="fill:none;stroke:#231f20;stroke-width:5.8;stroke-linecap:butt;stroke-linejoin:miter;stroke-miterlimit:11.4737;stroke-dasharray:none;stroke-opacity:1"
         id="path36" /><path
         d="m 236.102,1336.6 c 15.097,0 28.097,-12.2 28.097,-28 0,-15.9 -13,-28.1 -28.097,-28.1 -15.102,0 -28.102,12.2 -28.102,28.1 0,15.8 13,28 28.102,28 z"
         style="fill:none;stroke:#231f20;stroke-width:5.8;stroke-linecap:butt;stroke-linejoin:miter;stroke-miterlimit:11.4737;stroke-dasharray:none;stroke-opacity:1"
         id="path38" /><path
         d="M 717.801,344.5 718.5,287.602"
         style="fill:none;stroke:#231f20;stroke-width:8.6;stroke-linecap:butt;stroke-linejoin:miter;stroke-miterlimit:11.4737;stroke-dasharray:none;stroke-opacity:1"
         id="path40" /><path
         d="m 718.5,304.199 c 7.902,0 14.398,-6.5 14.398,-14.398 0,-8 -6.496,-14.403 -14.398,-14.403 -7.898,0 -14.398,6.403 -14.398,14.403 0,7.898 6.5,14.398 14.398,14.398"
         style="fill:#231f20;fill-opacity:1;fill-rule:evenodd;stroke:none"
         id="path42" /><path
         d="m 718.5,304.199 c 7.902,0 14.398,-6.5 14.398,-14.398 0,-8 -6.496,-14.403 -14.398,-14.403 -7.898,0 -14.398,6.403 -14.398,14.403 0,7.898 6.5,14.398 14.398,14.398 z"
         style="fill:none;stroke:#231f20;stroke-width:2.2;stroke-linecap:butt;stroke-linejoin:miter;stroke-miterlimit:11.4737;stroke-dasharray:none;stroke-opacity:1"
         id="path44" /><path
         d="m 1002.9,815.398 c 7.9,0 14.4,-6.496 14.4,-14.398 0,-8 -6.5,-14.398 -14.4,-14.398 -7.9,0 -14.4,6.398 -14.4,14.398 0,7.902 6.5,14.398 14.4,14.398"
         style="fill:#231f20;fill-opacity:1;fill-rule:evenodd;stroke:none"
         id="path46" /><path
         d="m 1002.9,815.398 c 7.9,0 14.4,-6.496 14.4,-14.398 0,-8 -6.5,-14.398 -14.4,-14.398 -7.9,0 -14.4,6.398 -14.4,14.398 0,7.902 6.5,14.398 14.4,14.398 z"
         style="fill:none;stroke:#231f20;stroke-width:2.2;stroke-linecap:butt;stroke-linejoin:miter;stroke-miterlimit:11.4737;stroke-dasharray:none;stroke-opacity:1"
         id="path48" /><path
         d="m 718.5,741.898 v 56.204 h 566.6 v -56.204"
         style="fill:none;stroke:#231f20;stroke-width:8.6;stroke-linecap:butt;stroke-linejoin:miter;stroke-miterlimit:11.4737;stroke-dasharray:none;stroke-opacity:1"
         id="path50" /><path
         d="M 1001.4,798.102 V 855"
         style="fill:none;stroke:#231f20;stroke-width:8.6;stroke-linecap:butt;stroke-linejoin:miter;stroke-miterlimit:11.4737;stroke-dasharray:none;stroke-opacity:1"
         id="path52" /></g></g></svg>
